<?xml version="1.0" encoding="UTF-8" standalone="no"?>
<svg
   xmlns:dc="http://purl.org/dc/elements/1.1/"
   xmlns:cc="http://creativecommons.org/ns#"
   xmlns:rdf="http://www.w3.org/1999/02/22-rdf-syntax-ns#"
   xmlns:svg="http://www.w3.org/2000/svg"
   xmlns="http://www.w3.org/2000/svg"
   viewBox="0 0 693.33331 636.284"
   height="636.284"
   width="693.33331"
   xml:space="preserve"
   id="svg2"
   version="1.1"><metadata
     id="metadata8"><rdf:RDF><cc:Work
         rdf:about=""><dc:format>image/svg+xml</dc:format><dc:type
           rdf:resource="http://purl.org/dc/dcmitype/StillImage" /></cc:Work></rdf:RDF></metadata><defs
     id="defs6"><clipPath
       id="clipPath38"
       clipPathUnits="userSpaceOnUse"><path
         id="path36"
         d="M 0,477.213 H 520 V 0 H 0 Z" /></clipPath><clipPath
       id="clipPath46"
       clipPathUnits="userSpaceOnUse"><path
         id="path44"
         d="M 207.634,380.53 H 380.686 V 131.424 H 207.634 Z" /></clipPath><clipPath
       id="clipPath60"
       clipPathUnits="userSpaceOnUse"><path
         id="path58"
         d="m 455.555,380.53 h 8.719 V 131.424 h -8.719 z" /></clipPath><clipPath
       id="clipPath74"
       clipPathUnits="userSpaceOnUse"><path
         id="path72"
         d="M 57.6109,380.53 H 92.2023 V 131.424 H 57.6109 Z" /></clipPath><clipPath
       id="clipPath180"
       clipPathUnits="userSpaceOnUse"><path
         id="path178"
         d="M 0,477.213 H 520 V 0 H 0 Z" /></clipPath><clipPath
       id="clipPath188"
       clipPathUnits="userSpaceOnUse"><path
         id="path186"
         d="m 34.2867,380.73 h 0.4 V 131.224 h -0.4 z" /></clipPath><clipPath
       id="clipPath212"
       clipPathUnits="userSpaceOnUse"><path
         id="path210"
         d="m 103.564,380.73 h 0.4 V 131.224 h -0.4 z" /></clipPath><clipPath
       id="clipPath236"
       clipPathUnits="userSpaceOnUse"><path
         id="path234"
         d="m 172.747,380.73 h 0.4 V 131.224 h -0.4 z" /></clipPath><clipPath
       id="clipPath260"
       clipPathUnits="userSpaceOnUse"><path
         id="path258"
         d="m 242.025,380.73 h 0.4 V 131.224 h -0.4 z" /></clipPath><clipPath
       id="clipPath284"
       clipPathUnits="userSpaceOnUse"><path
         id="path282"
         d="m 311.208,380.73 h 0.4 V 131.224 h -0.4 z" /></clipPath><clipPath
       id="clipPath308"
       clipPathUnits="userSpaceOnUse"><path
         id="path306"
         d="m 380.486,380.73 h 0.4 V 131.224 h -0.4 z" /></clipPath><clipPath
       id="clipPath332"
       clipPathUnits="userSpaceOnUse"><path
         id="path330"
         d="m 449.669,380.73 h 0.4 V 131.224 h -0.4 z" /></clipPath><clipPath
       id="clipPath356"
       clipPathUnits="userSpaceOnUse"><path
         id="path354"
         d="m 26.707,183.862 h 490.536 v -0.4 H 26.707 Z" /></clipPath><clipPath
       id="clipPath380"
       clipPathUnits="userSpaceOnUse"><path
         id="path378"
         d="m 26.707,239.526 h 490.536 v -0.4 H 26.707 Z" /></clipPath><clipPath
       id="clipPath404"
       clipPathUnits="userSpaceOnUse"><path
         id="path402"
         d="m 26.707,295.191 h 490.536 v -0.4 H 26.707 Z" /></clipPath><clipPath
       id="clipPath428"
       clipPathUnits="userSpaceOnUse"><path
         id="path426"
         d="m 26.707,350.856 h 490.536 v -0.4 H 26.707 Z" /></clipPath></defs><g
     transform="matrix(1.3333333,0,0,-1.3333333,0,636.284)"
     id="g10"><text
       id="text14"
       style="font-variant:normal;font-weight:900;font-stretch:normal;font-size:19px;font-family:'Akrobat Black';-inkscape-font-specification:Akrobat-Black;writing-mode:lr-tb;fill:#000000;fill-opacity:1;fill-rule:nonzero;stroke:none"
       transform="matrix(1,0,0,-1,5,453.3638)"><tspan
         id="tspan12"
         y="0"
         x="0 11.476 22.268 34.998001 46.284 51.984001 62.776001 75.050003 86.944 99.066002 110.922 121.7349 134.045 144.91299 156.38901 168.815 174.515 185.30701 201.00101 207.955 218.76601 231.496 242.364 253.84 266.26599 271.966 283.82199 295.944 307.116 319.23801 329.07999 339.87201 352.60199 359.556 370.34799">CENA EURÓPSKYCH EMISNÝCH POVOLENIEK</tspan></text>
<text
       id="text30"
       style="font-variant:normal;font-weight:300;font-stretch:normal;font-size:15px;font-family:'Roboto Light';-inkscape-font-specification:Roboto-Light;writing-mode:lr-tb;fill:#000000;fill-opacity:1;fill-rule:nonzero;stroke:none"
       transform="matrix(1,0,0,-1,17.8604,110.2813)"><tspan
         id="tspan16"
         y="0"
         x="0 8.3100004 16.620001 24.93">2008</tspan><tspan
         id="tspan18"
         y="-21.15"
         x="-8.0249996">0</tspan><tspan
         id="tspan20"
         y="-68.235001"
         x="-16.334999 -8.0249996">10</tspan><tspan
         id="tspan22"
         y="-125.385"
         x="-16.334999 -8.0249996">20</tspan><tspan
         id="tspan24"
         y="-179.895"
         x="-16.334999 -8.0249996">30</tspan><tspan
         id="tspan26"
         y="-235.35001"
         x="-16.334999 -8.0249996">40</tspan><tspan
         id="tspan28"
         y="2.6645353e-14"
         x="69.239998 77.550003 85.860001 94.169998 138.465 146.77499 155.08501 163.395 207.69 216 224.31 232.62 276.91501 285.22501 293.535 301.845 346.14001 354.45001 362.76001 371.07001 400.89001 409.20001 417.51001 425.82001">201020122014201620182020</tspan></text>
<g
       id="g32"><g
         clip-path="url(#clipPath38)"
         id="g34"><g
           id="g40"><g
             id="g42" /><g
             id="g52"><g
               id="g50"
               clip-path="url(#clipPath46)"><path
                 id="path48"
                 style="fill:#f1f2f2;fill-opacity:1;fill-rule:nonzero;stroke:none"
                 d="M 207.634,380.53 H 380.686 V 131.424 H 207.634 Z" /></g></g></g><g
           id="g54"><g
             id="g56" /><g
             id="g66"><g
               id="g64"
               clip-path="url(#clipPath60)"><path
                 id="path62"
                 style="fill:#f1f2f2;fill-opacity:1;fill-rule:nonzero;stroke:none"
                 d="m 455.555,380.53 h 8.72 V 131.424 h -8.72 z" /></g></g></g><g
           id="g68"><g
             id="g70" /><g
             id="g80"><g
               id="g78"
               clip-path="url(#clipPath74)"><path
                 id="path76"
                 style="fill:#f1f2f2;fill-opacity:1;fill-rule:nonzero;stroke:none"
                 d="M 57.611,380.53 H 92.202 V 131.424 H 57.611 Z" /></g></g></g></g></g><g
       transform="translate(34.4862,127.9431)"
       id="g82"><path
         id="path84"
         style="fill:#666666;fill-opacity:1;fill-rule:nonzero;stroke:none"
         d="M 0,0 V 3.48 Z" /></g><g
       transform="translate(34.4863,131.4234)"
       id="g86"><path
         id="path88"
         style="fill:none;stroke:#666666;stroke-width:0.60000002;stroke-linecap:butt;stroke-linejoin:round;stroke-miterlimit:4;stroke-dasharray:none;stroke-opacity:1"
         d="M 0,0 V -3.48" /></g><g
       transform="translate(103.7646,127.9431)"
       id="g90"><path
         id="path92"
         style="fill:#666666;fill-opacity:1;fill-rule:nonzero;stroke:none"
         d="M 0,0 V 3.48 Z" /></g><g
       transform="translate(103.7646,131.4234)"
       id="g94"><path
         id="path96"
         style="fill:none;stroke:#666666;stroke-width:0.60000002;stroke-linecap:butt;stroke-linejoin:round;stroke-miterlimit:4;stroke-dasharray:none;stroke-opacity:1"
         d="M 0,0 V -3.48" /></g><g
       transform="translate(172.9476,127.9431)"
       id="g98"><path
         id="path100"
         style="fill:#666666;fill-opacity:1;fill-rule:nonzero;stroke:none"
         d="M 0,0 V 3.48 Z" /></g><g
       transform="translate(172.9473,131.4234)"
       id="g102"><path
         id="path104"
         style="fill:none;stroke:#666666;stroke-width:0.60000002;stroke-linecap:butt;stroke-linejoin:round;stroke-miterlimit:4;stroke-dasharray:none;stroke-opacity:1"
         d="M 0,0 V -3.48" /></g><g
       transform="translate(242.226,127.9431)"
       id="g106"><path
         id="path108"
         style="fill:#666666;fill-opacity:1;fill-rule:nonzero;stroke:none"
         d="M 0,0 V 3.48 Z" /></g><g
       transform="translate(242.2256,131.4234)"
       id="g110"><path
         id="path112"
         style="fill:none;stroke:#666666;stroke-width:0.60000002;stroke-linecap:butt;stroke-linejoin:round;stroke-miterlimit:4;stroke-dasharray:none;stroke-opacity:1"
         d="M 0,0 V -3.48" /></g><g
       transform="translate(311.4081,127.9431)"
       id="g114"><path
         id="path116"
         style="fill:#666666;fill-opacity:1;fill-rule:nonzero;stroke:none"
         d="M 0,0 V 3.48 Z" /></g><g
       transform="translate(311.4082,131.4234)"
       id="g118"><path
         id="path120"
         style="fill:none;stroke:#666666;stroke-width:0.60000002;stroke-linecap:butt;stroke-linejoin:round;stroke-miterlimit:4;stroke-dasharray:none;stroke-opacity:1"
         d="M 0,0 V -3.48" /></g><g
       transform="translate(380.6856,127.9431)"
       id="g122"><path
         id="path124"
         style="fill:#666666;fill-opacity:1;fill-rule:nonzero;stroke:none"
         d="M 0,0 V 3.48 Z" /></g><g
       transform="translate(380.6855,131.4234)"
       id="g126"><path
         id="path128"
         style="fill:none;stroke:#666666;stroke-width:0.60000002;stroke-linecap:butt;stroke-linejoin:round;stroke-miterlimit:4;stroke-dasharray:none;stroke-opacity:1"
         d="M 0,0 V -3.48" /></g><g
       transform="translate(449.8695,127.9431)"
       id="g130"><path
         id="path132"
         style="fill:#666666;fill-opacity:1;fill-rule:nonzero;stroke:none"
         d="M 0,0 V 3.48 Z" /></g><g
       transform="translate(449.8691,131.4234)"
       id="g134"><path
         id="path136"
         style="fill:none;stroke:#666666;stroke-width:0.60000002;stroke-linecap:butt;stroke-linejoin:round;stroke-miterlimit:4;stroke-dasharray:none;stroke-opacity:1"
         d="M 0,0 V -3.48" /></g><g
       transform="translate(23.7042,183.6621)"
       id="g138"><path
         id="path140"
         style="fill:#666666;fill-opacity:1;fill-rule:nonzero;stroke:none"
         d="M 0,0 H 3.203 Z" /></g><g
       transform="translate(26.9072,183.6617)"
       id="g142"><path
         id="path144"
         style="fill:none;stroke:#666666;stroke-width:0.60000002;stroke-linecap:butt;stroke-linejoin:round;stroke-miterlimit:4;stroke-dasharray:none;stroke-opacity:1"
         d="M 0,0 H -3.203" /></g><g
       transform="translate(23.7042,239.3271)"
       id="g146"><path
         id="path148"
         style="fill:#666666;fill-opacity:1;fill-rule:nonzero;stroke:none"
         d="M 0,0 H 3.203 Z" /></g><g
       transform="translate(26.9072,239.3268)"
       id="g150"><path
         id="path152"
         style="fill:none;stroke:#666666;stroke-width:0.60000002;stroke-linecap:butt;stroke-linejoin:round;stroke-miterlimit:4;stroke-dasharray:none;stroke-opacity:1"
         d="M 0,0 H -3.203" /></g><g
       transform="translate(23.7042,294.9912)"
       id="g154"><path
         id="path156"
         style="fill:#666666;fill-opacity:1;fill-rule:nonzero;stroke:none"
         d="M 0,0 H 3.203 Z" /></g><g
       transform="translate(26.9072,294.9908)"
       id="g158"><path
         id="path160"
         style="fill:none;stroke:#666666;stroke-width:0.60000002;stroke-linecap:butt;stroke-linejoin:round;stroke-miterlimit:4;stroke-dasharray:none;stroke-opacity:1"
         d="M 0,0 H -3.203" /></g><g
       transform="translate(23.7042,350.6562)"
       id="g162"><path
         id="path164"
         style="fill:#666666;fill-opacity:1;fill-rule:nonzero;stroke:none"
         d="M 0,0 H 3.203 Z" /></g><g
       transform="translate(26.9072,350.6559)"
       id="g166"><path
         id="path168"
         style="fill:none;stroke:#666666;stroke-width:0.60000002;stroke-linecap:butt;stroke-linejoin:round;stroke-miterlimit:4;stroke-dasharray:none;stroke-opacity:1"
         d="M 0,0 H -3.203" /></g><g
       transform="translate(43.7744,266.4352)"
       id="g170"><path
         id="path172"
         style="fill:none;stroke:#1f77b4;stroke-width:1.5;stroke-linecap:square;stroke-linejoin:round;stroke-miterlimit:4;stroke-dasharray:none;stroke-opacity:1"
         d="M 0,0 0.095,1.002 0.189,5.121 0.284,4.62 0.663,8.906 0.853,6.68 0.947,5.566 1.231,10.187 1.326,10.242 1.517,5.566 1.611,7.014 1.896,6.346 2.18,0.445 l 0.094,4.787 0.379,4.899 0.19,-2.338 0.095,1.392 0.284,1.224 0.19,-5.344 0.19,2.394 0.378,2.505 0.19,4.175 0.379,-0.056 0.095,1.058 0.094,-0.947 0.095,2.06 0.095,-2.561 0.284,1.281 0.095,4.62 0.19,-3.897 0.095,6.513 0.284,-0.39 0.095,-1.503 0.094,0.613 0.19,-1.726 0.284,0.724 0.095,0.556 0.189,2.728 0.095,-1.169 0.379,3.451 0.095,-1.002 0.19,5.4 0.284,3.061 0.095,5.121 0.189,-10.966 0.095,2.004 0.284,-1.558 0.095,-10.799 0.095,1.336 0.189,9.63 0.284,-1.169 0.19,-13.415 0.095,3.451 0.094,-7.682 0.285,0.279 0.285,4.842 0.379,-4.564 0.378,-17.868 0.285,-0.557 0.284,9.519 0.095,-1.336 0.285,0.389 0.189,5.622 0.19,-3.395 0.378,3.117 0.19,5.789 0.095,-0.723 0.284,-0.947 0.284,4.286 0.095,-0.167 0.285,-1.336 0.189,-2.95 0.095,1.169 0.095,-1.447 0.284,-1.225 0.095,-7.57 0.094,-0.445 0.095,1.503 0.095,4.23 0.379,-5.455 0.189,5.01 0.095,5.01 0.38,1.28 0.189,-3.173 0.095,-0.557 0.379,-11.8 0.189,4.453 0.095,-0.279 0.284,-5.733 0.095,0.056 0.095,-3.062 0.094,4.342 0.095,-3.284 0.284,3.117 0.095,2.449 0.285,-6.847 0.284,0.39 0.095,-3.562 0.095,-7.626 0.095,0.556 0.094,-5.956 0.379,-9.685 0.095,4.731 0.189,-2.505 0.285,1.67 0.094,4.064 0.191,-3.953 0.095,2.728 0.284,-0.557 0.189,-3.339 0.095,-0.446 0.095,-2.338 0.284,-1.781 0.189,-3.507 0.095,-8.628 0.379,6.012 0.095,-0.167 0.094,-1.67 0.095,5.177 0.096,-4.732 0.284,0.112 0.189,-2.06 0.095,-2.282 0.095,-6.402 0.284,4.175 0.095,-1.058 0.094,0.613 0.095,3.396 0.095,-0.557 0.284,1.893 0.19,-0.279 0.19,-1.28 0.284,2.004 0.19,-1.67 h 0.189 l 0.284,0.612 0.095,1.113 0.568,-3.673 0.095,1.558 0.095,-1.447 0.189,-5.512 0.38,-4.286 0.095,-3.061 0.095,-0.056 0.094,-3.563 0.379,-5.622 0.095,-0.389 0.095,0.668 0.094,-0.112 0.285,2.561 0.189,-2.115 0.095,0.668 0.094,-0.167 0.286,-2.672 0.189,-5.4 0.19,-2.059 0.284,-0.167 0.284,-10.521 0.095,2.895 0.284,-1.28 0.095,1.335 0.189,12.358 0.095,-4.732 0.38,-3.395 0.094,2.171 0.095,5.232 0.095,-2.894 0.284,-0.223 0.189,9.185 0.19,-4.509 0.379,6.902 0.094,-1.336 0.095,1.169 0.095,2.505 0.284,1.67 0.096,2.282 0.284,-10.409 0.284,4.286 0.19,-7.514 0.189,3.339 0.284,0.167 0.19,5.511 0.094,-0.501 0.095,2.338 0.284,1.002 0.095,-1.948 0.191,5.789 h 0.378 l 0.095,5.01 0.095,-1.949 h 0.095 l 0.094,-0.668 0.285,-4.007 0.094,0.668 0.095,2.003 0.095,-0.723 0.094,1.781 0.285,-0.835 0.094,-1.058 0.285,5.4 0.285,2.171 0.094,-3.396 0.285,7.961 0.284,1.893 0.189,-6.514 0.19,-3.785 0.284,1.837 0.095,1.391 0.094,3.286 0.095,-1.392 0.096,1.002 h 0.284 l 0.095,-1.002 0.094,1.225 0.095,-0.501 0.095,-1.616 0.284,1.56 0.095,-1.225 0.189,-4.231 0.095,-0.39 0.379,-5.399 0.189,1.503 0.096,-2.282 0.284,-3.897 0.095,3.34 0.095,-0.167 0.094,-0.39 0.095,2.617 0.284,-2.283 0.095,0.279 0.189,2.393 0.095,-0.278 0.284,0.835 0.19,-1.948 0.189,-1.392 0.285,0.167 0.095,0.612 0.568,8.461 0.095,-2.393 0.095,1.447 0.095,0.056 0.094,-2.505 0.285,0.334 0.094,1.781 0.095,-0.501 0.095,0.167 0.094,-0.724 0.286,-1.002 0.189,-3.061 0.095,0.89 0.095,-0.222 0.378,5.121 0.095,-1.559 0.095,0.056 0.474,-1.169 0.094,1.113 0.095,-0.167 0.38,0.835 0.379,5.067 0.284,-0.947 h 0.095 l 0.189,-0.446 0.095,0.168 0.379,-2.227 0.189,3.229 0.095,-1.002 0.284,0.724 0.096,0.612 0.568,-8.685 0.095,1.893 0.095,-1.113 0.094,-2.672 0.095,0.223 0.284,1.725 0.19,-3.618 0.094,-3.173 0.095,1.781 0.284,2.283 0.095,-2.171 0.096,1.391 0.189,-1.781 0.284,0.445 0.095,3.507 0.19,-1.725 0.094,2.17 0.379,3.006 0.095,0.78 0.189,-1.726 0.379,2.672 0.095,2.282 0.19,-3.173 0.285,-0.389 0.189,-0.78 0.095,2.895 0.095,-1.169 h 0.284 l 0.189,-1.058 0.095,0.056 0.095,-2.227 0.284,-0.612 0.284,-3.507 0.096,0.613 0.284,1.67 0.095,-2.227 0.094,0.724 0.095,-0.724 0.095,-1.837 0.284,0.167 0.095,-2.672 0.284,3.34 0.284,-0.39 0.189,2.283 0.475,7.013 0.095,-3.841 0.095,0.446 0.094,-0.056 0.095,1.002 0.379,0.223 0.095,-1.392 0.094,-4.175 0.095,-0.167 0.284,-6.29 0.19,3.062 0.094,-1.447 h 0.38 l 0.095,-0.446 0.095,0.223 0.095,-0.946 0.378,3.117 0.19,-3.785 0.189,3.284 0.285,1.002 0.094,-1.726 0.095,1.225 0.095,2.839 0.094,-1.448 0.38,2.617 0.19,-3.118 0.094,-0.668 0.379,2.672 0.285,-4.175 0.284,-0.779 0.189,0.167 0.19,2.895 0.284,2.672 0.38,-4.454 0.284,1.002 0.095,1.002 0.094,-2.226 0.095,0.278 0.095,-2.449 0.284,1.447 0.095,-0.278 0.094,1.837 0.095,-0.891 0.379,2.394 0.096,-0.167 0.094,1.336 0.095,-2.338 0.095,1.002 0.284,-1.114 0.095,0.167 0.095,0.557 0.189,-1.837 0.284,1.058 0.095,-0.613 0.284,0.78 0.284,0.111 0.191,-2.616 0.094,-0.668 0.095,1.447 0.284,-0.779 0.095,0.334 0.095,-0.111 0.095,1.502 h 0.378 l 0.19,2.45 0.095,0.167 0.094,0.779 h 0.379 l 0.095,2.894 0.096,-0.389 0.094,1.503 0.285,0.89 0.094,0.891 0.095,-0.334 h 0.095 l 0.379,5.122 0.189,-3.396 0.474,8.573 0.094,-3.34 0.095,0.334 0.095,1.058 0.096,-3.62 0.284,-1.558 0.189,2.673 0.095,0.612 0.379,-4.009 0.095,1.058 0.094,-3.173 0.095,-0.111 0.379,4.008 0.095,-1.225 0.094,2.784 0.19,-3.285 h 0.285 l 0.095,0.167 0.095,0.724 0.094,-0.056 0.095,0.445 0.284,-0.668 0.19,3.007 0.094,-1.671 0.095,0.891 0.284,1.281 0.19,-1.894 0.189,1.115 0.285,0.445 0.095,-2.784 0.095,0.167 0.094,-0.668 0.095,0.946 0.284,0.056 0.285,-0.612 0.094,0.612 h 0.284 l 0.19,-3.062 0.095,-2.505 0.094,1.448 0.38,-4.342 0.095,0.946 0.095,-0.334 0.094,1.726 0.285,1.614 0.189,-3.395 0.095,1.725 0.095,-1.336 0.284,-2.672 0.379,3.451 0.284,1.949 0.38,-1.448 0.284,1.893 0.189,-0.946 0.095,0.111 0.095,0.334 0.284,-0.445 0.095,0.445 0.094,-0.501 0.19,3.73 0.284,-1.336 0.096,0.779 0.094,2.338 0.095,-0.779 0.095,0.222 0.284,0.946 0.095,-0.946 0.095,0.668 0.094,2.172 0.095,-0.223 0.284,-0.111 0.095,0.111 0.284,-2.561 0.284,0.111 0.095,-0.167 0.096,0.835 0.094,-0.89 0.095,0.278 0.379,-2.171 0.095,0.668 0.094,-0.891 0.095,2.227 0.284,0.501 0.19,1.838 0.189,-1.616 0.284,-0.5 0.095,1.67 h 0.095 l 0.096,-0.557 0.379,2.06 0.378,-2.172 0.285,-0.389 0.094,-1.948 0.095,0.668 0.095,-1.615 0.095,1.169 0.284,0.501 0.094,-0.89 0.095,0.556 0.191,-2.616 0.379,0.445 0.094,-0.111 0.095,-1.726 0.095,0.724 0.284,-1.503 0.095,0.334 0.284,3.34 0.284,1.169 0.095,-2.672 0.189,1.726 0.095,0.111 0.285,0.668 0.095,-0.334 0.094,0.724 0.095,-0.39 h 0.095 l 0.284,-0.724 0.095,-1.057 0.095,0.445 0.094,-0.946 0.095,0.445 0.284,0.668 0.19,-1.113 0.094,-0.78 0.095,0.334 0.285,-0.334 0.284,-1.503 0.095,-1.558 0.284,-0.445 0.19,1.113 0.095,-1.336 0.094,0.056 h 0.379 l 0.095,1.057 0.095,-0.668 0.094,0.446 h 0.285 l 0.285,2.504 0.094,-0.334 0.285,-2.226 0.094,0.445 0.095,-0.334 0.095,0.167 0.094,1.169 0.379,0.668 0.095,-1.28 0.095,-0.056 0.095,0.612 0.284,0.613 0.095,1.725 0.095,0.056 0.095,-1.002 0.095,0.167 0.284,1.225 0.095,-0.668 0.094,0.668 0.095,-1.615 0.095,0.112 0.284,-0.39 0.095,0.39 0.094,-0.167 0.095,0.055 0.095,1.114 h 0.284 l 0.19,-1.169 0.474,3.228 0.095,-0.111 0.094,-0.334 0.19,1.392 0.284,0.501 0.095,-0.112 0.189,-0.612 0.095,1.838 0.284,-0.614 0.095,-0.445 0.096,0.278 0.094,-0.333 h 0.095 l 0.284,4.008 0.19,3.841 0.094,-2.393 0.095,2.671 0.284,-2.282 0.095,0.39 h 0.095 l 0.095,-2.004 0.094,1.503 0.284,2.56 4.645,-1.336 0.095,-1.892 0.094,-0.111 0.474,-2.116 0.19,1.336 h 0.094 l 0.095,3.062 h 0.284 l 0.095,0.501 0.189,-1.28 0.095,0.389 0.38,-1.002 0.095,-0.779 0.094,0.946 0.095,-0.055 0.284,0.167 0.284,-3.229 0.095,-2.338 0.284,-2.116 0.095,-2.616 0.095,-0.056 0.189,-13.749 0.285,3.841 0.19,0.835 0.095,2.894 0.094,-1.391 0.285,0.723 0.094,0.724 0.284,-4.787 0.285,-3.396 0.094,1.726 0.095,-2.282 0.19,2.449 0.284,-1.002 0.095,0.835 0.19,4.063 0.095,-0.668 0.284,-0.334 0.094,-0.389 0.095,-2.561 0.095,0.501 0.095,-1.503 0.284,-1.224 0.379,-7.292 0.284,0.222 0.285,8.461 0.095,1.114 0.284,0.055 0.095,-0.501 0.094,2.338 0.095,-2.56 0.095,0.835 0.284,0.389 0.19,3.34 0.094,-0.891 0.095,0.947 0.284,0.723 0.095,1.058 0.19,-3.229 0.095,-1.614 0.284,-1.224 0.095,-1.114 0.095,1.392 0.094,-1.002 0.095,-2.06 0.284,0.112 0.285,2.616 0.094,-1.225 0.284,-1.892 0.095,0.556 0.095,-0.556 0.095,-2.616 0.095,0.111 0.474,-4.286 0.095,2.393 0.473,-4.62 0.19,2.06 0.094,-0.056 0.285,1.447 0.094,-0.278 0.095,0.167 0.095,-2.227 0.095,0.613 0.379,-0.613 0.095,-1.558 0.19,1.892 0.284,1.002 0.095,-0.723 0.094,-1.614 0.095,1.725 0.095,-0.056 0.284,-1.391 0.189,-3.785 0.095,1.113 0.095,-1.503 0.38,3.785 0.189,-1.558 0.095,1.67 0.379,-0.501 0.189,-2.116 0.095,-1.67 0.284,-2.504 0.095,1.113 0.284,-7.738 0.285,1.559 0.095,-0.056 0.095,2.06 0.189,-2.95 0.284,-2.839 0.095,0.056 0.095,-0.613 0.189,3.507 0.284,-1.67 0.19,-6.067 0.095,1.781 0.094,-0.111 0.285,1.28 0.095,9.018 0.19,-4.621 0.094,0.78 h 0.379 l 0.19,-5.177 0.094,0.278 0.474,-4.119 0.095,0.835 0.094,-0.612 0.285,1.113 0.095,1.837 0.095,-0.501 0.095,0.946 0.095,-1.057 0.284,-1.448 0.094,0.056 0.095,0.724 0.095,2.56 0.379,-1.113 0.189,2.672 0.095,0.835 0.095,2.616 0.284,-2.226 0.285,5.288 0.095,-1.336 0.379,1.336 0.189,-4.12 0.379,-1.836 0.379,8.794 0.284,-2.783 0.095,2.338 0.095,-0.167 0.095,-1.725 0.095,3.172 0.284,0.446 0.19,-5.233 0.189,2.728 0.284,-1.169 0.095,-1.503 0.095,0.278 0.094,-0.835 0.095,-1.948 0.379,-1.558 0.095,1.836 0.19,-1.948 0.284,0.112 0.095,-3.34 0.095,1.336 0.095,-3.062 0.094,0.891 0.285,-0.167 0.094,1.558 0.095,-0.445 0.095,-1.837 0.094,1.503 0.285,-4.286 0.094,0.779 0.095,-1.503 0.095,3.34 h 0.38 l 0.379,2.449 0.284,-1.837 0.284,3.006 0.095,-0.055 0.284,-1.392 h 0.095 l 0.094,-0.223 0.19,1.169 0.285,1.336 0.095,-0.055 0.284,-4.843 0.284,0.055 0.095,0.724 0.189,-0.501 0.095,0.445 0.379,-1.558 0.095,0.278 0.094,-0.278 0.095,-0.668 0.285,1.503 0.095,1.558 0.095,-1.113 0.189,0.668 0.284,-0.668 0.284,-2.282 0.095,0.612 h 0.379 l 0.095,-0.111 0.189,1.336 0.285,0.111 0.19,0.501 0.095,0.724 0.094,2.171 0.284,0.556 0.095,0.947 0.095,-0.334 0.095,0.334 0.094,3.284 0.285,-0.613 0.094,0.223 0.095,-0.501 0.095,0.111 0.094,1.615 0.285,-0.724 0.095,1.058 0.095,-0.223 0.095,0.334 0.095,-1.559 0.284,-0.334 0.189,-0.612 0.095,-1.336 h 0.095 l 0.284,-0.445 0.094,0.557 0.19,-4.398 0.095,1.447 0.284,-0.055 0.095,0.389 0.095,-1.892 0.095,0.668 0.095,-0.334 0.284,-1.837 0.189,2.059 0.19,0.78 0.284,0.501 0.095,0.668 0.189,-0.947 0.095,0.334 0.379,2.505 0.095,-0.946 0.095,1.224 h 0.284 l 0.095,-0.333 0.19,2.059 0.189,0.779 0.095,-2.505 h 0.095 l 0.094,2.338 0.284,-2.56 0.095,2.171 0.095,-1.949 h 0.095 l 0.094,3.006 0.095,-0.278 0.19,0.223 0.095,0.668 0.379,-3.507 0.095,1.057 0.095,-0.779 0.094,-1.948 0.284,-0.278 0.095,0.278 0.19,1.28 0.094,-1.224 0.285,-1.058 0.284,3.562 0.095,0.557 0.285,-0.056 0.094,-0.445 0.095,-1.558 0.095,0.278 0.095,0.946 0.284,0.612 0.094,-0.167 0.095,-0.946 0.19,0.612 0.284,-0.779 0.189,3.284 0.19,-1.725 0.38,-0.501 0.094,-1.169 0.095,0.111 0.095,1.113 0.473,1.949 0.095,-1.058 0.474,1.67 0.094,-0.668 0.19,0.557 0.285,4.174 0.379,-12.134 0.284,-1.058 0.284,0.445 0.095,1.225 0.284,-0.946 0.095,0.055 0.095,-0.111 0.189,-3.507 0.284,-1.391 0.096,-1.281 0.284,5.901 0.284,1.614 0.19,-1.781 0.189,-1.002 0.284,-0.557 0.285,4.064 0.094,-0.891 0.285,-0.501 h 0.19 l 0.095,-0.445 0.094,-1.893 0.285,-0.278 0.189,-0.446 0.19,-1.28 0.284,1.781 0.379,-4.119 0.284,-0.055 0.095,0.946 0.285,-5.177 0.284,-0.835 0.095,2.728 0.189,-6.068 0.095,-1.224 0.284,0.389 0.189,-2.115 0.095,-2.059 0.095,5.009 0.284,-0.111 0.095,0.501 0.095,-1.28 0.095,0.111 0.095,1.948 0.284,-0.389 0.095,0.556 0.095,3.563 0.094,0.111 0.095,-0.334 0.284,-0.445 0.095,-2.338 0.189,3.395 0.095,-0.612 0.379,-4.843 0.095,0.947 0.094,2.393 0.096,-1.28 0.284,-0.223 0.095,-2.171 0.19,0.557 0.094,-0.334 0.284,-1.67 0.19,-2.393 0.189,1.447 0.379,-1.447 0.19,5.009 0.094,-1.503 0.38,2.617 0.095,1.837 0.095,-0.78 h 0.379 l 0.094,0.724 0.095,-0.111 0.19,1.391 0.284,0.111 0.189,-4.954 0.095,0.279 0.095,2.338 0.285,-0.112 0.189,-11.021 0.19,2.282 0.284,-1.503 0.095,1.169 0.189,-0.724 0.095,0.724 0.284,1.169 0.189,-2.171 0.095,0.946 0.095,3.841 0.285,0.724 0.19,-2.338 0.094,1.67 0.095,-2.282 0.284,-0.613 0.19,2.06 0.094,0.334 0.095,-0.891 0.284,0.39 0.095,-0.278 0.095,-1.281 0.189,1.281 0.285,-0.334 0.379,2.56 0.284,-0.223 0.095,0.223 0.095,-0.278 0.189,1.169 0.284,-0.39 0.379,4.119 0.285,-1.057 0.095,0.668 0.095,-1.782 0.095,0.279 0.094,-0.279 0.285,-1.447 0.189,1.781 0.095,0.056 0.095,-1.225 0.284,0.167 0.094,0.279 0.095,2.226 0.19,-2.226 0.284,-0.279 0.19,-1.057 0.095,0.222 0.095,-0.278 0.284,0.056 0.095,0.445 h 0.189 l 0.095,0.334 0.284,0.111 0.189,0.501 h 0.095 l 0.095,0.167 h 0.284 l 0.095,-0.278 0.285,0.612 0.284,0.167 0.095,0.501 0.095,-0.334 0.094,0.39 0.095,-0.39 0.379,-0.835 0.095,0.334 h 0.189 l 0.284,-0.167 0.19,0.223 0.094,0.835 0.096,-0.501 0.284,-0.056 0.19,1.002 0.094,-0.055 0.474,-1.002 0.095,0.779 0.189,4.342 0.284,-0.112 0.095,-1.002 0.095,0.724 0.095,2.004 0.094,-1.225 0.286,0.39 0.094,1.113 0.284,-1.725 0.285,0.334 0.189,-0.223 0.095,0.501 0.095,-0.39 0.284,-2.059 0.189,1.447 0.19,-0.946 0.285,-0.779 0.189,-0.947 0.095,-0.167 0.095,-0.835 0.284,1.114 0.095,0.779 0.094,2.115 0.474,-4.175 0.095,0.668 0.094,-0.501 0.095,0.279 0.095,1.892 0.285,-1.002 0.095,1.448 0.284,-2.617 0.284,-0.334 0.095,1.336 0.095,-0.111 0.094,0.111 0.095,-1.725 h 0.189 l 0.19,0.89 h 0.095 l 0.284,-0.835 h 0.095 l 0.094,-0.835 0.191,0.78 0.094,-0.446 0.19,0.112 h 0.095 l 0.094,-0.167 0.095,0.501 0.19,-0.334 0.094,-0.39 h 0.19 l 0.094,0.779 0.19,-0.111 0.189,1.726 h 0.19 l 0.189,1.28 0.096,-0.779 0.095,0.111 0.094,-0.557 0.285,-0.723 0.094,1.336 0.095,-0.112 0.095,0.279 0.094,-0.891 0.285,0.056 0.094,0.723 h 0.19 l 0.095,0.112 0.284,-0.056 0.285,-1.058 0.379,-0.556 0.095,0.278 0.189,-1.002 0.095,0.111 0.284,0.557 0.095,1.113 0.094,-0.055 0.095,1.391 h 0.284 l 0.095,-0.779 0.189,1.113 0.096,-0.556 0.095,1.28 h 0.189 l 0.379,2.505 0.095,-1.058 h 0.189 l 0.095,1.781 0.095,-0.111 0.189,3.451 0.095,-0.111 h 0.189 l 0.095,-0.112 0.095,-0.89 0.38,1.892 h 0.095 l 0.094,1.225 0.095,-0.334 0.284,2.171 h 0.19 l 0.094,-0.724 0.095,-4.397 0.379,4.731 h 0.095 l 0.094,-2.505 0.095,1.114 0.095,-0.223 0.095,0.167 0.094,0.557 0.286,-0.056 0.094,-0.39 0.19,-2.171 0.473,-3.785 0.19,1.448 0.094,0.946 h 0.19 l 0.095,-1.781 0.094,-0.056 0.095,-0.278 0.19,-8.127 0.285,1.67 0.094,2.226 0.095,-1.224 0.095,0.167 0.095,-0.947 0.284,1.615 0.095,-0.668 0.094,0.445 0.19,2.115 0.284,-0.445 0.095,1.67 0.094,-0.446 0.095,0.501 h 0.38 l 0.095,0.724 0.094,-0.056 0.095,0.279 0.095,-3.618 0.284,0.779 0.095,1.169 0.095,-0.056 0.094,0.056 0.095,-1.281 0.379,0.223 0.095,-0.557 0.094,0.056 0.095,0.612 0.284,0.334 0.096,-0.111 0.189,-2.839 0.095,0.112 0.284,-0.557 0.284,2.616 0.095,-0.223 0.284,-0.166 0.19,0.612 h 0.095 l 0.094,-0.835 0.284,0.501 0.096,1.614 0.095,-0.223 0.095,0.835 0.094,-0.556 0.285,0.501 0.094,-0.223 0.095,-0.724 0.189,1.67 0.285,-0.167 0.094,0.39 0.095,-0.278 0.095,-0.613 0.095,0.613 0.284,0.779 0.189,-0.445 0.096,-0.056 0.095,0.334 0.284,0.278 0.189,1.559 0.095,-0.445 0.095,-1.893 0.284,-0.612 0.189,1.391 0.095,-0.723 0.664,2.616 0.095,-0.835 0.284,0.334 0.095,0.612 h 0.094 l 0.095,-0.668 0.095,0.446 0.284,0.334 0.095,-0.891 0.284,1.336 0.474,-0.334 0.094,-1.503 0.095,0.167 0.285,0.891 0.095,-0.112 0.095,0.668 h 0.094 l 0.095,0.835 0.284,-0.222 0.095,0.5 0.095,-0.111 0.094,-0.389 0.095,0.055 0.284,-0.167 0.095,-0.167 0.19,0.779 0.094,-0.278 h 0.38 l 0.095,-0.334 0.095,-1.169 0.094,0.835 0.285,0.056 0.189,-1.058 0.095,0.112 0.094,-0.334 0.285,-0.613 0.094,-0.779 0.285,1.225 0.285,-0.167 0.094,-1.837 0.095,0.835 h 0.095 l 0.095,0.612 0.284,-0.891 0.095,0.501 0.094,-0.167 0.19,-0.723 h 0.284 l 0.095,0.278 0.189,2.171 0.095,-0.445 0.38,0.222 0.189,0.724 0.095,-0.445 0.095,0.055 h 0.189 l 0.189,0.501 0.19,1.002 0.284,-0.668 0.095,-0.723 0.095,1.447 h 0.094 l 0.095,-0.39 0.284,1.28 0.096,-0.501 0.095,0.891 0.094,-0.111 0.095,0.723 0.284,-0.222 0.19,0.723 0.094,-0.334 0.095,-0.946 0.474,2.338 0.095,-0.445 0.094,0.222 0.284,0.279 0.191,0.779 0.189,-0.835 0.284,0.167 0.095,-1.225 0.095,0.223 0.095,-0.278 0.094,-1.002 h 0.285 l 0.094,0.445 0.095,-1.002 0.095,1.002 0.094,-0.445 0.379,1.503 0.286,0.946 0.284,0.167 0.189,1.447 h 0.19 l 0.379,-0.89 0.094,0.222 0.19,-1.336 0.284,-0.556 0.095,-0.724 0.094,0.056 0.095,0.167 0.096,-0.557 h 0.284 l 0.095,3.229 0.189,-0.947 0.095,0.056 0.284,0.445 0.095,-0.278 0.094,0.891 0.095,-3.173 0.095,0.222 0.284,0.279 0.095,-0.112 0.285,1.336 0.284,0.279 0.19,-1.114 0.094,0.39 0.095,-0.278 0.284,-0.167 0.379,4.008 0.284,0.055 0.095,-1.002 0.095,0.112 0.189,-0.947 0.285,2.115 0.285,-3.618 0.094,0.223 0.285,-0.835 0.094,-1.225 0.095,1.615 0.095,-1.503 0.094,0.278 0.285,-0.668 0.094,0.779 0.095,-0.334 0.095,-1.948 0.095,0.278 0.285,0.167 0.094,1.336 0.095,0.056 0.095,-0.39 0.095,2.06 0.378,-0.056 0.19,-0.445 0.095,-1.058 0.379,0.891 0.094,1.225 0.095,0.055 h 0.38 l 0.095,-0.222 0.094,0.055 0.19,-1.002 0.379,-0.779 0.189,0.39 0.095,-0.167 0.284,1.614 0.095,-0.278 0.095,0.055 0.189,1.058 0.284,-0.668 0.191,1.67 0.094,-0.39 0.095,0.501 0.284,0.557 0.19,-0.278 0.094,-0.557 0.095,0.557 0.284,0.501 0.095,-0.167 0.095,0.278 0.094,-0.501 0.095,0.223 0.284,0.055 0.191,-1.391 0.189,-0.279 0.284,0.334 0.19,-1.057 0.095,0.055 0.094,0.78 0.285,-0.446 0.189,1.336 0.095,-0.501 0.379,0.279 0.189,0.779 0.096,-0.445 0.095,0.612 0.284,-0.557 0.094,-0.556 0.095,0.278 0.095,-0.056 0.095,-0.222 0.473,0.389 0.095,0.557 0.379,-1.225 0.189,0.668 0.191,-0.278 0.284,-0.334 0.095,0.501 0.094,-0.056 0.095,0.167 0.095,0.724 0.284,0.946 0.095,-0.334 0.094,0.167 0.095,-0.556 0.379,1.781 0.19,-0.112 0.094,0.668 0.095,-0.389 0.38,0.055 0.095,0.223 0.094,-1.002 0.095,-0.056 0.284,0.446 0.379,-0.947 0.284,0.78 0.19,1.503 h 0.095 l 0.094,0.723 0.285,-0.445 0.095,0.167 0.19,0.501 0.094,-0.891 0.284,-0.167 0.095,0.39 0.19,-1.113 0.094,0.334 0.285,-0.223 0.094,-0.334 0.19,0.891 0.094,-0.446 0.286,-0.055 0.189,1.057 0.095,0.056 0.095,-0.111 0.284,-0.167 0.094,-0.334 0.095,0.334 h 0.095 l 0.095,-0.668 0.284,-0.724 0.189,0.501 0.095,-0.334 0.095,0.223 0.285,-0.613 0.095,0.334 0.189,1.058 0.095,-0.111 0.379,0.389 0.094,-0.612 0.095,0.111 0.095,1.225 0.284,-0.278 0.095,0.167 0.094,0.612 0.095,-0.056 0.095,-0.222 0.284,-0.223 0.096,0.668 0.095,-0.111 0.094,0.167 0.095,0.835 0.284,0.167 0.19,-0.501 0.094,0.612 0.095,-0.223 0.284,-0.222 0.19,-1.114 0.094,0.39 0.095,-0.334 0.284,-0.501 0.095,0.668 h 0.096 l 0.095,-0.39 0.094,0.112 0.569,1.336 0.094,-0.668 0.284,0.278 0.095,0.501 0.284,-0.39 h 0.285 l 0.094,-0.111 0.095,-0.445 0.096,0.612 0.094,-0.39 0.379,-0.612 0.095,-0.056 0.095,-0.222 0.095,-1.615 0.284,0.112 0.094,0.668 0.285,-0.668 0.379,1.057 0.189,-0.389 0.38,0.668 0.284,-0.446 0.474,-1.28 0.284,-3.34 0.379,-1.725 0.095,0.779 0.094,-0.835 0.095,-2.338 0.285,0.278 0.095,0.501 0.189,-3.562 0.095,0.835 0.284,-2.505 0.095,1.113 0.095,-0.946 0.094,0.891 0.095,-0.112 0.284,-2.004 0.095,0.724 0.189,-1.225 0.095,-0.334 0.285,-1.725 0.19,-2.004 0.095,-0.779 0.094,1.781 0.379,-2.06 0.19,3.173 0.094,-0.501 0.285,1.392 0.189,-3.062 0.095,1.169 0.094,-0.445 h 0.38 l 0.19,-0.612 0.094,0.222 0.285,0.947 0.094,-0.446 0.095,0.334 0.095,-0.946 0.095,0.445 0.378,-0.723 0.19,0.779 0.095,-0.334 0.474,-0.779 0.095,0.278 h 0.379 l 0.095,-0.39 0.189,2.394 0.095,-0.223 0.284,0.891 0.095,-0.501 0.094,0.389 0.095,-0.167 0.095,0.78 0.379,0.946 0.096,-0.278 0.094,0.389 0.095,-0.723 0.284,-0.056 0.095,0.557 0.095,-0.112 0.189,2.338 0.284,-0.389 0.19,5.232 0.189,-3.674 0.284,-0.389 0.095,-0.668 0.19,1.169 0.095,-1.893 0.284,-0.891 0.19,1.782 0.095,-1.169 0.094,0.222 0.284,1.448 0.095,-0.334 0.095,0.055 0.474,-1.837 0.189,0.724 0.19,0.946 0.285,0.446 0.094,-0.112 0.095,-0.723 0.095,0.334 0.095,-0.446 0.284,1.448 0.189,-0.557 0.095,0.056 0.095,-0.891 0.379,-0.557 0.094,0.279 0.191,-1.281 0.284,1.002 0.095,-1.67 0.094,0.724 0.095,-0.223 0.095,-3.785 0.379,-1.447 0.189,-1.225 0.379,2.784 0.189,-2.116 0.095,-0.055 0.38,-0.835 0.19,2.004 0.094,-0.056 0.095,0.835 0.284,-0.445 0.095,-1.002 0.095,0.111 0.094,-0.223 0.095,-0.501 0.284,0.167 0.095,-0.445 0.095,0.111 0.189,-0.612 0.285,-0.278 0.095,0.222 0.189,1.559 0.095,0.167 0.284,1.225 0.19,-1.002 0.189,0.723 0.284,-0.501 0.19,-1.781 0.189,1.559 0.286,0.723 0.189,-1.614 0.095,0.557 0.094,-0.056 h 0.285 l 0.379,-3.396 0.284,-0.835 0.094,1.114 0.095,-0.668 0.095,0.389 h 0.095 l 0.474,-0.556 0.19,2.115 0.284,0.223 0.095,-1.336 0.094,0.278 0.19,1.837 0.284,0.445 0.095,-1.057 0.189,3.284 0.095,-0.334 0.284,1.948 0.096,-0.557 0.189,3.619 0.095,-0.947 0.284,-0.167 0.095,-1.28 0.189,1.225 0.095,0.89 0.284,0.334 0.095,0.446 0.189,-2.06 0.095,1.726 0.379,-0.446 0.096,0.724 0.094,-0.724 0.095,0.39 0.284,0.111 0.19,1.893 0.095,1.447 0.094,-0.501 0.474,-1.558 0.189,-2.561 0.285,-1.447 0.094,1.837 0.095,-1.058 0.096,1.948 0.094,-1.781 0.285,-0.557 0.094,0.167 0.19,-0.946 0.094,-1.892 0.285,-1.448 0.094,-1.002 0.095,0.112 0.19,-1.559 0.284,0.39 0.094,0.723 0.095,-1.113 0.095,1.726 0.096,-0.835 0.284,2.282 0.095,-0.445 0.094,1.224 0.095,-0.946 0.095,0.501 0.284,1.002 0.095,0.723 0.189,4.676 0.095,0.835 0.568,0.724 0.095,1.057 0.285,-2.393 0.095,-3.841 0.094,1.614 0.19,-3.729 0.284,1.224 0.095,1.336 0.095,0.056 0.094,-2.672 h 0.095 l 0.284,-1.892 0.095,1.67 0.095,-0.891 0.189,3.228 0.285,-0.612 0.19,-1.892 0.094,1.224 0.095,-1.503 0.284,1.336 0.095,1.058 0.284,-1.114 0.284,-0.333 0.285,1.057 0.094,-0.891 0.286,-1.224 0.094,1.28 0.19,-1.113 0.094,0.223 0.285,0.612 0.094,-0.223 0.095,0.112 0.189,1.781 0.285,-1.058 0.094,0.223 0.095,3.729 0.095,-2.449 0.095,0.724 0.284,-0.613 0.285,-2.004 0.095,0.223 0.284,-0.056 0.095,-0.278 0.094,0.501 0.569,-1.447 0.189,0.223 0.095,-1.169 0.284,-0.724 0.285,1.559 0.095,-1.281 0.284,1.002 0.095,-1.224 0.189,2.282 0.095,-0.946 0.284,-0.557 0.19,0.779 0.094,0.112 h 0.379 l 0.38,-2.116 0.284,0.39 0.095,-0.779 0.095,0.612 0.094,-0.334 0.095,0.111 h 0.284 l 0.19,-0.946 0.189,1.002 0.284,-0.835 0.095,0.501 0.191,-0.946 0.094,0.612 0.285,-0.39 0.378,2.617 0.285,0.278 0.094,-0.835 0.285,2.449 0.284,-0.111 0.094,-0.167 0.095,-0.891 0.191,1.002 0.284,0.056 0.189,-1.67 0.095,0.946 h 0.095 l 0.284,-0.723 0.095,0.501 0.094,-0.39 0.095,0.111 0.095,-0.445 0.379,0.39 0.189,-0.446 h 0.095 l 0.285,-0.501 0.095,0.891 h 0.094 l 0.095,0.724 0.095,-0.223 0.284,0.612 0.095,-0.111 0.095,-0.39 0.189,1.614 0.284,0.334 0.095,-0.389 0.095,0.835 0.094,-0.668 0.095,0.334 0.38,0.222 0.189,-0.89 0.095,-1.169 0.379,0.389 0.095,0.501 0.094,-0.612 0.095,0.223 0.284,0.278 0.285,1.113 0.094,-0.445 0.38,-0.445 0.095,0.556 h 0.095 l 0.094,0.112 0.379,0.779 0.095,1.503 0.189,0.111 0.285,-0.389 0.094,0.167 0.095,0.946 h 0.095 l 0.095,0.779 0.284,0.056 0.38,-1.503 0.284,0.501 0.189,4.342 0.19,2.059 0.379,-1.113 0.094,1.28 h 0.095 l 0.095,-0.835 0.284,-1.224 0.095,1.67 0.095,-0.668 0.095,-1.949 0.095,0.501 0.284,3.563 0.189,-1.948 0.095,0.167 0.095,0.612 0.284,-0.724 0.095,0.334 0.189,-0.612 0.095,0.612 0.284,-0.222 0.095,2.393 0.096,-0.055 0.094,0.167 0.095,-0.501 0.284,0.222 0.095,0.334 0.095,2.171 0.189,-1.336 0.284,-0.723 0.095,0.167 0.095,-0.39 0.189,-1.28 0.284,-0.167 0.38,4.119 0.284,0.222 0.379,-2.894 0.285,-0.278 0.094,0.222 0.095,1.67 0.189,-1.169 0.285,-0.222 0.189,-0.39 0.19,2.226 0.285,-0.389 0.094,-0.612 0.095,0.612 0.095,-0.946 0.095,0.834 0.284,-0.723 0.189,-1.559 0.095,0.446 0.095,-1.169 0.284,0.334 0.189,-0.724 0.095,0.111 0.475,2.394 0.284,3.562 h 0.379 l 0.094,-0.111 0.095,0.223 0.095,-0.167 0.379,-2.06 0.095,0.167 0.094,-0.334 0.095,0.056 0.285,-0.668 0.19,1.28 0.094,-0.39 0.095,0.223 0.284,-0.334 0.379,5.344 0.284,-0.056 0.19,3.897 0.189,-2.004 0.285,-0.501 0.095,-0.668 0.095,2.226 0.095,-0.055 0.094,-1.726 0.285,0.612 0.094,-1.502 0.284,2.393 0.285,1.392 0.094,2.282 0.19,-1.948 0.095,-0.112 0.284,2.004 0.19,-1.781 0.19,1.392 0.284,-1.002 0.094,2.894 0.095,-0.278 0.095,-0.612 0.095,0.835 0.379,1.836 0.094,0.947 0.095,2.672 h 0.095 l 0.284,-0.223 0.095,1.781 0.095,-1.224 0.19,-0.056 0.284,-0.612 0.095,2.671 0.094,6.124 0.095,-1.726 0.095,1.503 0.284,2.115 0.095,3.841 0.095,-3.841 0.094,1.67 0.474,0.056 0.19,-3.674 0.095,1.948 0.379,2.115 0.095,0.279 0.094,0.89 0.095,1.949 0.284,0.278 0.095,-1.392 0.095,0.835 0.189,-4.676 0.284,-0.89 0.19,2.004 0.19,1.67 0.284,0.222 0.285,-3.507 0.094,0.334 0.285,3.34 0.094,-0.111 0.284,5.789 h 0.285 l 0.094,-1.726 0.19,5.456 0.096,-0.279 0.284,1.726 0.189,2.506 0.095,1.558 0.095,-1.614 0.284,1.726 0.094,-0.056 0.095,-2.561 0.095,-5.177 0.379,6.792 0.095,-2.004 0.189,1.28 0.095,-1.002 0.285,-1.838 0.095,-1.892 0.094,0.89 0.19,-4.342 0.284,0.39 0.095,-2.004 0.284,4.899 0.379,-0.446 0.095,1.281 0.094,-1.392 0.095,-0.056 0.38,0.613 0.189,3.229 0.095,0.111 0.379,1.949 0.095,1.503 0.189,-1.448 0.284,-0.723 0.095,0.835 0.284,5.51 0.285,1.782 0.095,-1.615 0.095,1.336 0.095,-0.278 0.094,-0.946 0.284,-0.446 0.19,4.064 0.095,-0.835 0.094,0.223 0.379,-0.891 0.095,-0.612 0.189,2.727 0.38,1.503 0.19,-0.946 0.379,2.783 0.284,10.521 0.379,5.121 0.095,-3.507 0.189,2.672 0.095,-0.39 0.284,-5.232 0.095,0.111 0.095,1.113 0.474,26.997 0.189,-12.635 0.095,-22.544 0.095,5.956 0.284,5.343 0.095,-3.952 0.189,9.964 0.379,2.505 0.19,-12.19 0.19,5.399 0.284,0.891 0.095,-2.171 0.189,2.004 0.095,4.564 0.284,-1.225 0.19,-13.804 0.189,5.065 0.284,-9.964 0.095,3.952 0.095,-0.111 0.095,2.616 0.095,-0.167 0.284,-3.952 0.19,3.396 0.758,-22.21 0.094,8.127 0.285,0.835 0.094,1.892 0.19,11.077 0.095,-0.334 0.285,5.567 0.189,-4.286 0.095,-4.064 0.095,0.612 0.284,-1.001 0.094,2.95 0.19,8.127 0.095,-3.952 0.379,-3.396 0.094,-1.726 0.19,6.736 0.285,0.723 0.095,0.557 0.094,-5.9 0.19,3.451 0.284,3.173 0.095,-3.897 0.284,17.868 0.284,5.455 0.095,-1.447 0.095,1.614 0.094,-0.835 0.095,2.338 0.285,1.392 h 0.19 l 0.189,-1.113 0.284,0.167 0.19,1.837 0.094,-11.022 0.095,2.561 0.284,-8.072 0.095,3.285 0.095,-4.509 0.094,0.445 0.095,3.618 0.285,-1.057 0.095,0.445 0.284,12.246 0.284,-2.171 0.095,4.064 0.284,-6.958 0.285,-6.457 0.094,3.451 0.095,-1.837 0.189,-5.901 0.475,9.519 0.095,-1.225 0.094,-6.123 0.285,0.167 0.094,-9.407 0.095,1.392 0.095,-6.402 0.095,3.507 0.284,-2.282 0.189,2.616 0.095,-9.24 0.379,2.449 0.095,2.282 0.19,11.3 0.095,3.284 0.284,4.732 0.095,-1.113 0.094,-4.398 0.095,6.29 0.379,-5.511 0.095,0.223 0.094,-0.278 0.095,2.56 0.379,-5.121 0.095,-3.896 0.095,2.894 0.19,-5.399 0.284,1.558 0.284,7.348 0.095,-4.008 0.379,2.728 0.284,14.472 0.284,-1.558 0.284,16.643 0.096,-4.119 0.284,1.281 0.095,1.057 0.095,2.561 0.095,-3.173 h 0.378 l 0.095,3.562 0.19,-1.336 0.094,-7.96 0.285,2.951 0.094,-0.613 0.095,-2.839 0.095,-5.956 0.094,2.784 0.286,0.723 0.189,8.739 0.095,-2.226 0.095,-4.899 0.284,-3.284 0.189,5.233 0.19,-5.4 0.284,1.169 0.095,1.058 0.094,5.455 0.19,-5.01 0.285,0.613 0.095,-0.613 0.094,0.279 0.095,-1.281 0.095,-4.62 0.284,-4.008 0.095,4.565 0.189,-3.229 0.095,2.95 0.284,3.841 0.189,-2.115 0.19,1.336 0.285,-0.167 0.095,0.501 0.095,-0.891 0.189,1.949 0.474,11.856 0.189,-6.179 0.284,3.507 0.19,-2.282 0.094,-2.783 0.095,2.059 0.284,2.394 0.096,-1.392 0.189,9.63 0.095,2.783 0.284,1.448 0.095,-3.229 0.095,-0.056 0.095,-3.84 0.094,6.178 0.284,0.613 0.095,4.564 0.284,-8.461 0.285,0.724 0.095,-2.895 0.095,0.446 0.095,8.182 0.568,-6.513 0.095,1.448 0.379,-10.187 0.094,2.227 0.095,-1.058 0.095,-5.121 0.095,-0.111 0.284,3.34 0.38,-8.183 0.284,4.119 0.095,-2.338 0.189,5.845 0.095,-0.779 0.284,-6.29 0.095,0.222 0.094,1.67 0.095,0.056 0.095,-2.505 0.284,-0.39 0.095,9.519 0.094,-2.505 0.096,0.891 0.095,-0.334 0.284,3.618 0.19,-8.795 0.189,5.956 0.474,-7.348 0.094,2.394 0.095,-1.837 0.284,-3.173 0.095,1.781 0.285,-11.689 0.284,2.616 0.095,-4.898 0.095,0.668 0.189,9.963 0.284,-1.614 0.19,11.968 0.189,-2.338 0.285,0.278 0.094,-1.503 0.095,-5.065 0.095,3.841 0.094,-2.616 0.286,0.835 0.189,4.898 0.189,-3.952 0.285,1.892 0.094,-0.667 0.095,-4.008 0.095,0.835 0.095,-0.557 0.284,0.501 0.094,-4.509 0.095,1.503 0.19,-3.006 0.285,-2.56 0.095,0.278 0.094,3.284 0.095,-0.501 0.095,3.563 0.379,-1.114 0.094,4.064 0.095,-0.557 0.095,1.169 0.379,-6.791 0.094,4.119 0.095,-0.278 0.095,1.392 0.285,1.057 0.095,-1.057 0.094,-2.561 0.095,3.284 0.095,-5.844 0.284,4.898 0.19,8.739 0.094,1.503 0.095,-1.002 0.284,-0.723 0.095,-2.561 h 0.189 l 0.095,3.451 0.38,-11.522 0.189,-1.336 0.095,3.451 0.284,-4.175 0.095,1.781 0.095,-2.783 0.095,3.396 0.094,-2.561 0.284,-0.334 0.095,-1.614 0.284,8.851 0.285,-1.392 0.094,-1.447 0.096,0.501 0.189,-3.563 0.379,1.559 0.19,-5.066 0.094,0.835 0.285,-3.729 0.094,0.835 0.095,2.282 0.19,-2.505 0.284,-0.835 0.094,0.779 0.191,6.123 0.095,-0.612 0.473,7.904 0.095,-0.389 0.095,-0.167 0.379,-7.904 0.094,0.445 0.095,-3.674 0.095,0.056 0.284,-0.446 0.095,-0.89 0.094,2.616 0.096,-0.167 0.095,-2.115 0.284,-0.78 0.095,4.565 0.095,-1.002 0.189,-11.133 0.379,-20.262 0.095,-16.755 0.094,5.957 0.379,-4.789 0.19,10.912 0.094,-1.058 0.095,-5.344 0.285,3.785 0.095,3.452 0.095,-3.34 0.094,5.51 0.095,-0.501 0.379,14.195 0.095,3.507 0.095,-0.334 h 0.378 l 0.19,-10.076 0.189,13.583 0.286,-1.782 0.094,-8.461 0.19,6.513 0.094,-1.559 0.379,-2.894 0.095,-0.111 0.19,-6.791 0.284,2.115 0.189,-1.948 0.095,3.005 0.095,-1.057 0.285,-1.614 0.094,-3.006 0.19,1.725 0.379,8.461 0.095,-2.115 0.094,7.181 0.095,-0.39 0.095,1.169 0.284,1.169 0.095,-0.056 0.189,-1.892 0.095,0.779 0.285,-2.394 0.095,6.123 0.094,0.056 0.095,0.724 0.095,5.733 0.379,-4.175 0.095,2.394 0.189,-5.121 0.284,0.946 0.095,3.451 0.095,-0.167 0.094,9.519 0.095,-1.726 0.284,2.06 0.096,4.954 0.095,-0.111 0.094,-1.225 0.095,-2.505 0.474,16.866 0.094,-1.892 0.379,12.969 0.285,-6.123 0.094,2.227 0.284,1.837 0.095,1.614 0.096,-4.397 0.095,-12.636 0.094,6.735 0.285,-9.184 0.094,2.505 0.095,0.111 0.095,3.896 0.094,-5.343 0.285,-7.571 0.189,6.624 0.095,-3.562 0.095,4.063 0.284,-0.89 0.094,3.952 0.096,-0.278 0.095,-2.116 0.095,0.167 0.284,1.67 0.284,-7.125 0.095,0.223 0.379,5.956 0.284,-4.899 0.473,16.533 0.096,-1.392 0.095,6.401 0.284,-4.787 0.095,-5.121 0.189,5.567 0.095,-7.682 0.284,-1.67 0.095,-1.447 0.095,2.282 0.094,6.735 0.095,-0.89 0.284,12.246 0.095,-3.785 0.095,1.113 0.19,-11.077 0.284,-8.851 0.095,8.072 0.095,-7.515 0.094,1.614 0.095,-3.451 0.284,8.684 0.095,-5.121 0.095,0.779 0.095,-2.338 0.094,2.894 0.284,-0.501 0.095,-0.834 0.095,0.612 0.189,-6.624 0.285,0.89 0.095,-3.618 0.095,2.95 0.189,-4.787 0.285,0.501 0.189,-7.904 0.095,3.451 0.094,7.292 0.285,-9.129 0.094,1.225 0.095,-5.789 0.19,3.785 0.285,-0.223 0.284,12.859 0.095,-3.117 0.284,6.29 0.189,-2.338 0.095,-1.169 0.379,8.182 0.095,-4.174 0.094,3.061 0.095,-4.676 0.095,2.171 0.285,2.839 0.095,2.115 0.094,-0.055 0.19,2.838 0.284,5.623 0.095,-1.559 0.094,3.841 0.095,-3.062 0.095,6.179 0.379,-3.006 0.095,0.724 0.094,6.679 0.095,-2.115 0.285,1.893 0.095,6.624 0.095,-2.171 0.094,0.946 0.095,-4.843 0.284,-1.057 0.095,1.447 0.189,5.733 0.379,6.847 0.095,-2.226 0.095,-4.509 0.095,2.839 0.378,5.51 0.095,-3.952 0.285,10.855 0.285,-2.171 0.094,0.723 0.284,-16.198 0.285,-0.612 0.094,8.127 0.095,-1.002 0.19,7.515 0.284,-5.956 0.094,1.057 0.095,-0.39 0.096,3.73 0.095,-5.566 0.284,-0.446 0.189,25.495 0.095,-0.89 0.095,5.121 0.284,2.282 0.095,-1.948 0.094,5.956 0.095,-3.173 0.095,7.014 0.284,-2.783 0.189,-7.96 0.096,1.28 0.095,-5.066 0.284,3.062 0.189,6.568 0.19,-10.353 0.284,-0.891 0.095,6.791 0.095,-4.898 0.189,8.628 0.284,0.612 0.19,13.359 0.094,2.116 0.096,5.121 0.284,-2.672 0.095,-4.565 0.095,7.738 0.189,-5.678 0.284,4.954 0.095,-7.849 0.095,0.947 0.094,-6.847 0.095,7.626 0.284,0.668 0.095,1.113 0.095,2.783 0.095,-0.445 h 0.379 l 0.095,9.853 0.19,-4.231 0.094,1.002 0.285,4.62 0.094,-3.507 0.095,-0.167 0.189,3.34" /></g><g
       id="g174"><g
         clip-path="url(#clipPath180)"
         id="g176"><g
           id="g182"><g
             id="g184" /><g
             id="g204"><g
               style="opacity:0.16000402"
               id="g202"
               clip-path="url(#clipPath188)"><g
                 id="g192"
                 transform="translate(34.4863,131.4234)"><path
                   id="path190"
                   style="fill:none;stroke:#000000;stroke-width:0.40000001;stroke-linecap:square;stroke-linejoin:round;stroke-miterlimit:4;stroke-dasharray:none;stroke-opacity:1"
                   d="M 0,0 V 2.5" /></g><g
                 id="g196"
                 transform="translate(34.4863,138.9049)"><path
                   id="path194"
                   style="fill:none;stroke:#000000;stroke-width:0.40000001;stroke-linecap:square;stroke-linejoin:round;stroke-miterlimit:4;stroke-dasharray:4.982, 4.982;stroke-dashoffset:0;stroke-opacity:1"
                   d="M 0,0 V 236.634" /></g><g
                 id="g200"
                 transform="translate(34.4863,378.0299)"><path
                   id="path198"
                   style="fill:none;stroke:#000000;stroke-width:0.40000001;stroke-linecap:square;stroke-linejoin:round;stroke-miterlimit:4;stroke-dasharray:none;stroke-opacity:1"
                   d="M 0,0 V 2.5" /></g></g></g></g><g
           id="g206"><g
             id="g208" /><g
             id="g228"><g
               style="opacity:0.16000402"
               id="g226"
               clip-path="url(#clipPath212)"><g
                 id="g216"
                 transform="translate(103.7646,131.4234)"><path
                   id="path214"
                   style="fill:none;stroke:#000000;stroke-width:0.40000001;stroke-linecap:square;stroke-linejoin:round;stroke-miterlimit:4;stroke-dasharray:none;stroke-opacity:1"
                   d="M 0,0 V 2.5" /></g><g
                 id="g220"
                 transform="translate(103.7646,138.9049)"><path
                   id="path218"
                   style="fill:none;stroke:#000000;stroke-width:0.40000001;stroke-linecap:square;stroke-linejoin:round;stroke-miterlimit:4;stroke-dasharray:4.982, 4.982;stroke-dashoffset:0;stroke-opacity:1"
                   d="M 0,0 V 236.634" /></g><g
                 id="g224"
                 transform="translate(103.7646,378.0299)"><path
                   id="path222"
                   style="fill:none;stroke:#000000;stroke-width:0.40000001;stroke-linecap:square;stroke-linejoin:round;stroke-miterlimit:4;stroke-dasharray:none;stroke-opacity:1"
                   d="M 0,0 V 2.5" /></g></g></g></g><g
           id="g230"><g
             id="g232" /><g
             id="g252"><g
               style="opacity:0.16000402"
               id="g250"
               clip-path="url(#clipPath236)"><g
                 id="g240"
                 transform="translate(172.9473,131.4234)"><path
                   id="path238"
                   style="fill:none;stroke:#000000;stroke-width:0.40000001;stroke-linecap:square;stroke-linejoin:round;stroke-miterlimit:4;stroke-dasharray:none;stroke-opacity:1"
                   d="M 0,0 V 2.5" /></g><g
                 id="g244"
                 transform="translate(172.9473,138.9049)"><path
                   id="path242"
                   style="fill:none;stroke:#000000;stroke-width:0.40000001;stroke-linecap:square;stroke-linejoin:round;stroke-miterlimit:4;stroke-dasharray:4.982, 4.982;stroke-dashoffset:0;stroke-opacity:1"
                   d="M 0,0 V 236.634" /></g><g
                 id="g248"
                 transform="translate(172.9473,378.0299)"><path
                   id="path246"
                   style="fill:none;stroke:#000000;stroke-width:0.40000001;stroke-linecap:square;stroke-linejoin:round;stroke-miterlimit:4;stroke-dasharray:none;stroke-opacity:1"
                   d="M 0,0 V 2.5" /></g></g></g></g><g
           id="g254"><g
             id="g256" /><g
             id="g276"><g
               style="opacity:0.16000402"
               id="g274"
               clip-path="url(#clipPath260)"><g
                 id="g264"
                 transform="translate(242.2246,131.4234)"><path
                   id="path262"
                   style="fill:none;stroke:#000000;stroke-width:0.40000001;stroke-linecap:square;stroke-linejoin:round;stroke-miterlimit:4;stroke-dasharray:none;stroke-opacity:1"
                   d="M 0,0 V 2.5" /></g><g
                 id="g268"
                 transform="translate(242.2246,138.9049)"><path
                   id="path266"
                   style="fill:none;stroke:#000000;stroke-width:0.40000001;stroke-linecap:square;stroke-linejoin:round;stroke-miterlimit:4;stroke-dasharray:4.982, 4.982;stroke-dashoffset:0;stroke-opacity:1"
                   d="M 0,0 V 236.634" /></g><g
                 id="g272"
                 transform="translate(242.2246,378.0299)"><path
                   id="path270"
                   style="fill:none;stroke:#000000;stroke-width:0.40000001;stroke-linecap:square;stroke-linejoin:round;stroke-miterlimit:4;stroke-dasharray:none;stroke-opacity:1"
                   d="M 0,0 V 2.5" /></g></g></g></g><g
           id="g278"><g
             id="g280" /><g
             id="g300"><g
               style="opacity:0.16000402"
               id="g298"
               clip-path="url(#clipPath284)"><g
                 id="g288"
                 transform="translate(311.4082,131.4234)"><path
                   id="path286"
                   style="fill:none;stroke:#000000;stroke-width:0.40000001;stroke-linecap:square;stroke-linejoin:round;stroke-miterlimit:4;stroke-dasharray:none;stroke-opacity:1"
                   d="M 0,0 V 2.5" /></g><g
                 id="g292"
                 transform="translate(311.4082,138.9049)"><path
                   id="path290"
                   style="fill:none;stroke:#000000;stroke-width:0.40000001;stroke-linecap:square;stroke-linejoin:round;stroke-miterlimit:4;stroke-dasharray:4.982, 4.982;stroke-dashoffset:0;stroke-opacity:1"
                   d="M 0,0 V 236.634" /></g><g
                 id="g296"
                 transform="translate(311.4082,378.0299)"><path
                   id="path294"
                   style="fill:none;stroke:#000000;stroke-width:0.40000001;stroke-linecap:square;stroke-linejoin:round;stroke-miterlimit:4;stroke-dasharray:none;stroke-opacity:1"
                   d="M 0,0 V 2.5" /></g></g></g></g><g
           id="g302"><g
             id="g304" /><g
             id="g324"><g
               style="opacity:0.16000402"
               id="g322"
               clip-path="url(#clipPath308)"><g
                 id="g312"
                 transform="translate(380.6855,131.4234)"><path
                   id="path310"
                   style="fill:none;stroke:#000000;stroke-width:0.40000001;stroke-linecap:square;stroke-linejoin:round;stroke-miterlimit:4;stroke-dasharray:none;stroke-opacity:1"
                   d="M 0,0 V 2.5" /></g><g
                 id="g316"
                 transform="translate(380.6855,138.9049)"><path
                   id="path314"
                   style="fill:none;stroke:#000000;stroke-width:0.40000001;stroke-linecap:square;stroke-linejoin:round;stroke-miterlimit:4;stroke-dasharray:4.982, 4.982;stroke-dashoffset:0;stroke-opacity:1"
                   d="M 0,0 V 236.634" /></g><g
                 id="g320"
                 transform="translate(380.6855,378.0299)"><path
                   id="path318"
                   style="fill:none;stroke:#000000;stroke-width:0.40000001;stroke-linecap:square;stroke-linejoin:round;stroke-miterlimit:4;stroke-dasharray:none;stroke-opacity:1"
                   d="M 0,0 V 2.5" /></g></g></g></g><g
           id="g326"><g
             id="g328" /><g
             id="g348"><g
               style="opacity:0.16000402"
               id="g346"
               clip-path="url(#clipPath332)"><g
                 id="g336"
                 transform="translate(449.8691,131.4234)"><path
                   id="path334"
                   style="fill:none;stroke:#000000;stroke-width:0.40000001;stroke-linecap:square;stroke-linejoin:round;stroke-miterlimit:4;stroke-dasharray:none;stroke-opacity:1"
                   d="M 0,0 V 2.5" /></g><g
                 id="g340"
                 transform="translate(449.8691,138.9049)"><path
                   id="path338"
                   style="fill:none;stroke:#000000;stroke-width:0.40000001;stroke-linecap:square;stroke-linejoin:round;stroke-miterlimit:4;stroke-dasharray:4.982, 4.982;stroke-dashoffset:0;stroke-opacity:1"
                   d="M 0,0 V 236.634" /></g><g
                 id="g344"
                 transform="translate(449.8691,378.0299)"><path
                   id="path342"
                   style="fill:none;stroke:#000000;stroke-width:0.40000001;stroke-linecap:square;stroke-linejoin:round;stroke-miterlimit:4;stroke-dasharray:none;stroke-opacity:1"
                   d="M 0,0 V 2.5" /></g></g></g></g><g
           id="g350"><g
             id="g352" /><g
             id="g372"><g
               style="opacity:0.16000402"
               id="g370"
               clip-path="url(#clipPath356)"><g
                 id="g360"
                 transform="translate(26.9072,183.6617)"><path
                   id="path358"
                   style="fill:none;stroke:#000000;stroke-width:0.40000001;stroke-linecap:square;stroke-linejoin:round;stroke-miterlimit:4;stroke-dasharray:none;stroke-opacity:1"
                   d="M 0,0 H 2.5" /></g><g
                 id="g364"
                 transform="translate(34.4082,183.6617)"><path
                   id="path362"
                   style="fill:none;stroke:#000000;stroke-width:0.40000001;stroke-linecap:square;stroke-linejoin:round;stroke-miterlimit:4;stroke-dasharray:5.001, 5.001;stroke-dashoffset:0;stroke-opacity:1"
                   d="M 0,0 H 477.634" /></g><g
                 id="g368"
                 transform="translate(514.543,183.6617)"><path
                   id="path366"
                   style="fill:none;stroke:#000000;stroke-width:0.40000001;stroke-linecap:square;stroke-linejoin:round;stroke-miterlimit:4;stroke-dasharray:none;stroke-opacity:1"
                   d="M 0,0 H 2.5" /></g></g></g></g><g
           id="g374"><g
             id="g376" /><g
             id="g396"><g
               style="opacity:0.16000402"
               id="g394"
               clip-path="url(#clipPath380)"><g
                 id="g384"
                 transform="translate(26.9072,239.3268)"><path
                   id="path382"
                   style="fill:none;stroke:#000000;stroke-width:0.40000001;stroke-linecap:square;stroke-linejoin:round;stroke-miterlimit:4;stroke-dasharray:none;stroke-opacity:1"
                   d="M 0,0 H 2.5" /></g><g
                 id="g388"
                 transform="translate(34.4082,239.3268)"><path
                   id="path386"
                   style="fill:none;stroke:#000000;stroke-width:0.40000001;stroke-linecap:square;stroke-linejoin:round;stroke-miterlimit:4;stroke-dasharray:5.001, 5.001;stroke-dashoffset:0;stroke-opacity:1"
                   d="M 0,0 H 477.634" /></g><g
                 id="g392"
                 transform="translate(514.543,239.3268)"><path
                   id="path390"
                   style="fill:none;stroke:#000000;stroke-width:0.40000001;stroke-linecap:square;stroke-linejoin:round;stroke-miterlimit:4;stroke-dasharray:none;stroke-opacity:1"
                   d="M 0,0 H 2.5" /></g></g></g></g><g
           id="g398"><g
             id="g400" /><g
             id="g420"><g
               style="opacity:0.16000402"
               id="g418"
               clip-path="url(#clipPath404)"><g
                 id="g408"
                 transform="translate(26.9072,294.9908)"><path
                   id="path406"
                   style="fill:none;stroke:#000000;stroke-width:0.40000001;stroke-linecap:square;stroke-linejoin:round;stroke-miterlimit:4;stroke-dasharray:none;stroke-opacity:1"
                   d="M 0,0 H 2.5" /></g><g
                 id="g412"
                 transform="translate(34.4082,294.9908)"><path
                   id="path410"
                   style="fill:none;stroke:#000000;stroke-width:0.40000001;stroke-linecap:square;stroke-linejoin:round;stroke-miterlimit:4;stroke-dasharray:5.001, 5.001;stroke-dashoffset:0;stroke-opacity:1"
                   d="M 0,0 H 477.634" /></g><g
                 id="g416"
                 transform="translate(514.543,294.9908)"><path
                   id="path414"
                   style="fill:none;stroke:#000000;stroke-width:0.40000001;stroke-linecap:square;stroke-linejoin:round;stroke-miterlimit:4;stroke-dasharray:none;stroke-opacity:1"
                   d="M 0,0 H 2.5" /></g></g></g></g><g
           id="g422"><g
             id="g424" /><g
             id="g444"><g
               style="opacity:0.16000402"
               id="g442"
               clip-path="url(#clipPath428)"><g
                 id="g432"
                 transform="translate(26.9072,350.6559)"><path
                   id="path430"
                   style="fill:none;stroke:#000000;stroke-width:0.40000001;stroke-linecap:square;stroke-linejoin:round;stroke-miterlimit:4;stroke-dasharray:none;stroke-opacity:1"
                   d="M 0,0 H 2.5" /></g><g
                 id="g436"
                 transform="translate(34.4082,350.6559)"><path
                   id="path434"
                   style="fill:none;stroke:#000000;stroke-width:0.40000001;stroke-linecap:square;stroke-linejoin:round;stroke-miterlimit:4;stroke-dasharray:5.001, 5.001;stroke-dashoffset:0;stroke-opacity:1"
                   d="M 0,0 H 477.634" /></g><g
                 id="g440"
                 transform="translate(514.543,350.6559)"><path
                   id="path438"
                   style="fill:none;stroke:#000000;stroke-width:0.40000001;stroke-linecap:square;stroke-linejoin:round;stroke-miterlimit:4;stroke-dasharray:none;stroke-opacity:1"
                   d="M 0,0 H 2.5" /></g></g></g></g></g></g><text
       id="text448"
       style="font-variant:normal;font-weight:bold;font-stretch:normal;font-size:15px;font-family:Roboto;-inkscape-font-specification:Roboto-Bold;writing-mode:lr-tb;fill:#000000;fill-opacity:1;fill-rule:nonzero;stroke:none"
       transform="matrix(1,0,0,-1,63.6621,358.3115)"><tspan
         id="tspan446"
         y="0"
         x="0 8.6099997 17.219999 25.83 34.439999 43.919998 52.529999 61.139999 69.75">2008–2009</tspan></text>
<text
       id="text454"
       style="font-variant:normal;font-weight:300;font-stretch:normal;font-size:15px;font-family:'Roboto Light';-inkscape-font-specification:Roboto-Light;writing-mode:lr-tb;fill:#000000;fill-opacity:1;fill-rule:nonzero;stroke:none"
       transform="matrix(1,0,0,-1,63.6621,340.9115)"><tspan
         id="tspan450"
         y="0"
         x="0 10.62 19.02 26.610001 34.919998 43.32 51.66 59.689499 64.7295 72.319504 79.669502 87.709503">Hospodárska </tspan><tspan
         id="tspan452"
         y="18"
         x="0 7.3499999 12.39 15.735 23.025">kríza</tspan></text>
<text
       id="text458"
       style="font-variant:normal;font-weight:bold;font-stretch:normal;font-size:15px;font-family:Roboto;-inkscape-font-specification:Roboto-Bold;writing-mode:lr-tb;fill:#000000;fill-opacity:1;fill-rule:nonzero;stroke:none"
       transform="matrix(1,0,0,-1,217.4121,358.3115)"><tspan
         id="tspan456"
         y="0"
         x="0 8.6099997 17.219999 25.83 34.439999 43.919998 52.529999 61.139999 69.75">2013–2017</tspan></text>
<text
       id="text462"
       style="font-variant:normal;font-weight:300;font-stretch:normal;font-size:15px;font-family:'Roboto Light';-inkscape-font-specification:Roboto-Light;writing-mode:lr-tb;fill:#000000;fill-opacity:1;fill-rule:nonzero;stroke:none"
       transform="matrix(1,0,0,-1,217.4121,340.3115)"><tspan
         id="tspan460"
         y="0"
         x="0 9.2399998 14.148 21.8955 30.2055 38.245499 46.585499">Prepad </tspan></text>
<text
       id="text468"
       style="font-variant:normal;font-weight:300;font-stretch:normal;font-size:15px;font-family:'Roboto Light';-inkscape-font-specification:Roboto-Light;writing-mode:lr-tb;fill:#000000;fill-opacity:1;fill-rule:nonzero;stroke:none"
       transform="matrix(1,0,0,-1,267.6426,340.3115)"><tspan
         id="tspan464"
         y="0"
         x="0 7.7249999 15.48 23.715 30.84 34.485001 41.700001 45.345001 53.685001 62.084999 69.675003 73.035004 80.790001 89.129997 96.480003 104.715">ceny v dôsledku </tspan><tspan
         id="tspan466"
         y="18"
         x="-50.230499 -41.920502 -37.012501 -29.264999 -21.0315 -13.9065 -9.0915003 -1.7415 6.4935002 10.1385 18.4485 26.737499 33.842999 42.243 45.603001 53.358002 61.592999 64.953003 72.708">prebytku povoleniek</tspan></text>
<text
       id="text472"
       style="font-variant:normal;font-weight:bold;font-stretch:normal;font-size:15px;font-family:Roboto;-inkscape-font-specification:Roboto-Bold;writing-mode:lr-tb;fill:#000000;fill-opacity:1;fill-rule:nonzero;stroke:none"
       transform="matrix(1,0,0,-1,432.8421,65.2565)"><tspan
         id="tspan470"
         y="0"
         x="0 12.99 21.030001 26.365499 34.4715 42.286499 46.0215 54.6315 63.241501 71.851501">marec 2020</tspan></text>
<text
       id="text478"
       style="font-variant:normal;font-weight:300;font-stretch:normal;font-size:15px;font-family:'Roboto Light';-inkscape-font-specification:Roboto-Light;writing-mode:lr-tb;fill:#000000;fill-opacity:1;fill-rule:nonzero;stroke:none"
       transform="matrix(1,0,0,-1,265.3521,47.2565)"><tspan
         id="tspan474"
         y="0"
         x="0 9.2399998 14.28 22.514999 30.855 38.195999 45.320999 48.966 57.276001 65.676003 73.026001 76.386002 84.140999 91.731003 95.375999 103.131 110.4735 118.8735 127.1085 135.5085 148.79849 152.15849 159.8835 167.082 174.83701 178.257 181.90199 189.942 197.29201 202.10699 205.467 212.68201 216.04201 220.85699 227.98199 231.627 239.862 247.90199">Prudký pokles ekonomickej aktivity na </tspan><tspan
         id="tspan476"
         y="18"
         x="17.475 24.764999 32.805 40.529999 43.889999 51.93 56.744999 64.095001 72.330002 75.974998 83.324997 91.724998 96.625504 105.0255 113.2605 121.1865 128.4015 131.74651 136.7865 145.0215 152.6115 160.9005 168.021 175.76849 179.18851 182.8335 191.14349 199.1835 207.4185 215.7585 223.5135 236.8035 240.1635">začiatku koronavírusovej pandémie</tspan></text>
<text
       id="text482"
       style="font-variant:normal;font-weight:500;font-stretch:normal;font-size:15px;font-family:'Roboto Medium';-inkscape-font-specification:Roboto-Medium;writing-mode:lr-tb;fill:#000000;fill-opacity:1;fill-rule:nonzero;stroke:none"
       transform="matrix(1,0,0,-1,4.9971,417.9965)"><tspan
         id="tspan480"
         y="0"
         x="0 9.7950001 17.85 26.190001 34.305 38.040001 46.485001 54.915001 62.224499 70.759499 74.595001 82.650002 90.989998 94.815002 102.87">Cena povoleniek</tspan></text>
<text
       id="text486"
       style="font-variant:normal;font-weight:300;font-stretch:normal;font-size:15px;font-family:'Roboto Light';-inkscape-font-specification:Roboto-Light;writing-mode:lr-tb;fill:#000000;fill-opacity:1;fill-rule:nonzero;stroke:none"
       transform="matrix(1,0,0,-1,4.9971,399.9965)"><tspan
         id="tspan484"
         y="0"
         x="0 4.7849998 13.32 23.174999 32.700001 36.345001 43.634998 51.674999 55.32 59.993999 68.393997 76.628998 84.863998 88.509003 98.244003">(EUR za tonu CO</tspan></text>
<text
       id="text490"
       style="font-variant:normal;font-weight:300;font-stretch:normal;font-size:8.74499989px;font-family:'Roboto Light';-inkscape-font-specification:Roboto-Light;writing-mode:lr-tb;fill:#000000;fill-opacity:1;fill-rule:nonzero;stroke:none"
       transform="matrix(1,0,0,-1,113.4121,396.9995)"><tspan
         id="tspan488"
         y="0"
         x="0">2</tspan></text>
<text
       id="text494"
       style="font-variant:normal;font-weight:300;font-stretch:normal;font-size:15px;font-family:'Roboto Light';-inkscape-font-specification:Roboto-Light;writing-mode:lr-tb;fill:#000000;fill-opacity:1;fill-rule:nonzero;stroke:none"
       transform="matrix(1,0,0,-1,118.2588,399.9946)"><tspan
         id="tspan492"
         y="0"
         x="0">)</tspan></text>
<g
       transform="translate(459.9141,125.4146)"
       id="g496"><path
         id="path498"
         style="fill:none;stroke:#bcbec0;stroke-width:1;stroke-linecap:butt;stroke-linejoin:miter;stroke-miterlimit:10;stroke-dasharray:none;stroke-opacity:1"
         d="M 0,0 V -43.987" /></g><g
       transform="translate(455.8242,122.1012)"
       id="g500"><path
         id="path502"
         style="fill:#bcbec0;fill-opacity:1;fill-rule:nonzero;stroke:none"
         d="M 0,0 0.732,-0.683 4.089,2.93 7.447,-0.683 8.18,0 4.089,4.397 Z" /></g></g></svg>