<svg id="Layer_1" data-name="Layer 1" xmlns="http://www.w3.org/2000/svg" viewBox="0 0 520 450.66"><defs><style>.cls-1{fill:#87bbde;}.cls-1,.cls-11,.cls-5,.cls-7{stroke:#fff;}.cls-1,.cls-11,.cls-4,.cls-5,.cls-6,.cls-7{stroke-miterlimit:10;}.cls-1,.cls-11{stroke-width:1.11px;}.cls-2,.cls-3,.cls-4,.cls-6{fill:none;}.cls-2{stroke:#666;stroke-width:0.66px;}.cls-2,.cls-3{stroke-linecap:square;}.cls-3{stroke:#808285;stroke-linejoin:round;stroke-width:0.3px;stroke-dasharray:5.69;}.cls-4,.cls-6{stroke:#000;}.cls-4{stroke-width:2.21px;}.cls-5{fill:#e8e3e7;}.cls-6{stroke-width:2px;}.cls-7{fill:#97c1de;}.cls-8{fill:#999;}.cls-9{fill:#76b4de;}.cls-10{opacity:0.1;}</style></defs><path class="cls-1" d="M36.48,357.05h32V159.13h-32Z"/><path class="cls-1" d="M68.43,357.05h31.95V157H68.43Z"/><path class="cls-1" d="M100.38,357.05h31.94V144.33H100.38Z"/><path class="cls-1" d="M132.32,357.05h32V148.76h-32Z"/><path class="cls-1" d="M164.27,357.05h31.95V172.35H164.27Z"/><path class="cls-1" d="M196.22,357.05h31.94V166.53H196.22Z"/><path class="cls-1" d="M228.16,357.05h32V169.91h-32Z"/><path class="cls-1" d="M260.11,357.05h31.95V165.33H260.11Z"/><path class="cls-1" d="M292.06,357.05H324V164.29H292.06Z"/><path class="cls-1" d="M324,357.05H356V173.42H324Z"/><path class="cls-1" d="M356,357.05H387.9V174.25H356Z"/><path class="cls-1" d="M387.9,357.05h31.94V179H387.9Z"/><path class="cls-1" d="M419.84,357.05h32V178.29h-32Z"/><path class="cls-1" d="M451.79,357.05h31.94V185H451.79Z"/><path class="cls-1" d="M483.73,357.05h31.95V200H483.73Z"/><path d="M43.76,378.9H37.08v-.68l3.65-4.14A9.36,9.36,0,0,0,42,372.35a2.81,2.81,0,0,0,.35-1.33,2.15,2.15,0,0,0-.59-1.6,2.23,2.23,0,0,0-1.63-.59,2.3,2.3,0,0,0-1.74.69,2.49,2.49,0,0,0-.67,1.79h-.87a3.35,3.35,0,0,1,.41-1.64,2.94,2.94,0,0,1,1.16-1.16,3.44,3.44,0,0,1,1.71-.42,3.21,3.21,0,0,1,2.29.77,2.71,2.71,0,0,1,.82,2.09,3.55,3.55,0,0,1-.47,1.63,12,12,0,0,1-1.63,2.22l-3,3.36h5.61Z"/><path d="M51.82,374.45a5.85,5.85,0,0,1-.83,3.43,3.14,3.14,0,0,1-4.86,0,5.69,5.69,0,0,1-.86-3.34v-1.91a5.8,5.8,0,0,1,.83-3.41,2.82,2.82,0,0,1,2.44-1.15A2.86,2.86,0,0,1,51,369.2a5.68,5.68,0,0,1,.86,3.3Zm-.88-1.91a5.31,5.31,0,0,0-.59-2.77,2.21,2.21,0,0,0-3.6,0,5,5,0,0,0-.61,2.7v2.1a5.15,5.15,0,0,0,.62,2.79,2,2,0,0,0,1.79,1,2,2,0,0,0,1.78-.94,5.19,5.19,0,0,0,.61-2.77Z"/><path d="M60.13,374.45a5.93,5.93,0,0,1-.82,3.43,3.15,3.15,0,0,1-4.87,0,5.69,5.69,0,0,1-.86-3.34v-1.91a5.88,5.88,0,0,1,.83-3.41,3.18,3.18,0,0,1,4.86,0,5.6,5.6,0,0,1,.86,3.3Zm-.87-1.91a5.2,5.2,0,0,0-.6-2.77,2,2,0,0,0-1.81-.94,2,2,0,0,0-1.78.92,5,5,0,0,0-.62,2.7v2.1a5.24,5.24,0,0,0,.62,2.79,2,2,0,0,0,1.8,1,2,2,0,0,0,1.77-.94,5.19,5.19,0,0,0,.62-2.77Z"/><path d="M62.61,373.43l.52-5.2h5.33v.82H63.88l-.37,3.6a3.48,3.48,0,0,1,2-.59,3,3,0,0,1,2.3.94,3.58,3.58,0,0,1,.85,2.5,3.75,3.75,0,0,1-.83,2.61,3,3,0,0,1-2.35.93,3,3,0,0,1-3.25-3h.85a2.5,2.5,0,0,0,.74,1.65,2.34,2.34,0,0,0,1.66.56,2.08,2.08,0,0,0,1.72-.72,3.21,3.21,0,0,0,.59-2.07,2.77,2.77,0,0,0-.66-1.91,2.24,2.24,0,0,0-1.78-.74,3.51,3.51,0,0,0-1.08.16,3,3,0,0,0-1,.61Z"/><path d="M107.58,378.9H100.9v-.68l3.66-4.14a10.42,10.42,0,0,0,1.26-1.73,2.94,2.94,0,0,0,.35-1.33,2.16,2.16,0,0,0-.6-1.6,2.22,2.22,0,0,0-1.63-.59,2.3,2.3,0,0,0-1.74.69,2.49,2.49,0,0,0-.66,1.79h-.87a3.35,3.35,0,0,1,.4-1.64,2.94,2.94,0,0,1,1.16-1.16,3.44,3.44,0,0,1,1.71-.42,3.19,3.19,0,0,1,2.29.77,2.71,2.71,0,0,1,.82,2.09,3.52,3.52,0,0,1-.46,1.63A12.14,12.14,0,0,1,105,374.8l-3,3.36h5.6Z"/><path d="M115.65,374.45a5.92,5.92,0,0,1-.83,3.43,3.15,3.15,0,0,1-4.87,0,5.69,5.69,0,0,1-.86-3.34v-1.91a5.88,5.88,0,0,1,.83-3.41,3.18,3.18,0,0,1,4.86,0,5.6,5.6,0,0,1,.87,3.3Zm-.88-1.91a5.2,5.2,0,0,0-.6-2.77,2,2,0,0,0-1.81-.94,2,2,0,0,0-1.78.92,5,5,0,0,0-.62,2.7v2.1a5.24,5.24,0,0,0,.62,2.79,2,2,0,0,0,1.8,1,2,2,0,0,0,1.77-.94,5.19,5.19,0,0,0,.62-2.77Z"/><path d="M124,374.45a5.92,5.92,0,0,1-.83,3.43,3.14,3.14,0,0,1-4.86,0,5.76,5.76,0,0,1-.87-3.34v-1.91a5.8,5.8,0,0,1,.84-3.41,3.17,3.17,0,0,1,4.85,0,5.6,5.6,0,0,1,.87,3.3Zm-.88-1.91a5.2,5.2,0,0,0-.6-2.77,2.2,2.2,0,0,0-3.59,0,5,5,0,0,0-.62,2.7v2.1a5.24,5.24,0,0,0,.62,2.79,2,2,0,0,0,1.8,1,2,2,0,0,0,1.78-.94,5.29,5.29,0,0,0,.61-2.77Z"/><path d="M132.41,368.74l-4.56,10.16h-.91l4.53-9.92H125.4v-.75h7Z"/><path d="M171.4,378.9h-6.68v-.68l3.66-4.14a10.42,10.42,0,0,0,1.26-1.73A2.94,2.94,0,0,0,170,371a2.19,2.19,0,0,0-.59-1.6,2.24,2.24,0,0,0-1.64-.59,2.33,2.33,0,0,0-1.74.69,2.49,2.49,0,0,0-.66,1.79h-.87a3.35,3.35,0,0,1,.41-1.64,2.92,2.92,0,0,1,1.15-1.16,3.44,3.44,0,0,1,1.71-.42,3.19,3.19,0,0,1,2.29.77,2.72,2.72,0,0,1,.83,2.09,3.55,3.55,0,0,1-.47,1.63,11.69,11.69,0,0,1-1.64,2.22l-3,3.36h5.6Z"/><path d="M179.47,374.45a5.92,5.92,0,0,1-.83,3.43,3.14,3.14,0,0,1-4.86,0,5.76,5.76,0,0,1-.87-3.34v-1.91a5.8,5.8,0,0,1,.84-3.41,3.17,3.17,0,0,1,4.85,0,5.6,5.6,0,0,1,.87,3.3Zm-.88-1.91a5.2,5.2,0,0,0-.6-2.77,2.2,2.2,0,0,0-3.59,0,5,5,0,0,0-.62,2.7v2.1a5.24,5.24,0,0,0,.62,2.79,2,2,0,0,0,1.8,1,2,2,0,0,0,1.78-.94,5.29,5.29,0,0,0,.61-2.77Z"/><path d="M187.78,374.45a5.85,5.85,0,0,1-.83,3.43,3.14,3.14,0,0,1-4.86,0,5.69,5.69,0,0,1-.86-3.34v-1.91a5.8,5.8,0,0,1,.83-3.41,2.82,2.82,0,0,1,2.44-1.15,2.86,2.86,0,0,1,2.42,1.11,5.68,5.68,0,0,1,.86,3.3Zm-.88-1.91a5.31,5.31,0,0,0-.59-2.77,2.21,2.21,0,0,0-3.6,0,5,5,0,0,0-.61,2.7v2.1a5.15,5.15,0,0,0,.62,2.79,2,2,0,0,0,1.79,1,2,2,0,0,0,1.78-.94,5.19,5.19,0,0,0,.61-2.77Z"/><path d="M195.13,374A3.29,3.29,0,0,1,194,375a3.13,3.13,0,0,1-1.51.37,2.74,2.74,0,0,1-1.6-.47,3,3,0,0,1-1.08-1.29,4.35,4.35,0,0,1-.38-1.81,4.5,4.5,0,0,1,.41-1.92,3.24,3.24,0,0,1,1.13-1.34,3.28,3.28,0,0,1,4.18.64,5,5,0,0,1,.89,3.19v.79a6.57,6.57,0,0,1-1.23,4.34A4.63,4.63,0,0,1,191,379h-.17v-.76h.31a3.9,3.9,0,0,0,2.91-1.09A4.63,4.63,0,0,0,195.13,374Zm-2.56.68a2.56,2.56,0,0,0,1.58-.52,2.76,2.76,0,0,0,1-1.36v-.5a4.06,4.06,0,0,0-.68-2.52,2.18,2.18,0,0,0-1.82-.89,2.09,2.09,0,0,0-1.71.84,3.28,3.28,0,0,0-.67,2.1,3.19,3.19,0,0,0,.65,2A2,2,0,0,0,192.57,374.64Z"/><path d="M235.23,378.9h-6.68v-.68l3.65-4.14a9.36,9.36,0,0,0,1.26-1.73,2.81,2.81,0,0,0,.35-1.33,2.15,2.15,0,0,0-.59-1.6,2.22,2.22,0,0,0-1.63-.59,2.3,2.3,0,0,0-1.74.69,2.49,2.49,0,0,0-.66,1.79h-.88a3.35,3.35,0,0,1,.41-1.64,2.94,2.94,0,0,1,1.16-1.16,3.44,3.44,0,0,1,1.71-.42,3.21,3.21,0,0,1,2.29.77,2.71,2.71,0,0,1,.82,2.09,3.55,3.55,0,0,1-.47,1.63,12,12,0,0,1-1.63,2.22l-3,3.36h5.61Z"/><path d="M243.29,374.45a5.85,5.85,0,0,1-.83,3.43,3.14,3.14,0,0,1-4.86,0,5.69,5.69,0,0,1-.86-3.34v-1.91a5.8,5.8,0,0,1,.83-3.41,2.82,2.82,0,0,1,2.44-1.15,2.86,2.86,0,0,1,2.42,1.11,5.68,5.68,0,0,1,.86,3.3Zm-.88-1.91a5.31,5.31,0,0,0-.59-2.77,2.21,2.21,0,0,0-3.6,0,5,5,0,0,0-.61,2.7v2.1a5.15,5.15,0,0,0,.62,2.79,2,2,0,0,0,1.79,1,2,2,0,0,0,1.78-.94,5.19,5.19,0,0,0,.61-2.77Z"/><path d="M249.25,378.9h-.88v-9.61l-2.9,1.07v-.82l3.64-1.34h.14Z"/><path d="M257.57,378.9h-.88v-9.61l-2.9,1.07v-.82l3.63-1.34h.15Z"/><path d="M299.05,378.9h-6.68v-.68l3.66-4.14a10.42,10.42,0,0,0,1.26-1.73,2.94,2.94,0,0,0,.35-1.33,2.19,2.19,0,0,0-.59-1.6,2.24,2.24,0,0,0-1.64-.59,2.3,2.3,0,0,0-1.74.69,2.49,2.49,0,0,0-.66,1.79h-.87a3.35,3.35,0,0,1,.4-1.64,3,3,0,0,1,1.16-1.16,3.44,3.44,0,0,1,1.71-.42,3.19,3.19,0,0,1,2.29.77,2.71,2.71,0,0,1,.82,2.09,3.52,3.52,0,0,1-.46,1.63,12.14,12.14,0,0,1-1.64,2.22l-3,3.36h5.6Z"/><path d="M307.12,374.45a5.92,5.92,0,0,1-.83,3.43,3.14,3.14,0,0,1-4.86,0,5.68,5.68,0,0,1-.87-3.34v-1.91a5.8,5.8,0,0,1,.84-3.41,3.17,3.17,0,0,1,4.85,0,5.6,5.6,0,0,1,.87,3.3Zm-.88-1.91a5.2,5.2,0,0,0-.6-2.77,2,2,0,0,0-1.81-.94,2,2,0,0,0-1.78.92,5,5,0,0,0-.62,2.7v2.1a5.24,5.24,0,0,0,.62,2.79,2.16,2.16,0,0,0,3.58,0,5.29,5.29,0,0,0,.61-2.77Z"/><path d="M313.08,378.9h-.88v-9.61l-2.9,1.07v-.82l3.63-1.34h.15Z"/><path d="M319.26,373.09h.91a3.05,3.05,0,0,0,1.32-.27,2.07,2.07,0,0,0,.86-.73,2,2,0,0,0,.29-1.07,2.16,2.16,0,0,0-.58-1.61,2.26,2.26,0,0,0-1.66-.58,2.41,2.41,0,0,0-1.68.61,2,2,0,0,0-.65,1.59h-.88a2.93,2.93,0,0,1,.41-1.51,2.83,2.83,0,0,1,1.16-1.06,3.56,3.56,0,0,1,1.64-.37,3.19,3.19,0,0,1,2.29.79,2.87,2.87,0,0,1,.83,2.17,2.31,2.31,0,0,1-.48,1.41,2.85,2.85,0,0,1-1.34,1,2.79,2.79,0,0,1,1.51,1,2.61,2.61,0,0,1,.51,1.62,2.89,2.89,0,0,1-.89,2.2,3.35,3.35,0,0,1-2.39.83,3.9,3.9,0,0,1-1.75-.38A2.79,2.79,0,0,1,317,376h.87a2.1,2.1,0,0,0,.72,1.65,2.59,2.59,0,0,0,1.82.64,2.5,2.5,0,0,0,1.77-.58,2.19,2.19,0,0,0,.63-1.69,2,2,0,0,0-.68-1.63,3.1,3.1,0,0,0-2-.56h-.88Z"/><path d="M362.88,378.9H356.2v-.68l3.65-4.14a9.36,9.36,0,0,0,1.26-1.73,2.94,2.94,0,0,0,.35-1.33,2.19,2.19,0,0,0-.59-1.6,2.23,2.23,0,0,0-1.63-.59,2.3,2.3,0,0,0-1.74.69,2.45,2.45,0,0,0-.67,1.79H356a3.35,3.35,0,0,1,.41-1.64,2.88,2.88,0,0,1,1.16-1.16,3.44,3.44,0,0,1,1.71-.42,3.18,3.18,0,0,1,2.28.77,2.72,2.72,0,0,1,.83,2.09,3.55,3.55,0,0,1-.47,1.63,12,12,0,0,1-1.63,2.22l-3,3.36h5.61Z"/><path d="M370.94,374.45a5.92,5.92,0,0,1-.83,3.43,3.14,3.14,0,0,1-4.86,0,5.76,5.76,0,0,1-.87-3.34v-1.91a5.8,5.8,0,0,1,.84-3.41,2.82,2.82,0,0,1,2.44-1.15,2.86,2.86,0,0,1,2.42,1.11,5.68,5.68,0,0,1,.86,3.3Zm-.88-1.91a5.2,5.2,0,0,0-.6-2.77,2.2,2.2,0,0,0-3.59,0,5,5,0,0,0-.61,2.7v2.1a5.25,5.25,0,0,0,.61,2.79,2,2,0,0,0,1.8,1,2,2,0,0,0,1.78-.94,5.19,5.19,0,0,0,.61-2.77Z"/><path d="M376.9,378.9H376v-9.61l-2.9,1.07v-.82l3.63-1.34h.15Z"/><path d="M381.73,373.43l.52-5.2h5.33v.82H383l-.37,3.6a3.47,3.47,0,0,1,2-.59,3,3,0,0,1,2.31.94,3.58,3.58,0,0,1,.85,2.5,3.8,3.8,0,0,1-.83,2.61,3,3,0,0,1-2.35.93,3.25,3.25,0,0,1-2.26-.77,3.15,3.15,0,0,1-1-2.18h.84a2.55,2.55,0,0,0,.74,1.65,2.36,2.36,0,0,0,1.67.56,2.08,2.08,0,0,0,1.72-.72,3.21,3.21,0,0,0,.58-2.07,2.77,2.77,0,0,0-.65-1.91,2.26,2.26,0,0,0-1.78-.74,3.51,3.51,0,0,0-1.08.16,3.06,3.06,0,0,0-1,.61Z"/><path d="M426.7,378.9H420v-.68l3.65-4.14a9.36,9.36,0,0,0,1.26-1.73,2.83,2.83,0,0,0,.36-1.33,2.16,2.16,0,0,0-.6-1.6,2.22,2.22,0,0,0-1.63-.59,2.3,2.3,0,0,0-1.74.69,2.49,2.49,0,0,0-.66,1.79h-.87a3.35,3.35,0,0,1,.4-1.64,2.94,2.94,0,0,1,1.16-1.16,3.44,3.44,0,0,1,1.71-.42,3.19,3.19,0,0,1,2.29.77,2.71,2.71,0,0,1,.82,2.09,3.52,3.52,0,0,1-.46,1.63,12.14,12.14,0,0,1-1.64,2.22l-3,3.36h5.6Z"/><path d="M434.76,374.45a5.85,5.85,0,0,1-.83,3.43A2.8,2.8,0,0,1,431.5,379a2.83,2.83,0,0,1-2.43-1.14,5.69,5.69,0,0,1-.86-3.34v-1.91a5.88,5.88,0,0,1,.83-3.41,3.18,3.18,0,0,1,4.86,0,5.6,5.6,0,0,1,.86,3.3Zm-.88-1.91a5.31,5.31,0,0,0-.59-2.77,2.21,2.21,0,0,0-3.6,0,5,5,0,0,0-.61,2.7v2.1a5.24,5.24,0,0,0,.62,2.79,2,2,0,0,0,1.8,1,2,2,0,0,0,1.77-.94,5.19,5.19,0,0,0,.61-2.77Z"/><path d="M440.72,378.9h-.87v-9.61l-2.9,1.07v-.82l3.63-1.34h.14Z"/><path d="M451.53,368.74,447,378.9h-.91l4.52-9.92h-6.06v-.75h7Z"/><path d="M490.52,378.9h-6.68v-.68l3.66-4.14a10.42,10.42,0,0,0,1.26-1.73,3,3,0,0,0,.35-1.33,2.19,2.19,0,0,0-.59-1.6,2.24,2.24,0,0,0-1.64-.59,2.33,2.33,0,0,0-1.74.69,2.49,2.49,0,0,0-.66,1.79h-.87a3.35,3.35,0,0,1,.41-1.64,2.92,2.92,0,0,1,1.15-1.16,3.44,3.44,0,0,1,1.71-.42,3.19,3.19,0,0,1,2.29.77A2.72,2.72,0,0,1,490,371a3.55,3.55,0,0,1-.47,1.63,12,12,0,0,1-1.64,2.22l-3,3.36h5.6Z"/><path d="M498.59,374.45a5.92,5.92,0,0,1-.83,3.43,3.14,3.14,0,0,1-4.86,0,5.76,5.76,0,0,1-.87-3.34v-1.91a5.78,5.78,0,0,1,.84-3.41,3.17,3.17,0,0,1,4.85,0,5.6,5.6,0,0,1,.87,3.3Zm-.88-1.91a5.2,5.2,0,0,0-.6-2.77,2.2,2.2,0,0,0-3.59,0,5,5,0,0,0-.62,2.7v2.1a5.24,5.24,0,0,0,.62,2.79,2,2,0,0,0,1.8,1,2,2,0,0,0,1.78-.94,5.29,5.29,0,0,0,.61-2.77Z"/><path d="M504.55,378.9h-.88v-9.61l-2.9,1.07v-.82l3.63-1.34h.15Z"/><path d="M514.25,374a3.38,3.38,0,0,1-1.16,1.07,3.15,3.15,0,0,1-1.51.37,2.72,2.72,0,0,1-1.6-.47,3,3,0,0,1-1.08-1.29,4.6,4.6,0,0,1,0-3.73,3.18,3.18,0,0,1,1.13-1.34,3.28,3.28,0,0,1,4.18.64,5,5,0,0,1,.89,3.19v.79a6.57,6.57,0,0,1-1.23,4.34,4.67,4.67,0,0,1-3.76,1.45H510v-.76h.31a3.94,3.94,0,0,0,2.91-1.09A4.63,4.63,0,0,0,514.25,374Zm-2.56.68a2.56,2.56,0,0,0,1.58-.52,2.76,2.76,0,0,0,1-1.36v-.5a4.06,4.06,0,0,0-.68-2.52,2.18,2.18,0,0,0-1.82-.89,2.09,2.09,0,0,0-1.71.83,3.31,3.31,0,0,0-.67,2.11,3.25,3.25,0,0,0,.64,2A2,2,0,0,0,511.69,374.64Z"/><path class="cls-2" d="M32.72,357.05h483"/><path class="cls-3" d="M5.58,357.05h510.1"/><path class="cls-3" d="M5.58,307.91h510.1"/><path class="cls-3" d="M5.58,258.78h510.1"/><path class="cls-3" d="M5.58,209.65h510.1"/><path class="cls-3" d="M5.58,160.52h510.1"/><path class="cls-3" d="M5.58,111.38h510.1"/><line class="cls-4" x1="68.43" y1="151.78" x2="36.48" y2="151.78"/><line class="cls-4" x1="100.38" y1="153.56" x2="68.43" y2="153.56"/><line class="cls-4" x1="132.32" y1="142.2" x2="100.38" y2="142.2"/><line class="cls-4" x1="164.27" y1="160.52" x2="132.32" y2="160.52"/><line class="cls-4" x1="196.22" y1="155.66" x2="164.27" y2="155.66"/><line class="cls-4" x1="228.16" y1="152.58" x2="196.22" y2="152.58"/><line class="cls-4" x1="260.11" y1="150.57" x2="228.16" y2="150.57"/><line class="cls-4" x1="292.06" y1="137.02" x2="260.11" y2="137.02"/><line class="cls-4" x1="324" y1="145.37" x2="292.06" y2="145.37"/><line class="cls-4" x1="355.95" y1="199.94" x2="324" y2="199.94"/><line class="cls-4" x1="387.9" y1="203.76" x2="355.95" y2="203.76"/><line class="cls-4" x1="419.84" y1="201.11" x2="387.9" y2="201.11"/><line class="cls-4" x1="451.79" y1="182.53" x2="419.84" y2="182.53"/><line class="cls-4" x1="483.73" y1="189.9" x2="451.79" y2="189.9"/><line class="cls-4" x1="515.68" y1="224.85" x2="483.73" y2="224.85"/><path d="M8.21,417.17,6,416.45l.22-.67,2.22.82,0-2.47h.7L9,416.62l2.17-.85.22.67-2.23.77,1.49,2-.56.42-1.44-2-1.36,2-.57-.41Z"/><path d="M16.54,423.17h6v.69h-7v-.62l5.78-8.42h-5.6v-.69h6.62v.58Z"/><path d="M28.75,423.86a3.65,3.65,0,0,1-.15-1,2.82,2.82,0,0,1-1.08.85,3.23,3.23,0,0,1-1.38.3,2.46,2.46,0,0,1-1.69-.58,1.9,1.9,0,0,1-.64-1.48,1.93,1.93,0,0,1,.88-1.67,4.21,4.21,0,0,1,2.45-.61h1.45v-.83a1.6,1.6,0,0,0-.48-1.22,2,2,0,0,0-1.39-.44,2.18,2.18,0,0,0-1.39.43,1.26,1.26,0,0,0-.55,1H24a1.87,1.87,0,0,1,.8-1.49,3.08,3.08,0,0,1,2-.64,2.81,2.81,0,0,1,1.91.61,2.16,2.16,0,0,1,.71,1.69v3.42a4.37,4.37,0,0,0,.22,1.57v.08Zm-2.52-.57a2.68,2.68,0,0,0,1.44-.39,2.26,2.26,0,0,0,.92-1v-1.59H27.16a3.65,3.65,0,0,0-1.88.44,1.36,1.36,0,0,0-.22,2.18A1.68,1.68,0,0,0,26.23,423.29Z"/><path d="M34.86,417.31a3.1,3.1,0,0,0-.54-.05,2,2,0,0,0-1.27.42,2.34,2.34,0,0,0-.74,1.21v5h-.79v-7.23h.78v1.15a2.14,2.14,0,0,1,2-1.29,1.26,1.26,0,0,1,.53.09Z"/><path d="M36.08,414.54a.56.56,0,0,1,.15-.39.61.61,0,0,1,.8,0,.56.56,0,0,1,.15.39.55.55,0,1,1-1.1,0Zm.94,9.32h-.8v-7.23H37Z"/><path d="M43.77,423.86a3.58,3.58,0,0,1-.16-1,2.79,2.79,0,0,1-1.07.85,3.3,3.3,0,0,1-1.38.3,2.46,2.46,0,0,1-1.69-.58,1.91,1.91,0,0,1-.65-1.48,2,2,0,0,1,.88-1.67,4.25,4.25,0,0,1,2.45-.61h1.46v-.83a1.6,1.6,0,0,0-.48-1.22,2,2,0,0,0-1.4-.44,2.15,2.15,0,0,0-1.38.43,1.26,1.26,0,0,0-.55,1H39a1.84,1.84,0,0,1,.8-1.49,3,3,0,0,1,2-.64,2.77,2.77,0,0,1,1.91.61,2.13,2.13,0,0,1,.72,1.69v3.42a4.37,4.37,0,0,0,.22,1.57v.08Zm-2.52-.57a2.7,2.7,0,0,0,1.44-.39,2.32,2.32,0,0,0,.92-1v-1.59H42.17a3.64,3.64,0,0,0-1.87.44,1.36,1.36,0,0,0-.22,2.18A1.68,1.68,0,0,0,41.25,423.29Z"/><path d="M46.22,420.18a4.38,4.38,0,0,1,.75-2.69,2.43,2.43,0,0,1,2-1,2.54,2.54,0,0,1,2.24,1.16v-4.06H52v10.27h-.75l0-1A2.59,2.59,0,0,1,49,424a2.42,2.42,0,0,1-2-1,4.39,4.39,0,0,1-.76-2.72Zm.8.14a3.76,3.76,0,0,0,.56,2.18,1.78,1.78,0,0,0,1.57.8,2.16,2.16,0,0,0,2.1-1.3v-3.4a2.14,2.14,0,0,0-2.09-1.41,1.79,1.79,0,0,0-1.57.79A4,4,0,0,0,47,420.32Z"/><path d="M57,424a3.11,3.11,0,0,1-1.67-.46,3.07,3.07,0,0,1-1.16-1.26,4.07,4.07,0,0,1-.41-1.83v-.28a4.22,4.22,0,0,1,.4-1.88A3.25,3.25,0,0,1,55.24,417a2.76,2.76,0,0,1,1.56-.48,2.64,2.64,0,0,1,2.1.9,3.68,3.68,0,0,1,.77,2.46v.45H54.5v.15a3,3,0,0,0,.71,2.05,2.23,2.23,0,0,0,1.77.82,2.35,2.35,0,0,0,2-1l.5.38A2.91,2.91,0,0,1,57,424Zm-.15-6.82a2,2,0,0,0-1.52.66,3.06,3.06,0,0,0-.75,1.78h4.34v-.09a2.67,2.67,0,0,0-.59-1.7A1.85,1.85,0,0,0,56.8,417.18Z"/><path d="M62,416.63l0,1.23a3,3,0,0,1,1-1,2.72,2.72,0,0,1,1.35-.35,2.17,2.17,0,0,1,1.73.66,2.93,2.93,0,0,1,.57,2v4.74h-.79v-4.75a2.26,2.26,0,0,0-.41-1.45,1.64,1.64,0,0,0-1.3-.47,2,2,0,0,0-1.31.46,2.72,2.72,0,0,0-.85,1.26v4.95h-.79v-7.23Z"/><path d="M68.71,414.54a.55.55,0,0,1,.14-.39.54.54,0,0,1,.4-.15.52.52,0,0,1,.56.54.54.54,0,0,1-.15.38.56.56,0,0,1-.41.15.54.54,0,0,1-.4-.15A.53.53,0,0,1,68.71,414.54Zm.94,9.32h-.8v-7.23h.8Z"/><path d="M76.39,423.86a3.65,3.65,0,0,1-.15-1,2.75,2.75,0,0,1-1.08.85,3.23,3.23,0,0,1-1.38.3,2.48,2.48,0,0,1-1.69-.58,1.9,1.9,0,0,1-.64-1.48,1.93,1.93,0,0,1,.88-1.67,4.21,4.21,0,0,1,2.45-.61h1.45v-.83a1.6,1.6,0,0,0-.48-1.22,2,2,0,0,0-1.39-.44,2.18,2.18,0,0,0-1.39.43,1.28,1.28,0,0,0-.55,1h-.8a1.87,1.87,0,0,1,.8-1.49,3.08,3.08,0,0,1,2-.64,2.81,2.81,0,0,1,1.91.61,2.2,2.2,0,0,1,.72,1.69v3.42a4.15,4.15,0,0,0,.22,1.57v.08Zm-2.51-.57a2.67,2.67,0,0,0,1.43-.39,2.26,2.26,0,0,0,.92-1v-1.59H74.8a3.61,3.61,0,0,0-1.87.44,1.35,1.35,0,0,0-.23,2.18A1.69,1.69,0,0,0,73.88,423.29Z"/><path d="M83.22,416.63l0,1.17a2.64,2.64,0,0,1,2.34-1.31,2,2,0,0,1,2.17,1.41,2.73,2.73,0,0,1,1-1,2.8,2.8,0,0,1,1.43-.37c1.55,0,2.35.85,2.38,2.55v4.82H91.8v-4.77a2.14,2.14,0,0,0-.41-1.43,1.7,1.7,0,0,0-1.35-.47,2.08,2.08,0,0,0-1.45.56,2,2,0,0,0-.67,1.33v4.78h-.8V419a2,2,0,0,0-.44-1.39,1.72,1.72,0,0,0-1.33-.46,2,2,0,0,0-1.29.43,2.54,2.54,0,0,0-.8,1.28v5h-.81v-7.23Z"/><path d="M94.19,420.14a4.25,4.25,0,0,1,.41-1.88,3,3,0,0,1,2.82-1.77,3,3,0,0,1,2.34,1,3.92,3.92,0,0,1,.89,2.68v.17a4.29,4.29,0,0,1-.4,1.89,3,3,0,0,1-1.14,1.29,3.07,3.07,0,0,1-1.68.46,3,3,0,0,1-2.34-1,3.88,3.88,0,0,1-.9-2.68Zm.8.22a3.3,3.3,0,0,0,.68,2.13,2.12,2.12,0,0,0,1.76.83,2.15,2.15,0,0,0,1.76-.83,3.46,3.46,0,0,0,.67-2.2v-.15a3.79,3.79,0,0,0-.31-1.52,2.5,2.5,0,0,0-.86-1.07,2.23,2.23,0,0,0-1.27-.37,2.16,2.16,0,0,0-1.75.83,3.42,3.42,0,0,0-.68,2.2Z"/><path d="M103.1,417.85a2.76,2.76,0,0,1,1-1,2.62,2.62,0,0,1,1.35-.36,2.17,2.17,0,0,1,1.73.66,2.93,2.93,0,0,1,.57,2v4.74H107v-4.75a2.26,2.26,0,0,0-.41-1.45,1.64,1.64,0,0,0-1.3-.47,2,2,0,0,0-1.31.46,2.72,2.72,0,0,0-.85,1.26v4.95h-.79V413.59h.79Z"/><path d="M110.72,423.86h-.8V413.59h.8Z"/><path d="M112.85,414.54a.56.56,0,0,1,.15-.39.52.52,0,0,1,.4-.15.54.54,0,0,1,.4.15.56.56,0,0,1,.15.39.51.51,0,0,1-.55.53.52.52,0,0,1-.4-.15A.54.54,0,0,1,112.85,414.54Zm.94,9.32H113v-7.23h.8Z"/><path d="M123.63,422a1.14,1.14,0,0,0-.48-.95,3.77,3.77,0,0,0-1.44-.57,6.47,6.47,0,0,1-1.49-.46,2,2,0,0,1-.79-.65,1.61,1.61,0,0,1-.26-.92,1.73,1.73,0,0,1,.72-1.42,2.87,2.87,0,0,1,1.83-.56,3,3,0,0,1,1.94.6,1.91,1.91,0,0,1,.73,1.56h-.8a1.3,1.3,0,0,0-.53-1,2.08,2.08,0,0,0-1.34-.42,2.06,2.06,0,0,0-1.27.35,1.07,1.07,0,0,0-.48.91,1,1,0,0,0,.4.84,4.14,4.14,0,0,0,1.45.54,7.52,7.52,0,0,1,1.58.53,2,2,0,0,1,.78.68,1.86,1.86,0,0,1-.49,2.42,3.1,3.1,0,0,1-1.92.55,3.27,3.27,0,0,1-2-.61,1.88,1.88,0,0,1-.79-1.55h.8a1.39,1.39,0,0,0,.59,1.09,2.46,2.46,0,0,0,1.45.39,2.34,2.34,0,0,0,1.35-.36A1.12,1.12,0,0,0,123.63,422Z"/><path d="M128.49,422.76l2.2-6.13h.82l-2.7,7.23h-.65l-2.72-7.23h.83Z"/><path d="M132.28,420.14a4.25,4.25,0,0,1,.41-1.88,3,3,0,0,1,2.82-1.77,3,3,0,0,1,2.34,1,3.92,3.92,0,0,1,.89,2.68v.17a4.29,4.29,0,0,1-.4,1.89,3,3,0,0,1-1.14,1.29,3.07,3.07,0,0,1-1.68.46,3,3,0,0,1-2.34-1,3.88,3.88,0,0,1-.9-2.68Zm.8.22a3.3,3.3,0,0,0,.68,2.13,2.27,2.27,0,0,0,3.51,0,3.4,3.4,0,0,0,.68-2.2v-.15a3.79,3.79,0,0,0-.31-1.52,2.5,2.5,0,0,0-.86-1.07,2.23,2.23,0,0,0-1.27-.37,2.16,2.16,0,0,0-1.75.83,3.42,3.42,0,0,0-.68,2.2Z"/><path d="M141.26,416.63v8.1a2.19,2.19,0,0,1-.48,1.53,2.1,2.1,0,0,1-2.12.4V426a2.47,2.47,0,0,0,.6.08c.8,0,1.19-.45,1.19-1.37v-8.09Zm-.4-2.63a.54.54,0,0,1,.41.15.56.56,0,0,1,.15.39.54.54,0,0,1-.15.38.54.54,0,0,1-.41.15.5.5,0,0,1-.39-.15.54.54,0,0,1-.15-.38.56.56,0,0,1,.15-.39A.5.5,0,0,1,140.86,414Z"/><path d="M146.32,424a3.11,3.11,0,0,1-1.67-.46,3.14,3.14,0,0,1-1.16-1.26,4.07,4.07,0,0,1-.41-1.83v-.28a4.22,4.22,0,0,1,.4-1.88,3.25,3.25,0,0,1,1.13-1.32,2.77,2.77,0,0,1,1.57-.48,2.63,2.63,0,0,1,2.09.9,3.68,3.68,0,0,1,.77,2.46v.45h-5.17v.15a3,3,0,0,0,.71,2.05,2.23,2.23,0,0,0,1.78.82,2.57,2.57,0,0,0,1.13-.23,2.5,2.5,0,0,0,.89-.75l.5.38A2.91,2.91,0,0,1,146.32,424Zm-.14-6.82a2,2,0,0,0-1.53.66,3.06,3.06,0,0,0-.75,1.78h4.34v-.09a2.67,2.67,0,0,0-.59-1.7A1.84,1.84,0,0,0,146.18,417.18Z"/><path d="M156.73,424a3.11,3.11,0,0,1-1.67-.46,3.07,3.07,0,0,1-1.16-1.26,4.07,4.07,0,0,1-.41-1.83v-.28a4.22,4.22,0,0,1,.4-1.88A3.25,3.25,0,0,1,155,417a2.76,2.76,0,0,1,1.56-.48,2.64,2.64,0,0,1,2.1.9,3.68,3.68,0,0,1,.77,2.46v.45h-5.17v.15a3,3,0,0,0,.71,2.05,2.23,2.23,0,0,0,1.78.82,2.34,2.34,0,0,0,2-1l.5.38A2.91,2.91,0,0,1,156.73,424Zm-.15-6.82a2,2,0,0,0-1.52.66,3.06,3.06,0,0,0-.75,1.78h4.34v-.09a2.67,2.67,0,0,0-.59-1.7A1.85,1.85,0,0,0,156.58,417.18Z"/><path d="M161.73,416.63l0,1.17a2.67,2.67,0,0,1,2.34-1.31,2,2,0,0,1,2.18,1.41,2.71,2.71,0,0,1,1-1,2.83,2.83,0,0,1,1.44-.37q2.33,0,2.37,2.55v4.82h-.8v-4.77a2.2,2.2,0,0,0-.42-1.43,1.67,1.67,0,0,0-1.34-.47,2.11,2.11,0,0,0-1.46.56,1.92,1.92,0,0,0-.66,1.33v4.78h-.8V419a2,2,0,0,0-.44-1.39,1.73,1.73,0,0,0-1.33-.46,2,2,0,0,0-1.3.43,2.54,2.54,0,0,0-.8,1.28v5H161v-7.23Z"/><path d="M173.1,414.54a.56.56,0,0,1,.15-.39.61.61,0,0,1,.8,0,.56.56,0,0,1,.15.39.55.55,0,1,1-1.1,0Zm.94,9.32h-.8v-7.23h.8Z"/><path d="M180.55,422a1.14,1.14,0,0,0-.48-.95,3.71,3.71,0,0,0-1.44-.57,6.47,6.47,0,0,1-1.49-.46,2,2,0,0,1-.79-.65,1.61,1.61,0,0,1-.26-.92,1.73,1.73,0,0,1,.72-1.42,2.89,2.89,0,0,1,1.83-.56,3,3,0,0,1,1.94.6,1.91,1.91,0,0,1,.73,1.56h-.8a1.27,1.27,0,0,0-.53-1,2.08,2.08,0,0,0-1.34-.42,2.06,2.06,0,0,0-1.27.35,1.07,1.07,0,0,0-.48.91,1,1,0,0,0,.4.84,4.14,4.14,0,0,0,1.45.54,7.32,7.32,0,0,1,1.58.53,2,2,0,0,1,.78.68,1.7,1.7,0,0,1,.25,1,1.74,1.74,0,0,1-.73,1.47,3.15,3.15,0,0,1-1.93.55,3.27,3.27,0,0,1-2.05-.61,1.88,1.88,0,0,1-.79-1.55h.8a1.39,1.39,0,0,0,.59,1.09,2.46,2.46,0,0,0,1.45.39A2.34,2.34,0,0,0,180,423,1.12,1.12,0,0,0,180.55,422Z"/><path d="M183.11,414.54a.6.6,0,0,1,.14-.39.56.56,0,0,1,.41-.15.54.54,0,0,1,.4.15.56.56,0,0,1,.15.39.51.51,0,0,1-.55.53.56.56,0,0,1-.41-.15A.57.57,0,0,1,183.11,414.54Zm.94,9.32h-.8v-7.23h.8Z"/><path d="M189,424a3.09,3.09,0,0,1-1.67-.46,3,3,0,0,1-1.16-1.26,4,4,0,0,1-.42-1.83v-.28a4.22,4.22,0,0,1,.41-1.88,3.23,3.23,0,0,1,1.12-1.32,2.81,2.81,0,0,1,1.57-.48,2.6,2.6,0,0,1,2.09.9,3.63,3.63,0,0,1,.77,2.46v.45h-5.16v.15a3,3,0,0,0,.7,2.05,2.26,2.26,0,0,0,1.78.82,2.51,2.51,0,0,0,1.13-.23,2.62,2.62,0,0,0,.9-.75l.5.38A2.92,2.92,0,0,1,189,424Zm-.15-6.82a2,2,0,0,0-1.52.66,3,3,0,0,0-.75,1.78H191v-.09a2.62,2.62,0,0,0-.6-1.7A1.82,1.82,0,0,0,188.88,417.18Z"/><path d="M202.45,420.32a4.38,4.38,0,0,1-.75,2.69,2.38,2.38,0,0,1-2,1,2.71,2.71,0,0,1-2.28-1v3.69h-.79v-10h.74l0,1a2.58,2.58,0,0,1,2.27-1.16,2.39,2.39,0,0,1,2,1,4.39,4.39,0,0,1,.74,2.73Zm-.8-.14a3.74,3.74,0,0,0-.57-2.19,1.84,1.84,0,0,0-1.58-.8,2.1,2.1,0,0,0-2.08,1.38v3.48a2.14,2.14,0,0,0,.83.95,2.41,2.41,0,0,0,1.26.32,1.84,1.84,0,0,0,1.58-.8A4.13,4.13,0,0,0,201.65,420.18Z"/><path d="M203.78,420.14a4.25,4.25,0,0,1,.41-1.88,3.08,3.08,0,0,1,1.14-1.3,3.13,3.13,0,0,1,1.68-.47,3,3,0,0,1,2.34,1,3.88,3.88,0,0,1,.9,2.68v.17a4.3,4.3,0,0,1-.41,1.89,3,3,0,0,1-1.14,1.29A3.07,3.07,0,0,1,207,424a2.94,2.94,0,0,1-2.33-1,3.88,3.88,0,0,1-.91-2.68Zm.81.22a3.29,3.29,0,0,0,.67,2.13,2.28,2.28,0,0,0,3.52,0,3.4,3.4,0,0,0,.67-2.2v-.15a3.63,3.63,0,0,0-.31-1.52,2.43,2.43,0,0,0-.86-1.07,2.2,2.2,0,0,0-1.27-.37,2.17,2.17,0,0,0-1.75.83,3.42,3.42,0,0,0-.67,2.2Z"/><path d="M213.62,420.22l-.92.88v2.76h-.8V413.59h.8v6.58l.76-.82,2.77-2.72h1l-3.07,3.05,3.34,4.18h-1Z"/><path d="M222,417.31a3.1,3.1,0,0,0-.54-.05,2,2,0,0,0-1.27.42,2.34,2.34,0,0,0-.74,1.21v5h-.79v-7.23h.78v1.15a2.14,2.14,0,0,1,2-1.29,1.26,1.26,0,0,1,.53.09Z"/><path d="M225.63,422.71l2.12-6.08h.86l-3.09,8.47-.16.37a2,2,0,0,1-1.84,1.32,2.05,2.05,0,0,1-.62-.1V426l.41,0a1.49,1.49,0,0,0,.95-.29,2.15,2.15,0,0,0,.62-1l.36-1-2.73-7.17h.88Z"/><path d="M231.09,414.77v1.86h1.5v.65h-1.5v4.83a1.49,1.49,0,0,0,.22.9.84.84,0,0,0,.72.29,5.46,5.46,0,0,0,.65-.06l0,.65a2.81,2.81,0,0,1-.86.11,1.43,1.43,0,0,1-1.2-.48,2.26,2.26,0,0,1-.37-1.41v-4.83H229v-.65h1.33v-1.86Zm1.36.74-.48-.35a2.55,2.55,0,0,0,.49-1.4v-.65h.77v.43A2.5,2.5,0,0,1,232.45,415.51Z"/><path d="M239.09,414.77v1.86h1.5v.65h-1.5v4.83a1.49,1.49,0,0,0,.22.9.86.86,0,0,0,.73.29,5.34,5.34,0,0,0,.64-.06l0,.65a2.81,2.81,0,0,1-.86.11,1.43,1.43,0,0,1-1.2-.48,2.26,2.26,0,0,1-.37-1.41v-4.83H237v-.65h1.33v-1.86Z"/><path d="M242.2,414.54a.56.56,0,0,1,.15-.39.54.54,0,0,1,.4-.15.52.52,0,0,1,.56.54.54.54,0,0,1-.15.38.56.56,0,0,1-.41.15.51.51,0,0,1-.55-.53Zm1,9.32h-.81v-7.23h.81Z"/><path d="M248.12,424a3.11,3.11,0,0,1-1.67-.46,3.14,3.14,0,0,1-1.16-1.26,4.07,4.07,0,0,1-.41-1.83v-.28a4.22,4.22,0,0,1,.4-1.88,3.25,3.25,0,0,1,1.13-1.32,2.77,2.77,0,0,1,1.57-.48,2.63,2.63,0,0,1,2.09.9,3.68,3.68,0,0,1,.77,2.46v.45h-5.17v.15a3,3,0,0,0,.71,2.05,2.23,2.23,0,0,0,1.78.82,2.57,2.57,0,0,0,1.13-.23,2.5,2.5,0,0,0,.89-.75l.5.38A2.91,2.91,0,0,1,248.12,424Zm-.14-6.82a2,2,0,0,0-1.53.66,3.06,3.06,0,0,0-.75,1.78H250v-.09a2.67,2.67,0,0,0-.59-1.7A1.84,1.84,0,0,0,248,417.18Z"/><path d="M252.93,423.19h4.7v.67h-5.69v-.58l4.38-6h-4.25v-.69h5.26v.6Zm1.84-8.22,1.15-1.29h.72v.08l-1.58,1.74h-.58l-1.58-1.75v-.07h.72Z"/><path d="M263.12,416.63l0,1.17a2.68,2.68,0,0,1,1-1,2.74,2.74,0,0,1,1.34-.33,2,2,0,0,1,2.17,1.41,2.73,2.73,0,0,1,1-1,2.8,2.8,0,0,1,1.43-.37c1.55,0,2.34.85,2.38,2.55v4.82h-.81v-4.77a2.09,2.09,0,0,0-.42-1.43,1.67,1.67,0,0,0-1.34-.47,2.13,2.13,0,0,0-1.46.56,2,2,0,0,0-.66,1.33v4.78H267V419a2,2,0,0,0-.44-1.39,1.73,1.73,0,0,0-1.33-.46,2,2,0,0,0-1.29.43,2.62,2.62,0,0,0-.81,1.28v5h-.8v-7.23Z"/><path d="M277.34,424a3.06,3.06,0,0,1-1.67-.46,3,3,0,0,1-1.16-1.26,4,4,0,0,1-.42-1.83v-.28a4.22,4.22,0,0,1,.41-1.88,3.23,3.23,0,0,1,1.12-1.32,2.79,2.79,0,0,1,1.57-.48,2.62,2.62,0,0,1,2.09.9,3.68,3.68,0,0,1,.77,2.46v.45h-5.16v.15a3,3,0,0,0,.7,2.05,2.23,2.23,0,0,0,1.78.82,2.54,2.54,0,0,0,1.13-.23,2.62,2.62,0,0,0,.9-.75l.5.38A2.94,2.94,0,0,1,277.34,424Zm-.15-6.82a2,2,0,0,0-1.52.66,3,3,0,0,0-.76,1.78h4.35v-.09a2.73,2.73,0,0,0-.6-1.7A1.84,1.84,0,0,0,277.19,417.18Z"/><path d="M282.14,423.19h4.7v.67h-5.69v-.58l4.39-6h-4.26v-.69h5.27v.6Z"/><path d="M288.23,414.54a.55.55,0,0,1,.14-.39.54.54,0,0,1,.4-.15.52.52,0,0,1,.56.54.54.54,0,0,1-.15.38.56.56,0,0,1-.41.15.54.54,0,0,1-.4-.15A.53.53,0,0,1,288.23,414.54Zm.94,9.32h-.8v-7.23h.8Z"/><path d="M292.11,416.63l0,1.23a2.93,2.93,0,0,1,1-1,2.68,2.68,0,0,1,1.34-.35,2.18,2.18,0,0,1,1.74.66,3,3,0,0,1,.57,2v4.74H296v-4.75a2.26,2.26,0,0,0-.42-1.45,1.63,1.63,0,0,0-1.29-.47,2,2,0,0,0-1.32.46,2.7,2.7,0,0,0-.84,1.26v4.95h-.8v-7.23Z"/><path d="M303.44,423.86a4,4,0,0,1-.16-1,2.79,2.79,0,0,1-1.07.85,3.3,3.3,0,0,1-1.38.3,2.46,2.46,0,0,1-1.69-.58,1.91,1.91,0,0,1-.65-1.48,2,2,0,0,1,.88-1.67,4.25,4.25,0,0,1,2.45-.61h1.46v-.83a1.6,1.6,0,0,0-.48-1.22,2,2,0,0,0-1.4-.44,2.15,2.15,0,0,0-1.38.43,1.26,1.26,0,0,0-.55,1h-.8a1.87,1.87,0,0,1,.8-1.49,3,3,0,0,1,2-.64,2.77,2.77,0,0,1,1.91.61,2.13,2.13,0,0,1,.72,1.69v3.42a4.37,4.37,0,0,0,.22,1.57v.08Zm-2.52-.57a2.68,2.68,0,0,0,1.44-.39,2.32,2.32,0,0,0,.92-1v-1.59h-1.43a3.65,3.65,0,0,0-1.88.44,1.36,1.36,0,0,0-.22,2.18A1.68,1.68,0,0,0,300.92,423.29Zm1.58-9.7h1l-1.54,1.87h-.71Z"/><path d="M309.55,417.31a3.1,3.1,0,0,0-.54-.05,2,2,0,0,0-1.27.42,2.34,2.34,0,0,0-.74,1.21v5h-.79v-7.23H307v1.15a2.14,2.14,0,0,1,2-1.29,1.26,1.26,0,0,1,.53.09Z"/><path d="M310.24,420.14a4.25,4.25,0,0,1,.41-1.88,3,3,0,0,1,1.14-1.3,3.07,3.07,0,0,1,1.67-.47,3,3,0,0,1,2.35,1,3.92,3.92,0,0,1,.89,2.68v.17a4.29,4.29,0,0,1-.4,1.89,3,3,0,0,1-1.14,1.29,3.07,3.07,0,0,1-1.68.46,3,3,0,0,1-2.34-1,3.88,3.88,0,0,1-.9-2.68Zm.8.22a3.3,3.3,0,0,0,.68,2.13,2.27,2.27,0,0,0,3.51,0,3.4,3.4,0,0,0,.68-2.2v-.15a3.79,3.79,0,0,0-.31-1.52,2.5,2.5,0,0,0-.86-1.07,2.24,2.24,0,0,0-1.28-.37,2.15,2.15,0,0,0-1.74.83,3.42,3.42,0,0,0-.68,2.2Z"/><path d="M318,420.18a4.32,4.32,0,0,1,.76-2.69,2.43,2.43,0,0,1,2-1,2.51,2.51,0,0,1,2.23,1.16v-4.06h.8v10.27h-.75l0-1a2.6,2.6,0,0,1-2.26,1.1,2.42,2.42,0,0,1-2-1,4.39,4.39,0,0,1-.77-2.72Zm.81.14a3.76,3.76,0,0,0,.56,2.18,1.78,1.78,0,0,0,1.56.8,2.14,2.14,0,0,0,2.1-1.3v-3.4a2.13,2.13,0,0,0-2.08-1.41,1.82,1.82,0,0,0-1.58.79A4.08,4.08,0,0,0,318.84,420.32Z"/><path d="M326.73,416.63l0,1.23a3,3,0,0,1,1-1,2.72,2.72,0,0,1,1.35-.35,2.15,2.15,0,0,1,1.73.66,3,3,0,0,1,.58,2v4.74h-.8v-4.75a2.2,2.2,0,0,0-.41-1.45,1.64,1.64,0,0,0-1.3-.47,2,2,0,0,0-1.31.46,2.79,2.79,0,0,0-.85,1.26v4.95H326v-7.23Z"/><path d="M335.79,422.71l2.11-6.08h.86l-3.09,8.47-.16.37a1.94,1.94,0,0,1-1.84,1.32,2,2,0,0,1-.61-.1V426l.42,0a1.49,1.49,0,0,0,.95-.29,2.23,2.23,0,0,0,.62-1l.35-1-2.73-7.17h.88Zm.89-9.12h1l-1.54,1.87h-.7Z"/><path d="M340.73,416.63l0,1.17a2.64,2.64,0,0,1,2.34-1.31,2,2,0,0,1,2.17,1.41,2.73,2.73,0,0,1,1-1,2.8,2.8,0,0,1,1.43-.37c1.55,0,2.35.85,2.38,2.55v4.82h-.81v-4.77a2.14,2.14,0,0,0-.41-1.43,1.7,1.7,0,0,0-1.35-.47,2.08,2.08,0,0,0-1.45.56,2,2,0,0,0-.67,1.33v4.78h-.8V419a2,2,0,0,0-.44-1.39,1.72,1.72,0,0,0-1.33-.46,2,2,0,0,0-1.29.43,2.54,2.54,0,0,0-.8,1.28v5H340v-7.23Z"/><path d="M352.1,414.54a.6.6,0,0,1,.14-.39.56.56,0,0,1,.41-.15.55.55,0,0,1,.4.15.56.56,0,0,1,.15.39.54.54,0,0,1-.15.38.55.55,0,0,1-.4.15.56.56,0,0,1-.41-.15A.57.57,0,0,1,352.1,414.54Zm.94,9.32h-.8v-7.23h.8Z"/><path d="M360.26,420.22l-.91.88v2.76h-.8V413.59h.8v6.58l.75-.82,2.77-2.72h1l-3.07,3.05,3.34,4.18h-1Z"/><path d="M368.6,417.31a3.1,3.1,0,0,0-.54-.05,2,2,0,0,0-1.27.42,2.28,2.28,0,0,0-.74,1.21v5h-.79v-7.23H366v1.15a2.13,2.13,0,0,1,2-1.29,1.3,1.3,0,0,1,.53.09Z"/><path d="M372.54,424a3.13,3.13,0,0,1-2.83-1.72,4,4,0,0,1-.42-1.83v-.28a4.22,4.22,0,0,1,.41-1.88,3.25,3.25,0,0,1,1.13-1.32,2.76,2.76,0,0,1,1.56-.48,2.6,2.6,0,0,1,2.09.9,3.63,3.63,0,0,1,.78,2.46v.45h-5.17v.15a3,3,0,0,0,.71,2.05,2.23,2.23,0,0,0,1.77.82,2.35,2.35,0,0,0,2-1l.5.38A2.92,2.92,0,0,1,372.54,424Zm-.15-6.82a2,2,0,0,0-1.52.66,3.06,3.06,0,0,0-.75,1.78h4.34v-.09a2.62,2.62,0,0,0-.6-1.7A1.82,1.82,0,0,0,372.39,417.18Z"/><path d="M376.49,420.18a4.32,4.32,0,0,1,.76-2.69,2.43,2.43,0,0,1,2-1,2.51,2.51,0,0,1,2.23,1.16v-4.06h.8v10.27h-.75l0-1a2.6,2.6,0,0,1-2.26,1.1,2.42,2.42,0,0,1-2-1,4.39,4.39,0,0,1-.77-2.72Zm.81.14a3.76,3.76,0,0,0,.56,2.18,1.78,1.78,0,0,0,1.56.8,2.14,2.14,0,0,0,2.1-1.3v-3.4a2.13,2.13,0,0,0-2.08-1.41,1.79,1.79,0,0,0-1.57.79A4,4,0,0,0,377.3,420.32Z"/><path d="M384.38,414.54a.56.56,0,0,1,.15-.39.52.52,0,0,1,.4-.15.54.54,0,0,1,.4.15.56.56,0,0,1,.15.39.51.51,0,0,1-.55.53.52.52,0,0,1-.4-.15A.54.54,0,0,1,384.38,414.54Zm.94,9.32h-.8v-7.23h.8Z"/><path d="M388.74,414.77v1.86h1.5v.65h-1.5v4.83a1.49,1.49,0,0,0,.22.9.86.86,0,0,0,.73.29,5.34,5.34,0,0,0,.64-.06l0,.65a2.81,2.81,0,0,1-.86.11,1.43,1.43,0,0,1-1.2-.48,2.26,2.26,0,0,1-.37-1.41v-4.83h-1.33v-.65h1.33v-1.86Z"/><path d="M392.63,416.63l0,1.17a2.78,2.78,0,0,1,1-1,2.74,2.74,0,0,1,1.34-.33,2,2,0,0,1,2.17,1.41,2.67,2.67,0,0,1,1-1,2.8,2.8,0,0,1,1.43-.37q2.33,0,2.37,2.55v4.82h-.8v-4.77a2.09,2.09,0,0,0-.42-1.43,1.67,1.67,0,0,0-1.34-.47,2.13,2.13,0,0,0-1.46.56,2,2,0,0,0-.66,1.33v4.78h-.8V419a2,2,0,0,0-.44-1.39,1.73,1.73,0,0,0-1.33-.46,2,2,0,0,0-1.3.43,2.61,2.61,0,0,0-.8,1.28v5h-.8v-7.23Z"/><path d="M404,414.54a.56.56,0,0,1,.15-.39.54.54,0,0,1,.4-.15.52.52,0,0,1,.56.54.54.54,0,0,1-.15.38.56.56,0,0,1-.41.15.51.51,0,0,1-.55-.53Zm.95,9.32h-.81v-7.23h.81Z"/><path d="M416.26,420.32a4.38,4.38,0,0,1-.75,2.69,2.39,2.39,0,0,1-2,1,2.71,2.71,0,0,1-2.28-1v3.69h-.79v-10h.74l0,1a2.57,2.57,0,0,1,2.26-1.16,2.4,2.4,0,0,1,2,1,4.39,4.39,0,0,1,.74,2.73Zm-.8-.14a3.74,3.74,0,0,0-.57-2.19,1.85,1.85,0,0,0-1.59-.8,2.25,2.25,0,0,0-1.26.35,2.28,2.28,0,0,0-.81,1v3.48a2.19,2.19,0,0,0,.82.95,2.47,2.47,0,0,0,1.27.32,1.81,1.81,0,0,0,1.57-.8A4,4,0,0,0,415.46,420.18Z"/><path d="M417.59,420.14a4.25,4.25,0,0,1,.41-1.88,3,3,0,0,1,2.82-1.77,3,3,0,0,1,2.34,1,3.87,3.87,0,0,1,.89,2.68v.17a4.29,4.29,0,0,1-.4,1.89,3,3,0,0,1-1.14,1.29,3.07,3.07,0,0,1-1.68.46,3,3,0,0,1-2.34-1,3.88,3.88,0,0,1-.9-2.68Zm.8.22a3.3,3.3,0,0,0,.68,2.13,2.28,2.28,0,0,0,3.52,0,3.4,3.4,0,0,0,.67-2.2v-.15a3.63,3.63,0,0,0-.31-1.52,2.43,2.43,0,0,0-.86-1.07,2.23,2.23,0,0,0-1.27-.37,2.16,2.16,0,0,0-1.75.83,3.42,3.42,0,0,0-.68,2.2Z"/><path d="M425.39,420.18a4.38,4.38,0,0,1,.75-2.69,2.43,2.43,0,0,1,2-1,2.54,2.54,0,0,1,2.24,1.16v-4.06h.79v10.27h-.75l0-1a2.59,2.59,0,0,1-2.26,1.1,2.42,2.42,0,0,1-2-1,4.39,4.39,0,0,1-.76-2.72Zm.81.14a3.76,3.76,0,0,0,.55,2.18,1.78,1.78,0,0,0,1.57.8,2.16,2.16,0,0,0,2.1-1.3v-3.4a2.14,2.14,0,0,0-2.09-1.41,1.81,1.81,0,0,0-1.57.79A4,4,0,0,0,426.2,420.32Z"/><path d="M434.22,423.86h-.81V413.59h.81ZM435.5,416l-.47-.35a2.65,2.65,0,0,0,.48-1.41v-.64h.77V414A2.52,2.52,0,0,1,435.5,416Z"/><path d="M442,423.86a3.65,3.65,0,0,1-.15-1,2.75,2.75,0,0,1-1.08.85,3.23,3.23,0,0,1-1.38.3,2.49,2.49,0,0,1-1.69-.58,1.9,1.9,0,0,1-.64-1.48,1.93,1.93,0,0,1,.88-1.67,4.21,4.21,0,0,1,2.45-.61h1.45v-.83a1.6,1.6,0,0,0-.48-1.22,2,2,0,0,0-1.39-.44,2.18,2.18,0,0,0-1.39.43,1.27,1.27,0,0,0-.54,1h-.81a1.85,1.85,0,0,1,.81-1.49,3,3,0,0,1,2-.64,2.79,2.79,0,0,1,1.91.61,2.17,2.17,0,0,1,.72,1.69v3.42a4.15,4.15,0,0,0,.22,1.57v.08Zm-2.51-.57a2.67,2.67,0,0,0,1.43-.39,2.26,2.26,0,0,0,.92-1v-1.59h-1.43a3.61,3.61,0,0,0-1.87.44,1.35,1.35,0,0,0-.23,2.18A1.69,1.69,0,0,0,439.45,423.29Z"/><path d="M450.45,419l-1.38,1.35v3.48h-.82v-9.73h.82v5.25l5-5.25h1L451,418.46l4.4,5.4h-1Z"/><path d="M457.57,416.63v8.1a2.19,2.19,0,0,1-.48,1.53,2.1,2.1,0,0,1-2.12.4V426a2.47,2.47,0,0,0,.6.08c.8,0,1.19-.45,1.19-1.37v-8.09Zm-.4-2.63a.54.54,0,0,1,.41.15.56.56,0,0,1,.15.39.54.54,0,0,1-.15.38.54.54,0,0,1-.41.15.5.5,0,0,1-.39-.15.54.54,0,0,1-.15-.38.56.56,0,0,1,.15-.39A.5.5,0,0,1,457.17,414Z"/><path d="M459.39,420.14a4.25,4.25,0,0,1,.4-1.88,3.1,3.1,0,0,1,1.15-1.3,3.07,3.07,0,0,1,1.67-.47,3,3,0,0,1,2.35,1,3.92,3.92,0,0,1,.89,2.68v.17a4.44,4.44,0,0,1-.4,1.89,3,3,0,0,1-1.15,1.29,3,3,0,0,1-1.67.46,3,3,0,0,1-2.34-1,3.88,3.88,0,0,1-.9-2.68Zm.8.22a3.35,3.35,0,0,0,.67,2.13,2.15,2.15,0,0,0,1.77.83,2.13,2.13,0,0,0,1.75-.83,3.4,3.4,0,0,0,.67-2.2v-.15a3.78,3.78,0,0,0-.3-1.52,2.52,2.52,0,0,0-.87-1.07,2.2,2.2,0,0,0-1.27-.37,2.15,2.15,0,0,0-1.74.83,3.42,3.42,0,0,0-.68,2.2Zm3.22-6.77h1l-1.55,1.87h-.7Z"/><path d="M468.75,414.77v1.86h1.5v.65h-1.5v4.83a1.57,1.57,0,0,0,.21.9.87.87,0,0,0,.73.29,5.64,5.64,0,0,0,.65-.06l0,.65a2.74,2.74,0,0,1-.85.11,1.43,1.43,0,0,1-1.2-.48,2.26,2.26,0,0,1-.37-1.41v-4.83h-1.34v-.65H468v-1.86Z"/><path d="M476.24,422a1.14,1.14,0,0,0-.48-.95,3.77,3.77,0,0,0-1.44-.57,6.74,6.74,0,0,1-1.5-.46,2.06,2.06,0,0,1-.78-.65,1.54,1.54,0,0,1-.26-.92,1.74,1.74,0,0,1,.71-1.42,2.92,2.92,0,0,1,1.84-.56,3,3,0,0,1,1.94.6,1.91,1.91,0,0,1,.73,1.56h-.8a1.3,1.3,0,0,0-.53-1,2.1,2.1,0,0,0-1.34-.42,2.06,2.06,0,0,0-1.27.35,1.07,1.07,0,0,0-.48.91,1,1,0,0,0,.4.84,4.06,4.06,0,0,0,1.45.54,7.52,7.52,0,0,1,1.58.53,2,2,0,0,1,.78.68,1.7,1.7,0,0,1,.25,1,1.74,1.74,0,0,1-.74,1.47,3.11,3.11,0,0,1-1.93.55,3.31,3.31,0,0,1-2.05-.61,1.9,1.9,0,0,1-.78-1.55h.8a1.39,1.39,0,0,0,.59,1.09,2.43,2.43,0,0,0,1.44.39,2.29,2.29,0,0,0,1.35-.36A1.11,1.11,0,0,0,476.24,422Z"/><path d="M480.56,420.22l-.92.88v2.76h-.8V413.59h.8v6.58l.76-.82,2.77-2.72h1l-3.07,3.05,3.34,4.18h-1Z"/><path d="M488.22,424a3.11,3.11,0,0,1-1.67-.46,3.07,3.07,0,0,1-1.16-1.26,4,4,0,0,1-.42-1.83v-.28a4.22,4.22,0,0,1,.41-1.88,3.25,3.25,0,0,1,1.13-1.32,2.76,2.76,0,0,1,1.56-.48,2.6,2.6,0,0,1,2.09.9,3.63,3.63,0,0,1,.78,2.46v.45h-5.17v.15a3,3,0,0,0,.71,2.05,2.23,2.23,0,0,0,1.77.82,2.58,2.58,0,0,0,1.14-.23,2.68,2.68,0,0,0,.89-.75l.5.38A2.92,2.92,0,0,1,488.22,424Zm-.15-6.82a2,2,0,0,0-1.52.66,3.06,3.06,0,0,0-.75,1.78h4.34v-.09a2.62,2.62,0,0,0-.6-1.7A1.82,1.82,0,0,0,488.07,417.18Zm.89-3.59h1l-1.54,1.87h-.7Z"/><path d="M493.29,417.85a2.76,2.76,0,0,1,1-1,2.62,2.62,0,0,1,1.35-.36,2.17,2.17,0,0,1,1.73.66,2.93,2.93,0,0,1,.57,2v4.74h-.79v-4.75a2.26,2.26,0,0,0-.41-1.45,1.65,1.65,0,0,0-1.3-.47,2,2,0,0,0-1.31.46,2.72,2.72,0,0,0-.85,1.26v4.95h-.79V413.59h.79Z"/><path d="M499.57,420.14a4.25,4.25,0,0,1,.41-1.88,3,3,0,0,1,2.82-1.77,3,3,0,0,1,2.34,1,3.88,3.88,0,0,1,.9,2.68v.17a4.3,4.3,0,0,1-.41,1.89,3,3,0,0,1-1.14,1.29,3.07,3.07,0,0,1-1.68.46,3,3,0,0,1-2.34-1,3.88,3.88,0,0,1-.9-2.68Zm.81.22a3.29,3.29,0,0,0,.67,2.13,2.28,2.28,0,0,0,3.52,0,3.46,3.46,0,0,0,.67-2.2v-.15a3.79,3.79,0,0,0-.31-1.52,2.5,2.5,0,0,0-.86-1.07,2.23,2.23,0,0,0-1.27-.37,2.16,2.16,0,0,0-1.75.83,3.42,3.42,0,0,0-.67,2.2Z"/><path d="M21.43,436.76a4.38,4.38,0,0,1-.75,2.69,2.39,2.39,0,0,1-2,1,2.66,2.66,0,0,1-2.27-1.05v3.7h-.8v-10h.74l0,1a2.59,2.59,0,0,1,2.27-1.16,2.4,2.4,0,0,1,2,1,4.45,4.45,0,0,1,.74,2.73Zm-.8-.14a3.74,3.74,0,0,0-.57-2.19,1.85,1.85,0,0,0-1.59-.8,2.25,2.25,0,0,0-1.26.35,2.22,2.22,0,0,0-.81,1v3.48a2,2,0,0,0,.82.94,2.37,2.37,0,0,0,1.26.33,1.83,1.83,0,0,0,1.58-.8A4,4,0,0,0,20.63,436.62Z"/><path d="M26.55,433.75a3.12,3.12,0,0,0-.55-.05,1.92,1.92,0,0,0-1.26.42,2.22,2.22,0,0,0-.74,1.21v5h-.8v-7.23H24l0,1.15a2.12,2.12,0,0,1,2-1.29,1.3,1.3,0,0,1,.53.09Z"/><path d="M27.23,436.58a4.25,4.25,0,0,1,.41-1.88,3,3,0,0,1,2.82-1.77,3,3,0,0,1,2.34,1,3.88,3.88,0,0,1,.9,2.68v.17a4.3,4.3,0,0,1-.41,1.89A3,3,0,0,1,32.15,440a3.07,3.07,0,0,1-1.68.46,3,3,0,0,1-2.34-1,3.92,3.92,0,0,1-.9-2.69Zm.81.22a3.27,3.27,0,0,0,.67,2.13,2.28,2.28,0,0,0,3.52,0,3.38,3.38,0,0,0,.67-2.2v-.15a3.63,3.63,0,0,0-.31-1.52,2.48,2.48,0,0,0-.86-1.07,2.2,2.2,0,0,0-1.27-.37,2.13,2.13,0,0,0-1.75.83,3.42,3.42,0,0,0-.67,2.2Z"/><path d="M36.59,431.21v1.86h1.5v.65h-1.5v4.83a1.57,1.57,0,0,0,.22.9.87.87,0,0,0,.73.29,5.64,5.64,0,0,0,.65-.06l0,.65a2.81,2.81,0,0,1-.86.11,1.43,1.43,0,0,1-1.2-.48,2.26,2.26,0,0,1-.37-1.41v-4.83H34.46v-.65h1.33v-1.86Z"/><path d="M39.18,436.58a4.25,4.25,0,0,1,.4-1.88,3.08,3.08,0,0,1,1.14-1.3,3.13,3.13,0,0,1,1.68-.47,3,3,0,0,1,2.34,1,3.88,3.88,0,0,1,.9,2.68v.17a4.3,4.3,0,0,1-.41,1.89A3,3,0,0,1,44.09,440a3.07,3.07,0,0,1-1.68.46,3,3,0,0,1-2.33-1,3.92,3.92,0,0,1-.9-2.69Zm.8.22a3.27,3.27,0,0,0,.67,2.13,2.28,2.28,0,0,0,3.52,0,3.38,3.38,0,0,0,.67-2.2v-.15a3.63,3.63,0,0,0-.31-1.52,2.48,2.48,0,0,0-.86-1.07,2.2,2.2,0,0,0-1.27-.37,2.14,2.14,0,0,0-1.75.83,3.42,3.42,0,0,0-.67,2.2Z"/><path d="M49,436.66l-.92.88v2.76h-.8V430h.8v6.58l.76-.82,2.77-2.72h1l-3.07,3.05,3.34,4.18h-1Z"/><path d="M53.56,436.58a4.25,4.25,0,0,1,.4-1.88,3,3,0,0,1,1.15-1.3,3.07,3.07,0,0,1,1.67-.47,3,3,0,0,1,2.34,1,3.88,3.88,0,0,1,.9,2.68v.17a4.3,4.3,0,0,1-.41,1.89A2.87,2.87,0,0,1,58.47,440a3.06,3.06,0,0,1-1.67.46,3,3,0,0,1-2.34-1,3.92,3.92,0,0,1-.9-2.69Zm.8.22a3.27,3.27,0,0,0,.67,2.13,2.15,2.15,0,0,0,1.77.83,2.13,2.13,0,0,0,1.75-.83,3.38,3.38,0,0,0,.67-2.2v-.15a3.78,3.78,0,0,0-.3-1.52,2.58,2.58,0,0,0-.87-1.07,2.2,2.2,0,0,0-1.27-.37,2.12,2.12,0,0,0-1.74.83,3.42,3.42,0,0,0-.68,2.2Z"/><path d="M62.57,440.3h-.8V430h.8Z"/><path d="M69.4,439.39a2.6,2.6,0,0,1-2.31,1.05,2.27,2.27,0,0,1-1.76-.67,2.92,2.92,0,0,1-.61-2v-4.71h.79v4.61c0,1.37.56,2.06,1.67,2.06a2,2,0,0,0,2.2-1.44v-5.23h.81v7.23h-.78Z"/><path d="M72.1,442.12l-.47-.34a2.94,2.94,0,0,0,.62-1.7v-1H73v.83A2.85,2.85,0,0,1,72.1,442.12Z"/><path d="M79.94,436.66l-.92.88v2.76h-.8V430H79v6.58l.76-.82,2.77-2.72h1l-3.07,3.05,3.34,4.18h-1Z"/><path d="M86.18,431.21v1.86h1.49v.65H86.18v4.83a1.57,1.57,0,0,0,.21.9.87.87,0,0,0,.73.29,5.64,5.64,0,0,0,.65-.06l0,.65a2.76,2.76,0,0,1-.86.11,1.42,1.42,0,0,1-1.19-.48,2.26,2.26,0,0,1-.38-1.41v-4.83H84v-.65h1.33v-1.86Z"/><path d="M88.76,436.58a4.25,4.25,0,0,1,.4-1.88,3,3,0,0,1,1.15-1.3,3.07,3.07,0,0,1,1.67-.47,3,3,0,0,1,2.34,1,3.88,3.88,0,0,1,.9,2.68v.17a4.3,4.3,0,0,1-.41,1.89A2.87,2.87,0,0,1,93.67,440a3.06,3.06,0,0,1-1.67.46,3,3,0,0,1-2.34-1,3.92,3.92,0,0,1-.9-2.69Zm.8.22a3.27,3.27,0,0,0,.67,2.13,2.15,2.15,0,0,0,1.77.83,2.13,2.13,0,0,0,1.75-.83,3.38,3.38,0,0,0,.67-2.2v-.15a3.78,3.78,0,0,0-.3-1.52,2.58,2.58,0,0,0-.87-1.07,2.2,2.2,0,0,0-1.27-.37,2.12,2.12,0,0,0-1.74.83,3.42,3.42,0,0,0-.68,2.2Z"/><path d="M100.22,433.75a3.1,3.1,0,0,0-.54-.05,1.94,1.94,0,0,0-1.27.42,2.22,2.22,0,0,0-.74,1.21v5h-.8v-7.23h.78l0,1.15a2.12,2.12,0,0,1,2-1.29,1.3,1.3,0,0,1,.53.09Z"/><path d="M104.16,440.44a3.06,3.06,0,0,1-1.67-.46,3,3,0,0,1-1.16-1.26,4,4,0,0,1-.42-1.83v-.28a4.22,4.22,0,0,1,.41-1.88,3.23,3.23,0,0,1,1.12-1.32,2.81,2.81,0,0,1,1.57-.48,2.62,2.62,0,0,1,2.09.9,3.68,3.68,0,0,1,.77,2.46v.45h-5.16v.15a3,3,0,0,0,.7,2.05,2.25,2.25,0,0,0,1.78.82,2.65,2.65,0,0,0,1.13-.23,2.62,2.62,0,0,0,.9-.75l.5.38A2.92,2.92,0,0,1,104.16,440.44Zm-.15-6.82a2,2,0,0,0-1.52.66,3,3,0,0,0-.76,1.78h4.35V436a2.67,2.67,0,0,0-.6-1.7A1.82,1.82,0,0,0,104,433.62Zm.89-3.59h1l-1.55,1.87h-.7Z"/><path d="M112.53,433.07l0,1.23a2.93,2.93,0,0,1,1-1,2.68,2.68,0,0,1,1.34-.35,2.18,2.18,0,0,1,1.74.66,3,3,0,0,1,.57,2v4.75h-.79v-4.75a2.26,2.26,0,0,0-.42-1.45,1.63,1.63,0,0,0-1.29-.47,2,2,0,0,0-1.32.46,2.7,2.7,0,0,0-.84,1.26v4.95h-.8v-7.23Z"/><path d="M119.24,431a.56.56,0,0,1,.15-.39.61.61,0,0,1,.8,0,.53.53,0,0,1,.16.39.47.47,0,0,1-.16.37.58.58,0,0,1-.8,0A.5.5,0,0,1,119.24,431Zm.94,9.32h-.8v-7.23h.8Z"/><path d="M125.16,440.44a3.11,3.11,0,0,1-1.67-.46,3.07,3.07,0,0,1-1.16-1.26,4.07,4.07,0,0,1-.41-1.83v-.28a4.22,4.22,0,0,1,.4-1.88,3.25,3.25,0,0,1,1.13-1.32,2.76,2.76,0,0,1,1.56-.48,2.6,2.6,0,0,1,2.09.9,3.63,3.63,0,0,1,.78,2.46v.45h-5.17v.15a3,3,0,0,0,.71,2.05,2.23,2.23,0,0,0,1.77.82,2.73,2.73,0,0,0,1.14-.23,2.59,2.59,0,0,0,.89-.75l.5.38A2.91,2.91,0,0,1,125.16,440.44Zm-.15-6.82a2,2,0,0,0-1.52.66,3.06,3.06,0,0,0-.75,1.78h4.34V436a2.67,2.67,0,0,0-.59-1.7A1.85,1.85,0,0,0,125,433.62Z"/><path d="M137.1,438.47a1.14,1.14,0,0,0-.48-1,3.71,3.71,0,0,0-1.44-.57,6,6,0,0,1-1.49-.47,1.92,1.92,0,0,1-.79-.64,1.61,1.61,0,0,1-.26-.92,1.73,1.73,0,0,1,.72-1.42,2.87,2.87,0,0,1,1.83-.56,3,3,0,0,1,1.94.6,1.91,1.91,0,0,1,.73,1.56h-.8a1.27,1.27,0,0,0-.53-1,2.08,2.08,0,0,0-1.34-.42,2.06,2.06,0,0,0-1.27.35,1.08,1.08,0,0,0-.48.91,1,1,0,0,0,.4.84,4.14,4.14,0,0,0,1.45.54,7.32,7.32,0,0,1,1.58.53,2.11,2.11,0,0,1,.78.68,1.87,1.87,0,0,1-.48,2.42,3.15,3.15,0,0,1-1.93.55,3.27,3.27,0,0,1-2.05-.61,1.88,1.88,0,0,1-.79-1.55h.8a1.39,1.39,0,0,0,.59,1.09,2.46,2.46,0,0,0,1.45.39,2.27,2.27,0,0,0,1.35-.37A1.09,1.09,0,0,0,137.1,438.47Z"/><path d="M144.36,439.39a2.6,2.6,0,0,1-2.31,1.05,2.27,2.27,0,0,1-1.76-.67,3,3,0,0,1-.61-2v-4.71h.79v4.61c0,1.37.56,2.06,1.68,2.06a2.05,2.05,0,0,0,2.2-1.44v-5.23h.8v7.23h-.78ZM143.3,430h1l-1.55,1.87H142Z"/><path d="M152.82,439.2l2.2-6.13h.82l-2.7,7.23h-.65l-2.72-7.23h.83Z"/><path d="M160.16,436.62a4.36,4.36,0,0,1,.75-2.69,2.42,2.42,0,0,1,2.05-1,2.52,2.52,0,0,1,2.24,1.18l0-1H166v7.09a3.06,3.06,0,0,1-.78,2.21,2.78,2.78,0,0,1-2.12.82,3.17,3.17,0,0,1-1.44-.34,2.75,2.75,0,0,1-1.08-.9l.45-.48a2.54,2.54,0,0,0,2,1,2,2,0,0,0,1.56-.59,2.3,2.3,0,0,0,.58-1.64v-.91a2.59,2.59,0,0,1-2.24,1.07,2.42,2.42,0,0,1-2-1,4.33,4.33,0,0,1-.76-2.7Zm.81.14a3.76,3.76,0,0,0,.55,2.18,1.8,1.8,0,0,0,1.57.8,2.13,2.13,0,0,0,2.09-1.32v-3.37a2.24,2.24,0,0,0-.81-1.06,2.18,2.18,0,0,0-1.27-.36,1.82,1.82,0,0,0-1.57.79A4.08,4.08,0,0,0,161,436.76Z"/><path d="M171.43,433.75a3.12,3.12,0,0,0-.55-.05,1.92,1.92,0,0,0-1.26.42,2.22,2.22,0,0,0-.74,1.21v5h-.8v-7.23h.78l0,1.15a2.12,2.12,0,0,1,2-1.29,1.3,1.3,0,0,1,.53.09Z"/><path d="M177,440.3a3.65,3.65,0,0,1-.15-1,2.75,2.75,0,0,1-1.08.85,3.23,3.23,0,0,1-1.38.3,2.48,2.48,0,0,1-1.69-.58,1.9,1.9,0,0,1-.64-1.47,1.94,1.94,0,0,1,.88-1.68,4.21,4.21,0,0,1,2.45-.61h1.45v-.83a1.6,1.6,0,0,0-.48-1.22,2,2,0,0,0-1.39-.44,2.18,2.18,0,0,0-1.39.43,1.28,1.28,0,0,0-.55,1h-.8a1.89,1.89,0,0,1,.8-1.5,3.13,3.13,0,0,1,2-.63,2.84,2.84,0,0,1,1.91.61,2.22,2.22,0,0,1,.72,1.69v3.42a4.15,4.15,0,0,0,.22,1.57v.08Zm-2.51-.57a2.67,2.67,0,0,0,1.43-.39,2.26,2.26,0,0,0,.92-1v-1.59H175.4a3.61,3.61,0,0,0-1.87.44,1.35,1.35,0,0,0-.23,2.18A1.69,1.69,0,0,0,174.48,439.73Z"/><path d="M180.34,440.3v-6.58h-1.2v-.65h1.2v-.88a2.38,2.38,0,0,1,.56-1.71,2.1,2.1,0,0,1,1.58-.59,3.35,3.35,0,0,1,.85.11l-.06.67a2.87,2.87,0,0,0-.73-.08,1.29,1.29,0,0,0-1,.41,1.66,1.66,0,0,0-.37,1.17v.9h1.72v.65h-1.72v6.58Z"/><path d="M186.94,440.44a3.13,3.13,0,0,1-2.83-1.72,4,4,0,0,1-.42-1.83v-.28a4.22,4.22,0,0,1,.41-1.88,3.17,3.17,0,0,1,1.13-1.32,2.76,2.76,0,0,1,1.56-.48,2.6,2.6,0,0,1,2.09.9,3.63,3.63,0,0,1,.77,2.46v.45h-5.16v.15a3,3,0,0,0,.71,2.05,2.23,2.23,0,0,0,1.77.82,2.73,2.73,0,0,0,1.14-.23,2.68,2.68,0,0,0,.89-.75l.5.38A2.92,2.92,0,0,1,186.94,440.44Zm-.15-6.82a2,2,0,0,0-1.52.66,3.06,3.06,0,0,0-.75,1.78h4.34V436a2.62,2.62,0,0,0-.6-1.7A1.82,1.82,0,0,0,186.79,433.62Z"/><path d="M195.07,439.63h4.7v.67h-5.69v-.58l4.39-6h-4.25v-.69h5.26v.6Z"/><path d="M202,433.07l0,1.23a3,3,0,0,1,1-1,2.72,2.72,0,0,1,1.35-.35,2.17,2.17,0,0,1,1.73.66,3,3,0,0,1,.58,2v4.75h-.8v-4.75a2.26,2.26,0,0,0-.41-1.45,1.64,1.64,0,0,0-1.3-.47,2,2,0,0,0-1.31.46,2.79,2.79,0,0,0-.85,1.26v4.95h-.79v-7.23Z"/><path d="M213.3,440.3a3.65,3.65,0,0,1-.15-1,2.75,2.75,0,0,1-1.08.85,3.23,3.23,0,0,1-1.38.3,2.48,2.48,0,0,1-1.69-.58,1.9,1.9,0,0,1-.64-1.47,1.94,1.94,0,0,1,.88-1.68,4.21,4.21,0,0,1,2.45-.61h1.45v-.83a1.6,1.6,0,0,0-.48-1.22,2,2,0,0,0-1.39-.44,2.18,2.18,0,0,0-1.39.43,1.28,1.28,0,0,0-.55,1h-.8a1.89,1.89,0,0,1,.8-1.5,3.13,3.13,0,0,1,2-.63,2.86,2.86,0,0,1,1.91.61,2.22,2.22,0,0,1,.72,1.69v3.42a4.15,4.15,0,0,0,.22,1.57v.08Zm-2.51-.57a2.67,2.67,0,0,0,1.43-.39,2.26,2.26,0,0,0,.92-1v-1.59h-1.43a3.61,3.61,0,0,0-1.87.44,1.35,1.35,0,0,0-.23,2.18A1.69,1.69,0,0,0,210.79,439.73Zm1.57-9.7h1l-1.54,1.87h-.7Z"/><path d="M216.6,439.63h4.7v.67h-5.69v-.58l4.39-6h-4.26v-.69H221v.6Z"/><path d="M222.19,436.58a4.25,4.25,0,0,1,.4-1.88,3.08,3.08,0,0,1,1.14-1.3,3.13,3.13,0,0,1,1.68-.47,3,3,0,0,1,2.34,1,3.88,3.88,0,0,1,.9,2.68v.17a4.3,4.3,0,0,1-.41,1.89A3,3,0,0,1,227.1,440a3.07,3.07,0,0,1-1.68.46,3,3,0,0,1-2.33-1,3.92,3.92,0,0,1-.9-2.69Zm.8.22a3.27,3.27,0,0,0,.67,2.13,2.28,2.28,0,0,0,3.52,0,3.38,3.38,0,0,0,.67-2.2v-.15a3.63,3.63,0,0,0-.31-1.52,2.48,2.48,0,0,0-.86-1.07,2.2,2.2,0,0,0-1.27-.37,2.14,2.14,0,0,0-1.75.83,3.42,3.42,0,0,0-.67,2.2Z"/><path d="M233.65,433.75a3.21,3.21,0,0,0-.55-.05,1.92,1.92,0,0,0-1.26.42,2.22,2.22,0,0,0-.74,1.21v5h-.8v-7.23h.78l0,1.15a2.12,2.12,0,0,1,2-1.29,1.21,1.21,0,0,1,.52.09Z"/><path d="M235.67,433.07l0,1.23a3,3,0,0,1,1-1,2.72,2.72,0,0,1,1.35-.35,2.15,2.15,0,0,1,1.73.66,3,3,0,0,1,.58,2v4.75h-.8v-4.75a2.2,2.2,0,0,0-.41-1.45,1.64,1.64,0,0,0-1.3-.47,2,2,0,0,0-1.31.46,2.79,2.79,0,0,0-.85,1.26v4.95h-.79v-7.23Z"/><path d="M245.24,440.44a3.09,3.09,0,0,1-1.67-.46,3,3,0,0,1-1.16-1.26,4,4,0,0,1-.42-1.83v-.28a4.22,4.22,0,0,1,.41-1.88,3.23,3.23,0,0,1,1.12-1.32,2.81,2.81,0,0,1,1.57-.48,2.6,2.6,0,0,1,2.09.9,3.63,3.63,0,0,1,.77,2.46v.45h-5.16v.15a3,3,0,0,0,.7,2.05,2.26,2.26,0,0,0,1.78.82,2.65,2.65,0,0,0,1.13-.23,2.62,2.62,0,0,0,.9-.75l.5.38A2.92,2.92,0,0,1,245.24,440.44Zm-.15-6.82a2,2,0,0,0-1.52.66,3,3,0,0,0-.75,1.78h4.34V436a2.62,2.62,0,0,0-.6-1.7A1.82,1.82,0,0,0,245.09,433.62Z"/><path d="M250.27,433.07l0,1.23a2.93,2.93,0,0,1,1-1,2.65,2.65,0,0,1,1.34-.35,2.18,2.18,0,0,1,1.74.66,3,3,0,0,1,.57,2v4.75h-.8v-4.75a2.2,2.2,0,0,0-.41-1.45,1.63,1.63,0,0,0-1.29-.47,2,2,0,0,0-1.32.46,2.7,2.7,0,0,0-.84,1.26v4.95h-.8v-7.23Z"/><path d="M259.84,440.44a3.11,3.11,0,0,1-1.67-.46,3.07,3.07,0,0,1-1.16-1.26,3.94,3.94,0,0,1-.41-1.83v-.28a4.22,4.22,0,0,1,.4-1.88,3.25,3.25,0,0,1,1.13-1.32,2.76,2.76,0,0,1,1.56-.48,2.6,2.6,0,0,1,2.09.9,3.63,3.63,0,0,1,.78,2.46v.45h-5.17v.15a3,3,0,0,0,.71,2.05,2.23,2.23,0,0,0,1.77.82,2.73,2.73,0,0,0,1.14-.23,2.59,2.59,0,0,0,.89-.75l.5.38A2.92,2.92,0,0,1,259.84,440.44Zm-.15-6.82a2,2,0,0,0-1.52.66,3.06,3.06,0,0,0-.75,1.78h4.34V436a2.62,2.62,0,0,0-.6-1.7A1.82,1.82,0,0,0,259.69,433.62Zm.89-3.59h1L260,431.9h-.7Z"/><path d="M264,439.82a.58.58,0,0,1,1-.39.55.55,0,0,1,.16.39.53.53,0,0,1-.16.39.66.66,0,0,1-.84,0A.53.53,0,0,1,264,439.82Z"/><rect class="cls-5" x="172.54" y="47.96" width="16.28" height="16.28"/><line class="cls-6" x1="172.94" y1="47.96" x2="188.43" y2="47.96"/><rect class="cls-7" x="6.57" y="47.96" width="16.28" height="16.28"/><line class="cls-7" x1="6.57" y1="47.96" x2="22.84" y2="47.96"/><path class="cls-8" d="M207.86,59.41h-4.13l-.86,2.49h-1.93l4-10.67h1.66l4,10.67h-1.93Zm-3.61-1.49h3.1l-1.55-4.43Z"/><path class="cls-8" d="M213.6,61.9h-1.78V50.65h1.78Z"/><path class="cls-8" d="M215.2,57.86a4.63,4.63,0,0,1,.47-2.1A3.26,3.26,0,0,1,217,54.33a3.63,3.63,0,0,1,1.92-.51,3.44,3.44,0,0,1,2.6,1,4,4,0,0,1,1.08,2.74V58a4.73,4.73,0,0,1-.45,2.1,3.38,3.38,0,0,1-1.29,1.43,3.72,3.72,0,0,1-1.93.5,3.46,3.46,0,0,1-2.69-1.11,4.3,4.3,0,0,1-1-3ZM217,58a3.17,3.17,0,0,0,.51,1.92,1.66,1.66,0,0,0,1.41.69,1.62,1.62,0,0,0,1.4-.7,3.58,3.58,0,0,0,.5-2.06,3.08,3.08,0,0,0-.52-1.9,1.73,1.73,0,0,0-2.78,0A3.44,3.44,0,0,0,217,58Z"/><path class="cls-8" d="M226.65,58.5l-.79.81V61.9h-1.78V50.65h1.78v6.49l.56-.7L228.61,54h2.14l-2.95,3.3,3.26,4.63H229Z"/><path class="cls-8" d="M231.57,57.86a4.76,4.76,0,0,1,.46-2.1,3.35,3.35,0,0,1,1.3-1.43,3.63,3.63,0,0,1,1.92-.51,3.44,3.44,0,0,1,2.6,1,4,4,0,0,1,1.08,2.74V58a4.73,4.73,0,0,1-.45,2.1,3.38,3.38,0,0,1-1.29,1.43,3.73,3.73,0,0,1-1.94.5,3.45,3.45,0,0,1-2.68-1.11,4.3,4.3,0,0,1-1-3Zm1.78.15a3.17,3.17,0,0,0,.51,1.92,1.77,1.77,0,0,0,2.81,0,3.58,3.58,0,0,0,.5-2.06,3.08,3.08,0,0,0-.52-1.9,1.73,1.73,0,0,0-2.78,0A3.44,3.44,0,0,0,233.35,58Z"/><path class="cls-8" d="M243.13,59.64,244.81,54h1.84L243.9,61.9h-1.55L239.59,54h1.84Z"/><path class="cls-8" d="M252.38,61.9a2.53,2.53,0,0,1-.2-.74,2.77,2.77,0,0,1-2.08.88,2.81,2.81,0,0,1-1.95-.68,2.19,2.19,0,0,1-.76-1.68,2.25,2.25,0,0,1,1-2,4.54,4.54,0,0,1,2.69-.68h1.09v-.52a1.38,1.38,0,0,0-.35-1,1.33,1.33,0,0,0-1-.37,1.59,1.59,0,0,0-1,.3,1,1,0,0,0-.39.78h-1.78A2,2,0,0,1,248,55a2.82,2.82,0,0,1,1.18-.89,4.07,4.07,0,0,1,1.66-.33,3.35,3.35,0,0,1,2.22.7,2.54,2.54,0,0,1,.85,2v3.57a4,4,0,0,0,.3,1.71v.13Zm-1.95-1.29a2,2,0,0,0,1-.25,1.72,1.72,0,0,0,.7-.69V58.18h-1a2.63,2.63,0,0,0-1.49.34,1.11,1.11,0,0,0-.5,1,1.05,1.05,0,0,0,.34.82A1.36,1.36,0,0,0,250.43,60.61Z"/><path class="cls-8" d="M257.41,54l.06.92a2.83,2.83,0,0,1,2.3-1.07c1.65,0,2.49,1,2.52,2.84V61.9h-1.78V56.76a1.7,1.7,0,0,0-.32-1.12,1.4,1.4,0,0,0-1.07-.36,1.71,1.71,0,0,0-1.6,1V61.9h-1.78V54Z"/><path class="cls-8" d="M267.59,62A3.68,3.68,0,0,1,264.85,61a3.87,3.87,0,0,1-1.05-2.84v-.22a4.69,4.69,0,0,1,.46-2.12,3.5,3.5,0,0,1,1.28-1.46,3.46,3.46,0,0,1,1.85-.52,3.11,3.11,0,0,1,2.5,1,4.35,4.35,0,0,1,.88,2.92v.72h-5.18a2.43,2.43,0,0,0,.66,1.55,2,2,0,0,0,1.45.57,2.41,2.41,0,0,0,2-1l1,.92a3.23,3.23,0,0,1-1.27,1.1A4,4,0,0,1,267.59,62Zm-.21-6.79a1.49,1.49,0,0,0-1.18.51,2.75,2.75,0,0,0-.58,1.43H269v-.13a2.12,2.12,0,0,0-.47-1.35A1.52,1.52,0,0,0,267.38,55.25Zm.4-4.6h2l-2,2.21h-1.42Z"/><path class="cls-8" d="M282.83,58A4.71,4.71,0,0,1,282,61a2.9,2.9,0,0,1-4.33.23v3.76h-1.77V54h1.64l.07.81a2.6,2.6,0,0,1,2.13-1A2.68,2.68,0,0,1,282,54.9a4.86,4.86,0,0,1,.83,3Zm-1.77-.15a3.25,3.25,0,0,0-.48-1.88,1.51,1.51,0,0,0-1.35-.7,1.64,1.64,0,0,0-1.57.9V59.7a1.67,1.67,0,0,0,1.59.92,1.55,1.55,0,0,0,1.33-.68A3.65,3.65,0,0,0,281.06,57.86Z"/><path class="cls-8" d="M284,57.86a4.63,4.63,0,0,1,.46-2.1,3.35,3.35,0,0,1,1.3-1.43,3.58,3.58,0,0,1,1.92-.51,3.46,3.46,0,0,1,2.6,1,4,4,0,0,1,1.08,2.74V58a4.73,4.73,0,0,1-.45,2.1,3.38,3.38,0,0,1-1.29,1.43,3.76,3.76,0,0,1-1.94.5A3.43,3.43,0,0,1,285,60.93a4.3,4.3,0,0,1-1-3Zm1.78.15a3.17,3.17,0,0,0,.51,1.92,1.77,1.77,0,0,0,2.81,0,3.58,3.58,0,0,0,.5-2.06,3.15,3.15,0,0,0-.52-1.9,1.74,1.74,0,0,0-2.79,0A3.51,3.51,0,0,0,285.78,58Z"/><path class="cls-8" d="M295.56,59.64,297.23,54h1.84l-2.74,7.93h-1.55L292,54h1.85Z"/><path class="cls-8" d="M299.74,57.86a4.63,4.63,0,0,1,.46-2.1,3.35,3.35,0,0,1,1.3-1.43,3.58,3.58,0,0,1,1.92-.51,3.46,3.46,0,0,1,2.6,1,4,4,0,0,1,1.08,2.74V58a4.73,4.73,0,0,1-.45,2.1,3.38,3.38,0,0,1-1.29,1.43,3.76,3.76,0,0,1-1.94.5,3.43,3.43,0,0,1-2.68-1.11,4.3,4.3,0,0,1-1-3Zm1.78.15a3.25,3.25,0,0,0,.5,1.92,1.66,1.66,0,0,0,1.41.69,1.61,1.61,0,0,0,1.4-.7,3.5,3.5,0,0,0,.51-2.06,3.15,3.15,0,0,0-.52-1.9,1.74,1.74,0,0,0-2.79,0A3.51,3.51,0,0,0,301.52,58Z"/><path class="cls-8" d="M310.51,61.9h-1.78V50.65h1.78Z"/><path class="cls-8" d="M315.93,62A3.68,3.68,0,0,1,313.19,61a3.87,3.87,0,0,1-1.05-2.84v-.22a4.69,4.69,0,0,1,.46-2.12,3.5,3.5,0,0,1,1.28-1.46,3.46,3.46,0,0,1,1.85-.52,3.11,3.11,0,0,1,2.5,1,4.35,4.35,0,0,1,.88,2.92v.72h-5.18a2.43,2.43,0,0,0,.66,1.55,2,2,0,0,0,1.45.57,2.41,2.41,0,0,0,2-1l1,.92a3.23,3.23,0,0,1-1.27,1.1A4,4,0,0,1,315.93,62Zm-.21-6.79a1.49,1.49,0,0,0-1.18.51,2.75,2.75,0,0,0-.58,1.43h3.39v-.13a2.18,2.18,0,0,0-.47-1.35A1.52,1.52,0,0,0,315.72,55.25Z"/><path class="cls-8" d="M322.15,54l.05.92a2.83,2.83,0,0,1,2.3-1.07c1.65,0,2.49,1,2.52,2.84V61.9h-1.78V56.76a1.7,1.7,0,0,0-.32-1.12,1.4,1.4,0,0,0-1.07-.36,1.71,1.71,0,0,0-1.6,1V61.9h-1.78V54Z"/><path class="cls-8" d="M331.41,58.5l-.79.81V61.9h-1.78V50.65h1.78v6.49l.56-.7L333.37,54h2.13l-2.94,3.3,3.26,4.63h-2.06Z"/><path class="cls-8" d="M339.44,59.35,341.05,54H343L339.8,63.1a2.57,2.57,0,0,1-2.46,2,3.14,3.14,0,0,1-.86-.14V63.58l.34,0a1.77,1.77,0,0,0,1-.24,1.63,1.63,0,0,0,.54-.83l.25-.68L335.84,54h1.92Z"/><path class="cls-8" d="M349.22,54.77,347,54.13l.4-1.24,2.21.86-.11-2.52h1.32l-.11,2.56,2.17-.84.4,1.26-2.27.64,1.46,1.95-1.06.78-1.32-2.11-1.3,2-1.07-.75Z"/><path class="cls-9" d="M44.44,56.84a6.55,6.55,0,0,1-.54,2.75,4.09,4.09,0,0,1-1.55,1.82,4.57,4.57,0,0,1-4.63,0,4.1,4.1,0,0,1-1.57-1.81,6.38,6.38,0,0,1-.56-2.7v-.6a6.58,6.58,0,0,1,.55-2.75,4.15,4.15,0,0,1,1.56-1.83,4.6,4.6,0,0,1,4.63,0,4.09,4.09,0,0,1,1.55,1.8,6.53,6.53,0,0,1,.56,2.74Zm-1.85-.55a4.71,4.71,0,0,0-.67-2.72,2.36,2.36,0,0,0-3.78,0,4.61,4.61,0,0,0-.7,2.67v.61a4.61,4.61,0,0,0,.69,2.72,2.21,2.21,0,0,0,1.9,1,2.16,2.16,0,0,0,1.89-.94,4.73,4.73,0,0,0,.67-2.74Z"/><path class="cls-9" d="M48.91,59.64,50.58,54h1.84L49.68,61.9H48.13L45.36,54h1.85Z"/><path class="cls-9" d="M56.93,62A3.69,3.69,0,0,1,54.18,61a3.87,3.87,0,0,1-1-2.84v-.22a4.82,4.82,0,0,1,.46-2.12,3.52,3.52,0,0,1,1.29-1.46,3.43,3.43,0,0,1,1.84-.52,3.11,3.11,0,0,1,2.5,1,4.35,4.35,0,0,1,.88,2.92v.72H54.93a2.37,2.37,0,0,0,.65,1.55,2,2,0,0,0,1.45.57,2.41,2.41,0,0,0,2-1l1,.92a3.23,3.23,0,0,1-1.27,1.1A4,4,0,0,1,56.93,62Zm-.22-6.79a1.48,1.48,0,0,0-1.18.52A2.6,2.6,0,0,0,55,57.19h3.39v-.13a2.18,2.18,0,0,0-.48-1.35A1.51,1.51,0,0,0,56.71,55.25Z"/><path class="cls-9" d="M65.63,55.6a4.2,4.2,0,0,0-.72-.06,1.62,1.62,0,0,0-1.65.94V61.9H61.48V54h1.7l0,.89a2,2,0,0,1,1.78-1,1.58,1.58,0,0,1,.63.11Z"/><path class="cls-9" d="M70.11,62A3.67,3.67,0,0,1,67.37,61a3.87,3.87,0,0,1-1.05-2.84v-.22a4.82,4.82,0,0,1,.45-2.12,3.59,3.59,0,0,1,1.29-1.46,3.46,3.46,0,0,1,1.85-.52,3.12,3.12,0,0,1,2.5,1,4.41,4.41,0,0,1,.88,2.92v.72H68.11a2.33,2.33,0,0,0,.66,1.55,2,2,0,0,0,1.44.57,2.4,2.4,0,0,0,2-1l1,.92a3.16,3.16,0,0,1-1.27,1.1A4,4,0,0,1,70.11,62Zm-.21-6.79a1.47,1.47,0,0,0-1.18.52,2.53,2.53,0,0,0-.58,1.42h3.39v-.13a2.24,2.24,0,0,0-.47-1.35A1.52,1.52,0,0,0,69.9,55.25Z"/><path class="cls-9" d="M76.32,54l.05.92a2.86,2.86,0,0,1,2.31-1.07c1.65,0,2.49,1,2.52,2.84V61.9H79.42V56.76a1.65,1.65,0,0,0-.33-1.12A1.36,1.36,0,0,0,78,55.28a1.72,1.72,0,0,0-1.61,1V61.9H74.64V54Z"/><path class="cls-9" d="M86.5,62A3.67,3.67,0,0,1,83.76,61a3.87,3.87,0,0,1-1.05-2.84v-.22a4.69,4.69,0,0,1,.46-2.12,3.5,3.5,0,0,1,1.28-1.46,3.46,3.46,0,0,1,1.85-.52,3.11,3.11,0,0,1,2.5,1,4.35,4.35,0,0,1,.88,2.92v.72H84.5a2.38,2.38,0,0,0,.66,1.55,2,2,0,0,0,1.44.57,2.43,2.43,0,0,0,2-1l1,.92a3.3,3.3,0,0,1-1.27,1.1A4,4,0,0,1,86.5,62Zm-.21-6.79a1.47,1.47,0,0,0-1.18.52,2.61,2.61,0,0,0-.58,1.42h3.39v-.13a2.18,2.18,0,0,0-.47-1.35A1.52,1.52,0,0,0,86.29,55.25Zm.4-4.6h2l-2,2.22H85.26Z"/><path class="cls-9" d="M98.29,62A3.69,3.69,0,0,1,95.54,61a3.87,3.87,0,0,1-1.05-2.84v-.22A4.82,4.82,0,0,1,95,55.8a3.52,3.52,0,0,1,1.29-1.46,3.43,3.43,0,0,1,1.84-.52,3.11,3.11,0,0,1,2.5,1,4.35,4.35,0,0,1,.88,2.92v.72H96.29a2.37,2.37,0,0,0,.65,1.55,2,2,0,0,0,1.45.57,2.41,2.41,0,0,0,2-1l1,.92a3.23,3.23,0,0,1-1.27,1.1A4,4,0,0,1,98.29,62Zm-.22-6.79a1.48,1.48,0,0,0-1.18.52,2.6,2.6,0,0,0-.57,1.42h3.39v-.13a2.18,2.18,0,0,0-.48-1.35A1.51,1.51,0,0,0,98.07,55.25Z"/><path class="cls-9" d="M104.52,54l0,.83a2.86,2.86,0,0,1,2.29-1A2.19,2.19,0,0,1,109,55a2.82,2.82,0,0,1,2.43-1.22,2.46,2.46,0,0,1,2,.73,3.18,3.18,0,0,1,.66,2.14V61.9h-1.78V56.74a1.6,1.6,0,0,0-.33-1.11,1.76,1.76,0,0,0-2.08,0,1.69,1.69,0,0,0-.54.85V61.9h-1.78V56.68a1.27,1.27,0,0,0-1.43-1.4,1.58,1.58,0,0,0-1.52.87V61.9h-1.78V54Z"/><path class="cls-9" d="M115.9,51.91a1,1,0,0,1,.26-.68,1.16,1.16,0,0,1,1.49,0,.93.93,0,0,1,.27.68.89.89,0,0,1-.27.67,1.16,1.16,0,0,1-1.49,0A.92.92,0,0,1,115.9,51.91Zm1.89,10H116V54h1.78Z"/><path class="cls-9" d="M124.17,59.74a.8.8,0,0,0-.39-.72,4.18,4.18,0,0,0-1.3-.44,6.63,6.63,0,0,1-1.52-.49,2,2,0,0,1-1.33-1.86,2.13,2.13,0,0,1,.86-1.72,3.42,3.42,0,0,1,2.2-.69,3.57,3.57,0,0,1,2.3.71,2.23,2.23,0,0,1,.87,1.82h-1.78a1.09,1.09,0,0,0-.38-.85,1.44,1.44,0,0,0-1-.34,1.6,1.6,0,0,0-1,.27.86.86,0,0,0-.37.72.72.72,0,0,0,.35.64,4.93,4.93,0,0,0,1.39.46,6.35,6.35,0,0,1,1.64.55,2.34,2.34,0,0,1,.89.76,2,2,0,0,1,.29,1.09,2.07,2.07,0,0,1-.89,1.73,3.78,3.78,0,0,1-2.32.66,4,4,0,0,1-1.73-.35,2.81,2.81,0,0,1-1.19-1,2.31,2.31,0,0,1-.43-1.32h1.73a1.29,1.29,0,0,0,.48,1,1.82,1.82,0,0,0,1.16.34,1.78,1.78,0,0,0,1.07-.27A.82.82,0,0,0,124.17,59.74Z"/><path class="cls-9" d="M127.47,51.91a1,1,0,0,1,.26-.68,1,1,0,0,1,.75-.27,1,1,0,0,1,.74.27.93.93,0,0,1,.27.68.89.89,0,0,1-.27.67,1,1,0,0,1-.74.27,1,1,0,0,1-.75-.27A.92.92,0,0,1,127.47,51.91Zm1.89,10h-1.78V54h1.78Z"/><path class="cls-9" d="M134.79,62A3.67,3.67,0,0,1,132.05,61,3.87,3.87,0,0,1,131,58.14v-.22a4.82,4.82,0,0,1,.45-2.12,3.59,3.59,0,0,1,1.29-1.46,3.46,3.46,0,0,1,1.85-.52,3.12,3.12,0,0,1,2.5,1,4.41,4.41,0,0,1,.88,2.92v.72h-5.18a2.33,2.33,0,0,0,.66,1.55,2,2,0,0,0,1.44.57,2.4,2.4,0,0,0,2-1l1,.92a3.16,3.16,0,0,1-1.27,1.1A4,4,0,0,1,134.79,62Zm-.21-6.79a1.46,1.46,0,0,0-1.18.52,2.53,2.53,0,0,0-.58,1.42h3.39v-.13a2.18,2.18,0,0,0-.48-1.35A1.48,1.48,0,0,0,134.58,55.25Z"/><path d="M12.5,349.27a5.92,5.92,0,0,1-.83,3.43,2.82,2.82,0,0,1-2.44,1.16,2.81,2.81,0,0,1-2.42-1.14,5.68,5.68,0,0,1-.87-3.34v-1.91a5.8,5.8,0,0,1,.84-3.41,2.8,2.8,0,0,1,2.43-1.15A2.83,2.83,0,0,1,11.63,344a5.6,5.6,0,0,1,.87,3.3Zm-.88-1.91a5.2,5.2,0,0,0-.6-2.77,2,2,0,0,0-1.81-.94,2,2,0,0,0-1.78.92,5,5,0,0,0-.62,2.7v2.1a5.24,5.24,0,0,0,.62,2.79,2,2,0,0,0,1.8,1,2,2,0,0,0,1.78-.94,5.29,5.29,0,0,0,.61-2.77Z"/><path d="M12.5,299.91a5.91,5.91,0,0,1-.83,3.42,2.8,2.8,0,0,1-2.44,1.17,2.8,2.8,0,0,1-2.42-1.15A5.63,5.63,0,0,1,5.94,300v-1.91a5.78,5.78,0,0,1,.84-3.41,2.81,2.81,0,0,1,2.43-1.16,2.84,2.84,0,0,1,2.42,1.12A5.56,5.56,0,0,1,12.5,298ZM11.62,298a5.18,5.18,0,0,0-.6-2.77,2,2,0,0,0-1.81-.94,2,2,0,0,0-1.78.92,5,5,0,0,0-.62,2.7V300a5.2,5.2,0,0,0,.62,2.79,2,2,0,0,0,1.8,1,2,2,0,0,0,1.78-.94,5.32,5.32,0,0,0,.61-2.77Z"/><path d="M14.33,306.35l-.52-.38a3.15,3.15,0,0,0,.69-1.86V303h.86v.91A3.14,3.14,0,0,1,14.33,306.35Z"/><path d="M17.84,298.89l.52-5.2h5.33v.81H19.12l-.38,3.61a3.48,3.48,0,0,1,2-.59,3,3,0,0,1,2.3.94,3.56,3.56,0,0,1,.86,2.5,3.76,3.76,0,0,1-.84,2.61,3,3,0,0,1-2.35.93,3.21,3.21,0,0,1-2.25-.78,3.12,3.12,0,0,1-1-2.17h.84a2.5,2.5,0,0,0,.74,1.65,2.38,2.38,0,0,0,1.66.56,2.1,2.1,0,0,0,1.73-.72A3.31,3.31,0,0,0,23,301a2.8,2.8,0,0,0-.65-1.91,2.27,2.27,0,0,0-1.78-.74,3.25,3.25,0,0,0-1.09.16,3,3,0,0,0-1,.61Z"/><path d="M10.15,255H9.27v-9.61l-2.9,1.07v-.82L10,244.29h.15Z"/><path d="M14.33,257l-.52-.38a3.15,3.15,0,0,0,.69-1.86v-1.13h.86v.91A3.14,3.14,0,0,1,14.33,257Z"/><path d="M23.68,250.55a5.91,5.91,0,0,1-.83,3.42,2.79,2.79,0,0,1-2.44,1.17A2.83,2.83,0,0,1,18,254a5.76,5.76,0,0,1-.87-3.34v-1.91a5.78,5.78,0,0,1,.84-3.41,2.83,2.83,0,0,1,2.44-1.16,2.86,2.86,0,0,1,2.42,1.12,5.64,5.64,0,0,1,.86,3.29Zm-.88-1.91a5.18,5.18,0,0,0-.6-2.77,2,2,0,0,0-1.8-.94,2,2,0,0,0-1.79.92,5,5,0,0,0-.61,2.7v2.09a5.11,5.11,0,0,0,.62,2.79,2.15,2.15,0,0,0,3.57,0,5.22,5.22,0,0,0,.61-2.77Z"/><path d="M10.15,205.63H9.27V196l-2.9,1.08v-.82L10,194.93h.15Z"/><path d="M14.33,207.63l-.52-.38a3.15,3.15,0,0,0,.69-1.86v-1.13h.86v.91A3.14,3.14,0,0,1,14.33,207.63Z"/><path d="M17.84,200.17l.52-5.2h5.33v.81H19.12l-.38,3.61a3.48,3.48,0,0,1,2-.59,3,3,0,0,1,2.3.94,3.56,3.56,0,0,1,.86,2.5,3.76,3.76,0,0,1-.84,2.61,3,3,0,0,1-2.35.93,3.21,3.21,0,0,1-2.25-.78,3.12,3.12,0,0,1-1-2.17h.84a2.5,2.5,0,0,0,.74,1.65,2.38,2.38,0,0,0,1.66.56,2.1,2.1,0,0,0,1.73-.72,3.31,3.31,0,0,0,.58-2.07,2.8,2.8,0,0,0-.65-1.91,2.27,2.27,0,0,0-1.78-.74,3.25,3.25,0,0,0-1.09.16,3,3,0,0,0-1,.61Z"/><path d="M12.75,156.27H6.07v-.67l3.65-4.15A9,9,0,0,0,11,149.72a2.9,2.9,0,0,0,.35-1.32,2.16,2.16,0,0,0-.59-1.6,2.2,2.2,0,0,0-1.64-.59,2.29,2.29,0,0,0-1.73.69,2.43,2.43,0,0,0-.67,1.78H5.83A3.38,3.38,0,0,1,6.24,147a2.88,2.88,0,0,1,1.16-1.16,3.43,3.43,0,0,1,1.7-.42,3.24,3.24,0,0,1,2.29.77,2.72,2.72,0,0,1,.83,2.09,3.58,3.58,0,0,1-.47,1.64,12,12,0,0,1-1.63,2.21l-3,3.36h5.61Z"/><path d="M14.33,158.26l-.52-.38A3.1,3.1,0,0,0,14.5,156v-1.14h.86v.92A3.12,3.12,0,0,1,14.33,158.26Z"/><path d="M23.68,151.83a5.91,5.91,0,0,1-.83,3.42,2.79,2.79,0,0,1-2.44,1.17A2.81,2.81,0,0,1,18,155.27a5.7,5.7,0,0,1-.87-3.33V150a5.76,5.76,0,0,1,.84-3.4,2.83,2.83,0,0,1,2.44-1.16,2.84,2.84,0,0,1,2.42,1.12,5.62,5.62,0,0,1,.86,3.29Zm-.88-1.92a5.14,5.14,0,0,0-.6-2.76,2,2,0,0,0-1.8-.94,2,2,0,0,0-1.79.91,5.08,5.08,0,0,0-.61,2.71v2.09a5.11,5.11,0,0,0,.62,2.79,2.14,2.14,0,0,0,3.57,0A5.18,5.18,0,0,0,22.8,152Z"/><path d="M12.78,107.25H6.1v-.68l3.66-4.14A10.42,10.42,0,0,0,11,100.7a2.94,2.94,0,0,0,.35-1.33,2.16,2.16,0,0,0-.6-1.6,2.22,2.22,0,0,0-1.63-.59,2.3,2.3,0,0,0-1.74.69,2.49,2.49,0,0,0-.66,1.79H5.87A3.35,3.35,0,0,1,6.27,98a2.94,2.94,0,0,1,1.16-1.16,3.44,3.44,0,0,1,1.71-.42,3.19,3.19,0,0,1,2.29.77,2.71,2.71,0,0,1,.82,2.09,3.52,3.52,0,0,1-.46,1.63,12.5,12.5,0,0,1-1.64,2.22l-3,3.36h5.6Z"/><path d="M14.37,109.24l-.52-.38a3.29,3.29,0,0,0,.69-1.85v-1.14h.86v.92A3.17,3.17,0,0,1,14.37,109.24Z"/><path d="M17.88,101.78l.52-5.2h5.33v.82H19.15l-.37,3.6a3.48,3.48,0,0,1,2-.59,3,3,0,0,1,2.3.94,3.58,3.58,0,0,1,.85,2.5,3.8,3.8,0,0,1-.83,2.61,3,3,0,0,1-2.35.93,3.25,3.25,0,0,1-2.26-.77,3.19,3.19,0,0,1-1-2.18h.84a2.55,2.55,0,0,0,.74,1.65,2.36,2.36,0,0,0,1.67.56,2.08,2.08,0,0,0,1.72-.72,3.21,3.21,0,0,0,.58-2.07,2.77,2.77,0,0,0-.65-1.91,2.26,2.26,0,0,0-1.78-.74,3.23,3.23,0,0,0-1.08.16,3,3,0,0,0-1,.61Z"/><path d="M30.18,99.32l0,1.29a3,3,0,0,1,1.1-1.08,3.13,3.13,0,0,1,1.47-.35,2.22,2.22,0,0,1,2.38,1.53,2.92,2.92,0,0,1,1.13-1.13,3.14,3.14,0,0,1,1.57-.4c1.7,0,2.56.92,2.6,2.78v5.29h-.88V102a2.33,2.33,0,0,0-.46-1.57,1.87,1.87,0,0,0-1.47-.51,2.3,2.3,0,0,0-1.59.61,2.15,2.15,0,0,0-.73,1.45v5.25h-.88V102a2.12,2.12,0,0,0-.48-1.52,1.88,1.88,0,0,0-1.45-.5,2.17,2.17,0,0,0-1.42.47,2.71,2.71,0,0,0-.88,1.4v5.44h-.88V99.32Z"/><path d="M43.66,107.25h-.88V96h.88Z"/><path d="M45.69,103.21a4.77,4.77,0,0,1,.82-2.94,2.66,2.66,0,0,1,2.24-1.09,2.78,2.78,0,0,1,2.45,1.26V96h.87v11.25h-.82l0-1.06a2.83,2.83,0,0,1-2.47,1.2,2.62,2.62,0,0,1-2.21-1.1,4.79,4.79,0,0,1-.84-3Zm.88.16a4.18,4.18,0,0,0,.61,2.39,2,2,0,0,0,1.72.87,2.35,2.35,0,0,0,2.3-1.43v-3.72a2.35,2.35,0,0,0-2.29-1.54,2,2,0,0,0-1.72.87A4.39,4.39,0,0,0,46.57,103.37Z"/><path d="M54.29,106.72a.64.64,0,0,1,.17-.44.59.59,0,0,1,.46-.18.6.6,0,0,1,.46.18.64.64,0,0,1,.17.44.57.57,0,0,1-.17.42.64.64,0,0,1-.46.17.62.62,0,0,1-.46-.17A.57.57,0,0,1,54.29,106.72Z"/><path d="M63,97.29v2h1.64V100H63v5.29a1.73,1.73,0,0,0,.23,1,1,1,0,0,0,.8.32,5.09,5.09,0,0,0,.71-.07l0,.71a3,3,0,0,1-.94.12,1.55,1.55,0,0,1-1.31-.52,2.42,2.42,0,0,1-.41-1.54V100H60.63v-.72h1.46v-2Z"/><path d="M65.79,103.17a4.62,4.62,0,0,1,.45-2.06,3.35,3.35,0,0,1,1.25-1.43,3.44,3.44,0,0,1,1.83-.5,3.27,3.27,0,0,1,2.57,1.11,4.3,4.3,0,0,1,1,2.94v.18a4.76,4.76,0,0,1-.44,2.07,3.27,3.27,0,0,1-3.09,1.91,3.27,3.27,0,0,1-2.56-1.11,4.25,4.25,0,0,1-1-2.94Zm.88.24a3.59,3.59,0,0,0,.74,2.33,2.49,2.49,0,0,0,3.85,0,3.72,3.72,0,0,0,.74-2.4v-.17a4.07,4.07,0,0,0-.34-1.66,2.63,2.63,0,0,0-.94-1.17,2.41,2.41,0,0,0-1.4-.42,2.36,2.36,0,0,0-1.91.92,3.77,3.77,0,0,0-.74,2.41Z"/><path d="M75.51,99.32l0,1.36a3.16,3.16,0,0,1,1.12-1.12,2.83,2.83,0,0,1,1.47-.38,2.38,2.38,0,0,1,1.89.71,3.2,3.2,0,0,1,.63,2.16v5.2h-.87V102a2.35,2.35,0,0,0-.45-1.58,1.74,1.74,0,0,0-1.41-.52,2.19,2.19,0,0,0-1.44.51,2.94,2.94,0,0,0-.93,1.37v5.43h-.87V99.32Z"/><path d="M94.32,103.92a3.81,3.81,0,0,1-1.2,2.58,4,4,0,0,1-2.72.89,3.69,3.69,0,0,1-2.1-.59,3.84,3.84,0,0,1-1.41-1.68,6.11,6.11,0,0,1-.51-2.49v-1.38a6.06,6.06,0,0,1,.5-2.52A3.87,3.87,0,0,1,88.31,97a4,4,0,0,1,2.15-.59,3.81,3.81,0,0,1,2.71.92,3.88,3.88,0,0,1,1.15,2.56h-.91a2.71,2.71,0,0,0-3-2.72,2.79,2.79,0,0,0-2.31,1.08,4.76,4.76,0,0,0-.86,3v1.31a4.71,4.71,0,0,0,.84,2.94,2.68,2.68,0,0,0,2.27,1.1,3,3,0,0,0,2.13-.68,3.2,3.2,0,0,0,.88-2Z"/><path d="M104.39,102.49a6.14,6.14,0,0,1-.51,2.59,3.88,3.88,0,0,1-1.45,1.71,4,4,0,0,1-2.18.6,3.79,3.79,0,0,1-3-1.33,5.34,5.34,0,0,1-1.15-3.61v-1.1a6,6,0,0,1,.52-2.58A3.9,3.9,0,0,1,98.06,97a4.25,4.25,0,0,1,4.34,0,3.87,3.87,0,0,1,1.46,1.68,6,6,0,0,1,.53,2.51Zm-.9-1.15a4.72,4.72,0,0,0-.87-3,3.14,3.14,0,0,0-4.76,0,4.74,4.74,0,0,0-.88,3.06v1.11a4.69,4.69,0,0,0,.88,3,2.87,2.87,0,0,0,2.39,1.11,2.82,2.82,0,0,0,2.38-1.1,4.75,4.75,0,0,0,.86-3.05Z"/><path d="M109.91,110.33h-4.08v-.57l2.15-2.39a4.82,4.82,0,0,0,.66-.89,1.46,1.46,0,0,0,.18-.7,1.11,1.11,0,0,0-.29-.8,1.07,1.07,0,0,0-.79-.31,1.19,1.19,0,0,0-.91.34,1.26,1.26,0,0,0-.33.93h-.79a1.85,1.85,0,0,1,.56-1.39,2,2,0,0,1,1.47-.53,2,2,0,0,1,1.38.46,1.55,1.55,0,0,1,.5,1.21,3.54,3.54,0,0,1-1.17,2.18l-1.67,1.81h3.13Z"/><path d="M118.08,107.39a3.36,3.36,0,0,1-3.09-1.88,4.27,4.27,0,0,1-.46-2v-.31a4.59,4.59,0,0,1,.45-2.06,3.47,3.47,0,0,1,1.23-1.44,3,3,0,0,1,1.71-.52,2.83,2.83,0,0,1,2.29,1,4,4,0,0,1,.85,2.69v.49H115.4v.17a3.31,3.31,0,0,0,.78,2.25,2.46,2.46,0,0,0,1.94.89,2.86,2.86,0,0,0,1.24-.25,2.78,2.78,0,0,0,1-.82l.55.42A3.19,3.19,0,0,1,118.08,107.39Zm-.16-7.47a2.19,2.19,0,0,0-1.66.73,3.36,3.36,0,0,0-.83,1.95h4.76v-.1a3,3,0,0,0-.66-1.86A2,2,0,0,0,117.92,99.92Z"/><path d="M123.56,99.32l0,1.29a3,3,0,0,1,1.1-1.08,3.13,3.13,0,0,1,1.47-.35,2.22,2.22,0,0,1,2.38,1.53,2.92,2.92,0,0,1,1.13-1.13,3.14,3.14,0,0,1,1.57-.4c1.7,0,2.56.92,2.6,2.78v5.29H133V102a2.33,2.33,0,0,0-.46-1.57,1.87,1.87,0,0,0-1.47-.51,2.3,2.3,0,0,0-1.59.61,2.15,2.15,0,0,0-.73,1.45v5.25h-.88V102a2.12,2.12,0,0,0-.48-1.52,1.88,1.88,0,0,0-1.45-.5,2.17,2.17,0,0,0-1.42.47,2.71,2.71,0,0,0-.88,1.4v5.44h-.88V99.32Z"/><path d="M136,97a.58.58,0,0,1,.6-.59.57.57,0,0,1,.44.18.57.57,0,0,1,.17.41.57.57,0,0,1-.17.42.6.6,0,0,1-.44.17.59.59,0,0,1-.44-.17A.57.57,0,0,1,136,97Zm1,10.22h-.88V99.32H137Z"/><path d="M144.17,105.23a1.24,1.24,0,0,0-.53-1,3.93,3.93,0,0,0-1.58-.62,6.8,6.8,0,0,1-1.63-.52,2.15,2.15,0,0,1-.87-.7,1.76,1.76,0,0,1-.28-1,1.89,1.89,0,0,1,.78-1.55,3.19,3.19,0,0,1,2-.61,3.24,3.24,0,0,1,2.13.65,2.12,2.12,0,0,1,.8,1.71h-.88a1.43,1.43,0,0,0-.58-1.16,2.35,2.35,0,0,0-1.47-.46,2.29,2.29,0,0,0-1.39.39,1.17,1.17,0,0,0-.52,1,1.07,1.07,0,0,0,.44.92,4.78,4.78,0,0,0,1.58.59,7.62,7.62,0,0,1,1.73.58,2.27,2.27,0,0,1,.86.74,2,2,0,0,1,.27,1,1.9,1.9,0,0,1-.8,1.6,4.06,4.06,0,0,1-4.36-.07A2,2,0,0,1,139,105h.88a1.54,1.54,0,0,0,.64,1.2,2.71,2.71,0,0,0,1.58.42,2.47,2.47,0,0,0,1.48-.4A1.21,1.21,0,0,0,144.17,105.23Z"/><path d="M147,97a.6.6,0,0,1,.16-.41.57.57,0,0,1,.44-.18.58.58,0,0,1,.45.18.56.56,0,0,1,.16.41.57.57,0,0,1-.16.42.61.61,0,0,1-.45.17A.57.57,0,0,1,147,97Zm1,10.22h-.88V99.32H148Z"/><path d="M151.8,96.09h1.06l-1.69,2h-.77Zm-.46,11.16h-.88V99.32h.88Z"/><path d="M157.24,108.16h-.8l4.45-11.58h.8Z"/><path d="M167.76,99.32l0,1.29a3,3,0,0,1,1.1-1.08,3.13,3.13,0,0,1,1.47-.35,2.22,2.22,0,0,1,2.38,1.53,2.92,2.92,0,0,1,1.13-1.13,3.14,3.14,0,0,1,1.57-.4c1.7,0,2.57.92,2.6,2.78v5.29h-.88V102a2.33,2.33,0,0,0-.46-1.57,1.86,1.86,0,0,0-1.46-.51,2.32,2.32,0,0,0-1.6.61,2.15,2.15,0,0,0-.73,1.45v5.25H172V102a2.16,2.16,0,0,0-.47-1.52,1.9,1.9,0,0,0-1.46-.5,2.19,2.19,0,0,0-1.42.47,2.71,2.71,0,0,0-.88,1.4v5.44h-.88V99.32Z"/><path d="M181.24,107.25h-.88V96h.88Z"/><path d="M183.27,103.21a4.77,4.77,0,0,1,.82-2.94,2.66,2.66,0,0,1,2.24-1.09,2.76,2.76,0,0,1,2.45,1.26V96h.87v11.25h-.82l0-1.06a2.82,2.82,0,0,1-2.47,1.2,2.62,2.62,0,0,1-2.21-1.1,4.79,4.79,0,0,1-.84-3Zm.89.16a4.19,4.19,0,0,0,.6,2.39,2,2,0,0,0,1.72.87,2.35,2.35,0,0,0,2.3-1.43v-3.72a2.35,2.35,0,0,0-2.29-1.54,2,2,0,0,0-1.72.87A4.4,4.4,0,0,0,184.16,103.37Z"/><path d="M191.88,106.72a.63.63,0,0,1,.16-.44.59.59,0,0,1,.46-.18.6.6,0,0,1,.46.18.64.64,0,0,1,.17.44.57.57,0,0,1-.17.42.64.64,0,0,1-.46.17.62.62,0,0,1-.46-.17A.57.57,0,0,1,191.88,106.72Z"/><path d="M205.56,103.37a4.84,4.84,0,0,1-.82,2.94,2.63,2.63,0,0,1-2.2,1.08,3,3,0,0,1-2.49-1.14v4h-.87v-11H200l0,1.12a2.8,2.8,0,0,1,2.48-1.26,2.62,2.62,0,0,1,2.23,1.07,4.89,4.89,0,0,1,.81,3Zm-.88-.16a4.09,4.09,0,0,0-.62-2.39,2,2,0,0,0-1.74-.88,2.33,2.33,0,0,0-2.27,1.51v3.81a2.36,2.36,0,0,0,.9,1,2.67,2.67,0,0,0,1.38.35,2,2,0,0,0,1.73-.88A4.46,4.46,0,0,0,204.68,103.21Z"/><path d="M207,103.17a4.61,4.61,0,0,1,.44-2.06,3.35,3.35,0,0,1,1.25-1.43,3.45,3.45,0,0,1,1.84-.5,3.27,3.27,0,0,1,2.56,1.11,4.3,4.3,0,0,1,1,2.94v.18a4.76,4.76,0,0,1-.44,2.07,3.39,3.39,0,0,1-1.25,1.42,3.45,3.45,0,0,1-1.84.49,3.27,3.27,0,0,1-2.56-1.11,4.25,4.25,0,0,1-1-2.94Zm.87.24a3.59,3.59,0,0,0,.74,2.33,2.49,2.49,0,0,0,3.85,0,3.72,3.72,0,0,0,.74-2.4v-.17a3.91,3.91,0,0,0-.34-1.66,2.63,2.63,0,0,0-.94-1.17,2.4,2.4,0,0,0-1.39-.42,2.36,2.36,0,0,0-1.92.92,3.77,3.77,0,0,0-.74,2.41Z"/><path d="M218.26,106l2.41-6.72h.9l-3,7.93h-.71l-3-7.93h.9Z"/><path d="M222.41,103.17a4.75,4.75,0,0,1,.44-2.06,3.31,3.31,0,0,1,3.09-1.93,3.24,3.24,0,0,1,2.56,1.11,4.25,4.25,0,0,1,1,2.94v.18a4.63,4.63,0,0,1-.45,2.07,3.33,3.33,0,0,1-1.25,1.42,3.41,3.41,0,0,1-1.83.49,3.25,3.25,0,0,1-2.56-1.11,4.25,4.25,0,0,1-1-2.94Zm.88.24a3.54,3.54,0,0,0,.74,2.33,2.49,2.49,0,0,0,3.85,0,3.71,3.71,0,0,0,.73-2.4v-.17a4.07,4.07,0,0,0-.33-1.66,2.65,2.65,0,0,0-.95-1.17,2.38,2.38,0,0,0-1.39-.42,2.34,2.34,0,0,0-1.91.92,3.77,3.77,0,0,0-.74,2.41Z"/><path d="M232.28,107.25h-.88V96h.88Z"/><path d="M237.73,107.39a3.37,3.37,0,0,1-3.1-1.88,4.27,4.27,0,0,1-.46-2v-.31a4.59,4.59,0,0,1,.45-2.06,3.47,3.47,0,0,1,1.23-1.44,3,3,0,0,1,1.71-.52,2.83,2.83,0,0,1,2.29,1,4,4,0,0,1,.85,2.69v.49H235v.17a3.31,3.31,0,0,0,.78,2.25,2.46,2.46,0,0,0,1.94.89,2.83,2.83,0,0,0,1.24-.25,2.78,2.78,0,0,0,1-.82l.55.42A3.19,3.19,0,0,1,237.73,107.39Zm-.17-7.47a2.21,2.21,0,0,0-1.66.73,3.36,3.36,0,0,0-.83,1.95h4.76v-.1a3,3,0,0,0-.65-1.86A2,2,0,0,0,237.56,99.92Z"/><path d="M243.24,99.32l0,1.36a3.22,3.22,0,0,1,1.11-1.12,2.89,2.89,0,0,1,1.48-.38,2.38,2.38,0,0,1,1.89.71,3.2,3.2,0,0,1,.63,2.16v5.2h-.87V102a2.35,2.35,0,0,0-.45-1.58,1.77,1.77,0,0,0-1.42-.52,2.23,2.23,0,0,0-1.44.51,3,3,0,0,0-.92,1.37v5.43h-.87V99.32Z"/><path d="M250.59,97a.57.57,0,0,1,.17-.41.54.54,0,0,1,.43-.18.58.58,0,0,1,.45.18.56.56,0,0,1,.16.41.57.57,0,0,1-.16.42.61.61,0,0,1-.45.17.56.56,0,0,1-.43-.17A.57.57,0,0,1,250.59,97Zm1,10.22h-.88V99.32h.88Z"/><path d="M257.08,107.39a3.37,3.37,0,0,1-3.1-1.88,4.39,4.39,0,0,1-.46-2v-.31a4.59,4.59,0,0,1,.45-2.06,3.47,3.47,0,0,1,1.23-1.44,3,3,0,0,1,1.72-.52,2.83,2.83,0,0,1,2.28,1,4,4,0,0,1,.85,2.69v.49H254.4v.17a3.31,3.31,0,0,0,.77,2.25,2.46,2.46,0,0,0,1.94.89,2.83,2.83,0,0,0,1.24-.25,2.78,2.78,0,0,0,1-.82l.55.42A3.19,3.19,0,0,1,257.08,107.39Zm-.16-7.47a2.21,2.21,0,0,0-1.67.73,3.36,3.36,0,0,0-.83,1.95h4.76v-.1a3,3,0,0,0-.65-1.86A2,2,0,0,0,256.92,99.92Z"/><path d="M263.64,103.26l-1,1v3h-.88V96h.88v7.2l.82-.9,3-3h1.1l-3.36,3.34,3.65,4.59h-1Z"/><path d="M5.8,19.54V14.86c0-2.85,1.61-4.54,4.31-4.54s4.31,1.69,4.31,4.54v4.68c0,2.85-1.61,4.54-4.31,4.54S5.8,22.39,5.8,19.54Zm5.83,0V14.86c0-1.25-.51-1.91-1.52-1.91s-1.52.66-1.52,1.91v4.68c0,1.25.51,1.92,1.52,1.92S11.63,20.79,11.63,19.54Z"/><path d="M17.18,10.55H20l1.2,6.29c.19,1,.42,2.6.55,3.7h.07c.14-1.1.37-2.73.56-3.7l1.19-6.29h2.8l-3.16,13.3H20.33Z"/><path d="M36.52,21.29v2.56H29.47V10.55h6.86v2.57H32.17v2.75H36v2.47H32.17v2.95Z"/><path d="M43.91,19.39H43v4.46h-2.7V10.55h3.86c2.64,0,4.2,1.64,4.2,4.43a4.22,4.22,0,0,1-1.84,3.84l2.5,5H46ZM43,16.82h1.12c1,0,1.46-.64,1.46-1.84s-.51-1.86-1.46-1.86H43Z"/><path d="M59.2,21.29v2.56h-7V10.55H59v2.57H54.85v2.75h3.79v2.47H54.85v2.95Z"/><path d="M71.42,10.55v13.3H68.76L66.52,18.7l-1.2-3.25,0,.06c.2,1.67.34,4.16.34,5.64v2.7H63V10.55h2.66l2.52,5.78c.33.83.63,1.71,1,2.54l.06-.05a45.76,45.76,0,0,1-.38-5.19V10.55Z"/><path d="M82.73,21.29v2.56h-7V10.55h6.86v2.57H78.38v2.75h3.78v2.47H78.38v2.95Zm-3.27-12H77.67l1.79-2.6H81.6Z"/><path d="M99.22,21.29v2.56h-7V10.55H99v2.57H94.87v2.75h3.78v2.47H94.87v2.95Z"/><path d="M114.4,10.55v13.3h-2.64V20.58c.07-1.61.13-3.23.21-4.84l-.1,0-1.2,3.5L110,21h-2.66l-.66-1.8-1.2-3.5-.1,0c.06,1.61.14,3.23.19,4.84v3.27H103V10.55h2.72l2.09,5c.26.66.72,1.82.87,2.31h.08c.15-.49.61-1.65.87-2.31l2.09-5Z"/><path d="M121.35,10.55v13.3h-2.69V10.55Z"/><path d="M124.79,20h2.78c0,1.07.53,1.52,1.38,1.52s1.33-.51,1.33-1.17c0-2.21-5.2-2.47-5.2-6.52,0-2,1.42-3.51,3.87-3.51a3.61,3.61,0,0,1,3.94,3.91h-2.78c0-.87-.4-1.31-1.18-1.31s-1.12.38-1.12,1c0,2.09,5.28,2.22,5.28,6.46,0,2.18-1.53,3.78-4.18,3.78A3.79,3.79,0,0,1,124.79,20Z"/><path d="M139.12,10.55v13.3h-2.7V10.55Z"/><path d="M150.42,21.29v2.56h-7V10.55h6.86v2.57h-4.16v2.75h3.78v2.47h-3.78v2.95Z"/><path d="M159.49,19.78V14.62c0-2.82,1.52-4.33,4.12-4.33s4.14,1.51,4.23,4.33h-2.69c-.08-1.22-.54-1.71-1.56-1.71-.82,0-1.29.53-1.29,1.71v5.16c0,1.14.45,1.68,1.29,1.68,1,0,1.52-.5,1.6-1.68h2.69c0,2.8-1.59,4.3-4.29,4.3S159.49,22.58,159.49,19.78Z"/><path d="M171,19.54V14.86c0-2.85,1.62-4.54,4.31-4.54s4.32,1.69,4.32,4.54v4.68c0,2.85-1.62,4.54-4.32,4.54S171,22.39,171,19.54Zm5.83,0V14.86c0-1.25-.51-1.91-1.52-1.91s-1.52.66-1.52,1.91v4.68c0,1.25.52,1.92,1.52,1.92S176.79,20.79,176.79,19.54Z"/><path d="M182.54,25.25c0-2.46,2.77-3.57,2.77-4.87a.61.61,0,0,0-.61-.67c-.4,0-.64.29-.66.81h-1.42c.06-1.48.81-2.23,2.06-2.23a2,2,0,0,1,2.13,2c0,2-2.69,3.3-2.69,4.47h2.72v1.4h-4.3Z"/><path d="M200.05,21.65h-2.81l-.43,2.2H194l3.19-13.3h2.89l3.19,13.3h-2.79Zm-.53-2.57-.3-1.52c-.17-.95-.4-2.56-.53-3.65h-.08c-.13,1.09-.34,2.7-.53,3.65l-.31,1.52Z"/><path d="M217,21.65h-2.81l-.44,2.2H211l3.19-13.3h2.89l3.19,13.3h-2.79Zm-.53-2.57-.31-1.52c-.17-.95-.39-2.56-.53-3.65h-.07c-.14,1.09-.35,2.7-.54,3.65l-.3,1.52Z"/><path d="M230.06,21.29v2.56h-6.65V10.55h2.69V21.29Z"/><path d="M232.87,19.54V14.86c0-2.85,1.61-4.54,4.31-4.54s4.31,1.69,4.31,4.54v4.68c0,2.85-1.61,4.54-4.31,4.54S232.87,22.39,232.87,19.54Zm5.83,0V14.86c0-1.25-.51-1.91-1.52-1.91s-1.52.66-1.52,1.91v4.68c0,1.25.51,1.92,1.52,1.92S238.7,20.79,238.7,19.54Z"/><path d="M248.77,18.82,248,20v3.84h-2.66V10.55H248v5.09l.68-1.48,1.86-3.61h3.08l-3.38,5.81,3.95,7.49h-3Z"/><path d="M256.62,19.54V14.86c0-2.85,1.61-4.54,4.31-4.54s4.31,1.69,4.31,4.54v4.68c0,2.85-1.61,4.54-4.31,4.54S256.62,22.39,256.62,19.54Zm5.83,0V14.86c0-1.25-.51-1.91-1.52-1.91s-1.52.66-1.52,1.91v4.68c0,1.25.51,1.92,1.52,1.92S262.45,20.79,262.45,19.54Z"/><path d="M268,10.55h2.79l1.2,6.29c.19,1,.42,2.6.55,3.7h.07c.14-1.1.37-2.73.56-3.7l1.19-6.29h2.8L274,23.85h-2.85Z"/><path d="M284.56,21.65h-2.81l-.43,2.2h-2.8l3.2-13.3h2.88l3.19,13.3H285ZM284,19.08l-.3-1.52c-.17-.95-.4-2.56-.53-3.65h-.08c-.13,1.09-.34,2.7-.53,3.65l-.3,1.52Z"/><path d="M299.4,10.55v13.3h-2.66L294.5,18.7l-1.19-3.25-.06.06a53.69,53.69,0,0,1,.34,5.64v2.7h-2.66V10.55h2.66l2.53,5.78c.32.83.62,1.71.95,2.54l.05-.05a48.21,48.21,0,0,1-.38-5.19V10.55Z"/><path d="M310.71,21.29v2.56h-7V10.55h6.86v2.57h-4.16v2.75h3.78v2.47h-3.78v2.95Zm-3.27-12h-1.78l1.78-2.6h2.15Z"/><path d="M328.4,15.07c0,2.83-1.64,4.51-4.39,4.51h-1.16v4.27h-2.7V10.55H324C326.76,10.55,328.4,12.22,328.4,15.07Zm-2.78,0c0-1.29-.57-2-1.65-2h-1.12V17H324C325.05,17,325.62,16.35,325.62,15.07Z"/><path d="M331.63,19.54V14.86c0-2.85,1.61-4.54,4.31-4.54s4.31,1.69,4.31,4.54v4.68c0,2.85-1.61,4.54-4.31,4.54S331.63,22.39,331.63,19.54Zm5.83,0V14.86c0-1.25-.51-1.91-1.52-1.91s-1.52.66-1.52,1.91v4.68c0,1.25.51,1.92,1.52,1.92S337.46,20.79,337.46,19.54Z"/><path d="M343,10.55h2.79l1.2,6.29c.19,1,.42,2.6.55,3.7h.08c.13-1.1.36-2.73.55-3.7l1.19-6.29h2.8L349,23.85h-2.85Z"/><path d="M354.92,19.54V14.86c0-2.85,1.62-4.54,4.31-4.54s4.32,1.69,4.32,4.54v4.68c0,2.85-1.62,4.54-4.32,4.54S354.92,22.39,354.92,19.54Zm5.83,0V14.86c0-1.25-.51-1.91-1.52-1.91s-1.51.66-1.51,1.91v4.68c0,1.25.51,1.92,1.51,1.92S360.75,20.79,360.75,19.54Z"/><path d="M374.07,21.29v2.56h-6.65V10.55h2.7V21.29Z"/><path d="M384.31,21.29v2.56h-7V10.55h6.85v2.57H380v2.75h3.79v2.47H380v2.95Z"/><path d="M396.53,10.55v13.3h-2.66l-2.24-5.15-1.2-3.25-.05.06c.2,1.67.34,4.16.34,5.64v2.7h-2.66V10.55h2.66l2.53,5.78c.32.83.62,1.71.94,2.54l.06-.05a45.76,45.76,0,0,1-.38-5.19V10.55Z"/><path d="M404.19,18.82,403.45,20v3.84h-2.66V10.55h2.66v5.09l.68-1.48L406,10.55h3.08l-3.38,5.81,3.95,7.49h-3Z"/><path d="M415.06,19.9l-3.14-9.35h2.79l1.09,3.69c.13.43.43,1.48.57,2.12h.07c.15-.64.46-1.69.61-2.18l1.05-3.63h2.79l-3.14,9.35v4h-2.69Z"/><g class="cls-10"><g id="patch_47" data-name="patch 47"><path class="cls-11" d="M36.74,357.05H68.66V151.78H36.74Z"/></g><g id="patch_48" data-name="patch 48"><path class="cls-11" d="M68.66,357.05h31.91V153.56H68.66Z"/></g><g id="patch_49" data-name="patch 49"><path class="cls-11" d="M100.57,357.05h31.91V142.2H100.57Z"/></g><g id="patch_50" data-name="patch 50"><path class="cls-11" d="M132.48,357.05h31.91V159.45H132.48Z"/></g><g id="patch_51" data-name="patch 51"><path class="cls-11" d="M164.39,357.05H196.3V155.66H164.39Z"/></g><g id="patch_52" data-name="patch 52"><path class="cls-11" d="M196.3,357.05h31.91V152.58H196.3Z"/></g><g id="patch_53" data-name="patch 53"><path class="cls-11" d="M228.21,357.05h31.92V150.57H228.21Z"/></g><g id="patch_54" data-name="patch 54"><path class="cls-11" d="M260.13,357.05H292V137H260.13Z"/></g><g id="patch_55" data-name="patch 55"><path class="cls-11" d="M292,357.05H324V145.37H292Z"/></g><g id="patch_56" data-name="patch 56"><path class="cls-11" d="M324,357.05h31.91V199.94H324Z"/></g><g id="patch_57" data-name="patch 57"><path class="cls-11" d="M355.86,357.05h31.91V203.76H355.86Z"/></g><g id="patch_58" data-name="patch 58"><path class="cls-11" d="M387.77,357.05h31.92V201.11H387.77Z"/></g><g id="patch_59" data-name="patch 59"><path class="cls-11" d="M419.69,357.05H451.6V182.53H419.69Z"/></g><g id="patch_60" data-name="patch 60"><path class="cls-11" d="M451.6,357.05h31.91V189.9H451.6Z"/></g><g id="patch_61" data-name="patch 61"><path class="cls-11" d="M483.51,357.05h31.91V224.85H483.51Z"/></g></g></svg>