<svg id="Layer_1" data-name="Layer 1" xmlns="http://www.w3.org/2000/svg" xmlns:xlink="http://www.w3.org/1999/xlink" viewBox="0 0 724.69 446.3"><defs><style>.cls-1,.cls-10,.cls-4,.cls-5,.cls-6,.cls-7,.cls-9{fill:none;}.cls-2{clip-path:url(#clip-path);}.cls-3{fill:#87bbde;}.cls-4,.cls-9{stroke:#fff;}.cls-10,.cls-4,.cls-7,.cls-9{stroke-miterlimit:10;}.cls-4{stroke-width:1.11px;}.cls-5{stroke:#666;stroke-width:0.66px;}.cls-5,.cls-6{stroke-linecap:square;}.cls-6{stroke:#808285;stroke-linejoin:round;stroke-width:0.3px;stroke-dasharray:5.69 5.69;}.cls-10,.cls-7{stroke:#000;}.cls-7{stroke-width:2.21px;}.cls-8{fill:#e8e3e7;}.cls-10{stroke-width:2px;}.cls-11{fill:#97c1de;}.cls-12{fill:#999;}.cls-13{fill:#76b4de;}.cls-14{opacity:0.1;}.cls-15{clip-path:url(#clip-path-3);}</style><clipPath id="clip-path" transform="translate(-5.65 -10)"><rect class="cls-1" width="740" height="467.68"/></clipPath><clipPath id="clip-path-3" transform="translate(-5.65 -10)"><rect class="cls-1" x="49.47" y="159.81" width="680.49" height="230.68"/></clipPath></defs><g class="cls-2"><rect class="cls-3" x="44.01" y="173.44" width="45.34" height="206.49"/><rect class="cls-4" x="44.01" y="173.44" width="45.34" height="206.49"/><rect class="cls-3" x="89.35" y="171.21" width="45.34" height="208.72"/><rect class="cls-4" x="89.35" y="171.21" width="45.34" height="208.72"/><rect class="cls-3" x="134.7" y="157.99" width="45.34" height="221.94"/><rect class="cls-4" x="134.7" y="157.99" width="45.34" height="221.94"/><rect class="cls-3" x="180.04" y="162.61" width="45.34" height="217.32"/><rect class="cls-4" x="180.04" y="162.61" width="45.34" height="217.32"/><rect class="cls-3" x="225.38" y="187.22" width="45.34" height="192.71"/><rect class="cls-4" x="225.38" y="187.22" width="45.34" height="192.71"/><rect class="cls-3" x="270.72" y="181.15" width="45.34" height="198.78"/><rect class="cls-4" x="270.72" y="181.15" width="45.34" height="198.78"/><rect class="cls-3" x="316.06" y="184.68" width="45.34" height="195.25"/><rect class="cls-4" x="316.06" y="184.68" width="45.34" height="195.25"/><rect class="cls-3" x="361.4" y="179.9" width="45.34" height="200.03"/><rect class="cls-4" x="361.4" y="179.9" width="45.34" height="200.03"/><rect class="cls-3" x="406.74" y="178.81" width="45.34" height="201.12"/><rect class="cls-4" x="406.74" y="178.81" width="45.34" height="201.12"/><rect class="cls-3" x="452.08" y="188.35" width="45.34" height="191.58"/><rect class="cls-4" x="452.08" y="188.35" width="45.34" height="191.58"/><rect class="cls-3" x="497.42" y="189.21" width="45.34" height="190.72"/><rect class="cls-4" x="497.42" y="189.21" width="45.34" height="190.72"/><rect class="cls-3" x="542.77" y="194.15" width="45.34" height="185.78"/><rect class="cls-4" x="542.77" y="194.15" width="45.34" height="185.78"/><rect class="cls-3" x="588.11" y="193.42" width="45.34" height="186.51"/><rect class="cls-4" x="588.11" y="193.42" width="45.34" height="186.51"/><rect class="cls-3" x="633.45" y="200.45" width="45.34" height="179.48"/><rect class="cls-4" x="633.45" y="200.45" width="45.34" height="179.48"/><rect class="cls-3" x="678.79" y="216.05" width="45.34" height="163.88"/><rect class="cls-4" x="678.79" y="216.05" width="45.34" height="163.88"/><path d="M63.73,412.73H57.05v-.67l3.66-4.15A10,10,0,0,0,62,406.18a2.9,2.9,0,0,0,.35-1.32,2.13,2.13,0,0,0-.6-1.6,2.18,2.18,0,0,0-1.63-.59,2.29,2.29,0,0,0-1.74.68,2.49,2.49,0,0,0-.66,1.79h-.87a3.35,3.35,0,0,1,.4-1.64,2.94,2.94,0,0,1,1.16-1.16,3.44,3.44,0,0,1,1.71-.42,3.19,3.19,0,0,1,2.29.77,2.71,2.71,0,0,1,.82,2.09,3.59,3.59,0,0,1-.46,1.64,12.49,12.49,0,0,1-1.64,2.21l-3,3.36h5.6Z" transform="translate(-5.65 -10)"/><path d="M71.79,408.28a5.93,5.93,0,0,1-.82,3.43,2.8,2.8,0,0,1-2.44,1.17,2.85,2.85,0,0,1-2.43-1.15,5.67,5.67,0,0,1-.86-3.34v-1.91a5.82,5.82,0,0,1,.83-3.4,3.16,3.16,0,0,1,4.86,0,5.47,5.47,0,0,1,.86,3.29Zm-.87-1.91a5.2,5.2,0,0,0-.6-2.77,2,2,0,0,0-1.81-.93,2,2,0,0,0-1.78.91,5,5,0,0,0-.62,2.7v2.1a5.24,5.24,0,0,0,.62,2.79,2,2,0,0,0,1.8,1,2,2,0,0,0,1.77-.95,5.19,5.19,0,0,0,.62-2.77Z" transform="translate(-5.65 -10)"/><path d="M80.11,408.28a5.92,5.92,0,0,1-.83,3.43,2.79,2.79,0,0,1-2.44,1.17,2.83,2.83,0,0,1-2.42-1.15,5.74,5.74,0,0,1-.87-3.34v-1.91a5.74,5.74,0,0,1,.84-3.4,3.15,3.15,0,0,1,4.85,0,5.54,5.54,0,0,1,.87,3.29Zm-.88-1.91a5.2,5.2,0,0,0-.6-2.77,2.21,2.21,0,0,0-3.59,0,5,5,0,0,0-.62,2.7v2.1a5.24,5.24,0,0,0,.62,2.79,2,2,0,0,0,1.8,1,2,2,0,0,0,1.78-.95,5.29,5.29,0,0,0,.61-2.77Z" transform="translate(-5.65 -10)"/><path d="M82.58,407.26l.52-5.2h5.34v.82H83.86l-.38,3.6a3.5,3.5,0,0,1,2-.59,3,3,0,0,1,2.3.94,3.58,3.58,0,0,1,.86,2.5,3.78,3.78,0,0,1-.84,2.62,3,3,0,0,1-2.35.93,3.21,3.21,0,0,1-2.25-.78,3.15,3.15,0,0,1-1-2.18h.84a2.55,2.55,0,0,0,.74,1.66,2.38,2.38,0,0,0,1.66.56,2.11,2.11,0,0,0,1.73-.73,3.26,3.26,0,0,0,.58-2.06,2.82,2.82,0,0,0-.65-1.92,2.27,2.27,0,0,0-1.78-.74,3.53,3.53,0,0,0-1.09.16,3.14,3.14,0,0,0-1,.61Z" transform="translate(-5.65 -10)"/><path d="M154.32,412.73h-6.68v-.67l3.65-4.15a9,9,0,0,0,1.26-1.73,2.78,2.78,0,0,0,.35-1.32,2.16,2.16,0,0,0-.59-1.6,2.19,2.19,0,0,0-1.63-.59,2.29,2.29,0,0,0-1.74.68,2.45,2.45,0,0,0-.67,1.79h-.87a3.35,3.35,0,0,1,.41-1.64,2.88,2.88,0,0,1,1.16-1.16,3.44,3.44,0,0,1,1.71-.42,3.17,3.17,0,0,1,2.28.77,2.72,2.72,0,0,1,.83,2.09,3.62,3.62,0,0,1-.47,1.64,12.34,12.34,0,0,1-1.63,2.21l-3,3.36h5.61Z" transform="translate(-5.65 -10)"/><path d="M162.38,408.28a5.92,5.92,0,0,1-.83,3.43,2.79,2.79,0,0,1-2.44,1.17,2.83,2.83,0,0,1-2.42-1.15,5.74,5.74,0,0,1-.87-3.34v-1.91a5.74,5.74,0,0,1,.84-3.4,2.81,2.81,0,0,1,2.44-1.16,2.84,2.84,0,0,1,2.42,1.12,5.62,5.62,0,0,1,.86,3.29Zm-.88-1.91a5.2,5.2,0,0,0-.6-2.77,2.21,2.21,0,0,0-3.59,0,5,5,0,0,0-.61,2.7v2.1a5.25,5.25,0,0,0,.61,2.79,2,2,0,0,0,1.8,1,2,2,0,0,0,1.78-.95,5.19,5.19,0,0,0,.61-2.77Z" transform="translate(-5.65 -10)"/><path d="M170.69,408.28a5.93,5.93,0,0,1-.82,3.43,3.14,3.14,0,0,1-4.87,0,5.67,5.67,0,0,1-.86-3.34v-1.91a5.82,5.82,0,0,1,.83-3.4,3.16,3.16,0,0,1,4.86,0,5.55,5.55,0,0,1,.86,3.29Zm-.88-1.91a5.31,5.31,0,0,0-.59-2.77,2.22,2.22,0,0,0-3.6,0,5,5,0,0,0-.61,2.7v2.1a5.24,5.24,0,0,0,.62,2.79,2,2,0,0,0,1.8,1,2,2,0,0,0,1.77-.95,5.1,5.1,0,0,0,.61-2.77Z" transform="translate(-5.65 -10)"/><path d="M179.15,402.57l-4.56,10.16h-.92l4.53-9.92h-6.06v-.75h7Z" transform="translate(-5.65 -10)"/><path d="M244.9,412.73h-6.68v-.67l3.66-4.15a10,10,0,0,0,1.26-1.73,2.9,2.9,0,0,0,.35-1.32,2.13,2.13,0,0,0-.6-1.6,2.18,2.18,0,0,0-1.63-.59,2.29,2.29,0,0,0-1.74.68,2.49,2.49,0,0,0-.66,1.79H238a3.35,3.35,0,0,1,.4-1.64,2.94,2.94,0,0,1,1.16-1.16,3.44,3.44,0,0,1,1.71-.42,3.19,3.19,0,0,1,2.29.77,2.71,2.71,0,0,1,.82,2.09,3.59,3.59,0,0,1-.46,1.64,12.49,12.49,0,0,1-1.64,2.21l-3,3.36h5.6Z" transform="translate(-5.65 -10)"/><path d="M253,408.28a5.93,5.93,0,0,1-.82,3.43,2.8,2.8,0,0,1-2.44,1.17,2.85,2.85,0,0,1-2.43-1.15,5.67,5.67,0,0,1-.86-3.34v-1.91a5.82,5.82,0,0,1,.83-3.4,3.16,3.16,0,0,1,4.86,0,5.47,5.47,0,0,1,.86,3.29Zm-.87-1.91a5.2,5.2,0,0,0-.6-2.77,2,2,0,0,0-1.81-.93,2,2,0,0,0-1.78.91,5,5,0,0,0-.62,2.7v2.1a5.24,5.24,0,0,0,.62,2.79,2,2,0,0,0,1.8,1,2,2,0,0,0,1.77-.95,5.19,5.19,0,0,0,.62-2.77Z" transform="translate(-5.65 -10)"/><path d="M261.28,408.28a5.92,5.92,0,0,1-.83,3.43,2.79,2.79,0,0,1-2.44,1.17,2.83,2.83,0,0,1-2.42-1.15,5.74,5.74,0,0,1-.87-3.34v-1.91a5.74,5.74,0,0,1,.84-3.4,3.15,3.15,0,0,1,4.85,0,5.54,5.54,0,0,1,.87,3.29Zm-.88-1.91a5.2,5.2,0,0,0-.6-2.77,2.21,2.21,0,0,0-3.59,0,5,5,0,0,0-.62,2.7v2.1a5.24,5.24,0,0,0,.62,2.79,2,2,0,0,0,1.8,1,2,2,0,0,0,1.78-.95,5.29,5.29,0,0,0,.61-2.77Z" transform="translate(-5.65 -10)"/><path d="M268.63,407.79a3.29,3.29,0,0,1-1.16,1.07,3.15,3.15,0,0,1-1.51.37,2.84,2.84,0,0,1-1.61-.46,3.12,3.12,0,0,1-1.07-1.3,4.17,4.17,0,0,1-.38-1.81,4.49,4.49,0,0,1,.4-1.92,3.19,3.19,0,0,1,1.14-1.34,3,3,0,0,1,1.68-.48,3,3,0,0,1,2.5,1.12,5.07,5.07,0,0,1,.89,3.19V407a6.57,6.57,0,0,1-1.23,4.34,4.64,4.64,0,0,1-3.76,1.45h-.16v-.76h.31a3.86,3.86,0,0,0,2.9-1.09A4.58,4.58,0,0,0,268.63,407.79Zm-2.56.68a2.58,2.58,0,0,0,1.58-.52,2.91,2.91,0,0,0,1-1.35v-.51a4.13,4.13,0,0,0-.68-2.52,2.18,2.18,0,0,0-1.83-.89,2.07,2.07,0,0,0-1.7.84,3.22,3.22,0,0,0-.67,2.1,3.17,3.17,0,0,0,.64,2A2,2,0,0,0,266.07,408.47Z" transform="translate(-5.65 -10)"/><path d="M335.49,412.73h-6.68v-.67l3.65-4.15a9,9,0,0,0,1.26-1.73,2.78,2.78,0,0,0,.35-1.32,2.16,2.16,0,0,0-.59-1.6,2.19,2.19,0,0,0-1.63-.59,2.29,2.29,0,0,0-1.74.68,2.45,2.45,0,0,0-.67,1.79h-.87a3.35,3.35,0,0,1,.41-1.64,2.88,2.88,0,0,1,1.16-1.16,3.44,3.44,0,0,1,1.71-.42,3.18,3.18,0,0,1,2.28.77,2.72,2.72,0,0,1,.83,2.09,3.62,3.62,0,0,1-.47,1.64,12.34,12.34,0,0,1-1.63,2.21l-3,3.36h5.61Z" transform="translate(-5.65 -10)"/><path d="M343.55,408.28a5.92,5.92,0,0,1-.83,3.43,2.79,2.79,0,0,1-2.44,1.17,2.83,2.83,0,0,1-2.42-1.15,5.74,5.74,0,0,1-.87-3.34v-1.91a5.74,5.74,0,0,1,.84-3.4,2.81,2.81,0,0,1,2.44-1.16,2.84,2.84,0,0,1,2.42,1.12,5.62,5.62,0,0,1,.86,3.29Zm-.88-1.91a5.2,5.2,0,0,0-.6-2.77,2.21,2.21,0,0,0-3.59,0,5,5,0,0,0-.61,2.7v2.1a5.25,5.25,0,0,0,.61,2.79,2,2,0,0,0,1.8,1,2,2,0,0,0,1.78-.95,5.19,5.19,0,0,0,.61-2.77Z" transform="translate(-5.65 -10)"/><path d="M349.51,412.73h-.88v-9.61l-2.9,1.08v-.82l3.64-1.35h.14Z" transform="translate(-5.65 -10)"/><path d="M357.82,412.73H357v-9.61l-2.9,1.08v-.82l3.63-1.35h.14Z" transform="translate(-5.65 -10)"/><path d="M426.07,412.73h-6.68v-.67l3.66-4.15a10,10,0,0,0,1.26-1.73,2.9,2.9,0,0,0,.35-1.32,2.13,2.13,0,0,0-.6-1.6,2.18,2.18,0,0,0-1.63-.59,2.29,2.29,0,0,0-1.74.68,2.49,2.49,0,0,0-.66,1.79h-.87a3.35,3.35,0,0,1,.4-1.64,2.94,2.94,0,0,1,1.16-1.16,3.44,3.44,0,0,1,1.71-.42,3.19,3.19,0,0,1,2.29.77,2.71,2.71,0,0,1,.82,2.09,3.59,3.59,0,0,1-.46,1.64,12.49,12.49,0,0,1-1.64,2.21l-3,3.36h5.6Z" transform="translate(-5.65 -10)"/><path d="M434.13,408.28a5.93,5.93,0,0,1-.82,3.43,2.8,2.8,0,0,1-2.44,1.17,2.85,2.85,0,0,1-2.43-1.15,5.67,5.67,0,0,1-.86-3.34v-1.91a5.74,5.74,0,0,1,.84-3.4,2.79,2.79,0,0,1,2.43-1.16,2.82,2.82,0,0,1,2.42,1.12,5.47,5.47,0,0,1,.86,3.29Zm-.87-1.91a5.2,5.2,0,0,0-.6-2.77,2,2,0,0,0-1.81-.93,2,2,0,0,0-1.78.91,5,5,0,0,0-.62,2.7v2.1a5.24,5.24,0,0,0,.62,2.79,2,2,0,0,0,1.8,1,2,2,0,0,0,1.77-.95,5.19,5.19,0,0,0,.62-2.77Z" transform="translate(-5.65 -10)"/><path d="M440.1,412.73h-.88v-9.61l-2.9,1.08v-.82L440,402h.15Z" transform="translate(-5.65 -10)"/><path d="M446.28,406.92h.91a3,3,0,0,0,1.31-.27,1.87,1.87,0,0,0,1.16-1.8,2.16,2.16,0,0,0-.58-1.61,2.26,2.26,0,0,0-1.66-.57,2.4,2.4,0,0,0-1.68.6,2,2,0,0,0-.66,1.59h-.87a2.81,2.81,0,0,1,1.57-2.57,3.56,3.56,0,0,1,1.64-.37,3.19,3.19,0,0,1,2.29.79,2.87,2.87,0,0,1,.83,2.17,2.26,2.26,0,0,1-.49,1.41,2.82,2.82,0,0,1-1.33,1,2.83,2.83,0,0,1,1.51,1,2.61,2.61,0,0,1,.51,1.62,2.86,2.86,0,0,1-.9,2.2,3.33,3.33,0,0,1-2.38.84,3.91,3.91,0,0,1-1.75-.39,2.84,2.84,0,0,1-1.23-1.06,2.92,2.92,0,0,1-.44-1.59h.88a2.13,2.13,0,0,0,.71,1.65,2.63,2.63,0,0,0,1.83.65,2.54,2.54,0,0,0,1.77-.59,2.17,2.17,0,0,0,.63-1.68,2,2,0,0,0-.69-1.64,3.13,3.13,0,0,0-2-.56h-.88Z" transform="translate(-5.65 -10)"/><path d="M516.66,412.73H510v-.67l3.65-4.15a9,9,0,0,0,1.26-1.73,2.9,2.9,0,0,0,.35-1.32,2.16,2.16,0,0,0-.59-1.6,2.19,2.19,0,0,0-1.63-.59,2.29,2.29,0,0,0-1.74.68,2.45,2.45,0,0,0-.67,1.79h-.87a3.35,3.35,0,0,1,.41-1.64,2.88,2.88,0,0,1,1.16-1.16,3.44,3.44,0,0,1,1.71-.42,3.18,3.18,0,0,1,2.28.77,2.72,2.72,0,0,1,.83,2.09,3.62,3.62,0,0,1-.47,1.64,12.34,12.34,0,0,1-1.63,2.21l-3,3.36h5.61Z" transform="translate(-5.65 -10)"/><path d="M524.72,408.28a5.92,5.92,0,0,1-.83,3.43,2.79,2.79,0,0,1-2.44,1.17,2.83,2.83,0,0,1-2.42-1.15,5.74,5.74,0,0,1-.87-3.34v-1.91a5.74,5.74,0,0,1,.84-3.4,2.81,2.81,0,0,1,2.44-1.16,2.84,2.84,0,0,1,2.42,1.12,5.62,5.62,0,0,1,.86,3.29Zm-.88-1.91a5.2,5.2,0,0,0-.6-2.77,2.21,2.21,0,0,0-3.59,0,5,5,0,0,0-.61,2.7v2.1a5.25,5.25,0,0,0,.61,2.79,2,2,0,0,0,1.8,1,2,2,0,0,0,1.78-.95,5.29,5.29,0,0,0,.61-2.77Z" transform="translate(-5.65 -10)"/><path d="M530.68,412.73h-.88v-9.61l-2.9,1.08v-.82l3.64-1.35h.14Z" transform="translate(-5.65 -10)"/><path d="M535.51,407.26l.52-5.2h5.33v.82h-4.58l-.37,3.6a3.48,3.48,0,0,1,2-.59,3,3,0,0,1,2.3.94,3.58,3.58,0,0,1,.85,2.5,3.83,3.83,0,0,1-.83,2.62,3,3,0,0,1-2.35.93,3.25,3.25,0,0,1-2.26-.78,3.19,3.19,0,0,1-1-2.18H536a2.6,2.6,0,0,0,.74,1.66,2.41,2.41,0,0,0,1.67.56,2.09,2.09,0,0,0,1.72-.73,3.2,3.2,0,0,0,.58-2.06,2.78,2.78,0,0,0-.65-1.92,2.26,2.26,0,0,0-1.78-.74,3.51,3.51,0,0,0-1.08.16,3,3,0,0,0-1,.61Z" transform="translate(-5.65 -10)"/><path d="M607.24,412.73h-6.68v-.67l3.66-4.15a10,10,0,0,0,1.26-1.73,2.9,2.9,0,0,0,.35-1.32,2.13,2.13,0,0,0-.6-1.6,2.18,2.18,0,0,0-1.63-.59,2.29,2.29,0,0,0-1.74.68,2.49,2.49,0,0,0-.66,1.79h-.87a3.35,3.35,0,0,1,.4-1.64,2.94,2.94,0,0,1,1.16-1.16,3.44,3.44,0,0,1,1.71-.42,3.19,3.19,0,0,1,2.29.77,2.71,2.71,0,0,1,.82,2.09,3.59,3.59,0,0,1-.46,1.64,12.49,12.49,0,0,1-1.64,2.21l-3,3.36h5.6Z" transform="translate(-5.65 -10)"/><path d="M615.3,408.28a5.93,5.93,0,0,1-.82,3.43,2.8,2.8,0,0,1-2.44,1.17,2.85,2.85,0,0,1-2.43-1.15,5.67,5.67,0,0,1-.86-3.34v-1.91a5.82,5.82,0,0,1,.83-3.4,3.16,3.16,0,0,1,4.86,0,5.47,5.47,0,0,1,.86,3.29Zm-.87-1.91a5.2,5.2,0,0,0-.6-2.77,2,2,0,0,0-1.81-.93,2,2,0,0,0-1.78.91,5,5,0,0,0-.62,2.7v2.1a5.24,5.24,0,0,0,.62,2.79,2,2,0,0,0,1.8,1,2,2,0,0,0,1.77-.95,5.19,5.19,0,0,0,.62-2.77Z" transform="translate(-5.65 -10)"/><path d="M621.27,412.73h-.88v-9.61l-2.9,1.08v-.82l3.63-1.35h.15Z" transform="translate(-5.65 -10)"/><path d="M632.07,402.57l-4.56,10.16h-.91l4.52-9.92h-6.06v-.75h7Z" transform="translate(-5.65 -10)"/><path d="M697.83,412.73h-6.68v-.67l3.65-4.15a9,9,0,0,0,1.26-1.73,2.9,2.9,0,0,0,.35-1.32,2.16,2.16,0,0,0-.59-1.6,2.19,2.19,0,0,0-1.63-.59,2.29,2.29,0,0,0-1.74.68,2.45,2.45,0,0,0-.67,1.79h-.87a3.35,3.35,0,0,1,.41-1.64,2.88,2.88,0,0,1,1.16-1.16,3.44,3.44,0,0,1,1.71-.42,3.18,3.18,0,0,1,2.28.77,2.72,2.72,0,0,1,.83,2.09,3.62,3.62,0,0,1-.47,1.64,12.34,12.34,0,0,1-1.63,2.21l-3,3.36h5.61Z" transform="translate(-5.65 -10)"/><path d="M705.89,408.28a5.92,5.92,0,0,1-.83,3.43,2.79,2.79,0,0,1-2.44,1.17,2.83,2.83,0,0,1-2.42-1.15,5.74,5.74,0,0,1-.87-3.34v-1.91a5.74,5.74,0,0,1,.84-3.4,2.81,2.81,0,0,1,2.44-1.16A2.84,2.84,0,0,1,705,403a5.62,5.62,0,0,1,.86,3.29Zm-.88-1.91a5.2,5.2,0,0,0-.6-2.77,2.21,2.21,0,0,0-3.59,0,5,5,0,0,0-.61,2.7v2.1a5.25,5.25,0,0,0,.61,2.79,2,2,0,0,0,1.8,1,2,2,0,0,0,1.78-.95,5.29,5.29,0,0,0,.61-2.77Z" transform="translate(-5.65 -10)"/><path d="M711.85,412.73H711v-9.61l-2.9,1.08v-.82l3.64-1.35h.14Z" transform="translate(-5.65 -10)"/><path d="M721.56,407.79a3.32,3.32,0,0,1-1.17,1.07,3.1,3.1,0,0,1-1.51.37,2.81,2.81,0,0,1-1.6-.46,3.22,3.22,0,0,1-1.08-1.3,4.31,4.31,0,0,1-.38-1.81,4.5,4.5,0,0,1,.41-1.92,3.24,3.24,0,0,1,1.13-1.34,3.28,3.28,0,0,1,4.18.64,5,5,0,0,1,.9,3.19V407a6.57,6.57,0,0,1-1.23,4.34,4.67,4.67,0,0,1-3.76,1.45h-.16v-.76h.31a3.88,3.88,0,0,0,2.91-1.09A4.68,4.68,0,0,0,721.56,407.79Zm-2.57.68a2.54,2.54,0,0,0,1.58-.52,2.78,2.78,0,0,0,1-1.35v-.51a4.13,4.13,0,0,0-.67-2.52,2.2,2.2,0,0,0-1.83-.89,2.1,2.1,0,0,0-1.71.84,3.28,3.28,0,0,0-.66,2.1,3.17,3.17,0,0,0,.64,2A2,2,0,0,0,719,408.47Z" transform="translate(-5.65 -10)"/><line class="cls-5" x1="38.66" y1="379.93" x2="724.13" y2="379.93"/><line class="cls-6" x1="0.15" y1="379.93" x2="724.13" y2="379.93"/><line class="cls-6" x1="0.15" y1="328.67" x2="724.13" y2="328.67"/><line class="cls-6" x1="0.15" y1="277.4" x2="724.13" y2="277.4"/><line class="cls-6" x1="0.15" y1="226.14" x2="724.13" y2="226.14"/><line class="cls-6" x1="0.15" y1="174.88" x2="724.13" y2="174.88"/><line class="cls-6" x1="0.15" y1="123.62" x2="724.13" y2="123.62"/><line class="cls-7" x1="89.35" y1="165.76" x2="44.01" y2="165.76"/><line class="cls-7" x1="134.69" y1="167.62" x2="89.35" y2="167.62"/><line class="cls-7" x1="180.04" y1="155.77" x2="134.69" y2="155.77"/><line class="cls-7" x1="225.38" y1="174.88" x2="180.04" y2="174.88"/><line class="cls-7" x1="270.72" y1="169.81" x2="225.38" y2="169.81"/><line class="cls-7" x1="316.06" y1="166.6" x2="270.72" y2="166.6"/><line class="cls-7" x1="361.4" y1="164.5" x2="316.06" y2="164.5"/><line class="cls-7" x1="406.74" y1="150.36" x2="361.4" y2="150.36"/><line class="cls-7" x1="452.08" y1="159.07" x2="406.74" y2="159.07"/><line class="cls-7" x1="497.42" y1="216.01" x2="452.08" y2="216.01"/><line class="cls-7" x1="542.77" y1="219.99" x2="497.42" y2="219.99"/><line class="cls-7" x1="588.11" y1="217.23" x2="542.77" y2="217.23"/><line class="cls-7" x1="633.45" y1="197.85" x2="588.11" y2="197.85"/><line class="cls-7" x1="678.79" y1="205.54" x2="633.45" y2="205.54"/><line class="cls-7" x1="724.13" y1="242" x2="678.79" y2="242"/><path d="M7.91,447.88,6,447.24l.19-.59,1.94.72,0-2.16h.61l0,2.18,1.9-.74.19.59-2,.67,1.31,1.72-.5.37-1.26-1.78L7.14,450l-.5-.36Z" transform="translate(-5.65 -10)"/><path d="M15.21,453.13h5.27v.61H14.33v-.55l5.07-7.37H14.49v-.61h5.8v.51Z" transform="translate(-5.65 -10)"/><path d="M25.9,453.74a3.44,3.44,0,0,1-.13-.89,2.44,2.44,0,0,1-.94.74,2.8,2.8,0,0,1-1.21.26,2.16,2.16,0,0,1-1.48-.5,1.66,1.66,0,0,1-.57-1.29,1.71,1.71,0,0,1,.77-1.47,3.72,3.72,0,0,1,2.15-.54h1.27v-.72a1.39,1.39,0,0,0-.42-1.07,1.72,1.72,0,0,0-1.22-.39,1.9,1.9,0,0,0-1.21.38,1.11,1.11,0,0,0-.48.9h-.71a1.64,1.64,0,0,1,.71-1.31,2.75,2.75,0,0,1,1.73-.55,2.5,2.5,0,0,1,1.67.53,1.89,1.89,0,0,1,.63,1.48v3a3.76,3.76,0,0,0,.19,1.38v.07Zm-2.2-.51a2.33,2.33,0,0,0,1.26-.34,2,2,0,0,0,.8-.9v-1.4H24.51a3.23,3.23,0,0,0-1.64.38,1.16,1.16,0,0,0-.6,1,1.14,1.14,0,0,0,.4.88A1.46,1.46,0,0,0,23.7,453.23Z" transform="translate(-5.65 -10)"/><path d="M31.26,448a2.44,2.44,0,0,0-.48-.05,1.73,1.73,0,0,0-1.11.37,2,2,0,0,0-.65,1.06v4.36h-.69V447.4H29v1a1.88,1.88,0,0,1,1.79-1.13,1.12,1.12,0,0,1,.46.08Z" transform="translate(-5.65 -10)"/><path d="M32.32,445.57a.49.49,0,0,1,.13-.34.48.48,0,0,1,.35-.13.48.48,0,0,1,.36.13.45.45,0,0,1,.13.34.44.44,0,0,1-.13.33.48.48,0,0,1-.36.13.48.48,0,0,1-.35-.13A.49.49,0,0,1,32.32,445.57Zm.83,8.17h-.7V447.4h.7Z" transform="translate(-5.65 -10)"/><path d="M39.06,453.74a3.37,3.37,0,0,1-.14-.89,2.44,2.44,0,0,1-.94.74,2.77,2.77,0,0,1-1.21.26,2.17,2.17,0,0,1-1.48-.5,1.65,1.65,0,0,1-.56-1.29,1.69,1.69,0,0,1,.77-1.47,3.68,3.68,0,0,1,2.14-.54h1.28v-.72a1.39,1.39,0,0,0-.42-1.07,1.75,1.75,0,0,0-1.23-.39,1.92,1.92,0,0,0-1.21.38,1.11,1.11,0,0,0-.48.9h-.7a1.63,1.63,0,0,1,.7-1.31,2.77,2.77,0,0,1,1.73-.55,2.48,2.48,0,0,1,1.67.53,1.89,1.89,0,0,1,.63,1.48v3a3.72,3.72,0,0,0,.2,1.38v.07Zm-2.21-.51a2.33,2.33,0,0,0,1.26-.34,2,2,0,0,0,.81-.9v-1.4H37.66A3.26,3.26,0,0,0,36,451a1.17,1.17,0,0,0-.59,1,1.13,1.13,0,0,0,.39.88A1.48,1.48,0,0,0,36.85,453.23Z" transform="translate(-5.65 -10)"/><path d="M41.2,450.51a3.79,3.79,0,0,1,.66-2.35,2.12,2.12,0,0,1,1.79-.88,2.23,2.23,0,0,1,2,1v-3.55h.69v9h-.65l0-.85a2.27,2.27,0,0,1-2,1,2.12,2.12,0,0,1-1.77-.88,3.8,3.8,0,0,1-.67-2.38Zm.71.12a3.29,3.29,0,0,0,.49,1.92,1.58,1.58,0,0,0,1.37.7,1.91,1.91,0,0,0,1.84-1.15v-3a1.88,1.88,0,0,0-1.83-1.24,1.6,1.6,0,0,0-1.38.69A3.55,3.55,0,0,0,41.91,450.63Z" transform="translate(-5.65 -10)"/><path d="M50.52,453.85a2.77,2.77,0,0,1-1.46-.39,2.73,2.73,0,0,1-1-1.11,3.52,3.52,0,0,1-.36-1.6v-.25a3.84,3.84,0,0,1,.35-1.65,2.86,2.86,0,0,1,1-1.15,2.43,2.43,0,0,1,1.37-.42,2.27,2.27,0,0,1,1.83.79,3.19,3.19,0,0,1,.68,2.15v.39H48.38v.14a2.67,2.67,0,0,0,.61,1.8,2,2,0,0,0,1.56.71,2.36,2.36,0,0,0,1-.2,2.31,2.31,0,0,0,.79-.66l.43.34A2.55,2.55,0,0,1,50.52,453.85Zm-.13-6a1.73,1.73,0,0,0-1.33.58A2.69,2.69,0,0,0,48.4,450h3.8v-.08a2.34,2.34,0,0,0-.52-1.49A1.63,1.63,0,0,0,50.39,447.88Z" transform="translate(-5.65 -10)"/><path d="M54.85,447.4l0,1.08a2.53,2.53,0,0,1,.89-.89,2.29,2.29,0,0,1,1.18-.31,1.91,1.91,0,0,1,1.52.57,2.61,2.61,0,0,1,.5,1.73v4.16h-.7v-4.17a1.88,1.88,0,0,0-.36-1.26,1.39,1.39,0,0,0-1.13-.42,1.78,1.78,0,0,0-1.15.41,2.36,2.36,0,0,0-.74,1.1v4.34h-.7V447.4Z" transform="translate(-5.65 -10)"/><path d="M60.65,445.57a.45.45,0,0,1,.13-.34.45.45,0,0,1,.35-.13.46.46,0,0,1,.35.13.45.45,0,0,1,.13.34.44.44,0,0,1-.13.33.46.46,0,0,1-.35.13.45.45,0,0,1-.48-.46Zm.82,8.17h-.7V447.4h.7Z" transform="translate(-5.65 -10)"/><path d="M67.3,453.74a3.37,3.37,0,0,1-.14-.89,2.37,2.37,0,0,1-.94.74,2.77,2.77,0,0,1-1.21.26,2.17,2.17,0,0,1-1.48-.5,1.65,1.65,0,0,1-.56-1.29,1.69,1.69,0,0,1,.77-1.47,3.68,3.68,0,0,1,2.14-.54h1.28v-.72a1.39,1.39,0,0,0-.42-1.07,1.75,1.75,0,0,0-1.23-.39,1.92,1.92,0,0,0-1.21.38,1.11,1.11,0,0,0-.48.9h-.7a1.63,1.63,0,0,1,.7-1.31,2.77,2.77,0,0,1,1.73-.55,2.48,2.48,0,0,1,1.67.53,1.89,1.89,0,0,1,.63,1.48v3a3.72,3.72,0,0,0,.2,1.38v.07Zm-2.21-.51a2.33,2.33,0,0,0,1.26-.34,2,2,0,0,0,.81-.9v-1.4H65.9a3.26,3.26,0,0,0-1.64.38,1.17,1.17,0,0,0-.59,1,1.13,1.13,0,0,0,.39.88A1.48,1.48,0,0,0,65.09,453.23Z" transform="translate(-5.65 -10)"/><path d="M73.19,447.4l0,1a2.34,2.34,0,0,1,.88-.86,2.42,2.42,0,0,1,1.17-.29,1.77,1.77,0,0,1,1.9,1.23,2.41,2.41,0,0,1,.91-.91,2.55,2.55,0,0,1,1.25-.32c1.36,0,2.06.74,2.09,2.23v4.23h-.71v-4.18a1.86,1.86,0,0,0-.36-1.26,1.52,1.52,0,0,0-1.18-.41,1.89,1.89,0,0,0-1.28.49,1.78,1.78,0,0,0-.58,1.16v4.2h-.7v-4.23a1.73,1.73,0,0,0-.38-1.22,1.54,1.54,0,0,0-1.17-.4,1.75,1.75,0,0,0-1.13.38,2.22,2.22,0,0,0-.71,1.12v4.35h-.7V447.4Z" transform="translate(-5.65 -10)"/><path d="M82.8,450.47a3.66,3.66,0,0,1,.36-1.64,2.65,2.65,0,0,1,1-1.14,2.71,2.71,0,0,1,1.47-.41,2.61,2.61,0,0,1,2.05.89,3.42,3.42,0,0,1,.78,2.35v.15a3.7,3.7,0,0,1-.35,1.65,2.72,2.72,0,0,1-1,1.14,2.78,2.78,0,0,1-1.47.39,2.62,2.62,0,0,1-2-.88,3.45,3.45,0,0,1-.79-2.36Zm.71.2a2.8,2.8,0,0,0,.59,1.86,2,2,0,0,0,3.08,0,3,3,0,0,0,.59-1.92v-.14a3.26,3.26,0,0,0-.27-1.33,2.13,2.13,0,0,0-.76-.93,1.91,1.91,0,0,0-1.11-.33,1.86,1.86,0,0,0-1.53.73,3,3,0,0,0-.59,1.93Z" transform="translate(-5.65 -10)"/><path d="M90.61,448.47a2.47,2.47,0,0,1,.88-.88,2.31,2.31,0,0,1,1.18-.31,1.91,1.91,0,0,1,1.52.57,2.61,2.61,0,0,1,.5,1.73v4.16H94v-4.17a1.93,1.93,0,0,0-.37-1.26,1.39,1.39,0,0,0-1.13-.42,1.78,1.78,0,0,0-1.15.41,2.36,2.36,0,0,0-.74,1.1v4.34h-.7v-9h.7Z" transform="translate(-5.65 -10)"/><path d="M97.28,453.74h-.7v-9h.7Z" transform="translate(-5.65 -10)"/><path d="M99.15,445.57a.43.43,0,0,1,.48-.47.48.48,0,0,1,.35.13.45.45,0,0,1,.13.34.44.44,0,0,1-.13.33.48.48,0,0,1-.35.13.43.43,0,0,1-.48-.46Zm.82,8.17h-.7V447.4h.7Z" transform="translate(-5.65 -10)"/><path d="M108.59,452.13a1,1,0,0,0-.42-.84,3.26,3.26,0,0,0-1.26-.5,5.5,5.5,0,0,1-1.31-.41,1.72,1.72,0,0,1-.69-.56,1.41,1.41,0,0,1-.23-.81,1.51,1.51,0,0,1,.63-1.24,2.51,2.51,0,0,1,1.61-.49,2.62,2.62,0,0,1,1.7.53,1.68,1.68,0,0,1,.64,1.36h-.7a1.12,1.12,0,0,0-.47-.92,2.1,2.1,0,0,0-2.29-.06,1,1,0,0,0-.41.8.86.86,0,0,0,.34.73,4,4,0,0,0,1.28.48,6.09,6.09,0,0,1,1.38.46,1.82,1.82,0,0,1,.68.59,1.64,1.64,0,0,1-.42,2.12,2.79,2.79,0,0,1-1.69.48,2.83,2.83,0,0,1-1.8-.53,1.65,1.65,0,0,1-.69-1.36h.7a1.26,1.26,0,0,0,.52,1,2.12,2.12,0,0,0,1.27.34,2,2,0,0,0,1.18-.32A1,1,0,0,0,108.59,452.13Z" transform="translate(-5.65 -10)"/><path d="M112.84,452.77l1.93-5.37h.72l-2.36,6.34h-.57l-2.38-6.34h.72Z" transform="translate(-5.65 -10)"/><path d="M116.18,450.47a3.66,3.66,0,0,1,.36-1.64,2.65,2.65,0,0,1,1-1.14,2.71,2.71,0,0,1,1.47-.41,2.63,2.63,0,0,1,2,.89,3.42,3.42,0,0,1,.78,2.35v.15a3.84,3.84,0,0,1-.35,1.65,2.72,2.72,0,0,1-1,1.14,2.78,2.78,0,0,1-1.47.39,2.62,2.62,0,0,1-2-.88,3.45,3.45,0,0,1-.79-2.36Zm.71.2a2.85,2.85,0,0,0,.58,1.86,2,2,0,0,0,3.09,0,3,3,0,0,0,.59-1.92v-.14a3.26,3.26,0,0,0-.27-1.33,2.2,2.2,0,0,0-.76-.93,1.93,1.93,0,0,0-1.11-.33,1.86,1.86,0,0,0-1.53.73,3,3,0,0,0-.59,1.93Z" transform="translate(-5.65 -10)"/><path d="M124,447.4v7.09a2,2,0,0,1-.42,1.35,1.61,1.61,0,0,1-1.24.46,1.88,1.88,0,0,1-.62-.11l0-.58a1.82,1.82,0,0,0,.52.08q1,0,1-1.2V447.4Zm-.34-2.3a.47.47,0,1,1,0,.93.45.45,0,0,1-.35-.13.49.49,0,0,1-.13-.33.49.49,0,0,1,.13-.34A.45.45,0,0,1,123.63,445.1Z" transform="translate(-5.65 -10)"/><path d="M128.34,453.85a2.77,2.77,0,0,1-1.46-.39,2.73,2.73,0,0,1-1-1.11,3.52,3.52,0,0,1-.36-1.6v-.25a3.7,3.7,0,0,1,.35-1.65,2.86,2.86,0,0,1,1-1.15,2.43,2.43,0,0,1,1.37-.42,2.27,2.27,0,0,1,1.83.79,3.19,3.19,0,0,1,.68,2.15v.39h-4.53v.14a2.68,2.68,0,0,0,.62,1.8,2,2,0,0,0,1.56.71,2.4,2.4,0,0,0,1-.2,2.19,2.19,0,0,0,.78-.66l.44.34A2.55,2.55,0,0,1,128.34,453.85Zm-.13-6a1.73,1.73,0,0,0-1.33.58,2.57,2.57,0,0,0-.66,1.56H130v-.08a2.34,2.34,0,0,0-.52-1.49A1.63,1.63,0,0,0,128.21,447.88Z" transform="translate(-5.65 -10)"/><path d="M137.38,453.85a2.8,2.8,0,0,1-1.46-.39,2.88,2.88,0,0,1-1-1.11,3.52,3.52,0,0,1-.36-1.6v-.25a3.7,3.7,0,0,1,.36-1.65,2.76,2.76,0,0,1,1-1.15,2.43,2.43,0,0,1,1.37-.42,2.27,2.27,0,0,1,1.83.79,3.13,3.13,0,0,1,.68,2.15v.39h-4.52v.14a2.63,2.63,0,0,0,.62,1.8,2,2,0,0,0,1.55.71,2.41,2.41,0,0,0,1-.2,2.37,2.37,0,0,0,.78-.66l.44.34A2.58,2.58,0,0,1,137.38,453.85Zm-.13-6a1.74,1.74,0,0,0-1.33.58,2.69,2.69,0,0,0-.66,1.56h3.8v-.08a2.34,2.34,0,0,0-.52-1.49A1.61,1.61,0,0,0,137.25,447.88Z" transform="translate(-5.65 -10)"/><path d="M141.77,447.4l0,1a2.34,2.34,0,0,1,.88-.86,2.42,2.42,0,0,1,1.17-.29,1.77,1.77,0,0,1,1.9,1.23,2.41,2.41,0,0,1,.91-.91,2.56,2.56,0,0,1,1.26-.32c1.36,0,2.05.74,2.08,2.23v4.23h-.71v-4.18a1.86,1.86,0,0,0-.36-1.26,1.5,1.5,0,0,0-1.18-.41,1.89,1.89,0,0,0-1.28.49,1.78,1.78,0,0,0-.58,1.16v4.2h-.7v-4.23a1.73,1.73,0,0,0-.38-1.22,1.52,1.52,0,0,0-1.17-.4,1.75,1.75,0,0,0-1.13.38,2.22,2.22,0,0,0-.71,1.12v4.35h-.7V447.4Z" transform="translate(-5.65 -10)"/><path d="M151.72,445.57a.45.45,0,0,1,.13-.34.46.46,0,0,1,.35-.13.48.48,0,0,1,.36.13.49.49,0,0,1,.13.34.45.45,0,0,1-.49.46.46.46,0,0,1-.35-.13A.44.44,0,0,1,151.72,445.57Zm.83,8.17h-.71V447.4h.71Z" transform="translate(-5.65 -10)"/><path d="M158.25,452.13a1,1,0,0,0-.42-.84,3.26,3.26,0,0,0-1.26-.5,5.35,5.35,0,0,1-1.31-.41,1.72,1.72,0,0,1-.69-.56,1.41,1.41,0,0,1-.23-.81,1.51,1.51,0,0,1,.63-1.24,2.48,2.48,0,0,1,1.6-.49,2.58,2.58,0,0,1,1.7.53,1.66,1.66,0,0,1,.65,1.36h-.71a1.11,1.11,0,0,0-.46-.92,1.83,1.83,0,0,0-1.18-.37,1.8,1.8,0,0,0-1.11.31.94.94,0,0,0-.42.8.87.87,0,0,0,.35.73,3.9,3.9,0,0,0,1.27.48,6,6,0,0,1,1.39.46,1.9,1.9,0,0,1,.68.59,1.63,1.63,0,0,1-.43,2.12,2.75,2.75,0,0,1-1.69.48,2.82,2.82,0,0,1-1.79-.53,1.65,1.65,0,0,1-.69-1.36h.7a1.23,1.23,0,0,0,.52,1,2.11,2.11,0,0,0,1.26.34,2,2,0,0,0,1.19-.32A1,1,0,0,0,158.25,452.13Z" transform="translate(-5.65 -10)"/><path d="M160.49,445.57a.45.45,0,0,1,.13-.34.45.45,0,0,1,.35-.13.46.46,0,0,1,.35.13.45.45,0,0,1,.13.34.44.44,0,0,1-.13.33.46.46,0,0,1-.35.13.45.45,0,0,1-.48-.46Zm.82,8.17h-.7V447.4h.7Z" transform="translate(-5.65 -10)"/><path d="M165.67,453.85a2.7,2.7,0,0,1-2.48-1.5,3.52,3.52,0,0,1-.36-1.6v-.25a3.84,3.84,0,0,1,.35-1.65,2.86,2.86,0,0,1,1-1.15,2.43,2.43,0,0,1,1.37-.42,2.27,2.27,0,0,1,1.83.79,3.13,3.13,0,0,1,.68,2.15v.39h-4.52v.14a2.63,2.63,0,0,0,.62,1.8,2,2,0,0,0,1.55.71,2.33,2.33,0,0,0,1-.2,2.31,2.31,0,0,0,.79-.66l.44.34A2.58,2.58,0,0,1,165.67,453.85Zm-.13-6a1.74,1.74,0,0,0-1.33.58,2.69,2.69,0,0,0-.66,1.56h3.8v-.08a2.34,2.34,0,0,0-.52-1.49A1.63,1.63,0,0,0,165.54,447.88Z" transform="translate(-5.65 -10)"/><path d="M177.43,450.63a3.86,3.86,0,0,1-.65,2.35,2.1,2.1,0,0,1-1.76.87,2.33,2.33,0,0,1-2-.91v3.24h-.7V447.4H173l0,.89a2.27,2.27,0,0,1,2-1,2.11,2.11,0,0,1,1.78.86,3.86,3.86,0,0,1,.65,2.39Zm-.7-.12a3.29,3.29,0,0,0-.5-1.92,1.59,1.59,0,0,0-1.39-.7,1.93,1.93,0,0,0-1.11.31,2,2,0,0,0-.7.9v3a1.8,1.8,0,0,0,.72.84,2.07,2.07,0,0,0,1.1.28,1.59,1.59,0,0,0,1.38-.7A3.57,3.57,0,0,0,176.73,450.51Z" transform="translate(-5.65 -10)"/><path d="M178.6,450.47a3.79,3.79,0,0,1,.35-1.64,2.72,2.72,0,0,1,1-1.14,2.76,2.76,0,0,1,1.47-.41,2.6,2.6,0,0,1,2.05.89,3.38,3.38,0,0,1,.79,2.35v.15a3.7,3.7,0,0,1-.36,1.65,2.65,2.65,0,0,1-1,1.14,2.78,2.78,0,0,1-1.47.39,2.59,2.59,0,0,1-2-.88,3.4,3.4,0,0,1-.79-2.36Zm.7.2a2.86,2.86,0,0,0,.59,1.86,2,2,0,0,0,3.08,0,3,3,0,0,0,.59-1.92v-.14a3.26,3.26,0,0,0-.27-1.33,2.18,2.18,0,0,0-.75-.93,2,2,0,0,0-1.12-.33,1.88,1.88,0,0,0-1.53.73,3,3,0,0,0-.59,1.93Z" transform="translate(-5.65 -10)"/><path d="M187.21,450.54l-.8.78v2.42h-.7v-9h.7v5.76l.66-.72,2.43-2.38h.88l-2.69,2.67,2.93,3.67h-.84Z" transform="translate(-5.65 -10)"/><path d="M194.51,448A2.34,2.34,0,0,0,194,448a1.73,1.73,0,0,0-1.11.37,2,2,0,0,0-.65,1.06v4.36h-.7V447.4h.69v1a1.87,1.87,0,0,1,1.79-1.13,1.15,1.15,0,0,1,.46.08Z" transform="translate(-5.65 -10)"/><path d="M197.73,452.73l1.85-5.33h.75l-2.7,7.42-.15.32a1.7,1.7,0,0,1-1.61,1.16,2.28,2.28,0,0,1-.54-.08v-.58l.36,0a1.31,1.31,0,0,0,.84-.25,2,2,0,0,0,.54-.88l.31-.86L195,447.4h.77Z" transform="translate(-5.65 -10)"/><path d="M202.51,445.77v1.63h1.31V448h-1.31v4.23a1.32,1.32,0,0,0,.19.79.73.73,0,0,0,.63.26,4.21,4.21,0,0,0,.57-.06l0,.57a2.47,2.47,0,0,1-.75.09,1.25,1.25,0,0,1-1.05-.41,2,2,0,0,1-.33-1.24V448h-1.16v-.57h1.16v-1.63Zm1.19.65-.42-.31a2.17,2.17,0,0,0,.42-1.23v-.56h.68v.37A2.22,2.22,0,0,1,203.7,446.42Z" transform="translate(-5.65 -10)"/><path d="M209.51,445.77v1.63h1.32V448h-1.32v4.23a1.39,1.39,0,0,0,.19.79.75.75,0,0,0,.64.26,4.21,4.21,0,0,0,.57-.06l0,.57a2.56,2.56,0,0,1-.75.09,1.25,1.25,0,0,1-1.05-.41,2,2,0,0,1-.33-1.24V448h-1.16v-.57h1.16v-1.63Z" transform="translate(-5.65 -10)"/><path d="M216.28,453.74a3.44,3.44,0,0,1-.13-.89,2.44,2.44,0,0,1-.94.74,2.8,2.8,0,0,1-1.21.26,2.16,2.16,0,0,1-1.48-.5,1.66,1.66,0,0,1-.57-1.29,1.71,1.71,0,0,1,.77-1.47,3.72,3.72,0,0,1,2.15-.54h1.27v-.72a1.39,1.39,0,0,0-.42-1.07,1.72,1.72,0,0,0-1.22-.39,1.9,1.9,0,0,0-1.21.38,1.11,1.11,0,0,0-.48.9h-.71a1.64,1.64,0,0,1,.71-1.31,2.75,2.75,0,0,1,1.73-.55,2.5,2.5,0,0,1,1.67.53,1.89,1.89,0,0,1,.63,1.48v3a3.76,3.76,0,0,0,.19,1.38v.07Zm-2.2-.51a2.33,2.33,0,0,0,1.26-.34,2,2,0,0,0,.8-.9v-1.4h-1.25a3.23,3.23,0,0,0-1.64.38,1.16,1.16,0,0,0-.6,1,1.14,1.14,0,0,0,.4.88A1.46,1.46,0,0,0,214.08,453.23Z" transform="translate(-5.65 -10)"/><path d="M220.21,450.54l-.8.78v2.42h-.7v-9h.7v5.76l.66-.72,2.43-2.38h.88l-2.69,2.67,2.93,3.67h-.84Z" transform="translate(-5.65 -10)"/><path d="M225.57,445.77v1.63h1.31V448h-1.31v4.23a1.32,1.32,0,0,0,.19.79.73.73,0,0,0,.63.26,4.21,4.21,0,0,0,.57-.06l0,.57a2.47,2.47,0,0,1-.75.09,1.25,1.25,0,0,1-1.05-.41,2,2,0,0,1-.33-1.24V448H223.7v-.57h1.16v-1.63Z" transform="translate(-5.65 -10)"/><path d="M228.29,445.57a.45.45,0,0,1,.13-.34.46.46,0,0,1,.35-.13.48.48,0,0,1,.36.13.49.49,0,0,1,.13.34.45.45,0,0,1-.49.46.46.46,0,0,1-.35-.13A.44.44,0,0,1,228.29,445.57Zm.83,8.17h-.71V447.4h.71Z" transform="translate(-5.65 -10)"/><path d="M233.48,453.85a2.84,2.84,0,0,1-1.47-.39,2.78,2.78,0,0,1-1-1.11,3.52,3.52,0,0,1-.37-1.6v-.25a3.7,3.7,0,0,1,.36-1.65,2.78,2.78,0,0,1,1-1.15,2.41,2.41,0,0,1,1.37-.42,2.27,2.27,0,0,1,1.83.79,3.18,3.18,0,0,1,.67,2.15v.39h-4.52v.14a2.68,2.68,0,0,0,.62,1.8,2,2,0,0,0,1.56.71,2.4,2.4,0,0,0,1-.2,2.19,2.19,0,0,0,.78-.66l.44.34A2.56,2.56,0,0,1,233.48,453.85Zm-.13-6a1.77,1.77,0,0,0-1.34.58,2.69,2.69,0,0,0-.66,1.56h3.81v-.08a2.39,2.39,0,0,0-.52-1.49A1.63,1.63,0,0,0,233.35,447.88Z" transform="translate(-5.65 -10)"/><path d="M237.68,453.15h4.12v.59h-5v-.52l3.84-5.21h-3.73v-.61h4.61v.52Zm1.62-7.2,1-1.14h.63v.07l-1.39,1.53h-.5l-1.38-1.53v-.07h.62Z" transform="translate(-5.65 -10)"/><path d="M246.61,447.4l0,1a2.27,2.27,0,0,1,.88-.86,2.42,2.42,0,0,1,1.17-.29,1.77,1.77,0,0,1,1.9,1.23,2.41,2.41,0,0,1,.91-.91,2.55,2.55,0,0,1,1.25-.32c1.36,0,2.06.74,2.08,2.23v4.23h-.7v-4.18a1.86,1.86,0,0,0-.37-1.26,1.5,1.5,0,0,0-1.17-.41,1.89,1.89,0,0,0-1.28.49,1.73,1.73,0,0,0-.58,1.16v4.2H250v-4.23a1.78,1.78,0,0,0-.38-1.22,1.54,1.54,0,0,0-1.17-.4,1.75,1.75,0,0,0-1.13.38,2.16,2.16,0,0,0-.71,1.12v4.35h-.7V447.4Z" transform="translate(-5.65 -10)"/><path d="M259.06,453.85a2.67,2.67,0,0,1-2.47-1.5,3.4,3.4,0,0,1-.37-1.6v-.25a3.7,3.7,0,0,1,.36-1.65,2.76,2.76,0,0,1,1-1.15,2.46,2.46,0,0,1,1.38-.42,2.3,2.3,0,0,1,1.83.79,3.18,3.18,0,0,1,.67,2.15v.39h-4.52v.14a2.68,2.68,0,0,0,.62,1.8,2,2,0,0,0,1.55.71,2.41,2.41,0,0,0,1-.2,2.37,2.37,0,0,0,.78-.66l.44.34A2.58,2.58,0,0,1,259.06,453.85Zm-.12-6a1.75,1.75,0,0,0-1.34.58,2.69,2.69,0,0,0-.66,1.56h3.81v-.08a2.34,2.34,0,0,0-.53-1.49A1.59,1.59,0,0,0,258.94,447.88Z" transform="translate(-5.65 -10)"/><path d="M262.53,450.51a3.79,3.79,0,0,1,.66-2.35,2.1,2.1,0,0,1,1.79-.88,2.21,2.21,0,0,1,1.95,1v-3.55h.7v9H267l0-.85a2.24,2.24,0,0,1-2,1,2.1,2.1,0,0,1-1.76-.88,3.8,3.8,0,0,1-.67-2.38Zm.71.12a3.37,3.37,0,0,0,.48,1.92,1.59,1.59,0,0,0,1.37.7,1.89,1.89,0,0,0,1.84-1.15v-3a1.86,1.86,0,0,0-1.83-1.24,1.6,1.6,0,0,0-1.37.69A3.55,3.55,0,0,0,263.24,450.63Z" transform="translate(-5.65 -10)"/><path d="M269.94,453.15h4.12v.59h-5v-.52l3.85-5.21h-3.73v-.61h4.61v.52Z" transform="translate(-5.65 -10)"/><path d="M275.27,445.57a.45.45,0,0,1,.13-.34.46.46,0,0,1,.35-.13.48.48,0,0,1,.36.13.49.49,0,0,1,.13.34.45.45,0,0,1-.49.46.46.46,0,0,1-.35-.13A.44.44,0,0,1,275.27,445.57Zm.83,8.17h-.71V447.4h.71Z" transform="translate(-5.65 -10)"/><path d="M278.67,447.4l0,1.08a2.53,2.53,0,0,1,.89-.89,2.29,2.29,0,0,1,1.18-.31,1.91,1.91,0,0,1,1.52.57,2.61,2.61,0,0,1,.5,1.73v4.16h-.69v-4.17a2,2,0,0,0-.36-1.26,1.42,1.42,0,0,0-1.14-.42,1.78,1.78,0,0,0-1.15.41,2.36,2.36,0,0,0-.74,1.1v4.34H278V447.4Z" transform="translate(-5.65 -10)"/><path d="M288.6,453.74a3,3,0,0,1-.14-.89,2.44,2.44,0,0,1-.94.74,2.77,2.77,0,0,1-1.21.26,2.17,2.17,0,0,1-1.48-.5,1.65,1.65,0,0,1-.56-1.29,1.69,1.69,0,0,1,.77-1.47,3.68,3.68,0,0,1,2.14-.54h1.27v-.72a1.42,1.42,0,0,0-.41-1.07,1.75,1.75,0,0,0-1.23-.39,1.92,1.92,0,0,0-1.21.38,1.11,1.11,0,0,0-.48.9h-.7a1.63,1.63,0,0,1,.7-1.31,2.77,2.77,0,0,1,1.73-.55,2.48,2.48,0,0,1,1.67.53,1.89,1.89,0,0,1,.63,1.48v3a3.72,3.72,0,0,0,.2,1.38v.07Zm-2.21-.51a2.33,2.33,0,0,0,1.26-.34,1.93,1.93,0,0,0,.8-.9v-1.4H287.2a3.23,3.23,0,0,0-1.64.38,1.17,1.17,0,0,0-.59,1,1.13,1.13,0,0,0,.39.88A1.48,1.48,0,0,0,286.39,453.23Zm1.38-8.49h.85l-1.35,1.64h-.61Z" transform="translate(-5.65 -10)"/><path d="M294,448a2.42,2.42,0,0,0-.47-.05,1.73,1.73,0,0,0-1.11.37,2,2,0,0,0-.65,1.06v4.36H291V447.4h.69v1a1.87,1.87,0,0,1,1.79-1.13,1.19,1.19,0,0,1,.46.08Z" transform="translate(-5.65 -10)"/><path d="M294.56,450.47a3.66,3.66,0,0,1,.36-1.64,2.65,2.65,0,0,1,1-1.14,2.71,2.71,0,0,1,1.47-.41,2.61,2.61,0,0,1,2.05.89,3.42,3.42,0,0,1,.78,2.35v.15a3.7,3.7,0,0,1-.35,1.65,2.72,2.72,0,0,1-1,1.14,2.78,2.78,0,0,1-1.47.39,2.62,2.62,0,0,1-2-.88,3.45,3.45,0,0,1-.79-2.36Zm.71.2a2.8,2.8,0,0,0,.59,1.86,1.86,1.86,0,0,0,1.54.73,1.89,1.89,0,0,0,1.54-.73,3,3,0,0,0,.59-1.92v-.14a3.26,3.26,0,0,0-.27-1.33,2.13,2.13,0,0,0-.76-.93,1.91,1.91,0,0,0-1.11-.33,1.86,1.86,0,0,0-1.53.73,3,3,0,0,0-.59,1.93Z" transform="translate(-5.65 -10)"/><path d="M301.39,450.51a3.79,3.79,0,0,1,.66-2.35,2.1,2.1,0,0,1,1.79-.88,2.23,2.23,0,0,1,2,1v-3.55h.69v9h-.65l0-.85a2.27,2.27,0,0,1-2,1,2.12,2.12,0,0,1-1.77-.88,3.8,3.8,0,0,1-.67-2.38Zm.71.12a3.37,3.37,0,0,0,.48,1.92,1.61,1.61,0,0,0,1.38.7,1.91,1.91,0,0,0,1.84-1.15v-3a1.88,1.88,0,0,0-1.83-1.24,1.6,1.6,0,0,0-1.38.69A3.55,3.55,0,0,0,302.1,450.63Z" transform="translate(-5.65 -10)"/><path d="M309,447.4l0,1.08a2.53,2.53,0,0,1,.89-.89,2.29,2.29,0,0,1,1.18-.31,1.93,1.93,0,0,1,1.52.57,2.61,2.61,0,0,1,.5,1.73v4.16h-.7v-4.17a1.88,1.88,0,0,0-.36-1.26,1.39,1.39,0,0,0-1.13-.42,1.78,1.78,0,0,0-1.15.41,2.29,2.29,0,0,0-.74,1.1v4.34h-.7V447.4Z" transform="translate(-5.65 -10)"/><path d="M316.94,452.73l1.85-5.33h.76l-2.71,7.42-.14.32a1.71,1.71,0,0,1-1.61,1.16,2.14,2.14,0,0,1-.54-.08v-.58l.37,0a1.28,1.28,0,0,0,.83-.25,1.85,1.85,0,0,0,.54-.88l.31-.86-2.39-6.28H315Zm.79-8h.85l-1.36,1.64h-.61Z" transform="translate(-5.65 -10)"/><path d="M321.27,447.4l0,1a2.41,2.41,0,0,1,.88-.86,2.44,2.44,0,0,1,1.17-.29,1.79,1.79,0,0,1,1.91,1.23,2.41,2.41,0,0,1,.91-.91,2.53,2.53,0,0,1,1.25-.32c1.36,0,2,.74,2.08,2.23v4.23h-.7v-4.18a1.91,1.91,0,0,0-.37-1.26,1.5,1.5,0,0,0-1.17-.41,1.87,1.87,0,0,0-1.28.49,1.73,1.73,0,0,0-.58,1.16v4.2h-.7v-4.23a1.78,1.78,0,0,0-.39-1.22,1.51,1.51,0,0,0-1.16-.4,1.8,1.8,0,0,0-1.14.38,2.21,2.21,0,0,0-.7,1.12v4.35h-.7V447.4Z" transform="translate(-5.65 -10)"/><path d="M331.23,445.57a.43.43,0,0,1,.48-.47.48.48,0,0,1,.35.13.45.45,0,0,1,.13.34.44.44,0,0,1-.13.33.48.48,0,0,1-.35.13.43.43,0,0,1-.48-.46Zm.82,8.17h-.7V447.4h.7Z" transform="translate(-5.65 -10)"/><path d="M338.38,450.54l-.8.78v2.42h-.71v-9h.71v5.76l.66-.72,2.43-2.38h.88l-2.69,2.67,2.92,3.67H341Z" transform="translate(-5.65 -10)"/><path d="M345.68,448a2.42,2.42,0,0,0-.47-.05,1.73,1.73,0,0,0-1.11.37,2,2,0,0,0-.65,1.06v4.36h-.7V447.4h.69v1a1.87,1.87,0,0,1,1.79-1.13,1.19,1.19,0,0,1,.46.08Z" transform="translate(-5.65 -10)"/><path d="M349.14,453.85a2.84,2.84,0,0,1-1.47-.39,2.78,2.78,0,0,1-1-1.11,3.4,3.4,0,0,1-.37-1.6v-.25a3.7,3.7,0,0,1,.36-1.65,2.71,2.71,0,0,1,1-1.15,2.41,2.41,0,0,1,1.37-.42,2.27,2.27,0,0,1,1.83.79,3.18,3.18,0,0,1,.67,2.15v.39H347v.14a2.68,2.68,0,0,0,.62,1.8,2,2,0,0,0,1.55.71,2.41,2.41,0,0,0,1-.2,2.28,2.28,0,0,0,.78-.66l.44.34A2.56,2.56,0,0,1,349.14,453.85Zm-.13-6a1.75,1.75,0,0,0-1.34.58A2.69,2.69,0,0,0,347,450h3.81v-.08a2.39,2.39,0,0,0-.52-1.49A1.63,1.63,0,0,0,349,447.88Z" transform="translate(-5.65 -10)"/><path d="M352.6,450.51a3.79,3.79,0,0,1,.66-2.35,2.1,2.1,0,0,1,1.79-.88,2.2,2.2,0,0,1,1.95,1v-3.55h.7v9h-.65l0-.85a2.27,2.27,0,0,1-2,1,2.12,2.12,0,0,1-1.77-.88,3.8,3.8,0,0,1-.67-2.38Zm.71.12a3.37,3.37,0,0,0,.48,1.92,1.59,1.59,0,0,0,1.37.7A1.89,1.89,0,0,0,357,452.1v-3a1.86,1.86,0,0,0-1.82-1.24,1.6,1.6,0,0,0-1.38.69A3.55,3.55,0,0,0,353.31,450.63Z" transform="translate(-5.65 -10)"/><path d="M359.51,445.57a.45.45,0,0,1,.13-.34.45.45,0,0,1,.35-.13.46.46,0,0,1,.35.13.45.45,0,0,1,.13.34.44.44,0,0,1-.13.33.46.46,0,0,1-.35.13.45.45,0,0,1-.48-.46Zm.82,8.17h-.7V447.4h.7Z" transform="translate(-5.65 -10)"/><path d="M363.33,445.77v1.63h1.31V448h-1.31v4.23a1.32,1.32,0,0,0,.19.79.73.73,0,0,0,.63.26,4.21,4.21,0,0,0,.57-.06l0,.57a2.47,2.47,0,0,1-.75.09,1.25,1.25,0,0,1-1.05-.41,2,2,0,0,1-.33-1.24V448h-1.16v-.57h1.16v-1.63Z" transform="translate(-5.65 -10)"/><path d="M366.73,447.4l0,1a2.41,2.41,0,0,1,.88-.86,2.45,2.45,0,0,1,1.18-.29,1.77,1.77,0,0,1,1.9,1.23,2.41,2.41,0,0,1,.91-.91,2.53,2.53,0,0,1,1.25-.32c1.36,0,2.05.74,2.08,2.23v4.23h-.7v-4.18a1.91,1.91,0,0,0-.37-1.26,1.5,1.5,0,0,0-1.17-.41,1.87,1.87,0,0,0-1.28.49,1.73,1.73,0,0,0-.58,1.16v4.2h-.7v-4.23a1.73,1.73,0,0,0-.39-1.22,1.51,1.51,0,0,0-1.16-.4,1.8,1.8,0,0,0-1.14.38,2.21,2.21,0,0,0-.7,1.12v4.35h-.7V447.4Z" transform="translate(-5.65 -10)"/><path d="M376.69,445.57a.45.45,0,0,1,.13-.34.45.45,0,0,1,.35-.13.46.46,0,0,1,.35.13.45.45,0,0,1,.13.34.44.44,0,0,1-.13.33.46.46,0,0,1-.35.13.45.45,0,0,1-.48-.46Zm.82,8.17h-.7V447.4h.7Z" transform="translate(-5.65 -10)"/><path d="M387.43,450.63a3.86,3.86,0,0,1-.65,2.35,2.1,2.1,0,0,1-1.76.87,2.33,2.33,0,0,1-2-.91v3.24h-.7V447.4H383l0,.89a2.27,2.27,0,0,1,2-1,2.14,2.14,0,0,1,1.79.86,3.92,3.92,0,0,1,.64,2.39Zm-.7-.12a3.29,3.29,0,0,0-.5-1.92,1.59,1.59,0,0,0-1.39-.7,1.87,1.87,0,0,0-1.1.31,2,2,0,0,0-.71.9v3a1.8,1.8,0,0,0,.72.84,2.07,2.07,0,0,0,1.1.28,1.59,1.59,0,0,0,1.38-.7A3.57,3.57,0,0,0,386.73,450.51Z" transform="translate(-5.65 -10)"/><path d="M388.6,450.47a3.79,3.79,0,0,1,.35-1.64,2.67,2.67,0,0,1,1-1.14,2.7,2.7,0,0,1,1.46-.41,2.6,2.6,0,0,1,2.05.89,3.38,3.38,0,0,1,.79,2.35v.15a3.7,3.7,0,0,1-.36,1.65,2.69,2.69,0,0,1-1,1.14,2.8,2.8,0,0,1-1.48.39,2.59,2.59,0,0,1-2-.88,3.4,3.4,0,0,1-.79-2.36Zm.7.2a2.86,2.86,0,0,0,.59,1.86,2,2,0,0,0,3.08,0,2.9,2.9,0,0,0,.59-1.92v-.14a3.26,3.26,0,0,0-.27-1.33,2.18,2.18,0,0,0-.75-.93,2,2,0,0,0-1.12-.33,1.88,1.88,0,0,0-1.53.73,3,3,0,0,0-.59,1.93Z" transform="translate(-5.65 -10)"/><path d="M395.42,450.51a3.79,3.79,0,0,1,.66-2.35,2.12,2.12,0,0,1,1.79-.88,2.21,2.21,0,0,1,2,1v-3.55h.7v9h-.66l0-.85a2.27,2.27,0,0,1-2,1,2.09,2.09,0,0,1-1.76-.88,3.8,3.8,0,0,1-.68-2.38Zm.71.12a3.37,3.37,0,0,0,.49,1.92,1.58,1.58,0,0,0,1.37.7,1.9,1.9,0,0,0,1.84-1.15v-3a1.86,1.86,0,0,0-1.83-1.24,1.57,1.57,0,0,0-1.37.69A3.54,3.54,0,0,0,396.13,450.63Z" transform="translate(-5.65 -10)"/><path d="M403.16,453.74h-.7v-9h.7Zm1.12-6.91-.41-.31a2.17,2.17,0,0,0,.42-1.23v-.56H405v.37A2.18,2.18,0,0,1,404.28,446.83Z" transform="translate(-5.65 -10)"/><path d="M409.94,453.74a3.44,3.44,0,0,1-.13-.89,2.44,2.44,0,0,1-.94.74,2.8,2.8,0,0,1-1.21.26,2.17,2.17,0,0,1-1.48-.5,1.66,1.66,0,0,1-.57-1.29,1.71,1.71,0,0,1,.77-1.47,3.72,3.72,0,0,1,2.15-.54h1.27v-.72a1.39,1.39,0,0,0-.42-1.07,1.7,1.7,0,0,0-1.22-.39,1.9,1.9,0,0,0-1.21.38,1.11,1.11,0,0,0-.48.9h-.7a1.63,1.63,0,0,1,.7-1.31,2.75,2.75,0,0,1,1.73-.55,2.48,2.48,0,0,1,1.67.53,1.89,1.89,0,0,1,.63,1.48v3a4,4,0,0,0,.19,1.38v.07Zm-2.2-.51a2.33,2.33,0,0,0,1.26-.34,1.93,1.93,0,0,0,.8-.9v-1.4h-1.25a3.23,3.23,0,0,0-1.64.38,1.15,1.15,0,0,0-.59,1,1.13,1.13,0,0,0,.39.88A1.48,1.48,0,0,0,407.74,453.23Z" transform="translate(-5.65 -10)"/><path d="M417.37,449.5l-1.2,1.18v3.06h-.72v-8.53h.72v4.6l4.37-4.6h.91L417.88,449l3.85,4.74h-.88Z" transform="translate(-5.65 -10)"/><path d="M423.61,447.4v7.09a2,2,0,0,1-.42,1.35,1.61,1.61,0,0,1-1.24.46,1.88,1.88,0,0,1-.62-.11l0-.58a1.82,1.82,0,0,0,.52.08q1,0,1.05-1.2V447.4Zm-.34-2.3a.47.47,0,1,1,0,.93.45.45,0,0,1-.35-.13.49.49,0,0,1-.13-.33.49.49,0,0,1,.13-.34A.45.45,0,0,1,423.27,445.1Z" transform="translate(-5.65 -10)"/><path d="M425.21,450.47a3.79,3.79,0,0,1,.35-1.64,2.72,2.72,0,0,1,1-1.14,2.76,2.76,0,0,1,1.47-.41,2.6,2.6,0,0,1,2.05.89,3.38,3.38,0,0,1,.79,2.35v.15a3.7,3.7,0,0,1-.36,1.65,2.65,2.65,0,0,1-1,1.14,2.78,2.78,0,0,1-1.47.39,2.59,2.59,0,0,1-2-.88,3.4,3.4,0,0,1-.79-2.36Zm.7.2a2.86,2.86,0,0,0,.59,1.86,2,2,0,0,0,3.08,0,3,3,0,0,0,.59-1.92v-.14a3.26,3.26,0,0,0-.27-1.33,2.18,2.18,0,0,0-.75-.93,2,2,0,0,0-1.12-.33,1.88,1.88,0,0,0-1.53.73,3,3,0,0,0-.59,1.93Zm2.82-5.93h.85l-1.35,1.64h-.62Z" transform="translate(-5.65 -10)"/><path d="M433.41,445.77v1.63h1.31V448h-1.31v4.23a1.32,1.32,0,0,0,.19.79.72.72,0,0,0,.63.26,4.21,4.21,0,0,0,.57-.06l0,.57a2.47,2.47,0,0,1-.75.09,1.25,1.25,0,0,1-1.05-.41,2,2,0,0,1-.33-1.24V448h-1.16v-.57h1.16v-1.63Z" transform="translate(-5.65 -10)"/><path d="M440,452.13a1,1,0,0,0-.42-.84,3.26,3.26,0,0,0-1.26-.5,5.35,5.35,0,0,1-1.31-.41,1.72,1.72,0,0,1-.69-.56,1.34,1.34,0,0,1-.23-.81,1.51,1.51,0,0,1,.63-1.24,2.48,2.48,0,0,1,1.6-.49,2.58,2.58,0,0,1,1.7.53,1.66,1.66,0,0,1,.65,1.36h-.71a1.11,1.11,0,0,0-.46-.92,1.83,1.83,0,0,0-1.18-.37,1.8,1.8,0,0,0-1.11.31.94.94,0,0,0-.42.8.87.87,0,0,0,.35.73,3.9,3.9,0,0,0,1.27.48,6,6,0,0,1,1.39.46,1.9,1.9,0,0,1,.68.59,1.63,1.63,0,0,1-.43,2.12,2.75,2.75,0,0,1-1.69.48,2.8,2.8,0,0,1-1.79-.53,1.65,1.65,0,0,1-.69-1.36h.7a1.23,1.23,0,0,0,.52,1,2.11,2.11,0,0,0,1.26.34,2,2,0,0,0,1.19-.32A1,1,0,0,0,440,452.13Z" transform="translate(-5.65 -10)"/><path d="M443.75,450.54l-.8.78v2.42h-.7v-9h.7v5.76l.66-.72L446,447.4h.88l-2.69,2.67,2.93,3.67h-.84Z" transform="translate(-5.65 -10)"/><path d="M450.47,453.85a2.77,2.77,0,0,1-1.46-.39,2.73,2.73,0,0,1-1-1.11,3.52,3.52,0,0,1-.36-1.6v-.25a3.84,3.84,0,0,1,.35-1.65,2.86,2.86,0,0,1,1-1.15,2.43,2.43,0,0,1,1.37-.42,2.27,2.27,0,0,1,1.83.79,3.19,3.19,0,0,1,.68,2.15v.39h-4.52v.14a2.67,2.67,0,0,0,.61,1.8,2,2,0,0,0,1.56.71,2.33,2.33,0,0,0,1-.2,2.31,2.31,0,0,0,.79-.66l.43.34A2.55,2.55,0,0,1,450.47,453.85Zm-.13-6a1.73,1.73,0,0,0-1.33.58,2.69,2.69,0,0,0-.66,1.56h3.8v-.08a2.34,2.34,0,0,0-.52-1.49A1.63,1.63,0,0,0,450.34,447.88Zm.78-3.14H452l-1.35,1.64H450Z" transform="translate(-5.65 -10)"/><path d="M454.91,448.47a2.5,2.5,0,0,1,.89-.88,2.28,2.28,0,0,1,1.17-.31,1.91,1.91,0,0,1,1.52.57,2.66,2.66,0,0,1,.51,1.73v4.16h-.7v-4.17a2,2,0,0,0-.36-1.26,1.42,1.42,0,0,0-1.14-.42,1.8,1.8,0,0,0-1.15.41,2.36,2.36,0,0,0-.74,1.1v4.34h-.7v-9h.7Z" transform="translate(-5.65 -10)"/><path d="M460.41,450.47a3.66,3.66,0,0,1,.36-1.64,2.65,2.65,0,0,1,1-1.14,2.71,2.71,0,0,1,1.47-.41,2.61,2.61,0,0,1,2.05.89,3.42,3.42,0,0,1,.78,2.35v.15a3.7,3.7,0,0,1-.35,1.65,2.72,2.72,0,0,1-1,1.14,2.78,2.78,0,0,1-1.47.39,2.62,2.62,0,0,1-2.05-.88,3.45,3.45,0,0,1-.79-2.36Zm.71.2a2.8,2.8,0,0,0,.59,1.86,2,2,0,0,0,3.08,0,3,3,0,0,0,.59-1.92v-.14a3.26,3.26,0,0,0-.27-1.33,2.13,2.13,0,0,0-.76-.93,1.91,1.91,0,0,0-1.11-.33,1.86,1.86,0,0,0-1.53.73,3,3,0,0,0-.59,1.93Z" transform="translate(-5.65 -10)"/><path d="M475.54,450.63a3.79,3.79,0,0,1-.66,2.35,2.09,2.09,0,0,1-1.76.87,2.35,2.35,0,0,1-2-.91v3.24h-.7V447.4h.65l0,.89a2.27,2.27,0,0,1,2-1,2.12,2.12,0,0,1,1.78.86,3.92,3.92,0,0,1,.65,2.39Zm-.71-.12a3.29,3.29,0,0,0-.49-1.92,1.62,1.62,0,0,0-1.39-.7,1.93,1.93,0,0,0-1.11.31,2,2,0,0,0-.71.9v3a1.92,1.92,0,0,0,.72.84,2.08,2.08,0,0,0,1.11.28,1.59,1.59,0,0,0,1.38-.7A3.57,3.57,0,0,0,474.83,450.51Z" transform="translate(-5.65 -10)"/><path d="M480,448a2.44,2.44,0,0,0-.48-.05,1.77,1.77,0,0,0-1.11.37,2,2,0,0,0-.64,1.06v4.36h-.7V447.4h.69v1a1.86,1.86,0,0,1,1.78-1.13,1.21,1.21,0,0,1,.47.08Z" transform="translate(-5.65 -10)"/><path d="M480.63,450.47a3.66,3.66,0,0,1,.36-1.64,2.65,2.65,0,0,1,1-1.14,2.71,2.71,0,0,1,1.47-.41,2.63,2.63,0,0,1,2.05.89,3.42,3.42,0,0,1,.78,2.35v.15a3.84,3.84,0,0,1-.35,1.65,2.72,2.72,0,0,1-1,1.14,2.78,2.78,0,0,1-1.47.39,2.62,2.62,0,0,1-2.05-.88,3.4,3.4,0,0,1-.79-2.36Zm.7.2a2.86,2.86,0,0,0,.59,1.86,2,2,0,0,0,3.09,0,3,3,0,0,0,.58-1.92v-.14a3.43,3.43,0,0,0-.26-1.33,2.2,2.2,0,0,0-.76-.93,1.93,1.93,0,0,0-1.11-.33,1.86,1.86,0,0,0-1.53.73,3,3,0,0,0-.6,1.93Z" transform="translate(-5.65 -10)"/><path d="M488.83,445.77v1.63h1.31V448h-1.31v4.23a1.32,1.32,0,0,0,.19.79.75.75,0,0,0,.64.26,4.26,4.26,0,0,0,.56-.06l0,.57a2.47,2.47,0,0,1-.75.09,1.25,1.25,0,0,1-1.05-.41,2,2,0,0,1-.32-1.24V448H487v-.57h1.17v-1.63Z" transform="translate(-5.65 -10)"/><path d="M491.1,450.47a3.66,3.66,0,0,1,.36-1.64,2.65,2.65,0,0,1,1-1.14,2.7,2.7,0,0,1,1.46-.41,2.64,2.64,0,0,1,2.06.89,3.42,3.42,0,0,1,.78,2.35v.15a3.84,3.84,0,0,1-.35,1.65,2.72,2.72,0,0,1-1,1.14,2.78,2.78,0,0,1-1.47.39,2.61,2.61,0,0,1-2.05-.88,3.4,3.4,0,0,1-.79-2.36Zm.7.2a2.86,2.86,0,0,0,.59,1.86,1.9,1.9,0,0,0,1.55.73,1.86,1.86,0,0,0,1.53-.73,2.9,2.9,0,0,0,.59-1.92v-.14a3.26,3.26,0,0,0-.27-1.33,2.18,2.18,0,0,0-.75-.93,2,2,0,0,0-1.12-.33,1.85,1.85,0,0,0-1.52.73,3,3,0,0,0-.6,1.93Z" transform="translate(-5.65 -10)"/><path d="M499.71,450.54l-.8.78v2.42h-.7v-9h.7v5.76l.66-.72L502,447.4h.88l-2.69,2.67,2.93,3.67h-.84Z" transform="translate(-5.65 -10)"/><path d="M503.7,450.47a3.79,3.79,0,0,1,.35-1.64,2.72,2.72,0,0,1,1-1.14,2.76,2.76,0,0,1,1.47-.41,2.6,2.6,0,0,1,2.05.89,3.38,3.38,0,0,1,.79,2.35v.15a3.7,3.7,0,0,1-.36,1.65,2.65,2.65,0,0,1-1,1.14,2.76,2.76,0,0,1-1.47.39,2.59,2.59,0,0,1-2-.88,3.4,3.4,0,0,1-.79-2.36Zm.7.2a2.86,2.86,0,0,0,.59,1.86,2,2,0,0,0,3.08,0,3,3,0,0,0,.59-1.92v-.14a3.26,3.26,0,0,0-.27-1.33,2.18,2.18,0,0,0-.75-.93,2,2,0,0,0-1.12-.33,1.88,1.88,0,0,0-1.53.73,3,3,0,0,0-.59,1.93Z" transform="translate(-5.65 -10)"/><path d="M511.59,453.74h-.7v-9h.7Z" transform="translate(-5.65 -10)"/><path d="M517.57,452.93a2.25,2.25,0,0,1-2,.92,2,2,0,0,1-1.54-.58,2.63,2.63,0,0,1-.54-1.75V447.4h.7v4c0,1.21.49,1.82,1.46,1.82a1.8,1.8,0,0,0,1.93-1.26V447.4h.7v6.34h-.68Z" transform="translate(-5.65 -10)"/><path d="M519.94,455.33l-.42-.3a2.6,2.6,0,0,0,.56-1.49v-.9h.68v.73A2.5,2.5,0,0,1,519.94,455.33Z" transform="translate(-5.65 -10)"/><path d="M526.81,450.54l-.81.78v2.42h-.7v-9h.7v5.76l.67-.72,2.42-2.38H530l-2.69,2.67,2.92,3.67h-.84Z" transform="translate(-5.65 -10)"/><path d="M532.27,445.77v1.63h1.31V448h-1.31v4.23a1.32,1.32,0,0,0,.19.79.75.75,0,0,0,.63.26,4.21,4.21,0,0,0,.57-.06l0,.57a2.47,2.47,0,0,1-.75.09,1.25,1.25,0,0,1-1.05-.41,2,2,0,0,1-.32-1.24V448H530.4v-.57h1.17v-1.63Z" transform="translate(-5.65 -10)"/><path d="M534.65,450.47a3.79,3.79,0,0,1,.35-1.64,2.67,2.67,0,0,1,2.47-1.55,2.6,2.6,0,0,1,2,.89,3.38,3.38,0,0,1,.79,2.35v.15a3.7,3.7,0,0,1-.36,1.65,2.65,2.65,0,0,1-1,1.14,2.78,2.78,0,0,1-1.47.39,2.59,2.59,0,0,1-2-.88,3.4,3.4,0,0,1-.79-2.36Zm.7.2a2.86,2.86,0,0,0,.59,1.86,2,2,0,0,0,3.08,0,3,3,0,0,0,.59-1.92v-.14a3.26,3.26,0,0,0-.27-1.33,2.13,2.13,0,0,0-.76-.93,1.91,1.91,0,0,0-1.11-.33,1.88,1.88,0,0,0-1.53.73,3,3,0,0,0-.59,1.93Z" transform="translate(-5.65 -10)"/><path d="M544.68,448a2.26,2.26,0,0,0-.47-.05,1.73,1.73,0,0,0-1.11.37,2,2,0,0,0-.65,1.06v4.36h-.7V447.4h.69v1a1.87,1.87,0,0,1,1.79-1.13,1.15,1.15,0,0,1,.46.08Z" transform="translate(-5.65 -10)"/><path d="M548.14,453.85a2.77,2.77,0,0,1-1.46-.39,2.73,2.73,0,0,1-1-1.11,3.52,3.52,0,0,1-.36-1.6v-.25a3.84,3.84,0,0,1,.35-1.65,2.86,2.86,0,0,1,1-1.15,2.43,2.43,0,0,1,1.37-.42,2.27,2.27,0,0,1,1.83.79,3.19,3.19,0,0,1,.68,2.15v.39H546v.14a2.68,2.68,0,0,0,.62,1.8,2,2,0,0,0,1.56.71,2.4,2.4,0,0,0,1-.2,2.19,2.19,0,0,0,.78-.66l.44.34A2.55,2.55,0,0,1,548.14,453.85Zm-.13-6a1.73,1.73,0,0,0-1.33.58A2.69,2.69,0,0,0,546,450h3.8v-.08a2.34,2.34,0,0,0-.52-1.49A1.63,1.63,0,0,0,548,447.88Zm.78-3.14h.85l-1.35,1.64h-.62Z" transform="translate(-5.65 -10)"/><path d="M555.47,447.4l0,1.08a2.53,2.53,0,0,1,.89-.89,2.29,2.29,0,0,1,1.18-.31,1.91,1.91,0,0,1,1.52.57,2.61,2.61,0,0,1,.5,1.73v4.16h-.7v-4.17a1.88,1.88,0,0,0-.36-1.26,1.39,1.39,0,0,0-1.13-.42,1.78,1.78,0,0,0-1.15.41,2.36,2.36,0,0,0-.74,1.1v4.34h-.7V447.4Z" transform="translate(-5.65 -10)"/><path d="M561.35,445.57a.45.45,0,0,1,.13-.34.46.46,0,0,1,.35-.13.48.48,0,0,1,.36.13.49.49,0,0,1,.13.34.45.45,0,0,1-.49.46.46.46,0,0,1-.35-.13A.44.44,0,0,1,561.35,445.57Zm.83,8.17h-.71V447.4h.71Z" transform="translate(-5.65 -10)"/><path d="M566.54,453.85a2.77,2.77,0,0,1-1.46-.39,2.73,2.73,0,0,1-1-1.11,3.52,3.52,0,0,1-.36-1.6v-.25a3.7,3.7,0,0,1,.35-1.65,2.86,2.86,0,0,1,1-1.15,2.43,2.43,0,0,1,1.37-.42,2.27,2.27,0,0,1,1.83.79,3.19,3.19,0,0,1,.68,2.15v.39h-4.53v.14a2.68,2.68,0,0,0,.62,1.8,2,2,0,0,0,1.56.71,2.4,2.4,0,0,0,1-.2,2.19,2.19,0,0,0,.78-.66l.44.34A2.55,2.55,0,0,1,566.54,453.85Zm-.13-6a1.73,1.73,0,0,0-1.33.58,2.57,2.57,0,0,0-.66,1.56h3.8v-.08a2.34,2.34,0,0,0-.52-1.49A1.63,1.63,0,0,0,566.41,447.88Z" transform="translate(-5.65 -10)"/><path d="M577,452.13a1,1,0,0,0-.42-.84,3.25,3.25,0,0,0-1.27-.5,5.66,5.66,0,0,1-1.31-.41,1.72,1.72,0,0,1-.69-.56,1.4,1.4,0,0,1-.22-.81,1.53,1.53,0,0,1,.62-1.24,2.53,2.53,0,0,1,1.61-.49,2.6,2.6,0,0,1,1.7.53,1.65,1.65,0,0,1,.64,1.36H577a1.11,1.11,0,0,0-.46-.92,1.85,1.85,0,0,0-1.18-.37,1.8,1.8,0,0,0-1.11.31.94.94,0,0,0-.42.8.87.87,0,0,0,.35.73,3.9,3.9,0,0,0,1.27.48,5.76,5.76,0,0,1,1.38.46,1.86,1.86,0,0,1,.69.59,1.59,1.59,0,0,1,.22.84,1.51,1.51,0,0,1-.65,1.28,2.75,2.75,0,0,1-1.69.48,2.78,2.78,0,0,1-1.79-.53,1.65,1.65,0,0,1-.69-1.36h.7a1.23,1.23,0,0,0,.52,1,2.11,2.11,0,0,0,1.26.34,1.94,1.94,0,0,0,1.18-.32A1,1,0,0,0,577,452.13Z" transform="translate(-5.65 -10)"/><path d="M583.35,452.93a2.25,2.25,0,0,1-2,.92,2,2,0,0,1-1.54-.58,2.63,2.63,0,0,1-.54-1.75V447.4h.7v4c0,1.21.49,1.82,1.46,1.82a1.8,1.8,0,0,0,1.93-1.26V447.4h.7v6.34h-.67Zm-.93-8.19h.85l-1.35,1.64h-.62Z" transform="translate(-5.65 -10)"/><path d="M590.76,452.77l1.93-5.37h.72L591,453.74h-.57l-2.38-6.34h.72Z" transform="translate(-5.65 -10)"/><path d="M597.19,450.51a3.82,3.82,0,0,1,.66-2.36,2.13,2.13,0,0,1,1.79-.87,2.19,2.19,0,0,1,2,1l0-.91h.65v6.21a2.71,2.71,0,0,1-.68,1.94,2.49,2.49,0,0,1-1.86.71,2.91,2.91,0,0,1-1.26-.29,2.48,2.48,0,0,1-1-.79l.39-.42a2.23,2.23,0,0,0,1.77.91,1.76,1.76,0,0,0,1.37-.52,2,2,0,0,0,.51-1.44v-.79a2.27,2.27,0,0,1-2,.93,2.13,2.13,0,0,1-1.77-.87,3.89,3.89,0,0,1-.67-2.38Zm.71.12a3.29,3.29,0,0,0,.49,1.92,1.58,1.58,0,0,0,1.37.7,1.88,1.88,0,0,0,1.83-1.16v-2.95a1.94,1.94,0,0,0-.71-.93,1.89,1.89,0,0,0-1.11-.32,1.6,1.6,0,0,0-1.38.69A3.63,3.63,0,0,0,597.9,450.63Z" transform="translate(-5.65 -10)"/><path d="M607.06,448a2.42,2.42,0,0,0-.47-.05,1.73,1.73,0,0,0-1.11.37,2,2,0,0,0-.65,1.06v4.36h-.7V447.4h.69v1a1.86,1.86,0,0,1,1.79-1.13,1.19,1.19,0,0,1,.46.08Z" transform="translate(-5.65 -10)"/><path d="M611.94,453.74a3.44,3.44,0,0,1-.13-.89,2.44,2.44,0,0,1-.94.74,2.8,2.8,0,0,1-1.21.26,2.16,2.16,0,0,1-1.48-.5,1.66,1.66,0,0,1-.57-1.29,1.71,1.71,0,0,1,.77-1.47,3.72,3.72,0,0,1,2.15-.54h1.27v-.72a1.39,1.39,0,0,0-.42-1.07,1.72,1.72,0,0,0-1.22-.39,1.9,1.9,0,0,0-1.21.38,1.11,1.11,0,0,0-.48.9h-.71a1.64,1.64,0,0,1,.71-1.31,2.75,2.75,0,0,1,1.73-.55,2.5,2.5,0,0,1,1.67.53,1.89,1.89,0,0,1,.63,1.48v3a3.76,3.76,0,0,0,.19,1.38v.07Zm-2.2-.51a2.33,2.33,0,0,0,1.26-.34,2,2,0,0,0,.8-.9v-1.4h-1.25a3.23,3.23,0,0,0-1.64.38,1.15,1.15,0,0,0-.59,1,1.13,1.13,0,0,0,.39.88A1.46,1.46,0,0,0,609.74,453.23Z" transform="translate(-5.65 -10)"/><path d="M614.87,453.74V448h-1v-.57h1v-.77a2.06,2.06,0,0,1,.5-1.49,1.81,1.81,0,0,1,1.38-.53,2.94,2.94,0,0,1,.74.1l0,.58a3.22,3.22,0,0,0-.64-.07,1.11,1.11,0,0,0-.9.37,1.45,1.45,0,0,0-.32,1v.79h1.51V448h-1.51v5.77Z" transform="translate(-5.65 -10)"/><path d="M620.8,453.85a2.84,2.84,0,0,1-1.47-.39,2.78,2.78,0,0,1-1-1.11,3.52,3.52,0,0,1-.37-1.6v-.25a3.7,3.7,0,0,1,.36-1.65,2.71,2.71,0,0,1,1-1.15,2.41,2.41,0,0,1,1.37-.42,2.27,2.27,0,0,1,1.83.79,3.18,3.18,0,0,1,.67,2.15v.39h-4.52v.14a2.68,2.68,0,0,0,.62,1.8,2,2,0,0,0,1.56.71,2.4,2.4,0,0,0,1-.2,2.19,2.19,0,0,0,.78-.66l.44.34A2.56,2.56,0,0,1,620.8,453.85Zm-.13-6a1.77,1.77,0,0,0-1.34.58,2.69,2.69,0,0,0-.66,1.56h3.81v-.08a2.39,2.39,0,0,0-.52-1.49A1.63,1.63,0,0,0,620.67,447.88Z" transform="translate(-5.65 -10)"/><path d="M627.92,453.15H632v.59h-5v-.52L630.9,448h-3.73v-.61h4.61v.52Z" transform="translate(-5.65 -10)"/><path d="M634,447.4l0,1.08a2.37,2.37,0,0,1,.89-.89,2.23,2.23,0,0,1,1.17-.31,1.91,1.91,0,0,1,1.52.57,2.66,2.66,0,0,1,.51,1.73v4.16h-.7v-4.17a2,2,0,0,0-.36-1.26,1.42,1.42,0,0,0-1.14-.42,1.8,1.8,0,0,0-1.15.41,2.36,2.36,0,0,0-.74,1.1v4.34h-.7V447.4Z" transform="translate(-5.65 -10)"/><path d="M643.89,453.74a3.37,3.37,0,0,1-.14-.89,2.37,2.37,0,0,1-.94.74,2.77,2.77,0,0,1-1.21.26,2.17,2.17,0,0,1-1.48-.5,1.78,1.78,0,0,1,.21-2.76,3.69,3.69,0,0,1,2.15-.54h1.27v-.72a1.39,1.39,0,0,0-.42-1.07,1.74,1.74,0,0,0-1.22-.39,1.93,1.93,0,0,0-1.22.38,1.11,1.11,0,0,0-.48.9h-.7a1.63,1.63,0,0,1,.7-1.31,2.77,2.77,0,0,1,1.73-.55,2.46,2.46,0,0,1,1.67.53,1.89,1.89,0,0,1,.63,1.48v3a3.72,3.72,0,0,0,.2,1.38v.07Zm-2.21-.51a2.33,2.33,0,0,0,1.26-.34,2,2,0,0,0,.81-.9v-1.4h-1.26a3.26,3.26,0,0,0-1.64.38,1.17,1.17,0,0,0-.59,1,1.11,1.11,0,0,0,.4.88A1.44,1.44,0,0,0,641.68,453.23Zm1.39-8.49h.85l-1.36,1.64H642Z" transform="translate(-5.65 -10)"/><path d="M646.78,453.15h4.12v.59h-5v-.52l3.84-5.21H646v-.61h4.61v.52Z" transform="translate(-5.65 -10)"/><path d="M651.68,450.47a3.79,3.79,0,0,1,.35-1.64,2.67,2.67,0,0,1,1-1.14,2.7,2.7,0,0,1,1.46-.41,2.6,2.6,0,0,1,2,.89,3.38,3.38,0,0,1,.79,2.35v.15a3.7,3.7,0,0,1-.36,1.65,2.63,2.63,0,0,1-1,1.14,2.8,2.8,0,0,1-1.48.39,2.59,2.59,0,0,1-2-.88,3.4,3.4,0,0,1-.79-2.36Zm.7.2a2.86,2.86,0,0,0,.59,1.86,2,2,0,0,0,3.08,0,2.9,2.9,0,0,0,.59-1.92v-.14a3.26,3.26,0,0,0-.27-1.33,2.18,2.18,0,0,0-.75-.93,2,2,0,0,0-1.12-.33,1.88,1.88,0,0,0-1.53.73,3,3,0,0,0-.59,1.93Z" transform="translate(-5.65 -10)"/><path d="M661.72,448a2.44,2.44,0,0,0-.48-.05,1.73,1.73,0,0,0-1.11.37,2,2,0,0,0-.65,1.06v4.36h-.69V447.4h.68v1a1.87,1.87,0,0,1,1.79-1.13,1.12,1.12,0,0,1,.46.08Z" transform="translate(-5.65 -10)"/><path d="M663.49,447.4l0,1.08a2.47,2.47,0,0,1,.9-.89,2.23,2.23,0,0,1,1.17-.31,1.91,1.91,0,0,1,1.52.57,2.61,2.61,0,0,1,.5,1.73v4.16h-.69v-4.17a2,2,0,0,0-.36-1.26,1.42,1.42,0,0,0-1.14-.42,1.8,1.8,0,0,0-1.15.41,2.36,2.36,0,0,0-.74,1.1v4.34h-.7V447.4Z" transform="translate(-5.65 -10)"/><path d="M671.87,453.85a2.77,2.77,0,0,1-1.46-.39,2.73,2.73,0,0,1-1-1.11,3.52,3.52,0,0,1-.36-1.6v-.25a3.84,3.84,0,0,1,.35-1.65,2.86,2.86,0,0,1,1-1.15,2.43,2.43,0,0,1,1.37-.42,2.27,2.27,0,0,1,1.83.79,3.19,3.19,0,0,1,.68,2.15v.39h-4.52v.14a2.67,2.67,0,0,0,.61,1.8,2,2,0,0,0,1.56.71,2.36,2.36,0,0,0,1-.2,2.19,2.19,0,0,0,.78-.66l.44.34A2.55,2.55,0,0,1,671.87,453.85Zm-.13-6a1.73,1.73,0,0,0-1.33.58,2.69,2.69,0,0,0-.66,1.56h3.8v-.08a2.34,2.34,0,0,0-.52-1.49A1.63,1.63,0,0,0,671.74,447.88Z" transform="translate(-5.65 -10)"/><path d="M676.28,447.4l0,1.08a2.37,2.37,0,0,1,.89-.89,2.23,2.23,0,0,1,1.17-.31,1.91,1.91,0,0,1,1.52.57,2.66,2.66,0,0,1,.51,1.73v4.16h-.7v-4.17a2,2,0,0,0-.36-1.26,1.42,1.42,0,0,0-1.14-.42,1.8,1.8,0,0,0-1.15.41,2.36,2.36,0,0,0-.74,1.1v4.34h-.7V447.4Z" transform="translate(-5.65 -10)"/><path d="M684.66,453.85a2.77,2.77,0,0,1-1.46-.39,2.73,2.73,0,0,1-1-1.11,3.52,3.52,0,0,1-.36-1.6v-.25a3.84,3.84,0,0,1,.35-1.65,2.86,2.86,0,0,1,1-1.15,2.43,2.43,0,0,1,1.37-.42,2.27,2.27,0,0,1,1.83.79,3.19,3.19,0,0,1,.68,2.15v.39h-4.52v.14a2.67,2.67,0,0,0,.61,1.8,2,2,0,0,0,1.56.71,2.33,2.33,0,0,0,1-.2,2.31,2.31,0,0,0,.79-.66l.44.34A2.58,2.58,0,0,1,684.66,453.85Zm-.13-6a1.73,1.73,0,0,0-1.33.58,2.69,2.69,0,0,0-.66,1.56h3.8v-.08a2.34,2.34,0,0,0-.52-1.49A1.63,1.63,0,0,0,684.53,447.88Zm.78-3.14h.85l-1.35,1.64h-.62Z" transform="translate(-5.65 -10)"/><path d="M688.34,453.32a.48.48,0,0,1,.13-.35.53.53,0,0,1,.74,0,.48.48,0,0,1,.13.35.44.44,0,0,1-.13.33.59.59,0,0,1-.74,0A.44.44,0,0,1,688.34,453.32Z" transform="translate(-5.65 -10)"/><rect class="cls-8" x="166.89" y="37.95" width="16.28" height="16.28"/><rect class="cls-9" x="166.89" y="37.95" width="16.28" height="16.28"/><line class="cls-10" x1="167.29" y1="37.95" x2="182.78" y2="37.95"/><rect class="cls-11" x="0.92" y="37.95" width="16.28" height="16.28"/><rect class="cls-9" x="0.92" y="37.95" width="16.28" height="16.28"/><path class="cls-11" d="M6.57,48h0Z" transform="translate(-5.65 -10)"/><line class="cls-9" x1="0.92" y1="37.95" x2="17.2" y2="37.95"/><path class="cls-12" d="M207.86,59.41h-4.13l-.86,2.49h-1.93l4-10.67h1.66l4,10.67h-1.93Zm-3.61-1.49h3.09L205.8,53.5Z" transform="translate(-5.65 -10)"/><path class="cls-12" d="M213.6,61.9h-1.78V50.65h1.78Z" transform="translate(-5.65 -10)"/><path class="cls-12" d="M215.2,57.86a4.63,4.63,0,0,1,.47-2.1A3.26,3.26,0,0,1,217,54.33a3.62,3.62,0,0,1,1.92-.5,3.43,3.43,0,0,1,2.6,1,4,4,0,0,1,1.08,2.74V58a4.73,4.73,0,0,1-.45,2.1,3.38,3.38,0,0,1-1.29,1.43,3.72,3.72,0,0,1-1.93.5,3.46,3.46,0,0,1-2.69-1.11,4.3,4.3,0,0,1-1-3ZM217,58a3.17,3.17,0,0,0,.51,1.92,1.64,1.64,0,0,0,1.41.69,1.62,1.62,0,0,0,1.4-.7,3.58,3.58,0,0,0,.5-2.06,3.1,3.1,0,0,0-.52-1.9,1.64,1.64,0,0,0-1.4-.71,1.61,1.61,0,0,0-1.38.7A3.38,3.38,0,0,0,217,58Z" transform="translate(-5.65 -10)"/><path class="cls-12" d="M226.65,58.5l-.79.81V61.9h-1.78V50.65h1.78v6.49l.56-.7L228.61,54h2.14l-2.95,3.3,3.26,4.63H229Z" transform="translate(-5.65 -10)"/><path class="cls-12" d="M231.57,57.86a4.76,4.76,0,0,1,.46-2.1,3.35,3.35,0,0,1,1.3-1.43,3.62,3.62,0,0,1,1.92-.5,3.43,3.43,0,0,1,2.6,1,4,4,0,0,1,1.08,2.74V58a4.73,4.73,0,0,1-.45,2.1,3.38,3.38,0,0,1-1.29,1.43,3.73,3.73,0,0,1-1.94.5,3.45,3.45,0,0,1-2.68-1.11,4.3,4.3,0,0,1-1-3Zm1.78.15a3.17,3.17,0,0,0,.51,1.92,1.77,1.77,0,0,0,2.81,0,3.58,3.58,0,0,0,.5-2.06,3.1,3.1,0,0,0-.52-1.9,1.64,1.64,0,0,0-1.4-.71,1.61,1.61,0,0,0-1.38.7A3.38,3.38,0,0,0,233.35,58Z" transform="translate(-5.65 -10)"/><path class="cls-12" d="M243.14,59.64,244.81,54h1.84L243.9,61.9h-1.54L239.59,54h1.85Z" transform="translate(-5.65 -10)"/><path class="cls-12" d="M252.39,61.9a2.53,2.53,0,0,1-.2-.74,3,3,0,0,1-4,.2,2.14,2.14,0,0,1-.76-1.68,2.27,2.27,0,0,1,.94-2,4.6,4.6,0,0,1,2.7-.67h1.09v-.52a1.39,1.39,0,0,0-.35-1,1.35,1.35,0,0,0-1-.37,1.59,1.59,0,0,0-1,.3,1,1,0,0,0-.39.78h-1.78A2,2,0,0,1,248,55a2.82,2.82,0,0,1,1.18-.89,4,4,0,0,1,1.66-.32,3.35,3.35,0,0,1,2.22.69,2.54,2.54,0,0,1,.85,2v3.58a4,4,0,0,0,.3,1.7v.13Zm-1.95-1.29a2,2,0,0,0,1-.25,1.72,1.72,0,0,0,.7-.69V58.18h-1a2.63,2.63,0,0,0-1.49.34,1.11,1.11,0,0,0-.5,1,1.05,1.05,0,0,0,.34.82A1.34,1.34,0,0,0,250.44,60.61Z" transform="translate(-5.65 -10)"/><path class="cls-12" d="M257.42,54l.05.92a2.86,2.86,0,0,1,2.31-1.06c1.65,0,2.49.94,2.52,2.83V61.9h-1.78V56.76a1.65,1.65,0,0,0-.32-1.11,1.36,1.36,0,0,0-1.07-.37,1.71,1.71,0,0,0-1.6,1V61.9h-1.78V54Z" transform="translate(-5.65 -10)"/><path class="cls-12" d="M267.6,62A3.68,3.68,0,0,1,264.86,61a3.87,3.87,0,0,1-1.05-2.84v-.22a4.69,4.69,0,0,1,.46-2.12,3.41,3.41,0,0,1,1.28-1.45,3.38,3.38,0,0,1,1.85-.52,3.1,3.1,0,0,1,2.5,1,4.35,4.35,0,0,1,.88,2.92v.72H265.6a2.43,2.43,0,0,0,.66,1.55,2,2,0,0,0,1.45.57,2.41,2.41,0,0,0,2-1l1,.92a3.23,3.23,0,0,1-1.27,1.1A4,4,0,0,1,267.6,62Zm-.21-6.79a1.47,1.47,0,0,0-1.18.52,2.68,2.68,0,0,0-.58,1.42H269v-.13a2.12,2.12,0,0,0-.47-1.35A1.52,1.52,0,0,0,267.39,55.25Zm.4-4.6h2l-2,2.22h-1.42Z" transform="translate(-5.65 -10)"/><path class="cls-12" d="M282.84,58A4.71,4.71,0,0,1,282,61,2.66,2.66,0,0,1,279.76,62a2.71,2.71,0,0,1-2.09-.85v3.75h-1.78V54h1.65l.07.81a2.59,2.59,0,0,1,2.13-1A2.69,2.69,0,0,1,282,54.91a4.83,4.83,0,0,1,.83,3Zm-1.77-.15a3.25,3.25,0,0,0-.48-1.88,1.51,1.51,0,0,0-1.35-.7,1.64,1.64,0,0,0-1.57.9V59.7a1.67,1.67,0,0,0,1.59.92,1.55,1.55,0,0,0,1.33-.68A3.65,3.65,0,0,0,281.07,57.86Z" transform="translate(-5.65 -10)"/><path class="cls-12" d="M284,57.86a4.63,4.63,0,0,1,.46-2.1,3.35,3.35,0,0,1,1.3-1.43,3.57,3.57,0,0,1,1.92-.5,3.45,3.45,0,0,1,2.6,1,4,4,0,0,1,1.08,2.74V58a4.73,4.73,0,0,1-.45,2.1,3.38,3.38,0,0,1-1.29,1.43,3.76,3.76,0,0,1-1.94.5A3.43,3.43,0,0,1,285,60.93a4.3,4.3,0,0,1-1-3Zm1.78.15a3.25,3.25,0,0,0,.5,1.92,1.66,1.66,0,0,0,1.41.69,1.61,1.61,0,0,0,1.4-.7,3.5,3.5,0,0,0,.51-2.06,3.17,3.17,0,0,0-.52-1.9,1.66,1.66,0,0,0-1.4-.71,1.63,1.63,0,0,0-1.39.7A3.46,3.46,0,0,0,285.79,58Z" transform="translate(-5.65 -10)"/><path class="cls-12" d="M295.57,59.64,297.25,54h1.84l-2.75,7.93H294.8L292,54h1.84Z" transform="translate(-5.65 -10)"/><path class="cls-12" d="M299.76,57.86a4.63,4.63,0,0,1,.46-2.1,3.35,3.35,0,0,1,1.3-1.43,3.57,3.57,0,0,1,1.92-.5,3.45,3.45,0,0,1,2.6,1,4,4,0,0,1,1.08,2.74V58a4.73,4.73,0,0,1-.45,2.1,3.38,3.38,0,0,1-1.29,1.43,3.76,3.76,0,0,1-1.94.5,3.43,3.43,0,0,1-2.68-1.11,4.26,4.26,0,0,1-1-3Zm1.78.15a3.25,3.25,0,0,0,.5,1.92,1.66,1.66,0,0,0,1.41.69,1.61,1.61,0,0,0,1.4-.7,3.5,3.5,0,0,0,.5-2.06,3.17,3.17,0,0,0-.51-1.9,1.66,1.66,0,0,0-1.4-.71,1.62,1.62,0,0,0-1.39.7A3.46,3.46,0,0,0,301.54,58Z" transform="translate(-5.65 -10)"/><path class="cls-12" d="M310.53,61.9h-1.78V50.65h1.78Z" transform="translate(-5.65 -10)"/><path class="cls-12" d="M316,62A3.68,3.68,0,0,1,313.21,61a3.87,3.87,0,0,1-1-2.84v-.22a4.69,4.69,0,0,1,.46-2.12,3.41,3.41,0,0,1,1.28-1.45,3.38,3.38,0,0,1,1.85-.52,3.1,3.1,0,0,1,2.5,1,4.35,4.35,0,0,1,.88,2.92v.72H314a2.43,2.43,0,0,0,.66,1.55,2,2,0,0,0,1.45.57,2.41,2.41,0,0,0,2-1l1,.92a3.23,3.23,0,0,1-1.27,1.1A4,4,0,0,1,316,62Zm-.21-6.79a1.47,1.47,0,0,0-1.18.52,2.68,2.68,0,0,0-.58,1.42h3.39v-.13a2.18,2.18,0,0,0-.47-1.35A1.52,1.52,0,0,0,315.74,55.25Z" transform="translate(-5.65 -10)"/><path class="cls-12" d="M322.16,54l.06.92a2.82,2.82,0,0,1,2.3-1.06c1.65,0,2.49.94,2.52,2.83V61.9h-1.78V56.76a1.65,1.65,0,0,0-.32-1.11,1.36,1.36,0,0,0-1.07-.37,1.71,1.71,0,0,0-1.6,1V61.9h-1.78V54Z" transform="translate(-5.65 -10)"/><path class="cls-12" d="M331.43,58.5l-.79.81V61.9h-1.78V50.65h1.78v6.49l.55-.7L333.38,54h2.14l-2.94,3.3,3.26,4.63h-2.06Z" transform="translate(-5.65 -10)"/><path class="cls-12" d="M339.46,59.35,341.07,54H343l-3.14,9.13a2.58,2.58,0,0,1-2.47,2,3.13,3.13,0,0,1-.85-.14V63.58l.33,0a1.79,1.79,0,0,0,1-.24,1.63,1.63,0,0,0,.54-.83l.25-.68L335.86,54h1.92Z" transform="translate(-5.65 -10)"/><path class="cls-12" d="M349.24,54.77,347,54.13l.4-1.24,2.21.86-.11-2.52h1.31l-.11,2.56,2.18-.84.39,1.26-2.27.64,1.47,1.95-1.06.78-1.32-2.11-1.31,2-1.06-.74Z" transform="translate(-5.65 -10)"/><path class="cls-13" d="M44.45,56.84a6.4,6.4,0,0,1-.55,2.75,4.07,4.07,0,0,1-1.54,1.82A4.32,4.32,0,0,1,40,62a4.26,4.26,0,0,1-2.31-.63,4.1,4.1,0,0,1-1.57-1.81,6.23,6.23,0,0,1-.56-2.7v-.6a6.43,6.43,0,0,1,.55-2.75,4.15,4.15,0,0,1,1.56-1.83,4.58,4.58,0,0,1,4.62,0,4.17,4.17,0,0,1,1.56,1.8,6.53,6.53,0,0,1,.56,2.74Zm-1.86-.55a4.63,4.63,0,0,0-.67-2.72,2.36,2.36,0,0,0-3.78,0,4.56,4.56,0,0,0-.69,2.66v.61a4.61,4.61,0,0,0,.69,2.72,2.2,2.2,0,0,0,1.9,1,2.16,2.16,0,0,0,1.89-.94,4.74,4.74,0,0,0,.66-2.74Z" transform="translate(-5.65 -10)"/><path class="cls-13" d="M48.91,59.64,50.59,54h1.84L49.68,61.9H48.14L45.37,54h1.84Z" transform="translate(-5.65 -10)"/><path class="cls-13" d="M57,62A3.68,3.68,0,0,1,54.21,61a3.87,3.87,0,0,1-1.05-2.84v-.22a4.69,4.69,0,0,1,.46-2.12,3.41,3.41,0,0,1,3.13-2,3.1,3.1,0,0,1,2.5,1,4.35,4.35,0,0,1,.88,2.92v.72H55a2.43,2.43,0,0,0,.66,1.55,2,2,0,0,0,1.45.57,2.41,2.41,0,0,0,2-1l1,.92a3.23,3.23,0,0,1-1.27,1.1A4,4,0,0,1,57,62Zm-.21-6.79a1.47,1.47,0,0,0-1.18.52A2.68,2.68,0,0,0,55,57.19h3.4v-.13a2.18,2.18,0,0,0-.48-1.35A1.52,1.52,0,0,0,56.74,55.25Z" transform="translate(-5.65 -10)"/><path class="cls-13" d="M65.66,55.6a4.2,4.2,0,0,0-.72-.06,1.62,1.62,0,0,0-1.65.94V61.9H61.51V54h1.7l0,.89a2,2,0,0,1,1.79-1,1.67,1.67,0,0,1,.63.1Z" transform="translate(-5.65 -10)"/><path class="cls-13" d="M70.14,62A3.67,3.67,0,0,1,67.4,61a3.87,3.87,0,0,1-1.05-2.84v-.22a4.69,4.69,0,0,1,.46-2.12,3.41,3.41,0,0,1,1.28-1.45,3.38,3.38,0,0,1,1.85-.52,3.1,3.1,0,0,1,2.5,1,4.35,4.35,0,0,1,.88,2.92v.72H68.14a2.38,2.38,0,0,0,.66,1.55,2,2,0,0,0,1.44.57,2.43,2.43,0,0,0,2-1l1,.92a3.23,3.23,0,0,1-1.27,1.1A4,4,0,0,1,70.14,62Zm-.21-6.79a1.47,1.47,0,0,0-1.18.52,2.61,2.61,0,0,0-.58,1.42h3.39v-.13a2.18,2.18,0,0,0-.47-1.35A1.52,1.52,0,0,0,69.93,55.25Z" transform="translate(-5.65 -10)"/><path class="cls-13" d="M76.35,54l.05.92a2.86,2.86,0,0,1,2.31-1.06c1.65,0,2.49.94,2.52,2.83V61.9H79.45V56.76a1.65,1.65,0,0,0-.32-1.11,1.36,1.36,0,0,0-1.07-.37,1.71,1.71,0,0,0-1.6,1V61.9H74.68V54Z" transform="translate(-5.65 -10)"/><path class="cls-13" d="M86.53,62A3.68,3.68,0,0,1,83.79,61a3.87,3.87,0,0,1-1.05-2.84v-.22a4.69,4.69,0,0,1,.46-2.12,3.41,3.41,0,0,1,1.28-1.45,3.38,3.38,0,0,1,1.85-.52,3.1,3.1,0,0,1,2.5,1,4.35,4.35,0,0,1,.88,2.92v.72H84.53a2.43,2.43,0,0,0,.66,1.55,2,2,0,0,0,1.45.57,2.41,2.41,0,0,0,2-1l1,.92a3.23,3.23,0,0,1-1.27,1.1A4,4,0,0,1,86.53,62Zm-.21-6.79a1.47,1.47,0,0,0-1.18.52,2.68,2.68,0,0,0-.58,1.42H88v-.13a2.12,2.12,0,0,0-.47-1.35A1.52,1.52,0,0,0,86.32,55.25Zm.4-4.6h2l-2,2.22H85.3Z" transform="translate(-5.65 -10)"/><path class="cls-13" d="M98.32,62A3.67,3.67,0,0,1,95.58,61a3.84,3.84,0,0,1-1.06-2.84v-.22A4.82,4.82,0,0,1,95,55.8a3.5,3.5,0,0,1,1.29-1.45,3.34,3.34,0,0,1,1.84-.52,3.09,3.09,0,0,1,2.5,1,4.36,4.36,0,0,1,.89,2.92v.72H96.32A2.37,2.37,0,0,0,97,60.05a2,2,0,0,0,1.45.57,2.4,2.4,0,0,0,2-1l1,.92a3.16,3.16,0,0,1-1.27,1.1A4,4,0,0,1,98.32,62Zm-.21-6.79a1.49,1.49,0,0,0-1.19.52,2.6,2.6,0,0,0-.57,1.42h3.39v-.13a2.18,2.18,0,0,0-.48-1.35A1.5,1.5,0,0,0,98.11,55.25Z" transform="translate(-5.65 -10)"/><path class="cls-13" d="M104.55,54l0,.83a2.86,2.86,0,0,1,2.29-1A2.18,2.18,0,0,1,109.06,55a2.81,2.81,0,0,1,2.43-1.21,2.49,2.49,0,0,1,2,.72,3.23,3.23,0,0,1,.65,2.14V61.9h-1.78V56.74a1.6,1.6,0,0,0-.33-1.11,1.45,1.45,0,0,0-1.09-.35,1.48,1.48,0,0,0-1,.33,1.69,1.69,0,0,0-.54.85V61.9H107.6V56.68a1.27,1.27,0,0,0-1.43-1.4,1.58,1.58,0,0,0-1.52.87V61.9h-1.78V54Z" transform="translate(-5.65 -10)"/><path class="cls-13" d="M115.93,51.91a1,1,0,0,1,.26-.68,1,1,0,0,1,.75-.27,1,1,0,0,1,.74.27.93.93,0,0,1,.27.68.89.89,0,0,1-.27.67,1,1,0,0,1-.74.27,1,1,0,0,1-.75-.27A.92.92,0,0,1,115.93,51.91Zm1.89,10H116V54h1.78Z" transform="translate(-5.65 -10)"/><path class="cls-13" d="M124.2,59.74a.8.8,0,0,0-.39-.72,4.09,4.09,0,0,0-1.3-.44A7.19,7.19,0,0,1,121,58.1a2,2,0,0,1-1.33-1.87,2.11,2.11,0,0,1,.87-1.72,3.37,3.37,0,0,1,2.19-.68,3.55,3.55,0,0,1,2.3.7,2.23,2.23,0,0,1,.87,1.82h-1.78a1.08,1.08,0,0,0-.38-.85,1.44,1.44,0,0,0-1-.34,1.55,1.55,0,0,0-1,.27.84.84,0,0,0-.37.72.71.71,0,0,0,.34.64,4.62,4.62,0,0,0,1.39.46,6.59,6.59,0,0,1,1.65.55,2.38,2.38,0,0,1,.88.76,1.91,1.91,0,0,1,.29,1.09,2.06,2.06,0,0,1-.88,1.73,3.81,3.81,0,0,1-2.33.66,4,4,0,0,1-1.73-.35,2.87,2.87,0,0,1-1.19-1,2.3,2.3,0,0,1-.42-1.32h1.73a1.25,1.25,0,0,0,.47,1,1.85,1.85,0,0,0,1.17.34,1.8,1.8,0,0,0,1.07-.27A.83.83,0,0,0,124.2,59.74Z" transform="translate(-5.65 -10)"/><path class="cls-13" d="M127.51,51.91a.92.92,0,0,1,.26-.68,1,1,0,0,1,.74-.27,1,1,0,0,1,.75.27,1,1,0,0,1,.26.68.92.92,0,0,1-.26.67,1,1,0,0,1-.75.27,1,1,0,0,1-.74-.27A.88.88,0,0,1,127.51,51.91Zm1.89,10h-1.78V54h1.78Z" transform="translate(-5.65 -10)"/><path class="cls-13" d="M134.82,62A3.67,3.67,0,0,1,132.08,61,3.87,3.87,0,0,1,131,58.14v-.22a4.69,4.69,0,0,1,.46-2.12,3.41,3.41,0,0,1,1.28-1.45,3.38,3.38,0,0,1,1.85-.52,3.1,3.1,0,0,1,2.5,1,4.35,4.35,0,0,1,.88,2.92v.72h-5.18a2.38,2.38,0,0,0,.66,1.55,2,2,0,0,0,1.44.57,2.43,2.43,0,0,0,2-1l1,.92a3.23,3.23,0,0,1-1.27,1.1A4,4,0,0,1,134.82,62Zm-.21-6.79a1.47,1.47,0,0,0-1.18.52,2.68,2.68,0,0,0-.58,1.42h3.39v-.13a2.18,2.18,0,0,0-.47-1.35A1.52,1.52,0,0,0,134.61,55.25Z" transform="translate(-5.65 -10)"/><path d="M12.51,382a5.91,5.91,0,0,1-.83,3.42,2.79,2.79,0,0,1-2.44,1.17,2.81,2.81,0,0,1-2.42-1.15A5.63,5.63,0,0,1,6,382.12V380.2a5.77,5.77,0,0,1,.83-3.4,2.83,2.83,0,0,1,2.44-1.16,2.84,2.84,0,0,1,2.42,1.12,5.62,5.62,0,0,1,.86,3.29Zm-.88-1.92a5.14,5.14,0,0,0-.6-2.76,2,2,0,0,0-1.8-.94,2,2,0,0,0-1.79.91A5.05,5.05,0,0,0,6.83,380v2.09a5.11,5.11,0,0,0,.62,2.79,2,2,0,0,0,1.79,1,2,2,0,0,0,1.78-.95,5.19,5.19,0,0,0,.61-2.77Z" transform="translate(-5.65 -10)"/><path d="M12.51,330.51a5.89,5.89,0,0,1-.83,3.42,2.79,2.79,0,0,1-2.44,1.17A2.83,2.83,0,0,1,6.82,334,5.69,5.69,0,0,1,6,330.62v-1.91a5.78,5.78,0,0,1,.83-3.41,2.82,2.82,0,0,1,2.44-1.15,2.86,2.86,0,0,1,2.42,1.11,5.65,5.65,0,0,1,.86,3.3Zm-.88-1.91a5.2,5.2,0,0,0-.6-2.77,2,2,0,0,0-1.8-.94,2,2,0,0,0-1.79.92,5,5,0,0,0-.61,2.7v2.1a5.15,5.15,0,0,0,.62,2.79,2,2,0,0,0,1.79,1,2,2,0,0,0,1.78-.94,5.19,5.19,0,0,0,.61-2.77Z" transform="translate(-5.65 -10)"/><path d="M14.35,337l-.52-.38a3.29,3.29,0,0,0,.69-1.86v-1.13h.85v.92A3.16,3.16,0,0,1,14.35,337Z" transform="translate(-5.65 -10)"/><path d="M17.86,329.49l.52-5.2h5.33v.81H19.13l-.37,3.61a3.48,3.48,0,0,1,2-.59,3,3,0,0,1,2.29.94,3.53,3.53,0,0,1,.86,2.5,3.8,3.8,0,0,1-.83,2.61,3,3,0,0,1-2.35.93,3.29,3.29,0,0,1-2.26-.77,3.17,3.17,0,0,1-1-2.18h.84a2.55,2.55,0,0,0,.74,1.65,2.36,2.36,0,0,0,1.67.56,2.08,2.08,0,0,0,1.72-.72,3.23,3.23,0,0,0,.58-2.07,2.75,2.75,0,0,0-.65-1.91,2.26,2.26,0,0,0-1.78-.74,3.19,3.19,0,0,0-1.08.16,3,3,0,0,0-1,.61Z" transform="translate(-5.65 -10)"/><path d="M10.16,283.46H9.28v-9.61l-2.9,1.08v-.82L10,272.76h.15Z" transform="translate(-5.65 -10)"/><path d="M14.35,285.45l-.52-.38a3.23,3.23,0,0,0,.69-1.85v-1.14h.85V283A3.16,3.16,0,0,1,14.35,285.45Z" transform="translate(-5.65 -10)"/><path d="M23.69,279a5.92,5.92,0,0,1-.82,3.42,2.8,2.8,0,0,1-2.44,1.17A2.83,2.83,0,0,1,18,282.46a5.63,5.63,0,0,1-.86-3.33v-1.92a5.84,5.84,0,0,1,.83-3.4,2.83,2.83,0,0,1,2.44-1.16,2.82,2.82,0,0,1,2.42,1.12,5.47,5.47,0,0,1,.86,3.29Zm-.87-1.92a5.14,5.14,0,0,0-.6-2.76,2,2,0,0,0-1.81-.94,2,2,0,0,0-1.78.91A5,5,0,0,0,18,277v2.09a5.2,5.2,0,0,0,.62,2.79,2,2,0,0,0,1.8,1,2,2,0,0,0,1.77-.95,5.19,5.19,0,0,0,.62-2.77Z" transform="translate(-5.65 -10)"/><path d="M10.16,232H9.28v-9.61l-2.9,1.07v-.82L10,221.27h.15Z" transform="translate(-5.65 -10)"/><path d="M14.35,234l-.52-.38a3.29,3.29,0,0,0,.69-1.86v-1.13h.85v.91A3.17,3.17,0,0,1,14.35,234Z" transform="translate(-5.65 -10)"/><path d="M17.86,226.5l.52-5.2h5.33v.82H19.13l-.37,3.6a3.48,3.48,0,0,1,2-.59,3,3,0,0,1,2.29.94,3.53,3.53,0,0,1,.86,2.5,3.8,3.8,0,0,1-.83,2.61,3,3,0,0,1-2.35.93,3.29,3.29,0,0,1-2.26-.77,3.17,3.17,0,0,1-1-2.18h.84a2.55,2.55,0,0,0,.74,1.65,2.36,2.36,0,0,0,1.67.56,2.08,2.08,0,0,0,1.72-.72,3.23,3.23,0,0,0,.58-2.07,2.75,2.75,0,0,0-.65-1.91,2.26,2.26,0,0,0-1.78-.74,3.19,3.19,0,0,0-1.08.16,3,3,0,0,0-1,.61Z" transform="translate(-5.65 -10)"/><path d="M12.76,180.47H6.08v-.67l3.65-4.15A9,9,0,0,0,11,173.92a2.79,2.79,0,0,0,.36-1.32,2.13,2.13,0,0,0-.6-1.6,2.18,2.18,0,0,0-1.63-.59,2.3,2.3,0,0,0-1.74.69,2.46,2.46,0,0,0-.66,1.78H5.85a3.37,3.37,0,0,1,.4-1.64,2.94,2.94,0,0,1,1.16-1.16,3.44,3.44,0,0,1,1.71-.42,3.24,3.24,0,0,1,2.29.77,2.71,2.71,0,0,1,.82,2.09,3.56,3.56,0,0,1-.46,1.64,12.14,12.14,0,0,1-1.64,2.21l-3,3.36h5.6Z" transform="translate(-5.65 -10)"/><path d="M14.35,182.46l-.52-.38a3.23,3.23,0,0,0,.69-1.85v-1.14h.85V180A3.15,3.15,0,0,1,14.35,182.46Z" transform="translate(-5.65 -10)"/><path d="M23.69,176a5.92,5.92,0,0,1-.82,3.42,2.8,2.8,0,0,1-2.44,1.17A2.83,2.83,0,0,1,18,179.47a5.63,5.63,0,0,1-.86-3.33v-1.92a5.82,5.82,0,0,1,.83-3.4,2.83,2.83,0,0,1,2.44-1.16,2.82,2.82,0,0,1,2.42,1.12,5.47,5.47,0,0,1,.86,3.29Zm-.87-1.92a5.14,5.14,0,0,0-.6-2.76,2,2,0,0,0-1.81-.94,2,2,0,0,0-1.78.91A5,5,0,0,0,18,174v2.09a5.2,5.2,0,0,0,.62,2.79,2,2,0,0,0,1.8,1,2,2,0,0,0,1.77-.95,5.19,5.19,0,0,0,.62-2.77Z" transform="translate(-5.65 -10)"/><path d="M12.8,129.32H6.12v-.67l3.66-4.15A9,9,0,0,0,11,122.77a2.9,2.9,0,0,0,.35-1.32,2.16,2.16,0,0,0-.59-1.6,2.2,2.2,0,0,0-1.64-.59,2.29,2.29,0,0,0-1.73.69,2.43,2.43,0,0,0-.67,1.78H5.89a3.38,3.38,0,0,1,.41-1.64,2.92,2.92,0,0,1,1.15-1.16,3.44,3.44,0,0,1,1.71-.42,3.24,3.24,0,0,1,2.29.77,2.72,2.72,0,0,1,.83,2.09,3.58,3.58,0,0,1-.47,1.64,12,12,0,0,1-1.63,2.21l-3,3.36h5.6Z" transform="translate(-5.65 -10)"/><path d="M14.39,131.31l-.52-.38a3.1,3.1,0,0,0,.69-1.85v-1.14h.86v.92A3.12,3.12,0,0,1,14.39,131.31Z" transform="translate(-5.65 -10)"/><path d="M17.9,123.86l.52-5.2h5.33v.81H19.18l-.38,3.6a3.47,3.47,0,0,1,2-.58,3,3,0,0,1,2.3.94,3.54,3.54,0,0,1,.86,2.49,3.77,3.77,0,0,1-.84,2.62,3,3,0,0,1-2.35.93,3.25,3.25,0,0,1-2.26-.78,3.18,3.18,0,0,1-1-2.17h.84a2.55,2.55,0,0,0,.74,1.65,2.38,2.38,0,0,0,1.66.56,2.08,2.08,0,0,0,1.73-.73,3.26,3.26,0,0,0,.58-2.06,2.8,2.8,0,0,0-.65-1.91,2.24,2.24,0,0,0-1.78-.74,3.54,3.54,0,0,0-1.09.15,2.91,2.91,0,0,0-1,.62Z" transform="translate(-5.65 -10)"/><path d="M30.21,121.4l0,1.29a3,3,0,0,1,1.09-1.08,3,3,0,0,1,1.47-.36,2.22,2.22,0,0,1,2.38,1.54,2.91,2.91,0,0,1,1.14-1.14,3.07,3.07,0,0,1,1.56-.4c1.7,0,2.57.93,2.6,2.78v5.29H39.6V124.1a2.36,2.36,0,0,0-.45-1.58,1.87,1.87,0,0,0-1.47-.51,2.39,2.39,0,0,0-1.6.61,2.16,2.16,0,0,0-.72,1.46v5.24h-.88V124a2.23,2.23,0,0,0-.48-1.52,1.94,1.94,0,0,0-1.46-.5,2.25,2.25,0,0,0-1.42.47,2.85,2.85,0,0,0-.88,1.41v5.43h-.88V121.4Z" transform="translate(-5.65 -10)"/><path d="M43.68,129.32H42.8V118.07h.88Z" transform="translate(-5.65 -10)"/><path d="M45.71,125.29a4.82,4.82,0,0,1,.83-3,2.66,2.66,0,0,1,2.23-1.09,2.75,2.75,0,0,1,2.45,1.27v-4.45h.87v11.25h-.82l0-1a2.82,2.82,0,0,1-2.47,1.2,2.66,2.66,0,0,1-2.21-1.1,4.81,4.81,0,0,1-.84-3Zm.89.15a4.09,4.09,0,0,0,.61,2.39,2,2,0,0,0,1.71.88,2.36,2.36,0,0,0,2.3-1.43v-3.72A2.34,2.34,0,0,0,48.94,122a2,2,0,0,0-1.73.87A4.42,4.42,0,0,0,46.6,125.44Z" transform="translate(-5.65 -10)"/><path d="M54.32,128.79a.58.58,0,0,1,.62-.61.59.59,0,0,1,.46.18.61.61,0,0,1,.17.43.56.56,0,0,1-.17.42.58.58,0,0,1-.46.17.6.6,0,0,1-.46-.17A.55.55,0,0,1,54.32,128.79Z" transform="translate(-5.65 -10)"/><path d="M63,119.37v2h1.64v.71H63v5.29a1.63,1.63,0,0,0,.24,1,.91.91,0,0,0,.79.33,5.37,5.37,0,0,0,.71-.08l0,.71a2.65,2.65,0,0,1-.94.13,1.56,1.56,0,0,1-1.31-.53,2.46,2.46,0,0,1-.41-1.54v-5.29H60.65v-.71h1.46v-2Z" transform="translate(-5.65 -10)"/><path d="M66,125.24a4.62,4.62,0,0,1,.45-2.06,3.33,3.33,0,0,1,1.25-1.42,3.36,3.36,0,0,1,1.83-.51,3.27,3.27,0,0,1,2.57,1.11,4.3,4.3,0,0,1,1,2.94v.18a4.76,4.76,0,0,1-.44,2.07A3.34,3.34,0,0,1,71.35,129a3.45,3.45,0,0,1-1.84.5A3.27,3.27,0,0,1,67,128.36a4.25,4.25,0,0,1-1-2.94Zm.88.24a3.62,3.62,0,0,0,.74,2.34,2.49,2.49,0,0,0,3.85,0,3.73,3.73,0,0,0,.74-2.41v-.17a3.94,3.94,0,0,0-.34-1.66,2.75,2.75,0,0,0-.94-1.17,2.48,2.48,0,0,0-1.4-.41,2.33,2.33,0,0,0-1.91.92,3.72,3.72,0,0,0-.74,2.4Z" transform="translate(-5.65 -10)"/><path d="M75.68,121.4l0,1.35a3.16,3.16,0,0,1,1.12-1.12,2.93,2.93,0,0,1,1.47-.38,2.35,2.35,0,0,1,1.89.72,3.17,3.17,0,0,1,.63,2.15v5.2H80v-5.21a2.38,2.38,0,0,0-.45-1.58,1.74,1.74,0,0,0-1.41-.52,2.19,2.19,0,0,0-1.44.51,3,3,0,0,0-.93,1.37v5.43h-.87V121.4Z" transform="translate(-5.65 -10)"/><path d="M94.49,126a3.79,3.79,0,0,1-1.2,2.57,4,4,0,0,1-2.72.9,3.72,3.72,0,0,1-2.1-.6,3.78,3.78,0,0,1-1.41-1.68,6.06,6.06,0,0,1-.51-2.48v-1.39a6.13,6.13,0,0,1,.5-2.52,3.84,3.84,0,0,1,1.43-1.69,3.77,3.77,0,0,1,6,2.88h-.91a2.71,2.71,0,0,0-3-2.72,2.79,2.79,0,0,0-2.31,1.09,4.72,4.72,0,0,0-.86,3v1.3a4.76,4.76,0,0,0,.84,3,2.71,2.71,0,0,0,2.27,1.1A3,3,0,0,0,92.7,128a3.22,3.22,0,0,0,.88-2Z" transform="translate(-5.65 -10)"/><path d="M104.56,124.57a6.12,6.12,0,0,1-.51,2.58,3.85,3.85,0,0,1-1.45,1.72,4,4,0,0,1-2.18.6,3.8,3.8,0,0,1-3-1.34,5.32,5.32,0,0,1-1.15-3.61v-1.09a6,6,0,0,1,.52-2.59,3.86,3.86,0,0,1,3.63-2.33,4,4,0,0,1,2.17.59,3.93,3.93,0,0,1,1.46,1.68,6,6,0,0,1,.53,2.51Zm-.9-1.16a4.74,4.74,0,0,0-.87-3,3.13,3.13,0,0,0-4.76,0,4.73,4.73,0,0,0-.88,3v1.12a4.68,4.68,0,0,0,.88,3,2.89,2.89,0,0,0,2.39,1.11,2.84,2.84,0,0,0,2.38-1.09,4.79,4.79,0,0,0,.86-3Z" transform="translate(-5.65 -10)"/><path d="M109.91,132.3h-4.08v-.57l2.15-2.39a5.19,5.19,0,0,0,.66-.88,1.51,1.51,0,0,0,.19-.71,1.08,1.08,0,0,0-.3-.79,1,1,0,0,0-.78-.32,1.24,1.24,0,0,0-.92.34,1.26,1.26,0,0,0-.33.93h-.79a1.85,1.85,0,0,1,.56-1.39,2,2,0,0,1,1.48-.53,2,2,0,0,1,1.37.46,1.57,1.57,0,0,1,.5,1.21,3.58,3.58,0,0,1-1.17,2.19l-1.67,1.8h3.13Z" transform="translate(-5.65 -10)"/><path d="M118.08,129.45a3.43,3.43,0,0,1-1.82-.5,3.29,3.29,0,0,1-1.27-1.39,4.23,4.23,0,0,1-.46-2v-.32a4.62,4.62,0,0,1,.45-2.06,3.47,3.47,0,0,1,1.23-1.44,3.12,3.12,0,0,1,1.71-.52,2.84,2.84,0,0,1,2.29,1,4,4,0,0,1,.85,2.69v.49H115.4v.17a3.29,3.29,0,0,0,.78,2.24,2.44,2.44,0,0,0,1.94.9,2.86,2.86,0,0,0,1.24-.26,2.68,2.68,0,0,0,1-.82l.55.42A3.2,3.2,0,0,1,118.08,129.45Zm-.16-7.47a2.18,2.18,0,0,0-1.66.72,3.42,3.42,0,0,0-.83,2h4.76v-.09a2.91,2.91,0,0,0-.66-1.86A2,2,0,0,0,117.92,122Z" transform="translate(-5.65 -10)"/><path d="M123.56,121.38l0,1.29a3,3,0,0,1,1.1-1.08,3,3,0,0,1,1.47-.36,2.22,2.22,0,0,1,2.38,1.54,3,3,0,0,1,1.13-1.14,3.14,3.14,0,0,1,1.57-.4c1.7,0,2.56.93,2.6,2.78v5.29H133v-5.22a2.32,2.32,0,0,0-.46-1.57A1.84,1.84,0,0,0,131,122a2.35,2.35,0,0,0-1.59.61,2.17,2.17,0,0,0-.73,1.46v5.24h-.88V124a2.15,2.15,0,0,0-.48-1.52,1.92,1.92,0,0,0-1.45-.5,2.18,2.18,0,0,0-1.42.48,2.71,2.71,0,0,0-.88,1.4v5.43h-.88v-7.92Z" transform="translate(-5.65 -10)"/><path d="M136,119.09a.57.57,0,0,1,.16-.42.59.59,0,0,1,.44-.17.6.6,0,0,1,.44.17.57.57,0,0,1,.17.42.58.58,0,0,1-.61.58.55.55,0,0,1-.44-.17A.56.56,0,0,1,136,119.09Zm1,10.21h-.88v-7.92H137Z" transform="translate(-5.65 -10)"/><path d="M144.17,127.29a1.25,1.25,0,0,0-.53-1.05,4.08,4.08,0,0,0-1.58-.62,7.35,7.35,0,0,1-1.63-.51,2.17,2.17,0,0,1-.87-.71,1.74,1.74,0,0,1-.28-1,1.9,1.9,0,0,1,.78-1.55,3.19,3.19,0,0,1,2-.61,3.25,3.25,0,0,1,2.13.66,2.1,2.1,0,0,1,.8,1.71h-.88a1.41,1.41,0,0,0-.58-1.16,2.29,2.29,0,0,0-1.47-.46,2.36,2.36,0,0,0-1.39.38,1.19,1.19,0,0,0-.52,1,1.06,1.06,0,0,0,.44.92,4.54,4.54,0,0,0,1.58.6,7.15,7.15,0,0,1,1.73.58,2.19,2.19,0,0,1,.86.74,1.89,1.89,0,0,1,.27,1,1.92,1.92,0,0,1-.8,1.61,3.48,3.48,0,0,1-2.12.6,3.57,3.57,0,0,1-2.24-.67,2,2,0,0,1-.86-1.7h.88a1.53,1.53,0,0,0,.64,1.2,2.64,2.64,0,0,0,1.58.43,2.54,2.54,0,0,0,1.48-.4A1.21,1.21,0,0,0,144.17,127.29Z" transform="translate(-5.65 -10)"/><path d="M147,119.09a.62.62,0,0,1,1-.42.57.57,0,0,1,.16.42.56.56,0,0,1-.16.41.57.57,0,0,1-.45.17.57.57,0,0,1-.44-.17A.6.6,0,0,1,147,119.09Zm1,10.21h-.88v-7.92H148Z" transform="translate(-5.65 -10)"/><path d="M151.8,118.14h1.06l-1.69,2h-.77Zm-.46,11.16h-.88v-7.92h.88Z" transform="translate(-5.65 -10)"/><path d="M157.24,130.22h-.8l4.45-11.58h.8Z" transform="translate(-5.65 -10)"/><path d="M167.76,121.38l0,1.29a3,3,0,0,1,1.1-1.08,3,3,0,0,1,1.47-.36,2.22,2.22,0,0,1,2.38,1.54,3,3,0,0,1,1.13-1.14,3.14,3.14,0,0,1,1.57-.4c1.7,0,2.57.93,2.6,2.78v5.29h-.88v-5.22a2.32,2.32,0,0,0-.46-1.57,1.83,1.83,0,0,0-1.46-.52,2.37,2.37,0,0,0-1.6.61,2.17,2.17,0,0,0-.73,1.46v5.24H172V124a2.2,2.2,0,0,0-.47-1.52,1.94,1.94,0,0,0-1.46-.5,2.2,2.2,0,0,0-1.42.48,2.71,2.71,0,0,0-.88,1.4v5.43h-.88v-7.92Z" transform="translate(-5.65 -10)"/><path d="M181.24,129.3h-.88V118.05h.88Z" transform="translate(-5.65 -10)"/><path d="M183.27,125.27a4.77,4.77,0,0,1,.82-2.94,2.66,2.66,0,0,1,2.24-1.1,2.75,2.75,0,0,1,2.45,1.27v-4.45h.87V129.3h-.82l0-1.05a2.82,2.82,0,0,1-2.47,1.2,2.65,2.65,0,0,1-2.21-1.1,4.81,4.81,0,0,1-.84-3Zm.89.15a4.16,4.16,0,0,0,.6,2.39,2,2,0,0,0,1.72.88,2.37,2.37,0,0,0,2.3-1.43v-3.72a2.36,2.36,0,0,0-2.29-1.55,2,2,0,0,0-1.72.87A4.42,4.42,0,0,0,184.16,125.42Z" transform="translate(-5.65 -10)"/><path d="M191.88,128.77a.6.6,0,0,1,.16-.43.59.59,0,0,1,.46-.18.6.6,0,0,1,.46.18.61.61,0,0,1,.17.43.58.58,0,0,1-.17.43.63.63,0,0,1-.46.16.61.61,0,0,1-.46-.16A.57.57,0,0,1,191.88,128.77Z" transform="translate(-5.65 -10)"/><path d="M205.56,125.42a4.8,4.8,0,0,1-.82,2.94,2.61,2.61,0,0,1-2.2,1.09,3,3,0,0,1-2.49-1.14v4h-.87v-11H200l0,1.12a2.79,2.79,0,0,1,2.48-1.27,2.63,2.63,0,0,1,2.23,1.08,4.87,4.87,0,0,1,.81,3Zm-.88-.15a4.14,4.14,0,0,0-.62-2.4,2,2,0,0,0-1.74-.88,2.38,2.38,0,0,0-1.38.39,2.42,2.42,0,0,0-.89,1.13v3.8a2.36,2.36,0,0,0,.9,1,2.58,2.58,0,0,0,1.38.36,2,2,0,0,0,1.73-.88A4.48,4.48,0,0,0,204.68,125.27Z" transform="translate(-5.65 -10)"/><path d="M207,125.22a4.61,4.61,0,0,1,.44-2.06,3.33,3.33,0,0,1,1.25-1.42,3.37,3.37,0,0,1,1.84-.51,3.27,3.27,0,0,1,2.56,1.11,4.3,4.3,0,0,1,1,2.94v.18a4.76,4.76,0,0,1-.44,2.07A3.28,3.28,0,0,1,212.4,129a3.45,3.45,0,0,1-1.84.5,3.27,3.27,0,0,1-2.56-1.11,4.25,4.25,0,0,1-1-2.94Zm.87.24a3.62,3.62,0,0,0,.74,2.34,2.49,2.49,0,0,0,3.85,0,3.73,3.73,0,0,0,.74-2.41v-.17a3.94,3.94,0,0,0-.34-1.66,2.75,2.75,0,0,0-.94-1.17,2.47,2.47,0,0,0-1.39-.41,2.34,2.34,0,0,0-1.92.92,3.72,3.72,0,0,0-.74,2.4Z" transform="translate(-5.65 -10)"/><path d="M218.26,128.09l2.41-6.71h.9l-3,7.92h-.71l-3-7.92h.9Z" transform="translate(-5.65 -10)"/><path d="M222.42,125.22a4.75,4.75,0,0,1,.44-2.06,3.42,3.42,0,0,1,1.26-1.42,3.36,3.36,0,0,1,1.83-.51,3.24,3.24,0,0,1,2.56,1.11,4.25,4.25,0,0,1,1,2.94v.18a4.63,4.63,0,0,1-.45,2.07A3.22,3.22,0,0,1,227.8,129a3.42,3.42,0,0,1-1.83.5,3.25,3.25,0,0,1-2.56-1.11,4.25,4.25,0,0,1-1-2.94Zm.88.24a3.57,3.57,0,0,0,.74,2.34,2.49,2.49,0,0,0,3.85,0,3.72,3.72,0,0,0,.73-2.41v-.17a4.1,4.1,0,0,0-.33-1.66,2.77,2.77,0,0,0-.95-1.17A2.44,2.44,0,0,0,226,122a2.32,2.32,0,0,0-1.91.92,3.72,3.72,0,0,0-.74,2.4Z" transform="translate(-5.65 -10)"/><path d="M232.29,129.3h-.88V118.05h.88Z" transform="translate(-5.65 -10)"/><path d="M237.74,129.45a3.44,3.44,0,0,1-1.83-.5,3.29,3.29,0,0,1-1.27-1.39,4.23,4.23,0,0,1-.46-2v-.32a4.62,4.62,0,0,1,.45-2.06,3.47,3.47,0,0,1,1.23-1.44,3.12,3.12,0,0,1,1.71-.52,2.84,2.84,0,0,1,2.29,1,4,4,0,0,1,.85,2.69v.49h-5.66v.17a3.29,3.29,0,0,0,.78,2.24,2.44,2.44,0,0,0,1.94.9,2.86,2.86,0,0,0,1.24-.26,2.68,2.68,0,0,0,1-.82l.55.42A3.2,3.2,0,0,1,237.74,129.45Zm-.17-7.47a2.2,2.2,0,0,0-1.66.72,3.42,3.42,0,0,0-.83,2h4.76v-.09a2.9,2.9,0,0,0-.65-1.86A2,2,0,0,0,237.57,122Z" transform="translate(-5.65 -10)"/><path d="M243.25,121.38l0,1.35a3.1,3.1,0,0,1,1.11-1.11,2.9,2.9,0,0,1,1.48-.39,2.36,2.36,0,0,1,1.89.72,3.17,3.17,0,0,1,.63,2.15v5.2h-.87v-5.21a2.38,2.38,0,0,0-.45-1.58,1.8,1.8,0,0,0-1.42-.52,2.23,2.23,0,0,0-1.44.51,3.05,3.05,0,0,0-.92,1.37v5.43h-.87v-7.92Z" transform="translate(-5.65 -10)"/><path d="M250.6,119.09a.57.57,0,0,1,.17-.42.56.56,0,0,1,.43-.17.61.61,0,0,1,.45.17.57.57,0,0,1,.16.42.56.56,0,0,1-.16.41.57.57,0,0,1-.45.17.53.53,0,0,1-.43-.17A.57.57,0,0,1,250.6,119.09Zm1,10.21h-.88v-7.92h.88Z" transform="translate(-5.65 -10)"/><path d="M257.09,129.45a3.44,3.44,0,0,1-1.83-.5,3.29,3.29,0,0,1-1.27-1.39,4.35,4.35,0,0,1-.46-2v-.32a4.62,4.62,0,0,1,.45-2.06,3.47,3.47,0,0,1,1.23-1.44,3.12,3.12,0,0,1,1.71-.52,2.84,2.84,0,0,1,2.29,1,4,4,0,0,1,.85,2.69v.49h-5.65v.17a3.28,3.28,0,0,0,.77,2.24,2.44,2.44,0,0,0,1.94.9,2.83,2.83,0,0,0,1.24-.26,2.68,2.68,0,0,0,1-.82l.55.42A3.2,3.2,0,0,1,257.09,129.45Zm-.17-7.47a2.2,2.2,0,0,0-1.66.72,3.42,3.42,0,0,0-.83,2h4.76v-.09a2.9,2.9,0,0,0-.65-1.86A2,2,0,0,0,256.92,122Z" transform="translate(-5.65 -10)"/><path d="M263.65,125.31l-1,1v3h-.88V118.05h.88v7.2l.82-.89,3-3h1.11l-3.36,3.34,3.65,4.58h-1Z" transform="translate(-5.65 -10)"/><path d="M5.8,22.86V18.19c0-2.85,1.61-4.54,4.31-4.54s4.31,1.69,4.31,4.54v4.67c0,2.85-1.61,4.54-4.31,4.54S5.8,25.71,5.8,22.86Zm5.83,0V18.19c0-1.25-.51-1.92-1.52-1.92s-1.52.67-1.52,1.92v4.67c0,1.26.51,1.92,1.52,1.92S11.63,24.12,11.63,22.86Z" transform="translate(-5.65 -10)"/><path d="M17.18,13.88H20l1.2,6.29c.19,1,.42,2.6.55,3.7h.08c.13-1.1.36-2.74.55-3.7l1.19-6.29h2.8l-3.16,13.3H20.33Z" transform="translate(-5.65 -10)"/><path d="M36.52,24.61v2.57H29.47V13.88h6.86v2.56H32.17V19.2H36v2.47H32.17v2.94Z" transform="translate(-5.65 -10)"/><path d="M43.91,22.71H43v4.47h-2.7V13.88h3.86c2.64,0,4.2,1.63,4.2,4.42a4.2,4.2,0,0,1-1.84,3.84l2.5,5H46ZM43,20.15h1.12c1,0,1.46-.65,1.46-1.85s-.51-1.86-1.46-1.86H43Z" transform="translate(-5.65 -10)"/><path d="M59.2,24.61v2.57h-7V13.88H59v2.56H54.85V19.2h3.78v2.47H54.85v2.94Z" transform="translate(-5.65 -10)"/><path d="M71.42,13.88v13.3H68.76L66.52,22l-1.2-3.25,0,.06a53.69,53.69,0,0,1,.34,5.64v2.7H63V13.88h2.66l2.53,5.77c.32.84.62,1.71.94,2.55l.06-.06A45.44,45.44,0,0,1,68.76,17V13.88Z" transform="translate(-5.65 -10)"/><path d="M82.73,24.61v2.57h-7V13.88h6.86v2.56H78.38V19.2h3.78v2.47H78.38v2.94Zm-3.27-12H77.67L79.46,10h2.15Z" transform="translate(-5.65 -10)"/><path d="M99.22,24.61v2.57h-7V13.88H99v2.56H94.87V19.2h3.78v2.47H94.87v2.94Z" transform="translate(-5.65 -10)"/><path d="M114.4,13.88v13.3h-2.64V23.91c.07-1.62.13-3.23.21-4.85l-.1,0-1.2,3.49L110,24.33h-2.66l-.66-1.81L105.49,19l-.1,0c.06,1.62.14,3.23.19,4.85v3.27H103V13.88h2.72l2.09,5c.26.67.72,1.83.87,2.32h.08c.15-.49.61-1.65.87-2.32l2.09-5Z" transform="translate(-5.65 -10)"/><path d="M121.35,13.88v13.3h-2.69V13.88Z" transform="translate(-5.65 -10)"/><path d="M124.79,23.3h2.78c0,1.06.53,1.52,1.38,1.52s1.33-.51,1.33-1.18c0-2.2-5.2-2.47-5.2-6.51,0-2,1.42-3.52,3.87-3.52a3.62,3.62,0,0,1,3.94,3.92h-2.78c0-.88-.4-1.32-1.18-1.32s-1.12.38-1.12,1c0,2.09,5.28,2.22,5.28,6.46,0,2.19-1.53,3.78-4.17,3.78A3.78,3.78,0,0,1,124.79,23.3Z" transform="translate(-5.65 -10)"/><path d="M139.12,13.88v13.3h-2.7V13.88Z" transform="translate(-5.65 -10)"/><path d="M150.23,24.61v2.57h-7V13.88H150v2.56h-4.16V19.2h3.78v2.47h-3.78v2.94Z" transform="translate(-5.65 -10)"/><path d="M159.28,23.11V17.94c0-2.81,1.52-4.33,4.12-4.33s4.14,1.52,4.24,4.33h-2.7c-.08-1.21-.53-1.71-1.56-1.71-.82,0-1.29.53-1.29,1.71v5.17c0,1.14.45,1.67,1.29,1.67,1.05,0,1.52-.49,1.6-1.67h2.69c0,2.79-1.59,4.29-4.29,4.29S159.28,25.9,159.28,23.11Z" transform="translate(-5.65 -10)"/><path d="M170.75,22.86V18.19c0-2.85,1.62-4.54,4.32-4.54s4.31,1.69,4.31,4.54v4.67c0,2.85-1.62,4.54-4.31,4.54S170.75,25.71,170.75,22.86Zm5.83,0V18.19c0-1.25-.51-1.92-1.51-1.92s-1.52.67-1.52,1.92v4.67c0,1.26.51,1.92,1.52,1.92S176.58,24.12,176.58,22.86Z" transform="translate(-5.65 -10)"/><path d="M181.59,28.57c0-2.46,2.77-3.56,2.77-4.86a.62.62,0,0,0-.61-.68c-.4,0-.65.29-.67.81h-1.42c.07-1.47.81-2.22,2.06-2.22a2,2,0,0,1,2.13,2c0,2-2.68,3.3-2.68,4.48h2.72V29.5h-4.3Z" transform="translate(-5.65 -10)"/><path d="M199.08,25h-2.81l-.44,2.21H193l3.19-13.3h2.89l3.19,13.3h-2.79Zm-.53-2.56-.3-1.52c-.17-.95-.4-2.57-.54-3.65h-.07c-.13,1.08-.34,2.7-.53,3.65l-.31,1.52Z" transform="translate(-5.65 -10)"/><path d="M216.05,25h-2.81l-.44,2.21H210l3.19-13.3h2.89l3.19,13.3h-2.79Zm-.53-2.56-.31-1.52c-.17-.95-.4-2.57-.53-3.65h-.08c-.13,1.08-.34,2.7-.53,3.65l-.3,1.52Z" transform="translate(-5.65 -10)"/><path d="M229.06,24.61v2.57h-6.65V13.88h2.7V24.61Z" transform="translate(-5.65 -10)"/><path d="M231.86,22.86V18.19c0-2.85,1.61-4.54,4.31-4.54s4.31,1.69,4.31,4.54v4.67c0,2.85-1.61,4.54-4.31,4.54S231.86,25.71,231.86,22.86Zm5.83,0V18.19c0-1.25-.51-1.92-1.52-1.92s-1.52.67-1.52,1.92v4.67c0,1.26.51,1.92,1.52,1.92S237.69,24.12,237.69,22.86Z" transform="translate(-5.65 -10)"/><path d="M247.74,22.14l-.74,1.2v3.84h-2.66V13.88H247V19l.68-1.48,1.86-3.61h3.08l-3.38,5.81,3.95,7.49h-3Z" transform="translate(-5.65 -10)"/><path d="M255.59,22.86V18.19c0-2.85,1.61-4.54,4.31-4.54s4.31,1.69,4.31,4.54v4.67c0,2.85-1.61,4.54-4.31,4.54S255.59,25.71,255.59,22.86Zm5.83,0V18.19c0-1.25-.51-1.92-1.52-1.92s-1.52.67-1.52,1.92v4.67c0,1.26.51,1.92,1.52,1.92S261.42,24.12,261.42,22.86Z" transform="translate(-5.65 -10)"/><path d="M267,13.88h2.79l1.2,6.29c.19,1,.42,2.6.55,3.7h.08c.13-1.1.36-2.74.55-3.7l1.19-6.29h2.8L273,27.18H270.1Z" transform="translate(-5.65 -10)"/><path d="M283.52,25h-2.81l-.44,2.21h-2.79l3.19-13.3h2.89l3.19,13.3H284ZM283,22.41l-.31-1.52c-.17-.95-.4-2.57-.53-3.65h-.08c-.13,1.08-.34,2.7-.53,3.65l-.3,1.52Z" transform="translate(-5.65 -10)"/><path d="M298.35,13.88v13.3H295.7L293.45,22l-1.19-3.25-.06.06a53.69,53.69,0,0,1,.34,5.64v2.7h-2.66V13.88h2.66l2.53,5.77c.32.84.63,1.71.95,2.55l.06-.06A45.44,45.44,0,0,1,295.7,17V13.88Z" transform="translate(-5.65 -10)"/><path d="M309.66,24.61v2.57h-7.05V13.88h6.86v2.56h-4.16V19.2h3.78v2.47h-3.78v2.94Zm-3.27-12h-1.78l1.78-2.6h2.15Z" transform="translate(-5.65 -10)"/><path d="M327.33,18.4c0,2.83-1.63,4.5-4.39,4.5h-1.16v4.28h-2.7V13.88h3.86C325.7,13.88,327.33,15.55,327.33,18.4Zm-2.77,0c0-1.29-.57-2-1.66-2h-1.12v3.9h1.12C324,20.34,324.56,19.67,324.56,18.4Z" transform="translate(-5.65 -10)"/><path d="M330.56,22.86V18.19c0-2.85,1.62-4.54,4.31-4.54s4.32,1.69,4.32,4.54v4.67c0,2.85-1.62,4.54-4.32,4.54S330.56,25.71,330.56,22.86Zm5.83,0V18.19c0-1.25-.51-1.92-1.52-1.92s-1.52.67-1.52,1.92v4.67c0,1.26.52,1.92,1.52,1.92S336.39,24.12,336.39,22.86Z" transform="translate(-5.65 -10)"/><path d="M341.92,13.88h2.8l1.19,6.29c.19,1,.42,2.6.55,3.7h.08c.13-1.1.36-2.74.55-3.7l1.2-6.29h2.79l-3.15,13.3h-2.85Z" transform="translate(-5.65 -10)"/><path d="M353.84,22.86V18.19c0-2.85,1.61-4.54,4.31-4.54s4.31,1.69,4.31,4.54v4.67c0,2.85-1.61,4.54-4.31,4.54S353.84,25.71,353.84,22.86Zm5.83,0V18.19c0-1.25-.52-1.92-1.52-1.92s-1.52.67-1.52,1.92v4.67c0,1.26.51,1.92,1.52,1.92S359.67,24.12,359.67,22.86Z" transform="translate(-5.65 -10)"/><path d="M373,24.61v2.57h-6.65V13.88H369V24.61Z" transform="translate(-5.65 -10)"/><path d="M383.23,24.61v2.57h-7.05V13.88H383v2.56h-4.16V19.2h3.78v2.47h-3.78v2.94Z" transform="translate(-5.65 -10)"/><path d="M395.44,13.88v13.3h-2.66L390.54,22l-1.19-3.25-.06.06a53.69,53.69,0,0,1,.34,5.64v2.7H387V13.88h2.66l2.53,5.77c.32.84.62,1.71.95,2.55l.05-.06a47.85,47.85,0,0,1-.38-5.19V13.88Z" transform="translate(-5.65 -10)"/><path d="M403.1,22.14l-.74,1.2v3.84H399.7V13.88h2.66V19l.68-1.48,1.87-3.61H408l-3.38,5.81,3.95,7.49h-3Z" transform="translate(-5.65 -10)"/><path d="M414,23.22l-3.13-9.34h2.79l1.08,3.68c.14.44.44,1.48.57,2.13h.08c.15-.65.45-1.69.61-2.18l1-3.63h2.79l-3.13,9.34v4H414Z" transform="translate(-5.65 -10)"/><path d="M427.44,13.88h2.79l1.2,6.29c.19,1,.42,2.6.55,3.7h.08c.13-1.1.36-2.74.55-3.7l1.19-6.29h2.8l-3.16,13.3h-2.85Z" transform="translate(-5.65 -10)"/><path d="M444.26,27.4c1.46,0,2.28-.49,2.28-2.26V13.88h2.69V25.16c0,3-1.67,4.92-5,4.92Z" transform="translate(-5.65 -10)"/><path d="M460.48,24.61v2.57h-7.05V13.88h6.86v2.56h-4.16V19.2h3.78v2.47h-3.78v2.94Z" transform="translate(-5.65 -10)"/><path d="M464.22,13.88h3.65c2.68,0,4.26,1.63,4.26,4.41v4.38c0,2.83-1.56,4.51-4.22,4.51h-3.69Zm3.69,10.73c1,0,1.48-.66,1.48-1.94V18.29c0-1.22-.51-1.85-1.48-1.85h-1v8.17Z" transform="translate(-5.65 -10)"/><path d="M484.48,13.88v13.3h-2.66L479.58,22l-1.2-3.25-.06.06a53.69,53.69,0,0,1,.34,5.64v2.7H476V13.88h2.66l2.53,5.77c.32.84.63,1.71.95,2.55l.06-.06a45.44,45.44,0,0,1-.38-5.19V13.88Z" transform="translate(-5.65 -10)"/><path d="M488.35,22.86V18.19c0-2.85,1.62-4.54,4.32-4.54S497,15.34,497,18.19v4.67c0,2.85-1.62,4.54-4.31,4.54S488.35,25.71,488.35,22.86Zm5.84,0V18.19c0-1.25-.52-1.92-1.52-1.92s-1.52.67-1.52,1.92v4.67c0,1.26.51,1.92,1.52,1.92S494.19,24.12,494.19,22.86Z" transform="translate(-5.65 -10)"/><path d="M507.94,16.44h-2.6V27.18h-2.77V16.44H500V13.88h8Z" transform="translate(-5.65 -10)"/><path d="M517.76,24.61v2.57h-6.64V13.88h2.69V24.61Z" transform="translate(-5.65 -10)"/><path d="M523.64,13.88v13.3h-2.7V13.88Z" transform="translate(-5.65 -10)"/><path d="M526.77,13.88h2.79l1.2,6.29c.19,1,.42,2.6.55,3.7h.08c.13-1.1.36-2.74.55-3.7l1.2-6.29h2.79l-3.15,13.3h-2.85Z" transform="translate(-5.65 -10)"/><path d="M541,23.22l-3.13-9.34h2.79l1.08,3.68c.14.44.44,1.48.57,2.13h.08c.15-.65.45-1.69.61-2.18l1-3.63h2.79l-3.13,9.34v4H541ZM542.84,10H545l-2.15,2.6h-1.78Z" transform="translate(-5.65 -10)"/><path d="M549.55,23.11V17.94c0-2.81,1.52-4.33,4.12-4.33s4.15,1.52,4.24,4.33h-2.7c-.07-1.21-.53-1.71-1.55-1.71-.82,0-1.3.53-1.3,1.71v5.17c0,1.14.46,1.67,1.3,1.67,1,0,1.51-.49,1.59-1.67H558c-.06,2.79-1.6,4.29-4.29,4.29S549.55,25.9,549.55,23.11Z" transform="translate(-5.65 -10)"/><path d="M569.56,13.88v13.3h-2.72V21.76h-2.73v5.42h-2.72V13.88h2.72V19.2h2.73V13.88Z" transform="translate(-5.65 -10)"/><path d="M583.16,22.71h-.95v4.47h-2.7V13.88h3.86c2.64,0,4.2,1.63,4.2,4.42a4.2,4.2,0,0,1-1.84,3.84l2.5,5h-2.94Zm-.95-2.56h1.12c.95,0,1.47-.65,1.47-1.85s-.52-1.86-1.47-1.86h-1.12Z" transform="translate(-5.65 -10)"/><path d="M591,22.86V18.19c0-2.85,1.61-4.54,4.31-4.54s4.31,1.69,4.31,4.54v4.67c0,2.85-1.61,4.54-4.31,4.54S591,25.71,591,22.86Zm5.83,0V18.19c0-1.25-.51-1.92-1.52-1.92s-1.52.67-1.52,1.92v4.67c0,1.26.51,1.92,1.52,1.92S596.84,24.12,596.84,22.86Z" transform="translate(-5.65 -10)"/><path d="M606.89,22.14l-.74,1.2v3.84h-2.66V13.88h2.66V19l.69-1.48,1.86-3.61h3.08l-3.39,5.81,4,7.49h-3Z" transform="translate(-5.65 -10)"/><path d="M615,22.86V18.19c0-2.85,1.61-4.54,4.31-4.54s4.31,1.69,4.31,4.54v4.67c0,2.85-1.61,4.54-4.31,4.54S615,25.71,615,22.86Zm5.83,0V18.19c0-1.25-.52-1.92-1.52-1.92s-1.52.67-1.52,1.92v4.67c0,1.26.51,1.92,1.52,1.92S620.86,24.12,620.86,22.86Z" transform="translate(-5.65 -10)"/><path d="M627.13,23.11V17.94c0-2.81,1.52-4.33,4.12-4.33s4.14,1.52,4.24,4.33h-2.7c-.08-1.21-.53-1.71-1.56-1.71-.82,0-1.29.53-1.29,1.71v5.17c0,1.14.46,1.67,1.29,1.67,1,0,1.52-.49,1.6-1.67h2.69c0,2.79-1.59,4.29-4.29,4.29S627.13,25.9,627.13,23.11Z" transform="translate(-5.65 -10)"/><path d="M647.13,13.88v13.3h-2.71V21.76h-2.74v5.42H639V13.88h2.72V19.2h2.74V13.88Z" transform="translate(-5.65 -10)"/><g class="cls-2"><g class="cls-14"><g class="cls-15"><rect x="44.38" y="165.76" width="45.29" height="214.17"/><rect class="cls-4" x="44.38" y="165.76" width="45.29" height="214.17"/><rect x="89.67" y="167.62" width="45.29" height="212.31"/><rect class="cls-4" x="89.67" y="167.62" width="45.29" height="212.31"/><rect x="134.96" y="155.77" width="45.29" height="224.16"/><rect class="cls-4" x="134.96" y="155.77" width="45.29" height="224.16"/><rect x="180.26" y="173.76" width="45.29" height="206.17"/><rect class="cls-4" x="180.26" y="173.76" width="45.29" height="206.17"/><rect x="225.55" y="169.81" width="45.29" height="210.12"/><rect class="cls-4" x="225.55" y="169.81" width="45.29" height="210.12"/><rect x="270.84" y="166.6" width="45.29" height="213.34"/><rect class="cls-4" x="270.84" y="166.6" width="45.29" height="213.34"/><rect x="316.13" y="164.5" width="45.29" height="215.43"/><rect class="cls-4" x="316.13" y="164.5" width="45.29" height="215.43"/><rect x="361.43" y="150.36" width="45.29" height="229.57"/><rect class="cls-4" x="361.43" y="150.36" width="45.29" height="229.57"/><rect x="406.72" y="159.07" width="45.29" height="220.86"/><rect class="cls-4" x="406.72" y="159.07" width="45.29" height="220.86"/><rect x="452.01" y="216.01" width="45.29" height="163.92"/><rect class="cls-4" x="452.01" y="216.01" width="45.29" height="163.92"/><rect x="497.3" y="219.99" width="45.29" height="159.94"/><rect class="cls-4" x="497.3" y="219.99" width="45.29" height="159.94"/><rect x="542.59" y="217.23" width="45.29" height="162.7"/><rect class="cls-4" x="542.59" y="217.23" width="45.29" height="162.7"/><rect x="587.89" y="197.85" width="45.29" height="182.08"/><rect class="cls-4" x="587.89" y="197.85" width="45.29" height="182.08"/><rect x="633.18" y="205.54" width="45.29" height="174.4"/><rect class="cls-4" x="633.18" y="205.54" width="45.29" height="174.4"/><rect x="678.47" y="242" width="45.29" height="137.93"/><rect class="cls-4" x="678.47" y="242" width="45.29" height="137.93"/></g></g></g></g></svg>