<?xml version="1.0" encoding="UTF-8" standalone="no"?>
<svg
   xmlns:dc="http://purl.org/dc/elements/1.1/"
   xmlns:cc="http://creativecommons.org/ns#"
   xmlns:rdf="http://www.w3.org/1999/02/22-rdf-syntax-ns#"
   xmlns:svg="http://www.w3.org/2000/svg"
   xmlns="http://www.w3.org/2000/svg"
   viewBox="0 0 986.66669 623.57465"
   height="623.57465"
   width="986.66669"
   xml:space="preserve"
   id="svg2"
   version="1.1"><metadata
     id="metadata8"><rdf:RDF><cc:Work
         rdf:about=""><dc:format>image/svg+xml</dc:format><dc:type
           rdf:resource="http://purl.org/dc/dcmitype/StillImage" /></cc:Work></rdf:RDF></metadata><defs
     id="defs6"><clipPath
       id="clipPath242"
       clipPathUnits="userSpaceOnUse"><path
         id="path240"
         d="M 0,0 H 740 V 467.681 H 0 Z" /></clipPath><clipPath
       id="clipPath250"
       clipPathUnits="userSpaceOnUse"><path
         id="path248"
         d="M 49.4735,307.871 H 729.965 V 77.1945 H 49.4735 Z" /></clipPath><clipPath
       id="clipPath254"
       clipPathUnits="userSpaceOnUse"><path
         id="path252"
         d="m 49.474,77.194 h 680.49 V 307.871 H 49.474 Z" /></clipPath><clipPath
       id="clipPath258"
       clipPathUnits="userSpaceOnUse"><path
         id="path256"
         d="m 49.474,77.194 h 680.49 V 307.871 H 49.474 Z" /></clipPath><clipPath
       id="clipPath262"
       clipPathUnits="userSpaceOnUse"><path
         id="path260"
         d="m 49.474,77.194 h 680.49 V 307.871 H 49.474 Z" /></clipPath><clipPath
       id="clipPath266"
       clipPathUnits="userSpaceOnUse"><path
         id="path264"
         d="m 49.474,77.194 h 680.49 V 307.871 H 49.474 Z" /></clipPath><clipPath
       id="clipPath270"
       clipPathUnits="userSpaceOnUse"><path
         id="path268"
         d="m 49.474,77.194 h 680.49 V 307.871 H 49.474 Z" /></clipPath><clipPath
       id="clipPath274"
       clipPathUnits="userSpaceOnUse"><path
         id="path272"
         d="m 49.474,77.194 h 680.49 V 307.871 H 49.474 Z" /></clipPath><clipPath
       id="clipPath278"
       clipPathUnits="userSpaceOnUse"><path
         id="path276"
         d="m 49.474,77.194 h 680.49 V 307.871 H 49.474 Z" /></clipPath><clipPath
       id="clipPath282"
       clipPathUnits="userSpaceOnUse"><path
         id="path280"
         d="m 49.474,77.194 h 680.49 V 307.871 H 49.474 Z" /></clipPath><clipPath
       id="clipPath286"
       clipPathUnits="userSpaceOnUse"><path
         id="path284"
         d="m 49.474,77.194 h 680.49 V 307.871 H 49.474 Z" /></clipPath><clipPath
       id="clipPath290"
       clipPathUnits="userSpaceOnUse"><path
         id="path288"
         d="m 49.474,77.194 h 680.49 V 307.871 H 49.474 Z" /></clipPath><clipPath
       id="clipPath294"
       clipPathUnits="userSpaceOnUse"><path
         id="path292"
         d="m 49.474,77.194 h 680.49 V 307.871 H 49.474 Z" /></clipPath><clipPath
       id="clipPath298"
       clipPathUnits="userSpaceOnUse"><path
         id="path296"
         d="m 49.474,77.194 h 680.49 V 307.871 H 49.474 Z" /></clipPath><clipPath
       id="clipPath302"
       clipPathUnits="userSpaceOnUse"><path
         id="path300"
         d="m 49.474,77.194 h 680.49 V 307.871 H 49.474 Z" /></clipPath><clipPath
       id="clipPath306"
       clipPathUnits="userSpaceOnUse"><path
         id="path304"
         d="m 49.474,77.194 h 680.49 V 307.871 H 49.474 Z" /></clipPath><clipPath
       id="clipPath310"
       clipPathUnits="userSpaceOnUse"><path
         id="path308"
         d="m 49.474,77.194 h 680.49 V 307.871 H 49.474 Z" /></clipPath></defs><g
     transform="matrix(1.3333333,0,0,-1.3333333,0,623.57467)"
     id="g10"><path
       id="path12"
       style="fill:#87bbde;fill-opacity:1;fill-rule:nonzero;stroke:#ffffff;stroke-width:1.10699999;stroke-linecap:butt;stroke-linejoin:miter;stroke-miterlimit:10;stroke-dasharray:none;stroke-opacity:1"
       d="M 49.66,77.748 H 95.001 V 284.243 H 49.66 Z" /><path
       id="path14"
       style="fill:#87bbde;fill-opacity:1;fill-rule:nonzero;stroke:#ffffff;stroke-width:1.10699999;stroke-linecap:butt;stroke-linejoin:miter;stroke-miterlimit:10;stroke-dasharray:none;stroke-opacity:1"
       d="m 95.001,77.748 h 45.341 V 286.469 H 95.001 Z" /><path
       id="path16"
       style="fill:#87bbde;fill-opacity:1;fill-rule:nonzero;stroke:#ffffff;stroke-width:1.10699999;stroke-linecap:butt;stroke-linejoin:miter;stroke-miterlimit:10;stroke-dasharray:none;stroke-opacity:1"
       d="m 140.343,77.748 h 45.341 v 221.941 h -45.341 z" /><path
       id="path18"
       style="fill:#87bbde;fill-opacity:1;fill-rule:nonzero;stroke:#ffffff;stroke-width:1.10699999;stroke-linecap:butt;stroke-linejoin:miter;stroke-miterlimit:10;stroke-dasharray:none;stroke-opacity:1"
       d="m 185.684,77.748 h 45.341 V 295.07 h -45.341 z" /><path
       id="path20"
       style="fill:#87bbde;fill-opacity:1;fill-rule:nonzero;stroke:#ffffff;stroke-width:1.10699999;stroke-linecap:butt;stroke-linejoin:miter;stroke-miterlimit:10;stroke-dasharray:none;stroke-opacity:1"
       d="m 231.025,77.748 h 45.341 v 192.71 h -45.341 z" /><path
       id="path22"
       style="fill:#87bbde;fill-opacity:1;fill-rule:nonzero;stroke:#ffffff;stroke-width:1.10699999;stroke-linecap:butt;stroke-linejoin:miter;stroke-miterlimit:10;stroke-dasharray:none;stroke-opacity:1"
       d="m 276.366,77.748 h 45.341 v 198.778 h -45.341 z" /><path
       id="path24"
       style="fill:#87bbde;fill-opacity:1;fill-rule:nonzero;stroke:#ffffff;stroke-width:1.10699999;stroke-linecap:butt;stroke-linejoin:miter;stroke-miterlimit:10;stroke-dasharray:none;stroke-opacity:1"
       d="m 321.707,77.748 h 45.341 v 195.25 h -45.341 z" /><path
       id="path26"
       style="fill:#87bbde;fill-opacity:1;fill-rule:nonzero;stroke:#ffffff;stroke-width:1.10699999;stroke-linecap:butt;stroke-linejoin:miter;stroke-miterlimit:10;stroke-dasharray:none;stroke-opacity:1"
       d="m 367.048,77.748 h 45.341 v 200.03 h -45.341 z" /><path
       id="path28"
       style="fill:#87bbde;fill-opacity:1;fill-rule:nonzero;stroke:#ffffff;stroke-width:1.10699999;stroke-linecap:butt;stroke-linejoin:miter;stroke-miterlimit:10;stroke-dasharray:none;stroke-opacity:1"
       d="m 412.39,77.748 h 45.342 V 278.864 H 412.39 Z" /><path
       id="path30"
       style="fill:#87bbde;fill-opacity:1;fill-rule:nonzero;stroke:#ffffff;stroke-width:1.10699999;stroke-linecap:butt;stroke-linejoin:miter;stroke-miterlimit:10;stroke-dasharray:none;stroke-opacity:1"
       d="m 457.73,77.748 h 45.342 V 269.331 H 457.73 Z" /><path
       id="path32"
       style="fill:#87bbde;fill-opacity:1;fill-rule:nonzero;stroke:#ffffff;stroke-width:1.10699999;stroke-linecap:butt;stroke-linejoin:miter;stroke-miterlimit:10;stroke-dasharray:none;stroke-opacity:1"
       d="m 503.072,77.748 h 45.341 v 190.719 h -45.341 z" /><path
       id="path34"
       style="fill:#87bbde;fill-opacity:1;fill-rule:nonzero;stroke:#ffffff;stroke-width:1.10699999;stroke-linecap:butt;stroke-linejoin:miter;stroke-miterlimit:10;stroke-dasharray:none;stroke-opacity:1"
       d="m 548.413,77.748 h 45.341 V 263.53 h -45.341 z" /><path
       id="path36"
       style="fill:#87bbde;fill-opacity:1;fill-rule:nonzero;stroke:#ffffff;stroke-width:1.10699999;stroke-linecap:butt;stroke-linejoin:miter;stroke-miterlimit:10;stroke-dasharray:none;stroke-opacity:1"
       d="m 593.754,77.748 h 45.342 v 186.511 h -45.342 z" /><path
       id="path38"
       style="fill:#87bbde;fill-opacity:1;fill-rule:nonzero;stroke:#ffffff;stroke-width:1.10699999;stroke-linecap:butt;stroke-linejoin:miter;stroke-miterlimit:10;stroke-dasharray:none;stroke-opacity:1"
       d="m 639.096,77.748 h 45.342 V 257.23 h -45.342 z" /><path
       id="path40"
       style="fill:#87bbde;fill-opacity:1;fill-rule:nonzero;stroke:#ffffff;stroke-width:1.10699999;stroke-linecap:butt;stroke-linejoin:miter;stroke-miterlimit:10;stroke-dasharray:none;stroke-opacity:1"
       d="m 684.437,77.748 h 45.342 v 163.88 h -45.342 z" /><text
       id="text44"
       style="font-variant:normal;font-weight:300;font-stretch:normal;font-size:15px;font-family:'Roboto Light';-inkscape-font-specification:Roboto-Light;writing-mode:lr-tb;fill:#000000;fill-opacity:1;fill-rule:nonzero;stroke:none"
       transform="matrix(1,0,0,-1,56.0479,54.9521)"><tspan
         id="tspan42"
         y="0"
         x="0 8.3100004 16.620001 24.93 90.584999 98.894997 107.205 115.515 181.17 189.48 197.78999 206.10001 271.755 280.065 288.375 296.685 362.34 370.64999 378.95999 387.26999 452.92499 461.23499 469.54501 477.85501 543.51001 551.82001 560.13 568.44 634.09497 642.40503 650.71503 659.02502">20052007200920112013201520172019</tspan></text>
<g
       transform="translate(44.3115,77.748)"
       id="g46"><path
         id="path48"
         style="fill:none;stroke:#666666;stroke-width:0.66399997;stroke-linecap:square;stroke-linejoin:miter;stroke-miterlimit:4;stroke-dasharray:none;stroke-opacity:1"
         d="M 0,0 H 685.467" /></g><g
       transform="translate(5.7974,77.748)"
       id="g50"><path
         id="path52"
         style="fill:none;stroke:#808285;stroke-width:0.30000001;stroke-linecap:square;stroke-linejoin:round;stroke-miterlimit:4;stroke-dasharray:5.688, 5.688;stroke-dashoffset:0;stroke-opacity:1"
         d="M 0,0 H 723.981" /></g><g
       transform="translate(5.7974,129.0107)"
       id="g54"><path
         id="path56"
         style="fill:none;stroke:#808285;stroke-width:0.30000001;stroke-linecap:square;stroke-linejoin:round;stroke-miterlimit:4;stroke-dasharray:5.688, 5.688;stroke-dashoffset:0;stroke-opacity:1"
         d="M 0,0 H 723.981" /></g><g
       transform="translate(5.7974,180.2744)"
       id="g58"><path
         id="path60"
         style="fill:none;stroke:#808285;stroke-width:0.30000001;stroke-linecap:square;stroke-linejoin:round;stroke-miterlimit:4;stroke-dasharray:5.688, 5.688;stroke-dashoffset:0;stroke-opacity:1"
         d="M 0,0 H 723.981" /></g><g
       transform="translate(5.7974,231.5371)"
       id="g62"><path
         id="path64"
         style="fill:none;stroke:#808285;stroke-width:0.30000001;stroke-linecap:square;stroke-linejoin:round;stroke-miterlimit:4;stroke-dasharray:5.688, 5.688;stroke-dashoffset:0;stroke-opacity:1"
         d="M 0,0 H 723.981" /></g><g
       transform="translate(5.7974,282.8003)"
       id="g66"><path
         id="path68"
         style="fill:none;stroke:#808285;stroke-width:0.30000001;stroke-linecap:square;stroke-linejoin:round;stroke-miterlimit:4;stroke-dasharray:5.688, 5.688;stroke-dashoffset:0;stroke-opacity:1"
         d="M 0,0 H 723.981" /></g><g
       transform="translate(5.7974,334.063)"
       id="g70"><path
         id="path72"
         style="fill:none;stroke:#808285;stroke-width:0.30000001;stroke-linecap:square;stroke-linejoin:round;stroke-miterlimit:4;stroke-dasharray:5.688, 5.688;stroke-dashoffset:0;stroke-opacity:1"
         d="M 0,0 H 723.981" /></g><g
       transform="translate(95.0015,291.9136)"
       id="g74"><path
         id="path76"
         style="fill:none;stroke:#000000;stroke-width:2.21399999;stroke-linecap:butt;stroke-linejoin:miter;stroke-miterlimit:10;stroke-dasharray:none;stroke-opacity:1"
         d="M 0,0 H -45.341" /></g><g
       transform="translate(140.3423,290.0557)"
       id="g78"><path
         id="path80"
         style="fill:none;stroke:#000000;stroke-width:2.21399999;stroke-linecap:butt;stroke-linejoin:miter;stroke-miterlimit:10;stroke-dasharray:none;stroke-opacity:1"
         d="M 0,0 H -45.341" /></g><g
       transform="translate(185.6841,301.9106)"
       id="g82"><path
         id="path84"
         style="fill:none;stroke:#000000;stroke-width:2.21399999;stroke-linecap:butt;stroke-linejoin:miter;stroke-miterlimit:10;stroke-dasharray:none;stroke-opacity:1"
         d="M 0,0 H -45.342" /></g><g
       transform="translate(231.0249,282.8003)"
       id="g86"><path
         id="path88"
         style="fill:none;stroke:#000000;stroke-width:2.21399999;stroke-linecap:butt;stroke-linejoin:miter;stroke-miterlimit:10;stroke-dasharray:none;stroke-opacity:1"
         d="M 0,0 H -45.341" /></g><g
       transform="translate(276.3662,287.8696)"
       id="g90"><path
         id="path92"
         style="fill:none;stroke:#000000;stroke-width:2.21399999;stroke-linecap:butt;stroke-linejoin:miter;stroke-miterlimit:10;stroke-dasharray:none;stroke-opacity:1"
         d="M 0,0 H -45.341" /></g><g
       transform="translate(321.7075,291.0835)"
       id="g94"><path
         id="path96"
         style="fill:none;stroke:#000000;stroke-width:2.21399999;stroke-linecap:butt;stroke-linejoin:miter;stroke-miterlimit:10;stroke-dasharray:none;stroke-opacity:1"
         d="M 0,0 H -45.341" /></g><g
       transform="translate(367.0483,293.1768)"
       id="g98"><path
         id="path100"
         style="fill:none;stroke:#000000;stroke-width:2.21399999;stroke-linecap:butt;stroke-linejoin:miter;stroke-miterlimit:10;stroke-dasharray:none;stroke-opacity:1"
         d="M 0,0 H -45.341" /></g><g
       transform="translate(412.3896,307.3174)"
       id="g102"><path
         id="path104"
         style="fill:none;stroke:#000000;stroke-width:2.21399999;stroke-linecap:butt;stroke-linejoin:miter;stroke-miterlimit:10;stroke-dasharray:none;stroke-opacity:1"
         d="M 0,0 H -45.341" /></g><g
       transform="translate(457.7305,298.6069)"
       id="g106"><path
         id="path108"
         style="fill:none;stroke:#000000;stroke-width:2.21399999;stroke-linecap:butt;stroke-linejoin:miter;stroke-miterlimit:10;stroke-dasharray:none;stroke-opacity:1"
         d="M 0,0 H -45.341" /></g><g
       transform="translate(503.0723,241.6655)"
       id="g110"><path
         id="path112"
         style="fill:none;stroke:#000000;stroke-width:2.21399999;stroke-linecap:butt;stroke-linejoin:miter;stroke-miterlimit:10;stroke-dasharray:none;stroke-opacity:1"
         d="M 0,0 H -45.342" /></g><g
       transform="translate(548.4131,237.6846)"
       id="g114"><path
         id="path116"
         style="fill:none;stroke:#000000;stroke-width:2.21399999;stroke-linecap:butt;stroke-linejoin:miter;stroke-miterlimit:10;stroke-dasharray:none;stroke-opacity:1"
         d="M 0,0 H -45.341" /></g><g
       transform="translate(593.7549,240.4507)"
       id="g118"><path
         id="path120"
         style="fill:none;stroke:#000000;stroke-width:2.21399999;stroke-linecap:butt;stroke-linejoin:miter;stroke-miterlimit:10;stroke-dasharray:none;stroke-opacity:1"
         d="M 0,0 H -45.342" /></g><g
       transform="translate(639.0957,259.8296)"
       id="g122"><path
         id="path124"
         style="fill:none;stroke:#000000;stroke-width:2.21399999;stroke-linecap:butt;stroke-linejoin:miter;stroke-miterlimit:10;stroke-dasharray:none;stroke-opacity:1"
         d="M 0,0 H -45.341" /></g><g
       transform="translate(684.4365,252.1431)"
       id="g126"><path
         id="path128"
         style="fill:none;stroke:#000000;stroke-width:2.21399999;stroke-linecap:butt;stroke-linejoin:miter;stroke-miterlimit:10;stroke-dasharray:none;stroke-opacity:1"
         d="M 0,0 H -45.341" /></g><g
       transform="translate(729.7783,215.6807)"
       id="g130"><path
         id="path132"
         style="fill:none;stroke:#000000;stroke-width:2.21399999;stroke-linecap:butt;stroke-linejoin:miter;stroke-miterlimit:10;stroke-dasharray:none;stroke-opacity:1"
         d="M 0,0 H -45.342" /></g><text
       id="text136"
       style="font-variant:normal;font-weight:300;font-stretch:normal;font-size:12px;font-family:'Roboto Light';-inkscape-font-specification:Roboto-Light;writing-mode:lr-tb;fill:#000000;fill-opacity:1;fill-rule:nonzero;stroke:none"
       transform="matrix(1,0,0,-1,5.7979,13.9434)"><tspan
         id="tspan134"
         y="0"
         x="0 5.0879998 8.0039997 15.18 21.612 25.643999 28.332001 34.764 41.352001 47.472 53.976002 56.580002 62.928001 65.844002 76.475998 83.195999 89.783997 92.472 95.160004 98.075996 104.16 109.86 116.508 119.172 125.304 128.22 134.424 145.056 147.744 153.81599 156.504 162.70799 165.62399 172.272 178.992 184.87199">* Zariadenia mohli svoje emisie pokr</tspan></text>
<text
       id="text140"
       style="font-variant:normal;font-weight:300;font-stretch:normal;font-size:12px;font-family:'Roboto Light';-inkscape-font-specification:Roboto-Light;writing-mode:lr-tb;fill:#000000;fill-opacity:1;fill-rule:nonzero;stroke:none"
       transform="matrix(1,0,0,-1,194.7979,13.9434)"><tspan
         id="tspan138"
         y="0"
         x="0 5.6999998 9.7919998 12.708 16.559999">yť ta</tspan></text>
<text
       id="text144"
       style="font-variant:normal;font-weight:300;font-stretch:normal;font-size:12px;font-family:'Roboto Light';-inkscape-font-specification:Roboto-Light;writing-mode:lr-tb;fill:#000000;fill-opacity:1;fill-rule:nonzero;stroke:none"
       transform="matrix(1,0,0,-1,217.7899,13.9434)"><tspan
         id="tspan142"
         y="0"
         x="0">k</tspan></text>
<text
       id="text148"
       style="font-variant:normal;font-weight:300;font-stretch:normal;font-size:12px;font-family:'Roboto Light';-inkscape-font-specification:Roboto-Light;writing-mode:lr-tb;fill:#000000;fill-opacity:1;fill-rule:nonzero;stroke:none"
       transform="matrix(1,0,0,-1,223.5619,13.9434)"><tspan
         id="tspan146"
         y="0"
         x="0 3.852 6.54 12.744 18.576 21.492001 32.124001 38.327999 45 50.832001 53.52 60.108002">tiež medziná</tspan></text>
<text
       id="text152"
       style="font-variant:normal;font-weight:300;font-stretch:normal;font-size:12px;font-family:'Roboto Light';-inkscape-font-specification:Roboto-Light;writing-mode:lr-tb;fill:#000000;fill-opacity:1;fill-rule:nonzero;stroke:none"
       transform="matrix(1,0,0,-1,290.1019,13.9434)"><tspan
         id="tspan150"
         y="0"
         x="0 3.9360001 10.656 17.327999 23.916 29.615999 40.248001 42.936001 45.852001 51.731998">rodnými kr</tspan></text>
<text
       id="text156"
       style="font-variant:normal;font-weight:300;font-stretch:normal;font-size:12px;font-family:'Roboto Light';-inkscape-font-specification:Roboto-Light;writing-mode:lr-tb;fill:#000000;fill-opacity:1;fill-rule:nonzero;stroke:none"
       transform="matrix(1,0,0,-1,345.7699,13.9434)"><tspan
         id="tspan154"
         y="0"
         x="0 6.204 12.876 15.564 19.416 30.048 32.736 35.652 42.299999 49.02 55.692001 59.256001 65.688004 68.603996 76.176003 78.912003 85.632004 89.484001">editmi podľa Kjóts</tspan></text>
<text
       id="text160"
       style="font-variant:normal;font-weight:300;font-stretch:normal;font-size:12px;font-family:'Roboto Light';-inkscape-font-specification:Roboto-Light;writing-mode:lr-tb;fill:#000000;fill-opacity:1;fill-rule:nonzero;stroke:none"
       transform="matrix(1,0,0,-1,441.3379,13.9434)"><tspan
         id="tspan158"
         y="0"
         x="0 5.7719998 11.976 18.563999 25.284 28.200001 34.848 38.771999">kého pro</tspan></text>
<text
       id="text164"
       style="font-variant:normal;font-weight:300;font-stretch:normal;font-size:12px;font-family:'Roboto Light';-inkscape-font-specification:Roboto-Light;writing-mode:lr-tb;fill:#000000;fill-opacity:1;fill-rule:nonzero;stroke:none"
       transform="matrix(1,0,0,-1,486.8299,13.9434)"><tspan
         id="tspan162"
         y="0"
         x="0 3.744 10.464 16.344 23.063999 25.752001 32.34 34.632 37.548 43.428001 47.279999">tokolu, kto</tspan></text>
<text
       id="text168"
       style="font-variant:normal;font-weight:300;font-stretch:normal;font-size:12px;font-family:'Roboto Light';-inkscape-font-specification:Roboto-Light;writing-mode:lr-tb;fill:#000000;fill-opacity:1;fill-rule:nonzero;stroke:none"
       transform="matrix(1,0,0,-1,540.8419,13.9434)"><tspan
         id="tspan166"
         y="0"
         x="0 3.924 10.128 13.044 19.632 22.32 28.524 31.440001 37.512001 44.099998 47.015999 52.787998 55.703999 62.375999">ré nie sú v gr</tspan></text>
<text
       id="text172"
       style="font-variant:normal;font-weight:300;font-stretch:normal;font-size:12px;font-family:'Roboto Light';-inkscape-font-specification:Roboto-Light;writing-mode:lr-tb;fill:#000000;fill-opacity:1;fill-rule:nonzero;stroke:none"
       transform="matrix(1,0,0,-1,607.0219,13.9434)"><tspan
         id="tspan170"
         y="0"
         x="0 6.4320002 10.404 16.608 19.524 25.356001 31.944 38.375999">afe znáz</tspan></text>
<text
       id="text176"
       style="font-variant:normal;font-weight:300;font-stretch:normal;font-size:12px;font-family:'Roboto Light';-inkscape-font-specification:Roboto-Light;writing-mode:lr-tb;fill:#000000;fill-opacity:1;fill-rule:nonzero;stroke:none"
       transform="matrix(1,0,0,-1,651.1459,13.9434)"><tspan
         id="tspan174"
         y="0"
         x="0 6.7199998 10.752 17.34 23.544001 30.132 36.335999">ornené.</tspan></text>
<path
       id="path178"
       style="fill:#e8e3e7;fill-opacity:1;fill-rule:nonzero;stroke:#ffffff;stroke-width:1;stroke-linecap:butt;stroke-linejoin:miter;stroke-miterlimit:10;stroke-dasharray:none;stroke-opacity:1"
       d="m 188.812,403.447 h -16.277 v 16.277 h 16.277 z" /><g
       transform="translate(172.9395,419.7241)"
       id="g180"><path
         id="path182"
         style="fill:none;stroke:#000000;stroke-width:2;stroke-linecap:butt;stroke-linejoin:miter;stroke-miterlimit:10;stroke-dasharray:none;stroke-opacity:1"
         d="M 0,0 H 15.488" /></g><path
       id="path184"
       style="fill:#97c1de;fill-opacity:1;fill-rule:nonzero;stroke:#ffffff;stroke-width:1;stroke-linecap:butt;stroke-linejoin:miter;stroke-miterlimit:10;stroke-dasharray:none;stroke-opacity:1"
       d="M 22.844,403.447 H 6.567 v 16.277 h 16.277 z" /><g
       transform="translate(6.5673,419.724)"
       id="g186"><path
         id="path188"
         style="fill:#97c1de;fill-opacity:1;fill-rule:nonzero;stroke:none"
         d="M 0,0 H 16.276 Z" /></g><g
       transform="translate(6.5669,419.7241)"
       id="g190"><path
         id="path192"
         style="fill:none;stroke:#ffffff;stroke-width:1;stroke-linecap:butt;stroke-linejoin:miter;stroke-miterlimit:10;stroke-dasharray:none;stroke-opacity:1"
         d="M 0,0 H 16.277" /></g><text
       id="text198"
       style="font-variant:normal;font-weight:500;font-stretch:normal;font-size:15px;font-family:'Roboto Medium';-inkscape-font-specification:Roboto-Medium;writing-mode:lr-tb;fill:#76b4de;fill-opacity:1;fill-rule:nonzero;stroke:none"
       transform="matrix(1,0,0,-1,200.8115,405.7847)"><tspan
         id="tspan194"
         y="0"
         x="0 9.9899998 13.815 22.35 30.18 38.610001 45.93 54.044998 62.384998 70.440002 74.175003 82.620003 91.050003 98.370003 106.905 110.73 118.785 127.125 134.955 142.25999 145.995">Alokované povolenky *</tspan><tspan
         id="tspan196"
         y="0"
         x="-165.96001 -155.61 -148.25999 -140.205 -135.075 -127.02 -118.68 -110.625 -106.89 -98.834999 -85.785004 -81.959999 -74.220001 -70.394997">Overené emisie</tspan></text>
<text
       id="text210"
       style="font-variant:normal;font-weight:300;font-stretch:normal;font-size:15px;font-family:'Roboto Light';-inkscape-font-specification:Roboto-Light;writing-mode:lr-tb;fill:#000000;fill-opacity:1;fill-rule:nonzero;stroke:none"
       transform="matrix(1,0,0,-1,5.0765,81.2297)"><tspan
         id="tspan200"
         y="0"
         x="0">0</tspan><tspan
         id="tspan202"
         y="-51.494999"
         x="0 8.3100004 11.175">0,5</tspan><tspan
         id="tspan204"
         y="-102.99"
         x="0 8.3100004 11.175">1,0</tspan><tspan
         id="tspan206"
         y="-154.485"
         x="0 8.3100004 11.175">1,5</tspan><tspan
         id="tspan208"
         y="-205.98"
         x="0 8.3100004 11.175">2,0</tspan></text>
<text
       id="text214"
       style="font-variant:normal;font-weight:300;font-stretch:normal;font-size:15px;font-family:'Roboto Light';-inkscape-font-specification:Roboto-Light;writing-mode:lr-tb;fill:#000000;fill-opacity:1;fill-rule:nonzero;stroke:none"
       transform="matrix(1,0,0,-1,5.1215,338.3597)"><tspan
         id="tspan212"
         y="0"
         x="0 8.3100004 11.175 19.485001 23.129999 36.419998 39.779999 48.119999 51.705002 55.349998 60.165001 68.565002 76.800003 80.445 90.18">2,5 mld. ton CO</tspan></text>
<text
       id="text218"
       style="font-variant:normal;font-weight:normal;font-stretch:normal;font-size:8.74499989px;font-family:Roboto;-inkscape-font-specification:Roboto-Regular;writing-mode:lr-tb;fill:#000000;fill-opacity:1;fill-rule:nonzero;stroke:none"
       transform="matrix(1,0,0,-1,105.3154,335.3838)"><tspan
         id="tspan216"
         y="0"
         x="0">2</tspan></text>
<text
       id="text222"
       style="font-variant:normal;font-weight:300;font-stretch:normal;font-size:15px;font-family:'Roboto Light';-inkscape-font-specification:Roboto-Light;writing-mode:lr-tb;fill:#000000;fill-opacity:1;fill-rule:nonzero;stroke:none"
       transform="matrix(1,0,0,-1,113.8706,338.3789)"><tspan
         id="tspan220"
         y="0"
         x="0 7.7550001 21.045 24.405001 31.995001 35.355 38.700001 42.345001 48.299999 51.945 65.235001 68.595001 76.934998 80.519997 84.165001 92.489998 100.785 107.895 116.295 119.655 127.41 135.645 139.005 146.75999">emisií / mld. povoleniek</tspan></text>
<text
       id="text226"
       style="font-variant:normal;font-weight:900;font-stretch:normal;font-size:19px;font-family:'Akrobat Black';-inkscape-font-specification:Akrobat-Black;writing-mode:lr-tb;fill:#000000;fill-opacity:1;fill-rule:nonzero;stroke:none"
       transform="matrix(1,0,0,-1,5,440.5054)"><tspan
         id="tspan224"
         y="0"
         x="0 12.122 23.294001 34.085999 45.98 56.771999 69.501999 80.293999 85.994003 96.786003 112.48 119.434 130.245 137.009 147.80099 153.48199 164.95799">OVERENÉ EMISIE CO</tspan></text>
<text
       id="text230"
       style="font-variant:normal;font-weight:900;font-stretch:normal;font-size:11.07699966px;font-family:'Akrobat Black';-inkscape-font-specification:Akrobat-Black;writing-mode:lr-tb;fill:#000000;fill-opacity:1;fill-rule:nonzero;stroke:none"
       transform="matrix(1,0,0,-1,181.332,438.1782)"><tspan
         id="tspan228"
         y="0"
         x="0">2</tspan></text>
<text
       id="text234"
       style="font-variant:normal;font-weight:900;font-stretch:normal;font-size:19px;font-family:'Akrobat Black';-inkscape-font-specification:Akrobat-Black;writing-mode:lr-tb;fill:#000000;fill-opacity:1;fill-rule:nonzero;stroke:none"
       transform="matrix(1,0,0,-1,192.9837,440.5054)"><tspan
         id="tspan232"
         y="0"
         x="0 11.286 16.966999 28.253 38.076 50.179001 61.806999 73.910004 84.435997 95.722 108.452 119.244 124.925 136.78101 148.884 160.056 172.17799 182.02 192.812 205.54201 217.83501 228.703 234.403 245.575 251.27499 259.27399 270.06601 281.84601 294.57599 306.698 316.95801 326.78101 333.73499 344.90701 355.77499 367.23199 379.65799 385.358 397.233 409.336 421.24899 433.35199 444.80899">A ALOKOVANÉ POVOLENKY V JEDNOTLIVÝCH ROKOCH</tspan></text>
<g
       id="g236"><g
         clip-path="url(#clipPath242)"
         id="g238"><g
           id="g244"><g
             id="g246" /><g
             id="g434"><g
               style="opacity:0.10000598"
               id="g432"
               clip-path="url(#clipPath250)"><path
                 id="path312"
                 style="fill:#000000;fill-opacity:1;fill-rule:nonzero;stroke:none"
                 d="M 50.027,77.748 H 95.319 V 291.914 H 50.027 Z" /><g
                 id="g318"><g
                   id="g316"
                   clip-path="url(#clipPath254)"><path
                     id="path314"
                     style="fill:none;stroke:#ffffff;stroke-width:1.10699999;stroke-linecap:butt;stroke-linejoin:miter;stroke-miterlimit:10;stroke-dasharray:none;stroke-opacity:1"
                     d="M 50.027,77.748 H 95.319 V 291.914 H 50.027 Z" /></g></g><path
                 id="path320"
                 style="fill:#000000;fill-opacity:1;fill-rule:nonzero;stroke:none"
                 d="m 95.32,77.748 h 45.292 V 290.056 H 95.32 Z" /><g
                 id="g326"><g
                   id="g324"
                   clip-path="url(#clipPath258)"><path
                     id="path322"
                     style="fill:none;stroke:#ffffff;stroke-width:1.10699999;stroke-linecap:butt;stroke-linejoin:miter;stroke-miterlimit:10;stroke-dasharray:none;stroke-opacity:1"
                     d="m 95.32,77.748 h 45.292 V 290.056 H 95.32 Z" /></g></g><path
                 id="path328"
                 style="fill:#000000;fill-opacity:1;fill-rule:nonzero;stroke:none"
                 d="m 140.611,77.748 h 45.292 v 224.163 h -45.292 z" /><g
                 id="g334"><g
                   id="g332"
                   clip-path="url(#clipPath262)"><path
                     id="path330"
                     style="fill:none;stroke:#ffffff;stroke-width:1.10699999;stroke-linecap:butt;stroke-linejoin:miter;stroke-miterlimit:10;stroke-dasharray:none;stroke-opacity:1"
                     d="m 140.612,77.748 h 45.292 v 224.163 h -45.292 z" /></g></g><path
                 id="path336"
                 style="fill:#000000;fill-opacity:1;fill-rule:nonzero;stroke:none"
                 d="m 185.904,77.748 h 45.292 v 206.167 h -45.292 z" /><g
                 id="g342"><g
                   id="g340"
                   clip-path="url(#clipPath266)"><path
                     id="path338"
                     style="fill:none;stroke:#ffffff;stroke-width:1.10699999;stroke-linecap:butt;stroke-linejoin:miter;stroke-miterlimit:10;stroke-dasharray:none;stroke-opacity:1"
                     d="m 185.904,77.748 h 45.292 v 206.167 h -45.292 z" /></g></g><path
                 id="path344"
                 style="fill:#000000;fill-opacity:1;fill-rule:nonzero;stroke:none"
                 d="m 231.196,77.748 h 45.292 V 287.87 h -45.292 z" /><g
                 id="g350"><g
                   id="g348"
                   clip-path="url(#clipPath270)"><path
                     id="path346"
                     style="fill:none;stroke:#ffffff;stroke-width:1.10699999;stroke-linecap:butt;stroke-linejoin:miter;stroke-miterlimit:10;stroke-dasharray:none;stroke-opacity:1"
                     d="m 231.196,77.748 h 45.292 V 287.87 h -45.292 z" /></g></g><path
                 id="path352"
                 style="fill:#000000;fill-opacity:1;fill-rule:nonzero;stroke:none"
                 d="M 276.488,77.748 H 321.78 V 291.083 H 276.488 Z" /><g
                 id="g358"><g
                   id="g356"
                   clip-path="url(#clipPath274)"><path
                     id="path354"
                     style="fill:none;stroke:#ffffff;stroke-width:1.10699999;stroke-linecap:butt;stroke-linejoin:miter;stroke-miterlimit:10;stroke-dasharray:none;stroke-opacity:1"
                     d="M 276.488,77.748 H 321.78 V 291.083 H 276.488 Z" /></g></g><path
                 id="path360"
                 style="fill:#000000;fill-opacity:1;fill-rule:nonzero;stroke:none"
                 d="m 321.781,77.748 h 45.292 v 215.428 h -45.292 z" /><g
                 id="g366"><g
                   id="g364"
                   clip-path="url(#clipPath278)"><path
                     id="path362"
                     style="fill:none;stroke:#ffffff;stroke-width:1.10699999;stroke-linecap:butt;stroke-linejoin:miter;stroke-miterlimit:10;stroke-dasharray:none;stroke-opacity:1"
                     d="m 321.781,77.748 h 45.292 v 215.428 h -45.292 z" /></g></g><path
                 id="path368"
                 style="fill:#000000;fill-opacity:1;fill-rule:nonzero;stroke:none"
                 d="m 367.073,77.748 h 45.293 v 229.568 h -45.293 z" /><g
                 id="g374"><g
                   id="g372"
                   clip-path="url(#clipPath282)"><path
                     id="path370"
                     style="fill:none;stroke:#ffffff;stroke-width:1.10699999;stroke-linecap:butt;stroke-linejoin:miter;stroke-miterlimit:10;stroke-dasharray:none;stroke-opacity:1"
                     d="m 367.073,77.748 h 45.292 v 229.569 h -45.292 z" /></g></g><path
                 id="path376"
                 style="fill:#000000;fill-opacity:1;fill-rule:nonzero;stroke:none"
                 d="m 412.366,77.748 h 45.292 v 220.858 h -45.292 z" /><g
                 id="g382"><g
                   id="g380"
                   clip-path="url(#clipPath286)"><path
                     id="path378"
                     style="fill:none;stroke:#ffffff;stroke-width:1.10699999;stroke-linecap:butt;stroke-linejoin:miter;stroke-miterlimit:10;stroke-dasharray:none;stroke-opacity:1"
                     d="m 412.365,77.748 h 45.292 v 220.859 h -45.292 z" /></g></g><path
                 id="path384"
                 style="fill:#000000;fill-opacity:1;fill-rule:nonzero;stroke:none"
                 d="m 457.657,77.748 h 45.292 v 163.917 h -45.292 z" /><g
                 id="g390"><g
                   id="g388"
                   clip-path="url(#clipPath290)"><path
                     id="path386"
                     style="fill:none;stroke:#ffffff;stroke-width:1.10699999;stroke-linecap:butt;stroke-linejoin:miter;stroke-miterlimit:10;stroke-dasharray:none;stroke-opacity:1"
                     d="m 457.657,77.748 h 45.292 v 163.917 h -45.292 z" /></g></g><path
                 id="path392"
                 style="fill:#000000;fill-opacity:1;fill-rule:nonzero;stroke:none"
                 d="m 502.949,77.748 h 45.293 v 159.937 h -45.293 z" /><g
                 id="g398"><g
                   id="g396"
                   clip-path="url(#clipPath294)"><path
                     id="path394"
                     style="fill:none;stroke:#ffffff;stroke-width:1.10699999;stroke-linecap:butt;stroke-linejoin:miter;stroke-miterlimit:10;stroke-dasharray:none;stroke-opacity:1"
                     d="m 502.949,77.748 h 45.293 v 159.937 h -45.293 z" /></g></g><path
                 id="path400"
                 style="fill:#000000;fill-opacity:1;fill-rule:nonzero;stroke:none"
                 d="m 548.242,77.748 h 45.292 v 162.703 h -45.292 z" /><g
                 id="g406"><g
                   id="g404"
                   clip-path="url(#clipPath298)"><path
                     id="path402"
                     style="fill:none;stroke:#ffffff;stroke-width:1.10699999;stroke-linecap:butt;stroke-linejoin:miter;stroke-miterlimit:10;stroke-dasharray:none;stroke-opacity:1"
                     d="m 548.242,77.748 h 45.292 v 162.703 h -45.292 z" /></g></g><path
                 id="path408"
                 style="fill:#000000;fill-opacity:1;fill-rule:nonzero;stroke:none"
                 d="m 593.534,77.748 h 45.292 V 259.83 h -45.292 z" /><g
                 id="g414"><g
                   id="g412"
                   clip-path="url(#clipPath302)"><path
                     id="path410"
                     style="fill:none;stroke:#ffffff;stroke-width:1.10699999;stroke-linecap:butt;stroke-linejoin:miter;stroke-miterlimit:10;stroke-dasharray:none;stroke-opacity:1"
                     d="m 593.534,77.748 h 45.292 V 259.83 h -45.292 z" /></g></g><path
                 id="path416"
                 style="fill:#000000;fill-opacity:1;fill-rule:nonzero;stroke:none"
                 d="m 638.826,77.748 h 45.292 v 174.395 h -45.292 z" /><g
                 id="g422"><g
                   id="g420"
                   clip-path="url(#clipPath306)"><path
                     id="path418"
                     style="fill:none;stroke:#ffffff;stroke-width:1.10699999;stroke-linecap:butt;stroke-linejoin:miter;stroke-miterlimit:10;stroke-dasharray:none;stroke-opacity:1"
                     d="m 638.826,77.748 h 45.292 v 174.395 h -45.292 z" /></g></g><path
                 id="path424"
                 style="fill:#000000;fill-opacity:1;fill-rule:nonzero;stroke:none"
                 d="m 684.118,77.748 h 45.293 V 215.68 h -45.293 z" /><g
                 id="g430"><g
                   id="g428"
                   clip-path="url(#clipPath310)"><path
                     id="path426"
                     style="fill:none;stroke:#ffffff;stroke-width:1.10699999;stroke-linecap:butt;stroke-linejoin:miter;stroke-miterlimit:10;stroke-dasharray:none;stroke-opacity:1"
                     d="m 684.118,77.748 h 45.293 v 137.933 h -45.293 z" /></g></g></g></g></g></g></g></g></svg>