<svg id="Layer_1" data-name="Layer 1" xmlns="http://www.w3.org/2000/svg" viewBox="0 0 520 477.21"><defs><style>.cls-1{fill:#f1f2f2;}.cls-1,.cls-8{isolation:isolate;}.cls-2{fill:#666;stroke:#666;stroke-width:0.6px;}.cls-2,.cls-3,.cls-5,.cls-6,.cls-7{stroke-linejoin:round;}.cls-3,.cls-5,.cls-6,.cls-7,.cls-9{fill:none;}.cls-3{stroke:#1f77b4;stroke-width:1.5px;}.cls-3,.cls-5,.cls-6,.cls-7{stroke-linecap:square;}.cls-4{opacity:0.16;}.cls-5,.cls-6,.cls-7{stroke:#000;stroke-width:0.4px;}.cls-6{stroke-dasharray:4.98 4.98;}.cls-7{stroke-dasharray:5 5;}.cls-9{stroke:#bcbec0;stroke-miterlimit:10;}.cls-10{fill:#bcbec0;}</style></defs><path d="M5.8,19.78V14.62c0-2.82,1.52-4.33,4.12-4.33s4.14,1.51,4.24,4.33h-2.7c-.08-1.22-.53-1.71-1.56-1.71-.82,0-1.29.53-1.29,1.71v5.16c0,1.14.46,1.68,1.29,1.68,1,0,1.52-.5,1.6-1.68h2.69c0,2.8-1.59,4.3-4.29,4.3S5.8,22.58,5.8,19.78Z"/><path d="M24.7,21.29v2.56h-7V10.55h6.86v2.57H20.35v2.75h3.78v2.47H20.35v2.95Z"/><path d="M36.92,10.55v13.3H34.26L32,18.7l-1.2-3.25-.06.06a53.8,53.8,0,0,1,.35,5.64v2.7H28.45V10.55h2.66l2.52,5.78c.32.83.63,1.71.95,2.54l.06-.05a45.76,45.76,0,0,1-.38-5.19V10.55Z"/><path d="M46.09,21.65H43.28l-.43,2.2h-2.8l3.2-13.3h2.88l3.19,13.3H46.53Zm-.53-2.57-.3-1.52c-.17-.95-.4-2.56-.53-3.65h-.08c-.13,1.09-.34,2.7-.53,3.65l-.3,1.52Z"/><path d="M65.21,21.29v2.56h-7V10.55H65v2.57H60.86v2.75h3.78v2.47H60.86v2.95Z"/><path d="M68.73,19.58v-9h2.81v9c0,1.21.47,1.88,1.42,1.88s1.43-.67,1.43-1.88v-9H77.2v9c0,2.81-1.58,4.5-4.24,4.5S68.73,22.39,68.73,19.58Z"/><path d="M84.87,19.39h-1v4.46H81.23V10.55h3.85c2.64,0,4.2,1.64,4.2,4.43a4.2,4.2,0,0,1-1.84,3.84l2.51,5H87Zm-1-2.57H85c1,0,1.47-.64,1.47-1.84S86,13.12,85,13.12H83.92Z"/><path d="M92.74,19.54V14.86c0-2.85,1.62-4.54,4.31-4.54s4.32,1.69,4.32,4.54v4.68c0,2.85-1.62,4.54-4.32,4.54S92.74,22.39,92.74,19.54Zm5.83,0V14.86c0-1.25-.51-1.91-1.52-1.91s-1.52.66-1.52,1.91v4.68c0,1.25.52,1.92,1.52,1.92S98.57,20.79,98.57,19.54ZM97.51,6.68h2.15l-2.15,2.6H95.72Z"/><path d="M113.49,15.07c0,2.83-1.64,4.51-4.39,4.51h-1.16v4.27h-2.7V10.55h3.86C111.85,10.55,113.49,12.22,113.49,15.07Zm-2.78,0c0-1.29-.57-2-1.65-2h-1.12V17h1.12C110.14,17,110.71,16.35,110.71,15.07Z"/><path d="M116.28,20h2.77c0,1.07.54,1.52,1.39,1.52s1.33-.51,1.33-1.17c0-2.21-5.2-2.47-5.2-6.52,0-2,1.42-3.51,3.87-3.51a3.61,3.61,0,0,1,3.93,3.91H121.6c0-.87-.4-1.31-1.18-1.31s-1.12.38-1.12,1c0,2.09,5.28,2.22,5.28,6.46,0,2.18-1.54,3.78-4.18,3.78A3.79,3.79,0,0,1,116.28,20Z"/><path d="M131.31,18.82,130.57,20v3.84h-2.66V10.55h2.66v5.09l.68-1.48,1.86-3.61h3.08l-3.38,5.81,3.95,7.49h-3Z"/><path d="M142.18,19.9,139,10.55h2.8l1.08,3.69c.13.43.44,1.48.57,2.12h.07c.16-.64.46-1.69.61-2.18l1.05-3.63H148l-3.13,9.35v4h-2.7Z"/><path d="M150.71,19.78V14.62c0-2.82,1.52-4.33,4.12-4.33s4.14,1.51,4.24,4.33h-2.7c-.08-1.22-.53-1.71-1.56-1.71-.82,0-1.29.53-1.29,1.71v5.16c0,1.14.46,1.68,1.29,1.68,1.05,0,1.52-.5,1.6-1.68h2.69c0,2.8-1.59,4.3-4.29,4.3S150.71,22.58,150.71,19.78Z"/><path d="M170.73,10.55v13.3H168V18.44h-2.74v5.41h-2.72V10.55h2.72v5.32H168V10.55Z"/><path d="M187.74,21.29v2.56h-7.05V10.55h6.86v2.57h-4.16v2.75h3.78v2.47h-3.78v2.95Z"/><path d="M202.92,10.55v13.3h-2.64V20.58c.07-1.61.13-3.23.21-4.84l-.1,0-1.2,3.5-.66,1.8h-2.66l-.66-1.8L194,15.7l-.1,0c.06,1.61.14,3.23.19,4.84v3.27h-2.62V10.55h2.72l2.09,5c.26.66.72,1.82.87,2.31h.08c.15-.49.61-1.65.87-2.31l2.09-5Z"/><path d="M209.87,10.55v13.3h-2.69V10.55Z"/><path d="M213.31,20h2.78c0,1.07.53,1.52,1.38,1.52s1.33-.51,1.33-1.17c0-2.21-5.2-2.47-5.2-6.52,0-2,1.42-3.51,3.87-3.51a3.61,3.61,0,0,1,3.94,3.91h-2.78c0-.87-.4-1.31-1.18-1.31s-1.12.38-1.12,1c0,2.09,5.29,2.22,5.29,6.46,0,2.18-1.54,3.78-4.18,3.78A3.79,3.79,0,0,1,213.31,20Z"/><path d="M233.41,10.55v13.3h-2.66l-2.24-5.15-1.19-3.25-.06.06a53.69,53.69,0,0,1,.34,5.64v2.7h-2.66V10.55h2.66l2.53,5.78c.32.83.62,1.71,1,2.54l0-.05a48.21,48.21,0,0,1-.38-5.19V10.55Z"/><path d="M239.63,19.9l-3.14-9.35h2.8l1.08,3.69c.13.43.43,1.48.57,2.12H241c.16-.64.46-1.69.61-2.18l1-3.63h2.79l-3.14,9.35v4h-2.69Zm1.82-13.22h2.15l-2.15,2.6h-1.78Z"/><path d="M248.16,19.78V14.62c0-2.82,1.52-4.33,4.12-4.33s4.14,1.51,4.24,4.33h-2.7c-.08-1.22-.53-1.71-1.56-1.71-.82,0-1.29.53-1.29,1.71v5.16c0,1.14.46,1.68,1.29,1.68,1.05,0,1.52-.5,1.6-1.68h2.69c-.05,2.8-1.59,4.3-4.29,4.3S248.16,22.58,248.16,19.78Z"/><path d="M268.18,10.55v13.3h-2.71V18.44h-2.74v5.41H260V10.55h2.72v5.32h2.74V10.55Z"/><path d="M286.38,15.07c0,2.83-1.63,4.51-4.38,4.51h-1.16v4.27h-2.7V10.55H282C284.75,10.55,286.38,12.22,286.38,15.07Zm-2.77,0c0-1.29-.57-2-1.65-2h-1.12V17H282C283,17,283.61,16.35,283.61,15.07Z"/><path d="M289.62,19.54V14.86c0-2.85,1.61-4.54,4.31-4.54s4.31,1.69,4.31,4.54v4.68c0,2.85-1.62,4.54-4.31,4.54S289.62,22.39,289.62,19.54Zm5.83,0V14.86c0-1.25-.52-1.91-1.52-1.91s-1.52.66-1.52,1.91v4.68c0,1.25.51,1.92,1.52,1.92S295.45,20.79,295.45,19.54Z"/><path d="M301,10.55h2.79l1.2,6.29c.19,1,.41,2.6.55,3.7h.07c.14-1.1.36-2.73.55-3.7l1.2-6.29h2.79L307,23.85h-2.85Z"/><path d="M312.91,19.54V14.86c0-2.85,1.61-4.54,4.31-4.54s4.31,1.69,4.31,4.54v4.68c0,2.85-1.61,4.54-4.31,4.54S312.91,22.39,312.91,19.54Zm5.83,0V14.86c0-1.25-.51-1.91-1.52-1.91s-1.52.66-1.52,1.91v4.68c0,1.25.51,1.92,1.52,1.92S318.74,20.79,318.74,19.54Z"/><path d="M332.06,21.29v2.56h-6.65V10.55h2.7V21.29Z"/><path d="M342.3,21.29v2.56h-7.05V10.55h6.86v2.57H338v2.75h3.78v2.47H338v2.95Z"/><path d="M354.52,10.55v13.3h-2.66l-2.24-5.15-1.2-3.25-.06.06a53.8,53.8,0,0,1,.35,5.64v2.7H346V10.55h2.67l2.52,5.78c.32.83.63,1.71.95,2.54l.06-.05a45.76,45.76,0,0,1-.38-5.19V10.55Z"/><path d="M361.47,10.55v13.3h-2.7V10.55Z"/><path d="M372.78,21.29v2.56h-7V10.55h6.86v2.57h-4.16v2.75h3.78v2.47h-3.78v2.95Z"/><path d="M379.92,18.82,379.18,20v3.84h-2.66V10.55h2.66v5.09l.68-1.48,1.87-3.61h3.07l-3.38,5.81,3.95,7.49h-3Z"/><path d="M25.54,366.93H18.86v-.67l3.66-4.15a10,10,0,0,0,1.26-1.73,2.9,2.9,0,0,0,.35-1.32,2.18,2.18,0,0,0-.59-1.6,2.2,2.2,0,0,0-1.64-.59,2.33,2.33,0,0,0-1.74.69,2.46,2.46,0,0,0-.66,1.78h-.87A3.27,3.27,0,0,1,19,357.7a2.92,2.92,0,0,1,1.15-1.16,3.44,3.44,0,0,1,1.71-.42,3.24,3.24,0,0,1,2.29.77A2.72,2.72,0,0,1,25,359a3.58,3.58,0,0,1-.47,1.64,11.68,11.68,0,0,1-1.64,2.21l-3,3.36h5.6Z"/><path d="M33.61,362.49a5.91,5.91,0,0,1-.83,3.42,2.79,2.79,0,0,1-2.44,1.17,2.81,2.81,0,0,1-2.42-1.15,5.7,5.7,0,0,1-.87-3.33v-1.92a5.76,5.76,0,0,1,.84-3.4,2.82,2.82,0,0,1,2.44-1.16,2.81,2.81,0,0,1,2.41,1.12,5.54,5.54,0,0,1,.87,3.29Zm-.88-1.92a5.14,5.14,0,0,0-.6-2.76,2.2,2.2,0,0,0-3.59,0,5.07,5.07,0,0,0-.62,2.71v2.09a5.2,5.2,0,0,0,.62,2.79,2.15,2.15,0,0,0,3.58,0,5.28,5.28,0,0,0,.61-2.76Z"/><path d="M41.92,362.49a5.91,5.91,0,0,1-.83,3.42,3.13,3.13,0,0,1-4.86,0,5.63,5.63,0,0,1-.86-3.33v-1.92a5.77,5.77,0,0,1,.83-3.4,3.16,3.16,0,0,1,4.86,0,5.62,5.62,0,0,1,.86,3.29ZM41,360.57a5.14,5.14,0,0,0-.6-2.76,2,2,0,0,0-1.8-.94,2,2,0,0,0-1.79.91,5.08,5.08,0,0,0-.61,2.71v2.09a5.11,5.11,0,0,0,.62,2.79,2.14,2.14,0,0,0,3.57,0,5.18,5.18,0,0,0,.61-2.76Z"/><path d="M50.09,359a2.4,2.4,0,0,1-.49,1.49,2.78,2.78,0,0,1-1.27,1,3.14,3.14,0,0,1,1.48,1,2.55,2.55,0,0,1,.56,1.62,2.74,2.74,0,0,1-.94,2.18,4.2,4.2,0,0,1-4.93,0,2.71,2.71,0,0,1-.92-2.18,2.57,2.57,0,0,1,.53-1.61,2.94,2.94,0,0,1,1.46-1,2.81,2.81,0,0,1-1.26-1,2.51,2.51,0,0,1-.46-1.49,2.74,2.74,0,0,1,.85-2.11,3.22,3.22,0,0,1,2.26-.78,3.27,3.27,0,0,1,2.27.79A2.74,2.74,0,0,1,50.09,359Zm-.6,5.1a2.13,2.13,0,0,0-.71-1.64,2.66,2.66,0,0,0-1.82-.64,2.61,2.61,0,0,0-1.81.63,2.1,2.1,0,0,0-.7,1.65,2,2,0,0,0,.68,1.62,2.64,2.64,0,0,0,1.84.61,2.69,2.69,0,0,0,1.83-.6A2,2,0,0,0,49.49,364.11Zm-.28-5.1a2,2,0,0,0-.64-1.53,2.47,2.47,0,0,0-3.23,0,2,2,0,0,0-.62,1.55,2,2,0,0,0,.62,1.51,2.33,2.33,0,0,0,1.63.57,2.27,2.27,0,0,0,1.61-.58A1.93,1.93,0,0,0,49.21,359Z"/><path d="M17.27,341.34a5.92,5.92,0,0,1-.83,3.43A2.78,2.78,0,0,1,14,345.93a2.83,2.83,0,0,1-2.42-1.14,5.76,5.76,0,0,1-.87-3.34v-1.91a5.74,5.74,0,0,1,.84-3.4A2.81,2.81,0,0,1,14,335a2.86,2.86,0,0,1,2.42,1.11,5.68,5.68,0,0,1,.86,3.3Zm-.88-1.91a5.2,5.2,0,0,0-.6-2.77,2,2,0,0,0-1.8-.94,2,2,0,0,0-1.79.92,5,5,0,0,0-.62,2.7v2.1a5.24,5.24,0,0,0,.62,2.79,2,2,0,0,0,1.8,1,2,2,0,0,0,1.78-.94,5.29,5.29,0,0,0,.61-2.77Z"/><path d="M6.6,298.7H5.73v-9.61l-2.9,1.07v-.82L6.46,288H6.6Z"/><path d="M17.27,294.25a5.92,5.92,0,0,1-.83,3.43A2.81,2.81,0,0,1,14,298.84a2.83,2.83,0,0,1-2.42-1.14,5.76,5.76,0,0,1-.87-3.34v-1.91a5.8,5.8,0,0,1,.84-3.41A2.82,2.82,0,0,1,14,287.89,2.86,2.86,0,0,1,16.41,289a5.68,5.68,0,0,1,.86,3.3Zm-.88-1.91a5.2,5.2,0,0,0-.6-2.77,2,2,0,0,0-1.8-.94,2,2,0,0,0-1.79.92,5,5,0,0,0-.62,2.7v2.1a5.24,5.24,0,0,0,.62,2.79,2,2,0,0,0,1.8,1,2,2,0,0,0,1.78-.94,5.29,5.29,0,0,0,.61-2.77Z"/><path d="M9.21,241.55H2.53v-.67l3.65-4.15A9,9,0,0,0,7.44,235a3,3,0,0,0,.35-1.33,2.18,2.18,0,0,0-.59-1.6,2.24,2.24,0,0,0-1.64-.59,2.29,2.29,0,0,0-1.73.69A2.44,2.44,0,0,0,3.16,234H2.29a3.35,3.35,0,0,1,.41-1.64,2.94,2.94,0,0,1,1.15-1.17,3.44,3.44,0,0,1,1.71-.42,3.24,3.24,0,0,1,2.29.77,2.73,2.73,0,0,1,.83,2.1,3.58,3.58,0,0,1-.47,1.63,12,12,0,0,1-1.63,2.21l-3,3.36H9.21Z"/><path d="M17.27,237.11a5.91,5.91,0,0,1-.83,3.42A2.79,2.79,0,0,1,14,241.7a2.81,2.81,0,0,1-2.42-1.15,5.7,5.7,0,0,1-.87-3.33v-1.91a5.78,5.78,0,0,1,.84-3.41A2.83,2.83,0,0,1,14,230.74a2.86,2.86,0,0,1,2.42,1.12,5.62,5.62,0,0,1,.86,3.29Zm-.88-1.91a5.18,5.18,0,0,0-.6-2.77,2,2,0,0,0-1.8-.94,2,2,0,0,0-1.79.92,5,5,0,0,0-.62,2.7v2.09A5.2,5.2,0,0,0,12.2,240a2,2,0,0,0,1.8,1,2,2,0,0,0,1.78-.94,5.32,5.32,0,0,0,.61-2.77Z"/><path d="M4.47,181.23h.91A3.2,3.2,0,0,0,6.7,181a2,2,0,0,0,.86-.74,1.91,1.91,0,0,0,.3-1.07,2.18,2.18,0,0,0-.58-1.6A2.24,2.24,0,0,0,5.62,177a2.41,2.41,0,0,0-1.69.6,2.11,2.11,0,0,0-.65,1.6H2.4A2.86,2.86,0,0,1,4,176.6a3.77,3.77,0,0,1,1.65-.37A3.22,3.22,0,0,1,7.9,177a2.84,2.84,0,0,1,.84,2.17,2.35,2.35,0,0,1-.49,1.42,3,3,0,0,1-1.34,1,2.69,2.69,0,0,1,1.51.95,2.63,2.63,0,0,1,.51,1.62,2.84,2.84,0,0,1-.89,2.2,3.35,3.35,0,0,1-2.39.84,4,4,0,0,1-1.74-.38,3,3,0,0,1-1.24-1.07,2.87,2.87,0,0,1-.43-1.59h.88a2.11,2.11,0,0,0,.71,1.66,2.59,2.59,0,0,0,1.82.64,2.5,2.5,0,0,0,1.77-.58,2.19,2.19,0,0,0,.63-1.69,2,2,0,0,0-.68-1.63,3.1,3.1,0,0,0-2-.57H4.47Z"/><path d="M17.27,182.6a5.91,5.91,0,0,1-.83,3.42A2.79,2.79,0,0,1,14,187.19,2.81,2.81,0,0,1,11.58,186a5.7,5.7,0,0,1-.87-3.33v-1.92a5.76,5.76,0,0,1,.84-3.4A2.83,2.83,0,0,1,14,176.23a2.84,2.84,0,0,1,2.42,1.12,5.62,5.62,0,0,1,.86,3.29Zm-.88-1.92a5.14,5.14,0,0,0-.6-2.76A2,2,0,0,0,14,177a2,2,0,0,0-1.79.91,5.1,5.1,0,0,0-.62,2.71v2.09a5.2,5.2,0,0,0,.62,2.79,2,2,0,0,0,1.8,1,2,2,0,0,0,1.78-.95,5.28,5.28,0,0,0,.61-2.76Z"/><path d="M7.91,128.15H9.57v.74H7.91v2.7H7v-2.7H2v-.49L7,120.93h1Zm-4.82,0H7v-6.09l-.39.67Z"/><path d="M17.27,127.14a5.92,5.92,0,0,1-.83,3.43A2.79,2.79,0,0,1,14,131.74a2.83,2.83,0,0,1-2.42-1.15,5.74,5.74,0,0,1-.87-3.34v-1.91a5.74,5.74,0,0,1,.84-3.4A2.81,2.81,0,0,1,14,120.78a2.84,2.84,0,0,1,2.42,1.12,5.62,5.62,0,0,1,.86,3.29Zm-.88-1.91a5.2,5.2,0,0,0-.6-2.77,2,2,0,0,0-1.8-.93,2,2,0,0,0-1.79.91,5,5,0,0,0-.62,2.7v2.1A5.24,5.24,0,0,0,12.2,130a2,2,0,0,0,1.8,1,2,2,0,0,0,1.78-.95,5.29,5.29,0,0,0,.61-2.77Z"/><path d="M94.77,366.93H88.09v-.67l3.66-4.15A10,10,0,0,0,93,360.38a2.9,2.9,0,0,0,.35-1.32,2.18,2.18,0,0,0-.59-1.6,2.2,2.2,0,0,0-1.64-.59,2.33,2.33,0,0,0-1.74.69,2.46,2.46,0,0,0-.66,1.78h-.87a3.38,3.38,0,0,1,.41-1.64,2.92,2.92,0,0,1,1.15-1.16,3.44,3.44,0,0,1,1.71-.42,3.24,3.24,0,0,1,2.29.77,2.72,2.72,0,0,1,.83,2.09,3.58,3.58,0,0,1-.47,1.64,11.68,11.68,0,0,1-1.64,2.21l-3,3.36h5.6Z"/><path d="M102.84,362.49a5.91,5.91,0,0,1-.83,3.42,3.13,3.13,0,0,1-4.86,0,5.7,5.7,0,0,1-.87-3.33v-1.92a5.76,5.76,0,0,1,.84-3.4,3.15,3.15,0,0,1,4.85,0,5.54,5.54,0,0,1,.87,3.29Zm-.88-1.92a5.14,5.14,0,0,0-.6-2.76,2.2,2.2,0,0,0-3.59,0,5.07,5.07,0,0,0-.62,2.71v2.09a5.2,5.2,0,0,0,.62,2.79,2,2,0,0,0,1.8,1,2,2,0,0,0,1.78-.95,5.28,5.28,0,0,0,.61-2.76Z"/><path d="M108.8,366.93h-.88v-9.61L105,358.4v-.82l3.63-1.35h.15Z"/><path d="M119.46,362.49a5.92,5.92,0,0,1-.82,3.42,3.14,3.14,0,0,1-4.87,0,5.63,5.63,0,0,1-.86-3.33v-1.92a5.84,5.84,0,0,1,.83-3.4,3.16,3.16,0,0,1,4.86,0,5.55,5.55,0,0,1,.86,3.29Zm-.88-1.92a5.15,5.15,0,0,0-.59-2.76,2.21,2.21,0,0,0-3.6,0,5.08,5.08,0,0,0-.61,2.71v2.09a5.2,5.2,0,0,0,.62,2.79,2,2,0,0,0,1.8,1,2,2,0,0,0,1.77-.95,5.09,5.09,0,0,0,.61-2.76Z"/><path d="M164,366.93h-6.68v-.67l3.66-4.15a10,10,0,0,0,1.26-1.73,2.9,2.9,0,0,0,.35-1.32,2.18,2.18,0,0,0-.59-1.6,2.2,2.2,0,0,0-1.64-.59,2.33,2.33,0,0,0-1.74.69,2.46,2.46,0,0,0-.66,1.78h-.87a3.27,3.27,0,0,1,.41-1.64,2.92,2.92,0,0,1,1.15-1.16,3.44,3.44,0,0,1,1.71-.42,3.24,3.24,0,0,1,2.29.77,2.72,2.72,0,0,1,.83,2.09,3.58,3.58,0,0,1-.47,1.64,11.68,11.68,0,0,1-1.64,2.21l-3,3.36H164Z"/><path d="M172.07,362.49a5.91,5.91,0,0,1-.83,3.42,3.13,3.13,0,0,1-4.86,0,5.63,5.63,0,0,1-.87-3.33v-1.92a5.76,5.76,0,0,1,.84-3.4,3.15,3.15,0,0,1,4.85,0,5.54,5.54,0,0,1,.87,3.29Zm-.88-1.92a5.14,5.14,0,0,0-.6-2.76,2.2,2.2,0,0,0-3.59,0,5.07,5.07,0,0,0-.62,2.71v2.09a5.2,5.2,0,0,0,.62,2.79,2.15,2.15,0,0,0,3.58,0,5.28,5.28,0,0,0,.61-2.76Z"/><path d="M178,366.93h-.88v-9.61l-2.9,1.08v-.82l3.63-1.35H178Z"/><path d="M188.94,366.93h-6.68v-.67l3.66-4.15a10,10,0,0,0,1.26-1.73,2.9,2.9,0,0,0,.35-1.32,2.18,2.18,0,0,0-.59-1.6,2.2,2.2,0,0,0-1.64-.59,2.3,2.3,0,0,0-1.74.69,2.46,2.46,0,0,0-.66,1.78H182a3.27,3.27,0,0,1,.41-1.64,2.92,2.92,0,0,1,1.15-1.16,3.44,3.44,0,0,1,1.71-.42,3.24,3.24,0,0,1,2.29.77,2.72,2.72,0,0,1,.83,2.09,3.58,3.58,0,0,1-.47,1.64,12.14,12.14,0,0,1-1.64,2.21l-3,3.36h5.6Z"/><path d="M233.23,366.93h-6.68v-.67l3.66-4.15a10,10,0,0,0,1.26-1.73,2.9,2.9,0,0,0,.35-1.32,2.18,2.18,0,0,0-.59-1.6,2.2,2.2,0,0,0-1.64-.59,2.33,2.33,0,0,0-1.74.69,2.46,2.46,0,0,0-.66,1.78h-.87a3.38,3.38,0,0,1,.41-1.64,2.92,2.92,0,0,1,1.15-1.16,3.44,3.44,0,0,1,1.71-.42,3.24,3.24,0,0,1,2.29.77,2.72,2.72,0,0,1,.83,2.09,3.58,3.58,0,0,1-.47,1.64,11.68,11.68,0,0,1-1.64,2.21l-3,3.36h5.6Z"/><path d="M241.3,362.49a5.91,5.91,0,0,1-.83,3.42,3.13,3.13,0,0,1-4.86,0,5.63,5.63,0,0,1-.87-3.33v-1.92a5.76,5.76,0,0,1,.84-3.4,3.15,3.15,0,0,1,4.85,0,5.54,5.54,0,0,1,.87,3.29Zm-.88-1.92a5.14,5.14,0,0,0-.6-2.76,2.2,2.2,0,0,0-3.59,0,5.07,5.07,0,0,0-.62,2.71v2.09a5.2,5.2,0,0,0,.62,2.79,2.15,2.15,0,0,0,3.58,0,5.28,5.28,0,0,0,.61-2.76Z"/><path d="M247.26,366.93h-.88v-9.61l-2.9,1.08v-.82l3.63-1.35h.15Z"/><path d="M256.88,363.5h1.66v.74h-1.66v2.69H256v-2.69h-5v-.5l4.94-7.47h1Zm-4.82,0H256v-6.1l-.39.68Z"/><path d="M302.46,366.93h-6.67v-.67l3.65-4.15a10,10,0,0,0,1.26-1.73,2.9,2.9,0,0,0,.35-1.32,2.18,2.18,0,0,0-.59-1.6,2.2,2.2,0,0,0-1.64-.59,2.33,2.33,0,0,0-1.74.69,2.46,2.46,0,0,0-.66,1.78h-.87a3.38,3.38,0,0,1,.41-1.64,2.92,2.92,0,0,1,1.15-1.16,3.44,3.44,0,0,1,1.71-.42,3.24,3.24,0,0,1,2.29.77,2.72,2.72,0,0,1,.83,2.09,3.58,3.58,0,0,1-.47,1.64,11.68,11.68,0,0,1-1.64,2.21l-3,3.36h5.6Z"/><path d="M310.53,362.49a5.91,5.91,0,0,1-.83,3.42,3.13,3.13,0,0,1-4.86,0,5.7,5.7,0,0,1-.87-3.33v-1.92a5.76,5.76,0,0,1,.84-3.4,3.15,3.15,0,0,1,4.85,0,5.54,5.54,0,0,1,.87,3.29Zm-.88-1.92a5.14,5.14,0,0,0-.6-2.76,2.2,2.2,0,0,0-3.59,0,5.07,5.07,0,0,0-.62,2.71v2.09a5.2,5.2,0,0,0,.62,2.79,2.15,2.15,0,0,0,3.58,0,5.28,5.28,0,0,0,.61-2.76Z"/><path d="M316.49,366.93h-.88v-9.61l-2.9,1.08v-.82l3.63-1.35h.15Z"/><path d="M325.89,356.19V357h-.1a4,4,0,0,0-3,1.13,4.66,4.66,0,0,0-1.21,3.12,3,3,0,0,1,1.12-.94,3.43,3.43,0,0,1,1.52-.33,2.8,2.8,0,0,1,2.24,1,3.79,3.79,0,0,1,.83,2.54,4.34,4.34,0,0,1-.39,1.87,3,3,0,0,1-2.77,1.77,3.14,3.14,0,0,1-2.49-1.11,4.24,4.24,0,0,1-1-2.87v-.88a6.75,6.75,0,0,1,1.31-4.43,4.61,4.61,0,0,1,3.7-1.6Zm-1.82,4.5a2.73,2.73,0,0,0-1.56.5,2.31,2.31,0,0,0-1,1.25v.75a3.44,3.44,0,0,0,.72,2.26,2.25,2.25,0,0,0,1.85.88,2,2,0,0,0,1.66-.81,3.24,3.24,0,0,0,.64-2,3.07,3.07,0,0,0-.64-2A2.12,2.12,0,0,0,324.07,360.69Z"/><path d="M371.7,366.93H365v-.67l3.65-4.15a9,9,0,0,0,1.26-1.73,2.78,2.78,0,0,0,.35-1.32,2,2,0,0,0-2.22-2.19,2.3,2.3,0,0,0-1.74.69,2.43,2.43,0,0,0-.67,1.78h-.87a3.38,3.38,0,0,1,.41-1.64,2.88,2.88,0,0,1,1.16-1.16,3.44,3.44,0,0,1,1.71-.42,3.23,3.23,0,0,1,2.28.77,2.72,2.72,0,0,1,.83,2.09,3.58,3.58,0,0,1-.47,1.64,12,12,0,0,1-1.63,2.21l-3,3.36h5.61Z"/><path d="M379.76,362.49a5.91,5.91,0,0,1-.83,3.42,3.13,3.13,0,0,1-4.86,0,5.63,5.63,0,0,1-.86-3.33v-1.92a5.77,5.77,0,0,1,.83-3.4,3.16,3.16,0,0,1,4.86,0,5.62,5.62,0,0,1,.86,3.29Zm-.88-1.92a5.14,5.14,0,0,0-.6-2.76,2,2,0,0,0-1.8-.94,2,2,0,0,0-1.79.91,5.08,5.08,0,0,0-.61,2.71v2.09a5.11,5.11,0,0,0,.62,2.79,2.14,2.14,0,0,0,3.57,0,5.18,5.18,0,0,0,.61-2.76Z"/><path d="M385.72,366.93h-.88v-9.61l-2.9,1.08v-.82l3.64-1.35h.14Z"/><path d="M396.24,359a2.46,2.46,0,0,1-.48,1.49,2.86,2.86,0,0,1-1.28,1,3.09,3.09,0,0,1,1.48,1,2.55,2.55,0,0,1,.56,1.62,2.74,2.74,0,0,1-.93,2.18,3.66,3.66,0,0,1-2.46.8,3.69,3.69,0,0,1-2.48-.8,2.75,2.75,0,0,1-.92-2.18,2.64,2.64,0,0,1,.53-1.61,3,3,0,0,1,1.47-1,2.7,2.7,0,0,1-1.26-1A2.45,2.45,0,0,1,390,359a2.74,2.74,0,0,1,.85-2.11,3.22,3.22,0,0,1,2.26-.78,3.27,3.27,0,0,1,2.27.79A2.74,2.74,0,0,1,396.24,359Zm-.6,5.1a2.13,2.13,0,0,0-.71-1.64,2.66,2.66,0,0,0-1.82-.64,2.61,2.61,0,0,0-1.81.63,2.1,2.1,0,0,0-.7,1.65,2.06,2.06,0,0,0,.68,1.62,2.65,2.65,0,0,0,1.85.61,2.68,2.68,0,0,0,1.82-.6A2,2,0,0,0,395.64,364.11Zm-.28-5.1a2.05,2.05,0,0,0-.63-1.53,2.23,2.23,0,0,0-1.62-.61,2.21,2.21,0,0,0-1.61.59,2,2,0,0,0-.62,1.55,1.94,1.94,0,0,0,.62,1.51,2.29,2.29,0,0,0,1.62.57,2.24,2.24,0,0,0,1.61-.58A1.93,1.93,0,0,0,395.36,359Z"/><path d="M426.45,366.93h-6.68v-.67l3.65-4.15a9,9,0,0,0,1.26-1.73,2.78,2.78,0,0,0,.35-1.32,2.14,2.14,0,0,0-.59-1.6,2.18,2.18,0,0,0-1.63-.59,2.3,2.3,0,0,0-1.74.69,2.46,2.46,0,0,0-.66,1.78h-.88a3.38,3.38,0,0,1,.41-1.64,2.94,2.94,0,0,1,1.16-1.16,3.44,3.44,0,0,1,1.71-.42,3.25,3.25,0,0,1,2.29.77,2.71,2.71,0,0,1,.82,2.09,3.56,3.56,0,0,1-.46,1.64,12.14,12.14,0,0,1-1.64,2.21l-3,3.36h5.61Z"/><path d="M434.51,362.49a5.84,5.84,0,0,1-.83,3.42,2.78,2.78,0,0,1-2.43,1.17,2.82,2.82,0,0,1-2.43-1.15,5.63,5.63,0,0,1-.86-3.33v-1.92a5.77,5.77,0,0,1,.83-3.4,3.16,3.16,0,0,1,4.86,0,5.62,5.62,0,0,1,.86,3.29Zm-.88-1.92a5.24,5.24,0,0,0-.59-2.76,2.21,2.21,0,0,0-3.6,0,5.08,5.08,0,0,0-.61,2.71v2.09a5.11,5.11,0,0,0,.62,2.79,2,2,0,0,0,1.8,1,2,2,0,0,0,1.77-.95,5.18,5.18,0,0,0,.61-2.76Z"/><path d="M443.07,366.93h-6.68v-.67l3.66-4.15a10,10,0,0,0,1.26-1.73,2.9,2.9,0,0,0,.35-1.32,2.18,2.18,0,0,0-.59-1.6,2.2,2.2,0,0,0-1.64-.59,2.33,2.33,0,0,0-1.74.69,2.46,2.46,0,0,0-.66,1.78h-.87a3.27,3.27,0,0,1,.41-1.64,2.92,2.92,0,0,1,1.15-1.16,3.44,3.44,0,0,1,1.71-.42,3.24,3.24,0,0,1,2.29.77,2.72,2.72,0,0,1,.83,2.09,3.58,3.58,0,0,1-.47,1.64,11.68,11.68,0,0,1-1.64,2.21l-3,3.36h5.6Z"/><path d="M451.14,362.49a5.91,5.91,0,0,1-.83,3.42,3.13,3.13,0,0,1-4.86,0,5.7,5.7,0,0,1-.87-3.33v-1.92a5.76,5.76,0,0,1,.84-3.4,3.15,3.15,0,0,1,4.85,0,5.54,5.54,0,0,1,.87,3.29Zm-.88-1.92a5.14,5.14,0,0,0-.6-2.76,2.2,2.2,0,0,0-3.59,0,5.07,5.07,0,0,0-.62,2.71v2.09a5.2,5.2,0,0,0,.62,2.79,2.15,2.15,0,0,0,3.58,0,5.28,5.28,0,0,0,.61-2.76Z"/><path class="cls-1" d="M207.63,345.79V96.68H380.69V345.79Z"/><path class="cls-1" d="M455.56,345.79V96.68h8.71V345.79Z"/><path class="cls-1" d="M57.61,345.79V96.68H92.2V345.79Z"/><g id="matplotlib.axis_1" data-name="matplotlib.axis 1"><g id="xtick_1" data-name="xtick 1"><g id="line2d_2" data-name="line2d 2"><path id="mc95f9bb590" class="cls-2" d="M34.49,345.79v3.48"/></g></g><g id="xtick_2" data-name="xtick 2"><g id="line2d_4" data-name="line2d 4"><path id="mc95f9bb590-2" data-name="mc95f9bb590" class="cls-2" d="M103.76,345.79v3.48"/></g></g><g id="xtick_3" data-name="xtick 3"><g id="line2d_6" data-name="line2d 6"><path id="mc95f9bb590-3" data-name="mc95f9bb590" class="cls-2" d="M173,345.79v3.48"/></g></g><g id="xtick_4" data-name="xtick 4"><g id="line2d_8" data-name="line2d 8"><path id="mc95f9bb590-4" data-name="mc95f9bb590" class="cls-2" d="M242.23,345.79v3.48"/></g></g><g id="xtick_5" data-name="xtick 5"><g id="line2d_10" data-name="line2d 10"><path id="mc95f9bb590-5" data-name="mc95f9bb590" class="cls-2" d="M311.41,345.79v3.48"/></g></g><g id="xtick_6" data-name="xtick 6"><g id="line2d_12" data-name="line2d 12"><path id="mc95f9bb590-6" data-name="mc95f9bb590" class="cls-2" d="M380.69,345.79v3.48"/></g></g><g id="xtick_7" data-name="xtick 7"><g id="line2d_14" data-name="line2d 14"><path id="mc95f9bb590-7" data-name="mc95f9bb590" class="cls-2" d="M449.87,345.79v3.48"/></g></g></g><g id="matplotlib.axis_2" data-name="matplotlib.axis 2"><g id="ytick_1" data-name="ytick 1"><g id="line2d_16" data-name="line2d 16"><path id="m1ddfdf4c06" class="cls-2" d="M26.91,293.55H23.7"/></g></g><g id="ytick_2" data-name="ytick 2"><g id="line2d_18" data-name="line2d 18"><path id="m1ddfdf4c06-2" data-name="m1ddfdf4c06" class="cls-2" d="M26.91,237.89H23.7"/></g></g><g id="ytick_3" data-name="ytick 3"><g id="line2d_20" data-name="line2d 20"><path id="m1ddfdf4c06-3" data-name="m1ddfdf4c06" class="cls-2" d="M26.91,182.22H23.7"/></g></g><g id="ytick_4" data-name="ytick 4"><g id="line2d_22" data-name="line2d 22"><path id="m1ddfdf4c06-4" data-name="m1ddfdf4c06" class="cls-2" d="M26.91,126.56H23.7"/></g></g></g><path class="cls-3" d="M43.77,210.78l.1-1,.09-4.12.1.5.38-4.29.19,2.23.09,1.11.29-4.62.09-.05.19,4.67.1-1.45.28.67.28,5.9.1-4.78.38-4.9.19,2.33.09-1.39.29-1.22.19,5.34.19-2.39.37-2.51.19-4.17.38.05.1-1.05.09.94.1-2.06.09,2.56L49,195.8l.09-4.62.19,3.9.1-6.51.28.39.09,1.5.1-.61.19,1.72.28-.72.1-.56.19-2.72.09,1.16.38-3.45.1,1,.19-5.4.28-3.07.1-5.12.18,11,.1-2,.28,1.55.1,10.8.09-1.33.19-9.63.29,1.17.19,13.41.09-3.45.1,7.68.28-.28.28-4.84.38,4.56.38,17.87.29.56.28-9.52.1,1.34.28-.39.19-5.62.19,3.39.38-3.12.19-5.79.09.73.29.94.28-4.28.1.17.28,1.33.19,3,.1-1.17.09,1.45.28,1.22.1,7.57.09.45.1-1.5.09-4.23.38,5.45.19-5,.1-5,.38-1.28.19,3.17.09.56.38,11.8.19-4.45.09.28.29,5.73.09-.05.1,3.06.09-4.35.1,3.29.28-3.12.1-2.45.28,6.85.28-.39.1,3.56.09,7.63.1-.56.09,6L63,246l.1-4.73.19,2.51.28-1.67.1-4.07.19,4,.09-2.73.28.55.19,3.34.1.45.09,2.34.29,1.78.19,3.51.09,8.62.38-6,.1.17.09,1.67.1-5.18.09,4.73.29-.11.18,2.06.1,2.28.09,6.41.29-4.18.09,1.06.1-.61.09-3.4.1.56.28-1.9.19.28.19,1.28.29-2,.18,1.67h.19l.29-.61.09-1.12.57,3.68.1-1.56.09,1.45.19,5.51.38,4.28.09,3.06.1.06.09,3.56.38,5.62.1.39.09-.66.1.11.28-2.56.19,2.11.1-.67.09.17.29,2.67.19,5.4.18,2.06.29.17.28,10.52.1-2.89.28,1.28.1-1.34L73.82,287l.09,4.73.38,3.4.1-2.17.09-5.23.09,2.89.29.22.19-9.18.19,4.51.38-6.9.09,1.33.1-1.17.09-2.5.29-1.67.09-2.29.29,10.41.28-4.28.19,7.51.19-3.34.28-.16.19-5.51.1.5.09-2.34.29-1,.09,1.94.19-5.78h.38l.09-5,.1,1.94h.09l.1.67.28,4,.1-.67.09-2,.1.72.09-1.78.29.84.09,1.05.29-5.4.28-2.17.09,3.4.29-8,.28-1.89.19,6.51.19,3.78.29-1.83.09-1.4.1-3.28.09,1.39.1-1h.28l.09,1,.1-1.22.09.5.1,1.61.28-1.56.1,1.23.19,4.23.09.39.38,5.4.19-1.5.1,2.28.28,3.89.09-3.34.1.17.09.39.1-2.62.28,2.29.1-.28.19-2.39.09.27.29-.83.19,1.95.19,1.39.28-.17.1-.61.56-8.46.1,2.39.09-1.45.1,0,.09,2.5.29-.33.09-1.78.1.5.09-.17.1.73.28,1,.19,3.06.09-.89.1.22.38-5.12.09,1.56.1-.06.47,1.17.1-1.11.09.17.38-.84.38-5.06.28.94h.1l.19.45.09-.17.38,2.23.19-3.23.1,1,.28-.72.1-.62.56,8.69.1-1.89.09,1.11.1,2.67.09-.22.29-1.73.19,3.62.09,3.17.1-1.78.28-2.28.1,2.17.09-1.39.19,1.78.28-.45.1-3.5.19,1.72.09-2.17.38-3,.1-.78.19,1.72.38-2.67.09-2.28.19,3.17.28.39.19.78.1-2.89.09,1.17h.29l.19,1.05.09-.05.1,2.22.28.62.29,3.5.09-.61.28-1.67.1,2.23.09-.73.1.73.09,1.83.29-.16.09,2.67.29-3.34.28.39.19-2.28.48-7,.09,3.84.09-.44.1.05.09-1,.38-.22.1,1.39.09,4.18.1.16.28,6.29.19-3.06.1,1.45h.38l.09.44.09-.22.1,1,.38-3.12.19,3.79.19-3.29.28-1,.1,1.73.09-1.23.1-2.84.09,1.45.38-2.62.19,3.12.09.67.38-2.67.29,4.17.28.78.19-.17.19-2.89.29-2.67.37,4.45.29-1,.09-1,.1,2.22.09-.28.1,2.45.28-1.44.1.27.09-1.83.1.89.38-2.4.09.17.1-1.33.09,2.33.1-1,.28,1.11.09-.16.1-.56.19,1.84.28-1.06.1.61.28-.78.29-.11.19,2.62.09.67.1-1.45.28.78.09-.34.1.12.09-1.51h.38l.19-2.45.1-.16.09-.78h.38l.1-2.9.09.39.1-1.5.28-.89.09-.89.1.33h.09l.38-5.12.19,3.4.48-8.58.09,3.34.1-.33.09-1.06.1,3.62.28,1.56.19-2.67.09-.61.38,4,.1-1.05.09,3.17.1.11.38-4,.09,1.23.1-2.79.19,3.29H118l.09-.17.1-.72.09,0,.1-.44.28.66.19-3,.1,1.67.09-.89.29-1.28.19,1.89.19-1.11.28-.45.1,2.79.09-.17.09.67.1-.95.28-.06.29.62.09-.62h.29l.19,3.07.09,2.5.1-1.45.38,4.35.09-.95.09.33.1-1.72.28-1.62.19,3.4.1-1.73.09,1.34.29,2.67.38-3.45.28-1.95.38,1.45.28-1.89.19.94.1-.11L125,269l.29.44.09-.44.1.5.19-3.73.28,1.33.1-.77.09-2.34.1.78.09-.23.28-.94.1.94.09-.66.1-2.17.09.22.29.11.09-.11.29,2.56.28-.11.1.16.09-.83.1.89.09-.28.38,2.17.09-.67.1.89.09-2.22.29-.5.19-1.84.19,1.61.28.51.1-1.67h.09l.1.55.37-2.06.38,2.17.29.39.09,1.95.1-.67.09,1.62.1-1.17.28-.5.1.89.09-.56.19,2.62.38-.45.09.11.1,1.73.09-.72.29,1.5.09-.33.29-3.34.28-1.17.1,2.67.19-1.73.09-.11.29-.67.09.34.09-.73.1.39h.09l.29.73.09,1.05.1-.44.09.95.1-.45.28-.67.19,1.12.1.77.09-.33.29.33.28,1.51.09,1.56.29.44.19-1.11.09,1.33.1-.05H138l.09-1.06.1.67.09-.45h.29l.28-2.5.09.33.29,2.23.09-.45.1.34.09-.17.1-1.17.38-.67.09,1.28.1.06.09-.61.29-.61.09-1.73.1-.06.09,1,.09-.17.29-1.23.09.67.1-.67.09,1.62.1-.11.28.39.1-.39.09.16.1-.05.09-1.11h.29l.19,1.16.47-3.22.09.11.1.33.19-1.39.28-.5.1.11.19.61.09-1.83.29.61.09.44.1-.28.09.34h.1l.28-4,.19-3.84.09,2.39.1-2.67.28,2.28.1-.39H146l.1,2,.09-1.5.29-2.57,4.64,1.34.09,1.89.1.11.47,2.12.19-1.34h.1l.09-3.06h.29l.09-.5.19,1.28.1-.39.37,1,.1.78.09-.94.1,0,.28-.16.29,3.22.09,2.34.29,2.12.09,2.61.1.06.19,13.75.28-3.84.19-.84.09-2.89.1,1.39.28-.72.1-.73.28,4.79.29,3.39.09-1.72.1,2.28.19-2.45.28,1,.1-.83.18-4.06.1.66.28.34.1.39.09,2.56.1-.5.09,1.5.29,1.22.38,7.3.28-.23.29-8.46.09-1.11.28-.06.1.5.09-2.33.1,2.56.09-.84.29-.39.19-3.34.09.89.1-.94.28-.73.1-1.05.19,3.22.09,1.62.28,1.22.1,1.12.09-1.39.1,1,.09,2.06.29-.11.28-2.62.1,1.22.28,1.9.1-.56.09.56.1,2.61.09-.11.47,4.29.1-2.4.47,4.62.19-2.06.1.06.28-1.45.1.28.09-.17.1,2.23.09-.61.38.61.09,1.56.19-1.89.29-1,.09.73.1,1.61.09-1.72.1,0,.28,1.39.19,3.79.1-1.11.09,1.5.38-3.79.19,1.56.09-1.67.38.5.19,2.12.1,1.67.28,2.5.1-1.11.28,7.74.29-1.56.09.06.09-2.06.19,2.95.29,2.83.09,0,.1.61.19-3.51.28,1.67.19,6.07.1-1.78.09.11.29-1.28.09-9L172,306l.09-.78h.38l.19,5.18.1-.28.47,4.12.1-.83.09.61.29-1.11.09-1.84.1.5.09-.95.09,1.06.29,1.45.09-.06.1-.72.09-2.56.38,1.11.19-2.67.1-.83.09-2.62.29,2.23.28-5.29.09,1.33.38-1.33.19,4.12.38,1.83.38-8.79.29,2.78.09-2.34.1.17.09,1.73.1-3.18.28-.44.19,5.23.19-2.73.28,1.17.1,1.51.09-.28.1.83.09,1.95.38,1.56.1-1.84.19,2,.28-.11.09,3.34.1-1.34.09,3.06.1-.89.28.17.1-1.56.09.45.1,1.83.09-1.5.29,4.29.09-.78.1,1.5L182,312h.38l.38-2.45.28,1.84.29-3,.09.06.29,1.39h.09l.1.22.19-1.17.28-1.33.09.05.29,4.85.28-.06.1-.72.19.5.09-.45.38,1.56.1-.28.09.28.1.67.28-1.5.09-1.56.1,1.11.19-.67.28.67.29,2.28.09-.61h.38l.1.11.19-1.33.28-.11.19-.51.09-.72.1-2.17.28-.56.1-.94.09.33.1-.33.09-3.29.29.62.09-.23.1.5.09-.11.1-1.61.28.72.1-1.06.09.23.09-.34.1,1.56.28.34.19.61.1,1.33h.09l.29.45.09-.56.19,4.4.1-1.45.28.06.1-.39.09,1.89.1-.67.09.34.28,1.83.19-2.06.19-.78.29-.5.09-.66.19.94.1-.33.38-2.51.09.95.1-1.22h.28l.09.33.19-2.06.19-.78.1,2.51h.09l.1-2.34.28,2.56.1-2.17.09,2h.1l.09-3,.1.28.19-.23.09-.66.38,3.5.09-1.05.1.78.09,1.94.29.28.09-.28.19-1.28L198,308l.28,1.06.29-3.57.09-.55.28,0,.1.45.09,1.56.1-.28.09-.95.29-.61.09.17.1.94.19-.61.28.78.19-3.28.19,1.72.38.5.09,1.17.1-.11.09-1.11.48-1.95.09,1.06.48-1.67.09.66.19-.55.29-4.18.37,12.14.29,1.05.28-.44.1-1.23.28.95.1-.05.09.11.19,3.5.29,1.39.09,1.29.28-5.91.29-1.61.19,1.78.19,1,.28.56.29-4.06.09.89.29.5h.18l.1.44.09,1.9.29.27.19.45.19,1.28.28-1.78.38,4.12.29.05.09-.94.28,5.17.29.84.09-2.73.19,6.07.1,1.22.28-.39.19,2.12.1,2.06.09-5,.29.11.09-.5.1,1.28.09-.11.09-1.95.29.39.09-.56.1-3.56.09-.11.1.33.28.45.1,2.34.19-3.4.09.61.38,4.85.1-.95.09-2.39.1,1.28.28.22.09,2.17.19-.56.1.34.28,1.67.19,2.39.19-1.45.38,1.45.19-5,.1,1.5.37-2.61.1-1.84.09.78h.38l.1-.72.09.11.19-1.39.29-.11.19,4.95.09-.28.1-2.34.28.11.19,11,.19-2.29.28,1.51.1-1.17.19.72.09-.72.29-1.17.19,2.17.09-.95.1-3.84.28-.72.19,2.34.09-1.67.1,2.28.28.61.19-2.06.1-.33.09.89.29-.39.09.28L221,331l.19-1.28.28.33.38-2.56.28.22.1-.22.09.28.19-1.17.29.39.38-4.12.28,1.06.1-.67.09,1.78.09-.28.1.28.28,1.45.19-1.78.1-.06.09,1.23.29-.17.09-.28.1-2.23.19,2.23.28.28.19,1.06.09-.23.1.28.28,0,.1-.45h.19l.09-.33.29-.11.19-.5h.09l.1-.17h.28l.1.28.28-.62.28-.16.1-.5.09.33.1-.39.09.39.38.84.1-.34h.19l.28.17.19-.22.1-.84.09.5.28.06.19-1,.1.05.47,1,.1-.78.19-4.34.28.11.1,1,.09-.73.1-2,.09,1.22.28-.39.1-1.11.28,1.72.29-.33.19.22.09-.5.1.39.28,2.06.19-1.45.19.95.28.78.19.95.1.16.09.84.29-1.11.09-.78.1-2.12.47,4.18.1-.67.09.5.1-.28.09-1.89.28,1,.1-1.45.28,2.62.29.33.09-1.33.1.11.09-.11.1,1.72h.19l.19-.89h.09l.29.84H238l.1.83.18-.78.1.45.19-.11h.09l.1.16.09-.5.19.34.1.39h.19l.09-.78.19.11.19-1.73H240l.19-1.28.09.78.1-.11.09.56.29.72.09-1.34.1.12.09-.28.1.89.28-.06.1-.72h.19l.09-.11.29,0,.28,1.06.38.56.09-.28.19,1,.1-.11.28-.56.1-1.11.09.06.1-1.4h.28l.1.78.19-1.11.09.56.09-1.28h.19l.38-2.51.1,1.06h.19l.09-1.78.1.11.19-3.45.09.11h.19l.1.11.09.89.38-1.89h.09l.1-1.23.09.34.29-2.17h.19l.09.72.1,4.4.38-4.73h.09l.1,2.5.09-1.11.1.22.09-.17.1-.55.28.05.09.39.19,2.17.48,3.79.19-1.45.09-.95h.19l.1,1.79.09,0,.1.28.19,8.13.28-1.67.09-2.23.1,1.23.09-.17.1.94.28-1.61.1.67.09-.45.19-2.11.29.44.09-1.67.1.45.09-.5h.38l.09-.73.1.06.09-.28.1,3.62.28-.78.1-1.17.09.06.1-.06.09,1.28.38-.22.1.56.09-.06.1-.61.28-.34.09.11.19,2.84.1-.11.28.56.29-2.62.09.23.29.16.19-.61h.09l.1.83.28-.5.1-1.61.09.22.09-.83.1.55.28-.5.1.23.09.72.19-1.67.29.17.09-.39.1.27.09.62.1-.62.28-.77.19.44.09.06.1-.34.28-.28.19-1.55.1.44.09,1.89.29.62.19-1.4.09.73.67-2.62.09.84.28-.34.1-.61h.09l.1.67.09-.45.29-.33.09.89.29-1.34.47.34.1,1.5L263,316l.28-.89.1.11.09-.66h.1l.09-.84.29.22.09-.5.1.11.09.39.1-.05.28.17.1.16.19-.78.09.28h.38l.09.34.1,1.16.09-.83.29-.06.19,1.06.09-.11.1.33.28.62.1.78.28-1.23.28.17.1,1.83.09-.83h.1l.09-.61.29.89.09-.5.1.16.19.73h.28l.1-.28.19-2.17.09.44.38-.22.19-.72.09.44.1,0h.19l.19-.5.19-1,.28.67.1.73.09-1.45h.1l.09.39.29-1.28.09.5.09-.89.1.11.09-.72.29.22.19-.72.09.33.1.95.47-2.34.1.44.09-.22.29-.28.18-.78.19.84.29-.17.09,1.23.1-.23.09.28.1,1h.28l.1-.44.09,1,.1-1,.09.44.38-1.5.28-.95.29-.16.19-1.45h.19l.38.89.09-.22.19,1.33.29.56.09.72.1-.05.09-.17.09.56h.29l.09-3.23.19.95.1-.06.28-.45.1.28.09-.89.1,3.17.09-.22.29-.28.09.12.28-1.34.29-.28.19,1.11.09-.39.1.28.28.17.38-4,.29-.05.09,1,.1-.11.19.94.28-2.11.28,3.62.1-.23.28.84.1,1.22.09-1.61.1,1.5.09-.28.29.67.09-.78.1.34.09,1.94.1-.27.28-.17.09-1.34.1-.05.09.39.1-2.06.38.05.19.45.09,1.06.38-.89.1-1.23.09-.05h.38l.09.22.1-.06.19,1,.38.78.19-.39.09.17.29-1.61.09.27.1-.05.19-1.06.28.67.19-1.67.09.39.1-.5.28-.56.19.28.1.56.09-.56.29-.5.09.17.1-.28.09.5.1-.22.28-.06.19,1.39.19.28.28-.33.19,1.05.1-.05.09-.78.29.44.19-1.33.09.5.38-.28L292,307l.09.45.1-.62.28.56.1.56.09-.28.1.06.09.22.48-.39.09-.56.38,1.23.19-.67.19.28.28.33.1-.5.09.06.1-.17.09-.73.29-.94.09.33.1-.16.09.55.38-1.78.19.11.1-.67.09.39.38-.05.09-.22.1,1,.09,0,.29-.44.38.94.28-.78.19-1.5h.1l.09-.72.28.44.1-.16.19-.5.09.89.29.16.09-.39.19,1.12.1-.34.28.23.1.33.19-.89.09.44.28.06.19-1.06.1-.05.09.11.29.16.09.34.1-.34h.09l.1.67.28.73.19-.5.1.33.09-.22.28.61.1-.33.19-1.06.09.11.38-.39.1.61.09-.11.1-1.22.28.27.1-.16.09-.62.1.06.09.22.28.23.1-.67.09.11.1-.17.09-.83.29-.17.19.5.09-.61.1.22.28.22.19,1.12.1-.39.09.33.29.5.09-.67h.09l.1.39.09-.11.57-1.33.1.66.28-.27.1-.5.28.39h.29l.09.11.09.44.1-.61.09.39.38.61.1.06.09.22.1,1.61.28-.11.1-.67.28.67.38-1.05.19.38.38-.66.28.44.48,1.28.28,3.34.38,1.73.1-.78.09.83.09,2.34.29-.28.09-.5.19,3.56.1-.83.28,2.5.1-1.11.09.95.1-.89.09.11.29,2,.09-.72.19,1.22.1.34.28,1.72.19,2,.09.78.1-1.79.38,2.06L316,320l.09.5.29-1.39.19,3.06.09-1.17.1.45h.37l.19.61.1-.22.28-.95.1.45.09-.34.1.95.09-.45.38.73.19-.78.1.33.47.78.09-.28h.38l.1.39.19-2.39.09.22.29-.89.09.5.1-.39.09.17.1-.78.37-1,.1.28.09-.39.1.73.28.05.1-.55.09.11L322,316l.29.39.19-5.23.19,3.67.28.39.09.67.19-1.17.1,1.89.28.89.19-1.78.1,1.17.09-.22.29-1.45.09.33.1,0,.47,1.84.19-.73.19-.94.28-.45.1.11.09.72.1-.33.09.45.29-1.45.19.56.09-.06.1.89.38.56.09-.28.19,1.28.28-1,.1,1.67.09-.73.1.23.09,3.78.38,1.45.19,1.22.38-2.78.19,2.12.1.05.37.84.19-2,.1.06.09-.84.29.45.09,1,.1-.11.09.22.1.5.28-.16.1.44.09-.11.19.61.28.28.1-.22.19-1.56.09-.17.29-1.22.19,1,.19-.72.28.5.19,1.78.19-1.56.28-.72.19,1.61.1-.56.09.06h.29l.38,3.39.28.84.1-1.11.09.66.1-.39h.09l.47.56L336,325l.29-.23.09,1.34.1-.28.19-1.84.28-.44.1,1.06.19-3.29.09.34.28-1.95.1.55.19-3.61.09.94.29.17.09,1.28.19-1.23.1-.89.28-.33.1-.45.19,2.06.09-1.72.38.44.09-.72.1.72.09-.39.29-.11.19-1.89.09-1.45.1.5.47,1.56.19,2.56.29,1.45.09-1.84.09,1.06.1-1.95.09,1.78.29.56.09-.17.19.95.1,1.89.28,1.45.1,1,.09-.11.19,1.56.29-.39.09-.72.1,1.11.09-1.73.09.84.29-2.28.09.44.1-1.22.09.94.1-.5.28-1,.1-.72.19-4.68.09-.83.57-.73.09-1.05.29,2.39.09,3.84.1-1.61.19,3.72.28-1.22.1-1.34.09-.05.1,2.67h.09l.29,1.89.09-1.67.1.89.18-3.22.29.61.19,1.89.09-1.22.1,1.5.28-1.34.1-1.06.28,1.12.29.33.28-1.06.1.9.28,1.22.09-1.28.19,1.11.1-.22.28-.61.1.22.09-.11.19-1.78.29,1.06.09-.23.1-3.73.09,2.45.1-.72.28.61.28,2,.1-.23.28.06.1.28.09-.5.57,1.44.19-.22.1,1.17.28.72.28-1.56.1,1.28.28-1,.1,1.23.19-2.29.09.95.29.56.19-.78.09-.11h.38l.38,2.11.28-.39.1.78.09-.61.1.33.09-.11h.29l.19.95.19-1,.28.83.1-.5.18.95.1-.62.28.39.38-2.61.29-.28.09.83.29-2.44.28.11.1.16.09.89.19-1,.28-.05.19,1.67.1-.95h.09l.29.72.09-.5.1.39.09-.11.1.45.38-.39.18.44h.1l.28.5.1-.89H363l.1-.72.09.22.29-.61.09.11.1.39.19-1.61.28-.34.1.39.09-.83.1.66.09-.33.38-.22.19.89.09,1.17.38-.39.1-.5.09.61.1-.22.28-.28.29-1.11.09.44.38.45.09-.56h.1l.09-.11.38-.78.1-1.5.19-.12.28.39.1-.16.09-1h.1l.09-.78.28-.05.38,1.5.29-.5.19-4.34.19-2.06.38,1.11.09-1.28h.1l.09.83.28,1.23.1-1.67.09.67.1,1.95.09-.51.29-3.56.19,1.95.09-.17.1-.61.28.72.1-.33.19.61.09-.61.29.22.09-2.39.09.05.1-.16.09.5.29-.22.09-.34.1-2.17.19,1.34.28.72.1-.17.09.39.19,1.28.29.17.37-4.12.29-.22.38,2.89.28.28.1-.22.09-1.67.19,1.17.29.22.18.39.19-2.23.29.39.09.62.1-.62.09.95.1-.83.28.72.19,1.56.1-.45.09,1.17.29-.33.19.72.09-.11.47-2.39.29-3.57h.38l.09.11.1-.22.09.17.38,2.06.1-.17.09.34.09-.06.29.67.19-1.28.09.39.1-.23.28.34.38-5.35.29.06.19-3.9.19,2,.28.5.09.67.1-2.23.09.06.1,1.72.28-.61.1,1.5.28-2.39.29-1.39.09-2.29.19,2,.1.11.28-2,.19,1.78.19-1.39.28,1,.1-2.89.09.28.1.61.09-.84.38-1.83.1-.95.09-2.67h.1l.28.22.09-1.78.1,1.22.19.06.28.61.1-2.67.09-6.12.1,1.72.09-1.5.29-2.12.09-3.84.1,3.84.09-1.67.47,0,.19,3.67.1-1.95.38-2.11.09-.28.1-.89.09-2,.29-.28.09,1.39.1-.83.19,4.68.28.89.19-2,.19-1.67.28-.22.29,3.51.09-.34.29-3.34.09.11L393,268h.28l.1,1.72.18-5.45.1.27.28-1.72.19-2.51.1-1.56.09,1.62.29-1.73.09.06.1,2.56.09,5.18.38-6.79.1,2,.18-1.28.1,1,.28,1.84.1,1.89.09-.89.19,4.34.29-.39.09,2,.29-4.9.38.44.09-1.28.1,1.39.09.06.38-.61.19-3.23.09-.11.38-1.95.1-1.5.19,1.44.28.73.1-.84.28-5.51.28-1.78.1,1.61.09-1.33.1.28.09.94.29.45.19-4.06.09.83.1-.22.38.89.09.61.19-2.73.38-1.5.19.95.38-2.79.28-10.52.38-5.12.1,3.51.19-2.67.09.39.28,5.23.1-.11.09-1.12.48-27,.19,12.63.09,22.55.1-6,.28-5.34.1,4,.19-10,.37-2.5.19,12.19.19-5.4.29-.89.09,2.17.19-2,.1-4.57.28,1.23.19,13.8.19-5.06.29,10,.09-3.95.09.11.1-2.62.09.17.29,3.95.19-3.39.76,22.21.09-8.13.29-.83.09-1.9.19-11.07.09.33.29-5.57.19,4.29.09,4.06.1-.61.28,1,.1-3,.19-8.12.09,3.95.38,3.39.1,1.73.18-6.74.29-.72.09-.56.1,5.9.19-3.45.28-3.17.1,3.9.28-17.87.29-5.46.09,1.45.1-1.61.09.83.09-2.34.29-1.39h.19l.19,1.11.28-.16.19-1.84.1,11,.09-2.56.29,8.07.09-3.28.1,4.51.09-.45.09-3.62.29,1.06.09-.44.29-12.25.28,2.17.1-4.06.28,7,.29,6.45.09-3.45.1,1.84.19,5.9.47-9.52.09,1.22.1,6.13.28-.17.1,9.41.09-1.39.1,6.4.09-3.51.29,2.28.19-2.61.09,9.24.38-2.45.09-2.28.19-11.3.1-3.29.28-4.73.1,1.11.09,4.4.1-6.29.38,5.51.09-.22.1.28.09-2.56.38,5.12.09,3.89.1-2.89.19,5.4.28-1.56.29-7.35.09,4,.38-2.73.29-14.47.28,1.56.28-16.64.1,4.11.28-1.28.1-1,.09-2.56.1,3.17h.38l.09-3.56.19,1.33.1,8,.28-3,.1.61.09,2.84.09,6,.1-2.78.28-.73.19-8.74.1,2.23.09,4.9.29,3.28.19-5.23.19,5.4.28-1.17.1-1.06.09-5.45.19,5,.28-.61.1.61.09-.28.1,1.28.09,4.62.29,4,.09-4.57.19,3.23.1-3,.28-3.84.19,2.12.19-1.34.28.17.1-.5.09.89.19-1.95.48-11.86.19,6.18.28-3.51.19,2.29.1,2.78.09-2.06.28-2.39.1,1.39.19-9.63.09-2.79.29-1.44.09,3.23.1.05.09,3.84.1-6.18.28-.61.1-4.56.28,8.46.28-.73.1,2.9.09-.45.1-8.18.57,6.51.09-1.44.38,10.18.1-2.22.09,1.05.1,5.12.09.12.28-3.34.38,8.18.29-4.12.09,2.34L438,202l.1.78.28,6.29.1-.22.09-1.67.1-.06.09,2.51.28.39.1-9.52.09,2.5.1-.89.09.34.29-3.62.19,8.79.19-5.95.47,7.35.1-2.4.09,1.84.29,3.17.09-1.78.28,11.69.29-2.62.09,4.9.1-.66.19-10,.28,1.62.19-12,.19,2.34.29-.28.09,1.5.09,5.07.1-3.85.09,2.62.29-.83.19-4.9.19,3.95.28-1.89.1.67.09,4,.1-.83.09.55.29-.5.09,4.51.09-1.5.19,3,.29,2.56.09-.28.1-3.29.09.5.1-3.56.38,1.12.09-4.07.1.56.09-1.17.38,6.79.1-4.12.09.28.09-1.39.29-1.06.09,1.06.1,2.56.09-3.29.1,5.85.28-4.9.19-8.74.1-1.5.09,1,.29.72.09,2.56h.19l.09-3.45.38,11.53.19,1.33.1-3.45.28,4.18.1-1.79.09,2.79.1-3.4.09,2.56.29.34.09,1.61.29-8.85.28,1.39.09,1.45.1-.5.19,3.56.38-1.56.19,5.07.09-.84.29,3.73.09-.83.1-2.29.19,2.51.28.83.09-.77.19-6.13.1.61.47-7.9.1.39.09.17.38,7.9.1-.44.09,3.67.1-.06.28.45.09.89.1-2.62.09.17L456,219l.28.78.1-4.57.09,1,.19,11.14.38,20.26.1,16.75.09-5.95.38,4.78.19-10.91.09,1.06.1,5.34.28-3.78.1-3.45.09,3.34.1-5.51.09.5.38-14.2.1-3.5.09.33h.38l.19,10.08.19-13.59.28,1.79.1,8.46.19-6.52.09,1.56.38,2.9.1.11.19,6.79.28-2.12.19,2,.09-3,.1,1,.28,1.62.1,3,.19-1.72.38-8.46.09,2.11.1-7.18.09.39.1-1.17.28-1.17.1.06.18,1.89.1-.78.28,2.4.1-6.13.09-.05.1-.73.09-5.73.38,4.18.1-2.4.19,5.12.28-.94.1-3.45.09.16.1-9.52.09,1.73.28-2.06.1-4.95.09.11.1,1.22.09,2.51.48-16.87.09,1.89.38-13,.29,6.13.09-2.23.28-1.84.1-1.61.09,4.4.1,12.63.09-6.73.29,9.18.09-2.5.1-.12.09-3.89.1,5.34.28,7.57.19-6.62.1,3.56.09-4.06.28.89.1-3.95.09.27.1,2.12.09-.17.29-1.67.28,7.13.1-.23.38-5.95.28,4.9.47-16.54.1,1.4.09-6.41.29,4.79.09,5.12.19-5.56.1,7.68.28,1.67.1,1.45.09-2.29.1-6.73.09.89.28-12.25.1,3.79.09-1.12.19,11.08.29,8.85.09-8.07.1,7.52.09-1.62.1,3.45.28-8.68.1,5.12.09-.78.1,2.34.09-2.9.29.51.09.83.09-.61.19,6.62.29-.89.09,3.62.1-3,.19,4.79.28-.5.19,7.9.1-3.45.09-7.29.29,9.13.09-1.23.09,5.79.19-3.79.29.23.28-12.86.1,3.12.28-6.29.19,2.33.1,1.17.38-8.18.09,4.18.1-3.07.09,4.68.09-2.17.29-2.84.09-2.12.1.06.19-2.84.28-5.62.1,1.56.09-3.84.1,3.06.09-6.18.38,3,.1-.73.09-6.68.09,2.12.29-1.9.09-6.62L483,173l.09-.94.1,4.84.28,1.06.1-1.45.19-5.74.38-6.84.09,2.22.1,4.51.09-2.84.38-5.51.09,4,.29-10.86.28,2.17.1-.72.28,16.2.29.61.09-8.13.1,1,.19-7.51.28,6,.09-1.06.1.39.09-3.73.1,5.56.28.45.19-25.49.1.89.09-5.12.29-2.29.09,2,.1-6,.09,3.17.1-7,.28,2.79.19,8,.09-1.28.1,5.06.28-3.06.19-6.57.19,10.36.29.89.09-6.79.1,4.89.19-8.62.28-.62.19-13.36.09-2.11.1-5.12.28,2.67.1,4.56.09-7.73.19,5.67.29-5,.09,7.85.1-.95.09,6.85.1-7.63.28-.66.09-1.12.1-2.78.09.44h.38l.1-9.85.19,4.23.09-1,.29-4.62.09,3.51.1.16.19-3.34h0"/><g class="cls-4"><line class="cls-5" x1="34.49" y1="345.79" x2="34.49" y2="343.29"/><line class="cls-6" x1="34.49" y1="338.31" x2="34.49" y2="101.67"/><line class="cls-5" x1="34.49" y1="99.18" x2="34.49" y2="96.68"/></g><g class="cls-4"><line class="cls-5" x1="103.76" y1="345.79" x2="103.76" y2="343.29"/><line class="cls-6" x1="103.76" y1="338.31" x2="103.76" y2="101.67"/><line class="cls-5" x1="103.76" y1="99.18" x2="103.76" y2="96.68"/></g><g class="cls-4"><line class="cls-5" x1="172.95" y1="345.79" x2="172.95" y2="343.29"/><line class="cls-6" x1="172.95" y1="338.31" x2="172.95" y2="101.67"/><line class="cls-5" x1="172.95" y1="99.18" x2="172.95" y2="96.68"/></g><g class="cls-4"><line class="cls-5" x1="242.23" y1="345.79" x2="242.23" y2="343.29"/><line class="cls-6" x1="242.23" y1="338.31" x2="242.23" y2="101.67"/><line class="cls-5" x1="242.23" y1="99.18" x2="242.23" y2="96.68"/></g><g class="cls-4"><line class="cls-5" x1="311.41" y1="345.79" x2="311.41" y2="343.29"/><line class="cls-6" x1="311.41" y1="338.31" x2="311.41" y2="101.67"/><line class="cls-5" x1="311.41" y1="99.18" x2="311.41" y2="96.68"/></g><g class="cls-4"><line class="cls-5" x1="380.69" y1="345.79" x2="380.69" y2="343.29"/><line class="cls-6" x1="380.69" y1="338.31" x2="380.69" y2="101.67"/><line class="cls-5" x1="380.69" y1="99.18" x2="380.69" y2="96.68"/></g><g class="cls-4"><line class="cls-5" x1="449.87" y1="345.79" x2="449.87" y2="343.29"/><line class="cls-6" x1="449.87" y1="338.31" x2="449.87" y2="101.67"/><line class="cls-5" x1="449.87" y1="99.18" x2="449.87" y2="96.68"/></g><g class="cls-4"><line class="cls-5" x1="26.91" y1="293.55" x2="29.41" y2="293.55"/><line class="cls-7" x1="34.41" y1="293.55" x2="512.04" y2="293.55"/><line class="cls-5" x1="514.54" y1="293.55" x2="517.04" y2="293.55"/></g><g class="cls-4"><line class="cls-5" x1="26.91" y1="237.89" x2="29.41" y2="237.89"/><line class="cls-7" x1="34.41" y1="237.89" x2="512.04" y2="237.89"/><line class="cls-5" x1="514.54" y1="237.89" x2="517.04" y2="237.89"/></g><g class="cls-4"><line class="cls-5" x1="26.91" y1="182.22" x2="29.41" y2="182.22"/><line class="cls-7" x1="34.41" y1="182.22" x2="512.04" y2="182.22"/><line class="cls-5" x1="514.54" y1="182.22" x2="517.04" y2="182.22"/></g><g class="cls-4"><line class="cls-5" x1="26.91" y1="126.56" x2="29.41" y2="126.56"/><line class="cls-7" x1="34.41" y1="126.56" x2="512.04" y2="126.56"/><line class="cls-5" x1="514.54" y1="126.56" x2="517.04" y2="126.56"/></g><path d="M71.7,118.9H64.39v-1.45l3.45-3.68a8.35,8.35,0,0,0,1-1.35,2.15,2.15,0,0,0,.34-1.1,1.64,1.64,0,0,0-.36-1.12,1.3,1.3,0,0,0-1-.4,1.41,1.41,0,0,0-1.13.49,2,2,0,0,0-.41,1.3H64.17a3.51,3.51,0,0,1,.47-1.78A3.27,3.27,0,0,1,66,108.55a3.9,3.9,0,0,1,1.92-.46,3.77,3.77,0,0,1,2.56.79,2.8,2.8,0,0,1,.91,2.24,3.53,3.53,0,0,1-.41,1.61,9.15,9.15,0,0,1-1.4,1.91l-2.43,2.55H71.7Z"/><path d="M80.17,114.49a5.37,5.37,0,0,1-.92,3.39,3.65,3.65,0,0,1-5.34,0,5.27,5.27,0,0,1-1-3.3v-2a5.31,5.31,0,0,1,.93-3.39,3.66,3.66,0,0,1,5.34,0,5.22,5.22,0,0,1,.94,3.29Zm-2.12-2.16a4,4,0,0,0-.36-1.93,1.23,1.23,0,0,0-1.13-.6,1.19,1.19,0,0,0-1.1.57,3.6,3.6,0,0,0-.38,1.8v2.6a4.08,4.08,0,0,0,.36,1.94,1.19,1.19,0,0,0,1.13.63,1.2,1.2,0,0,0,1.13-.61,4.11,4.11,0,0,0,.35-1.86Z"/><path d="M88.78,114.49a5.43,5.43,0,0,1-.92,3.39,3.19,3.19,0,0,1-2.68,1.17,3.23,3.23,0,0,1-2.67-1.15,5.27,5.27,0,0,1-.94-3.3v-2a5.31,5.31,0,0,1,.93-3.39,3.65,3.65,0,0,1,5.33,0,5.22,5.22,0,0,1,1,3.29Zm-2.12-2.16a4,4,0,0,0-.36-1.93,1.24,1.24,0,0,0-1.13-.6,1.22,1.22,0,0,0-1.11.57,3.73,3.73,0,0,0-.37,1.8v2.6a4.09,4.09,0,0,0,.35,1.94,1.22,1.22,0,0,0,1.14.63,1.18,1.18,0,0,0,1.12-.61,4,4,0,0,0,.36-1.86Z"/><path d="M97.15,111.07a2.55,2.55,0,0,1-.38,1.38,2.85,2.85,0,0,1-1.07,1,3.18,3.18,0,0,1,1.23,1,2.64,2.64,0,0,1,.45,1.54,2.75,2.75,0,0,1-1,2.24,3.9,3.9,0,0,1-2.62.83,4,4,0,0,1-2.64-.83,2.79,2.79,0,0,1-1-2.24,2.7,2.7,0,0,1,.46-1.55,3,3,0,0,1,1.22-1,2.74,2.74,0,0,1-1.06-1,2.48,2.48,0,0,1-.39-1.38,2.75,2.75,0,0,1,.91-2.17,4.18,4.18,0,0,1,4.93,0A2.75,2.75,0,0,1,97.15,111.07Zm-1.89,4.76a1.54,1.54,0,0,0-.41-1.12,1.42,1.42,0,0,0-1.08-.42,1.43,1.43,0,0,0-1.08.42,1.52,1.52,0,0,0-.4,1.12,1.48,1.48,0,0,0,.4,1.09,1.43,1.43,0,0,0,1.1.42,1.46,1.46,0,0,0,1.08-.4A1.53,1.53,0,0,0,95.26,115.83ZM95,111.18a1.45,1.45,0,0,0-.33-1,1.14,1.14,0,0,0-.93-.38,1.16,1.16,0,0,0-.92.36,1.44,1.44,0,0,0-.33,1,1.47,1.47,0,0,0,.33,1,1.29,1.29,0,0,0,1.85,0A1.53,1.53,0,0,0,95,111.18Z"/><path d="M106.79,114.54H99.2v-1.73h7.59Z"/><path d="M115.6,118.9h-7.31v-1.45l3.45-3.68a8.35,8.35,0,0,0,1.05-1.35,2.25,2.25,0,0,0,.34-1.1,1.64,1.64,0,0,0-.36-1.12,1.3,1.3,0,0,0-1-.4,1.39,1.39,0,0,0-1.13.49,2,2,0,0,0-.41,1.3h-2.13a3.51,3.51,0,0,1,.47-1.78,3.31,3.31,0,0,1,1.31-1.26,4,4,0,0,1,1.93-.46,3.77,3.77,0,0,1,2.56.79,2.8,2.8,0,0,1,.91,2.24,3.53,3.53,0,0,1-.41,1.61,9.15,9.15,0,0,1-1.4,1.91L111,117.19h4.59Z"/><path d="M124.07,114.49a5.43,5.43,0,0,1-.91,3.39,3.66,3.66,0,0,1-5.35,0,5.27,5.27,0,0,1-1-3.3v-2a5.31,5.31,0,0,1,.93-3.39,3.66,3.66,0,0,1,5.34,0,5.22,5.22,0,0,1,.94,3.29ZM122,112.33a4,4,0,0,0-.36-1.93,1.23,1.23,0,0,0-1.13-.6,1.19,1.19,0,0,0-1.1.57,3.71,3.71,0,0,0-.38,1.8v2.6a4.08,4.08,0,0,0,.36,1.94,1.34,1.34,0,0,0,2.26,0,4.11,4.11,0,0,0,.35-1.86Z"/><path d="M132.68,114.49a5.43,5.43,0,0,1-.92,3.39,3.19,3.19,0,0,1-2.68,1.17,3.23,3.23,0,0,1-2.67-1.15,5.27,5.27,0,0,1-.94-3.3v-2a5.31,5.31,0,0,1,.93-3.39,3.65,3.65,0,0,1,5.33,0,5.22,5.22,0,0,1,1,3.29Zm-2.12-2.16a4,4,0,0,0-.36-1.93,1.36,1.36,0,0,0-2.24,0,3.73,3.73,0,0,0-.37,1.8v2.6a4.09,4.09,0,0,0,.35,1.94,1.22,1.22,0,0,0,1.14.63,1.18,1.18,0,0,0,1.12-.61,4,4,0,0,0,.36-1.86Z"/><path d="M139.05,114.64a2.66,2.66,0,0,1-1.93.81,2.84,2.84,0,0,1-2.26-1,3.82,3.82,0,0,1-.85-2.62,4,4,0,0,1,.46-1.92,3.34,3.34,0,0,1,1.27-1.36,3.53,3.53,0,0,1,1.85-.49,3.38,3.38,0,0,1,1.87.53,3.47,3.47,0,0,1,1.28,1.51,5.44,5.44,0,0,1,.46,2.27v.78a6.17,6.17,0,0,1-1.32,4.19,5,5,0,0,1-3.76,1.63h-.52v-1.76h.47C137.91,117.15,138.9,116.28,139.05,114.64Zm-1.41-.81a1.43,1.43,0,0,0,.88-.26,1.7,1.7,0,0,0,.56-.64v-.87a2.87,2.87,0,0,0-.41-1.67,1.27,1.27,0,0,0-1.09-.59,1.22,1.22,0,0,0-1.05.58,2.44,2.44,0,0,0-.41,1.46,2.37,2.37,0,0,0,.4,1.43A1.27,1.27,0,0,0,137.64,113.83Z"/><path d="M72.91,136.3H72v-5.11H65.91v5.11H65V125.64h.9v4.79H72v-4.79h.91Z"/><path d="M74.93,132.22a4.57,4.57,0,0,1,.45-2.05,3.3,3.3,0,0,1,1.25-1.43,3.36,3.36,0,0,1,1.83-.51A3.27,3.27,0,0,1,81,129.34a4.3,4.3,0,0,1,1,2.94v.19a4.75,4.75,0,0,1-.44,2.06A3.34,3.34,0,0,1,80.32,136a3.45,3.45,0,0,1-1.84.5,3.27,3.27,0,0,1-2.56-1.11,4.25,4.25,0,0,1-1-2.94Zm.88.25a3.61,3.61,0,0,0,.74,2.33,2.49,2.49,0,0,0,3.85,0,3.73,3.73,0,0,0,.74-2.41v-.17a3.94,3.94,0,0,0-.34-1.66,2.75,2.75,0,0,0-.94-1.17,2.48,2.48,0,0,0-1.4-.41,2.36,2.36,0,0,0-1.91.92,3.72,3.72,0,0,0-.74,2.4Z"/><path d="M88.56,134.29a1.25,1.25,0,0,0-.52-1,4.08,4.08,0,0,0-1.58-.62,7.18,7.18,0,0,1-1.63-.51,2.17,2.17,0,0,1-.87-.71,1.72,1.72,0,0,1-.28-1,1.9,1.9,0,0,1,.78-1.55,3.23,3.23,0,0,1,2-.61,3.27,3.27,0,0,1,2.13.66,2.1,2.1,0,0,1,.8,1.71h-.88a1.41,1.41,0,0,0-.58-1.16,2.29,2.29,0,0,0-1.47-.46,2.34,2.34,0,0,0-1.39.38,1.19,1.19,0,0,0-.52,1,1.08,1.08,0,0,0,.43.92,4.52,4.52,0,0,0,1.59.6,7.15,7.15,0,0,1,1.73.58,2.19,2.19,0,0,1,.86.74,2.05,2.05,0,0,1-.54,2.65,3.45,3.45,0,0,1-2.11.6,3.51,3.51,0,0,1-2.24-.67,2,2,0,0,1-.86-1.7h.87a1.52,1.52,0,0,0,.65,1.2,2.64,2.64,0,0,0,1.58.43,2.49,2.49,0,0,0,1.48-.4A1.2,1.2,0,0,0,88.56,134.29Z"/><path d="M97.79,132.42a4.8,4.8,0,0,1-.82,2.94,2.61,2.61,0,0,1-2.2,1.09,2.92,2.92,0,0,1-2.49-1.14v4h-.87v-11h.81l0,1.12a2.81,2.81,0,0,1,2.49-1.27A2.64,2.64,0,0,1,97,129.31a4.87,4.87,0,0,1,.81,3Zm-.88-.15a4.14,4.14,0,0,0-.62-2.4,2,2,0,0,0-1.74-.88,2.3,2.3,0,0,0-2.27,1.52v3.8a2.36,2.36,0,0,0,.9,1,2.58,2.58,0,0,0,1.38.36,2,2,0,0,0,1.73-.88A4.46,4.46,0,0,0,96.91,132.27Z"/><path d="M99.24,132.22a4.57,4.57,0,0,1,.45-2.05,3.3,3.3,0,0,1,1.25-1.43,3.36,3.36,0,0,1,1.83-.51,3.27,3.27,0,0,1,2.57,1.11,4.3,4.3,0,0,1,1,2.94v.19a4.75,4.75,0,0,1-.44,2.06,3.34,3.34,0,0,1-1.25,1.42,3.45,3.45,0,0,1-1.84.5,3.25,3.25,0,0,1-2.56-1.11,4.25,4.25,0,0,1-1-2.94Zm.88.25a3.61,3.61,0,0,0,.74,2.33,2.49,2.49,0,0,0,3.85,0,3.73,3.73,0,0,0,.74-2.41v-.17a4.1,4.1,0,0,0-.34-1.66,2.83,2.83,0,0,0-.94-1.17,2.48,2.48,0,0,0-1.4-.41,2.34,2.34,0,0,0-1.91.92,3.72,3.72,0,0,0-.74,2.4Z"/><path d="M107.78,132.27a4.77,4.77,0,0,1,.82-2.94,2.65,2.65,0,0,1,2.24-1.1,2.73,2.73,0,0,1,2.44,1.27v-4.45h.87V136.3h-.82l0-1.05a2.84,2.84,0,0,1-2.48,1.2,2.66,2.66,0,0,1-2.21-1.1,4.81,4.81,0,0,1-.83-3Zm.88.15a4.09,4.09,0,0,0,.61,2.39,2,2,0,0,0,1.71.88,2.36,2.36,0,0,0,2.3-1.43v-3.72A2.34,2.34,0,0,0,111,129a2,2,0,0,0-1.72.87A4.41,4.41,0,0,0,108.66,132.42Z"/><path d="M121.46,136.3a4.3,4.3,0,0,1-.16-1.1,3,3,0,0,1-1.18.92,3.57,3.57,0,0,1-1.51.33,2.64,2.64,0,0,1-1.85-.64,2.07,2.07,0,0,1-.71-1.61,2.12,2.12,0,0,1,1-1.83,4.65,4.65,0,0,1,2.69-.67h1.59v-.9a1.73,1.73,0,0,0-.53-1.34,2.11,2.11,0,0,0-1.52-.49,2.42,2.42,0,0,0-1.52.47,1.39,1.39,0,0,0-.6,1.13h-.88a2.07,2.07,0,0,1,.88-1.64,3.41,3.41,0,0,1,2.16-.69,3.08,3.08,0,0,1,2.09.66,2.38,2.38,0,0,1,.79,1.85v3.75a4.76,4.76,0,0,0,.24,1.73v.08Zm-2.75-.63a3,3,0,0,0,1.57-.42,2.48,2.48,0,0,0,1-1.14v-1.74h-1.57a3.93,3.93,0,0,0-2,.48,1.45,1.45,0,0,0-.74,1.28,1.43,1.43,0,0,0,.49,1.1A1.84,1.84,0,0,0,118.71,135.67Zm1.73-10.62h1.06l-1.69,2H119Z"/><path d="M128.16,129.13a2.91,2.91,0,0,0-.6-.06,2.17,2.17,0,0,0-1.38.46,2.52,2.52,0,0,0-.81,1.33v5.44h-.87v-7.92h.85l0,1.26a2.33,2.33,0,0,1,2.23-1.41,1.31,1.31,0,0,1,.58.1Z"/><path d="M134.29,134.29a1.28,1.28,0,0,0-.52-1,4.15,4.15,0,0,0-1.58-.62,7.28,7.28,0,0,1-1.64-.51,2.07,2.07,0,0,1-.86-.71,1.72,1.72,0,0,1-.29-1,1.91,1.91,0,0,1,.79-1.55,3.2,3.2,0,0,1,2-.61,3.23,3.23,0,0,1,2.13.66,2.07,2.07,0,0,1,.8,1.71h-.87a1.42,1.42,0,0,0-.59-1.16,2.27,2.27,0,0,0-1.47-.46,2.32,2.32,0,0,0-1.38.38,1.2,1.2,0,0,0-.53,1,1.08,1.08,0,0,0,.44.92,4.52,4.52,0,0,0,1.59.6,7.31,7.31,0,0,1,1.73.58,2.23,2.23,0,0,1,.85.74,1.84,1.84,0,0,1,.28,1,1.91,1.91,0,0,1-.81,1.61,3.47,3.47,0,0,1-2.11.6,3.52,3.52,0,0,1-2.25-.67,2.08,2.08,0,0,1-.86-1.7H130a1.49,1.49,0,0,0,.65,1.2,2.62,2.62,0,0,0,1.58.43,2.44,2.44,0,0,0,1.47-.4A1.21,1.21,0,0,0,134.29,134.29Z"/><path d="M139,132.31l-1,1v3h-.88V125.05H138v7.2l.83-.89,3-3H143l-3.36,3.34,3.66,4.58h-1.05Z"/><path d="M149.49,136.3a3.83,3.83,0,0,1-.17-1.1,3,3,0,0,1-1.18.92,3.54,3.54,0,0,1-1.51.33,2.64,2.64,0,0,1-1.85-.64,2.07,2.07,0,0,1-.71-1.61,2.13,2.13,0,0,1,1-1.83,4.6,4.6,0,0,1,2.68-.67h1.59v-.9a1.73,1.73,0,0,0-.52-1.34,2.15,2.15,0,0,0-1.53-.49,2.42,2.42,0,0,0-1.52.47,1.39,1.39,0,0,0-.6,1.13h-.88a2.07,2.07,0,0,1,.88-1.64,3.41,3.41,0,0,1,2.16-.69,3.13,3.13,0,0,1,2.1.66,2.37,2.37,0,0,1,.78,1.85v3.75a4.76,4.76,0,0,0,.24,1.73v.08Zm-2.76-.63a3,3,0,0,0,1.57-.42,2.42,2.42,0,0,0,1-1.14v-1.74h-1.57a4,4,0,0,0-2.05.48,1.45,1.45,0,0,0-.74,1.28,1.41,1.41,0,0,0,.5,1.1A1.83,1.83,0,0,0,146.73,135.67Z"/><path d="M66.69,150.31l-1,1v3H64.8V143.05h.88v7.2l.83-.89,3-3h1.11l-3.36,3.34,3.65,4.58h-1Z"/><path d="M75.81,147.13a2.74,2.74,0,0,0-.59-.06,2.17,2.17,0,0,0-1.39.46,2.52,2.52,0,0,0-.81,1.33v5.44h-.87v-7.92H73v1.26a2.34,2.34,0,0,1,2.24-1.41,1.29,1.29,0,0,1,.57.1Z"/><path d="M78.62,143.14h1.06L78,145.19h-.77Zm-.46,11.16h-.87v-7.92h.87Z"/><path d="M81.12,153.56h5.14v.74H80v-.64l4.81-6.52H80.18v-.76h5.76V147Z"/><path d="M92.83,154.3a4.3,4.3,0,0,1-.16-1.1,3,3,0,0,1-1.18.92,3.57,3.57,0,0,1-1.51.33,2.64,2.64,0,0,1-1.85-.64,2.07,2.07,0,0,1-.71-1.61,2.12,2.12,0,0,1,1-1.83,4.65,4.65,0,0,1,2.69-.67h1.59v-.9a1.73,1.73,0,0,0-.53-1.34,2.11,2.11,0,0,0-1.52-.49,2.42,2.42,0,0,0-1.52.47,1.39,1.39,0,0,0-.6,1.13h-.88a2.07,2.07,0,0,1,.88-1.64,3.41,3.41,0,0,1,2.16-.69,3.08,3.08,0,0,1,2.09.66,2.38,2.38,0,0,1,.79,1.85v3.75a4.76,4.76,0,0,0,.24,1.73v.08Zm-2.75-.63a3,3,0,0,0,1.57-.42,2.48,2.48,0,0,0,1-1.14v-1.74H91.09a3.93,3.93,0,0,0-2,.48,1.45,1.45,0,0,0-.74,1.28,1.43,1.43,0,0,0,.49,1.1A1.84,1.84,0,0,0,90.08,153.67Z"/><path d="M225.45,118.9h-7.31v-1.45l3.45-3.68a7.34,7.34,0,0,0,1-1.35,2.15,2.15,0,0,0,.34-1.1,1.64,1.64,0,0,0-.36-1.12,1.28,1.28,0,0,0-1-.4,1.38,1.38,0,0,0-1.13.49,1.93,1.93,0,0,0-.42,1.3h-2.12a3.51,3.51,0,0,1,.47-1.78,3.25,3.25,0,0,1,1.31-1.26,4,4,0,0,1,1.93-.46,3.77,3.77,0,0,1,2.56.79,2.83,2.83,0,0,1,.91,2.24,3.66,3.66,0,0,1-.41,1.61,9.25,9.25,0,0,1-1.41,1.91l-2.42,2.55h4.58Z"/><path d="M233.93,114.49a5.43,5.43,0,0,1-.92,3.39,3.19,3.19,0,0,1-2.68,1.17,3.23,3.23,0,0,1-2.67-1.15,5.27,5.27,0,0,1-.94-3.3v-2a5.31,5.31,0,0,1,.93-3.39,3.65,3.65,0,0,1,5.33,0,5.22,5.22,0,0,1,1,3.29Zm-2.12-2.16a4,4,0,0,0-.36-1.93,1.36,1.36,0,0,0-2.24,0,3.73,3.73,0,0,0-.37,1.8v2.6a4.09,4.09,0,0,0,.35,1.94,1.22,1.22,0,0,0,1.14.63,1.18,1.18,0,0,0,1.12-.61,4,4,0,0,0,.36-1.86Z"/><path d="M240.5,118.9h-2.12v-8.16l-2.53.79V109.8l4.42-1.58h.23Z"/><path d="M246.11,112.63h1.13a1.56,1.56,0,0,0,1.19-.4,1.48,1.48,0,0,0,.39-1.07,1.32,1.32,0,0,0-.38-1,1.5,1.5,0,0,0-1.06-.36,1.56,1.56,0,0,0-1,.33,1.07,1.07,0,0,0-.41.87h-2.12a2.61,2.61,0,0,1,.46-1.5,3.06,3.06,0,0,1,1.25-1,4.37,4.37,0,0,1,1.79-.37,4,4,0,0,1,2.65.81,2.76,2.76,0,0,1,1,2.23,2.24,2.24,0,0,1-.45,1.35,2.93,2.93,0,0,1-1.17.94,2.72,2.72,0,0,1,1.35,1,2.66,2.66,0,0,1,.44,1.52,2.81,2.81,0,0,1-1,2.28,4.16,4.16,0,0,1-2.74.86,3.93,3.93,0,0,1-2.61-.84,2.77,2.77,0,0,1-1-2.23h2.12a1.22,1.22,0,0,0,.45,1,1.88,1.88,0,0,0,2.29,0,1.36,1.36,0,0,0,.43-1.06c0-1.06-.58-1.59-1.76-1.59h-1.12Z"/><path d="M260.54,114.54H253v-1.73h7.58Z"/><path d="M269.35,118.9H262v-1.45l3.45-3.68a7.34,7.34,0,0,0,1.05-1.35,2.15,2.15,0,0,0,.34-1.1,1.64,1.64,0,0,0-.36-1.12,1.28,1.28,0,0,0-1-.4,1.38,1.38,0,0,0-1.13.49,1.93,1.93,0,0,0-.42,1.3h-2.12a3.6,3.6,0,0,1,.46-1.78,3.34,3.34,0,0,1,1.32-1.26,4,4,0,0,1,1.93-.46,3.79,3.79,0,0,1,2.56.79,2.83,2.83,0,0,1,.91,2.24,3.66,3.66,0,0,1-.41,1.61,9.25,9.25,0,0,1-1.41,1.91l-2.42,2.55h4.58Z"/><path d="M277.83,114.49a5.43,5.43,0,0,1-.92,3.39,3.19,3.19,0,0,1-2.68,1.17,3.23,3.23,0,0,1-2.67-1.15,5.27,5.27,0,0,1-.94-3.3v-2a5.31,5.31,0,0,1,.93-3.39,3.65,3.65,0,0,1,5.33,0,5.22,5.22,0,0,1,.95,3.29Zm-2.12-2.16a4,4,0,0,0-.36-1.93,1.36,1.36,0,0,0-2.24,0,3.73,3.73,0,0,0-.37,1.8v2.6a4.09,4.09,0,0,0,.35,1.94,1.22,1.22,0,0,0,1.14.63,1.18,1.18,0,0,0,1.12-.61,4,4,0,0,0,.36-1.86Z"/><path d="M284.4,118.9h-2.12v-8.16l-2.53.79V109.8l4.42-1.58h.23Z"/><path d="M295.11,109.42,291,118.9h-2.24l4.13-9h-5.3v-1.7h7.53Z"/><path d="M219.67,132.56v4.34h-.9V126.24h3.63a3.79,3.79,0,0,1,2.62.85,3.32,3.32,0,0,1,0,4.65,3.91,3.91,0,0,1-2.68.82Zm0-.76h2.73a2.87,2.87,0,0,0,2-.63,2.21,2.21,0,0,0,.69-1.74,2.33,2.33,0,0,0-.69-1.76,2.71,2.71,0,0,0-1.94-.67h-2.79Z"/><path d="M231.46,129.72a3.7,3.7,0,0,0-.59-.05,2.17,2.17,0,0,0-1.39.46,2.52,2.52,0,0,0-.81,1.33v5.44h-.87V129h.85l0,1.26a2.33,2.33,0,0,1,2.23-1.41,1.31,1.31,0,0,1,.58.1Z"/><path d="M235.77,137.05a3.43,3.43,0,0,1-1.82-.5,3.29,3.29,0,0,1-1.27-1.39,4.23,4.23,0,0,1-.46-2v-.32a4.62,4.62,0,0,1,.45-2.06,3.47,3.47,0,0,1,1.23-1.44,3.12,3.12,0,0,1,1.71-.52,2.85,2.85,0,0,1,2.29,1,4,4,0,0,1,.85,2.69V133h-5.66v.17a3.3,3.3,0,0,0,.78,2.24,2.44,2.44,0,0,0,1.94.9,2.86,2.86,0,0,0,1.24-.26,2.68,2.68,0,0,0,1-.82l.55.42A3.21,3.21,0,0,1,235.77,137.05Zm-.16-7.47a2.18,2.18,0,0,0-1.66.72,3.42,3.42,0,0,0-.83,1.95h4.76v-.09a2.91,2.91,0,0,0-.66-1.86A2,2,0,0,0,235.61,129.58Z"/><path d="M246.83,133A4.73,4.73,0,0,1,246,136a2.58,2.58,0,0,1-2.19,1.09,2.92,2.92,0,0,1-2.49-1.14v4h-.87V129h.81l0,1.12a2.81,2.81,0,0,1,2.49-1.27,2.64,2.64,0,0,1,2.23,1.08,4.85,4.85,0,0,1,.81,3Zm-.88-.15a4,4,0,0,0-.63-2.4,2,2,0,0,0-1.73-.88,2.3,2.3,0,0,0-2.27,1.52v3.8a2.36,2.36,0,0,0,.9,1,2.58,2.58,0,0,0,1.38.36,2,2,0,0,0,1.73-.88A4.48,4.48,0,0,0,246,132.87Z"/><path d="M253.77,136.9a4.3,4.3,0,0,1-.17-1.1,3,3,0,0,1-1.17.92,3.58,3.58,0,0,1-1.52.33,2.65,2.65,0,0,1-1.85-.64,2.06,2.06,0,0,1-.7-1.61,2.12,2.12,0,0,1,1-1.83,4.62,4.62,0,0,1,2.68-.68h1.59v-.9a1.72,1.72,0,0,0-.52-1.33,2.15,2.15,0,0,0-1.53-.49A2.39,2.39,0,0,0,250,130a1.39,1.39,0,0,0-.6,1.13h-.88a2,2,0,0,1,.88-1.64,3.37,3.37,0,0,1,2.16-.69,3.1,3.1,0,0,1,2.09.66,2.4,2.4,0,0,1,.79,1.85v3.75a4.66,4.66,0,0,0,.24,1.72v.09Zm-2.75-.63a3,3,0,0,0,1.57-.42,2.51,2.51,0,0,0,1-1.14V133H252a3.9,3.9,0,0,0-2.05.48,1.42,1.42,0,0,0-.74,1.28,1.4,1.4,0,0,0,.49,1.1A1.84,1.84,0,0,0,251,136.27Z"/><path d="M256.45,132.87a4.77,4.77,0,0,1,.83-2.94,2.63,2.63,0,0,1,2.23-1.1A2.75,2.75,0,0,1,262,130.1v-4.45h.87V136.9H262l0-1.05a2.82,2.82,0,0,1-2.47,1.2,2.65,2.65,0,0,1-2.21-1.1,4.81,4.81,0,0,1-.84-3Zm.89.15a4.09,4.09,0,0,0,.61,2.39,2,2,0,0,0,1.71.88,2.37,2.37,0,0,0,2.3-1.43v-3.72a2.36,2.36,0,0,0-2.29-1.55,2,2,0,0,0-1.72.87A4.42,4.42,0,0,0,257.34,133Z"/><path d="M271.71,136.31a2.28,2.28,0,0,0,1.54-.52,1.84,1.84,0,0,0,.67-1.33h.84a2.44,2.44,0,0,1-.45,1.32,2.8,2.8,0,0,1-1.11.93,3.29,3.29,0,0,1-1.49.34,3,3,0,0,1-2.47-1.09,4.35,4.35,0,0,1-.91-2.91v-.26a5,5,0,0,1,.41-2.08,3.16,3.16,0,0,1,1.18-1.39,3.2,3.2,0,0,1,1.79-.49,3.06,3.06,0,0,1,2.15.78,2.83,2.83,0,0,1,.9,2h-.84a2.14,2.14,0,0,0-.67-1.5,2.39,2.39,0,0,0-3.38.28,3.9,3.9,0,0,0-.66,2.41v.25a3.79,3.79,0,0,0,.66,2.37A2.17,2.17,0,0,0,271.71,136.31Z"/><path d="M279.58,137.05a3.49,3.49,0,0,1-1.83-.5,3.42,3.42,0,0,1-1.27-1.39,4.35,4.35,0,0,1-.45-2v-.32a4.75,4.75,0,0,1,.44-2.06,3.56,3.56,0,0,1,1.24-1.44,3.07,3.07,0,0,1,1.71-.52,2.87,2.87,0,0,1,2.29,1,4,4,0,0,1,.84,2.69V133H276.9v.17a3.35,3.35,0,0,0,.77,2.24,2.47,2.47,0,0,0,1.95.9,2.86,2.86,0,0,0,1.24-.26,2.76,2.76,0,0,0,1-.82l.55.42A3.21,3.21,0,0,1,279.58,137.05Zm-.16-7.47a2.22,2.22,0,0,0-1.67.72,3.41,3.41,0,0,0-.82,1.95h4.75v-.09a2.85,2.85,0,0,0-.65-1.86A2,2,0,0,0,279.42,129.58Z"/><path d="M285.09,129l0,1.35a3.05,3.05,0,0,1,1.12-1.11,2.84,2.84,0,0,1,1.47-.39,2.39,2.39,0,0,1,1.9.72,3.28,3.28,0,0,1,.63,2.15v5.2h-.87v-5.21a2.44,2.44,0,0,0-.46-1.58,1.76,1.76,0,0,0-1.41-.52,2.23,2.23,0,0,0-1.44.51,3,3,0,0,0-.93,1.37v5.43h-.87V129Z"/><path d="M295,135.64l2.32-6.66h.94l-3.38,9.27-.18.41a2.12,2.12,0,0,1-2,1.44,2.43,2.43,0,0,1-.68-.1v-.73l.45,0a1.61,1.61,0,0,0,1-.32,2.35,2.35,0,0,0,.68-1.09l.39-1.07-3-7.86h1Z"/><path d="M305.74,135.69l2.41-6.71h.9l-3,7.92h-.71l-3-7.92h.9Z"/><path d="M313.78,132.87a4.77,4.77,0,0,1,.83-2.94,2.65,2.65,0,0,1,2.23-1.1,2.75,2.75,0,0,1,2.45,1.27v-4.45h.87V136.9h-.82l0-1.05a2.85,2.85,0,0,1-2.48,1.2,2.66,2.66,0,0,1-2.21-1.1,4.81,4.81,0,0,1-.84-3Zm.89.15a4.09,4.09,0,0,0,.61,2.39,2,2,0,0,0,1.71.88,2.36,2.36,0,0,0,2.3-1.43v-3.72a2.34,2.34,0,0,0-2.28-1.55,2,2,0,0,0-1.72.87A4.41,4.41,0,0,0,314.67,133Z"/><path d="M322,132.82a4.61,4.61,0,0,1,.44-2.06,3.33,3.33,0,0,1,3.09-1.93,3.25,3.25,0,0,1,2.56,1.11,4.25,4.25,0,0,1,1,2.94v.18a4.63,4.63,0,0,1-.44,2.07,3.28,3.28,0,0,1-1.25,1.42,3.45,3.45,0,0,1-1.84.5,3.27,3.27,0,0,1-2.56-1.11,4.3,4.3,0,0,1-1-2.94Zm.88.24a3.62,3.62,0,0,0,.73,2.34,2.5,2.5,0,0,0,3.86,0,3.72,3.72,0,0,0,.73-2.41v-.17a3.94,3.94,0,0,0-.34-1.66,2.75,2.75,0,0,0-.94-1.17,2.47,2.47,0,0,0-1.39-.41,2.32,2.32,0,0,0-1.91.92,3.66,3.66,0,0,0-.74,2.4Zm4.68-5.45v.08h-.81l-1.23-1.34-1.22,1.34h-.8v-.1l1.74-1.87h.56Z"/><path d="M335.62,134.89a1.25,1.25,0,0,0-.53-1,4.09,4.09,0,0,0-1.57-.62,7.28,7.28,0,0,1-1.64-.51A2.17,2.17,0,0,1,331,132a1.82,1.82,0,0,1-.28-1,1.88,1.88,0,0,1,.79-1.55,3.14,3.14,0,0,1,2-.61,3.23,3.23,0,0,1,2.13.66,2.1,2.1,0,0,1,.8,1.71h-.88A1.41,1.41,0,0,0,335,130a2.29,2.29,0,0,0-1.47-.46,2.36,2.36,0,0,0-1.39.38,1.21,1.21,0,0,0-.52,1,1.08,1.08,0,0,0,.44.92,4.52,4.52,0,0,0,1.59.6,7,7,0,0,1,1.72.58,2.19,2.19,0,0,1,.86.74,2,2,0,0,1-.53,2.65,3.48,3.48,0,0,1-2.12.6,3.57,3.57,0,0,1-2.24-.67,2,2,0,0,1-.86-1.7h.88a1.52,1.52,0,0,0,.65,1.2,2.59,2.59,0,0,0,1.57.43,2.54,2.54,0,0,0,1.48-.4A1.21,1.21,0,0,0,335.62,134.89Z"/><path d="M339.45,136.9h-.88V125.65h.88Z"/><path d="M344.9,137.05a3.44,3.44,0,0,1-1.83-.5,3.36,3.36,0,0,1-1.27-1.39,4.35,4.35,0,0,1-.46-2v-.32a4.62,4.62,0,0,1,.45-2.06,3.47,3.47,0,0,1,1.23-1.44,3.13,3.13,0,0,1,1.72-.52,2.83,2.83,0,0,1,2.28,1,4,4,0,0,1,.85,2.69V133h-5.65v.17a3.3,3.3,0,0,0,.77,2.24,2.44,2.44,0,0,0,1.94.9,2.83,2.83,0,0,0,1.24-.26,2.68,2.68,0,0,0,1-.82l.55.42A3.2,3.2,0,0,1,344.9,137.05Zm-.16-7.47a2.2,2.2,0,0,0-1.67.72,3.35,3.35,0,0,0-.82,1.95H347v-.09a2.9,2.9,0,0,0-.65-1.86A2,2,0,0,0,344.74,129.58Z"/><path d="M349.22,132.87a4.77,4.77,0,0,1,.83-2.94,2.65,2.65,0,0,1,2.24-1.1,2.73,2.73,0,0,1,2.44,1.27v-4.45h.87V136.9h-.82l0-1.05a2.84,2.84,0,0,1-2.48,1.2,2.66,2.66,0,0,1-2.21-1.1,4.81,4.81,0,0,1-.84-3Zm.89.15a4.09,4.09,0,0,0,.61,2.39,2,2,0,0,0,1.71.88,2.36,2.36,0,0,0,2.3-1.43v-3.72a2.34,2.34,0,0,0-2.28-1.55,2,2,0,0,0-1.72.87A4.41,4.41,0,0,0,350.11,133Z"/><path d="M359.79,132.91l-1,1v3h-.88V125.65h.88v7.2l.83-.89,3-3h1.11l-3.37,3.34,3.66,4.58H363Z"/><path d="M370.36,135.9a2.85,2.85,0,0,1-2.53,1.15,2.46,2.46,0,0,1-1.93-.74,3.23,3.23,0,0,1-.67-2.18V129h.87v5c0,1.51.61,2.27,1.83,2.27a2.25,2.25,0,0,0,2.41-1.58V129h.88v7.92h-.85Z"/><path d="M224.93,151a4.73,4.73,0,0,1-.82,2.94,2.59,2.59,0,0,1-2.19,1.09,3,3,0,0,1-2.5-1.14v4h-.87V147h.82l0,1.12a2.8,2.8,0,0,1,2.48-1.27,2.63,2.63,0,0,1,2.23,1.08,4.85,4.85,0,0,1,.81,3Zm-.88-.15a4,4,0,0,0-.62-2.4,2,2,0,0,0-1.73-.88,2.44,2.44,0,0,0-1.39.39,2.48,2.48,0,0,0-.89,1.13v3.8a2.32,2.32,0,0,0,.91,1,2.58,2.58,0,0,0,1.38.36,2,2,0,0,0,1.72-.88A4.4,4.4,0,0,0,224.05,150.87Z"/><path d="M230.54,147.72a3.83,3.83,0,0,0-.6-.05,2.17,2.17,0,0,0-1.39.46,2.65,2.65,0,0,0-.81,1.33v5.44h-.87V147h.86v1.26a2.34,2.34,0,0,1,2.24-1.41,1.34,1.34,0,0,1,.58.1Z"/><path d="M234.85,155.05a3.49,3.49,0,0,1-1.83-.5,3.36,3.36,0,0,1-1.27-1.39,4.35,4.35,0,0,1-.45-2v-.32a4.75,4.75,0,0,1,.44-2.06,3.62,3.62,0,0,1,1.23-1.44,3.13,3.13,0,0,1,1.72-.52,2.87,2.87,0,0,1,2.29,1,4,4,0,0,1,.84,2.69V151h-5.65v.17a3.35,3.35,0,0,0,.77,2.24,2.47,2.47,0,0,0,1.95.9,2.86,2.86,0,0,0,1.24-.26,2.76,2.76,0,0,0,1-.82l.55.42A3.21,3.21,0,0,1,234.85,155.05Zm-.16-7.47a2.2,2.2,0,0,0-1.67.72,3.41,3.41,0,0,0-.82,1.95H237v-.09a2.85,2.85,0,0,0-.65-1.86A2,2,0,0,0,234.69,147.58Z"/><path d="M245.91,151a4.8,4.8,0,0,1-.82,2.94,2.61,2.61,0,0,1-2.21,1.09,2.85,2.85,0,0,1-2.5-1.23l0,1.08h-.82V143.65h.87v4.48a2.76,2.76,0,0,1,2.48-1.3,2.64,2.64,0,0,1,2.22,1.07,4.81,4.81,0,0,1,.82,3Zm-.88-.15a4.06,4.06,0,0,0-.61-2.42,2,2,0,0,0-1.71-.86,2.39,2.39,0,0,0-1.43.42,2.5,2.5,0,0,0-.89,1.21v3.57a2.35,2.35,0,0,0,2.33,1.5,2,2,0,0,0,1.7-.86A4.4,4.4,0,0,0,245,150.87Z"/><path d="M250.27,153.64l2.32-6.66h.94l-3.38,9.27-.18.41a2.12,2.12,0,0,1-2,1.44,2.37,2.37,0,0,1-.67-.1v-.73l.45,0a1.66,1.66,0,0,0,1.05-.32,2.43,2.43,0,0,0,.67-1.09l.39-1.07-3-7.86h1Z"/><path d="M256.25,145v2h1.64v.71h-1.64V153a1.63,1.63,0,0,0,.24,1,.91.91,0,0,0,.79.33,5.66,5.66,0,0,0,.72-.08l0,.72a2.94,2.94,0,0,1-.94.12,1.57,1.57,0,0,1-1.31-.53,2.46,2.46,0,0,1-.41-1.54v-5.29h-1.45V147h1.45v-2Z"/><path d="M261.59,150.91l-1,1v3h-.88V143.65h.88v7.2l.83-.89,3-3h1.1l-3.36,3.34,3.66,4.58H264.8Z"/><path d="M272.15,153.9a2.83,2.83,0,0,1-2.52,1.15,2.46,2.46,0,0,1-1.93-.74,3.23,3.23,0,0,1-.67-2.18V147h.87v5c0,1.51.61,2.27,1.83,2.27a2.25,2.25,0,0,0,2.41-1.58V147H273v7.92h-.85Z"/><path d="M285.32,151a4.8,4.8,0,0,1-.82,2.94,2.61,2.61,0,0,1-2.2,1.09,2.92,2.92,0,0,1-2.49-1.14v4h-.87V147h.81l0,1.12a2.81,2.81,0,0,1,2.49-1.27,2.64,2.64,0,0,1,2.23,1.08,4.85,4.85,0,0,1,.81,3Zm-.88-.15a4,4,0,0,0-.63-2.4,2,2,0,0,0-1.73-.88,2.3,2.3,0,0,0-2.27,1.52v3.8a2.36,2.36,0,0,0,.9,1,2.58,2.58,0,0,0,1.38.36,2,2,0,0,0,1.73-.88A4.48,4.48,0,0,0,284.44,150.87Z"/><path d="M286.77,150.82a4.62,4.62,0,0,1,.45-2.06,3.33,3.33,0,0,1,1.25-1.42,3.36,3.36,0,0,1,1.83-.51,3.27,3.27,0,0,1,2.57,1.11,4.3,4.3,0,0,1,1,2.94v.18a4.76,4.76,0,0,1-.44,2.07,3.34,3.34,0,0,1-1.25,1.42,3.45,3.45,0,0,1-1.84.5,3.27,3.27,0,0,1-2.56-1.11,4.25,4.25,0,0,1-1-2.94Zm.88.24a3.62,3.62,0,0,0,.74,2.34,2.49,2.49,0,0,0,3.85,0A3.73,3.73,0,0,0,293,151v-.17a4.1,4.1,0,0,0-.34-1.66,2.75,2.75,0,0,0-.94-1.17,2.48,2.48,0,0,0-1.4-.41,2.32,2.32,0,0,0-1.91.92,3.72,3.72,0,0,0-.74,2.4Z"/><path d="M298,153.69l2.4-6.71h.91l-3,7.92h-.71l-3-7.92h.9Z"/><path d="M302.17,150.82a4.75,4.75,0,0,1,.44-2.06,3.46,3.46,0,0,1,1.25-1.42,3.4,3.4,0,0,1,1.84-.51,3.25,3.25,0,0,1,2.56,1.11,4.25,4.25,0,0,1,1,2.94v.18a4.63,4.63,0,0,1-.44,2.07,3.22,3.22,0,0,1-1.25,1.42,3.45,3.45,0,0,1-1.84.5,3.27,3.27,0,0,1-2.56-1.11,4.3,4.3,0,0,1-1-2.94Zm.88.24a3.62,3.62,0,0,0,.73,2.34,2.5,2.5,0,0,0,3.86,0,3.72,3.72,0,0,0,.73-2.41v-.17a4.1,4.1,0,0,0-.33-1.66,2.77,2.77,0,0,0-1-1.17,2.44,2.44,0,0,0-1.39-.41,2.32,2.32,0,0,0-1.91.92,3.66,3.66,0,0,0-.74,2.4Z"/><path d="M312,154.9h-.87V143.65H312Z"/><path d="M317.48,155.05a3.43,3.43,0,0,1-1.82-.5,3.38,3.38,0,0,1-1.28-1.39,4.35,4.35,0,0,1-.45-2v-.32a4.75,4.75,0,0,1,.44-2.06,3.56,3.56,0,0,1,1.24-1.44,3.1,3.1,0,0,1,1.71-.52,2.85,2.85,0,0,1,2.29,1,4,4,0,0,1,.85,2.69V151H314.8v.17a3.3,3.3,0,0,0,.78,2.24,2.44,2.44,0,0,0,1.94.9,2.86,2.86,0,0,0,1.24-.26,2.68,2.68,0,0,0,1-.82l.55.42A3.21,3.21,0,0,1,317.48,155.05Zm-.16-7.47a2.18,2.18,0,0,0-1.66.72,3.36,3.36,0,0,0-.83,1.95h4.75v-.09a2.85,2.85,0,0,0-.65-1.86A2,2,0,0,0,317.32,147.58Z"/><path d="M323,147l0,1.35a3.1,3.1,0,0,1,1.11-1.11,2.86,2.86,0,0,1,1.47-.39,2.39,2.39,0,0,1,1.9.72,3.28,3.28,0,0,1,.63,2.15v5.2h-.87v-5.21a2.5,2.5,0,0,0-.45-1.58,1.8,1.8,0,0,0-1.42-.52,2.23,2.23,0,0,0-1.44.51,3,3,0,0,0-.93,1.37v5.43h-.87V147Z"/><path d="M330.35,144.69a.57.57,0,0,1,.16-.42.6.6,0,0,1,.44-.17.59.59,0,1,1,0,1.17.6.6,0,0,1-.44-.17A.56.56,0,0,1,330.35,144.69Zm1,10.21h-.88V147h.88Z"/><path d="M336.83,155.05a3.49,3.49,0,0,1-1.83-.5,3.42,3.42,0,0,1-1.27-1.39,4.35,4.35,0,0,1-.45-2v-.32a4.75,4.75,0,0,1,.44-2.06,3.56,3.56,0,0,1,1.24-1.44,3.1,3.1,0,0,1,1.71-.52,2.85,2.85,0,0,1,2.29,1,4,4,0,0,1,.85,2.69V151h-5.66v.17a3.35,3.35,0,0,0,.77,2.24,2.47,2.47,0,0,0,1.95.9,2.86,2.86,0,0,0,1.24-.26,2.76,2.76,0,0,0,1-.82l.55.42A3.21,3.21,0,0,1,336.83,155.05Zm-.16-7.47a2.22,2.22,0,0,0-1.67.72,3.41,3.41,0,0,0-.82,1.95h4.75v-.09a2.85,2.85,0,0,0-.65-1.86A2,2,0,0,0,336.67,147.58Z"/><path d="M343.4,150.91l-1,1v3h-.88V143.65h.88v7.2l.83-.89,3-3h1.11L344,150.32l3.65,4.58h-1Z"/><path d="M435.64,404l.07.88a2.77,2.77,0,0,1,2.27-1,2.12,2.12,0,0,1,2.11,1.21,2.7,2.7,0,0,1,2.38-1.21,2.34,2.34,0,0,1,1.91.75,3.44,3.44,0,0,1,.63,2.26V412h-2.12v-5a1.56,1.56,0,0,0-.26-1,1.17,1.17,0,0,0-.93-.31,1.31,1.31,0,0,0-1.32.91V412h-2.12v-5a1.48,1.48,0,0,0-.27-1,1.16,1.16,0,0,0-.92-.31,1.37,1.37,0,0,0-1.31.75V412h-2.12V404Z"/><path d="M451.23,412a2.2,2.2,0,0,1-.21-.71,2.57,2.57,0,0,1-2,.86,2.81,2.81,0,0,1-1.93-.68,2.16,2.16,0,0,1-.76-1.7,2.24,2.24,0,0,1,.93-1.93,4.56,4.56,0,0,1,2.7-.68h1v-.45a1.29,1.29,0,0,0-.28-.88,1.11,1.11,0,0,0-.89-.33,1.26,1.26,0,0,0-.84.25.89.89,0,0,0-.3.71H446.5a2.1,2.1,0,0,1,.43-1.28,2.76,2.76,0,0,1,1.2-.92,4.39,4.39,0,0,1,1.74-.33,3.43,3.43,0,0,1,2.33.74,2.58,2.58,0,0,1,.86,2.06v3.44a3.83,3.83,0,0,0,.31,1.71V412Zm-1.75-1.47a1.86,1.86,0,0,0,.87-.21,1.43,1.43,0,0,0,.58-.56v-1.36h-.79c-1.06,0-1.62.36-1.69,1.1v.12a.83.83,0,0,0,.28.65A1.09,1.09,0,0,0,449.48,410.49Z"/><path d="M459.13,406a5.5,5.5,0,0,0-.76-.06,1.55,1.55,0,0,0-1.57.81V412h-2.12V404h2l.06.94a2,2,0,0,1,1.77-1.09,2.27,2.27,0,0,1,.65.09Z"/><path d="M463.66,412.11a3.91,3.91,0,0,1-2.84-1.07,3.82,3.82,0,0,1-1.09-2.85V408a4.76,4.76,0,0,1,.46-2.13,3.36,3.36,0,0,1,1.31-1.45,3.66,3.66,0,0,1,1.93-.51,3.3,3.3,0,0,1,2.56,1,4.2,4.2,0,0,1,.93,2.91v.87h-5a1.94,1.94,0,0,0,.61,1.24,1.9,1.9,0,0,0,1.31.47,2.28,2.28,0,0,0,1.91-.89l1,1.17a3.06,3.06,0,0,1-1.29,1.05A4.24,4.24,0,0,1,463.66,412.11Zm-.24-6.52a1.33,1.33,0,0,0-1,.43,2.21,2.21,0,0,0-.5,1.22h2.94v-.17a1.55,1.55,0,0,0-.38-1.09A1.35,1.35,0,0,0,463.42,405.59Z"/><path d="M471.42,410.4a1.4,1.4,0,0,0,.95-.32,1.15,1.15,0,0,0,.38-.86h2a2.85,2.85,0,0,1-.44,1.48,3,3,0,0,1-1.19,1,3.77,3.77,0,0,1-1.65.37,3.46,3.46,0,0,1-2.69-1.08,4.31,4.31,0,0,1-1-3v-.14a4.23,4.23,0,0,1,1-2.92,3.39,3.39,0,0,1,2.67-1.09,3.33,3.33,0,0,1,2.38.84,3,3,0,0,1,.92,2.26h-2a1.48,1.48,0,0,0-.38-1,1.4,1.4,0,0,0-2.08.16,3.09,3.09,0,0,0-.38,1.74v.22a3.13,3.13,0,0,0,.37,1.76A1.29,1.29,0,0,0,471.42,410.4Z"/><path d="M486.9,412h-7.31v-1.45l3.45-3.68a8.21,8.21,0,0,0,1-1.35,2.15,2.15,0,0,0,.34-1.1,1.64,1.64,0,0,0-.36-1.12,1.29,1.29,0,0,0-1-.4,1.38,1.38,0,0,0-1.13.49,1.93,1.93,0,0,0-.42,1.3h-2.12a3.5,3.5,0,0,1,.46-1.78,3.21,3.21,0,0,1,1.32-1.26,3.92,3.92,0,0,1,1.92-.46,3.75,3.75,0,0,1,2.56.79,2.8,2.8,0,0,1,.92,2.24,3.66,3.66,0,0,1-.41,1.61,9.64,9.64,0,0,1-1.41,1.91l-2.42,2.55h4.58Z"/><path d="M495.38,407.55a5.38,5.38,0,0,1-.92,3.38,3.17,3.17,0,0,1-2.68,1.18,3.25,3.25,0,0,1-2.67-1.15,5.27,5.27,0,0,1-.94-3.3v-2a5.31,5.31,0,0,1,.93-3.39,3.65,3.65,0,0,1,5.33,0,5.22,5.22,0,0,1,.95,3.29Zm-2.12-2.16a3.92,3.92,0,0,0-.36-1.93,1.36,1.36,0,0,0-2.24,0,3.73,3.73,0,0,0-.37,1.8v2.6a4.09,4.09,0,0,0,.35,1.94,1.22,1.22,0,0,0,1.14.63,1.18,1.18,0,0,0,1.12-.61,4,4,0,0,0,.36-1.86Z"/><path d="M504.11,412H496.8v-1.45l3.45-3.68a7.7,7.7,0,0,0,1.05-1.35,2.17,2.17,0,0,0,.35-1.1,1.64,1.64,0,0,0-.36-1.12,1.3,1.3,0,0,0-1-.4,1.39,1.39,0,0,0-1.13.49,1.93,1.93,0,0,0-.41,1.3h-2.13a3.51,3.51,0,0,1,.47-1.78,3.18,3.18,0,0,1,1.31-1.26,4,4,0,0,1,1.93-.46,3.77,3.77,0,0,1,2.56.79,2.8,2.8,0,0,1,.91,2.24,3.66,3.66,0,0,1-.41,1.61A8.89,8.89,0,0,1,502,407.7l-2.42,2.55h4.58Z"/><path d="M512.59,407.55a5.38,5.38,0,0,1-.92,3.38,3.17,3.17,0,0,1-2.68,1.18,3.22,3.22,0,0,1-2.66-1.15,5.27,5.27,0,0,1-.95-3.3v-2a5.31,5.31,0,0,1,.93-3.39,3.65,3.65,0,0,1,5.33,0,5.22,5.22,0,0,1,1,3.29Zm-2.12-2.16a3.92,3.92,0,0,0-.36-1.93,1.36,1.36,0,0,0-2.24,0,3.73,3.73,0,0,0-.37,1.8v2.6a4.22,4.22,0,0,0,.35,1.94,1.22,1.22,0,0,0,1.14.63,1.18,1.18,0,0,0,1.12-.61,4,4,0,0,0,.36-1.86Z"/><path d="M267.61,425.62V430h-.9V419.3h3.63a3.79,3.79,0,0,1,2.62.85,3.32,3.32,0,0,1,0,4.65,4,4,0,0,1-2.68.82Zm0-.77h2.73a2.87,2.87,0,0,0,2-.62,2.21,2.21,0,0,0,.69-1.74,2.33,2.33,0,0,0-.69-1.76,2.71,2.71,0,0,0-1.94-.67h-2.79Z"/><path d="M279.4,422.78a3.7,3.7,0,0,0-.59,0,2.12,2.12,0,0,0-1.39.46,2.48,2.48,0,0,0-.81,1.33V430h-.87V422h.85l0,1.26a2.33,2.33,0,0,1,2.23-1.41,1.5,1.5,0,0,1,.58.09Z"/><path d="M285.88,429a2.87,2.87,0,0,1-2.53,1.15,2.45,2.45,0,0,1-1.92-.74,3.23,3.23,0,0,1-.68-2.18V422h.88v5c0,1.51.61,2.26,1.83,2.26a2.24,2.24,0,0,0,2.41-1.57V422h.88V430h-.85Z"/><path d="M288.67,425.93a4.78,4.78,0,0,1,.83-2.95,2.64,2.64,0,0,1,2.23-1.09,2.75,2.75,0,0,1,2.45,1.27v-4.45h.87V430h-.82l0-1a2.85,2.85,0,0,1-2.48,1.2,2.64,2.64,0,0,1-2.21-1.11,4.76,4.76,0,0,1-.84-3Zm.89.15a4.09,4.09,0,0,0,.61,2.39,2,2,0,0,0,1.71.87,2.35,2.35,0,0,0,2.3-1.42V424.2a2.34,2.34,0,0,0-2.28-1.55,2,2,0,0,0-1.73.87A4.42,4.42,0,0,0,289.56,426.08Z"/><path d="M299.24,426l-1,1v3h-.88V418.71h.88v7.2l.83-.89,3-3h1.1l-3.36,3.34L303.5,430h-1.05Z"/><path d="M307.22,428.7l2.31-6.66h1l-3.39,9.27-.17.41a2.14,2.14,0,0,1-2,1.44,2.37,2.37,0,0,1-.67-.1v-.73l.46.05a1.63,1.63,0,0,0,1-.32,2.42,2.42,0,0,0,.68-1.1l.39-1.07-3-7.85h1Zm1-10h1.06l-1.69,2.05h-.77Z"/><path d="M321.85,426.08A4.77,4.77,0,0,1,321,429a2.62,2.62,0,0,1-2.2,1.09,2.93,2.93,0,0,1-2.49-1.15V433h-.87V422h.82l0,1.12a2.8,2.8,0,0,1,2.48-1.27A2.63,2.63,0,0,1,321,423a4.84,4.84,0,0,1,.81,3Zm-.88-.15a4,4,0,0,0-.62-2.4,2,2,0,0,0-1.73-.88,2.33,2.33,0,0,0-2.28,1.52V428a2.32,2.32,0,0,0,.91,1,2.58,2.58,0,0,0,1.38.36,2,2,0,0,0,1.72-.89A4.35,4.35,0,0,0,321,425.93Z"/><path d="M323.31,425.88a4.75,4.75,0,0,1,.44-2.06A3.42,3.42,0,0,1,325,422.4a3.36,3.36,0,0,1,1.83-.51A3.24,3.24,0,0,1,329.4,423a4.25,4.25,0,0,1,1,2.94v.18a4.63,4.63,0,0,1-.45,2.07,3.27,3.27,0,0,1-1.25,1.42,3.42,3.42,0,0,1-1.83.5A3.25,3.25,0,0,1,324.3,429a4.25,4.25,0,0,1-1-2.94Zm.88.24a3.57,3.57,0,0,0,.74,2.34,2.49,2.49,0,0,0,3.85,0,3.72,3.72,0,0,0,.73-2.41v-.17a4.1,4.1,0,0,0-.33-1.66,2.77,2.77,0,0,0-.95-1.17,2.37,2.37,0,0,0-1.39-.41,2.34,2.34,0,0,0-1.91.91,3.77,3.77,0,0,0-.74,2.41Z"/><path d="M334.08,426l-1,1v3h-.88V418.71h.88v7.2l.83-.89,3-3H338l-3.36,3.34,3.65,4.58h-1.05Z"/><path d="M340.52,430h-.88V418.71h.88Z"/><path d="M346,430.11a3.49,3.49,0,0,1-1.83-.5,3.42,3.42,0,0,1-1.27-1.39,4.36,4.36,0,0,1-.45-2v-.31a4.75,4.75,0,0,1,.44-2.06,3.62,3.62,0,0,1,1.23-1.44,3,3,0,0,1,1.72-.52,2.89,2.89,0,0,1,2.29,1,4,4,0,0,1,.84,2.7v.49h-5.65v.16a3.36,3.36,0,0,0,.77,2.25,2.47,2.47,0,0,0,1.95.9,2.86,2.86,0,0,0,1.24-.26,2.76,2.76,0,0,0,1-.82l.55.42A3.21,3.21,0,0,1,346,430.11Zm-.16-7.47a2.2,2.2,0,0,0-1.67.72,3.36,3.36,0,0,0-.82,1.95h4.75v-.1a2.89,2.89,0,0,0-.65-1.86A2,2,0,0,0,345.81,422.64Z"/><path d="M355.4,428a1.25,1.25,0,0,0-.53-1.05,4.08,4.08,0,0,0-1.58-.62,7.35,7.35,0,0,1-1.63-.51,2.26,2.26,0,0,1-.87-.71,1.84,1.84,0,0,1-.28-1,1.9,1.9,0,0,1,.78-1.55,3.19,3.19,0,0,1,2-.61,3.3,3.3,0,0,1,2.13.65,2.13,2.13,0,0,1,.8,1.72h-.88a1.41,1.41,0,0,0-.58-1.16,2.65,2.65,0,0,0-2.86-.08,1.19,1.19,0,0,0-.52,1,1.08,1.08,0,0,0,.44.92,4.52,4.52,0,0,0,1.59.6,7.76,7.76,0,0,1,1.72.57,2.36,2.36,0,0,1,.86.74,2,2,0,0,1,.28,1,1.91,1.91,0,0,1-.81,1.61,3.48,3.48,0,0,1-2.12.6,3.57,3.57,0,0,1-2.24-.67,2,2,0,0,1-.86-1.7h.88a1.54,1.54,0,0,0,.64,1.2,2.71,2.71,0,0,0,1.58.43,2.47,2.47,0,0,0,1.48-.41A1.18,1.18,0,0,0,355.4,428Z"/><path d="M365,430.11a3.4,3.4,0,0,1-3.1-1.89,4.36,4.36,0,0,1-.45-2v-.31a4.75,4.75,0,0,1,.44-2.06,3.56,3.56,0,0,1,1.24-1.44,3,3,0,0,1,1.71-.52,2.88,2.88,0,0,1,2.29,1,4,4,0,0,1,.85,2.7v.49h-5.66v.16a3.36,3.36,0,0,0,.77,2.25,2.47,2.47,0,0,0,1.95.9,2.86,2.86,0,0,0,1.24-.26,2.76,2.76,0,0,0,1-.82l.55.42A3.21,3.21,0,0,1,365,430.11Zm-.16-7.47a2.22,2.22,0,0,0-1.67.72,3.36,3.36,0,0,0-.82,1.95h4.75v-.1a2.89,2.89,0,0,0-.65-1.86A2,2,0,0,0,364.8,422.64Z"/><path d="M371.52,426l-1,1v3h-.88V418.71h.88v7.2l.83-.89,3-3h1.11l-3.37,3.34,3.66,4.58h-1Z"/><path d="M376.5,425.88a4.62,4.62,0,0,1,.45-2.06,3.33,3.33,0,0,1,1.25-1.42,3.36,3.36,0,0,1,1.83-.51A3.27,3.27,0,0,1,382.6,423a4.3,4.3,0,0,1,1,2.94v.18a4.76,4.76,0,0,1-.44,2.07,3.4,3.4,0,0,1-1.25,1.42,3.45,3.45,0,0,1-1.84.5,3.27,3.27,0,0,1-2.56-1.11,4.25,4.25,0,0,1-1-2.94Zm.88.24a3.62,3.62,0,0,0,.74,2.34,2.49,2.49,0,0,0,3.85,0,3.73,3.73,0,0,0,.74-2.41v-.17a4.1,4.1,0,0,0-.34-1.66,2.75,2.75,0,0,0-.94-1.17,2.4,2.4,0,0,0-1.4-.41,2.35,2.35,0,0,0-1.91.91,3.77,3.77,0,0,0-.74,2.41Z"/><path d="M386.22,422l0,1.35a3.16,3.16,0,0,1,1.12-1.12,2.93,2.93,0,0,1,1.47-.38,2.35,2.35,0,0,1,1.89.72,3.17,3.17,0,0,1,.63,2.15V430h-.87v-5.21a2.38,2.38,0,0,0-.45-1.58,1.75,1.75,0,0,0-1.42-.52,2.18,2.18,0,0,0-1.43.51,3,3,0,0,0-.93,1.37V430h-.87V422Z"/><path d="M393.14,425.88a4.62,4.62,0,0,1,.45-2.06,3.33,3.33,0,0,1,1.25-1.42,3.36,3.36,0,0,1,1.83-.51,3.27,3.27,0,0,1,2.57,1.11,4.3,4.3,0,0,1,1,2.94v.18a4.76,4.76,0,0,1-.44,2.07,3.4,3.4,0,0,1-1.25,1.42,3.45,3.45,0,0,1-1.84.5,3.27,3.27,0,0,1-2.56-1.11,4.25,4.25,0,0,1-1-2.94Zm.88.24a3.62,3.62,0,0,0,.74,2.34,2.49,2.49,0,0,0,3.85,0,3.73,3.73,0,0,0,.74-2.41v-.17a3.94,3.94,0,0,0-.34-1.66,2.75,2.75,0,0,0-.94-1.17,2.4,2.4,0,0,0-1.4-.41,2.35,2.35,0,0,0-1.91.91A3.77,3.77,0,0,0,394,426Z"/><path d="M402.83,422l0,1.28a2.94,2.94,0,0,1,1.09-1.07,3,3,0,0,1,1.47-.36,2.22,2.22,0,0,1,2.38,1.54,2.88,2.88,0,0,1,1.13-1.14,3.14,3.14,0,0,1,1.57-.4c1.7,0,2.57.93,2.6,2.78V430h-.88v-5.22a2.36,2.36,0,0,0-.45-1.58,1.87,1.87,0,0,0-1.47-.51,2.32,2.32,0,0,0-1.6.61,2.14,2.14,0,0,0-.72,1.46V430h-.88v-5.29a2.23,2.23,0,0,0-.48-1.52,1.94,1.94,0,0,0-1.46-.5,2.25,2.25,0,0,0-1.42.47,2.85,2.85,0,0,0-.88,1.41V430H402V422Z"/><path d="M415.27,419.75a.57.57,0,0,1,.16-.42.65.65,0,0,1,.88,0,.57.57,0,0,1,.17.42.57.57,0,0,1-.17.41.65.65,0,0,1-.88,0A.56.56,0,0,1,415.27,419.75Zm1,10.21h-.88V422h.88Z"/><path d="M421.61,429.37a2.37,2.37,0,0,0,1.54-.52,1.84,1.84,0,0,0,.67-1.34h.84a2.61,2.61,0,0,1-.45,1.33,2.89,2.89,0,0,1-1.11.93,3.46,3.46,0,0,1-1.49.34,3,3,0,0,1-2.47-1.09,4.35,4.35,0,0,1-.91-2.91v-.27a5,5,0,0,1,.41-2.07,3.14,3.14,0,0,1,1.17-1.39,3.23,3.23,0,0,1,1.79-.49,3,3,0,0,1,2.15.78,2.79,2.79,0,0,1,.91,2h-.84a2.29,2.29,0,0,0-4.06-1.22,4,4,0,0,0-.65,2.41v.25a3.86,3.86,0,0,0,.65,2.37A2.23,2.23,0,0,0,421.61,429.37Z"/><path d="M428.29,426l-1,1v3h-.88V418.71h.88v7.2l.83-.89,3-3h1.1l-3.36,3.34,3.66,4.58H431.5Z"/><path d="M436.68,430.11a3.4,3.4,0,0,1-3.1-1.89,4.36,4.36,0,0,1-.46-2v-.31a4.62,4.62,0,0,1,.45-2.06,3.47,3.47,0,0,1,1.23-1.44,3,3,0,0,1,1.72-.52,2.86,2.86,0,0,1,2.28,1,4,4,0,0,1,.85,2.7v.49H434v.16a3.31,3.31,0,0,0,.77,2.25,2.44,2.44,0,0,0,1.94.9,2.91,2.91,0,0,0,1.25-.26,2.73,2.73,0,0,0,1-.82l.55.42A3.2,3.2,0,0,1,436.68,430.11Zm-.16-7.47a2.2,2.2,0,0,0-1.67.72,3.29,3.29,0,0,0-.82,1.95h4.75v-.1a3,3,0,0,0-.65-1.86A2,2,0,0,0,436.52,422.64Z"/><path d="M442.3,422v8.87a2.39,2.39,0,0,1-.52,1.67,2,2,0,0,1-1.56.58,2.28,2.28,0,0,1-.77-.14l0-.72a2.07,2.07,0,0,0,.66.1c.87,0,1.3-.5,1.3-1.5V422Zm-.43-2.88a.57.57,0,0,1,.45.17.61.61,0,0,1,.16.42.6.6,0,0,1-.16.41.61.61,0,0,1-.45.17.55.55,0,0,1-.59-.58.6.6,0,0,1,.15-.42A.55.55,0,0,1,441.87,419.16Z"/><path d="M453.43,430a3.91,3.91,0,0,1-.17-1.11,3,3,0,0,1-1.18.93,3.54,3.54,0,0,1-1.51.33,2.68,2.68,0,0,1-1.85-.64,2.08,2.08,0,0,1-.7-1.61,2.12,2.12,0,0,1,1-1.83,4.62,4.62,0,0,1,2.68-.68h1.59v-.9a1.72,1.72,0,0,0-.52-1.33,2.15,2.15,0,0,0-1.53-.49,2.39,2.39,0,0,0-1.51.47,1.4,1.4,0,0,0-.61,1.13h-.87a2,2,0,0,1,.87-1.64,3.42,3.42,0,0,1,2.17-.69,3.1,3.1,0,0,1,2.09.66,2.36,2.36,0,0,1,.78,1.85v3.75a4.62,4.62,0,0,0,.25,1.72V430Zm-2.76-.63a3,3,0,0,0,1.58-.42,2.56,2.56,0,0,0,1-1.14V426h-1.56a4,4,0,0,0-2.06.48,1.44,1.44,0,0,0-.74,1.27,1.42,1.42,0,0,0,.5,1.11A1.88,1.88,0,0,0,450.67,429.33Z"/><path d="M458.34,426l-1,1v3h-.88V418.71h.88v7.2l.83-.89,3-3h1.1l-3.36,3.34L462.6,430h-1.05Z"/><path d="M465.17,420v2h1.64v.71h-1.64V428a1.63,1.63,0,0,0,.24,1,.89.89,0,0,0,.79.32,5.09,5.09,0,0,0,.71-.07l0,.71a2.65,2.65,0,0,1-.94.13,1.56,1.56,0,0,1-1.31-.53,2.48,2.48,0,0,1-.41-1.54v-5.29h-1.46V422h1.46v-2Z"/><path d="M468.57,419.75a.61.61,0,0,1,.16-.42.57.57,0,0,1,.44-.17.57.57,0,0,1,.45.17.57.57,0,0,1,.16.42.56.56,0,0,1-.16.41.61.61,0,0,1-.45.17.57.57,0,0,1-.6-.58Zm1,10.21h-.88V422h.88Z"/><path d="M474.46,428.75l2.41-6.71h.9l-3,7.92h-.71l-3-7.92h.9Z"/><path d="M479.15,419.75a.57.57,0,0,1,.6-.59.55.55,0,0,1,.44.17.57.57,0,0,1,.17.42.57.57,0,0,1-.17.41.59.59,0,0,1-.44.17.6.6,0,0,1-.44-.17A.56.56,0,0,1,479.15,419.75Zm1,10.21h-.88V422h.88Z"/><path d="M483.93,420v2h1.64v.71h-1.64V428a1.63,1.63,0,0,0,.23,1,.92.92,0,0,0,.8.32,5.23,5.23,0,0,0,.71-.07l0,.71a2.69,2.69,0,0,1-.94.13,1.56,1.56,0,0,1-1.31-.53,2.42,2.42,0,0,1-.41-1.54v-5.29h-1.46V422h1.46v-2Z"/><path d="M489.89,428.7l2.32-6.66h.94l-3.38,9.27-.18.41a2.12,2.12,0,0,1-2,1.44,2.37,2.37,0,0,1-.67-.1v-.73l.45.05a1.66,1.66,0,0,0,1-.32,2.41,2.41,0,0,0,.67-1.1l.39-1.07-3-7.85h1Z"/><path d="M499,422l0,1.35a3.22,3.22,0,0,1,1.11-1.12,3,3,0,0,1,1.48-.38,2.35,2.35,0,0,1,1.89.72,3.17,3.17,0,0,1,.63,2.15V430h-.87v-5.21a2.38,2.38,0,0,0-.45-1.58,1.75,1.75,0,0,0-1.42-.52,2.23,2.23,0,0,0-1.44.51,3.05,3.05,0,0,0-.92,1.37V430h-.87V422Z"/><path d="M511.4,430a3.91,3.91,0,0,1-.17-1.11,3,3,0,0,1-1.18.93,3.54,3.54,0,0,1-1.51.33,2.68,2.68,0,0,1-1.85-.64,2.08,2.08,0,0,1-.7-1.61,2.12,2.12,0,0,1,1-1.83,4.62,4.62,0,0,1,2.68-.68h1.59v-.9a1.72,1.72,0,0,0-.52-1.33,2.15,2.15,0,0,0-1.53-.49,2.39,2.39,0,0,0-1.51.47,1.38,1.38,0,0,0-.61,1.13h-.87a2,2,0,0,1,.87-1.64,3.42,3.42,0,0,1,2.17-.69,3.1,3.1,0,0,1,2.09.66,2.36,2.36,0,0,1,.78,1.85v3.75a4.66,4.66,0,0,0,.24,1.72V430Zm-2.76-.63a3,3,0,0,0,1.57-.42,2.52,2.52,0,0,0,1-1.14V426h-1.56a4,4,0,0,0-2.06.48,1.44,1.44,0,0,0-.74,1.27,1.42,1.42,0,0,0,.5,1.11A1.88,1.88,0,0,0,508.64,429.33Z"/><path d="M284.56,447.22h5.15V448h-6.24v-.64l4.81-6.52h-4.66V440h5.76v.65Z"/><path d="M296.27,448a4.39,4.39,0,0,1-.16-1.11,3,3,0,0,1-1.18.93,3.54,3.54,0,0,1-1.51.33,2.68,2.68,0,0,1-1.85-.64,2.09,2.09,0,0,1-.71-1.61,2.11,2.11,0,0,1,1-1.83,4.6,4.6,0,0,1,2.68-.68h1.59v-.9a1.75,1.75,0,0,0-.52-1.33,2.15,2.15,0,0,0-1.53-.49,2.42,2.42,0,0,0-1.52.47,1.39,1.39,0,0,0-.6,1.13h-.88a2.06,2.06,0,0,1,.88-1.64,3.41,3.41,0,0,1,2.16-.69,3.08,3.08,0,0,1,2.09.66,2.37,2.37,0,0,1,.79,1.85v3.75a4.66,4.66,0,0,0,.24,1.72V448Zm-2.75-.63a3,3,0,0,0,1.57-.42,2.58,2.58,0,0,0,1-1.14V444h-1.57a3.93,3.93,0,0,0-2,.48,1.44,1.44,0,0,0-.74,1.27,1.42,1.42,0,0,0,.5,1.11A1.86,1.86,0,0,0,293.52,447.33Z"/><path d="M302.24,447.37a2.32,2.32,0,0,0,1.53-.52,1.81,1.81,0,0,0,.67-1.34h.84a2.44,2.44,0,0,1-.45,1.33,2.89,2.89,0,0,1-1.11.93,3.42,3.42,0,0,1-1.48.34,3,3,0,0,1-2.47-1.09,4.36,4.36,0,0,1-.92-2.91v-.27a5,5,0,0,1,.41-2.07,3.11,3.11,0,0,1,3-1.88,3,3,0,0,1,2.15.78,2.78,2.78,0,0,1,.9,2h-.84a2.14,2.14,0,0,0-.67-1.5,2.39,2.39,0,0,0-3.38.28,3.88,3.88,0,0,0-.66,2.41v.25a3.79,3.79,0,0,0,.66,2.37A2.22,2.22,0,0,0,302.24,447.37Zm-.13-9.14,1.26-1.42h.78v.09l-1.73,1.91h-.63l-1.73-1.92v-.08h.79Z"/><path d="M307,437.75a.61.61,0,0,1,.16-.42.57.57,0,0,1,.44-.17.57.57,0,0,1,.45.17.57.57,0,0,1,.16.42.56.56,0,0,1-.16.41.61.61,0,0,1-.45.17.57.57,0,0,1-.6-.58ZM308,448h-.88V440H308Z"/><path d="M315.4,448a3.91,3.91,0,0,1-.17-1.11,3,3,0,0,1-1.18.93,3.54,3.54,0,0,1-1.51.33,2.68,2.68,0,0,1-1.85-.64,2.08,2.08,0,0,1-.7-1.61,2.12,2.12,0,0,1,1-1.83,4.62,4.62,0,0,1,2.68-.68h1.59v-.9a1.72,1.72,0,0,0-.52-1.33,2.15,2.15,0,0,0-1.53-.49,2.39,2.39,0,0,0-1.51.47,1.38,1.38,0,0,0-.61,1.13h-.87a2,2,0,0,1,.87-1.64,3.42,3.42,0,0,1,2.17-.69,3.1,3.1,0,0,1,2.09.66,2.36,2.36,0,0,1,.78,1.85v3.75a4.66,4.66,0,0,0,.24,1.72V448Zm-2.76-.63a3,3,0,0,0,1.57-.42,2.52,2.52,0,0,0,1-1.14V444h-1.56a4,4,0,0,0-2.06.48,1.44,1.44,0,0,0-.74,1.27,1.42,1.42,0,0,0,.5,1.11A1.88,1.88,0,0,0,312.64,447.33Z"/><path d="M319.79,438v2h1.64v.71h-1.64V446a1.63,1.63,0,0,0,.24,1,.91.91,0,0,0,.8.32,5.23,5.23,0,0,0,.71-.07l0,.71a2.63,2.63,0,0,1-.93.13,1.58,1.58,0,0,1-1.32-.53,2.48,2.48,0,0,1-.41-1.54v-5.29h-1.45V440h1.45v-2Z"/><path d="M325.13,444l-1,1v3h-.88V436.71h.88v7.2L325,443l3-3h1.1l-3.36,3.34,3.66,4.58h-1.05Z"/><path d="M335.69,447a2.84,2.84,0,0,1-2.52,1.15,2.46,2.46,0,0,1-1.93-.74,3.23,3.23,0,0,1-.67-2.18V440h.87v5c0,1.51.61,2.26,1.83,2.26a2.24,2.24,0,0,0,2.41-1.57V440h.88V448h-.85Z"/><path d="M344.37,444l-1,1v3h-.88V436.71h.88v7.2l.83-.89,3-3h1.11L345,443.38l3.65,4.58h-1.05Z"/><path d="M349.35,443.88a4.75,4.75,0,0,1,.44-2.06,3.33,3.33,0,0,1,3.09-1.93,3.25,3.25,0,0,1,2.56,1.11,4.25,4.25,0,0,1,1,2.94v.18a4.63,4.63,0,0,1-.44,2.07,3.33,3.33,0,0,1-1.25,1.42,3.45,3.45,0,0,1-1.84.5,3.27,3.27,0,0,1-2.56-1.11,4.3,4.3,0,0,1-1-2.94Zm.88.24a3.62,3.62,0,0,0,.73,2.34,2.5,2.5,0,0,0,3.86,0,3.72,3.72,0,0,0,.73-2.41v-.17a3.94,3.94,0,0,0-.34-1.66,2.75,2.75,0,0,0-.94-1.17,2.39,2.39,0,0,0-1.39-.41,2.34,2.34,0,0,0-1.91.91,3.71,3.71,0,0,0-.74,2.41Z"/><path d="M361.89,440.78a3.61,3.61,0,0,0-.59,0,2.12,2.12,0,0,0-1.39.46,2.48,2.48,0,0,0-.81,1.33V448h-.87V440h.86v1.26a2.34,2.34,0,0,1,2.24-1.41,1.57,1.57,0,0,1,.58.09Z"/><path d="M362.65,443.88a4.75,4.75,0,0,1,.44-2.06,3.33,3.33,0,0,1,3.09-1.93,3.25,3.25,0,0,1,2.56,1.11,4.25,4.25,0,0,1,1,2.94v.18a4.63,4.63,0,0,1-.44,2.07,3.27,3.27,0,0,1-1.25,1.42,3.45,3.45,0,0,1-1.84.5,3.27,3.27,0,0,1-2.56-1.11,4.3,4.3,0,0,1-1-2.94Zm.88.24a3.62,3.62,0,0,0,.73,2.34,2.5,2.5,0,0,0,3.86,0,3.72,3.72,0,0,0,.73-2.41v-.17a3.94,3.94,0,0,0-.34-1.66,2.68,2.68,0,0,0-.94-1.17,2.37,2.37,0,0,0-1.39-.41,2.34,2.34,0,0,0-1.91.91,3.71,3.71,0,0,0-.74,2.41Z"/><path d="M372.37,440l0,1.35a3.14,3.14,0,0,1,1.11-1.12,2.93,2.93,0,0,1,1.47-.38,2.39,2.39,0,0,1,1.9.72,3.28,3.28,0,0,1,.63,2.15V448h-.87v-5.21a2.5,2.5,0,0,0-.45-1.58,1.77,1.77,0,0,0-1.42-.52,2.23,2.23,0,0,0-1.44.51,3,3,0,0,0-.93,1.37V448h-.87V440Z"/><path d="M384.77,448a4.39,4.39,0,0,1-.16-1.11,3,3,0,0,1-1.18.93,3.54,3.54,0,0,1-1.51.33,2.68,2.68,0,0,1-1.85-.64,2.09,2.09,0,0,1-.71-1.61,2.11,2.11,0,0,1,1-1.83,4.6,4.6,0,0,1,2.68-.68h1.59v-.9a1.75,1.75,0,0,0-.52-1.33,2.15,2.15,0,0,0-1.53-.49,2.42,2.42,0,0,0-1.52.47,1.39,1.39,0,0,0-.6,1.13h-.88a2.06,2.06,0,0,1,.88-1.64,3.41,3.41,0,0,1,2.16-.69,3.08,3.08,0,0,1,2.09.66,2.37,2.37,0,0,1,.79,1.85v3.75a4.66,4.66,0,0,0,.24,1.72V448Zm-2.75-.63a3,3,0,0,0,1.57-.42,2.58,2.58,0,0,0,1-1.14V444H383a3.93,3.93,0,0,0-2,.48,1.44,1.44,0,0,0-.74,1.27,1.42,1.42,0,0,0,.5,1.11A1.86,1.86,0,0,0,382,447.33Z"/><path d="M390.17,446.75l2.41-6.71h.9l-3,7.92h-.71l-3-7.92h.91Z"/><path d="M396.33,436.8h1.07l-1.7,2.05h-.77ZM395.88,448H395V440h.88Z"/><path d="M401.92,440.78a3.83,3.83,0,0,0-.6,0,2.12,2.12,0,0,0-1.39.46,2.6,2.6,0,0,0-.81,1.33V448h-.87V440h.86v1.26a2.34,2.34,0,0,1,2.24-1.41,1.57,1.57,0,0,1,.58.09Z"/><path d="M408.4,447a2.87,2.87,0,0,1-2.53,1.15,2.47,2.47,0,0,1-1.93-.74,3.23,3.23,0,0,1-.67-2.18V440h.87v5c0,1.51.61,2.26,1.83,2.26a2.24,2.24,0,0,0,2.41-1.57V440h.88V448h-.85Z"/><path d="M416.29,446a1.25,1.25,0,0,0-.53-1.05,4.08,4.08,0,0,0-1.58-.62,7.35,7.35,0,0,1-1.63-.51,2.26,2.26,0,0,1-.87-.71,1.84,1.84,0,0,1-.28-1,1.9,1.9,0,0,1,.78-1.55,3.19,3.19,0,0,1,2-.61,3.3,3.3,0,0,1,2.13.65,2.13,2.13,0,0,1,.8,1.72h-.88a1.41,1.41,0,0,0-.58-1.16,2.65,2.65,0,0,0-2.86-.08,1.19,1.19,0,0,0-.52,1,1.06,1.06,0,0,0,.44.92,4.54,4.54,0,0,0,1.58.6,7.69,7.69,0,0,1,1.73.57,2.36,2.36,0,0,1,.86.74,2,2,0,0,1,.28,1,1.91,1.91,0,0,1-.81,1.61,3.48,3.48,0,0,1-2.12.6,3.57,3.57,0,0,1-2.24-.67,2,2,0,0,1-.86-1.7H412a1.54,1.54,0,0,0,.64,1.2,2.71,2.71,0,0,0,1.58.43,2.47,2.47,0,0,0,1.48-.41A1.18,1.18,0,0,0,416.29,446Z"/><path d="M418.65,443.88a4.62,4.62,0,0,1,.45-2.06,3.33,3.33,0,0,1,1.25-1.42,3.36,3.36,0,0,1,1.83-.51,3.27,3.27,0,0,1,2.57,1.11,4.3,4.3,0,0,1,1,2.94v.18a4.63,4.63,0,0,1-.45,2.07,3.31,3.31,0,0,1-1.24,1.42,3.45,3.45,0,0,1-1.84.5,3.25,3.25,0,0,1-2.56-1.11,4.25,4.25,0,0,1-1-2.94Zm.88.24a3.62,3.62,0,0,0,.74,2.34,2.49,2.49,0,0,0,3.85,0,3.73,3.73,0,0,0,.74-2.41v-.17a4.1,4.1,0,0,0-.34-1.66,2.77,2.77,0,0,0-.95-1.17,2.5,2.5,0,0,0-3.3.5,3.77,3.77,0,0,0-.74,2.41Z"/><path d="M429.89,446.75,432.3,440h.91l-3,7.92h-.71l-3-7.92h.9Z"/><path d="M437.61,448.11a3.43,3.43,0,0,1-1.82-.5,3.35,3.35,0,0,1-1.27-1.39,4.24,4.24,0,0,1-.46-2v-.31a4.62,4.62,0,0,1,.45-2.06,3.47,3.47,0,0,1,1.23-1.44,3,3,0,0,1,1.71-.52,2.86,2.86,0,0,1,2.29,1,4,4,0,0,1,.85,2.7v.49h-5.66v.16a3.31,3.31,0,0,0,.78,2.25,2.44,2.44,0,0,0,1.94.9,2.86,2.86,0,0,0,1.24-.26,2.68,2.68,0,0,0,1-.82l.55.42A3.2,3.2,0,0,1,437.61,448.11Zm-.16-7.47a2.18,2.18,0,0,0-1.66.72,3.36,3.36,0,0,0-.83,1.95h4.76v-.1a3,3,0,0,0-.65-1.86A2,2,0,0,0,437.45,440.64Z"/><path d="M443.24,440v8.87a2.39,2.39,0,0,1-.53,1.67,2,2,0,0,1-1.55.58,2.28,2.28,0,0,1-.77-.14v-.72a2.16,2.16,0,0,0,.66.1c.87,0,1.31-.5,1.31-1.5V440Zm-.43-2.88a.54.54,0,0,1,.44.17.57.57,0,0,1,.17.42.58.58,0,0,1-.61.58.59.59,0,0,1-.44-.17.6.6,0,0,1-.16-.41.61.61,0,0,1,.16-.42A.55.55,0,0,1,442.81,437.16Z"/><path d="M455.73,444.08a4.77,4.77,0,0,1-.82,2.94,2.62,2.62,0,0,1-2.19,1.09,2.9,2.9,0,0,1-2.49-1.15V451h-.88V440h.82l0,1.12a2.8,2.8,0,0,1,2.48-1.27,2.62,2.62,0,0,1,2.23,1.08,4.84,4.84,0,0,1,.81,3Zm-.87-.15a4,4,0,0,0-.63-2.4,2,2,0,0,0-1.73-.88,2.44,2.44,0,0,0-1.39.39,2.41,2.41,0,0,0-.88,1.13V446a2.36,2.36,0,0,0,.9,1,2.58,2.58,0,0,0,1.38.36,2,2,0,0,0,1.73-.89A4.42,4.42,0,0,0,454.86,443.93Z"/><path d="M462.68,448a4.31,4.31,0,0,1-.17-1.11,3,3,0,0,1-1.18.93,3.54,3.54,0,0,1-1.51.33,2.68,2.68,0,0,1-1.85-.64,2.08,2.08,0,0,1-.7-1.61,2.12,2.12,0,0,1,1-1.83,4.62,4.62,0,0,1,2.68-.68h1.59v-.9a1.72,1.72,0,0,0-.52-1.33,2.15,2.15,0,0,0-1.53-.49,2.39,2.39,0,0,0-1.51.47,1.39,1.39,0,0,0-.6,1.13h-.88a2,2,0,0,1,.88-1.64,3.37,3.37,0,0,1,2.16-.69,3.1,3.1,0,0,1,2.09.66,2.4,2.4,0,0,1,.79,1.85v3.75a4.66,4.66,0,0,0,.24,1.72V448Zm-2.76-.63a3,3,0,0,0,1.58-.42,2.56,2.56,0,0,0,1-1.14V444h-1.56a3.9,3.9,0,0,0-2.05.48,1.48,1.48,0,0,0-.25,2.38A1.88,1.88,0,0,0,459.92,447.33Z"/><path d="M466.55,440l0,1.35a3.14,3.14,0,0,1,1.11-1.12,2.93,2.93,0,0,1,1.47-.38,2.39,2.39,0,0,1,1.9.72,3.28,3.28,0,0,1,.63,2.15V448h-.87v-5.21a2.5,2.5,0,0,0-.45-1.58,1.77,1.77,0,0,0-1.42-.52,2.23,2.23,0,0,0-1.44.51,3,3,0,0,0-.93,1.37V448h-.87V440Z"/><path d="M473.6,443.93a4.85,4.85,0,0,1,.82-2.95,2.66,2.66,0,0,1,2.24-1.09,2.75,2.75,0,0,1,2.45,1.27v-4.45H480V448h-.82l0-1a2.82,2.82,0,0,1-2.47,1.2,2.63,2.63,0,0,1-2.21-1.11,4.76,4.76,0,0,1-.84-3Zm.89.15a4.16,4.16,0,0,0,.6,2.39,2,2,0,0,0,1.72.87,2.36,2.36,0,0,0,2.3-1.42V442.2a2.36,2.36,0,0,0-2.29-1.55,2,2,0,0,0-1.72.87A4.42,4.42,0,0,0,474.49,444.08Z"/><path d="M485.35,448.11a3.43,3.43,0,0,1-1.82-.5,3.35,3.35,0,0,1-1.27-1.39,4.24,4.24,0,0,1-.46-2v-.31a4.62,4.62,0,0,1,.45-2.06,3.47,3.47,0,0,1,1.23-1.44,3,3,0,0,1,1.71-.52,2.86,2.86,0,0,1,2.29,1,4,4,0,0,1,.85,2.7v.49h-5.66v.16a3.31,3.31,0,0,0,.78,2.25,2.44,2.44,0,0,0,1.94.9,2.86,2.86,0,0,0,1.24-.26,2.68,2.68,0,0,0,1-.82l.55.42A3.2,3.2,0,0,1,485.35,448.11Zm-.16-7.47a2.18,2.18,0,0,0-1.66.72,3.36,3.36,0,0,0-.83,1.95h4.76v-.1a3,3,0,0,0-.65-1.86A2,2,0,0,0,485.19,440.64Zm1-3.93h1.06l-1.69,2.05h-.77Z"/><path d="M490.83,440l0,1.28a2.9,2.9,0,0,1,2.57-1.43,2.22,2.22,0,0,1,2.38,1.54,2.88,2.88,0,0,1,1.13-1.14,3.14,3.14,0,0,1,1.57-.4c1.7,0,2.57.93,2.6,2.78V448h-.88v-5.22a2.36,2.36,0,0,0-.46-1.58,1.86,1.86,0,0,0-1.46-.51,2.31,2.31,0,0,0-1.6.61,2.15,2.15,0,0,0-.73,1.46V448h-.88v-5.29a2.13,2.13,0,0,0-.48-1.52,1.9,1.9,0,0,0-1.45-.5,2.25,2.25,0,0,0-1.42.47,2.78,2.78,0,0,0-.88,1.41V448H490V440Z"/><path d="M503.28,437.75a.57.57,0,0,1,.16-.42.55.55,0,0,1,.44-.17.57.57,0,0,1,.44.17.57.57,0,0,1,.17.42.57.57,0,0,1-.17.41.6.6,0,0,1-.44.17.59.59,0,0,1-.44-.17A.56.56,0,0,1,503.28,437.75Zm1,10.21h-.88V440h.88Z"/><path d="M509.76,448.11a3.47,3.47,0,0,1-1.83-.5,3.42,3.42,0,0,1-1.27-1.39,4.36,4.36,0,0,1-.45-2v-.31a4.61,4.61,0,0,1,.44-2.06,3.62,3.62,0,0,1,1.23-1.44,3,3,0,0,1,1.72-.52,2.89,2.89,0,0,1,2.29,1,4,4,0,0,1,.84,2.7v.49h-5.65v.16a3.36,3.36,0,0,0,.77,2.25,2.46,2.46,0,0,0,1.95.9,2.89,2.89,0,0,0,1.24-.26,2.65,2.65,0,0,0,1-.82l.55.42A3.2,3.2,0,0,1,509.76,448.11Zm-.16-7.47a2.2,2.2,0,0,0-1.67.72,3.36,3.36,0,0,0-.82,1.95h4.75v-.1a2.89,2.89,0,0,0-.65-1.86A2,2,0,0,0,509.6,440.64Z"/><path d="M14.22,55.75A3.89,3.89,0,0,1,13,58.41a4.28,4.28,0,0,1-2.92,1,4.21,4.21,0,0,1-2.25-.6A4,4,0,0,1,6.3,57a6,6,0,0,1-.55-2.58v-1a6.22,6.22,0,0,1,.53-2.66A4,4,0,0,1,7.82,49a4.2,4.2,0,0,1,2.31-.62,4.17,4.17,0,0,1,2.84,1,4,4,0,0,1,1.25,2.71H12.37a2.58,2.58,0,0,0-.67-1.66,2.18,2.18,0,0,0-1.57-.51,2.18,2.18,0,0,0-1.86.88,4.46,4.46,0,0,0-.66,2.6v.94A4.62,4.62,0,0,0,8.23,57a2,2,0,0,0,1.81.91,2.38,2.38,0,0,0,1.64-.49,2.55,2.55,0,0,0,.69-1.63Z"/><path d="M19.19,59.36a3.67,3.67,0,0,1-2.74-1.06,3.87,3.87,0,0,1-1-2.84v-.22a4.69,4.69,0,0,1,.46-2.12,3.41,3.41,0,0,1,1.28-1.45A3.38,3.38,0,0,1,19,51.15a3.1,3.1,0,0,1,2.5,1,4.35,4.35,0,0,1,.88,2.92v.72H17.19a2.43,2.43,0,0,0,.66,1.55,2,2,0,0,0,1.44.57,2.41,2.41,0,0,0,2-1l1,.92A3.23,3.23,0,0,1,21,59,4,4,0,0,1,19.19,59.36ZM19,52.58a1.49,1.49,0,0,0-1.18.51,2.72,2.72,0,0,0-.58,1.43h3.39v-.14A2.18,2.18,0,0,0,20.14,53,1.51,1.51,0,0,0,19,52.58Z"/><path d="M25.4,51.29l.06.92a2.82,2.82,0,0,1,2.3-1.06c1.65,0,2.49.94,2.52,2.83v5.24H28.5V54.08A1.65,1.65,0,0,0,28.18,53a1.36,1.36,0,0,0-1.07-.37,1.71,1.71,0,0,0-1.6,1v5.64H23.73V51.29Z"/><path d="M36.83,59.22a2.7,2.7,0,0,1-.21-.74,3,3,0,0,1-4,.2A2.14,2.14,0,0,1,31.84,57a2.28,2.28,0,0,1,.94-2,4.6,4.6,0,0,1,2.7-.67h1.09v-.52a1.41,1.41,0,0,0-.35-1,1.39,1.39,0,0,0-1-.37,1.53,1.53,0,0,0-1,.31.93.93,0,0,0-.39.77H32a2,2,0,0,1,.43-1.22,2.82,2.82,0,0,1,1.18-.89,4,4,0,0,1,1.66-.32,3.3,3.3,0,0,1,2.22.7,2.5,2.5,0,0,1,.85,2v3.58a4,4,0,0,0,.3,1.7v.13Zm-1.95-1.28a2,2,0,0,0,1-.26,1.72,1.72,0,0,0,.7-.69V55.5h-1a2.63,2.63,0,0,0-1.49.34,1.13,1.13,0,0,0-.5,1,1,1,0,0,0,.34.81A1.3,1.3,0,0,0,34.88,57.94Z"/><path d="M50.88,55.34a4.7,4.7,0,0,1-.83,2.93,2.91,2.91,0,0,1-4.33.24v3.75H43.94v-11h1.64l.08.81a2.59,2.59,0,0,1,2.13-1,2.7,2.7,0,0,1,2.27,1.08,4.84,4.84,0,0,1,.82,3Zm-1.77-.16a3.25,3.25,0,0,0-.47-1.88,1.54,1.54,0,0,0-1.35-.7,1.63,1.63,0,0,0-1.57.91V57a1.64,1.64,0,0,0,1.58.92,1.52,1.52,0,0,0,1.33-.68A3.65,3.65,0,0,0,49.11,55.18Z"/><path d="M52.06,55.18a4.69,4.69,0,0,1,.46-2.1,3.39,3.39,0,0,1,1.29-1.43,3.62,3.62,0,0,1,1.92-.5,3.47,3.47,0,0,1,2.61,1,4.12,4.12,0,0,1,1.08,2.74v.42A4.56,4.56,0,0,1,59,57.43a3.3,3.3,0,0,1-1.28,1.43,3.67,3.67,0,0,1-1.94.5,3.47,3.47,0,0,1-2.69-1.11,4.3,4.3,0,0,1-1-3Zm1.78.16a3.23,3.23,0,0,0,.5,1.91,1.66,1.66,0,0,0,1.41.69,1.61,1.61,0,0,0,1.4-.7,3.48,3.48,0,0,0,.5-2.06,3.17,3.17,0,0,0-.51-1.9,1.66,1.66,0,0,0-1.41-.7,1.63,1.63,0,0,0-1.38.69A3.47,3.47,0,0,0,53.84,55.34Z"/><path d="M63.61,57l1.68-5.67h1.84l-2.75,7.93H62.84l-2.77-7.93h1.85Z"/><path d="M67.8,55.18a4.69,4.69,0,0,1,.46-2.1,3.39,3.39,0,0,1,1.29-1.43,3.62,3.62,0,0,1,1.92-.5,3.47,3.47,0,0,1,2.61,1,4.12,4.12,0,0,1,1.08,2.74v.42a4.56,4.56,0,0,1-.46,2.09,3.24,3.24,0,0,1-1.28,1.43,3.67,3.67,0,0,1-1.94.5,3.47,3.47,0,0,1-2.69-1.11,4.3,4.3,0,0,1-1-3Zm1.78.16a3.23,3.23,0,0,0,.5,1.91,1.66,1.66,0,0,0,1.41.69,1.61,1.61,0,0,0,1.4-.7,3.48,3.48,0,0,0,.5-2.06,3.17,3.17,0,0,0-.51-1.9,1.66,1.66,0,0,0-1.41-.7,1.63,1.63,0,0,0-1.38.69A3.47,3.47,0,0,0,69.58,55.34Z"/><path d="M78.56,59.22H76.78V48h1.78Z"/><path d="M84,59.36a3.67,3.67,0,0,1-2.74-1.06,3.87,3.87,0,0,1-1-2.84v-.22a4.82,4.82,0,0,1,.45-2.12,3.5,3.5,0,0,1,1.29-1.45,3.38,3.38,0,0,1,1.85-.52,3.12,3.12,0,0,1,2.5,1,4.35,4.35,0,0,1,.88,2.92v.72H82a2.33,2.33,0,0,0,.66,1.55,2,2,0,0,0,1.44.57,2.4,2.4,0,0,0,2-1l1,.92A3.16,3.16,0,0,1,85.77,59,4,4,0,0,1,84,59.36Zm-.21-6.78a1.49,1.49,0,0,0-1.18.51A2.57,2.57,0,0,0,82,54.52h3.39v-.14A2.24,2.24,0,0,0,84.94,53,1.51,1.51,0,0,0,83.78,52.58Z"/><path d="M90.2,51.29l0,.92a2.86,2.86,0,0,1,2.31-1.06c1.65,0,2.49.94,2.52,2.83v5.24H93.3V54.08A1.6,1.6,0,0,0,93,53a1.32,1.32,0,0,0-1.06-.37,1.73,1.73,0,0,0-1.61,1v5.64H88.53V51.29Z"/><path d="M96.9,49.24a.93.93,0,0,1,.26-.69,1,1,0,0,1,.74-.27,1,1,0,0,1,.75.27,1,1,0,0,1,.26.69,1,1,0,0,1-.26.67,1.05,1.05,0,0,1-.75.26,1,1,0,0,1-.74-.26A.91.91,0,0,1,96.9,49.24Zm1.89,10H97V51.29h1.78Z"/><path d="M104.21,59.36a3.67,3.67,0,0,1-2.74-1.06,3.87,3.87,0,0,1-1-2.84v-.22a4.69,4.69,0,0,1,.46-2.12,3.41,3.41,0,0,1,1.28-1.45,3.38,3.38,0,0,1,1.85-.52,3.1,3.1,0,0,1,2.5,1,4.35,4.35,0,0,1,.88,2.92v.72h-5.18a2.43,2.43,0,0,0,.66,1.55,2,2,0,0,0,1.44.57,2.43,2.43,0,0,0,2-1l1,.92A3.23,3.23,0,0,1,106,59,4,4,0,0,1,104.21,59.36ZM104,52.58a1.49,1.49,0,0,0-1.18.51,2.72,2.72,0,0,0-.58,1.43h3.39v-.14a2.18,2.18,0,0,0-.47-1.35A1.51,1.51,0,0,0,104,52.58Z"/><path d="M111.35,55.82l-.79.81v2.59h-1.78V48h1.78v6.49l.55-.7,2.19-2.47h2.14L112.5,54.6l3.26,4.62H113.7Z"/><path d="M6,72.91a11.88,11.88,0,0,1,.41-3.1,10.17,10.17,0,0,1,1.21-2.75,5.38,5.38,0,0,1,1.69-1.8l.22.6a4.4,4.4,0,0,0-1,1,7.47,7.47,0,0,0-.85,1.57,11.44,11.44,0,0,0-.61,2A13.19,13.19,0,0,0,6.9,73,12.33,12.33,0,0,0,7.25,76a9.64,9.64,0,0,0,1,2.49A5,5,0,0,0,9.55,80.1l-.22.56a5.43,5.43,0,0,1-1.72-1.8,10.14,10.14,0,0,1-1.19-2.73A12.68,12.68,0,0,1,6,72.91Z"/><path d="M17,72.11H12v4.35h5.73v.76H11.13V66.55h6.6v.77H12v4h5Z"/><path d="M27,66.55v7.28a3.77,3.77,0,0,1-.48,1.88,3.14,3.14,0,0,1-1.32,1.23,4.38,4.38,0,0,1-2,.42,3.89,3.89,0,0,1-2.7-.91A3.44,3.44,0,0,1,19.5,73.9V66.55h.89v7.22a2.79,2.79,0,0,0,.77,2.09,2.92,2.92,0,0,0,2.09.74,2.87,2.87,0,0,0,2.08-.74,2.79,2.79,0,0,0,.77-2.08V66.55Z"/><path d="M33.5,72.77H30.41v4.45H29.5V66.55H33a4,4,0,0,1,2.67.83A3.16,3.16,0,0,1,36,71.5a3.09,3.09,0,0,1-1.61,1.08L37,77.12v.1h-1ZM30.41,72h2.76A2.52,2.52,0,0,0,35,71.36a2.43,2.43,0,0,0,0-3.42,3,3,0,0,0-2-.62H30.41Z"/><path d="M43.06,76.48h5.15v.74H42v-.65l4.8-6.52H42.12v-.76h5.77V70Z"/><path d="M54.78,77.22a4.31,4.31,0,0,1-.17-1.11,3.06,3.06,0,0,1-1.17.93,3.56,3.56,0,0,1-1.51.32,2.66,2.66,0,0,1-1.85-.63,2.07,2.07,0,0,1-.71-1.61,2.13,2.13,0,0,1,1-1.84A4.71,4.71,0,0,1,53,72.61h1.59v-.9a1.75,1.75,0,0,0-.53-1.34,2.19,2.19,0,0,0-1.53-.48,2.38,2.38,0,0,0-1.51.46,1.41,1.41,0,0,0-.6,1.13h-.88a2,2,0,0,1,.88-1.64,3.37,3.37,0,0,1,2.16-.69,3.1,3.1,0,0,1,2.09.66,2.4,2.4,0,0,1,.79,1.85v3.75a4.66,4.66,0,0,0,.24,1.72v.09ZM52,76.59a2.89,2.89,0,0,0,1.57-.43,2.5,2.5,0,0,0,1-1.13V73.28H53a3.9,3.9,0,0,0-2,.48A1.44,1.44,0,0,0,50.25,75a1.41,1.41,0,0,0,.49,1.11A1.89,1.89,0,0,0,52,76.59Z"/><path d="M62.82,67.26v2h1.64V70H62.82V75.3a1.63,1.63,0,0,0,.24,1,.91.91,0,0,0,.8.32,5.23,5.23,0,0,0,.71-.07l0,.71a2.91,2.91,0,0,1-.93.12,1.57,1.57,0,0,1-1.32-.52,2.48,2.48,0,0,1-.41-1.54V70H60.49v-.72h1.45v-2Z"/><path d="M65.65,73.14a4.75,4.75,0,0,1,.44-2.06,3.42,3.42,0,0,1,1.26-1.42,3.36,3.36,0,0,1,1.83-.51,3.27,3.27,0,0,1,2.57,1.11,4.3,4.3,0,0,1,1,2.94v.18a4.63,4.63,0,0,1-.45,2.07A3.37,3.37,0,0,1,71,76.87a3.47,3.47,0,0,1-1.84.49,3.28,3.28,0,0,1-2.56-1.1,4.3,4.3,0,0,1-1-3Zm.88.24a3.59,3.59,0,0,0,.74,2.33,2.49,2.49,0,0,0,3.85,0,3.72,3.72,0,0,0,.74-2.4v-.17a4.07,4.07,0,0,0-.34-1.66,2.65,2.65,0,0,0-1-1.17,2.38,2.38,0,0,0-1.39-.42,2.34,2.34,0,0,0-1.91.92,3.77,3.77,0,0,0-.74,2.41Z"/><path d="M75.37,69.29l0,1.36a3.22,3.22,0,0,1,1.11-1.12A2.88,2.88,0,0,1,78,69.15a2.4,2.4,0,0,1,1.9.71A3.2,3.2,0,0,1,80.51,72v5.2h-.87V72a2.4,2.4,0,0,0-.45-1.58,1.77,1.77,0,0,0-1.42-.52,2.23,2.23,0,0,0-1.44.51,3,3,0,0,0-.92,1.37v5.43h-.87V69.29Z"/><path d="M87.87,76.21a2.83,2.83,0,0,1-2.52,1.15,2.45,2.45,0,0,1-1.93-.73,3.23,3.23,0,0,1-.67-2.18V69.29h.87v5c0,1.51.61,2.26,1.83,2.26A2.24,2.24,0,0,0,87.86,75V69.29h.88v7.93h-.85Z"/><path d="M102.42,73.89a3.8,3.8,0,0,1-1.21,2.58,4,4,0,0,1-2.72.89,3.74,3.74,0,0,1-2.1-.59A3.91,3.91,0,0,1,95,75.09a5.92,5.92,0,0,1-.5-2.49V71.22A5.91,5.91,0,0,1,95,68.7,3.87,3.87,0,0,1,96.41,67a4,4,0,0,1,2.15-.59,3.56,3.56,0,0,1,3.86,3.48h-.91a2.72,2.72,0,0,0-3-2.72,2.79,2.79,0,0,0-2.31,1.08,4.7,4.7,0,0,0-.86,3v1.31a4.71,4.71,0,0,0,.84,2.94,2.68,2.68,0,0,0,2.26,1.1,3,3,0,0,0,2.13-.67,3.25,3.25,0,0,0,.89-2Z"/><path d="M112.49,72.46a6.14,6.14,0,0,1-.51,2.59,3.88,3.88,0,0,1-1.45,1.71,4,4,0,0,1-2.19.6,3.77,3.77,0,0,1-3-1.33,5.34,5.34,0,0,1-1.15-3.61v-1.1a6.19,6.19,0,0,1,.51-2.58A4.09,4.09,0,0,1,110.5,67,3.91,3.91,0,0,1,112,68.68a6,6,0,0,1,.54,2.51Zm-.9-1.15a4.72,4.72,0,0,0-.87-3,3.14,3.14,0,0,0-4.76,0,4.74,4.74,0,0,0-.88,3.06v1.11a4.69,4.69,0,0,0,.88,3,3.14,3.14,0,0,0,4.77,0,4.86,4.86,0,0,0,.86-3.06Z"/><path d="M117.89,80.21H114v-.39l2.13-2.42a5.27,5.27,0,0,0,.73-1,1.69,1.69,0,0,0,.21-.78,1.26,1.26,0,0,0-.35-.93,1.29,1.29,0,0,0-1-.34,1.35,1.35,0,0,0-1,.4,1.45,1.45,0,0,0-.38,1h-.51a2,2,0,0,1,.24-1,1.73,1.73,0,0,1,.67-.67,2,2,0,0,1,1-.25,1.86,1.86,0,0,1,1.33.45,1.6,1.6,0,0,1,.48,1.22,2.06,2.06,0,0,1-.27,1,6.88,6.88,0,0,1-1,1.29l-1.74,2h3.27Z"/><path d="M122,73a11.76,11.76,0,0,1-.4,3.1,9.56,9.56,0,0,1-1.18,2.73,5.4,5.4,0,0,1-1.73,1.81l-.21-.56a4.94,4.94,0,0,0,1.33-1.59,9.65,9.65,0,0,0,1-2.51,12.77,12.77,0,0,0,.35-3.11,11.81,11.81,0,0,0-.35-2.93,9.79,9.79,0,0,0-1-2.52,4.83,4.83,0,0,0-1.32-1.61l.21-.57a5.45,5.45,0,0,1,1.71,1.81,9.94,9.94,0,0,1,1.19,2.74A12,12,0,0,1,122,73Z"/><g class="cls-8"><line class="cls-9" x1="459.91" y1="351.8" x2="459.91" y2="395.79"/><polygon class="cls-10" points="455.82 355.11 456.56 355.79 459.91 352.18 463.27 355.79 464 355.11 459.91 350.71 455.82 355.11"/></g></svg>