<?xml version="1.0" encoding="UTF-8" standalone="no"?>
<!DOCTYPE svg PUBLIC "-//W3C//DTD SVG 1.1//EN" "http://www.w3.org/Graphics/SVG/1.1/DTD/svg11.dtd">
<svg xmlns="http://www.w3.org/2000/svg" xmlns:xlink="http://www.w3.org/1999/xlink" version="1.1" width="520pt" height="450.66pt" viewBox="0 0 520 450.66">
<g enable-background="new">
<g>
<g id="Layer-1" data-name="Layer 1">
<path transform="matrix(1,0,0,-1,0,450.66)" d="M 36.485 93.611 L 68.431 93.611 L 68.431 291.527 L 36.485 291.527 Z " fill="#87bbde"/>
<path transform="matrix(1,0,0,-1,0,450.66)" stroke-width="1.107" stroke-linecap="butt" stroke-miterlimit="10" stroke-linejoin="miter" fill="none" stroke="#ffffff" d="M 36.485 93.611 L 68.431 93.611 L 68.431 291.527 L 36.485 291.527 Z "/>
<path transform="matrix(1,0,0,-1,0,450.66)" d="M 68.431 93.611 L 100.378 93.611 L 100.378 293.66 L 68.431 293.66 Z " fill="#87bbde"/>
<path transform="matrix(1,0,0,-1,0,450.66)" stroke-width="1.107" stroke-linecap="butt" stroke-miterlimit="10" stroke-linejoin="miter" fill="none" stroke="#ffffff" d="M 68.431 93.611 L 100.378 93.611 L 100.378 293.66 L 68.431 293.66 Z "/>
<path transform="matrix(1,0,0,-1,0,450.66)" d="M 100.378 93.611 L 132.324 93.611 L 132.324 306.331 L 100.378 306.331 Z " fill="#87bbde"/>
<path transform="matrix(1,0,0,-1,0,450.66)" stroke-width="1.107" stroke-linecap="butt" stroke-miterlimit="10" stroke-linejoin="miter" fill="none" stroke="#ffffff" d="M 100.378 93.611 L 132.324 93.611 L 132.324 306.331 L 100.378 306.331 Z "/>
<path transform="matrix(1,0,0,-1,0,450.66)" d="M 132.324 93.611 L 164.27 93.611 L 164.27 301.903 L 132.324 301.903 Z " fill="#87bbde"/>
<path transform="matrix(1,0,0,-1,0,450.66)" stroke-width="1.107" stroke-linecap="butt" stroke-miterlimit="10" stroke-linejoin="miter" fill="none" stroke="#ffffff" d="M 132.324 93.611 L 164.27 93.611 L 164.27 301.903 L 132.324 301.903 Z "/>
<path transform="matrix(1,0,0,-1,0,450.66)" d="M 164.271 93.611 L 196.217 93.611 L 196.217 278.314 L 164.271 278.314 Z " fill="#87bbde"/>
<path transform="matrix(1,0,0,-1,0,450.66)" stroke-width="1.107" stroke-linecap="butt" stroke-miterlimit="10" stroke-linejoin="miter" fill="none" stroke="#ffffff" d="M 164.271 93.611 L 196.217 93.611 L 196.217 278.314 L 164.271 278.314 Z "/>
<path transform="matrix(1,0,0,-1,0,450.66)" d="M 196.217 93.611 L 228.163 93.611 L 228.163 284.13 L 196.217 284.13 Z " fill="#87bbde"/>
<path transform="matrix(1,0,0,-1,0,450.66)" stroke-width="1.107" stroke-linecap="butt" stroke-miterlimit="10" stroke-linejoin="miter" fill="none" stroke="#ffffff" d="M 196.217 93.611 L 228.163 93.611 L 228.163 284.13 L 196.217 284.13 Z "/>
<path transform="matrix(1,0,0,-1,0,450.66)" d="M 228.163 93.611 L 260.11 93.611 L 260.11 280.749 L 228.163 280.749 Z " fill="#87bbde"/>
<path transform="matrix(1,0,0,-1,0,450.66)" stroke-width="1.107" stroke-linecap="butt" stroke-miterlimit="10" stroke-linejoin="miter" fill="none" stroke="#ffffff" d="M 228.163 93.611 L 260.11 93.611 L 260.11 280.749 L 228.163 280.749 Z "/>
<path transform="matrix(1,0,0,-1,0,450.66)" d="M 260.11 93.611 L 292.05598 93.611 L 292.05598 285.33 L 260.11 285.33 Z " fill="#87bbde"/>
<path transform="matrix(1,0,0,-1,0,450.66)" stroke-width="1.107" stroke-linecap="butt" stroke-miterlimit="10" stroke-linejoin="miter" fill="none" stroke="#ffffff" d="M 260.11 93.611 L 292.05598 93.611 L 292.05598 285.33 L 260.11 285.33 Z "/>
<path transform="matrix(1,0,0,-1,0,450.66)" d="M 292.056 93.611 L 324.002 93.611 L 324.002 286.371 L 292.056 286.371 Z " fill="#87bbde"/>
<path transform="matrix(1,0,0,-1,0,450.66)" stroke-width="1.107" stroke-linecap="butt" stroke-miterlimit="10" stroke-linejoin="miter" fill="none" stroke="#ffffff" d="M 292.056 93.611 L 324.002 93.611 L 324.002 286.371 L 292.056 286.371 Z "/>
<path transform="matrix(1,0,0,-1,0,450.66)" d="M 324.002 93.611 L 355.948 93.611 L 355.948 277.234 L 324.002 277.234 Z " fill="#87bbde"/>
<path transform="matrix(1,0,0,-1,0,450.66)" stroke-width="1.107" stroke-linecap="butt" stroke-miterlimit="10" stroke-linejoin="miter" fill="none" stroke="#ffffff" d="M 324.002 93.611 L 355.948 93.611 L 355.948 277.234 L 324.002 277.234 Z "/>
<path transform="matrix(1,0,0,-1,0,450.66)" d="M 355.949 93.611 L 387.896 93.611 L 387.896 276.406 L 355.949 276.406 Z " fill="#87bbde"/>
<path transform="matrix(1,0,0,-1,0,450.66)" stroke-width="1.107" stroke-linecap="butt" stroke-miterlimit="10" stroke-linejoin="miter" fill="none" stroke="#ffffff" d="M 355.949 93.611 L 387.896 93.611 L 387.896 276.406 L 355.949 276.406 Z "/>
<path transform="matrix(1,0,0,-1,0,450.66)" d="M 387.896 93.611 L 419.84199 93.611 L 419.84199 271.674 L 387.896 271.674 Z " fill="#87bbde"/>
<path transform="matrix(1,0,0,-1,0,450.66)" stroke-width="1.107" stroke-linecap="butt" stroke-miterlimit="10" stroke-linejoin="miter" fill="none" stroke="#ffffff" d="M 387.896 93.611 L 419.84199 93.611 L 419.84199 271.674 L 387.896 271.674 Z "/>
<path transform="matrix(1,0,0,-1,0,450.66)" d="M 419.842 93.611 L 451.78804 93.611 L 451.78804 272.373 L 419.842 272.373 Z " fill="#87bbde"/>
<path transform="matrix(1,0,0,-1,0,450.66)" stroke-width="1.107" stroke-linecap="butt" stroke-miterlimit="10" stroke-linejoin="miter" fill="none" stroke="#ffffff" d="M 419.842 93.611 L 451.78804 93.611 L 451.78804 272.373 L 419.842 272.373 Z "/>
<path transform="matrix(1,0,0,-1,0,450.66)" d="M 451.788 93.611 L 483.734 93.611 L 483.734 265.636 L 451.788 265.636 Z " fill="#87bbde"/>
<path transform="matrix(1,0,0,-1,0,450.66)" stroke-width="1.107" stroke-linecap="butt" stroke-miterlimit="10" stroke-linejoin="miter" fill="none" stroke="#ffffff" d="M 451.788 93.611 L 483.734 93.611 L 483.734 265.636 L 451.788 265.636 Z "/>
<path transform="matrix(1,0,0,-1,0,450.66)" d="M 483.734 93.611 L 515.68 93.611 L 515.68 250.682 L 483.734 250.682 Z " fill="#87bbde"/>
<path transform="matrix(1,0,0,-1,0,450.66)" stroke-width="1.107" stroke-linecap="butt" stroke-miterlimit="10" stroke-linejoin="miter" fill="none" stroke="#ffffff" d="M 483.734 93.611 L 515.68 93.611 L 515.68 250.682 L 483.734 250.682 Z "/>
<text xml:space="preserve" transform="matrix(1 0 -0 1 0 450.66)" font-size="15" font-family="Roboto"><tspan y="-71.7617" x="36.0742 44.3842 52.694204 61.004205 99.8992 108.2092 116.519199 124.82919 163.7242 172.0342 180.3442 188.65419 227.5492 235.85919 244.16919 252.47919 291.3742 299.6842 307.9942 316.3042 355.19923 363.50923 371.8192 380.1382 419.02424 427.33424 435.64424 443.95423 482.84925 491.15925 499.46925 507.77925">20052007200920112013201520172019</tspan></text>
<path transform="matrix(1,0,0,-1,32.7163,357.0485)" stroke-width=".664" stroke-linecap="square" stroke-miterlimit="4" stroke-linejoin="miter" fill="none" stroke="#666666" d="M 0 0 L 482.964 0 "/>
<path transform="matrix(1,0,0,-1,5.5801,357.0485)" stroke-width=".3" stroke-linecap="square" stroke-dasharray="5.688" stroke-linejoin="round" fill="none" stroke="#808285" d="M 0 0 L 510.101 0 "/>
<path transform="matrix(1,0,0,-1,5.5801,307.9157)" stroke-width=".3" stroke-linecap="square" stroke-dasharray="5.688" stroke-linejoin="round" fill="none" stroke="#808285" d="M 0 0 L 510.101 0 "/>
<path transform="matrix(1,0,0,-1,5.5801,258.78193)" stroke-width=".3" stroke-linecap="square" stroke-dasharray="5.688" stroke-linejoin="round" fill="none" stroke="#808285" d="M 0 0 L 510.101 0 "/>
<path transform="matrix(1,0,0,-1,5.5801,209.64911)" stroke-width=".3" stroke-linecap="square" stroke-dasharray="5.688" stroke-linejoin="round" fill="none" stroke="#808285" d="M 0 0 L 510.101 0 "/>
<path transform="matrix(1,0,0,-1,5.5801,160.5163)" stroke-width=".3" stroke-linecap="square" stroke-dasharray="5.688" stroke-linejoin="round" fill="none" stroke="#808285" d="M 0 0 L 510.101 0 "/>
<path transform="matrix(1,0,0,-1,5.5801,111.383518)" stroke-width=".3" stroke-linecap="square" stroke-dasharray="5.688" stroke-linejoin="round" fill="none" stroke="#808285" d="M 0 0 L 510.101 0 "/>
<path transform="matrix(1,0,0,-1,68.4316,151.78189)" stroke-width="2.214" stroke-linecap="butt" stroke-miterlimit="10" stroke-linejoin="miter" fill="none" stroke="#000000" d="M 0 0 L -31.947 0 "/>
<path transform="matrix(1,0,0,-1,100.3774,153.5622)" stroke-width="2.214" stroke-linecap="butt" stroke-miterlimit="10" stroke-linejoin="miter" fill="none" stroke="#000000" d="M 0 0 L -31.946 0 "/>
<path transform="matrix(1,0,0,-1,132.3242,142.19989)" stroke-width="2.214" stroke-linecap="butt" stroke-miterlimit="10" stroke-linejoin="miter" fill="none" stroke="#000000" d="M 0 0 L -31.947 0 "/>
<path transform="matrix(1,0,0,-1,164.2705,160.5163)" stroke-width="2.214" stroke-linecap="butt" stroke-miterlimit="10" stroke-linejoin="miter" fill="none" stroke="#000000" d="M 0 0 L -31.946 0 "/>
<path transform="matrix(1,0,0,-1,196.2168,155.65689)" stroke-width="2.214" stroke-linecap="butt" stroke-miterlimit="10" stroke-linejoin="miter" fill="none" stroke="#000000" d="M 0 0 L -31.946 0 "/>
<path transform="matrix(1,0,0,-1,228.1631,152.5769)" stroke-width="2.214" stroke-linecap="butt" stroke-miterlimit="10" stroke-linejoin="miter" fill="none" stroke="#000000" d="M 0 0 L -31.946 0 "/>
<path transform="matrix(1,0,0,-1,260.1099,150.57102)" stroke-width="2.214" stroke-linecap="butt" stroke-miterlimit="10" stroke-linejoin="miter" fill="none" stroke="#000000" d="M 0 0 L -31.947 0 "/>
<path transform="matrix(1,0,0,-1,292.0562,137.0173)" stroke-width="2.214" stroke-linecap="butt" stroke-miterlimit="10" stroke-linejoin="miter" fill="none" stroke="#000000" d="M 0 0 L -31.946 0 "/>
<path transform="matrix(1,0,0,-1,324.0024,145.3659)" stroke-width="2.214" stroke-linecap="butt" stroke-miterlimit="10" stroke-linejoin="miter" fill="none" stroke="#000000" d="M 0 0 L -31.946 0 "/>
<path transform="matrix(1,0,0,-1,355.9492,199.9411)" stroke-width="2.214" stroke-linecap="butt" stroke-miterlimit="10" stroke-linejoin="miter" fill="none" stroke="#000000" d="M 0 0 L -31.947 0 "/>
<path transform="matrix(1,0,0,-1,387.8955,203.7575)" stroke-width="2.214" stroke-linecap="butt" stroke-miterlimit="10" stroke-linejoin="miter" fill="none" stroke="#000000" d="M 0 0 L -31.946 0 "/>
<path transform="matrix(1,0,0,-1,419.8418,201.1062)" stroke-width="2.214" stroke-linecap="butt" stroke-miterlimit="10" stroke-linejoin="miter" fill="none" stroke="#000000" d="M 0 0 L -31.946 0 "/>
<path transform="matrix(1,0,0,-1,451.7881,182.53189)" stroke-width="2.214" stroke-linecap="butt" stroke-miterlimit="10" stroke-linejoin="miter" fill="none" stroke="#000000" d="M 0 0 L -31.946 0 "/>
<path transform="matrix(1,0,0,-1,483.7344,189.90012)" stroke-width="2.214" stroke-linecap="butt" stroke-miterlimit="10" stroke-linejoin="miter" fill="none" stroke="#000000" d="M 0 0 L -31.946 0 "/>
<clipPath id="cp0">
<path transform="matrix(1,0,0,-1,0,450.66)" d="M 0 450.66 L 520 450.66 L 520 0 L 0 0 Z "/>
</clipPath>
<g clip-path="url(#cp0)">
<path transform="matrix(1,0,0,-1,515.6807,224.8464)" stroke-width="2.214" stroke-linecap="butt" stroke-miterlimit="10" stroke-linejoin="miter" fill="none" stroke="#000000" d="M 0 0 L -31.946 0 "/>
</g>
<text xml:space="preserve" transform="matrix(1 0 -0 1 0 450.66)" font-size="13.7" font-family="Roboto"><tspan y="-26.7944" x="5.7979 11.606701 14.935801 23.1284 30.471602 35.074804 38.1436 45.4868 53.104005 60.186906 67.708209 70.77701 78.12021 81.44931 93.58751 101.25951 108.78081 111.84961 114.91841 118.24751 125.17971 131.66803 139.34003 142.46363 149.53968 152.86878 159.95168 172.08988 175.15868 182.09088 185.15969 192.24259 195.57169 203.16149 210.83348 217.54648 222.27709 228.78459 233.4563 236.7854 241.1831 248.5263 255.2393 259.637 262.70579 269.78868 276.44688 279.77598 291.91419 298.99708 306.61427 313.27247 316.34126 323.86256 331.20576 335.68156 343.35356 350.97074 358.49205 364.99955 377.13777 380.20655 383.53565 390.24867 394.72996 401.81285 409.43003 412.4988 416.8965 429.03474 432.10353 435.43263 443.02244 450.69444 458.3116 462.38053 469.72373">* Zariadenia mohli svoje emisie pokry&#x0165; taktie&#x017e; medzin&#x00e1;rodn&#x00fd;mi kreditmi pod&#x013e;a </tspan><tspan y="-10.354399" x="5.7979 9.127001 12.4561 15.7852 24.429902 27.553502 35.225503 39.623205 46.555406 53.131406 60.207456 67.72875 75.40075 78.72985 86.31965 90.794078 98.46607 102.73362 110.40562 117.118618 124.79061 127.85941 135.3807 137.9974 141.3265 148.0395 152.30706 159.97905 164.46169 171.54459 174.87369 182.39499 185.46379 192.54669 195.8758 202.808 210.3293 213.6584 220.24811 223.57721 231.18071 235.52223 242.86544 247.24121 254.31726 257.64637 264.30458 271.82588 279.16908 285.72453 293.3965 297.99974 305.52104 312.6039 320.1252 327.2081">   Kj&#x00f3;tskeho protokolu, ktor&#x00e9; nie s&#x00fa; v grafe zn&#x00e1;zornen&#x00e9;.</tspan></text>
<path transform="matrix(1,0,0,-1,0,450.66)" d="M 188.812 386.426 L 172.535 386.426 L 172.535 402.703 L 188.812 402.703 Z " fill="#e8e3e7"/>
<path transform="matrix(1,0,0,-1,0,450.66)" stroke-width="1" stroke-linecap="butt" stroke-miterlimit="10" stroke-linejoin="miter" fill="none" stroke="#ffffff" d="M 188.812 386.426 L 172.535 386.426 L 172.535 402.703 L 188.812 402.703 Z "/>
<path transform="matrix(1,0,0,-1,172.9395,47.956819)" stroke-width="2" stroke-linecap="butt" stroke-miterlimit="10" stroke-linejoin="miter" fill="none" stroke="#000000" d="M 0 0 L 15.488 0 "/>
<path transform="matrix(1,0,0,-1,0,450.66)" d="M 22.844 386.426 L 6.5669996 386.426 L 6.5669996 402.703 L 22.844 402.703 Z " fill="#97c1de"/>
<path transform="matrix(1,0,0,-1,0,450.66)" stroke-width="1" stroke-linecap="butt" stroke-miterlimit="10" stroke-linejoin="miter" fill="none" stroke="#ffffff" d="M 22.844 386.426 L 6.5669996 386.426 L 6.5669996 402.703 L 22.844 402.703 Z "/>
<path transform="matrix(1,0,0,-1,6.5673,47.956819)" d="M 0 0 L 16.276 0 Z " fill="#97c1de"/>
<path transform="matrix(1,0,0,-1,6.5669,47.956819)" stroke-width="1" stroke-linecap="butt" stroke-miterlimit="10" stroke-linejoin="miter" fill="none" stroke="#ffffff" d="M 0 0 L 16.277 0 "/>
<text fill="#a9a9a9" xml:space="preserve" transform="matrix(1 0 -0 1 0 450.66)" font-size="15" font-family="Roboto"><tspan y="-388.7642" x="200.8115 210.8015 214.6265 223.1615 230.9915 239.42151 246.73102 254.84603 263.18605 271.24104 274.976 283.42103 291.851 299.1605 307.6955 311.531 319.586 327.926 335.75599 343.06098 346.79597">Alokovan&#x00e9; povolenky *</tspan></text>
<text fill="#76b4de" xml:space="preserve" transform="matrix(1 0 -0 1 0 450.66)" font-size="15" font-family="Roboto"><tspan y="-388.7642" x="34.851488 45.201486 52.531984 60.586984 65.72148 73.77648 82.116489 90.171489 93.90649 101.96149 115.01149 118.83649 126.576488 130.40149">Overen&#x00e9; emisie</tspan></text>
<text xml:space="preserve" transform="matrix(1 0 -0 1 0 450.66)" font-size="15" font-family="Roboto"><tspan y="-96.93918" x="5.061487">0</tspan></text>
<text xml:space="preserve" transform="matrix(1 0 -0 1 0 450.66)" font-size="15" font-family="Roboto"><tspan y="-146.30417" x="5.061487 13.371488 16.236489">0,5</tspan><tspan y="-195.66916" x="5.061487 13.371488 16.236489">1,0</tspan><tspan y="-245.03415" x="5.061487 13.371488 16.236489">1,5</tspan><tspan y="-294.39915" x="5.061487 13.371488 16.236489">2,0</tspan><tspan y="-343.41914" x="5.0914876 13.401487 16.266488 24.576489 28.221489 41.51149 44.87149 53.21149 56.79649 60.44149 65.127498 73.5275 81.7625 85.40749 95.142498">2,5 mld. ton CO</tspan></text>
<text xml:space="preserve" transform="matrix(1 0 -0 1 0 450.66)" font-size="8.745" font-family="Roboto"><tspan y="-340.334" x="105.3149">2</tspan></text>
<text xml:space="preserve" transform="matrix(1 0 -0 1 0 450.66)" font-size="15" font-family="Roboto"><tspan y="-343.4121" x="110.2256 113.8706 121.625598 134.91559 138.27559 145.86559 149.22559 152.57059 156.21559 162.1706 165.8156 179.10559 182.46559 190.80559 194.3906 198.0356 206.3456 214.64659 221.75209 230.15209 233.51209 241.26709 249.50209 252.86209 260.6171"> emisi&#x00ed; / mld. povoleniek</tspan></text>
<text xml:space="preserve" transform="matrix(1 0 -0 1 0 450.66)" font-size="19" font-family="Akrobat" font-weight="bold"><tspan y="-426.8101" x="5 17.122002 28.294003 39.086004 50.980005 61.772005 74.50201 85.29401 90.994 101.786 117.48 124.434009 135.24501 142.199 152.99102 158.69101 170.167">OVEREN&#x00c9; EMISIE CO</tspan></text>
<text xml:space="preserve" transform="matrix(1 0 -0 1 0 450.66)" font-size="11.077" font-family="Akrobat" font-weight="bold"><tspan y="-424.4829" x="182.2861">2</tspan></text>
<text xml:space="preserve" transform="matrix(1 0 -0 1 0 450.66)" font-size="19" font-family="Akrobat" font-weight="bold"><tspan y="-426.8101" x="188.2568 193.9568 205.2428 210.9428 222.22879 232.07079 244.19278 255.82079 267.94279 278.46879 289.7548 302.4848 313.2768 318.9768 330.8328 342.9548 354.1268 366.2488 376.09083 386.8828 399.61283 411.92295"> A ALOKOVAN&#x00c9; POVOLENKY</tspan></text>
<clipPath id="cp1">
<path transform="matrix(1,0,0,-1,0,450.66)" d="M 0 450.66 L 520 450.66 L 520 0 L 0 0 Z "/>
</clipPath>
<g clip-path="url(#cp1)">
<g opacity=".100006">
<clipPath id="cp2">
<path transform="matrix(1,0,0,-1,0,450.66)" d="M 36.1901 93.058 L 515.976 93.058 L 515.976 314.196 L 36.1901 314.196 Z "/>
</clipPath>
<g clip-path="url(#cp2)">
<path transform="matrix(1,0,0,-1,0,450.66)" d="M 36.744 93.611 L 68.656 93.611 L 68.656 298.878 L 36.744 298.878 Z "/>
<path transform="matrix(1,0,0,-1,0,450.66)" stroke-width="1.107" stroke-linecap="butt" stroke-miterlimit="10" stroke-linejoin="miter" fill="none" stroke="#ffffff" d="M 36.744 93.611 L 68.656 93.611 L 68.656 298.878 L 36.744 298.878 Z "/>
<path transform="matrix(1,0,0,-1,0,450.66)" d="M 68.655 93.611 L 100.567 93.611 L 100.567 297.097 L 68.655 297.097 Z "/>
<path transform="matrix(1,0,0,-1,0,450.66)" stroke-width="1.107" stroke-linecap="butt" stroke-miterlimit="10" stroke-linejoin="miter" fill="none" stroke="#ffffff" d="M 68.655 93.611 L 100.567 93.611 L 100.567 297.097 L 68.655 297.097 Z "/>
<path transform="matrix(1,0,0,-1,0,450.66)" d="M 100.567 93.611 L 132.479 93.611 L 132.479 308.46 L 100.567 308.46 Z "/>
<path transform="matrix(1,0,0,-1,0,450.66)" stroke-width="1.107" stroke-linecap="butt" stroke-miterlimit="10" stroke-linejoin="miter" fill="none" stroke="#ffffff" d="M 100.567 93.611 L 132.479 93.611 L 132.479 308.46 L 100.567 308.46 Z "/>
<path transform="matrix(1,0,0,-1,0,450.66)" d="M 132.479 93.611 L 164.391 93.611 L 164.391 291.212 L 132.479 291.212 Z "/>
<path transform="matrix(1,0,0,-1,0,450.66)" stroke-width="1.107" stroke-linecap="butt" stroke-miterlimit="10" stroke-linejoin="miter" fill="none" stroke="#ffffff" d="M 132.479 93.611 L 164.391 93.611 L 164.391 291.212 L 132.479 291.212 Z "/>
<path transform="matrix(1,0,0,-1,0,450.66)" d="M 164.391 93.611 L 196.30301 93.611 L 196.30301 295.003 L 164.391 295.003 Z "/>
<path transform="matrix(1,0,0,-1,0,450.66)" stroke-width="1.107" stroke-linecap="butt" stroke-miterlimit="10" stroke-linejoin="miter" fill="none" stroke="#ffffff" d="M 164.391 93.611 L 196.30301 93.611 L 196.30301 295.003 L 164.391 295.003 Z "/>
<path transform="matrix(1,0,0,-1,0,450.66)" d="M 196.303 93.611 L 228.215 93.611 L 228.215 298.083 L 196.303 298.083 Z "/>
<path transform="matrix(1,0,0,-1,0,450.66)" stroke-width="1.107" stroke-linecap="butt" stroke-miterlimit="10" stroke-linejoin="miter" fill="none" stroke="#ffffff" d="M 196.303 93.611 L 228.215 93.611 L 228.215 298.083 L 196.303 298.083 Z "/>
<path transform="matrix(1,0,0,-1,0,450.66)" d="M 228.215 93.611 L 260.12699 93.611 L 260.12699 300.089 L 228.215 300.089 Z "/>
<path transform="matrix(1,0,0,-1,0,450.66)" stroke-width="1.107" stroke-linecap="butt" stroke-miterlimit="10" stroke-linejoin="miter" fill="none" stroke="#ffffff" d="M 228.215 93.611 L 260.12699 93.611 L 260.12699 300.089 L 228.215 300.089 Z "/>
<path transform="matrix(1,0,0,-1,0,450.66)" d="M 260.127 93.611 L 292.039 93.611 L 292.039 313.642 L 260.127 313.642 Z "/>
<path transform="matrix(1,0,0,-1,0,450.66)" stroke-width="1.107" stroke-linecap="butt" stroke-miterlimit="10" stroke-linejoin="miter" fill="none" stroke="#ffffff" d="M 260.127 93.611 L 292.039 93.611 L 292.039 313.642 L 260.127 313.642 Z "/>
<path transform="matrix(1,0,0,-1,0,450.66)" d="M 292.039 93.611 L 323.951 93.611 L 323.951 305.294 L 292.039 305.294 Z "/>
<path transform="matrix(1,0,0,-1,0,450.66)" stroke-width="1.107" stroke-linecap="butt" stroke-miterlimit="10" stroke-linejoin="miter" fill="none" stroke="#ffffff" d="M 292.039 93.611 L 323.951 93.611 L 323.951 305.294 L 292.039 305.294 Z "/>
<path transform="matrix(1,0,0,-1,0,450.66)" d="M 323.951 93.611 L 355.86299 93.611 L 355.86299 250.71799 L 323.951 250.71799 Z "/>
<path transform="matrix(1,0,0,-1,0,450.66)" stroke-width="1.107" stroke-linecap="butt" stroke-miterlimit="10" stroke-linejoin="miter" fill="none" stroke="#ffffff" d="M 323.951 93.611 L 355.86299 93.611 L 355.86299 250.71799 L 323.951 250.71799 Z "/>
<path transform="matrix(1,0,0,-1,0,450.66)" d="M 355.862 93.611 L 387.774 93.611 L 387.774 246.90201 L 355.862 246.90201 Z "/>
<path transform="matrix(1,0,0,-1,0,450.66)" stroke-width="1.107" stroke-linecap="butt" stroke-miterlimit="10" stroke-linejoin="miter" fill="none" stroke="#ffffff" d="M 355.862 93.611 L 387.774 93.611 L 387.774 246.90201 L 355.862 246.90201 Z "/>
<path transform="matrix(1,0,0,-1,0,450.66)" d="M 387.774 93.611 L 419.68598 93.611 L 419.68598 249.55301 L 387.774 249.55301 Z "/>
<path transform="matrix(1,0,0,-1,0,450.66)" stroke-width="1.107" stroke-linecap="butt" stroke-miterlimit="10" stroke-linejoin="miter" fill="none" stroke="#ffffff" d="M 387.774 93.611 L 419.68598 93.611 L 419.68598 249.55301 L 387.774 249.55301 Z "/>
<path transform="matrix(1,0,0,-1,0,450.66)" d="M 419.687 93.611 L 451.599 93.611 L 451.599 268.128 L 419.687 268.128 Z "/>
<path transform="matrix(1,0,0,-1,0,450.66)" stroke-width="1.107" stroke-linecap="butt" stroke-miterlimit="10" stroke-linejoin="miter" fill="none" stroke="#ffffff" d="M 419.687 93.611 L 451.599 93.611 L 451.599 268.128 L 419.687 268.128 Z "/>
<path transform="matrix(1,0,0,-1,0,450.66)" d="M 451.599 93.611 L 483.51 93.611 L 483.51 260.759 L 451.599 260.759 Z "/>
<path transform="matrix(1,0,0,-1,0,450.66)" stroke-width="1.107" stroke-linecap="butt" stroke-miterlimit="10" stroke-linejoin="miter" fill="none" stroke="#ffffff" d="M 451.599 93.611 L 483.51 93.611 L 483.51 260.759 L 451.599 260.759 Z "/>
<path transform="matrix(1,0,0,-1,0,450.66)" d="M 483.51 93.611 L 515.422 93.611 L 515.422 225.81299 L 483.51 225.81299 Z "/>
<path transform="matrix(1,0,0,-1,0,450.66)" stroke-width="1.107" stroke-linecap="butt" stroke-miterlimit="10" stroke-linejoin="miter" fill="none" stroke="#ffffff" d="M 483.51 93.611 L 515.422 93.611 L 515.422 225.81299 L 483.51 225.81299 Z "/>
</g>
</g>
</g>
</g>
</g>
</g>
</svg>
