<?xml version="1.0" encoding="UTF-8" standalone="no"?>
<svg
   xmlns:dc="http://purl.org/dc/elements/1.1/"
   xmlns:cc="http://creativecommons.org/ns#"
   xmlns:rdf="http://www.w3.org/1999/02/22-rdf-syntax-ns#"
   xmlns:svg="http://www.w3.org/2000/svg"
   xmlns="http://www.w3.org/2000/svg"
   viewBox="0 0 693.33331 484.56134"
   height="484.56134"
   width="693.33331"
   xml:space="preserve"
   id="svg2"
   version="1.1"><metadata
     id="metadata8"><rdf:RDF><cc:Work
         rdf:about=""><dc:format>image/svg+xml</dc:format><dc:type
           rdf:resource="http://purl.org/dc/dcmitype/StillImage" /></cc:Work></rdf:RDF></metadata><defs
     id="defs6"><clipPath
       id="clipPath74"
       clipPathUnits="userSpaceOnUse"><path
         id="path72"
         d="M 0,363.421 H 520 V 0 H 0 Z" /></clipPath><clipPath
       id="clipPath82"
       clipPathUnits="userSpaceOnUse"><path
         id="path80"
         d="M 37.3672,226.606 H 63.978 V 29.131 H 37.3672 Z" /></clipPath><clipPath
       id="clipPath96"
       clipPathUnits="userSpaceOnUse"><path
         id="path94"
         d="M 63.978,222.981 H 90.5888 V 29.131 H 63.978 Z" /></clipPath><clipPath
       id="clipPath110"
       clipPathUnits="userSpaceOnUse"><path
         id="path108"
         d="M 90.5888,219.356 H 117.2 V 29.131 H 90.5888 Z" /></clipPath><clipPath
       id="clipPath124"
       clipPathUnits="userSpaceOnUse"><path
         id="path122"
         d="m 117.2,215.73 h 26.61 V 29.131 H 117.2 Z" /></clipPath><clipPath
       id="clipPath138"
       clipPathUnits="userSpaceOnUse"><path
         id="path136"
         d="m 143.81,212.105 h 26.611 V 29.131 H 143.81 Z" /></clipPath><clipPath
       id="clipPath152"
       clipPathUnits="userSpaceOnUse"><path
         id="path150"
         d="m 170.421,208.48 h 26.611 V 29.131 h -26.611 z" /></clipPath><clipPath
       id="clipPath166"
       clipPathUnits="userSpaceOnUse"><path
         id="path164"
         d="m 197.032,204.854 h 26.611 V 29.131 h -26.611 z" /></clipPath><clipPath
       id="clipPath180"
       clipPathUnits="userSpaceOnUse"><path
         id="path178"
         d="m 223.643,201.229 h 26.611 V 29.131 h -26.611 z" /></clipPath><clipPath
       id="clipPath194"
       clipPathUnits="userSpaceOnUse"><path
         id="path192"
         d="m 250.254,178.029 h 26.61 V 29.131 h -26.61 z" /></clipPath><clipPath
       id="clipPath208"
       clipPathUnits="userSpaceOnUse"><path
         id="path206"
         d="m 276.864,173.955 h 26.611 V 29.131 h -26.611 z" /></clipPath><clipPath
       id="clipPath222"
       clipPathUnits="userSpaceOnUse"><path
         id="path220"
         d="m 303.475,169.881 h 26.611 V 29.131 h -26.611 z" /></clipPath><clipPath
       id="clipPath236"
       clipPathUnits="userSpaceOnUse"><path
         id="path234"
         d="m 330.086,165.806 h 26.611 V 29.131 h -26.611 z" /></clipPath><clipPath
       id="clipPath250"
       clipPathUnits="userSpaceOnUse"><path
         id="path248"
         d="m 356.697,161.732 h 26.611 V 29.131 h -26.611 z" /></clipPath><clipPath
       id="clipPath264"
       clipPathUnits="userSpaceOnUse"><path
         id="path262"
         d="m 383.308,157.658 h 26.61 V 29.131 h -26.61 z" /></clipPath><clipPath
       id="clipPath278"
       clipPathUnits="userSpaceOnUse"><path
         id="path276"
         d="m 409.918,153.583 h 26.611 V 29.131 h -26.611 z" /></clipPath><clipPath
       id="clipPath292"
       clipPathUnits="userSpaceOnUse"><path
         id="path290"
         d="M 436.529,149.509 H 463.14 V 29.131 h -26.611 z" /></clipPath><clipPath
       id="clipPath306"
       clipPathUnits="userSpaceOnUse"><path
         id="path304"
         d="m 463.14,145.559 h 26.611 V 29.255 H 463.14 Z" /></clipPath><clipPath
       id="clipPath320"
       clipPathUnits="userSpaceOnUse"><path
         id="path318"
         d="m 489.751,141.36 h 26.611 V 29.131 h -26.611 z" /></clipPath><clipPath
       id="clipPath342"
       clipPathUnits="userSpaceOnUse"><path
         id="path340"
         d="M 0,363.421 H 520 V 0 H 0 Z" /></clipPath><clipPath
       id="clipPath362"
       clipPathUnits="userSpaceOnUse"><path
         id="path360"
         d="M 0,363.421 H 520 V 0 H 0 Z" /></clipPath><clipPath
       id="clipPath382"
       clipPathUnits="userSpaceOnUse"><path
         id="path380"
         d="M 0,363.421 H 520 V 0 H 0 Z" /></clipPath></defs><g
     transform="matrix(1.3333333,0,0,-1.3333333,0,484.56133)"
     id="g10"><g
       transform="translate(515.6797,141.3605)"
       id="g12"><path
         id="path14"
         style="fill:none;stroke:#cccccc;stroke-width:2;stroke-linecap:butt;stroke-linejoin:miter;stroke-miterlimit:10;stroke-dasharray:none;stroke-opacity:1"
         d="M 0,0 V -112.229" /></g><text
       id="text18"
       style="font-variant:normal;font-weight:300;font-stretch:normal;font-size:15px;font-family:'Roboto Light';-inkscape-font-specification:Roboto-Light;writing-mode:lr-tb;fill:#000000;fill-opacity:1;fill-rule:nonzero;stroke:none"
       transform="matrix(1,0,0,-1,34.0469,8.3164)"><tspan
         id="tspan16"
         y="0"
         x="0 8.3100004 16.620001 24.93 53.220001 61.529999 69.839996 78.150002 106.44 114.75 123.06 131.37 159.66 167.97 176.28 184.59 212.88 221.19 229.5 237.81 266.10001 274.41 282.72 291.03 319.32001 327.63 335.94 344.25 372.54001 380.85001 389.16 397.47 425.76001 434.07001 442.38 450.69">201320152017201920212023202520272029</tspan></text>
<g
       transform="translate(32.7344,29.131)"
       id="g20"><path
         id="path22"
         style="fill:none;stroke:#666666;stroke-width:0.66399997;stroke-linecap:square;stroke-linejoin:miter;stroke-miterlimit:4;stroke-dasharray:none;stroke-opacity:1"
         d="M 0,0 H 483.284" /></g><g
       transform="translate(5.5811,29.131)"
       id="g24"><path
         id="path26"
         style="fill:none;stroke:#808285;stroke-width:0.30000001;stroke-linecap:square;stroke-linejoin:round;stroke-miterlimit:4;stroke-dasharray:5.688;stroke-dashoffset:0;stroke-opacity:1"
         d="M 0,0 H 510.437" /></g><g
       transform="translate(5.5811,76.5089)"
       id="g28"><path
         id="path30"
         style="fill:none;stroke:#808285;stroke-width:0.30000001;stroke-linecap:square;stroke-linejoin:round;stroke-miterlimit:4;stroke-dasharray:5.688;stroke-dashoffset:0;stroke-opacity:1"
         d="M 0,0 H 510.437" /></g><g
       transform="translate(5.5811,123.8878)"
       id="g32"><path
         id="path34"
         style="fill:none;stroke:#808285;stroke-width:0.30000001;stroke-linecap:square;stroke-linejoin:round;stroke-miterlimit:4;stroke-dasharray:5.688;stroke-dashoffset:0;stroke-opacity:1"
         d="M 0,0 H 510.437" /></g><g
       transform="translate(5.5811,171.2658)"
       id="g36"><path
         id="path38"
         style="fill:none;stroke:#808285;stroke-width:0.30000001;stroke-linecap:square;stroke-linejoin:round;stroke-miterlimit:4;stroke-dasharray:5.688;stroke-dashoffset:0;stroke-opacity:1"
         d="M 0,0 H 510.437" /></g><g
       transform="translate(5.5811,218.6447)"
       id="g40"><path
         id="path42"
         style="fill:none;stroke:#808285;stroke-width:0.30000001;stroke-linecap:square;stroke-linejoin:round;stroke-miterlimit:4;stroke-dasharray:5.688;stroke-dashoffset:0;stroke-opacity:1"
         d="M 0,0 H 510.437" /></g><g
       transform="translate(5.5811,266.0226)"
       id="g44"><path
         id="path46"
         style="fill:none;stroke:#808285;stroke-width:0.30000001;stroke-linecap:square;stroke-linejoin:round;stroke-miterlimit:4;stroke-dasharray:5.688;stroke-dashoffset:0;stroke-opacity:1"
         d="M 0,0 H 510.437" /></g><text
       id="text50"
       style="font-variant:normal;font-weight:300;font-stretch:normal;font-size:15px;font-family:'Roboto Light';-inkscape-font-specification:Roboto-Light;writing-mode:lr-tb;fill:#000000;fill-opacity:1;fill-rule:nonzero;stroke:none"
       transform="matrix(1,0,0,-1,5.0625,32.3438)"><tspan
         id="tspan48"
         y="0"
         x="0">0</tspan></text>
<text
       id="text62"
       style="font-variant:normal;font-weight:300;font-stretch:normal;font-size:15px;font-family:'Roboto Light';-inkscape-font-specification:Roboto-Light;writing-mode:lr-tb;fill:#000000;fill-opacity:1;fill-rule:nonzero;stroke:none"
       transform="matrix(1,0,0,-1,5.0625,79.9388)"><tspan
         id="tspan52"
         y="0"
         x="0 8.3100004 11.175">0,5</tspan><tspan
         id="tspan54"
         y="-47.595001"
         x="0 8.3100004 11.175">1,0</tspan><tspan
         id="tspan56"
         y="-95.190002"
         x="0 8.3100004 11.175">1,5</tspan><tspan
         id="tspan58"
         y="-142.785"
         x="0 8.3100004 11.175">2,0</tspan><tspan
         id="tspan60"
         y="-190.065"
         x="0.029999999 8.3400002 11.205 19.524 23.169001 36.459 39.819 48.159 51.7365 55.3815 63.691502 71.983498 79.087502 87.487503 90.847504 98.602501 106.8375 110.1975 117.9525">2,5 mld. povoleniek</tspan></text>
<text
       id="text66"
       style="font-variant:normal;font-weight:900;font-stretch:normal;font-size:19px;font-family:'Akrobat Black';-inkscape-font-specification:Akrobat-Black;writing-mode:lr-tb;fill:#000000;fill-opacity:1;fill-rule:nonzero;stroke:none"
       transform="matrix(1,0,0,-1,4.999,339.5718)"><tspan
         id="tspan64"
         y="0"
         x="0 15.694 26.790001 38.132999 45.087002 60.780998 72.067001 81.908997 94.639 105.431 111.131 126.825 139.55499 151.677 161.804 172.80499 183.255 194.427 206.549 212.24899 223.535 233.377 245.49899 257.12701 269.24899 279.77499 291.061 303.79099 314.659 326.13501 338.561 344.26099 356.117 368.23901 379.41101 391.53299 401.375 412.16699 424.897 431.85101 442.64301">MAXIMÁLNE MNOŽSTVO ALOKOVANÝCH POVOLENIEK</tspan></text>
<g
       id="g68"><g
         clip-path="url(#clipPath74)"
         id="g70"><g
           id="g76"><g
             id="g78" /><g
             id="g88"><g
               style="opacity:0.10000598"
               id="g86"
               clip-path="url(#clipPath82)"><path
                 id="path84"
                 style="fill:#231f20;fill-opacity:1;fill-rule:nonzero;stroke:none"
                 d="m 37.367,29.131 h 26.61 v 197.476 h -26.61 z" /></g></g></g><g
           id="g90"><g
             id="g92" /><g
             id="g102"><g
               style="opacity:0.10000598"
               id="g100"
               clip-path="url(#clipPath96)"><path
                 id="path98"
                 style="fill:#231f20;fill-opacity:1;fill-rule:nonzero;stroke:none"
                 d="m 63.978,29.131 h 26.611 v 193.85 H 63.978 Z" /></g></g></g><g
           id="g104"><g
             id="g106" /><g
             id="g116"><g
               style="opacity:0.10000598"
               id="g114"
               clip-path="url(#clipPath110)"><path
                 id="path112"
                 style="fill:#231f20;fill-opacity:1;fill-rule:nonzero;stroke:none"
                 d="m 90.589,29.131 h 26.61 v 190.225 h -26.61 z" /></g></g></g><g
           id="g118"><g
             id="g120" /><g
             id="g130"><g
               style="opacity:0.10000598"
               id="g128"
               clip-path="url(#clipPath124)"><path
                 id="path126"
                 style="fill:#231f20;fill-opacity:1;fill-rule:nonzero;stroke:none"
                 d="m 117.199,29.131 h 26.611 v 186.6 h -26.611 z" /></g></g></g><g
           id="g132"><g
             id="g134" /><g
             id="g144"><g
               style="opacity:0.10000598"
               id="g142"
               clip-path="url(#clipPath138)"><path
                 id="path140"
                 style="fill:#231f20;fill-opacity:1;fill-rule:nonzero;stroke:none"
                 d="m 143.811,29.131 h 26.61 v 182.974 h -26.61 z" /></g></g></g><g
           id="g146"><g
             id="g148" /><g
             id="g158"><g
               style="opacity:0.10000598"
               id="g156"
               clip-path="url(#clipPath152)"><path
                 id="path154"
                 style="fill:#231f20;fill-opacity:1;fill-rule:nonzero;stroke:none"
                 d="m 170.421,29.131 h 26.611 V 208.48 h -26.611 z" /></g></g></g><g
           id="g160"><g
             id="g162" /><g
             id="g172"><g
               style="opacity:0.10000598"
               id="g170"
               clip-path="url(#clipPath166)"><path
                 id="path168"
                 style="fill:#231f20;fill-opacity:1;fill-rule:nonzero;stroke:none"
                 d="m 197.032,29.131 h 26.61 v 175.724 h -26.61 z" /></g></g></g><g
           id="g174"><g
             id="g176" /><g
             id="g186"><g
               style="opacity:0.10000598"
               id="g184"
               clip-path="url(#clipPath180)"><path
                 id="path182"
                 style="fill:#231f20;fill-opacity:1;fill-rule:nonzero;stroke:none"
                 d="m 223.643,29.131 h 26.611 v 172.098 h -26.611 z" /></g></g></g><g
           id="g188"><g
             id="g190" /><g
             id="g200"><g
               style="opacity:0.10000598"
               id="g198"
               clip-path="url(#clipPath194)"><path
                 id="path196"
                 style="fill:#231f20;fill-opacity:1;fill-rule:nonzero;stroke:none"
                 d="m 250.254,29.131 h 26.61 v 148.898 h -26.61 z" /></g></g></g><g
           id="g202"><g
             id="g204" /><g
             id="g214"><g
               style="opacity:0.10000598"
               id="g212"
               clip-path="url(#clipPath208)"><path
                 id="path210"
                 style="fill:#231f20;fill-opacity:1;fill-rule:nonzero;stroke:none"
                 d="m 276.864,29.131 h 26.611 v 144.824 h -26.611 z" /></g></g></g><g
           id="g216"><g
             id="g218" /><g
             id="g228"><g
               style="opacity:0.10000598"
               id="g226"
               clip-path="url(#clipPath222)"><path
                 id="path224"
                 style="fill:#231f20;fill-opacity:1;fill-rule:nonzero;stroke:none"
                 d="m 303.476,29.131 h 26.61 v 140.75 h -26.61 z" /></g></g></g><g
           id="g230"><g
             id="g232" /><g
             id="g242"><g
               style="opacity:0.10000598"
               id="g240"
               clip-path="url(#clipPath236)"><path
                 id="path238"
                 style="fill:#231f20;fill-opacity:1;fill-rule:nonzero;stroke:none"
                 d="m 330.086,29.131 h 26.611 v 136.675 h -26.611 z" /></g></g></g><g
           id="g244"><g
             id="g246" /><g
             id="g256"><g
               style="opacity:0.10000598"
               id="g254"
               clip-path="url(#clipPath250)"><path
                 id="path252"
                 style="fill:#231f20;fill-opacity:1;fill-rule:nonzero;stroke:none"
                 d="m 356.697,29.131 h 26.61 v 132.601 h -26.61 z" /></g></g></g><g
           id="g258"><g
             id="g260" /><g
             id="g270"><g
               style="opacity:0.10000598"
               id="g268"
               clip-path="url(#clipPath264)"><path
                 id="path266"
                 style="fill:#231f20;fill-opacity:1;fill-rule:nonzero;stroke:none"
                 d="m 383.308,29.131 h 26.61 v 128.526 h -26.61 z" /></g></g></g><g
           id="g272"><g
             id="g274" /><g
             id="g284"><g
               style="opacity:0.10000598"
               id="g282"
               clip-path="url(#clipPath278)"><path
                 id="path280"
                 style="fill:#231f20;fill-opacity:1;fill-rule:nonzero;stroke:none"
                 d="m 409.918,29.131 h 26.611 v 124.452 h -26.611 z" /></g></g></g><g
           id="g286"><g
             id="g288" /><g
             id="g298"><g
               style="opacity:0.10000598"
               id="g296"
               clip-path="url(#clipPath292)"><path
                 id="path294"
                 style="fill:#231f20;fill-opacity:1;fill-rule:nonzero;stroke:none"
                 d="m 436.529,29.131 h 26.61 v 120.378 h -26.61 z" /></g></g></g><g
           id="g300"><g
             id="g302" /><g
             id="g312"><g
               style="opacity:0.10000598"
               id="g310"
               clip-path="url(#clipPath306)"><path
                 id="path308"
                 style="fill:#231f20;fill-opacity:1;fill-rule:nonzero;stroke:none"
                 d="m 463.14,29.255 h 26.611 V 145.559 H 463.14 Z" /></g></g></g><g
           id="g314"><g
             id="g316" /><g
             id="g326"><g
               style="opacity:0.10000598"
               id="g324"
               clip-path="url(#clipPath320)"><path
                 id="path322"
                 style="fill:#231f20;fill-opacity:1;fill-rule:nonzero;stroke:none"
                 d="m 489.751,29.131 h 26.61 V 141.36 h -26.61 z" /></g></g></g></g></g><g
       transform="translate(250.2539,178.0294)"
       id="g328"><path
         id="path330"
         style="fill:none;stroke:#cccccc;stroke-width:2;stroke-linecap:butt;stroke-linejoin:miter;stroke-miterlimit:10;stroke-dasharray:none;stroke-opacity:1"
         d="M 0,0 V -148.898" /></g><g
       transform="translate(37.3672,226.6066)"
       id="g332"><path
         id="path334"
         style="fill:none;stroke:#cccccc;stroke-width:2;stroke-linecap:butt;stroke-linejoin:miter;stroke-miterlimit:10;stroke-dasharray:none;stroke-opacity:1"
         d="M 0,0 V -197.476" /></g><g
       id="g336"><g
         clip-path="url(#clipPath342)"
         id="g338"><g
           transform="translate(257.3906,191.6584)"
           id="g344"><path
             id="path346"
             style="fill:none;stroke:#939598;stroke-width:1;stroke-linecap:butt;stroke-linejoin:miter;stroke-miterlimit:10;stroke-dasharray:none;stroke-opacity:1"
             d="M 0,0 C 4.913,0.462 24.957,4.228 24.957,34.948" /></g><g
           transform="translate(261.2051,188.1105)"
           id="g348"><path
             id="path350"
             style="fill:#939598;fill-opacity:1;fill-rule:nonzero;stroke:none"
             d="M 0,0 0.581,0.814 -3.437,3.673 -0.291,7.472 -1.062,8.109 -4.893,3.482 Z" /></g></g></g><text
       id="text354"
       style="font-variant:normal;font-weight:500;font-stretch:normal;font-size:15px;font-family:'Roboto Medium';-inkscape-font-specification:Roboto-Medium;writing-mode:lr-tb;fill:#999999;fill-opacity:1;fill-rule:nonzero;stroke:none"
       transform="matrix(1,0,0,-1,119.8018,96.3037)"><tspan
         id="tspan352"
         y="0"
         x="0 7.9905 16.105499 23.650499 31.765499 35.5005 39.730499 43.960499 238.36501 246.3555 254.4705 262.0155 270.13049 273.86551 278.09549">Fáza IIIFáza IV</tspan></text>
<g
       id="g356"><g
         clip-path="url(#clipPath362)"
         id="g358"><path
           id="path364"
           style="fill:#ffffff;fill-opacity:1;fill-rule:nonzero;stroke:none"
           d="M 503.057,263.078 H 265.043 v 6.934 h 238.014 z" /></g></g><text
       id="text374"
       style="font-variant:normal;font-weight:300;font-stretch:normal;font-size:15px;font-family:'Roboto Light';-inkscape-font-specification:Roboto-Light;writing-mode:lr-tb;fill:#000000;fill-opacity:1;fill-rule:nonzero;stroke:none"
       transform="matrix(1,0,0,-1,279.1299,288.2754)"><tspan
         id="tspan366"
         y="0"
         x="0 8.9280005 16.683001 21.138 28.488001 36.528 40.173 49.368 54.408001 57.768002 62.583 70.623001 78.858002 82.218002 90.258003 93.903 102.303 110.643 118.368 126.603 135.00301 143.343 151.743 165.033 168.67799 175.968 179.61301 188.14799 198.00301">Veľká Británia odchodom z EÚ </tspan><tspan
         id="tspan368"
         y="16.004999"
         x="0 8.3999996 16.709999 24.945 32.535 37.349998 40.709999 44.07 52.110001 55.755001 60.57 63.938999 71.694 78.984001 82.628998 91.164001 101.019 104.664 113.3505 122.19 131.07001 133.935 137.58 145.90199 150.81 158.565 163.239 171.63901 175.284 183.62399 192.024 199.614 202.974 211.37399">opustila tiež EU ETS, preto došlo </tspan><tspan
         id="tspan370"
         y="32.009998"
         x="0 7.3499999 10.995 18.584999 25.934999 34.334999 41.685001 49.977001 57.096001 64.850998 78.140999 86.375999 90.021004 97.310997 105.558 108.903 116.0745 123.8295 132.0645 135.4245 143.6595 147.3045 160.5945 168.8295 177.114 184.40401 192.0045 196.8195 204.0345 212.2695">k skokovému zníženiu množstvu </tspan><tspan
         id="tspan372"
         y="48.014999"
         x="0 8.04 11.4 19.799999 27.15 35.440498 42.546001 50.585999 58.820999 65.852997 73.578003 81.813004 85.458 93.767998 102.0585 109.1625 117.5625 120.9225 128.67751 136.91251 140.27251 148.0275 155.3775">alokovaných povoleniek.</tspan></text>
<g
       id="g376"><g
         clip-path="url(#clipPath382)"
         id="g378"><g
           transform="translate(515.6797,141.3605)"
           id="g384"><path
             id="path386"
             style="fill:none;stroke:#000000;stroke-width:2;stroke-linecap:square;stroke-linejoin:miter;stroke-miterlimit:10;stroke-dasharray:none;stroke-opacity:1"
             d="m 0,0 h -25.929 v 4.074 h -26.61 V 8.148 H -79.15 v 4.075 h -26.612 v 4.074 h -26.61 v 4.074 h -26.61 v 4.074 h -26.612 v 4.076 h -26.61 v 4.074 h -26.611 v 4.074 h -26.611 v 23.199 h -26.611 v 3.626 h -26.61 v 3.625 h -26.612 v 3.625 h -26.61 v 3.626 h -26.611 v 3.625 h -26.611 v 3.625 h -26.61 v 3.626 h -26.611" /></g></g></g></g></svg>