<?xml version="1.0" encoding="utf-8"?>
<!-- Generator: Adobe Illustrator 25.0.0, SVG Export Plug-In . SVG Version: 6.00 Build 0)  -->
<svg version="1.1" id="Layer_1" xmlns="http://www.w3.org/2000/svg" xmlns:xlink="http://www.w3.org/1999/xlink" x="0px" y="0px"
	 viewBox="0 0 740 391.5" style="enable-background:new 0 0 740 391.5;" xml:space="preserve">
<style type="text/css">
	.st0{fill:none;stroke:#CCCCCC;stroke-width:2;stroke-miterlimit:10;}
	.st1{font-family:'Roboto-Light';}
	.st2{font-size:15px;}
	.st3{fill:none;stroke:#666666;stroke-width:0.6642;stroke-linecap:square;}
	.st4{fill:none;stroke:#808285;stroke-width:0.3;stroke-linecap:square;stroke-linejoin:round;stroke-dasharray:5.6885;}
	.st5{font-family:'Akrobat-Black';}
	.st6{font-size:19px;}
	.st7{letter-spacing:1;}
	.st8{opacity:0.1;fill:#231F20;enable-background:new    ;}
	.st9{fill:none;stroke:#939598;stroke-miterlimit:10;}
	.st10{fill:#939598;}
	.st11{fill:#999999;}
	.st12{font-family:'Roboto-Medium';}
	.st13{font-size:13.992px;}
	.st14{fill:#FFFFFF;}
	.st15{fill:none;}
	.st16{fill:none;stroke:#000000;stroke-width:2;stroke-linecap:square;stroke-miterlimit:10;}
</style>
<line class="st0" x1="729.3" y1="233.6" x2="729.3" y2="355"/>
<g>
	<text transform="matrix(1 0 0 1 53.1282 377.5344)" class="st1 st2">2013</text>
</g>
<g>
	<text transform="matrix(1 0 0 1 128.6152 377.5347)" class="st1 st2">2015</text>
</g>
<g>
	<text transform="matrix(1 0 0 1 204.1025 377.5344)" class="st1 st2">2017</text>
</g>
<g>
	<text transform="matrix(1 0 0 1 279.5889 377.5344)" class="st1 st2">2019</text>
</g>
<g>
	<text transform="matrix(1 0 0 1 355.0759 377.534)" class="st1 st2">2021</text>
</g>
<g>
	<text transform="matrix(1 0 0 1 430.5632 377.5344)" class="st1 st2">2023</text>
</g>
<g>
	<text transform="matrix(1 0 0 1 506.05 377.5344)" class="st1 st2">2025</text>
</g>
<g>
	<text transform="matrix(1 0 0 1 581.5371 377.5344)" class="st1 st2">2027</text>
</g>
<g>
	<text transform="matrix(1 0 0 1 657.0237 377.5335)" class="st1 st2">2029</text>
</g>
<path class="st3" d="M44.3,355h685.5"/>
<g>
	<path class="st4" d="M5.8,355h724"/>
	<path class="st4" d="M5.8,303.7h724"/>
	<path class="st4" d="M5.8,252.5h724"/>
	<path class="st4" d="M5.8,201.2h724"/>
	<path class="st4" d="M5.8,150h724"/>
	<path class="st4" d="M5.8,98.7h724"/>
</g>
<g>
	<text transform="matrix(1 0 0 1 5.062 351.5366)" class="st1 st2">0</text>
</g>
<g>
	<text transform="matrix(1 0 0 1 5.062 300.0346)" class="st1 st2">0,5</text>
</g>
<g>
	<text transform="matrix(1 0 0 1 5.062 248.5356)" class="st1 st2">1,0</text>
</g>
<g>
	<text transform="matrix(1 0 0 1 5.062 197.0337)" class="st1 st2">1,5</text>
</g>
<g>
	<text transform="matrix(1 0 0 1 5.062 145.5327)" class="st1 st2">2,0</text>
</g>
<g>
	<text transform="matrix(1 0 0 1 5.1123 94.3819)" class="st1 st2">2,5 mld. povoleniek</text>
</g>
<g>
	<text transform="matrix(1 0 0 1 4.9995 27.1758)" class="st5 st6 st7">MAXIMÁLNE MNOŽSTVO ALOKOVANÝCH POVOLENIEK V JEDNOTLIVÝCH ROKOCH</text>
</g>
<rect x="50.9" y="141.3" class="st8" width="37.7" height="213.7"/>
<rect x="88.6" y="145.3" class="st8" width="37.7" height="209.7"/>
<rect x="126.4" y="149.2" class="st8" width="37.7" height="205.8"/>
<rect x="164.1" y="153.1" class="st8" width="37.7" height="201.9"/>
<rect x="201.9" y="157" class="st8" width="37.7" height="198"/>
<rect x="239.6" y="161" class="st8" width="37.7" height="194.1"/>
<rect x="277.3" y="164.9" class="st8" width="37.7" height="190.1"/>
<rect x="315.1" y="168.8" class="st8" width="37.7" height="186.2"/>
<rect x="352.8" y="193.9" class="st8" width="37.7" height="161.1"/>
<rect x="390.6" y="198.3" class="st8" width="37.7" height="156.7"/>
<rect x="428.3" y="202.7" class="st8" width="37.7" height="152.3"/>
<rect x="466.1" y="207.1" class="st8" width="37.7" height="147.9"/>
<rect x="503.8" y="211.5" class="st8" width="37.7" height="143.5"/>
<rect x="541.5" y="215.9" class="st8" width="37.7" height="139.1"/>
<rect x="579.3" y="220.4" class="st8" width="37.7" height="134.7"/>
<rect x="617" y="224.8" class="st8" width="37.7" height="130.2"/>
<rect x="654.8" y="229" class="st8" width="37.7" height="125.8"/>
<rect x="692.5" y="233.6" class="st8" width="37.7" height="121.4"/>
<line class="st0" x1="352.8" y1="193.9" x2="352.8" y2="355"/>
<line class="st0" x1="50.9" y1="141.3" x2="50.9" y2="355"/>
<g>
	<g>
		<path class="st9" d="M358.5,179.2c6.1-0.4,35.8-3.8,35.8-37.8"/>
		<g>
			<polygon class="st10" points="362.2,182.9 362.8,182.1 358.9,179.1 362.2,175.4 361.4,174.8 357.4,179.2 			"/>
		</g>
	</g>
</g>
<text transform="matrix(1 0 0 1 179.4609 282.6562)" class="st11 st12 st13">Fáza III</text>
<text transform="matrix(1 0 0 1 518.5918 282.6562)" class="st11 st12 st13">Fáza IV</text>
<rect x="379.9" y="94.4" class="st14" width="282.4" height="7.5"/>
<g>
	<rect x="380" y="89.7" class="st15" width="281.7" height="64.7"/>
	<text transform="matrix(1 0 0 1 379.9761 100.9846)" class="st1 st2">Veľká Británia odchodom z EÚ opustila tiež </text>
	<text transform="matrix(1 0 0 1 379.9761 116.9846)" class="st1 st2">EU ETS, preto došlo k skokovému zníženiu </text>
	<text transform="matrix(1 0 0 1 379.9761 132.9846)" class="st1 st2">množstva alokovaných povoleniek.</text>
</g>
<g>
	<polyline class="st16" points="729.3,233.6 692.5,233.6 692.5,229.2 654.8,229.2 654.8,224.8 617,224.8 617,220.4 579.3,220.4 
		579.3,215.9 541.5,215.9 541.5,211.5 503.8,211.5 503.8,207.1 466.1,207.1 466.1,202.7 428.3,202.7 428.3,198.3 390.6,198.3 
		390.6,193.9 352.8,193.9 352.8,168.8 315.1,168.8 315.1,164.9 277.3,164.9 277.3,161 239.6,161 239.6,157 201.9,157 201.9,153.1 
		164.1,153.1 164.1,149.2 126.4,149.2 126.4,145.3 88.6,145.3 88.6,141.3 50.9,141.3 	"/>
</g>
</svg>
