<svg id="Layer_1" data-name="Layer 1" xmlns="http://www.w3.org/2000/svg" viewBox="0 0 740 391.47"><defs><style>.cls-1,.cls-2,.cls-3,.cls-5,.cls-9{fill:none;}.cls-1{stroke:#ccc;}.cls-1,.cls-5,.cls-9{stroke-miterlimit:10;}.cls-1,.cls-9{stroke-width:2px;}.cls-2{stroke:#666;stroke-width:0.66px;}.cls-2,.cls-3,.cls-9{stroke-linecap:square;}.cls-3{stroke:#808285;stroke-linejoin:round;stroke-width:0.3px;stroke-dasharray:5.69;}.cls-4{fill:#231f20;opacity:0.1;}.cls-5{stroke:#939598;}.cls-6{fill:#939598;}.cls-7{fill:#999;}.cls-8{fill:#fff;}.cls-9{stroke:#000;}</style></defs><line class="cls-1" x1="729.3" y1="233.58" x2="729.3" y2="355.01"/><path d="M60.81,377.53H54.13v-.67l3.66-4.15A10,10,0,0,0,59.05,371a3,3,0,0,0,.35-1.33,2.14,2.14,0,0,0-.6-1.6,2.22,2.22,0,0,0-1.63-.59,2.3,2.3,0,0,0-1.74.69,2.47,2.47,0,0,0-.66,1.79H53.9a3.35,3.35,0,0,1,.4-1.64,3,3,0,0,1,1.16-1.17,3.44,3.44,0,0,1,1.71-.42,3.24,3.24,0,0,1,2.29.77,2.72,2.72,0,0,1,.82,2.1,3.55,3.55,0,0,1-.46,1.63,12.14,12.14,0,0,1-1.64,2.21l-3,3.36h5.6Z"/><path d="M68.87,373.09a5.92,5.92,0,0,1-.82,3.42,3.14,3.14,0,0,1-4.87,0,5.63,5.63,0,0,1-.86-3.33v-1.91a5.85,5.85,0,0,1,.83-3.41,3.16,3.16,0,0,1,4.86,0,5.55,5.55,0,0,1,.86,3.29ZM68,371.18a5.18,5.18,0,0,0-.6-2.77,2.2,2.2,0,0,0-3.59,0,5,5,0,0,0-.62,2.7v2.09a5.2,5.2,0,0,0,.62,2.79,2,2,0,0,0,1.8,1,2,2,0,0,0,1.77-.94,5.21,5.21,0,0,0,.62-2.77Z"/><path d="M74.84,377.53H74v-9.61L71.06,369v-.82l3.63-1.35h.15Z"/><path d="M81,371.73h.91a3.05,3.05,0,0,0,1.32-.27,2.07,2.07,0,0,0,.86-.73,2,2,0,0,0,.29-1.08,2.15,2.15,0,0,0-.58-1.6,2.22,2.22,0,0,0-1.66-.58,2.36,2.36,0,0,0-1.68.61,2,2,0,0,0-.65,1.59H79a2.81,2.81,0,0,1,1.57-2.57,3.57,3.57,0,0,1,1.64-.38,3.23,3.23,0,0,1,2.29.79,2.87,2.87,0,0,1,.83,2.17,2.27,2.27,0,0,1-.49,1.42,2.89,2.89,0,0,1-1.33,1A2.78,2.78,0,0,1,85,373a2.6,2.6,0,0,1,.51,1.61,2.91,2.91,0,0,1-.89,2.21,3.41,3.41,0,0,1-2.39.83,4,4,0,0,1-1.75-.38,2.81,2.81,0,0,1-1.66-2.66h.87a2.15,2.15,0,0,0,.71,1.66,2.64,2.64,0,0,0,1.83.64,2.52,2.52,0,0,0,1.77-.58,2.19,2.19,0,0,0,.63-1.69,2,2,0,0,0-.68-1.63,3.1,3.1,0,0,0-2-.57H81Z"/><path d="M136.3,377.54h-6.68v-.68l3.65-4.14a9.36,9.36,0,0,0,1.26-1.73,2.84,2.84,0,0,0,.35-1.33,2.14,2.14,0,0,0-.59-1.6,2.22,2.22,0,0,0-1.63-.59,2.3,2.3,0,0,0-1.74.69,2.47,2.47,0,0,0-.66,1.79h-.88a3.35,3.35,0,0,1,.41-1.64,2.88,2.88,0,0,1,1.16-1.16,3.44,3.44,0,0,1,1.71-.43,3.25,3.25,0,0,1,2.29.77,2.75,2.75,0,0,1,.82,2.1,3.52,3.52,0,0,1-.46,1.63,12.14,12.14,0,0,1-1.64,2.21l-3,3.36h5.6Z"/><path d="M144.36,373.09a5.84,5.84,0,0,1-.83,3.42,2.78,2.78,0,0,1-2.43,1.17,2.83,2.83,0,0,1-2.43-1.14,5.69,5.69,0,0,1-.86-3.34v-1.91a5.78,5.78,0,0,1,.83-3.41,2.83,2.83,0,0,1,2.44-1.16,2.86,2.86,0,0,1,2.42,1.12,5.64,5.64,0,0,1,.86,3.29Zm-.88-1.91a5.28,5.28,0,0,0-.59-2.77,2.21,2.21,0,0,0-3.6,0,5,5,0,0,0-.61,2.7v2.09a5.11,5.11,0,0,0,.62,2.79,2,2,0,0,0,1.8,1,2,2,0,0,0,1.77-.94,5.22,5.22,0,0,0,.61-2.77Z"/><path d="M150.32,377.54h-.87v-9.61L146.54,369v-.82l3.64-1.35h.14Z"/><path d="M155.15,372.07l.52-5.2H161v.81h-4.57l-.38,3.61a3.48,3.48,0,0,1,2-.59,3,3,0,0,1,2.3.94,3.56,3.56,0,0,1,.86,2.5,3.76,3.76,0,0,1-.84,2.61,3,3,0,0,1-2.35.93,3.29,3.29,0,0,1-2.26-.77,3.2,3.2,0,0,1-1-2.18h.84a2.5,2.5,0,0,0,.74,1.65,2.38,2.38,0,0,0,1.66.56,2.07,2.07,0,0,0,1.72-.72,3.25,3.25,0,0,0,.59-2.07,2.8,2.8,0,0,0-.65-1.91,2.27,2.27,0,0,0-1.78-.74,3.25,3.25,0,0,0-1.09.16,2.86,2.86,0,0,0-1,.61Z"/><path d="M211.79,377.53h-6.68v-.67l3.65-4.15A9,9,0,0,0,210,371a3,3,0,0,0,.35-1.33,2.18,2.18,0,0,0-.59-1.6,2.23,2.23,0,0,0-1.63-.59,2.3,2.3,0,0,0-1.74.69,2.44,2.44,0,0,0-.67,1.79h-.87a3.35,3.35,0,0,1,.41-1.64,2.9,2.9,0,0,1,1.16-1.17,3.44,3.44,0,0,1,1.71-.42,3.23,3.23,0,0,1,2.28.77,2.73,2.73,0,0,1,.83,2.1,3.58,3.58,0,0,1-.47,1.63,12,12,0,0,1-1.63,2.21l-3,3.36h5.61Z"/><path d="M219.85,373.09a5.91,5.91,0,0,1-.83,3.42,3.13,3.13,0,0,1-4.86,0,5.7,5.7,0,0,1-.87-3.33v-1.91a5.78,5.78,0,0,1,.84-3.41,2.83,2.83,0,0,1,2.44-1.16,2.86,2.86,0,0,1,2.42,1.12,5.62,5.62,0,0,1,.86,3.29Zm-.88-1.91a5.18,5.18,0,0,0-.6-2.77,2,2,0,0,0-1.8-.94,2,2,0,0,0-1.79.92,5,5,0,0,0-.61,2.7v2.09a5.11,5.11,0,0,0,.62,2.79,2.15,2.15,0,0,0,3.57,0,5.22,5.22,0,0,0,.61-2.77Z"/><path d="M225.81,377.53h-.88v-9.61L222,369v-.82l3.64-1.35h.14Z"/><path d="M236.61,367.38l-4.55,10.15h-.92l4.53-9.91h-6.06v-.75h7Z"/><path d="M287.27,377.53h-6.68v-.67l3.66-4.15a10,10,0,0,0,1.26-1.72,3,3,0,0,0,.35-1.33,2.14,2.14,0,0,0-.6-1.6,2.2,2.2,0,0,0-1.63-.59,2.3,2.3,0,0,0-1.74.69,2.47,2.47,0,0,0-.66,1.79h-.87a3.35,3.35,0,0,1,.4-1.64,3,3,0,0,1,1.16-1.17,3.44,3.44,0,0,1,1.71-.42,3.24,3.24,0,0,1,2.29.77,2.73,2.73,0,0,1,.83,2.1,3.58,3.58,0,0,1-.47,1.63,12.14,12.14,0,0,1-1.64,2.21l-3,3.36h5.6Z"/><path d="M295.34,373.09a5.91,5.91,0,0,1-.83,3.42,3.13,3.13,0,0,1-4.86,0,5.63,5.63,0,0,1-.87-3.33v-1.91a5.78,5.78,0,0,1,.84-3.41,3.15,3.15,0,0,1,4.85,0,5.54,5.54,0,0,1,.87,3.29Zm-.88-1.91a5.18,5.18,0,0,0-.6-2.77,2.2,2.2,0,0,0-3.59,0,5,5,0,0,0-.62,2.7v2.09a5.2,5.2,0,0,0,.62,2.79,2.16,2.16,0,0,0,3.58,0,5.32,5.32,0,0,0,.61-2.77Z"/><path d="M301.3,377.53h-.88v-9.61l-2.9,1.08v-.82l3.63-1.35h.15Z"/><path d="M311,372.6a3.26,3.26,0,0,1-1.16,1.06,3.05,3.05,0,0,1-1.51.38,2.85,2.85,0,0,1-1.61-.47,3,3,0,0,1-1.07-1.29,4.23,4.23,0,0,1-.38-1.81,4.43,4.43,0,0,1,.4-1.92,3.16,3.16,0,0,1,1.14-1.35,3,3,0,0,1,1.68-.48,3,3,0,0,1,2.5,1.13,5,5,0,0,1,.89,3.19v.79a6.59,6.59,0,0,1-1.23,4.34,4.67,4.67,0,0,1-3.76,1.44h-.16v-.76h.31a3.93,3.93,0,0,0,2.91-1.08A4.63,4.63,0,0,0,311,372.6Zm-2.56.68a2.65,2.65,0,0,0,1.58-.52,2.89,2.89,0,0,0,1-1.36v-.5a4.13,4.13,0,0,0-.68-2.52,2.16,2.16,0,0,0-1.83-.89,2.06,2.06,0,0,0-1.7.83,3.25,3.25,0,0,0-.67,2.11,3.16,3.16,0,0,0,.64,2A2,2,0,0,0,308.44,373.28Z"/><path d="M362.76,377.53h-6.68v-.67l3.65-4.15A9,9,0,0,0,361,371a2.86,2.86,0,0,0,.36-1.33,2.14,2.14,0,0,0-.6-1.6,2.22,2.22,0,0,0-1.63-.59,2.3,2.3,0,0,0-1.74.69,2.47,2.47,0,0,0-.66,1.79h-.87a3.35,3.35,0,0,1,.4-1.64,3,3,0,0,1,1.16-1.17,3.44,3.44,0,0,1,1.71-.42,3.24,3.24,0,0,1,2.29.77,2.72,2.72,0,0,1,.82,2.1,3.55,3.55,0,0,1-.46,1.63,12.14,12.14,0,0,1-1.64,2.21l-3,3.36h5.6Z"/><path d="M370.82,373.09a5.92,5.92,0,0,1-.82,3.42,3.14,3.14,0,0,1-4.87,0,5.63,5.63,0,0,1-.86-3.33v-1.91a5.85,5.85,0,0,1,.83-3.41,3.16,3.16,0,0,1,4.86,0,5.55,5.55,0,0,1,.86,3.29Zm-.88-1.91a5.19,5.19,0,0,0-.59-2.77,2.21,2.21,0,0,0-3.6,0,5,5,0,0,0-.61,2.7v2.09a5.2,5.2,0,0,0,.62,2.79,2,2,0,0,0,1.8,1,2,2,0,0,0,1.77-.94,5.13,5.13,0,0,0,.61-2.77Z"/><path d="M379.39,377.53h-6.68v-.67l3.65-4.15a9,9,0,0,0,1.26-1.72,3,3,0,0,0,.35-1.33,2.18,2.18,0,0,0-.59-1.6,2.23,2.23,0,0,0-1.63-.59,2.3,2.3,0,0,0-1.74.69,2.44,2.44,0,0,0-.67,1.79h-.87a3.35,3.35,0,0,1,.41-1.64,2.9,2.9,0,0,1,1.16-1.17,3.44,3.44,0,0,1,1.71-.42,3.23,3.23,0,0,1,2.28.77,2.73,2.73,0,0,1,.83,2.1,3.58,3.58,0,0,1-.47,1.63,12,12,0,0,1-1.63,2.21l-3,3.36h5.61Z"/><path d="M385.1,377.53h-.88v-9.61l-2.9,1.08v-.82l3.63-1.35h.15Z"/><path d="M438.25,377.53h-6.68v-.67l3.65-4.15a9,9,0,0,0,1.26-1.72,2.84,2.84,0,0,0,.35-1.33,2.14,2.14,0,0,0-.59-1.6,2.23,2.23,0,0,0-1.63-.59,2.3,2.3,0,0,0-1.74.69,2.44,2.44,0,0,0-.67,1.79h-.87a3.35,3.35,0,0,1,.41-1.64,3,3,0,0,1,1.16-1.17,3.44,3.44,0,0,1,1.71-.42,3.25,3.25,0,0,1,2.29.77,2.76,2.76,0,0,1,.82,2.1,3.58,3.58,0,0,1-.47,1.63,12,12,0,0,1-1.63,2.21l-3,3.36h5.61Z"/><path d="M446.31,373.09a5.84,5.84,0,0,1-.83,3.42,3.13,3.13,0,0,1-4.86,0,5.63,5.63,0,0,1-.86-3.33v-1.91a5.78,5.78,0,0,1,.83-3.41,2.83,2.83,0,0,1,2.44-1.16,2.86,2.86,0,0,1,2.42,1.12,5.62,5.62,0,0,1,.86,3.29Zm-.88-1.91a5.18,5.18,0,0,0-.6-2.77,2,2,0,0,0-1.8-.94,2,2,0,0,0-1.79.92,5,5,0,0,0-.61,2.7v2.09a5.11,5.11,0,0,0,.62,2.79,2,2,0,0,0,1.79,1,2,2,0,0,0,1.78-.94,5.22,5.22,0,0,0,.61-2.77Z"/><path d="M454.87,377.53h-6.68v-.67l3.66-4.15a10,10,0,0,0,1.26-1.72,3,3,0,0,0,.35-1.33,2.18,2.18,0,0,0-.59-1.6,2.24,2.24,0,0,0-1.64-.59,2.3,2.3,0,0,0-1.74.69,2.47,2.47,0,0,0-.66,1.79H448a3.25,3.25,0,0,1,.41-1.64,2.94,2.94,0,0,1,1.15-1.17,3.44,3.44,0,0,1,1.71-.42,3.24,3.24,0,0,1,2.29.77,2.73,2.73,0,0,1,.83,2.1,3.58,3.58,0,0,1-.47,1.63,12.14,12.14,0,0,1-1.64,2.21l-3,3.36h5.6Z"/><path d="M458.45,371.73h.91a3.05,3.05,0,0,0,1.32-.27,2,2,0,0,0,.86-.73,2,2,0,0,0,.3-1.08,2.19,2.19,0,0,0-.58-1.6,2.24,2.24,0,0,0-1.66-.58,2.33,2.33,0,0,0-1.68.61,2,2,0,0,0-.66,1.59h-.88a2.82,2.82,0,0,1,.42-1.51A2.77,2.77,0,0,1,458,367.1a3.57,3.57,0,0,1,1.64-.38,3.22,3.22,0,0,1,2.28.79,2.84,2.84,0,0,1,.84,2.17,2.33,2.33,0,0,1-.49,1.42,2.92,2.92,0,0,1-1.34,1,2.7,2.7,0,0,1,1.51,1,2.6,2.6,0,0,1,.51,1.61,2.88,2.88,0,0,1-.89,2.21,3.39,3.39,0,0,1-2.39.83,4,4,0,0,1-1.74-.38,2.84,2.84,0,0,1-1.67-2.66h.88a2.11,2.11,0,0,0,.71,1.66,2.59,2.59,0,0,0,1.82.64,2.5,2.5,0,0,0,1.77-.58,2.19,2.19,0,0,0,.64-1.69,2,2,0,0,0-.69-1.63,3.1,3.1,0,0,0-2-.57h-.88Z"/><path d="M513.73,377.53h-6.68v-.67l3.66-4.15A10,10,0,0,0,512,371a3,3,0,0,0,.35-1.33,2.18,2.18,0,0,0-.59-1.6,2.24,2.24,0,0,0-1.64-.59,2.31,2.31,0,0,0-1.74.69,2.47,2.47,0,0,0-.66,1.79h-.87a3.25,3.25,0,0,1,.41-1.64,2.94,2.94,0,0,1,1.15-1.17,3.44,3.44,0,0,1,1.71-.42,3.24,3.24,0,0,1,2.29.77,2.73,2.73,0,0,1,.83,2.1,3.58,3.58,0,0,1-.47,1.63,12.14,12.14,0,0,1-1.64,2.21l-3,3.36h5.6Z"/><path d="M521.8,373.09a5.91,5.91,0,0,1-.83,3.42,3.13,3.13,0,0,1-4.86,0,5.63,5.63,0,0,1-.87-3.33v-1.91a5.78,5.78,0,0,1,.84-3.41,3.15,3.15,0,0,1,4.85,0,5.54,5.54,0,0,1,.87,3.29Zm-.88-1.91a5.18,5.18,0,0,0-.6-2.77,2.2,2.2,0,0,0-3.59,0,5,5,0,0,0-.62,2.7v2.09a5.2,5.2,0,0,0,.62,2.79,2.16,2.16,0,0,0,3.58,0,5.32,5.32,0,0,0,.61-2.77Z"/><path d="M530.36,377.53h-6.68v-.67l3.65-4.15a9,9,0,0,0,1.26-1.72,2.86,2.86,0,0,0,.36-1.33,2.14,2.14,0,0,0-.6-1.6,2.22,2.22,0,0,0-1.63-.59,2.3,2.3,0,0,0-1.74.69,2.47,2.47,0,0,0-.66,1.79h-.87a3.35,3.35,0,0,1,.4-1.64,3,3,0,0,1,1.16-1.17,3.44,3.44,0,0,1,1.71-.42,3.24,3.24,0,0,1,2.29.77,2.72,2.72,0,0,1,.82,2.1,3.55,3.55,0,0,1-.46,1.63,12.14,12.14,0,0,1-1.64,2.21l-3,3.36h5.6Z"/><path d="M532.58,372.07l.53-5.2h5.33v.81h-4.58l-.37,3.61a3.47,3.47,0,0,1,2-.59,3,3,0,0,1,2.3.94,3.56,3.56,0,0,1,.86,2.5,3.76,3.76,0,0,1-.84,2.61,3,3,0,0,1-2.35.93,3.23,3.23,0,0,1-2.25-.78,3.12,3.12,0,0,1-1-2.17h.84a2.5,2.5,0,0,0,.74,1.65,2.38,2.38,0,0,0,1.66.56,2.1,2.1,0,0,0,1.73-.72,3.25,3.25,0,0,0,.58-2.07,2.8,2.8,0,0,0-.65-1.91,2.27,2.27,0,0,0-1.78-.74,3.25,3.25,0,0,0-1.09.16,3,3,0,0,0-1,.61Z"/><path d="M589.22,377.53h-6.68v-.67l3.66-4.15a10,10,0,0,0,1.26-1.72,3,3,0,0,0,.35-1.33,2.14,2.14,0,0,0-.6-1.6,2.22,2.22,0,0,0-1.63-.59,2.3,2.3,0,0,0-1.74.69,2.47,2.47,0,0,0-.66,1.79h-.87a3.35,3.35,0,0,1,.4-1.64,3,3,0,0,1,1.16-1.17,3.44,3.44,0,0,1,1.71-.42,3.24,3.24,0,0,1,2.29.77,2.72,2.72,0,0,1,.82,2.1,3.55,3.55,0,0,1-.46,1.63,12.14,12.14,0,0,1-1.64,2.21l-3,3.36h5.6Z"/><path d="M597.28,373.09a5.92,5.92,0,0,1-.82,3.42,3.14,3.14,0,0,1-4.87,0,5.63,5.63,0,0,1-.86-3.33v-1.91a5.85,5.85,0,0,1,.83-3.41,3.16,3.16,0,0,1,4.86,0,5.55,5.55,0,0,1,.86,3.29Zm-.87-1.91a5.18,5.18,0,0,0-.6-2.77,2.2,2.2,0,0,0-3.59,0,5,5,0,0,0-.62,2.7v2.09a5.2,5.2,0,0,0,.62,2.79,2,2,0,0,0,1.8,1,2,2,0,0,0,1.77-.94,5.21,5.21,0,0,0,.62-2.77Z"/><path d="M605.85,377.53h-6.68v-.67l3.65-4.15a9,9,0,0,0,1.26-1.72,2.84,2.84,0,0,0,.35-1.33,2.14,2.14,0,0,0-.59-1.6,2.23,2.23,0,0,0-1.63-.59,2.3,2.3,0,0,0-1.74.69,2.44,2.44,0,0,0-.67,1.79h-.87a3.35,3.35,0,0,1,.41-1.64,3,3,0,0,1,1.16-1.17,3.44,3.44,0,0,1,1.71-.42,3.25,3.25,0,0,1,2.29.77,2.76,2.76,0,0,1,.82,2.1,3.58,3.58,0,0,1-.47,1.63,12,12,0,0,1-1.63,2.21l-3,3.36h5.61Z"/><path d="M614.05,367.38l-4.56,10.15h-.91l4.52-9.91H607v-.75h7Z"/><path d="M664.71,377.53H658v-.67l3.65-4.15a9,9,0,0,0,1.26-1.72,2.84,2.84,0,0,0,.35-1.33,2.14,2.14,0,0,0-.59-1.6,2.23,2.23,0,0,0-1.63-.59,2.3,2.3,0,0,0-1.74.69,2.44,2.44,0,0,0-.67,1.79h-.87a3.39,3.39,0,0,1,.41-1.65,2.94,2.94,0,0,1,1.16-1.16,3.44,3.44,0,0,1,1.71-.42,3.25,3.25,0,0,1,2.29.77,2.76,2.76,0,0,1,.82,2.1,3.58,3.58,0,0,1-.47,1.63,12,12,0,0,1-1.63,2.21l-3,3.36h5.61Z"/><path d="M672.77,373.09a5.91,5.91,0,0,1-.83,3.42,3.13,3.13,0,0,1-4.86,0,5.7,5.7,0,0,1-.87-3.33v-1.91a5.78,5.78,0,0,1,.84-3.41,3.16,3.16,0,0,1,4.86,0,5.62,5.62,0,0,1,.86,3.29Zm-.88-1.91a5.18,5.18,0,0,0-.6-2.77,2,2,0,0,0-1.8-.94,2,2,0,0,0-1.79.91,5.1,5.1,0,0,0-.61,2.71v2.09a5.11,5.11,0,0,0,.62,2.79,2.15,2.15,0,0,0,3.57,0,5.22,5.22,0,0,0,.61-2.77Z"/><path d="M681.33,377.53h-6.68v-.67l3.66-4.15a10,10,0,0,0,1.26-1.72,3,3,0,0,0,.35-1.33,2.18,2.18,0,0,0-.59-1.6,2.24,2.24,0,0,0-1.64-.59,2.3,2.3,0,0,0-1.74.69,2.47,2.47,0,0,0-.66,1.79h-.87a3.29,3.29,0,0,1,.41-1.65,2.92,2.92,0,0,1,1.15-1.16,3.44,3.44,0,0,1,1.71-.42,3.24,3.24,0,0,1,2.29.77,2.73,2.73,0,0,1,.83,2.1,3.58,3.58,0,0,1-.47,1.63,12.14,12.14,0,0,1-1.64,2.21l-3,3.36h5.6Z"/><path d="M688.44,372.6a3.29,3.29,0,0,1-1.17,1.06,3.11,3.11,0,0,1-1.51.38,2.81,2.81,0,0,1-1.6-.47,3.09,3.09,0,0,1-1.08-1.3,4.31,4.31,0,0,1-.38-1.81,4.42,4.42,0,0,1,.41-1.91,3.21,3.21,0,0,1,1.13-1.35,3.27,3.27,0,0,1,4.18.65,5,5,0,0,1,.9,3.19v.79a6.54,6.54,0,0,1-1.23,4.33,4.66,4.66,0,0,1-3.76,1.45h-.16v-.76h.31a3.9,3.9,0,0,0,2.91-1.08A4.7,4.7,0,0,0,688.44,372.6Zm-2.57.68a2.6,2.6,0,0,0,1.58-.52,2.84,2.84,0,0,0,1-1.36v-.5a4.13,4.13,0,0,0-.68-2.52,2.17,2.17,0,0,0-1.83-.9,2.1,2.1,0,0,0-1.71.84,3.3,3.3,0,0,0-.66,2.11,3.16,3.16,0,0,0,.64,2A2,2,0,0,0,685.87,373.28Z"/><path class="cls-2" d="M44.31,355H729.78"/><path class="cls-3" d="M5.8,355h724"/><path class="cls-3" d="M5.8,303.75h724"/><path class="cls-3" d="M5.8,252.49h724"/><path class="cls-3" d="M5.8,201.22h724"/><path class="cls-3" d="M5.8,150h724"/><path class="cls-3" d="M5.8,98.7h724"/><path d="M12.5,347.09a5.89,5.89,0,0,1-.83,3.42,2.8,2.8,0,0,1-2.44,1.17,2.86,2.86,0,0,1-2.43-1.14,5.76,5.76,0,0,1-.86-3.34v-1.91a5.78,5.78,0,0,1,.84-3.41,2.8,2.8,0,0,1,2.43-1.15,2.83,2.83,0,0,1,2.42,1.11,5.56,5.56,0,0,1,.87,3.29Zm-.88-1.91a5.2,5.2,0,0,0-.6-2.77,2,2,0,0,0-1.81-.94,2,2,0,0,0-1.78.92,5,5,0,0,0-.62,2.7v2.1A5.24,5.24,0,0,0,7.43,350a2,2,0,0,0,1.8,1A2,2,0,0,0,11,350a5.29,5.29,0,0,0,.61-2.77Z"/><path d="M12.5,295.59a5.91,5.91,0,0,1-.83,3.42,2.8,2.8,0,0,1-2.44,1.17A2.84,2.84,0,0,1,6.8,299a5.71,5.71,0,0,1-.86-3.33v-1.91a5.78,5.78,0,0,1,.84-3.41,2.81,2.81,0,0,1,2.43-1.16,2.84,2.84,0,0,1,2.42,1.12,5.54,5.54,0,0,1,.87,3.29Zm-.88-1.91a5.18,5.18,0,0,0-.6-2.77A2,2,0,0,0,9.21,290a2,2,0,0,0-1.78.92,5,5,0,0,0-.62,2.7v2.09a5.2,5.2,0,0,0,.62,2.79,2,2,0,0,0,1.8,1A2,2,0,0,0,11,298.5a5.32,5.32,0,0,0,.61-2.77Z"/><path d="M14.33,302l-.52-.38a3.15,3.15,0,0,0,.69-1.86v-1.13h.86v.91A3.14,3.14,0,0,1,14.33,302Z"/><path d="M17.84,294.57l.52-5.2H23.7v.81H19.12l-.38,3.61a3.48,3.48,0,0,1,2-.59,3,3,0,0,1,2.3.94,3.56,3.56,0,0,1,.86,2.5,3.76,3.76,0,0,1-.84,2.61,3,3,0,0,1-2.35.93,3.25,3.25,0,0,1-2.26-.78,3.16,3.16,0,0,1-1-2.17h.84a2.5,2.5,0,0,0,.74,1.65,2.38,2.38,0,0,0,1.66.56,2.1,2.1,0,0,0,1.73-.72,3.31,3.31,0,0,0,.58-2.07,2.8,2.8,0,0,0-.65-1.91A2.27,2.27,0,0,0,20.6,294a3.25,3.25,0,0,0-1.09.16,3,3,0,0,0-1,.61Z"/><path d="M10.14,248.54H9.27v-9.61L6.37,240v-.82L10,237.83h.14Z"/><path d="M14.33,250.53l-.52-.38a3.15,3.15,0,0,0,.69-1.86v-1.13h.86v.91A3.14,3.14,0,0,1,14.33,250.53Z"/><path d="M23.68,244.09a5.91,5.91,0,0,1-.83,3.42,2.79,2.79,0,0,1-2.44,1.17A2.83,2.83,0,0,1,18,247.54a5.76,5.76,0,0,1-.87-3.34v-1.91a5.78,5.78,0,0,1,.84-3.41,2.82,2.82,0,0,1,2.44-1.15,2.86,2.86,0,0,1,2.42,1.11,5.64,5.64,0,0,1,.86,3.29Zm-.88-1.91a5.18,5.18,0,0,0-.6-2.77,2,2,0,0,0-1.8-.94,2,2,0,0,0-1.79.92,5,5,0,0,0-.61,2.7v2.1a5.15,5.15,0,0,0,.62,2.79,2,2,0,0,0,1.79,1,2,2,0,0,0,1.78-.94,5.32,5.32,0,0,0,.61-2.77Z"/><path d="M10.14,197H9.27v-9.61l-2.9,1.08v-.82L10,186.33h.14Z"/><path d="M14.33,199l-.52-.38a3.15,3.15,0,0,0,.69-1.86v-1.13h.86v.91A3.14,3.14,0,0,1,14.33,199Z"/><path d="M17.84,191.57l.52-5.2H23.7v.81H19.12l-.38,3.61a3.48,3.48,0,0,1,2-.59,3,3,0,0,1,2.3.94,3.56,3.56,0,0,1,.86,2.5,3.76,3.76,0,0,1-.84,2.61,3,3,0,0,1-2.35.93,3.25,3.25,0,0,1-2.26-.78,3.16,3.16,0,0,1-1-2.17h.84a2.5,2.5,0,0,0,.74,1.65,2.38,2.38,0,0,0,1.66.56,2.1,2.1,0,0,0,1.73-.72,3.31,3.31,0,0,0,.58-2.07,2.8,2.8,0,0,0-.65-1.91A2.27,2.27,0,0,0,20.6,191a3.25,3.25,0,0,0-1.09.16,3,3,0,0,0-1,.61Z"/><path d="M12.75,145.53H6.07v-.67l3.65-4.15A8.74,8.74,0,0,0,11,139a2.9,2.9,0,0,0,.35-1.32,2.18,2.18,0,0,0-.59-1.6,2.23,2.23,0,0,0-1.63-.59,2.3,2.3,0,0,0-1.74.69,2.43,2.43,0,0,0-.67,1.78H5.83a3.38,3.38,0,0,1,.41-1.64,2.92,2.92,0,0,1,1.15-1.16,3.45,3.45,0,0,1,1.72-.42,3.23,3.23,0,0,1,2.28.77,2.73,2.73,0,0,1,.83,2.1,3.58,3.58,0,0,1-.47,1.63,12,12,0,0,1-1.63,2.21l-3,3.36h5.61Z"/><path d="M14.33,147.52l-.52-.38a3.1,3.1,0,0,0,.69-1.85v-1.13h.86v.91A3.12,3.12,0,0,1,14.33,147.52Z"/><path d="M23.68,141.09a5.91,5.91,0,0,1-.83,3.42,2.79,2.79,0,0,1-2.44,1.17A2.81,2.81,0,0,1,18,144.53a5.7,5.7,0,0,1-.87-3.33v-1.91a5.78,5.78,0,0,1,.84-3.41,2.83,2.83,0,0,1,2.44-1.16,2.84,2.84,0,0,1,2.42,1.12,5.62,5.62,0,0,1,.86,3.29Zm-.88-1.91a5.16,5.16,0,0,0-.6-2.77,2,2,0,0,0-1.8-.94,2,2,0,0,0-1.79.91,5.1,5.1,0,0,0-.61,2.71v2.09a5.11,5.11,0,0,0,.62,2.79,2.14,2.14,0,0,0,3.57,0,5.28,5.28,0,0,0,.61-2.76Z"/><path d="M12.8,94.38H6.12v-.67l3.65-4.15A9,9,0,0,0,11,87.83a2.9,2.9,0,0,0,.35-1.32,2.16,2.16,0,0,0-.59-1.6,2.23,2.23,0,0,0-1.63-.59A2.3,2.3,0,0,0,7.42,85a2.43,2.43,0,0,0-.67,1.78H5.88a3.38,3.38,0,0,1,.41-1.64A2.88,2.88,0,0,1,7.45,84a3.44,3.44,0,0,1,1.71-.42,3.23,3.23,0,0,1,2.28.77,2.73,2.73,0,0,1,.83,2.1,3.58,3.58,0,0,1-.47,1.63,12,12,0,0,1-1.63,2.21l-3,3.36H12.8Z"/><path d="M14.38,96.37,13.86,96a3.1,3.1,0,0,0,.69-1.85V93h.86v.92A3.12,3.12,0,0,1,14.38,96.37Z"/><path d="M17.89,88.92l.52-5.2h5.34v.81H19.17l-.38,3.6a3.47,3.47,0,0,1,2-.58,3,3,0,0,1,2.3.94A3.54,3.54,0,0,1,24,91a3.77,3.77,0,0,1-.84,2.62,3,3,0,0,1-2.35.93,3.25,3.25,0,0,1-2.26-.78,3.18,3.18,0,0,1-1-2.17h.84a2.55,2.55,0,0,0,.74,1.65,2.38,2.38,0,0,0,1.66.56,2.08,2.08,0,0,0,1.73-.73A3.26,3.26,0,0,0,23.08,91a2.8,2.8,0,0,0-.65-1.91,2.24,2.24,0,0,0-1.78-.74,3.54,3.54,0,0,0-1.09.15,2.91,2.91,0,0,0-1,.62Z"/><path d="M30.2,86.46l0,1.29a2.92,2.92,0,0,1,1.1-1.08,3,3,0,0,1,1.46-.36,2.22,2.22,0,0,1,2.38,1.54,3,3,0,0,1,1.14-1.14,3.07,3.07,0,0,1,1.56-.4c1.7,0,2.57.93,2.6,2.78v5.29h-.88V89.16a2.36,2.36,0,0,0-.45-1.58,1.87,1.87,0,0,0-1.47-.51,2.39,2.39,0,0,0-1.6.61,2.2,2.2,0,0,0-.72,1.46v5.24h-.88V89.09A2.25,2.25,0,0,0,34,87.57a1.94,1.94,0,0,0-1.46-.5,2.25,2.25,0,0,0-1.42.47A2.85,2.85,0,0,0,30.23,89v5.43h-.87V86.46Z"/><path d="M43.67,94.38h-.88V83.13h.88Z"/><path d="M45.7,90.35a4.77,4.77,0,0,1,.83-2.94,2.65,2.65,0,0,1,2.23-1.1,2.75,2.75,0,0,1,2.45,1.27V83.13h.87V94.38h-.82l0-1a2.85,2.85,0,0,1-2.48,1.2,2.66,2.66,0,0,1-2.21-1.1,4.81,4.81,0,0,1-.84-3Zm.89.15a4.09,4.09,0,0,0,.61,2.39,1.94,1.94,0,0,0,1.71.88,2.36,2.36,0,0,0,2.3-1.43V88.62a2.34,2.34,0,0,0-2.28-1.55,2,2,0,0,0-1.72.87A4.34,4.34,0,0,0,46.59,90.5Z"/><path d="M54.31,93.85a.58.58,0,0,1,.62-.61.59.59,0,0,1,.46.18.61.61,0,0,1,.17.43.58.58,0,0,1-.17.43.61.61,0,0,1-.46.16.63.63,0,0,1-.46-.16A.57.57,0,0,1,54.31,93.85Z"/><path d="M68,90.5a4.73,4.73,0,0,1-.82,2.94A2.61,2.61,0,0,1,65,94.53a3,3,0,0,1-2.49-1.14v4h-.87v-11h.81l0,1.12A2.8,2.8,0,0,1,65,86.31a2.63,2.63,0,0,1,2.23,1.08,4.85,4.85,0,0,1,.81,3Zm-.88-.15a4.14,4.14,0,0,0-.62-2.4,2,2,0,0,0-1.74-.88,2.41,2.41,0,0,0-1.38.39,2.48,2.48,0,0,0-.89,1.13v3.8a2.36,2.36,0,0,0,.9,1,2.62,2.62,0,0,0,1.39.36,2,2,0,0,0,1.72-.88A4.4,4.4,0,0,0,67.11,90.35Z"/><path d="M69.45,90.3a4.75,4.75,0,0,1,.44-2.06A3.33,3.33,0,0,1,73,86.31a3.25,3.25,0,0,1,2.56,1.11,4.25,4.25,0,0,1,1,2.94v.18a4.63,4.63,0,0,1-.44,2.07A3.22,3.22,0,0,1,74.83,94a3.45,3.45,0,0,1-1.84.5,3.27,3.27,0,0,1-2.56-1.11,4.3,4.3,0,0,1-1-2.94Zm.88.24a3.62,3.62,0,0,0,.73,2.34,2.5,2.5,0,0,0,3.86,0,3.72,3.72,0,0,0,.73-2.41V90.3a3.94,3.94,0,0,0-.34-1.66,2.68,2.68,0,0,0-.94-1.17A2.47,2.47,0,0,0,73,87.06a2.32,2.32,0,0,0-1.91.92,3.66,3.66,0,0,0-.74,2.4Z"/><path d="M80.69,93.17l2.41-6.71H84l-3,7.92h-.71l-3-7.92h.9Z"/><path d="M84.84,90.3a4.62,4.62,0,0,1,.45-2.06,3.33,3.33,0,0,1,1.25-1.42,3.36,3.36,0,0,1,1.83-.51,3.27,3.27,0,0,1,2.57,1.11,4.3,4.3,0,0,1,1,2.94v.18a4.76,4.76,0,0,1-.44,2.07A3.34,3.34,0,0,1,90.23,94a3.45,3.45,0,0,1-1.84.5,3.27,3.27,0,0,1-2.56-1.11,4.25,4.25,0,0,1-1-2.94Zm.88.24a3.62,3.62,0,0,0,.74,2.34,2.49,2.49,0,0,0,3.85,0,3.73,3.73,0,0,0,.74-2.41V90.3a4.1,4.1,0,0,0-.34-1.66,2.75,2.75,0,0,0-.94-1.17,2.48,2.48,0,0,0-1.4-.41,2.33,2.33,0,0,0-1.91.92,3.72,3.72,0,0,0-.74,2.4Z"/><path d="M94.71,94.38h-.88V83.13h.88Z"/><path d="M100.16,94.53a3.47,3.47,0,0,1-1.83-.5,3.36,3.36,0,0,1-1.27-1.39,4.35,4.35,0,0,1-.45-2v-.32a4.61,4.61,0,0,1,.44-2.06,3.54,3.54,0,0,1,1.23-1.44,3.13,3.13,0,0,1,1.72-.52,2.87,2.87,0,0,1,2.29,1,4,4,0,0,1,.84,2.69v.49H97.48v.17a3.35,3.35,0,0,0,.77,2.24,2.46,2.46,0,0,0,2,.9,2.89,2.89,0,0,0,1.24-.26,2.65,2.65,0,0,0,1-.82l.55.42A3.2,3.2,0,0,1,100.16,94.53ZM100,87.06a2.2,2.2,0,0,0-1.67.72,3.35,3.35,0,0,0-.82,2h4.75v-.09a2.85,2.85,0,0,0-.65-1.86A2,2,0,0,0,100,87.06Z"/><path d="M105.67,86.46l0,1.35a3.05,3.05,0,0,1,1.12-1.11,2.84,2.84,0,0,1,1.47-.39,2.39,2.39,0,0,1,1.9.72,3.28,3.28,0,0,1,.63,2.15v5.2h-.88V89.17a2.38,2.38,0,0,0-.45-1.58,1.76,1.76,0,0,0-1.41-.52,2.19,2.19,0,0,0-1.44.51,3,3,0,0,0-.93,1.37v5.43h-.87V86.46Z"/><path d="M113,84.17a.57.57,0,0,1,.16-.42.59.59,0,0,1,.44-.17.6.6,0,0,1,.44.17.57.57,0,0,1,.17.42.57.57,0,0,1-.17.41.6.6,0,0,1-.44.17.59.59,0,0,1-.44-.17A.56.56,0,0,1,113,84.17Zm1,10.21h-.88V86.46h.88Z"/><path d="M119.51,94.53a3.47,3.47,0,0,1-1.83-.5,3.36,3.36,0,0,1-1.27-1.39,4.35,4.35,0,0,1-.45-2v-.32a4.61,4.61,0,0,1,.44-2.06,3.62,3.62,0,0,1,1.23-1.44,3.13,3.13,0,0,1,1.72-.52,2.87,2.87,0,0,1,2.29,1,4,4,0,0,1,.84,2.69v.49h-5.65v.17a3.35,3.35,0,0,0,.77,2.24,2.46,2.46,0,0,0,2,.9,2.89,2.89,0,0,0,1.24-.26,2.65,2.65,0,0,0,1-.82l.55.42A3.2,3.2,0,0,1,119.51,94.53Zm-.16-7.47a2.2,2.2,0,0,0-1.67.72,3.41,3.41,0,0,0-.82,2h4.75v-.09a2.85,2.85,0,0,0-.65-1.86A2,2,0,0,0,119.35,87.06Z"/><path d="M126.07,90.39l-1,1v3h-.88V83.13h.88v7.2l.83-.89,3-3H130l-3.36,3.34,3.66,4.58h-1.05Z"/><path d="M17.61,13.88v13.3H15V23.91c.08-1.62.14-3.23.21-4.85l-.09,0-1.2,3.49-.67,1.81H10.57L9.9,22.52,8.7,19l-.09,0c.06,1.62.13,3.23.19,4.85v3.27H6.18V13.88H8.89l2.09,5c.27.67.73,1.83.88,2.32h.07c.15-.49.61-1.65.88-2.32l2.09-5Z"/><path d="M26.79,25H24l-.44,2.21H20.75l3.19-13.3h2.89L30,27.18H27.23Zm-.53-2.56L26,20.89c-.18-.95-.4-2.57-.54-3.65h-.07c-.14,1.08-.34,2.7-.53,3.65l-.31,1.52Z"/><path d="M38.19,27.18l-1.59-4-1.62,4H32l3.13-6.88-2.94-6.42h2.94l1.45,3.61L38,13.88H41L38,20.3l3.13,6.88Z"/><path d="M47,13.88v13.3h-2.7V13.88Z"/><path d="M62.7,13.88v13.3H60.06V23.91c.08-1.62.13-3.23.21-4.85l-.1,0L59,22.52l-.67,1.81H55.65L55,22.52,53.79,19l-.09,0c0,1.62.13,3.23.19,4.85v3.27H51.26V13.88H54l2.09,5c.27.67.72,1.83.87,2.32H57c.15-.49.61-1.65.87-2.32l2.09-5Z"/><path d="M71.88,25H69.07l-.44,2.21H65.84L69,13.88h2.89l3.19,13.3h-2.8ZM71,12.6H69.16L71,10h2.14Zm.4,9.81L71,20.89c-.17-.95-.4-2.57-.53-3.65h-.08c-.13,1.08-.34,2.7-.53,3.65l-.3,1.52Z"/><path d="M84.89,24.61v2.57H78.24V13.88h2.7V24.61Z"/><path d="M96.56,13.88v13.3H93.9L91.66,22l-1.2-3.25-.06.06a53.8,53.8,0,0,1,.35,5.64v2.7H88.08V13.88h2.67l2.52,5.77c.32.84.63,1.71,1,2.55l.06-.06A45.44,45.44,0,0,1,93.9,17V13.88Z"/><path d="M107.86,24.61v2.57h-7V13.88h6.86v2.56h-4.16V19.2h3.78v2.47h-3.78v2.94Z"/><path d="M128.74,13.88v13.3H126.1V23.91c.08-1.62.14-3.23.21-4.85l-.09,0L125,22.52l-.67,1.81H121.7L121,22.52,119.83,19l-.09,0c.05,1.62.13,3.23.19,4.85v3.27h-2.62V13.88H120l2.09,5c.27.67.72,1.83.88,2.32h.07c.15-.49.61-1.65.88-2.32l2.09-5Z"/><path d="M141.47,13.88v13.3h-2.66L136.57,22l-1.19-3.25-.06.06a53.69,53.69,0,0,1,.34,5.64v2.7H133V13.88h2.66l2.53,5.77c.32.84.62,1.71.95,2.55l.05-.06a47.86,47.86,0,0,1-.38-5.18V13.88Z"/><path d="M145.35,22.86V18.19c0-2.85,1.62-4.54,4.31-4.54S154,15.34,154,18.19v4.67c0,2.85-1.62,4.54-4.32,4.54S145.35,25.71,145.35,22.86Zm5.83,0V18.19c0-1.25-.51-1.92-1.52-1.92s-1.52.67-1.52,1.92v4.67c0,1.26.52,1.92,1.52,1.92S151.18,24.12,151.18,22.86Z"/><path d="M164.54,24.61v2.57h-7.62V25.37l4.22-8.93h-3.89V13.88h7.19v1.86l-4.17,8.87Zm-4.6-12L158.4,10h1.69l.84,1.27.82-1.27h1.69l-1.54,2.6Z"/><path d="M167.16,23.3h2.78c0,1.06.53,1.52,1.38,1.52s1.33-.51,1.33-1.18c0-2.2-5.2-2.47-5.2-6.51,0-2,1.42-3.52,3.87-3.52a3.62,3.62,0,0,1,3.94,3.92h-2.78c0-.88-.4-1.32-1.18-1.32s-1.12.38-1.12,1c0,2.09,5.28,2.22,5.28,6.46,0,2.19-1.53,3.78-4.17,3.78A3.78,3.78,0,0,1,167.16,23.3Z"/><path d="M186.07,16.44h-2.61V27.18h-2.77V16.44h-2.6V13.88h8Z"/><path d="M188.31,13.88h2.79l1.2,6.29c.19,1,.42,2.6.55,3.7h.07c.14-1.1.37-2.74.56-3.7l1.19-6.29h2.8l-3.16,13.3h-2.85Z"/><path d="M200.22,22.86V18.19c0-2.85,1.62-4.54,4.31-4.54s4.32,1.69,4.32,4.54v4.67c0,2.85-1.62,4.54-4.32,4.54S200.22,25.71,200.22,22.86Zm5.83,0V18.19c0-1.25-.51-1.92-1.52-1.92s-1.52.67-1.52,1.92v4.67c0,1.26.52,1.92,1.52,1.92S206.05,24.12,206.05,22.86Z"/><path d="M223.34,25h-2.81l-.43,2.21h-2.8l3.19-13.3h2.89l3.19,13.3h-2.79Zm-.53-2.56-.3-1.52c-.17-.95-.4-2.57-.53-3.65h-.08c-.13,1.08-.34,2.7-.53,3.65l-.31,1.52Z"/><path d="M236.36,24.61v2.57h-6.65V13.88h2.7V24.61Z"/><path d="M239.17,22.86V18.19c0-2.85,1.62-4.54,4.31-4.54s4.32,1.69,4.32,4.54v4.67c0,2.85-1.62,4.54-4.32,4.54S239.17,25.71,239.17,22.86Zm5.83,0V18.19c0-1.25-.51-1.92-1.52-1.92s-1.52.67-1.52,1.92v4.67c0,1.26.52,1.92,1.52,1.92S245,24.12,245,22.86Z"/><path d="M255.07,22.14l-.74,1.2v3.84h-2.66V13.88h2.66V19l.69-1.48,1.86-3.61H260l-3.39,5.81,4,7.49h-3Z"/><path d="M262.92,22.86V18.19c0-2.85,1.62-4.54,4.31-4.54s4.32,1.69,4.32,4.54v4.67c0,2.85-1.62,4.54-4.32,4.54S262.92,25.71,262.92,22.86Zm5.83,0V18.19c0-1.25-.51-1.92-1.52-1.92s-1.52.67-1.52,1.92v4.67c0,1.26.52,1.92,1.52,1.92S268.75,24.12,268.75,22.86Z"/><path d="M274.3,13.88h2.8l1.19,6.29c.19,1,.42,2.6.55,3.7h.08c.13-1.1.36-2.74.55-3.7l1.2-6.29h2.79l-3.15,13.3h-2.85Z"/><path d="M290.87,25h-2.81l-.44,2.21h-2.79L288,13.88h2.89l3.19,13.3h-2.79Zm-.53-2.56L290,20.89c-.17-.95-.4-2.57-.53-3.65h-.07c-.14,1.08-.35,2.7-.54,3.65l-.3,1.52Z"/><path d="M305.71,13.88v13.3h-2.66L300.81,22l-1.2-3.25-.06.06a53.8,53.8,0,0,1,.35,5.64v2.7h-2.66V13.88h2.66l2.52,5.77c.32.84.63,1.71.95,2.55l.06-.06a45.44,45.44,0,0,1-.38-5.18V13.88Z"/><path d="M311.92,23.22l-3.13-9.34h2.79l1.08,3.68c.14.44.44,1.48.57,2.13h.08c.15-.65.45-1.69.61-2.18l1-3.63h2.79l-3.13,9.34v4h-2.7ZM313.75,10h2.14l-2.14,2.6H312Z"/><path d="M320.45,23.11V17.94c0-2.81,1.52-4.33,4.13-4.33s4.14,1.52,4.23,4.33h-2.7c-.07-1.21-.53-1.71-1.55-1.71-.82,0-1.3.54-1.3,1.71v5.17c0,1.14.46,1.67,1.3,1.67,1,0,1.52-.49,1.59-1.67h2.7c-.06,2.79-1.6,4.29-4.29,4.29S320.45,25.9,320.45,23.11Z"/><path d="M340.48,13.88v13.3h-2.72V21.76H335v5.42h-2.72V13.88H335V19.2h2.73V13.88Z"/><path d="M358.68,18.4c0,2.83-1.63,4.5-4.39,4.5h-1.16v4.28h-2.7V13.88h3.86C357.05,13.88,358.68,15.55,358.68,18.4Zm-2.77,0c0-1.29-.57-2-1.66-2h-1.12v3.9h1.12C355.34,20.34,355.91,19.67,355.91,18.4Z"/><path d="M361.91,22.86V18.19c0-2.85,1.62-4.54,4.31-4.54s4.32,1.69,4.32,4.54v4.67c0,2.85-1.62,4.54-4.32,4.54S361.91,25.71,361.91,22.86Zm5.83,0V18.19c0-1.25-.51-1.92-1.52-1.92s-1.52.67-1.52,1.92v4.67c0,1.26.52,1.92,1.52,1.92S367.74,24.12,367.74,22.86Z"/><path d="M373.29,13.88h2.79l1.2,6.29c.19,1,.42,2.6.55,3.7h.08c.13-1.1.36-2.74.55-3.7l1.2-6.29h2.79l-3.16,13.3h-2.84Z"/><path d="M385.2,22.86V18.19c0-2.85,1.62-4.54,4.32-4.54s4.31,1.69,4.31,4.54v4.67c0,2.85-1.62,4.54-4.31,4.54S385.2,25.71,385.2,22.86Zm5.84,0V18.19c0-1.25-.52-1.92-1.52-1.92s-1.52.67-1.52,1.92v4.67c0,1.26.51,1.92,1.52,1.92S391,24.12,391,22.86Z"/><path d="M404.36,24.61v2.57h-6.65V13.88h2.69V24.61Z"/><path d="M414.6,24.61v2.57h-7.05V13.88h6.86v2.56h-4.16V19.2H414v2.47h-3.78v2.94Z"/><path d="M426.81,13.88v13.3h-2.66L421.91,22l-1.2-3.25,0,.06a53.69,53.69,0,0,1,.34,5.64v2.7h-2.66V13.88H421l2.53,5.77c.32.84.62,1.71.94,2.55l.06-.06a45.44,45.44,0,0,1-.38-5.18V13.88Z"/><path d="M433.77,13.88v13.3h-2.7V13.88Z"/><path d="M445.07,24.61v2.57H438V13.88h6.86v2.56h-4.16V19.2h3.78v2.47h-3.78v2.94Z"/><path d="M452.21,22.14l-.74,1.2v3.84h-2.66V13.88h2.66V19l.69-1.48L454,13.88h3.08l-3.38,5.81,3.95,7.49h-3Z"/><path d="M465.33,13.88h2.79l1.2,6.29c.19,1,.41,2.6.55,3.7h.07c.14-1.1.36-2.74.55-3.7l1.2-6.29h2.79l-3.15,13.3h-2.85Z"/><path d="M482.14,27.4c1.46,0,2.28-.49,2.28-2.26V13.88h2.7V25.16c0,3-1.67,4.92-5,4.92Z"/><path d="M498.37,24.61v2.57h-7.05V13.88h6.86v2.56H494V19.2h3.79v2.47H494v2.94Z"/><path d="M502.11,13.88h3.65c2.68,0,4.25,1.63,4.25,4.41v4.38c0,2.83-1.56,4.51-4.22,4.51h-3.68Zm3.68,10.73c1,0,1.49-.66,1.49-1.94V18.29c0-1.22-.52-1.85-1.49-1.85h-1v8.17Z"/><path d="M522.36,13.88v13.3H519.7L517.46,22l-1.2-3.25,0,.06a53.69,53.69,0,0,1,.34,5.64v2.7h-2.66V13.88h2.66l2.53,5.77c.32.84.62,1.71.94,2.55l.06-.06A45.44,45.44,0,0,1,519.7,17V13.88Z"/><path d="M526.24,22.86V18.19c0-2.85,1.61-4.54,4.31-4.54s4.31,1.69,4.31,4.54v4.67c0,2.85-1.61,4.54-4.31,4.54S526.24,25.71,526.24,22.86Zm5.83,0V18.19c0-1.25-.51-1.92-1.52-1.92s-1.52.67-1.52,1.92v4.67c0,1.26.51,1.92,1.52,1.92S532.07,24.12,532.07,22.86Z"/><path d="M545.83,16.44h-2.61V27.18h-2.77V16.44h-2.6V13.88h8Z"/><path d="M555.65,24.61v2.57H549V13.88h2.7V24.61Z"/><path d="M561.54,13.88v13.3h-2.7V13.88Z"/><path d="M564.68,13.88h2.79l1.2,6.29c.19,1,.41,2.6.55,3.7h.07c.14-1.1.36-2.74.55-3.7l1.2-6.29h2.79l-3.15,13.3h-2.85Z"/><path d="M578.93,23.22l-3.14-9.34h2.79l1.09,3.68c.13.44.43,1.48.57,2.13h.07c.15-.65.46-1.69.61-2.18l1-3.63h2.8l-3.14,9.34v4h-2.69ZM580.75,10h2.15l-2.15,2.6H579Z"/><path d="M587.46,23.11V17.94c0-2.81,1.52-4.33,4.12-4.33s4.14,1.52,4.23,4.33h-2.69c-.08-1.21-.54-1.71-1.56-1.71-.82,0-1.29.54-1.29,1.71v5.17c0,1.14.45,1.67,1.29,1.67,1,0,1.52-.49,1.6-1.67h2.69c-.05,2.79-1.59,4.29-4.29,4.29S587.46,25.9,587.46,23.11Z"/><path d="M607.48,13.88v13.3h-2.72V21.76H602v5.42h-2.72V13.88H602V19.2h2.73V13.88Z"/><path d="M621.08,22.71h-1v4.47h-2.69V13.88h3.85c2.64,0,4.2,1.63,4.2,4.42a4.18,4.18,0,0,1-1.84,3.84l2.51,5h-2.95Zm-1-2.56h1.13c1,0,1.46-.65,1.46-1.85s-.51-1.86-1.46-1.86h-1.13Z"/><path d="M629,22.86V18.19c0-2.85,1.62-4.54,4.31-4.54s4.32,1.69,4.32,4.54v4.67c0,2.85-1.62,4.54-4.32,4.54S629,25.71,629,22.86Zm5.83,0V18.19c0-1.25-.51-1.92-1.52-1.92s-1.51.67-1.51,1.92v4.67c0,1.26.51,1.92,1.51,1.92S634.78,24.12,634.78,22.86Z"/><path d="M644.85,22.14l-.74,1.2v3.84h-2.66V13.88h2.66V19l.69-1.48,1.86-3.61h3.08l-3.39,5.81,4,7.49h-3Z"/><path d="M652.7,22.86V18.19c0-2.85,1.62-4.54,4.31-4.54s4.32,1.69,4.32,4.54v4.67c0,2.85-1.62,4.54-4.32,4.54S652.7,25.71,652.7,22.86Zm5.83,0V18.19c0-1.25-.51-1.92-1.52-1.92s-1.51.67-1.51,1.92v4.67c0,1.26.51,1.92,1.51,1.92S658.53,24.12,658.53,22.86Z"/><path d="M664.82,23.11V17.94c0-2.81,1.52-4.33,4.13-4.33s4.14,1.52,4.23,4.33h-2.7c-.07-1.21-.53-1.71-1.55-1.71-.82,0-1.3.54-1.3,1.71v5.17c0,1.14.46,1.67,1.3,1.67,1,0,1.52-.49,1.59-1.67h2.7c-.06,2.79-1.6,4.29-4.29,4.29S664.82,25.9,664.82,23.11Z"/><path d="M684.85,13.88v13.3h-2.72V21.76H679.4v5.42h-2.72V13.88h2.72V19.2h2.73V13.88Z"/><rect class="cls-4" x="50.88" y="141.35" width="37.74" height="213.67"/><rect class="cls-4" x="88.63" y="145.27" width="37.74" height="209.74"/><rect class="cls-4" x="126.37" y="149.19" width="37.74" height="205.82"/><rect class="cls-4" x="164.11" y="153.11" width="37.74" height="201.9"/><rect class="cls-4" x="201.86" y="157.04" width="37.74" height="197.98"/><rect class="cls-4" x="239.6" y="160.96" width="37.74" height="194.05"/><rect class="cls-4" x="277.34" y="164.88" width="37.74" height="190.13"/><rect class="cls-4" x="315.09" y="168.8" width="37.74" height="186.21"/><rect class="cls-4" x="352.83" y="193.91" width="37.74" height="161.11"/><rect class="cls-4" x="390.57" y="198.31" width="37.74" height="156.7"/><rect class="cls-4" x="428.32" y="202.72" width="37.74" height="152.29"/><rect class="cls-4" x="466.06" y="207.13" width="37.74" height="147.88"/><rect class="cls-4" x="503.8" y="211.54" width="37.74" height="143.47"/><rect class="cls-4" x="541.55" y="215.95" width="37.74" height="139.06"/><rect class="cls-4" x="579.29" y="220.36" width="37.74" height="134.66"/><rect class="cls-4" x="617.03" y="224.76" width="37.74" height="130.25"/><rect class="cls-4" x="654.78" y="229.04" width="37.74" height="125.84"/><rect class="cls-4" x="692.52" y="233.58" width="37.74" height="121.43"/><line class="cls-1" x1="352.83" y1="193.91" x2="352.83" y2="355.01"/><line class="cls-1" x1="50.88" y1="141.35" x2="50.88" y2="355.01"/><path class="cls-5" d="M362.5,179.19c6.09-.36,35.85-3.83,35.85-37.84"/><polygon class="cls-6" points="366.17 182.91 366.79 182.12 362.89 179.1 366.18 175.43 365.44 174.76 361.42 179.23 366.17 182.91"/><path class="cls-7" d="M186.2,278.44h-4v4.22h-1.73v-10h6.32v1.39H182.2v3h4Z"/><path class="cls-7" d="M192.18,282.66A3,3,0,0,1,192,282a2.58,2.58,0,0,1-1.94.82,2.63,2.63,0,0,1-1.82-.63,2,2,0,0,1-.7-1.57,2.1,2.1,0,0,1,.88-1.82,4.25,4.25,0,0,1,2.51-.63h1v-.48a1.3,1.3,0,0,0-.32-.92,1.29,1.29,0,0,0-1-.35,1.51,1.51,0,0,0-.93.28.89.89,0,0,0-.36.73h-1.66a1.82,1.82,0,0,1,.4-1.14,2.68,2.68,0,0,1,1.1-.83,3.85,3.85,0,0,1,1.54-.3,3.06,3.06,0,0,1,2.07.65,2.33,2.33,0,0,1,.8,1.83V281a3.75,3.75,0,0,0,.28,1.59v.12Zm-1.82-1.2a1.83,1.83,0,0,0,.92-.24,1.63,1.63,0,0,0,.66-.64v-1.39H191a2.42,2.42,0,0,0-1.39.32,1,1,0,0,0-.46.91,1,1,0,0,0,.32.76A1.21,1.21,0,0,0,190.36,281.46Zm.92-9.3h1.89l-1.89,2.07H190Z"/><path class="cls-7" d="M197.11,281.33H201v1.33h-6v-1.09l3.75-5h-3.68v-1.34h5.79v1.06Z"/><path class="cls-7" d="M206.79,282.66a2.59,2.59,0,0,1-.19-.69,2.59,2.59,0,0,1-1.94.82,2.63,2.63,0,0,1-1.82-.63,2,2,0,0,1-.7-1.57,2.11,2.11,0,0,1,.87-1.82,4.3,4.3,0,0,1,2.52-.63h1v-.48a1.17,1.17,0,0,0-1.29-1.27,1.51,1.51,0,0,0-.93.28.87.87,0,0,0-.37.73h-1.66a1.83,1.83,0,0,1,.41-1.14,2.64,2.64,0,0,1,1.09-.83,3.86,3.86,0,0,1,1.55-.3,3.06,3.06,0,0,1,2.07.65,2.29,2.29,0,0,1,.79,1.83V281a3.91,3.91,0,0,0,.28,1.59v.12Zm-1.83-1.2a1.9,1.9,0,0,0,.93-.24,1.54,1.54,0,0,0,.65-.64v-1.39h-.89a2.4,2.4,0,0,0-1.39.32,1,1,0,0,0-.46.91,1,1,0,0,0,.31.76A1.25,1.25,0,0,0,205,281.46Z"/><path class="cls-7" d="M215.41,282.66h-1.72v-10h1.72Z"/><path class="cls-7" d="M219.36,282.66h-1.72v-10h1.72Z"/><path class="cls-7" d="M223.31,282.66h-1.72v-10h1.72Z"/><path class="cls-7" d="M525.33,278.44h-4v4.22H519.6v-10h6.32v1.39h-4.59v3h4Z"/><path class="cls-7" d="M531.31,282.66a3,3,0,0,1-.19-.69,2.58,2.58,0,0,1-1.94.82,2.63,2.63,0,0,1-1.82-.63,2.07,2.07,0,0,1-.7-1.57,2.1,2.1,0,0,1,.88-1.82,4.25,4.25,0,0,1,2.51-.63h1v-.48a1.3,1.3,0,0,0-.32-.92,1.29,1.29,0,0,0-1-.35,1.51,1.51,0,0,0-.93.28.89.89,0,0,0-.36.73h-1.66a1.82,1.82,0,0,1,.4-1.14,2.74,2.74,0,0,1,1.1-.83,3.86,3.86,0,0,1,1.55-.3,3.09,3.09,0,0,1,2.07.65,2.36,2.36,0,0,1,.79,1.83V281a3.75,3.75,0,0,0,.28,1.59v.12Zm-1.82-1.2a1.9,1.9,0,0,0,.93-.24,1.67,1.67,0,0,0,.65-.64v-1.39h-.9a2.39,2.39,0,0,0-1.38.32,1,1,0,0,0-.47.91,1,1,0,0,0,.32.76A1.21,1.21,0,0,0,529.49,281.46Zm.92-9.3h1.89l-1.89,2.07h-1.33Z"/><path class="cls-7" d="M536.24,281.33h3.93v1.33h-6v-1.09l3.75-5h-3.69v-1.34H540v1.06Z"/><path class="cls-7" d="M545.92,282.66a1.08,1.08,0,1,0-2.13.13,2.63,2.63,0,0,1-1.82-.63,2,2,0,0,1-.7-1.57,2.1,2.1,0,0,1,.88-1.82,4.25,4.25,0,0,1,2.51-.63h1v-.48a1.17,1.17,0,0,0-1.29-1.27,1.51,1.51,0,0,0-.93.28.9.9,0,0,0-.37.73h-1.66a1.83,1.83,0,0,1,.41-1.14,2.71,2.71,0,0,1,1.09-.83,3.9,3.9,0,0,1,1.55-.3,3.06,3.06,0,0,1,2.07.65,2.29,2.29,0,0,1,.79,1.83V281a3.91,3.91,0,0,0,.28,1.59v.12Zm-1.82-1.2a1.89,1.89,0,0,0,.92-.24,1.54,1.54,0,0,0,.65-.64v-1.39h-.89a2.4,2.4,0,0,0-1.39.32,1,1,0,0,0-.46.91,1,1,0,0,0,.32.76A1.21,1.21,0,0,0,544.1,281.46Z"/><path class="cls-7" d="M554.54,282.66h-1.72v-10h1.72Z"/><path class="cls-7" d="M560.17,280.49l2.53-7.78h1.9l-3.58,10h-1.68l-3.56-10h1.89Z"/><rect class="cls-8" x="379.89" y="94.38" width="282.37" height="7.5"/><path d="M391.54,99.67l.06.22.06-.22L395,90.32h1L392,101h-.87l-4-10.66h1Z"/><path d="M400.12,101.13a3.41,3.41,0,0,1-3.1-1.88,4.27,4.27,0,0,1-.46-2v-.32a4.57,4.57,0,0,1,.45-2.05,3.47,3.47,0,0,1,1.23-1.44,3.06,3.06,0,0,1,1.72-.53,2.83,2.83,0,0,1,2.28,1,4,4,0,0,1,.85,2.69v.49h-5.65v.17a3.26,3.26,0,0,0,.77,2.24,2.44,2.44,0,0,0,1.94.9,2.56,2.56,0,0,0,2.22-1.08l.55.42A3.17,3.17,0,0,1,400.12,101.13ZM400,93.66a2.16,2.16,0,0,0-1.67.73,3.36,3.36,0,0,0-.83,1.94h4.76v-.09a3,3,0,0,0-.65-1.86A2,2,0,0,0,400,93.66Z"/><path d="M405.78,101h-.88V89.73h.88Zm1.4-8.63-.52-.38a2.7,2.7,0,0,0,.53-1.54v-.7H408v.46A2.75,2.75,0,0,1,407.18,92.35Z"/><path d="M411.14,97l-1,1v3h-.87V89.73h.87v7.2L411,96l3-3h1.11l-3.36,3.34,3.65,4.58h-1Z"/><path d="M421.6,101a4.23,4.23,0,0,1-.16-1.1,3.1,3.1,0,0,1-1.18.93,3.72,3.72,0,0,1-1.51.32,2.64,2.64,0,0,1-1.85-.64,2.07,2.07,0,0,1-.71-1.61,2.12,2.12,0,0,1,1-1.83,4.65,4.65,0,0,1,2.69-.67h1.59v-.9a1.75,1.75,0,0,0-.53-1.34,2.19,2.19,0,0,0-1.52-.49,2.42,2.42,0,0,0-1.52.47,1.39,1.39,0,0,0-.6,1.13h-.88a2,2,0,0,1,.88-1.63,3.35,3.35,0,0,1,2.16-.7,3.05,3.05,0,0,1,2.09.67,2.35,2.35,0,0,1,.79,1.85v3.75a4.69,4.69,0,0,0,.24,1.72V101Zm-2.75-.63a3,3,0,0,0,1.57-.42,2.48,2.48,0,0,0,1-1.14V97.05h-1.57a3.93,3.93,0,0,0-2.05.48,1.45,1.45,0,0,0-.74,1.28,1.44,1.44,0,0,0,.49,1.11A1.88,1.88,0,0,0,418.85,100.35Zm1.73-10.62h1.06L420,91.79h-.77Z"/><path d="M428.49,101V90.32h3.15a4.11,4.11,0,0,1,2.6.71,2.49,2.49,0,0,1,.88,2.08,2.33,2.33,0,0,1-.45,1.44,2.48,2.48,0,0,1-1.23.88,2.6,2.6,0,0,1,1.5.91,2.56,2.56,0,0,1,.57,1.64,2.77,2.77,0,0,1-.92,2.21,3.72,3.72,0,0,1-2.54.79Zm.9-5.88h2.46a2.74,2.74,0,0,0,1.75-.53,2.1,2.1,0,0,0,0-3,3.24,3.24,0,0,0-1.94-.49h-2.25Zm0,.77v4.35h2.7a2.7,2.7,0,0,0,1.84-.59A2,2,0,0,0,434.6,98a2,2,0,0,0-.64-1.56,2.63,2.63,0,0,0-1.79-.57Z"/><path d="M441.14,93.81a2.92,2.92,0,0,0-.6,0,2.16,2.16,0,0,0-1.38.45,2.52,2.52,0,0,0-.81,1.33V101h-.87V93.06h.85l0,1.26a2.33,2.33,0,0,1,2.23-1.41,1.48,1.48,0,0,1,.58.1Z"/><path d="M442.47,90.77a.65.65,0,0,1,.16-.42.6.6,0,0,1,.44-.17.61.61,0,0,1,.45.17.65.65,0,0,1,.16.42.63.63,0,0,1-.16.42.61.61,0,0,1-.45.16.6.6,0,0,1-.44-.16A.63.63,0,0,1,442.47,90.77Zm1,10.21h-.88V93.06h.88Z"/><path d="M447.25,91v2h1.64v.72h-1.64v5.28a1.76,1.76,0,0,0,.23,1,1,1,0,0,0,.8.32,5.09,5.09,0,0,0,.71-.07l0,.71a3,3,0,0,1-.94.12,1.55,1.55,0,0,1-1.31-.52,2.44,2.44,0,0,1-.41-1.54V93.78h-1.46v-.72h1.46V91Z"/><path d="M455.71,101a3.77,3.77,0,0,1-.17-1.1,3.1,3.1,0,0,1-1.18.93,3.69,3.69,0,0,1-1.51.32,2.64,2.64,0,0,1-1.85-.64,2.07,2.07,0,0,1-.71-1.61,2.13,2.13,0,0,1,1-1.83,4.6,4.6,0,0,1,2.68-.67h1.59v-.9a1.74,1.74,0,0,0-.52-1.34,2.2,2.2,0,0,0-1.53-.49,2.42,2.42,0,0,0-1.52.47,1.39,1.39,0,0,0-.6,1.13h-.88a2,2,0,0,1,.88-1.63,3.35,3.35,0,0,1,2.16-.7,3.08,3.08,0,0,1,2.1.67,2.38,2.38,0,0,1,.78,1.85v3.75a4.69,4.69,0,0,0,.24,1.72V101Zm-2.76-.63a3,3,0,0,0,1.57-.42,2.48,2.48,0,0,0,1-1.14V97.05H454a3.93,3.93,0,0,0-2,.48,1.48,1.48,0,0,0-.24,2.39A1.85,1.85,0,0,0,453,100.35Zm1.73-10.62h1.06l-1.69,2.06h-.77Z"/><path d="M459.57,93.06l0,1.36a3.14,3.14,0,0,1,1.11-1.12,2.9,2.9,0,0,1,1.48-.39,2.35,2.35,0,0,1,1.89.72,3.19,3.19,0,0,1,.63,2.15V101h-.87v-5.2a2.35,2.35,0,0,0-.45-1.58,1.75,1.75,0,0,0-1.42-.52,2.22,2.22,0,0,0-1.43.5,3,3,0,0,0-.93,1.38V101h-.87V93.06Z"/><path d="M466.93,90.77a.6.6,0,0,1,.16-.42.59.59,0,0,1,.44-.17.57.57,0,0,1,.6.59.58.58,0,0,1-.16.42.6.6,0,0,1-.44.16.55.55,0,0,1-.6-.58ZM468,101h-.88V93.06H468Z"/><path d="M475.34,101a4.15,4.15,0,0,1-.17-1.1,3.06,3.06,0,0,1-1.17.93,3.72,3.72,0,0,1-1.51.32,2.62,2.62,0,0,1-1.85-.64,2,2,0,0,1-.71-1.61,2.12,2.12,0,0,1,1-1.83,4.65,4.65,0,0,1,2.69-.67h1.59v-.9a1.75,1.75,0,0,0-.53-1.34,2.19,2.19,0,0,0-1.52-.49,2.4,2.4,0,0,0-1.52.47,1.39,1.39,0,0,0-.6,1.13h-.88a2,2,0,0,1,.88-1.63,3.32,3.32,0,0,1,2.16-.7,3.05,3.05,0,0,1,2.09.67,2.38,2.38,0,0,1,.79,1.85v3.75a4.69,4.69,0,0,0,.24,1.72V101Zm-2.75-.63a3,3,0,0,0,1.57-.42,2.48,2.48,0,0,0,1-1.14V97.05H473.6a3.9,3.9,0,0,0-2.05.48,1.49,1.49,0,0,0-.25,2.39A1.88,1.88,0,0,0,472.59,100.35Z"/><path d="M481.54,96.91a4.72,4.72,0,0,1,.44-2.06,3.49,3.49,0,0,1,1.25-1.43,3.37,3.37,0,0,1,1.84-.51A3.25,3.25,0,0,1,487.63,94a4.25,4.25,0,0,1,1,2.94v.19a4.69,4.69,0,0,1-.44,2.07,3.24,3.24,0,0,1-1.25,1.41,3.37,3.37,0,0,1-1.84.5,3.27,3.27,0,0,1-2.56-1.11,4.3,4.3,0,0,1-1-2.94Zm.88.24a3.61,3.61,0,0,0,.73,2.33,2.5,2.5,0,0,0,3.86,0,3.72,3.72,0,0,0,.73-2.41v-.16a4,4,0,0,0-.34-1.67,2.68,2.68,0,0,0-.94-1.17,2.47,2.47,0,0,0-1.39-.41,2.34,2.34,0,0,0-1.91.92,3.67,3.67,0,0,0-.74,2.41Z"/><path d="M490.07,97A4.77,4.77,0,0,1,490.9,94a2.65,2.65,0,0,1,2.23-1.1,2.77,2.77,0,0,1,2.45,1.27V89.73h.87V101h-.82l0-1a2.82,2.82,0,0,1-2.47,1.2,2.66,2.66,0,0,1-2.21-1.1,4.81,4.81,0,0,1-.84-3Zm.89.15a4.09,4.09,0,0,0,.61,2.39,1.94,1.94,0,0,0,1.71.88,2.37,2.37,0,0,0,2.3-1.43V95.22a2.35,2.35,0,0,0-2.29-1.54,2,2,0,0,0-1.72.86A4.44,4.44,0,0,0,491,97.1Z"/><path d="M501.69,100.39a2.32,2.32,0,0,0,1.53-.51,1.82,1.82,0,0,0,.67-1.34h.84a2.44,2.44,0,0,1-.45,1.32,2.8,2.8,0,0,1-1.11.93,3.28,3.28,0,0,1-1.48.34,3.05,3.05,0,0,1-2.47-1.08,4.4,4.4,0,0,1-.92-2.92v-.26a5,5,0,0,1,.41-2.07,3.26,3.26,0,0,1,1.18-1.4,3.31,3.31,0,0,1,1.79-.49,3,3,0,0,1,2.15.78,2.81,2.81,0,0,1,.9,2h-.84a2.14,2.14,0,0,0-.67-1.5,2.38,2.38,0,0,0-3.38.29,3.85,3.85,0,0,0-.66,2.4v.26a3.74,3.74,0,0,0,.66,2.36A2.19,2.19,0,0,0,501.69,100.39Z"/><path d="M507.36,94.4a3.05,3.05,0,0,1,1.1-1.1,2.9,2.9,0,0,1,1.48-.39,2.35,2.35,0,0,1,1.89.72,3.19,3.19,0,0,1,.63,2.15V101h-.87v-5.2a2.35,2.35,0,0,0-.45-1.58,1.75,1.75,0,0,0-1.42-.52,2.27,2.27,0,0,0-1.44.5,3,3,0,0,0-.92,1.38V101h-.87V89.73h.87Z"/><path d="M514.23,96.91a4.59,4.59,0,0,1,.45-2.06,3.32,3.32,0,0,1,3.09-1.94A3.27,3.27,0,0,1,520.33,94a4.3,4.3,0,0,1,1,2.94v.19a4.83,4.83,0,0,1-.44,2.07,3.31,3.31,0,0,1-3.09,1.91,3.27,3.27,0,0,1-2.56-1.11,4.25,4.25,0,0,1-1-2.94Zm.88.24a3.61,3.61,0,0,0,.74,2.33,2.49,2.49,0,0,0,3.85,0,3.73,3.73,0,0,0,.74-2.41v-.16a4,4,0,0,0-.34-1.67,2.75,2.75,0,0,0-.94-1.17,2.47,2.47,0,0,0-1.39-.41,2.36,2.36,0,0,0-1.92.92,3.73,3.73,0,0,0-.74,2.41Z"/><path d="M522.77,97a4.77,4.77,0,0,1,.82-2.94,2.66,2.66,0,0,1,2.24-1.1,2.78,2.78,0,0,1,2.45,1.27V89.73h.87V101h-.82l0-1a2.84,2.84,0,0,1-2.48,1.2,2.63,2.63,0,0,1-2.2-1.1,4.81,4.81,0,0,1-.84-3Zm.88.15a4.16,4.16,0,0,0,.61,2.39,2,2,0,0,0,1.71.88,2.38,2.38,0,0,0,2.31-1.43V95.22A2.35,2.35,0,0,0,526,93.68a2,2,0,0,0-1.72.86A4.44,4.44,0,0,0,523.65,97.1Z"/><path d="M531,96.91a4.72,4.72,0,0,1,.44-2.06,3.44,3.44,0,0,1,1.26-1.43,3.36,3.36,0,0,1,1.83-.51A3.25,3.25,0,0,1,537.06,94,4.25,4.25,0,0,1,538,97v.19a4.69,4.69,0,0,1-.44,2.07,3.24,3.24,0,0,1-1.25,1.41,3.33,3.33,0,0,1-1.83.5A3.24,3.24,0,0,1,532,100a4.25,4.25,0,0,1-1-2.94Zm.88.24a3.56,3.56,0,0,0,.74,2.33,2.49,2.49,0,0,0,3.85,0,3.72,3.72,0,0,0,.73-2.41v-.16a4.15,4.15,0,0,0-.33-1.67,2.77,2.77,0,0,0-1-1.17,2.44,2.44,0,0,0-1.39-.41,2.34,2.34,0,0,0-1.91.92,3.73,3.73,0,0,0-.74,2.41Z"/><path d="M540.65,93.06l0,1.29a3,3,0,0,1,1.1-1.08,3,3,0,0,1,1.47-.36,2.23,2.23,0,0,1,2.38,1.54,3,3,0,0,1,1.13-1.14,3.21,3.21,0,0,1,1.57-.4c1.7,0,2.56.93,2.6,2.79V101h-.88V95.76a2.37,2.37,0,0,0-.46-1.57,1.87,1.87,0,0,0-1.47-.51,2.3,2.3,0,0,0-1.59.61,2.15,2.15,0,0,0-.73,1.45V101h-.88V95.7a2.12,2.12,0,0,0-.48-1.52,1.88,1.88,0,0,0-1.45-.5,2.17,2.17,0,0,0-1.42.47,2.71,2.71,0,0,0-.88,1.4V101h-.88V93.06Z"/><path d="M557.37,100.25h5.15V101h-6.23v-.64l4.8-6.52h-4.65v-.76h5.76v.66Z"/><path d="M573.83,95.87h-5v4.35h5.74V101h-6.64V90.32h6.6v.76h-5.7v4h5Z"/><path d="M583.82,90.32V97.6a3.69,3.69,0,0,1-.47,1.88A3.14,3.14,0,0,1,582,100.7a4.22,4.22,0,0,1-2,.43,3.8,3.8,0,0,1-2.69-.92,3.37,3.37,0,0,1-1.06-2.54V90.32h.9v7.22a2.76,2.76,0,0,0,.77,2.09,3.29,3.29,0,0,0,4.17,0,2.77,2.77,0,0,0,.76-2.08V90.32ZM581,87.43h1.06l-1.69,2h-.77Z"/><path d="M589.29,96.91a4.59,4.59,0,0,1,.45-2.06,3.32,3.32,0,0,1,3.08-1.94A3.27,3.27,0,0,1,595.39,94a4.3,4.3,0,0,1,1,2.94v.19a4.83,4.83,0,0,1-.44,2.07,3.31,3.31,0,0,1-3.09,1.91,3.27,3.27,0,0,1-2.56-1.11,4.25,4.25,0,0,1-1-2.94Zm.88.24a3.61,3.61,0,0,0,.74,2.33,2.49,2.49,0,0,0,3.85,0,3.73,3.73,0,0,0,.74-2.41v-.16a4.15,4.15,0,0,0-.34-1.67,2.7,2.7,0,0,0-.95-1.17,2.42,2.42,0,0,0-1.39-.41,2.34,2.34,0,0,0-1.91.92,3.73,3.73,0,0,0-.74,2.41Z"/><path d="M604.55,97.1a4.73,4.73,0,0,1-.82,2.94,2.61,2.61,0,0,1-2.2,1.09A3,3,0,0,1,599,100v4h-.87v-11H599l0,1.12a2.82,2.82,0,0,1,2.48-1.27A2.63,2.63,0,0,1,603.74,94a4.87,4.87,0,0,1,.81,3Zm-.88-.15a4.14,4.14,0,0,0-.62-2.4,2,2,0,0,0-1.74-.87,2.4,2.4,0,0,0-1.38.38,2.48,2.48,0,0,0-.89,1.13V99a2.3,2.3,0,0,0,.9,1,2.59,2.59,0,0,0,1.39.36,2,2,0,0,0,1.72-.88A4.46,4.46,0,0,0,603.67,97Z"/><path d="M611.59,100a2.85,2.85,0,0,1-2.53,1.15,2.45,2.45,0,0,1-1.93-.73,3.3,3.3,0,0,1-.67-2.18V93.06h.87v5c0,1.51.61,2.26,1.83,2.26a2.24,2.24,0,0,0,2.41-1.58V93.06h.88V101h-.85Z"/><path d="M619.48,99a1.27,1.27,0,0,0-.53-1,4.09,4.09,0,0,0-1.57-.62,6.66,6.66,0,0,1-1.64-.51,2.17,2.17,0,0,1-.87-.71,1.79,1.79,0,0,1-.28-1,1.88,1.88,0,0,1,.79-1.55,3.2,3.2,0,0,1,2-.61,3.25,3.25,0,0,1,2.13.66,2.12,2.12,0,0,1,.8,1.71h-.88a1.43,1.43,0,0,0-.58-1.16,2.62,2.62,0,0,0-2.86-.07,1.16,1.16,0,0,0-.52,1,1.07,1.07,0,0,0,.44.92,4.54,4.54,0,0,0,1.58.6,7.15,7.15,0,0,1,1.73.58,2.19,2.19,0,0,1,.86.74,2,2,0,0,1,.28,1.05,1.87,1.87,0,0,1-.82,1.6,3.43,3.43,0,0,1-2.11.6,3.51,3.51,0,0,1-2.24-.67,2,2,0,0,1-.86-1.69h.88a1.51,1.51,0,0,0,.64,1.19,2.64,2.64,0,0,0,1.58.43,2.47,2.47,0,0,0,1.48-.4A1.21,1.21,0,0,0,619.48,99Z"/><path d="M623.69,91v2h1.64v.72h-1.64v5.28a1.68,1.68,0,0,0,.24,1,.92.92,0,0,0,.79.32,5.09,5.09,0,0,0,.71-.07l0,.71a2.94,2.94,0,0,1-.94.12,1.55,1.55,0,0,1-1.31-.52,2.5,2.5,0,0,1-.41-1.54V93.78h-1.46v-.72h1.46V91Z"/><path d="M627.09,90.77a.65.65,0,0,1,.16-.42.6.6,0,0,1,.44-.17.61.61,0,0,1,.45.17.6.6,0,0,1,.16.42.58.58,0,0,1-.16.42.61.61,0,0,1-.45.16.6.6,0,0,1-.44-.16A.63.63,0,0,1,627.09,90.77Zm1,10.21h-.88V93.06h.88Z"/><path d="M631.49,101h-.88V89.73h.88Z"/><path d="M638.87,101a4.15,4.15,0,0,1-.17-1.1,3.14,3.14,0,0,1-1.17.93,3.72,3.72,0,0,1-1.51.32,2.62,2.62,0,0,1-1.85-.64,2,2,0,0,1-.71-1.61,2.12,2.12,0,0,1,1-1.83,4.63,4.63,0,0,1,2.69-.67h1.59v-.9a1.75,1.75,0,0,0-.53-1.34,2.2,2.2,0,0,0-1.53-.49,2.39,2.39,0,0,0-1.51.47,1.39,1.39,0,0,0-.6,1.13h-.88a2,2,0,0,1,.88-1.63,3.32,3.32,0,0,1,2.16-.7,3.05,3.05,0,0,1,2.09.67,2.38,2.38,0,0,1,.79,1.85v3.75a4.69,4.69,0,0,0,.24,1.72V101Zm-2.75-.63a3,3,0,0,0,1.57-.42,2.53,2.53,0,0,0,1-1.14V97.05h-1.57a3.9,3.9,0,0,0-2,.48,1.49,1.49,0,0,0-.25,2.39A1.88,1.88,0,0,0,636.12,100.35Z"/><path d="M646.91,91v2h1.64v.72h-1.64v5.28a1.68,1.68,0,0,0,.24,1,.94.94,0,0,0,.8.32,5.23,5.23,0,0,0,.71-.07l0,.71a2.91,2.91,0,0,1-.93.12,1.54,1.54,0,0,1-1.31-.52,2.44,2.44,0,0,1-.41-1.54V93.78h-1.46v-.72H646V91Z"/><path d="M650.32,90.77a.6.6,0,0,1,.16-.42.65.65,0,0,1,.88,0,.61.61,0,0,1,.17.42.59.59,0,0,1-.17.42.6.6,0,0,1-1-.42Zm1,10.21h-.88V93.06h.88Z"/><path d="M656.8,101.13a3.4,3.4,0,0,1-1.83-.5,3.46,3.46,0,0,1-1.27-1.38,4.39,4.39,0,0,1-.45-2v-.32a4.71,4.71,0,0,1,.44-2.05,3.56,3.56,0,0,1,1.24-1.44,3,3,0,0,1,1.71-.53,2.85,2.85,0,0,1,2.29,1,4,4,0,0,1,.85,2.69v.49h-5.66v.17a3.31,3.31,0,0,0,.77,2.24,2.47,2.47,0,0,0,2,.9,2.86,2.86,0,0,0,1.24-.25,2.9,2.9,0,0,0,1-.83l.55.42A3.19,3.19,0,0,1,656.8,101.13Zm-.16-7.47a2.19,2.19,0,0,0-1.67.73,3.35,3.35,0,0,0-.82,1.94h4.75v-.09a2.89,2.89,0,0,0-.65-1.86A2,2,0,0,0,656.64,93.66Z"/><path d="M662.06,100.25h5.15V101H661v-.64l4.81-6.52h-4.66v-.76h5.77v.66Zm2-9,1.26-1.42h.78v.09l-1.72,1.91h-.63L662,89.91v-.08h.78Z"/><path d="M394.21,111.87h-5v4.35H395V117h-6.64V106.32h6.6v.76h-5.7v4h5Z"/><path d="M404.2,106.32v7.28a3.69,3.69,0,0,1-.47,1.88,3.14,3.14,0,0,1-1.33,1.22,4.21,4.21,0,0,1-1.95.43,3.81,3.81,0,0,1-2.7-.92,3.33,3.33,0,0,1-1.05-2.54v-7.35h.89v7.22a2.8,2.8,0,0,0,.77,2.09,2.9,2.9,0,0,0,2.09.74,2.85,2.85,0,0,0,2.08-.75,2.77,2.77,0,0,0,.76-2.08v-7.22Z"/><path d="M416.25,111.87h-5v4.35H417V117h-6.64V106.32H417v.76h-5.7v4h5Z"/><path d="M426.28,107.08h-3.66V117h-.9v-9.9h-3.64v-.76h8.2Z"/><path d="M433.92,114.36a1.71,1.71,0,0,0-.63-1.4,6.59,6.59,0,0,0-2.27-1,7.85,7.85,0,0,1-2.42-1,2.46,2.46,0,0,1-.08-4,4.16,4.16,0,0,1,2.58-.77,4.34,4.34,0,0,1,1.9.41,3.17,3.17,0,0,1,1.3,1.15,3,3,0,0,1,.46,1.63h-.91a2.26,2.26,0,0,0-.74-1.76,2.93,2.93,0,0,0-2-.66,3.18,3.18,0,0,0-2,.54,1.73,1.73,0,0,0-.73,1.43,1.61,1.61,0,0,0,.66,1.33,6,6,0,0,0,2.08.9,9.66,9.66,0,0,1,2.18.82,3.11,3.11,0,0,1,1.11,1,2.54,2.54,0,0,1,.38,1.39,2.42,2.42,0,0,1-1,2,4.28,4.28,0,0,1-2.66.76,5.2,5.2,0,0,1-2.07-.4,3.19,3.19,0,0,1-1.42-1.13,2.87,2.87,0,0,1-.49-1.66h.9a2.14,2.14,0,0,0,.84,1.78,3.59,3.59,0,0,0,2.24.65,3.29,3.29,0,0,0,2-.55A1.71,1.71,0,0,0,433.92,114.36Z"/><path d="M436.38,119l-.52-.38a3.29,3.29,0,0,0,.69-1.86v-1.13h.85v.91A3.17,3.17,0,0,1,436.38,119Z"/><path d="M449.45,113.1a4.73,4.73,0,0,1-.82,2.94,2.59,2.59,0,0,1-2.19,1.09A2.92,2.92,0,0,1,444,116v4h-.88v-11h.82l0,1.12a2.82,2.82,0,0,1,2.48-1.27,2.63,2.63,0,0,1,2.23,1.08,4.87,4.87,0,0,1,.81,3Zm-.88-.15a4.07,4.07,0,0,0-.62-2.4,2,2,0,0,0-1.74-.87,2.42,2.42,0,0,0-1.38.38,2.46,2.46,0,0,0-.88,1.13V115a2.24,2.24,0,0,0,.9,1,2.58,2.58,0,0,0,1.38.36,2,2,0,0,0,1.73-.88A4.46,4.46,0,0,0,448.57,113Z"/><path d="M455.06,109.81a2.92,2.92,0,0,0-.6,0,2.19,2.19,0,0,0-1.39.45,2.57,2.57,0,0,0-.8,1.33V117h-.88v-7.92h.86l0,1.26a2.32,2.32,0,0,1,2.23-1.41,1.51,1.51,0,0,1,.58.1Z"/><path d="M459.37,117.13a3.4,3.4,0,0,1-1.83-.5,3.46,3.46,0,0,1-1.27-1.38,4.39,4.39,0,0,1-.45-2v-.32a4.71,4.71,0,0,1,.44-2.05,3.56,3.56,0,0,1,1.24-1.44,3,3,0,0,1,1.71-.53,2.85,2.85,0,0,1,2.29,1,4,4,0,0,1,.85,2.69v.49h-5.66v.17a3.31,3.31,0,0,0,.77,2.24,2.47,2.47,0,0,0,2,.9,2.86,2.86,0,0,0,1.24-.25,2.9,2.9,0,0,0,1-.83l.55.42A3.19,3.19,0,0,1,459.37,117.13Zm-.16-7.47a2.19,2.19,0,0,0-1.67.73,3.35,3.35,0,0,0-.82,1.94h4.75v-.09a2.89,2.89,0,0,0-.65-1.86A2,2,0,0,0,459.21,109.66Z"/><path d="M465.41,107v2h1.64v.72h-1.64v5.28a1.68,1.68,0,0,0,.24,1,.94.94,0,0,0,.8.32,5.23,5.23,0,0,0,.71-.07l0,.71a2.91,2.91,0,0,1-.93.12,1.57,1.57,0,0,1-1.32-.52,2.5,2.5,0,0,1-.41-1.54v-5.29h-1.45v-.72h1.45v-2Z"/><path d="M468.24,112.91a4.72,4.72,0,0,1,.44-2.06,3.44,3.44,0,0,1,1.26-1.43,3.36,3.36,0,0,1,1.83-.51,3.24,3.24,0,0,1,2.56,1.11,4.25,4.25,0,0,1,1,2.94v.19a4.69,4.69,0,0,1-.45,2.07,3.24,3.24,0,0,1-1.25,1.41,3.33,3.33,0,0,1-1.83.5,3.25,3.25,0,0,1-2.56-1.11,4.25,4.25,0,0,1-1-2.94Zm.88.24a3.61,3.61,0,0,0,.74,2.33,2.49,2.49,0,0,0,3.85,0,3.73,3.73,0,0,0,.74-2.41v-.16a4.15,4.15,0,0,0-.34-1.67,2.77,2.77,0,0,0-.95-1.17,2.44,2.44,0,0,0-1.39-.41,2.34,2.34,0,0,0-1.91.92,3.73,3.73,0,0,0-.74,2.41Z"/><path d="M480.42,113a4.77,4.77,0,0,1,.82-2.94,2.66,2.66,0,0,1,2.24-1.1,2.77,2.77,0,0,1,2.45,1.27v-4.45h.87V117H486l0-1a2.83,2.83,0,0,1-2.47,1.2,2.65,2.65,0,0,1-2.21-1.1,4.81,4.81,0,0,1-.84-3Zm.89.15a4.16,4.16,0,0,0,.6,2.39,2,2,0,0,0,1.72.88,2.37,2.37,0,0,0,2.3-1.43v-3.72a2.35,2.35,0,0,0-2.29-1.54,2,2,0,0,0-1.72.86A4.44,4.44,0,0,0,481.31,113.1Z"/><path d="M488.62,112.91a4.59,4.59,0,0,1,.45-2.06,3.32,3.32,0,0,1,3.08-1.94,3.27,3.27,0,0,1,2.57,1.11,4.3,4.3,0,0,1,1,2.94v.19a4.83,4.83,0,0,1-.44,2.07,3.31,3.31,0,0,1-3.09,1.91,3.27,3.27,0,0,1-2.56-1.11,4.25,4.25,0,0,1-1-2.94Zm.88.24a3.61,3.61,0,0,0,.74,2.33,2.49,2.49,0,0,0,3.85,0,3.73,3.73,0,0,0,.74-2.41v-.16a4.15,4.15,0,0,0-.34-1.67,2.7,2.7,0,0,0-.95-1.17,2.42,2.42,0,0,0-1.39-.41,2.34,2.34,0,0,0-1.91.92,3.73,3.73,0,0,0-.74,2.41Z"/><path d="M502.25,115a1.26,1.26,0,0,0-.52-1,4.08,4.08,0,0,0-1.58-.62,7,7,0,0,1-1.64-.51,2.21,2.21,0,0,1-.86-.71,1.72,1.72,0,0,1-.28-1,1.9,1.9,0,0,1,.78-1.55,3.21,3.21,0,0,1,2-.61,3.27,3.27,0,0,1,2.13.66,2.12,2.12,0,0,1,.8,1.71h-.88a1.43,1.43,0,0,0-.58-1.16,2.62,2.62,0,0,0-2.86-.07,1.16,1.16,0,0,0-.52,1,1.06,1.06,0,0,0,.43.92,4.52,4.52,0,0,0,1.59.6,7.15,7.15,0,0,1,1.73.58,2.15,2.15,0,0,1,.85.74,2,2,0,0,1-.53,2.65,3.45,3.45,0,0,1-2.11.6,3.56,3.56,0,0,1-2.25-.67,2.06,2.06,0,0,1-.85-1.69H498a1.52,1.52,0,0,0,.65,1.19,2.62,2.62,0,0,0,1.58.43,2.49,2.49,0,0,0,1.48-.4A1.22,1.22,0,0,0,502.25,115Zm-2-7.71,1.26-1.42h.78v.09l-1.72,1.91H500l-1.73-1.92v-.08H499Z"/><path d="M506.08,117h-.87V105.73h.87Z"/><path d="M508,112.91a4.72,4.72,0,0,1,.44-2.06,3.44,3.44,0,0,1,1.26-1.43,3.36,3.36,0,0,1,1.83-.51,3.24,3.24,0,0,1,2.56,1.11,4.25,4.25,0,0,1,1,2.94v.19a4.69,4.69,0,0,1-.45,2.07,3.29,3.29,0,0,1-1.24,1.41,3.39,3.39,0,0,1-1.84.5A3.25,3.25,0,0,1,509,116a4.25,4.25,0,0,1-1-2.94Zm.88.24a3.61,3.61,0,0,0,.74,2.33,2.49,2.49,0,0,0,3.85,0,3.73,3.73,0,0,0,.74-2.41v-.16a4.15,4.15,0,0,0-.34-1.67,2.77,2.77,0,0,0-1-1.17,2.44,2.44,0,0,0-1.39-.41,2.34,2.34,0,0,0-1.91.92,3.73,3.73,0,0,0-.74,2.41Z"/><path d="M522.39,113l-1,1v3h-.88V105.73h.88v7.2l.83-.89,3-3h1.11L523,112.4l3.66,4.58h-1Z"/><path d="M536.25,115a1.26,1.26,0,0,0-.52-1,4.15,4.15,0,0,0-1.58-.62,7,7,0,0,1-1.64-.51,2.14,2.14,0,0,1-.86-.71,1.72,1.72,0,0,1-.28-1,1.9,1.9,0,0,1,.78-1.55,3.21,3.21,0,0,1,2-.61,3.27,3.27,0,0,1,2.13.66,2.12,2.12,0,0,1,.8,1.71h-.88a1.44,1.44,0,0,0-.59-1.16,2.24,2.24,0,0,0-1.46-.46,2.27,2.27,0,0,0-1.39.39,1.16,1.16,0,0,0-.52,1,1.06,1.06,0,0,0,.43.92,4.52,4.52,0,0,0,1.59.6,7.15,7.15,0,0,1,1.73.58,2.15,2.15,0,0,1,.85.74,2,2,0,0,1-.53,2.65,3.45,3.45,0,0,1-2.11.6,3.56,3.56,0,0,1-2.25-.67,2.07,2.07,0,0,1-.86-1.69H532a1.52,1.52,0,0,0,.65,1.19,2.62,2.62,0,0,0,1.58.43,2.49,2.49,0,0,0,1.48-.4A1.22,1.22,0,0,0,536.25,115Z"/><path d="M541,113l-1,1v3h-.88V105.73H540v7.2l.83-.89,3-3H545l-3.37,3.34,3.66,4.58h-1Z"/><path d="M546,112.91a4.59,4.59,0,0,1,.45-2.06,3.32,3.32,0,0,1,3.08-1.94,3.27,3.27,0,0,1,2.57,1.11,4.3,4.3,0,0,1,1,2.94v.19a4.83,4.83,0,0,1-.44,2.07,3.31,3.31,0,0,1-3.09,1.91A3.27,3.27,0,0,1,547,116a4.25,4.25,0,0,1-1-2.94Zm.88.24a3.61,3.61,0,0,0,.74,2.33,2.49,2.49,0,0,0,3.85,0,3.73,3.73,0,0,0,.74-2.41v-.16a4.15,4.15,0,0,0-.34-1.67,2.7,2.7,0,0,0-1-1.17,2.42,2.42,0,0,0-1.39-.41,2.34,2.34,0,0,0-1.91.92,3.73,3.73,0,0,0-.74,2.41Z"/><path d="M556.73,113l-1,1v3h-.88V105.73h.88v7.2l.82-.89,3-3h1.1l-3.36,3.34L561,117h-1Z"/><path d="M561.71,112.91a4.72,4.72,0,0,1,.44-2.06,3.49,3.49,0,0,1,1.25-1.43,3.42,3.42,0,0,1,1.84-.51A3.25,3.25,0,0,1,567.8,110a4.25,4.25,0,0,1,1,2.94v.19a4.69,4.69,0,0,1-.45,2.07,3.24,3.24,0,0,1-1.25,1.41,3.37,3.37,0,0,1-1.84.5A3.25,3.25,0,0,1,562.7,116a4.25,4.25,0,0,1-1-2.94Zm.88.24a3.61,3.61,0,0,0,.73,2.33,2.5,2.5,0,0,0,3.86,0,3.72,3.72,0,0,0,.73-2.41v-.16a4.15,4.15,0,0,0-.33-1.67,2.77,2.77,0,0,0-1-1.17,2.44,2.44,0,0,0-1.39-.41,2.34,2.34,0,0,0-1.91.92,3.67,3.67,0,0,0-.74,2.41Z"/><path d="M573,115.78l2.41-6.72h.9l-3,7.92h-.71l-3-7.92h.9Z"/><path d="M580.67,117.13a3.4,3.4,0,0,1-1.83-.5,3.46,3.46,0,0,1-1.27-1.38,4.39,4.39,0,0,1-.45-2v-.32a4.71,4.71,0,0,1,.44-2.05,3.56,3.56,0,0,1,1.24-1.44,3,3,0,0,1,1.71-.53,2.85,2.85,0,0,1,2.29,1,4,4,0,0,1,.85,2.69v.49H578v.17a3.31,3.31,0,0,0,.77,2.24,2.47,2.47,0,0,0,2,.9,2.86,2.86,0,0,0,1.24-.25,2.9,2.9,0,0,0,1-.83l.55.42A3.19,3.19,0,0,1,580.67,117.13Zm-.16-7.47a2.19,2.19,0,0,0-1.67.73,3.35,3.35,0,0,0-.82,1.94h4.75v-.09a2.89,2.89,0,0,0-.65-1.86A2,2,0,0,0,580.51,109.66Zm1-3.93h1.07l-1.69,2.06h-.77Z"/><path d="M586.15,109.06l0,1.29a2.92,2.92,0,0,1,1.1-1.08,3,3,0,0,1,1.46-.36,2.22,2.22,0,0,1,2.38,1.54,3,3,0,0,1,1.14-1.14,3.19,3.19,0,0,1,1.57-.4c1.7,0,2.56.93,2.6,2.79V117h-.88v-5.22a2.37,2.37,0,0,0-.46-1.57,1.87,1.87,0,0,0-1.47-.51,2.34,2.34,0,0,0-1.6.61,2.18,2.18,0,0,0-.72,1.45V117h-.88V111.7a2.21,2.21,0,0,0-.48-1.52,1.89,1.89,0,0,0-1.45-.5,2.2,2.2,0,0,0-1.43.47,2.76,2.76,0,0,0-.87,1.4V117h-.88v-7.92Z"/><path d="M603.74,116a2.82,2.82,0,0,1-2.52,1.15,2.45,2.45,0,0,1-1.93-.73,3.25,3.25,0,0,1-.67-2.18v-5.16h.87v5c0,1.51.61,2.26,1.83,2.26a2.25,2.25,0,0,0,2.41-1.58v-5.73h.88V117h-.85Z"/><path d="M611.11,116.25h5.15V117H610v-.64l4.8-6.52h-4.66v-.76h5.77v.66Z"/><path d="M618.66,109.06l0,1.36a3.14,3.14,0,0,1,1.11-1.12,2.9,2.9,0,0,1,1.48-.39,2.35,2.35,0,0,1,1.89.72,3.19,3.19,0,0,1,.63,2.15V117h-.87v-5.2a2.35,2.35,0,0,0-.45-1.58,1.75,1.75,0,0,0-1.42-.52,2.27,2.27,0,0,0-1.44.5,3,3,0,0,0-.92,1.38V117h-.87v-7.92Z"/><path d="M627.49,105.82h1.06l-1.69,2.05h-.77ZM627,117h-.88v-7.92H627Z"/><path d="M630,116.25h5.14V117H628.9v-.64l4.81-6.52h-4.66v-.76h5.76v.66Zm2-9,1.26-1.42h.78v.09l-1.73,1.91h-.63L630,105.91v-.08h.79Z"/><path d="M639.65,117.13a3.41,3.41,0,0,1-3.09-1.88,4.27,4.27,0,0,1-.46-2v-.32a4.71,4.71,0,0,1,.44-2.05,3.56,3.56,0,0,1,1.24-1.44,3.05,3.05,0,0,1,1.71-.53,2.84,2.84,0,0,1,2.29,1,4,4,0,0,1,.85,2.69v.49H637v.17a3.27,3.27,0,0,0,.78,2.24,2.44,2.44,0,0,0,1.94.9,2.86,2.86,0,0,0,1.24-.25,2.81,2.81,0,0,0,1-.83l.55.42A3.19,3.19,0,0,1,639.65,117.13Zm-.16-7.47a2.16,2.16,0,0,0-1.66.73,3.36,3.36,0,0,0-.83,1.94h4.76v-.09a3,3,0,0,0-.65-1.86A2,2,0,0,0,639.49,109.66Z"/><path d="M645.17,109.06l0,1.36a3.14,3.14,0,0,1,1.11-1.12,2.89,2.89,0,0,1,1.47-.39,2.37,2.37,0,0,1,1.9.72,3.24,3.24,0,0,1,.63,2.15V117h-.87v-5.2a2.46,2.46,0,0,0-.45-1.58,1.77,1.77,0,0,0-1.42-.52,2.27,2.27,0,0,0-1.44.5,2.88,2.88,0,0,0-.92,1.38V117h-.88v-7.92Z"/><path d="M652.52,106.77a.65.65,0,0,1,.16-.42.6.6,0,0,1,.44-.17.61.61,0,0,1,.45.17.6.6,0,0,1,.16.42.58.58,0,0,1-.16.42.61.61,0,0,1-.45.16.6.6,0,0,1-.44-.16A.63.63,0,0,1,652.52,106.77Zm1,10.21h-.87v-7.92h.87Z"/><path d="M661,116a2.83,2.83,0,0,1-2.52,1.15,2.45,2.45,0,0,1-1.93-.73,3.25,3.25,0,0,1-.67-2.18v-5.16h.87v5c0,1.51.61,2.26,1.83,2.26a2.25,2.25,0,0,0,2.41-1.58v-5.73h.88V117h-.85Z"/><path d="M388.92,125.06l0,1.29a3,3,0,0,1,1.09-1.08,3,3,0,0,1,1.47-.36,2.23,2.23,0,0,1,2.38,1.54,3,3,0,0,1,1.14-1.14,3.18,3.18,0,0,1,1.56-.4c1.7,0,2.57.93,2.6,2.79V133h-.88v-5.22a2.32,2.32,0,0,0-.45-1.57,1.87,1.87,0,0,0-1.47-.51,2.32,2.32,0,0,0-1.6.61,2.18,2.18,0,0,0-.72,1.45V133h-.88V127.7a2.21,2.21,0,0,0-.48-1.52,1.9,1.9,0,0,0-1.46-.5,2.19,2.19,0,0,0-1.42.47,2.78,2.78,0,0,0-.88,1.4V133h-.88v-7.92Z"/><path d="M402.25,125.06l0,1.36a3.06,3.06,0,0,1,1.11-1.12,2.84,2.84,0,0,1,1.47-.39,2.39,2.39,0,0,1,1.9.72,3.3,3.3,0,0,1,.63,2.15V133h-.87v-5.2a2.46,2.46,0,0,0-.45-1.58,1.77,1.77,0,0,0-1.42-.52,2.27,2.27,0,0,0-1.44.5,3,3,0,0,0-.93,1.38V133h-.87v-7.92Z"/><path d="M409.17,128.91a4.72,4.72,0,0,1,.44-2.06,3.32,3.32,0,0,1,3.09-1.94,3.25,3.25,0,0,1,2.56,1.11,4.25,4.25,0,0,1,1,2.94v.19a4.69,4.69,0,0,1-.44,2.07,3.24,3.24,0,0,1-1.25,1.41,3.37,3.37,0,0,1-1.84.5,3.27,3.27,0,0,1-2.56-1.11,4.3,4.3,0,0,1-1-2.94Zm.88.24a3.61,3.61,0,0,0,.73,2.33,2.5,2.5,0,0,0,3.86,0,3.72,3.72,0,0,0,.73-2.41v-.16a4.15,4.15,0,0,0-.33-1.67,2.77,2.77,0,0,0-1-1.17,2.44,2.44,0,0,0-1.39-.41,2.34,2.34,0,0,0-1.91.92,3.67,3.67,0,0,0-.74,2.41Z"/><path d="M418.51,132.25h5.15V133h-6.23v-.64l4.8-6.52h-4.65v-.76h5.76v.66Zm2-9,1.25-1.42h.79v.09l-1.73,1.91h-.63l-1.73-1.92v-.08h.79Z"/><path d="M430,131a1.27,1.27,0,0,0-.53-1.05,4.09,4.09,0,0,0-1.57-.62,6.66,6.66,0,0,1-1.64-.51,2.17,2.17,0,0,1-.87-.71,1.79,1.79,0,0,1-.28-1,1.88,1.88,0,0,1,.79-1.55,3.2,3.2,0,0,1,2-.61,3.25,3.25,0,0,1,2.13.66,2.12,2.12,0,0,1,.8,1.71h-.88a1.43,1.43,0,0,0-.58-1.16,2.62,2.62,0,0,0-2.86-.07,1.16,1.16,0,0,0-.52,1,1.07,1.07,0,0,0,.44.92,4.54,4.54,0,0,0,1.58.6,7.15,7.15,0,0,1,1.73.58,2.19,2.19,0,0,1,.86.74,2,2,0,0,1,.28,1.05,1.87,1.87,0,0,1-.82,1.6,3.43,3.43,0,0,1-2.11.6,3.51,3.51,0,0,1-2.24-.67,2,2,0,0,1-.86-1.69h.88a1.51,1.51,0,0,0,.64,1.19,2.64,2.64,0,0,0,1.58.43,2.47,2.47,0,0,0,1.48-.4A1.21,1.21,0,0,0,430,131Z"/><path d="M434.19,123v2h1.64v.72h-1.64v5.28a1.68,1.68,0,0,0,.24,1,.92.92,0,0,0,.79.32,5.09,5.09,0,0,0,.71-.07l0,.71a2.94,2.94,0,0,1-.94.12,1.55,1.55,0,0,1-1.31-.52,2.5,2.5,0,0,1-.41-1.54v-5.29h-1.46v-.72h1.46v-2Z"/><path d="M440.11,131.78l2.41-6.72h.9l-3,7.92h-.71l-3-7.92h.9Z"/><path d="M449.75,133a4.15,4.15,0,0,1-.17-1.1,3.06,3.06,0,0,1-1.17.93,3.72,3.72,0,0,1-1.51.32,2.62,2.62,0,0,1-1.85-.64,2,2,0,0,1-.71-1.61,2.12,2.12,0,0,1,1-1.83,4.65,4.65,0,0,1,2.69-.67h1.59v-.9a1.75,1.75,0,0,0-.53-1.34,2.19,2.19,0,0,0-1.52-.49,2.4,2.4,0,0,0-1.52.47,1.39,1.39,0,0,0-.6,1.13h-.88a2,2,0,0,1,.88-1.63,3.32,3.32,0,0,1,2.16-.7,3.05,3.05,0,0,1,2.09.67,2.38,2.38,0,0,1,.79,1.85v3.75a4.69,4.69,0,0,0,.24,1.72V133Zm-2.75-.63a3,3,0,0,0,1.57-.42,2.48,2.48,0,0,0,1-1.14v-1.74H448a3.9,3.9,0,0,0-2.05.48,1.49,1.49,0,0,0-.25,2.39A1.88,1.88,0,0,0,447,132.35Z"/><path d="M461.43,133a4.23,4.23,0,0,1-.16-1.1,3.1,3.1,0,0,1-1.18.93,3.72,3.72,0,0,1-1.51.32,2.64,2.64,0,0,1-1.85-.64,2.07,2.07,0,0,1-.71-1.61,2.12,2.12,0,0,1,1-1.83,4.65,4.65,0,0,1,2.69-.67h1.59v-.9a1.75,1.75,0,0,0-.53-1.34,2.17,2.17,0,0,0-1.52-.49,2.42,2.42,0,0,0-1.52.47,1.39,1.39,0,0,0-.6,1.13h-.88a2,2,0,0,1,.88-1.63,3.35,3.35,0,0,1,2.16-.7,3.05,3.05,0,0,1,2.09.67,2.35,2.35,0,0,1,.79,1.85v3.75a4.69,4.69,0,0,0,.24,1.72V133Zm-2.75-.63a3,3,0,0,0,1.57-.42,2.48,2.48,0,0,0,1-1.14v-1.74h-1.57a3.93,3.93,0,0,0-2.05.48,1.45,1.45,0,0,0-.74,1.28,1.44,1.44,0,0,0,.49,1.11A1.88,1.88,0,0,0,458.68,132.35Z"/><path d="M465.45,133h-.88V121.73h.88Z"/><path d="M467.34,128.91a4.59,4.59,0,0,1,.45-2.06,3.32,3.32,0,0,1,3.09-1.94,3.27,3.27,0,0,1,2.56,1.11,4.3,4.3,0,0,1,1,2.94v.19a4.83,4.83,0,0,1-.44,2.07,3.31,3.31,0,0,1-3.09,1.91,3.27,3.27,0,0,1-2.56-1.11,4.25,4.25,0,0,1-1-2.94Zm.88.24a3.61,3.61,0,0,0,.74,2.33,2.49,2.49,0,0,0,3.85,0,3.73,3.73,0,0,0,.74-2.41v-.16a4,4,0,0,0-.34-1.67,2.75,2.75,0,0,0-.94-1.17,2.47,2.47,0,0,0-1.39-.41,2.36,2.36,0,0,0-1.92.92,3.73,3.73,0,0,0-.74,2.41Z"/><path d="M478.11,129l-1,1v3h-.88V121.73h.88v7.2l.83-.89,3-3h1.1l-3.36,3.34,3.66,4.58h-1.05Z"/><path d="M483.09,128.91a4.72,4.72,0,0,1,.44-2.06,3.44,3.44,0,0,1,1.26-1.43,3.36,3.36,0,0,1,1.83-.51,3.24,3.24,0,0,1,2.56,1.11,4.25,4.25,0,0,1,1,2.94v.19a4.69,4.69,0,0,1-.45,2.07,3.24,3.24,0,0,1-1.25,1.41,3.34,3.34,0,0,1-1.84.5,3.25,3.25,0,0,1-2.55-1.11,4.25,4.25,0,0,1-1-2.94Zm.88.24a3.56,3.56,0,0,0,.74,2.33,2.49,2.49,0,0,0,3.85,0,3.72,3.72,0,0,0,.73-2.41v-.16a4.15,4.15,0,0,0-.33-1.67,2.77,2.77,0,0,0-.95-1.17,2.44,2.44,0,0,0-1.39-.41,2.34,2.34,0,0,0-1.91.92A3.67,3.67,0,0,0,484,129Z"/><path d="M494.33,131.78l2.41-6.72h.9l-3,7.92H494l-3-7.92h.9Z"/><path d="M504,133a4.15,4.15,0,0,1-.17-1.1,3.14,3.14,0,0,1-1.17.93,3.72,3.72,0,0,1-1.51.32,2.62,2.62,0,0,1-1.85-.64,2,2,0,0,1-.71-1.61,2.12,2.12,0,0,1,1-1.83,4.63,4.63,0,0,1,2.69-.67h1.58v-.9a1.74,1.74,0,0,0-.52-1.34,2.2,2.2,0,0,0-1.53-.49,2.39,2.39,0,0,0-1.51.47,1.39,1.39,0,0,0-.6,1.13h-.88a2,2,0,0,1,.88-1.63,3.32,3.32,0,0,1,2.16-.7,3.05,3.05,0,0,1,2.09.67,2.38,2.38,0,0,1,.79,1.85v3.75a4.69,4.69,0,0,0,.24,1.72V133Zm-2.75-.63a3,3,0,0,0,1.57-.42,2.46,2.46,0,0,0,1-1.14v-1.74h-1.56a3.9,3.9,0,0,0-2.05.48,1.49,1.49,0,0,0-.25,2.39A1.88,1.88,0,0,0,501.22,132.35Z"/><path d="M507.84,125.06l0,1.36A3.14,3.14,0,0,1,509,125.3a2.89,2.89,0,0,1,1.47-.39,2.37,2.37,0,0,1,1.9.72,3.24,3.24,0,0,1,.63,2.15V133h-.87v-5.2a2.46,2.46,0,0,0-.45-1.58,1.77,1.77,0,0,0-1.42-.52,2.27,2.27,0,0,0-1.44.5,2.88,2.88,0,0,0-.92,1.38V133H507v-7.92Z"/><path d="M517.76,131.73l2.31-6.67H521l-3.39,9.27-.17.41a2.15,2.15,0,0,1-2,1.45,2.4,2.4,0,0,1-.67-.11v-.72l.45,0a1.61,1.61,0,0,0,1-.32,2.46,2.46,0,0,0,.68-1.09l.38-1.07-3-7.86h.95Zm1-10h1.06l-1.69,2.06h-.77Z"/><path d="M525.21,132.39a2.32,2.32,0,0,0,1.53-.51,1.82,1.82,0,0,0,.67-1.34h.84a2.44,2.44,0,0,1-.45,1.32,2.8,2.8,0,0,1-1.11.93,3.28,3.28,0,0,1-1.48.34,3.09,3.09,0,0,1-2.48-1.08,4.4,4.4,0,0,1-.91-2.92v-.26a5,5,0,0,1,.41-2.07,3.1,3.1,0,0,1,3-1.89,3.06,3.06,0,0,1,2.15.78,2.85,2.85,0,0,1,.9,2h-.84a2.14,2.14,0,0,0-.67-1.5,2.38,2.38,0,0,0-3.38.29,3.85,3.85,0,0,0-.66,2.4v.26a3.74,3.74,0,0,0,.66,2.36A2.18,2.18,0,0,0,525.21,132.39Z"/><path d="M530.87,126.4a3.16,3.16,0,0,1,1.11-1.1,2.89,2.89,0,0,1,1.47-.39,2.39,2.39,0,0,1,1.9.72,3.3,3.3,0,0,1,.63,2.15V133h-.87v-5.2a2.46,2.46,0,0,0-.45-1.58,1.77,1.77,0,0,0-1.42-.52,2.27,2.27,0,0,0-1.44.5,3,3,0,0,0-.93,1.38V133H530V121.73h.87Z"/><path d="M548.25,129.1a4.73,4.73,0,0,1-.82,2.94,2.59,2.59,0,0,1-2.19,1.09,2.92,2.92,0,0,1-2.49-1.14v4h-.87v-11h.81l0,1.12a2.82,2.82,0,0,1,2.48-1.27,2.65,2.65,0,0,1,2.24,1.08,4.94,4.94,0,0,1,.8,3Zm-.87-.15a4.07,4.07,0,0,0-.63-2.4,2,2,0,0,0-1.73-.87,2.43,2.43,0,0,0-1.39.38,2.46,2.46,0,0,0-.88,1.13V131a2.3,2.3,0,0,0,.9,1,2.58,2.58,0,0,0,1.38.36,2,2,0,0,0,1.73-.88A4.46,4.46,0,0,0,547.38,129Z"/><path d="M549.71,128.91a4.59,4.59,0,0,1,.45-2.06,3.32,3.32,0,0,1,3.08-1.94,3.27,3.27,0,0,1,2.57,1.11,4.3,4.3,0,0,1,1,2.94v.19a4.69,4.69,0,0,1-.45,2.07,3.29,3.29,0,0,1-1.24,1.41,3.37,3.37,0,0,1-1.84.5A3.25,3.25,0,0,1,550.7,132a4.25,4.25,0,0,1-1-2.94Zm.88.24a3.61,3.61,0,0,0,.74,2.33,2.49,2.49,0,0,0,3.85,0,3.73,3.73,0,0,0,.74-2.41v-.16a4.15,4.15,0,0,0-.34-1.67,2.77,2.77,0,0,0-1-1.17,2.42,2.42,0,0,0-1.39-.41,2.34,2.34,0,0,0-1.91.92,3.73,3.73,0,0,0-.74,2.41Z"/><path d="M561,131.78l2.4-6.72h.91l-3,7.92h-.71l-3-7.92h.9Z"/><path d="M565.11,128.91a4.72,4.72,0,0,1,.44-2.06,3.32,3.32,0,0,1,3.09-1.94A3.25,3.25,0,0,1,571.2,126a4.25,4.25,0,0,1,1,2.94v.19a4.69,4.69,0,0,1-.44,2.07,3.24,3.24,0,0,1-1.25,1.41,3.37,3.37,0,0,1-1.84.5,3.27,3.27,0,0,1-2.56-1.11,4.3,4.3,0,0,1-1-2.94Zm.88.24a3.61,3.61,0,0,0,.73,2.33,2.5,2.5,0,0,0,3.86,0,3.72,3.72,0,0,0,.73-2.41v-.16a4,4,0,0,0-.34-1.67,2.68,2.68,0,0,0-.94-1.17,2.47,2.47,0,0,0-1.39-.41,2.34,2.34,0,0,0-1.91.92A3.67,3.67,0,0,0,566,129Z"/><path d="M575,133h-.88V121.73H575Z"/><path d="M580.42,133.13a3.4,3.4,0,0,1-1.83-.5,3.46,3.46,0,0,1-1.27-1.38,4.39,4.39,0,0,1-.45-2v-.32a4.71,4.71,0,0,1,.44-2.05,3.56,3.56,0,0,1,1.24-1.44,3,3,0,0,1,1.71-.53,2.85,2.85,0,0,1,2.29,1,4,4,0,0,1,.85,2.69v.49h-5.66v.17a3.31,3.31,0,0,0,.77,2.24,2.47,2.47,0,0,0,2,.9,2.86,2.86,0,0,0,1.24-.25,2.9,2.9,0,0,0,1-.83l.55.42A3.19,3.19,0,0,1,580.42,133.13Zm-.16-7.47a2.19,2.19,0,0,0-1.67.73,3.35,3.35,0,0,0-.82,1.94h4.75v-.09a2.89,2.89,0,0,0-.65-1.86A2,2,0,0,0,580.26,125.66Z"/><path d="M585.94,125.06l0,1.36a3,3,0,0,1,1.11-1.12,2.84,2.84,0,0,1,1.47-.39,2.39,2.39,0,0,1,1.9.72,3.3,3.3,0,0,1,.63,2.15V133h-.87v-5.2a2.46,2.46,0,0,0-.45-1.58,1.77,1.77,0,0,0-1.42-.52,2.27,2.27,0,0,0-1.44.5,3,3,0,0,0-.93,1.38V133h-.87v-7.92Z"/><path d="M593.29,122.77a.57.57,0,0,1,.6-.59.59.59,0,0,1,.44.17.61.61,0,0,1,.17.42.59.59,0,0,1-.17.42.58.58,0,0,1-.44.16.6.6,0,0,1-.44-.16A.58.58,0,0,1,593.29,122.77Zm1,10.21h-.88v-7.92h.88Z"/><path d="M599.77,133.13a3.4,3.4,0,0,1-1.83-.5,3.46,3.46,0,0,1-1.27-1.38,4.39,4.39,0,0,1-.45-2v-.32a4.71,4.71,0,0,1,.44-2.05,3.56,3.56,0,0,1,1.24-1.44,3,3,0,0,1,1.71-.53,2.85,2.85,0,0,1,2.29,1,4,4,0,0,1,.85,2.69v.49h-5.66v.17a3.31,3.31,0,0,0,.77,2.24,2.47,2.47,0,0,0,1.95.9,2.86,2.86,0,0,0,1.24-.25,2.9,2.9,0,0,0,1-.83l.55.42A3.19,3.19,0,0,1,599.77,133.13Zm-.16-7.47a2.19,2.19,0,0,0-1.67.73,3.35,3.35,0,0,0-.82,1.94h4.75v-.09a2.89,2.89,0,0,0-.65-1.86A2,2,0,0,0,599.61,125.66Z"/><path d="M606.33,129l-1,1v3h-.88V121.73h.88v7.2l.83-.89,3-3h1.11l-3.37,3.34,3.66,4.58h-1.05Z"/><path d="M611.72,132.46a.63.63,0,0,1,.16-.44.68.68,0,0,1,.92,0,.64.64,0,0,1,.17.44.57.57,0,0,1-.17.42.74.74,0,0,1-.92,0A.57.57,0,0,1,611.72,132.46Z"/><polyline class="cls-9" points="729.3 233.58 692.52 233.58 692.52 229.17 654.78 229.17 654.78 224.76 617.03 224.76 617.03 220.36 579.29 220.36 579.29 215.95 541.55 215.95 541.55 211.54 503.8 211.54 503.8 207.13 466.06 207.13 466.06 202.72 428.32 202.72 428.32 198.31 390.57 198.31 390.57 193.91 352.83 193.91 352.83 168.8 315.09 168.8 315.09 164.88 277.34 164.88 277.34 160.96 239.6 160.96 239.6 157.04 201.86 157.04 201.86 153.11 164.11 153.11 164.11 149.19 126.37 149.19 126.37 145.27 88.63 145.27 88.63 141.35 50.88 141.35"/><rect class="cls-8" x="664.79" y="98.01" width="8.86" height="1.88"/></svg>