<svg id="Layer_1" data-name="Layer 1" xmlns="http://www.w3.org/2000/svg" viewBox="0 0 520 363.42"><defs><style>.cls-1,.cls-2,.cls-3,.cls-5,.cls-9{fill:none;}.cls-1{stroke:#ccc;}.cls-1,.cls-5,.cls-9{stroke-miterlimit:10;}.cls-1,.cls-9{stroke-width:2px;}.cls-2{stroke:#666;stroke-width:0.66px;}.cls-2,.cls-3,.cls-9{stroke-linecap:square;}.cls-3{stroke:#808285;stroke-linejoin:round;stroke-width:0.3px;stroke-dasharray:5.69;}.cls-4{fill:#231f20;opacity:0.1;}.cls-5{stroke:#939598;}.cls-6{fill:#939598;}.cls-7{fill:#999;}.cls-8{fill:#fff;}.cls-9{stroke:#000;}</style></defs><line class="cls-1" x1="515.68" y1="222.06" x2="515.68" y2="334.29"/><path d="M41.73,355.1H35.05v-.67l3.66-4.14A9.71,9.71,0,0,0,40,348.56a2.86,2.86,0,0,0,.36-1.33,2.14,2.14,0,0,0-.6-1.6,2.22,2.22,0,0,0-1.63-.59,2.3,2.3,0,0,0-1.74.69,2.47,2.47,0,0,0-.66,1.79h-.87a3.35,3.35,0,0,1,.4-1.64,2.88,2.88,0,0,1,1.16-1.16,3.34,3.34,0,0,1,1.71-.43,3.24,3.24,0,0,1,2.29.77,2.73,2.73,0,0,1,.82,2.1,3.52,3.52,0,0,1-.46,1.63A12.14,12.14,0,0,1,39.1,351l-3,3.36h5.6Z"/><path d="M49.79,350.66a5.92,5.92,0,0,1-.82,3.42,3.14,3.14,0,0,1-4.87,0,5.63,5.63,0,0,1-.86-3.33v-1.91a5.85,5.85,0,0,1,.83-3.41,3.16,3.16,0,0,1,4.86,0,5.57,5.57,0,0,1,.86,3.29Zm-.88-1.91a5.19,5.19,0,0,0-.59-2.77,2.21,2.21,0,0,0-3.6,0,5,5,0,0,0-.61,2.7v2.09a5.2,5.2,0,0,0,.62,2.79,2,2,0,0,0,1.8,1,2,2,0,0,0,1.77-.94,5.13,5.13,0,0,0,.61-2.77Z"/><path d="M55.76,355.1h-.88v-9.6L52,346.57v-.82l3.63-1.35h.15Z"/><path d="M61.94,349.3h.91a3,3,0,0,0,1.31-.27,1.88,1.88,0,0,0,1.16-1.81,2.15,2.15,0,0,0-.58-1.6,2.22,2.22,0,0,0-1.66-.58,2.36,2.36,0,0,0-1.68.61,2,2,0,0,0-.66,1.59h-.87a2.81,2.81,0,0,1,1.57-2.57,3.57,3.57,0,0,1,1.64-.38,3.19,3.19,0,0,1,2.29.8,2.85,2.85,0,0,1,.83,2.16,2.27,2.27,0,0,1-.49,1.42,2.89,2.89,0,0,1-1.33,1,2.78,2.78,0,0,1,1.51,1,2.6,2.6,0,0,1,.51,1.61,2.87,2.87,0,0,1-.9,2.21,3.36,3.36,0,0,1-2.38.83,4,4,0,0,1-1.75-.38,2.84,2.84,0,0,1-1.67-2.66h.88a2.15,2.15,0,0,0,.71,1.66,2.64,2.64,0,0,0,1.83.64,2.53,2.53,0,0,0,1.77-.58,2.19,2.19,0,0,0,.63-1.69,2,2,0,0,0-.69-1.63,3.05,3.05,0,0,0-2-.57h-.88Z"/><path d="M95,355.1H88.27v-.67l3.66-4.14a10.42,10.42,0,0,0,1.26-1.73,3,3,0,0,0,.35-1.33,2.14,2.14,0,0,0-.6-1.6,2.22,2.22,0,0,0-1.63-.59,2.3,2.3,0,0,0-1.74.69,2.47,2.47,0,0,0-.66,1.79H88a3.35,3.35,0,0,1,.4-1.64,2.88,2.88,0,0,1,1.16-1.16,3.34,3.34,0,0,1,1.71-.43,3.24,3.24,0,0,1,2.29.77,2.73,2.73,0,0,1,.82,2.1,3.52,3.52,0,0,1-.46,1.63A12.14,12.14,0,0,1,92.32,351l-3,3.36H95Z"/><path d="M103,350.66a5.91,5.91,0,0,1-.83,3.42,3.13,3.13,0,0,1-4.86,0,5.63,5.63,0,0,1-.87-3.33v-1.91a5.78,5.78,0,0,1,.84-3.41,3.15,3.15,0,0,1,4.85,0,5.56,5.56,0,0,1,.87,3.29Zm-.88-1.91a5.18,5.18,0,0,0-.6-2.77A2.2,2.2,0,0,0,98,346a5,5,0,0,0-.62,2.7v2.09a5.2,5.2,0,0,0,.62,2.79,2.16,2.16,0,0,0,3.58,0,5.32,5.32,0,0,0,.61-2.77Z"/><path d="M109,355.1h-.88v-9.6l-2.9,1.07v-.82l3.63-1.35H109Z"/><path d="M113.8,349.64l.52-5.2h5.34v.81h-4.58l-.37,3.61a3.44,3.44,0,0,1,2-.59,3,3,0,0,1,2.3.94,3.56,3.56,0,0,1,.86,2.5,3.76,3.76,0,0,1-.84,2.61,3,3,0,0,1-2.35.93,3.21,3.21,0,0,1-2.25-.78,3.12,3.12,0,0,1-1-2.17h.84A2.5,2.5,0,0,0,115,354a2.38,2.38,0,0,0,1.66.56,2.1,2.1,0,0,0,1.73-.72,3.31,3.31,0,0,0,.58-2.07,2.8,2.8,0,0,0-.65-1.91,2.27,2.27,0,0,0-1.78-.74,3.25,3.25,0,0,0-1.09.16,3,3,0,0,0-1,.61Z"/><path d="M148.17,355.1h-6.68v-.67l3.66-4.14a10.42,10.42,0,0,0,1.26-1.73,3,3,0,0,0,.35-1.33,2.18,2.18,0,0,0-.59-1.6,2.24,2.24,0,0,0-1.64-.59,2.33,2.33,0,0,0-1.74.69,2.47,2.47,0,0,0-.66,1.79h-.87a3.25,3.25,0,0,1,.41-1.64,2.85,2.85,0,0,1,1.15-1.16,3.34,3.34,0,0,1,1.71-.43,3.24,3.24,0,0,1,2.29.77,2.74,2.74,0,0,1,.83,2.1,3.55,3.55,0,0,1-.47,1.63,11.68,11.68,0,0,1-1.64,2.21l-3,3.36h5.6Z"/><path d="M156.24,350.66a5.91,5.91,0,0,1-.83,3.42,3.13,3.13,0,0,1-4.86,0,5.63,5.63,0,0,1-.87-3.33v-1.91a5.78,5.78,0,0,1,.84-3.41,3.15,3.15,0,0,1,4.85,0,5.56,5.56,0,0,1,.87,3.29Zm-.88-1.91a5.18,5.18,0,0,0-.6-2.77,2.2,2.2,0,0,0-3.59,0,5,5,0,0,0-.62,2.7v2.09a5.2,5.2,0,0,0,.62,2.79,2.16,2.16,0,0,0,3.58,0,5.32,5.32,0,0,0,.61-2.77Z"/><path d="M162.2,355.1h-.88v-9.6l-2.9,1.07v-.82l3.63-1.35h.15Z"/><path d="M173,345l-4.55,10.15h-.92l4.53-9.91H166v-.75h7Z"/><path d="M201.4,355.1h-6.68v-.67l3.65-4.14a9.36,9.36,0,0,0,1.26-1.73,3,3,0,0,0,.35-1.33,2.18,2.18,0,0,0-.59-1.6,2.24,2.24,0,0,0-1.64-.59,2.29,2.29,0,0,0-1.73.69,2.44,2.44,0,0,0-.67,1.79h-.87a3.35,3.35,0,0,1,.41-1.64,2.85,2.85,0,0,1,1.15-1.16,3.37,3.37,0,0,1,1.71-.43,3.24,3.24,0,0,1,2.29.77,2.74,2.74,0,0,1,.83,2.1,3.55,3.55,0,0,1-.47,1.63,12,12,0,0,1-1.63,2.21l-3,3.36h5.61Z"/><path d="M209.46,350.66a5.91,5.91,0,0,1-.83,3.42,3.13,3.13,0,0,1-4.86,0,5.7,5.7,0,0,1-.87-3.33v-1.91a5.78,5.78,0,0,1,.84-3.41,2.83,2.83,0,0,1,2.44-1.16,2.86,2.86,0,0,1,2.42,1.12,5.64,5.64,0,0,1,.86,3.29Zm-.88-1.91A5.18,5.18,0,0,0,208,346a2,2,0,0,0-1.8-.94,2,2,0,0,0-1.79.92,5,5,0,0,0-.61,2.7v2.09a5.2,5.2,0,0,0,.61,2.79,2,2,0,0,0,1.8,1,2,2,0,0,0,1.78-.94,5.22,5.22,0,0,0,.61-2.77Z"/><path d="M215.42,355.1h-.88v-9.6l-2.9,1.07v-.82l3.63-1.35h.15Z"/><path d="M225.12,350.17a3.26,3.26,0,0,1-1.16,1.06,3,3,0,0,1-1.51.38,2.74,2.74,0,0,1-1.6-.47,3,3,0,0,1-1.08-1.29,4.38,4.38,0,0,1-.38-1.81,4.43,4.43,0,0,1,.41-1.92,3.21,3.21,0,0,1,1.13-1.35,3.27,3.27,0,0,1,4.18.65,5,5,0,0,1,.89,3.19v.79a6.59,6.59,0,0,1-1.23,4.34,4.66,4.66,0,0,1-3.75,1.44h-.16v-.76h.31a3.93,3.93,0,0,0,2.91-1.08A4.63,4.63,0,0,0,225.12,350.17Zm-2.56.68a2.56,2.56,0,0,0,1.58-.52,2.76,2.76,0,0,0,1-1.36v-.5a4.13,4.13,0,0,0-.67-2.52,2.18,2.18,0,0,0-1.83-.89,2.11,2.11,0,0,0-1.71.83,3.31,3.31,0,0,0-.67,2.11,3.17,3.17,0,0,0,.65,2A2,2,0,0,0,222.56,350.85Z"/><path d="M254.62,355.1h-6.68v-.67l3.65-4.14a9.36,9.36,0,0,0,1.26-1.73,3,3,0,0,0,.35-1.33,2.18,2.18,0,0,0-.59-1.6A2.23,2.23,0,0,0,251,345a2.3,2.3,0,0,0-1.74.69,2.44,2.44,0,0,0-.67,1.79h-.87a3.35,3.35,0,0,1,.41-1.64,2.82,2.82,0,0,1,1.16-1.16,3.34,3.34,0,0,1,1.71-.43,3.23,3.23,0,0,1,2.28.77,2.74,2.74,0,0,1,.83,2.1,3.55,3.55,0,0,1-.47,1.63A12,12,0,0,1,252,351l-3,3.36h5.61Z"/><path d="M262.68,350.66a5.91,5.91,0,0,1-.83,3.42,3.13,3.13,0,0,1-4.86,0,5.7,5.7,0,0,1-.87-3.33v-1.91a5.78,5.78,0,0,1,.84-3.41,2.83,2.83,0,0,1,2.44-1.16,2.86,2.86,0,0,1,2.42,1.12,5.64,5.64,0,0,1,.86,3.29Zm-.88-1.91a5.18,5.18,0,0,0-.6-2.77,2,2,0,0,0-1.8-.94,2,2,0,0,0-1.79.92,5,5,0,0,0-.61,2.7v2.09a5.11,5.11,0,0,0,.62,2.79,2.15,2.15,0,0,0,3.57,0,5.22,5.22,0,0,0,.61-2.77Z"/><path d="M271.24,355.1h-6.68v-.67l3.66-4.14a10.42,10.42,0,0,0,1.26-1.73,3,3,0,0,0,.35-1.33,2.14,2.14,0,0,0-.6-1.6,2.22,2.22,0,0,0-1.63-.59,2.3,2.3,0,0,0-1.74.69,2.47,2.47,0,0,0-.66,1.79h-.87a3.35,3.35,0,0,1,.4-1.64,2.88,2.88,0,0,1,1.16-1.16,3.34,3.34,0,0,1,1.71-.43,3.24,3.24,0,0,1,2.29.77,2.73,2.73,0,0,1,.82,2.1,3.52,3.52,0,0,1-.46,1.63,12.14,12.14,0,0,1-1.64,2.21l-3,3.36h5.6Z"/><path d="M277,355.1h-.87v-9.6l-2.91,1.07v-.82l3.64-1.35H277Z"/><path d="M307.84,355.1h-6.68v-.67l3.65-4.14a9.36,9.36,0,0,0,1.26-1.73,2.84,2.84,0,0,0,.35-1.33,2.14,2.14,0,0,0-.59-1.6,2.22,2.22,0,0,0-1.63-.59,2.3,2.3,0,0,0-1.74.69,2.48,2.48,0,0,0-.67,1.79h-.87a3.35,3.35,0,0,1,.41-1.64,2.88,2.88,0,0,1,1.16-1.16,3.34,3.34,0,0,1,1.71-.43,3.25,3.25,0,0,1,2.29.77,2.73,2.73,0,0,1,.82,2.1,3.43,3.43,0,0,1-.47,1.63,11.54,11.54,0,0,1-1.63,2.21l-3,3.36h5.61Z"/><path d="M315.9,350.66a5.91,5.91,0,0,1-.83,3.42,3.13,3.13,0,0,1-4.86,0,5.63,5.63,0,0,1-.86-3.33v-1.91a5.78,5.78,0,0,1,.83-3.41,2.83,2.83,0,0,1,2.44-1.16,2.86,2.86,0,0,1,2.42,1.12,5.64,5.64,0,0,1,.86,3.29Zm-.88-1.91a5.18,5.18,0,0,0-.6-2.77,2,2,0,0,0-1.8-.94,2,2,0,0,0-1.79.92,5,5,0,0,0-.61,2.7v2.09a5.11,5.11,0,0,0,.62,2.79,2,2,0,0,0,1.79,1,2,2,0,0,0,1.78-.94,5.22,5.22,0,0,0,.61-2.77Z"/><path d="M324.46,355.1h-6.68v-.67l3.66-4.14a10.42,10.42,0,0,0,1.26-1.73,3,3,0,0,0,.35-1.33,2.18,2.18,0,0,0-.59-1.6,2.24,2.24,0,0,0-1.64-.59,2.33,2.33,0,0,0-1.74.69,2.47,2.47,0,0,0-.66,1.79h-.87a3.25,3.25,0,0,1,.41-1.64,2.85,2.85,0,0,1,1.15-1.16,3.34,3.34,0,0,1,1.71-.43,3.24,3.24,0,0,1,2.29.77,2.74,2.74,0,0,1,.83,2.1,3.55,3.55,0,0,1-.47,1.63,11.68,11.68,0,0,1-1.64,2.21l-3,3.36h5.6Z"/><path d="M328,349.3H329a3,3,0,0,0,1.32-.27,2,2,0,0,0,.86-.73,2,2,0,0,0,.3-1.08,2.15,2.15,0,0,0-.58-1.6,2.24,2.24,0,0,0-1.66-.58,2.33,2.33,0,0,0-1.68.61,2,2,0,0,0-.66,1.59H326a2.82,2.82,0,0,1,.42-1.51,2.77,2.77,0,0,1,1.16-1.06,3.57,3.57,0,0,1,1.64-.38,3.17,3.17,0,0,1,2.28.8,2.82,2.82,0,0,1,.84,2.16,2.27,2.27,0,0,1-.49,1.42,2.87,2.87,0,0,1-1.34,1,2.7,2.7,0,0,1,1.51,1,2.61,2.61,0,0,1,.52,1.61,2.87,2.87,0,0,1-.9,2.21,3.37,3.37,0,0,1-2.39.83,4,4,0,0,1-1.74-.38,2.84,2.84,0,0,1-1.67-2.66h.88a2.15,2.15,0,0,0,.71,1.66,2.59,2.59,0,0,0,1.82.64,2.5,2.5,0,0,0,1.77-.58,2.16,2.16,0,0,0,.64-1.69,2,2,0,0,0-.69-1.63,3.08,3.08,0,0,0-2-.57H328Z"/><path d="M361.06,355.1h-6.68v-.67l3.65-4.14a9.36,9.36,0,0,0,1.26-1.73,2.86,2.86,0,0,0,.36-1.33,2.14,2.14,0,0,0-.6-1.6,2.22,2.22,0,0,0-1.63-.59,2.3,2.3,0,0,0-1.74.69,2.47,2.47,0,0,0-.66,1.79h-.87a3.35,3.35,0,0,1,.4-1.64,2.88,2.88,0,0,1,1.16-1.16,3.34,3.34,0,0,1,1.71-.43,3.24,3.24,0,0,1,2.29.77,2.73,2.73,0,0,1,.82,2.1,3.52,3.52,0,0,1-.46,1.63,12.14,12.14,0,0,1-1.64,2.21l-3,3.36h5.6Z"/><path d="M369.12,350.66a5.92,5.92,0,0,1-.82,3.42,3.14,3.14,0,0,1-4.87,0,5.63,5.63,0,0,1-.86-3.33v-1.91a5.85,5.85,0,0,1,.83-3.41,3.16,3.16,0,0,1,4.86,0,5.57,5.57,0,0,1,.86,3.29Zm-.88-1.91a5.19,5.19,0,0,0-.59-2.77,2,2,0,0,0-1.81-.94,2,2,0,0,0-1.79.92,5,5,0,0,0-.61,2.7v2.09a5.2,5.2,0,0,0,.62,2.79,2,2,0,0,0,1.8,1,2,2,0,0,0,1.77-.94,5.13,5.13,0,0,0,.61-2.77Z"/><path d="M377.69,355.1H371v-.67l3.65-4.14a9.36,9.36,0,0,0,1.26-1.73,3,3,0,0,0,.35-1.33,2.18,2.18,0,0,0-.59-1.6A2.24,2.24,0,0,0,374,345a2.29,2.29,0,0,0-1.73.69,2.44,2.44,0,0,0-.67,1.79h-.87a3.35,3.35,0,0,1,.41-1.64,2.85,2.85,0,0,1,1.15-1.16,3.37,3.37,0,0,1,1.71-.43,3.24,3.24,0,0,1,2.29.77,2.74,2.74,0,0,1,.83,2.1,3.55,3.55,0,0,1-.47,1.63,12,12,0,0,1-1.63,2.21l-3,3.36h5.61Z"/><path d="M379.91,349.64l.52-5.2h5.33v.81h-4.57l-.38,3.61a3.48,3.48,0,0,1,2-.59,3,3,0,0,1,2.3.94,3.56,3.56,0,0,1,.86,2.5,3.76,3.76,0,0,1-.84,2.61,3,3,0,0,1-2.35.93,3.25,3.25,0,0,1-2.26-.78,3.21,3.21,0,0,1-1-2.17h.85a2.5,2.5,0,0,0,.74,1.65,2.38,2.38,0,0,0,1.66.56,2.07,2.07,0,0,0,1.72-.72,3.25,3.25,0,0,0,.59-2.07,2.8,2.8,0,0,0-.65-1.91,2.27,2.27,0,0,0-1.78-.74,3.25,3.25,0,0,0-1.09.16,2.86,2.86,0,0,0-1,.61Z"/><path d="M414.28,355.1H407.6v-.67l3.66-4.14a10.42,10.42,0,0,0,1.26-1.73,3,3,0,0,0,.35-1.33,2.14,2.14,0,0,0-.6-1.6,2.22,2.22,0,0,0-1.63-.59,2.3,2.3,0,0,0-1.74.69,2.47,2.47,0,0,0-.66,1.79h-.87a3.35,3.35,0,0,1,.4-1.64,2.88,2.88,0,0,1,1.16-1.16,3.34,3.34,0,0,1,1.71-.43,3.24,3.24,0,0,1,2.29.77,2.73,2.73,0,0,1,.82,2.1,3.52,3.52,0,0,1-.46,1.63,12.14,12.14,0,0,1-1.64,2.21l-3,3.36h5.6Z"/><path d="M422.34,350.66a5.92,5.92,0,0,1-.82,3.42,3.14,3.14,0,0,1-4.87,0,5.63,5.63,0,0,1-.86-3.33v-1.91a5.85,5.85,0,0,1,.83-3.41,3.16,3.16,0,0,1,4.86,0,5.57,5.57,0,0,1,.86,3.29Zm-.88-1.91a5.19,5.19,0,0,0-.59-2.77,2.2,2.2,0,0,0-3.59,0,5,5,0,0,0-.62,2.7v2.09a5.2,5.2,0,0,0,.62,2.79,2,2,0,0,0,1.8,1,2,2,0,0,0,1.77-.94,5.13,5.13,0,0,0,.61-2.77Z"/><path d="M430.91,355.1h-6.68v-.67l3.65-4.14a9.36,9.36,0,0,0,1.26-1.73,2.84,2.84,0,0,0,.35-1.33,2.14,2.14,0,0,0-.59-1.6,2.23,2.23,0,0,0-1.63-.59,2.3,2.3,0,0,0-1.74.69,2.44,2.44,0,0,0-.67,1.79H424a3.35,3.35,0,0,1,.41-1.64,2.88,2.88,0,0,1,1.16-1.16,3.34,3.34,0,0,1,1.71-.43,3.25,3.25,0,0,1,2.29.77,2.77,2.77,0,0,1,.82,2.1,3.55,3.55,0,0,1-.47,1.63,12,12,0,0,1-1.63,2.21l-3,3.36h5.61Z"/><path d="M439.11,345l-4.56,10.15h-.91l4.53-9.91H432.1v-.75h7Z"/><path d="M467.5,355.1h-6.68v-.67l3.66-4.14a10.42,10.42,0,0,0,1.26-1.73,3,3,0,0,0,.35-1.33,2.18,2.18,0,0,0-.59-1.6,2.24,2.24,0,0,0-1.64-.59,2.3,2.3,0,0,0-1.74.69,2.47,2.47,0,0,0-.66,1.79h-.87a3.25,3.25,0,0,1,.41-1.64,2.85,2.85,0,0,1,1.15-1.16,3.34,3.34,0,0,1,1.71-.43,3.24,3.24,0,0,1,2.29.77,2.74,2.74,0,0,1,.83,2.1,3.55,3.55,0,0,1-.47,1.63,12.14,12.14,0,0,1-1.64,2.21l-3,3.36h5.6Z"/><path d="M475.57,350.66a5.91,5.91,0,0,1-.83,3.42,3.13,3.13,0,0,1-4.86,0,5.63,5.63,0,0,1-.87-3.33v-1.91a5.78,5.78,0,0,1,.84-3.41,3.15,3.15,0,0,1,4.85,0,5.56,5.56,0,0,1,.87,3.29Zm-.88-1.91a5.18,5.18,0,0,0-.6-2.77,2.2,2.2,0,0,0-3.59,0,5,5,0,0,0-.62,2.7v2.09a5.2,5.2,0,0,0,.62,2.79,2.16,2.16,0,0,0,3.58,0,5.32,5.32,0,0,0,.61-2.77Z"/><path d="M484.13,355.1h-6.68v-.67l3.65-4.14a9.36,9.36,0,0,0,1.26-1.73,2.84,2.84,0,0,0,.35-1.33,2.14,2.14,0,0,0-.59-1.6,2.22,2.22,0,0,0-1.63-.59,2.3,2.3,0,0,0-1.74.69,2.47,2.47,0,0,0-.66,1.79h-.88a3.35,3.35,0,0,1,.41-1.64,2.88,2.88,0,0,1,1.16-1.16,3.34,3.34,0,0,1,1.71-.43,3.25,3.25,0,0,1,2.29.77,2.73,2.73,0,0,1,.82,2.1,3.52,3.52,0,0,1-.46,1.63A12.14,12.14,0,0,1,481.5,351l-3,3.36h5.6Z"/><path d="M491.23,350.17a3.26,3.26,0,0,1-1.16,1.06,3.05,3.05,0,0,1-1.51.38,2.72,2.72,0,0,1-1.6-.47,3,3,0,0,1-1.08-1.29,4.23,4.23,0,0,1-.38-1.81,4.43,4.43,0,0,1,.4-1.92,3.16,3.16,0,0,1,1.14-1.35,3,3,0,0,1,1.68-.48,3,3,0,0,1,2.5,1.13,5,5,0,0,1,.89,3.19v.79a6.59,6.59,0,0,1-1.23,4.34,4.67,4.67,0,0,1-3.76,1.44H487v-.76h.31a3.93,3.93,0,0,0,2.91-1.08A4.63,4.63,0,0,0,491.23,350.17Zm-2.56.68a2.58,2.58,0,0,0,1.58-.52,2.89,2.89,0,0,0,1-1.36v-.5a4.13,4.13,0,0,0-.68-2.52,2.16,2.16,0,0,0-1.83-.89,2.09,2.09,0,0,0-1.7.83,3.25,3.25,0,0,0-.67,2.11,3.22,3.22,0,0,0,.64,2A2,2,0,0,0,488.67,350.85Z"/><path class="cls-2" d="M32.73,334.29H516"/><path class="cls-3" d="M5.58,334.29H516"/><path class="cls-3" d="M5.58,286.91H516"/><path class="cls-3" d="M5.58,239.53H516"/><path class="cls-3" d="M5.58,192.16H516"/><path class="cls-3" d="M5.58,144.78H516"/><path class="cls-3" d="M5.58,97.4H516"/><path d="M12.5,326.63a5.92,5.92,0,0,1-.83,3.43,2.82,2.82,0,0,1-2.44,1.16,2.83,2.83,0,0,1-2.42-1.14,5.68,5.68,0,0,1-.87-3.34v-1.91a5.8,5.8,0,0,1,.84-3.41,2.8,2.8,0,0,1,2.43-1.15,2.83,2.83,0,0,1,2.42,1.11,5.6,5.6,0,0,1,.87,3.3Zm-.88-1.91A5.2,5.2,0,0,0,11,322,2,2,0,0,0,9.21,321a2,2,0,0,0-1.78.92,5,5,0,0,0-.62,2.7v2.1a5.24,5.24,0,0,0,.62,2.79,2,2,0,0,0,1.8,1,2,2,0,0,0,1.78-.94,5.29,5.29,0,0,0,.61-2.77Z"/><path d="M12.5,279a5.92,5.92,0,0,1-.83,3.43,2.82,2.82,0,0,1-2.44,1.16,2.83,2.83,0,0,1-2.42-1.14,5.68,5.68,0,0,1-.87-3.34v-1.91a5.8,5.8,0,0,1,.84-3.41,2.8,2.8,0,0,1,2.43-1.15,2.83,2.83,0,0,1,2.42,1.11,5.6,5.6,0,0,1,.87,3.3Zm-.88-1.91a5.2,5.2,0,0,0-.6-2.77,2,2,0,0,0-1.81-.94,2,2,0,0,0-1.78.92,5,5,0,0,0-.62,2.7v2.1a5.24,5.24,0,0,0,.62,2.79,2,2,0,0,0,1.8,1,2,2,0,0,0,1.78-.94,5.29,5.29,0,0,0,.61-2.77Z"/><path d="M14.33,285.47l-.52-.38a3.12,3.12,0,0,0,.69-1.85V282.1h.86V283A3.14,3.14,0,0,1,14.33,285.47Z"/><path d="M17.84,278l.52-5.2H23.7v.82H19.12l-.38,3.6a3.48,3.48,0,0,1,2-.59,3,3,0,0,1,2.3.94,3.58,3.58,0,0,1,.86,2.5,3.76,3.76,0,0,1-.84,2.61,3,3,0,0,1-2.35.93,3.25,3.25,0,0,1-2.26-.77,3.18,3.18,0,0,1-1-2.18h.84a2.5,2.5,0,0,0,.74,1.65,2.34,2.34,0,0,0,1.66.56,2.1,2.1,0,0,0,1.73-.72,3.27,3.27,0,0,0,.58-2.07,2.82,2.82,0,0,0-.65-1.91,2.27,2.27,0,0,0-1.78-.74,3.53,3.53,0,0,0-1.09.16,3.14,3.14,0,0,0-1,.61Z"/><path d="M10.15,235.88H9.27v-9.61l-2.9,1.08v-.82L10,225.18h.15Z"/><path d="M14.33,237.87l-.52-.38a3.1,3.1,0,0,0,.69-1.85V234.5h.86v.92A3.14,3.14,0,0,1,14.33,237.87Z"/><path d="M23.68,231.44a5.91,5.91,0,0,1-.83,3.42A2.79,2.79,0,0,1,20.41,236,2.81,2.81,0,0,1,18,234.88a5.7,5.7,0,0,1-.87-3.33v-1.92a5.76,5.76,0,0,1,.84-3.4,2.83,2.83,0,0,1,2.44-1.16,2.84,2.84,0,0,1,2.42,1.12,5.62,5.62,0,0,1,.86,3.29Zm-.88-1.92a5.14,5.14,0,0,0-.6-2.76,2,2,0,0,0-1.8-.94,2,2,0,0,0-1.79.91,5.05,5.05,0,0,0-.61,2.71v2.09a5.11,5.11,0,0,0,.62,2.79,2.14,2.14,0,0,0,3.57,0,5.19,5.19,0,0,0,.61-2.77Z"/><path d="M10.15,188.28H9.27v-9.61l-2.9,1.08v-.82L10,177.58h.15Z"/><path d="M14.33,190.27l-.52-.38A3.1,3.1,0,0,0,14.5,188v-1.13h.86v.91A3.12,3.12,0,0,1,14.33,190.27Z"/><path d="M17.84,182.82l.52-5.2H23.7v.81H19.12l-.38,3.6a3.47,3.47,0,0,1,2-.58,3,3,0,0,1,2.3.94,3.54,3.54,0,0,1,.86,2.49,3.77,3.77,0,0,1-.84,2.62,3,3,0,0,1-2.35.93,3.25,3.25,0,0,1-2.26-.78,3.16,3.16,0,0,1-1-2.17h.84a2.5,2.5,0,0,0,.74,1.65,2.38,2.38,0,0,0,1.66.56,2.08,2.08,0,0,0,1.73-.73A3.26,3.26,0,0,0,23,184.9a2.8,2.8,0,0,0-.65-1.91,2.24,2.24,0,0,0-1.78-.74,3.54,3.54,0,0,0-1.09.15,3,3,0,0,0-1,.62Z"/><path d="M12.75,140.68H6.07V140l3.65-4.15A9,9,0,0,0,11,134.14a3,3,0,0,0,.35-1.33,2.18,2.18,0,0,0-.59-1.6,2.23,2.23,0,0,0-1.63-.59,2.3,2.3,0,0,0-1.74.69,2.44,2.44,0,0,0-.67,1.79H5.83a3.35,3.35,0,0,1,.41-1.64,2.9,2.9,0,0,1,1.16-1.17,3.44,3.44,0,0,1,1.71-.42,3.23,3.23,0,0,1,2.28.77,2.73,2.73,0,0,1,.83,2.1,3.58,3.58,0,0,1-.47,1.63,12,12,0,0,1-1.63,2.21l-3,3.36h5.61Z"/><path d="M14.33,142.68l-.52-.38a3.15,3.15,0,0,0,.69-1.86v-1.13h.86v.91A3.14,3.14,0,0,1,14.33,142.68Z"/><path d="M23.68,136.24a5.91,5.91,0,0,1-.83,3.42,2.79,2.79,0,0,1-2.44,1.17A2.81,2.81,0,0,1,18,139.68a5.7,5.7,0,0,1-.87-3.33v-1.91A5.78,5.78,0,0,1,18,131a2.83,2.83,0,0,1,2.44-1.16A2.86,2.86,0,0,1,22.82,131a5.62,5.62,0,0,1,.86,3.29Zm-.88-1.91a5.18,5.18,0,0,0-.6-2.77,2,2,0,0,0-1.8-.94,2,2,0,0,0-1.79.92,5,5,0,0,0-.61,2.7v2.09a5.11,5.11,0,0,0,.62,2.79,2.15,2.15,0,0,0,3.57,0,5.22,5.22,0,0,0,.61-2.77Z"/><path d="M12.78,93.41H6.1v-.67l3.66-4.15A10,10,0,0,0,11,86.86a2.9,2.9,0,0,0,.35-1.32,2.13,2.13,0,0,0-.6-1.6,2.18,2.18,0,0,0-1.63-.59A2.33,2.33,0,0,0,7.4,84a2.49,2.49,0,0,0-.66,1.79H5.87a3.35,3.35,0,0,1,.4-1.64A2.94,2.94,0,0,1,7.43,83a3.44,3.44,0,0,1,1.71-.42,3.19,3.19,0,0,1,2.29.77,2.71,2.71,0,0,1,.82,2.09,3.56,3.56,0,0,1-.46,1.64,12.49,12.49,0,0,1-1.64,2.21l-3,3.36h5.6Z"/><path d="M14.37,95.4,13.85,95a3.23,3.23,0,0,0,.69-1.85V92h.85V93A3.16,3.16,0,0,1,14.37,95.4Z"/><path d="M17.88,88l.52-5.2h5.33v.81H19.15l-.37,3.6a3.47,3.47,0,0,1,2-.58,3,3,0,0,1,2.3.93,3.58,3.58,0,0,1,.85,2.5,3.83,3.83,0,0,1-.83,2.62,3,3,0,0,1-2.35.93,3.25,3.25,0,0,1-2.26-.78,3.15,3.15,0,0,1-1-2.18h.84a2.6,2.6,0,0,0,.74,1.66,2.41,2.41,0,0,0,1.67.56,2.09,2.09,0,0,0,1.72-.73A3.2,3.2,0,0,0,23.06,90a2.78,2.78,0,0,0-.65-1.92,2.26,2.26,0,0,0-1.78-.74,3.51,3.51,0,0,0-1.08.16,3.17,3.17,0,0,0-1,.61Z"/><path d="M30.18,85.48l0,1.29a2.9,2.9,0,0,1,2.57-1.43,2.22,2.22,0,0,1,2.38,1.54,2.88,2.88,0,0,1,1.13-1.14,3.11,3.11,0,0,1,1.57-.4c1.7,0,2.56.93,2.6,2.78v5.29h-.88V88.19a2.35,2.35,0,0,0-.46-1.58,1.87,1.87,0,0,0-1.47-.51,2.3,2.3,0,0,0-1.59.61,2.15,2.15,0,0,0-.73,1.46v5.24h-.88V88.12A2.13,2.13,0,0,0,34,86.6a1.92,1.92,0,0,0-1.45-.5,2.23,2.23,0,0,0-1.42.47,2.75,2.75,0,0,0-.88,1.4v5.44h-.88V85.48Z"/><path d="M43.66,93.41h-.88V82.16h.88Z"/><path d="M45.69,89.37a4.77,4.77,0,0,1,.82-2.94,2.66,2.66,0,0,1,2.24-1.09A2.78,2.78,0,0,1,51.2,86.6V82.16h.87V93.41h-.82l0-1.06a2.81,2.81,0,0,1-2.47,1.21,2.63,2.63,0,0,1-2.21-1.11,4.76,4.76,0,0,1-.84-3Zm.89.16a4.16,4.16,0,0,0,.6,2.39,2,2,0,0,0,1.72.87,2.36,2.36,0,0,0,2.3-1.42V87.65a2.36,2.36,0,0,0-2.29-1.55,2,2,0,0,0-1.72.87A4.42,4.42,0,0,0,46.58,89.53Z"/><path d="M54.29,92.88a.61.61,0,0,1,.17-.43.59.59,0,0,1,.46-.18.6.6,0,0,1,.46.18.61.61,0,0,1,.17.43.57.57,0,0,1-.17.42.64.64,0,0,1-.46.17.62.62,0,0,1-.46-.17A.57.57,0,0,1,54.29,92.88Z"/><path d="M68,89.53a4.84,4.84,0,0,1-.82,2.94A2.63,2.63,0,0,1,65,93.56a2.9,2.9,0,0,1-2.49-1.15v4H61.6v-11h.81l0,1.12a2.82,2.82,0,0,1,2.49-1.26,2.64,2.64,0,0,1,2.23,1.08,4.84,4.84,0,0,1,.81,3Zm-.88-.16A4,4,0,0,0,66.47,87a2,2,0,0,0-1.73-.88,2.44,2.44,0,0,0-1.39.39,2.41,2.41,0,0,0-.88,1.13v3.8a2.36,2.36,0,0,0,.9,1,2.58,2.58,0,0,0,1.38.36,2,2,0,0,0,1.73-.89A4.46,4.46,0,0,0,67.1,89.37Z"/><path d="M69.43,89.33a4.62,4.62,0,0,1,.45-2.06,3.33,3.33,0,0,1,1.25-1.42A3.36,3.36,0,0,1,73,85.34a3.27,3.27,0,0,1,2.57,1.11,4.3,4.3,0,0,1,1,2.94v.18a4.76,4.76,0,0,1-.44,2.07,3.4,3.4,0,0,1-1.25,1.42,3.45,3.45,0,0,1-1.84.5,3.27,3.27,0,0,1-2.56-1.11,4.25,4.25,0,0,1-1-2.94Zm.88.24a3.57,3.57,0,0,0,.74,2.33,2.47,2.47,0,0,0,3.85,0,3.7,3.7,0,0,0,.74-2.4v-.17a4.07,4.07,0,0,0-.34-1.66,2.63,2.63,0,0,0-.94-1.17,2.4,2.4,0,0,0-1.4-.41,2.34,2.34,0,0,0-1.91.91,3.77,3.77,0,0,0-.74,2.41Z"/><path d="M80.68,92.2l2.41-6.72H84l-3,7.93h-.71l-3-7.93h.91Z"/><path d="M84.83,89.33a4.75,4.75,0,0,1,.44-2.06,3.46,3.46,0,0,1,1.25-1.42,3.4,3.4,0,0,1,1.84-.51,3.25,3.25,0,0,1,2.56,1.11,4.25,4.25,0,0,1,1,2.94v.18a4.63,4.63,0,0,1-.44,2.07,3.27,3.27,0,0,1-1.25,1.42,3.45,3.45,0,0,1-1.84.5,3.27,3.27,0,0,1-2.56-1.11,4.3,4.3,0,0,1-1-2.94Zm.88.24a3.57,3.57,0,0,0,.73,2.33,2.48,2.48,0,0,0,3.86,0A3.7,3.7,0,0,0,91,89.5v-.17a4.07,4.07,0,0,0-.33-1.66,2.65,2.65,0,0,0-1-1.17,2.37,2.37,0,0,0-1.39-.41,2.34,2.34,0,0,0-1.91.91,3.71,3.71,0,0,0-.74,2.41Z"/><path d="M94.69,93.41h-.87V82.16h.87Z"/><path d="M100.14,93.56a3.43,3.43,0,0,1-1.82-.5,3.35,3.35,0,0,1-1.27-1.39,4.24,4.24,0,0,1-.46-2v-.31A4.62,4.62,0,0,1,97,87.3a3.47,3.47,0,0,1,1.23-1.44,3,3,0,0,1,1.71-.52,2.88,2.88,0,0,1,2.29,1,4,4,0,0,1,.85,2.69v.5H97.46v.16a3.31,3.31,0,0,0,.78,2.25,2.44,2.44,0,0,0,1.94.9,2.86,2.86,0,0,0,1.24-.26,2.68,2.68,0,0,0,1-.82l.55.42A3.21,3.21,0,0,1,100.14,93.56ZM100,86.09a2.18,2.18,0,0,0-1.66.72,3.36,3.36,0,0,0-.83,2h4.76v-.1a3,3,0,0,0-.66-1.86A2,2,0,0,0,100,86.09Z"/><path d="M105.66,85.48l0,1.36a3.22,3.22,0,0,1,1.11-1.12,3,3,0,0,1,1.47-.38,2.37,2.37,0,0,1,1.9.72,3.15,3.15,0,0,1,.63,2.15v5.2h-.87V88.2a2.48,2.48,0,0,0-.45-1.58,1.77,1.77,0,0,0-1.42-.52,2.23,2.23,0,0,0-1.44.51A3.05,3.05,0,0,0,105.7,88v5.43h-.88V85.48Z"/><path d="M113,83.2a.61.61,0,0,1,.16-.42.57.57,0,0,1,.44-.17.57.57,0,0,1,.45.17.57.57,0,0,1,.16.42.56.56,0,0,1-.16.41.61.61,0,0,1-.45.17.57.57,0,0,1-.6-.58Zm1,10.21h-.88V85.48h.88Z"/><path d="M119.49,93.56a3.43,3.43,0,0,1-1.82-.5,3.35,3.35,0,0,1-1.27-1.39,4.24,4.24,0,0,1-.46-2v-.31a4.62,4.62,0,0,1,.45-2.06,3.47,3.47,0,0,1,1.23-1.44,3,3,0,0,1,1.71-.52,2.88,2.88,0,0,1,2.29,1,4,4,0,0,1,.85,2.69v.5h-5.66v.16a3.31,3.31,0,0,0,.78,2.25,2.44,2.44,0,0,0,1.94.9,2.86,2.86,0,0,0,1.24-.26,2.68,2.68,0,0,0,1-.82l.55.42A3.2,3.2,0,0,1,119.49,93.56Zm-.16-7.47a2.18,2.18,0,0,0-1.66.72,3.36,3.36,0,0,0-.83,2h4.76v-.1A3,3,0,0,0,121,86.8,2,2,0,0,0,119.33,86.09Z"/><path d="M126.06,89.42l-1,1v3h-.88V82.16h.88v7.2l.83-.89,3-3H130l-3.36,3.34,3.65,4.59h-1.05Z"/><path d="M17.61,10.55v13.3H15V20.58c.08-1.61.14-3.23.21-4.84l-.09,0-1.2,3.5L13.22,21H10.57L9.9,19.2,8.7,15.7l-.09,0c.06,1.61.13,3.23.19,4.84v3.27H6.18V10.55H8.89l2.09,5c.27.66.73,1.82.88,2.31h.07c.15-.49.61-1.65.88-2.31l2.09-5Z"/><path d="M26.79,21.65H24l-.44,2.2H20.75l3.19-13.3h2.89L30,23.85H27.23Zm-.53-2.57L26,17.56c-.18-.95-.4-2.56-.54-3.65h-.07c-.14,1.09-.34,2.7-.53,3.65l-.31,1.52Z"/><path d="M38.19,23.85l-1.59-4-1.62,4H32L35.15,17l-2.94-6.42h2.94l1.45,3.61L38,10.55H41L38,17l3.13,6.88Z"/><path d="M47,10.55v13.3h-2.7V10.55Z"/><path d="M62.7,10.55v13.3H60.06V20.58c.08-1.61.13-3.23.21-4.84l-.1,0L59,19.2,58.31,21H55.65L55,19.2l-1.2-3.5-.09,0c0,1.61.13,3.23.19,4.84v3.27H51.26V10.55H54l2.09,5c.27.66.72,1.82.87,2.31H57c.15-.49.61-1.65.87-2.31l2.09-5Z"/><path d="M71.88,21.65H69.07l-.44,2.2H65.84L69,10.55h2.89l3.19,13.3h-2.8ZM71,9.28H69.16L71,6.68h2.14Zm.4,9.8L71,17.56c-.17-.95-.4-2.56-.53-3.65h-.08c-.13,1.09-.34,2.7-.53,3.65l-.3,1.52Z"/><path d="M84.89,21.29v2.56H78.24V10.55h2.7V21.29Z"/><path d="M96.56,10.55v13.3H93.9L91.66,18.7l-1.2-3.25-.06.06a53.8,53.8,0,0,1,.35,5.64v2.7H88.08V10.55h2.67l2.52,5.78c.32.83.63,1.71,1,2.54l.06-.05a45.76,45.76,0,0,1-.38-5.19V10.55Z"/><path d="M107.86,21.29v2.56h-7V10.55h6.86v2.57h-4.16v2.75h3.78v2.47h-3.78v2.95Z"/><path d="M128.74,10.55v13.3H126.1V20.58c.08-1.61.14-3.23.21-4.84l-.09,0L125,19.2l-.67,1.8H121.7L121,19.2l-1.2-3.5-.09,0c.05,1.61.13,3.23.19,4.84v3.27h-2.62V10.55H120l2.09,5c.27.66.72,1.82.88,2.31h.07c.15-.49.61-1.65.88-2.31l2.09-5Z"/><path d="M141.47,10.55v13.3h-2.66l-2.24-5.15-1.19-3.25-.06.06a53.69,53.69,0,0,1,.34,5.64v2.7H133V10.55h2.66l2.53,5.78c.32.83.62,1.71.95,2.54l.05-.05a48.21,48.21,0,0,1-.38-5.19V10.55Z"/><path d="M145.35,19.54V14.86c0-2.85,1.62-4.54,4.31-4.54S154,12,154,14.86v4.68c0,2.85-1.62,4.54-4.32,4.54S145.35,22.39,145.35,19.54Zm5.83,0V14.86c0-1.25-.51-1.91-1.52-1.91s-1.52.66-1.52,1.91v4.68c0,1.25.52,1.92,1.52,1.92S151.18,20.79,151.18,19.54Z"/><path d="M164.54,21.29v2.56h-7.62v-1.8l4.22-8.93h-3.89V10.55h7.19v1.86l-4.17,8.88Zm-4.6-12-1.54-2.6h1.69L160.93,8l.82-1.27h1.69l-1.54,2.6Z"/><path d="M167.16,20h2.78c0,1.07.53,1.52,1.38,1.52s1.33-.51,1.33-1.17c0-2.21-5.2-2.47-5.2-6.52,0-2,1.42-3.51,3.87-3.51a3.61,3.61,0,0,1,3.94,3.91h-2.78c0-.87-.4-1.31-1.18-1.31s-1.12.38-1.12,1c0,2.09,5.28,2.22,5.28,6.46,0,2.18-1.53,3.78-4.17,3.78A3.79,3.79,0,0,1,167.16,20Z"/><path d="M186.07,13.12h-2.61V23.85h-2.77V13.12h-2.6V10.55h8Z"/><path d="M188.31,10.55h2.79l1.2,6.29c.19,1,.42,2.6.55,3.7h.07c.14-1.1.37-2.73.56-3.7l1.19-6.29h2.8l-3.16,13.3h-2.85Z"/><path d="M200.22,19.54V14.86c0-2.85,1.62-4.54,4.31-4.54s4.32,1.69,4.32,4.54v4.68c0,2.85-1.62,4.54-4.32,4.54S200.22,22.39,200.22,19.54Zm5.83,0V14.86c0-1.25-.51-1.91-1.52-1.91s-1.52.66-1.52,1.91v4.68c0,1.25.52,1.92,1.52,1.92S206.05,20.79,206.05,19.54Z"/><path d="M223.34,21.65h-2.81l-.43,2.2h-2.8l3.19-13.3h2.89l3.19,13.3h-2.79Zm-.53-2.57-.3-1.52c-.17-.95-.4-2.56-.53-3.65h-.08c-.13,1.09-.34,2.7-.53,3.65l-.31,1.52Z"/><path d="M236.36,21.29v2.56h-6.65V10.55h2.7V21.29Z"/><path d="M239.17,19.54V14.86c0-2.85,1.62-4.54,4.31-4.54s4.32,1.69,4.32,4.54v4.68c0,2.85-1.62,4.54-4.32,4.54S239.17,22.39,239.17,19.54Zm5.83,0V14.86c0-1.25-.51-1.91-1.52-1.91s-1.52.66-1.52,1.91v4.68c0,1.25.52,1.92,1.52,1.92S245,20.79,245,19.54Z"/><path d="M255.07,18.82,254.33,20v3.84h-2.66V10.55h2.66v5.09l.69-1.48,1.86-3.61H260l-3.39,5.81,4,7.49h-3Z"/><path d="M262.92,19.54V14.86c0-2.85,1.62-4.54,4.31-4.54s4.32,1.69,4.32,4.54v4.68c0,2.85-1.62,4.54-4.32,4.54S262.92,22.39,262.92,19.54Zm5.83,0V14.86c0-1.25-.51-1.91-1.52-1.91s-1.52.66-1.52,1.91v4.68c0,1.25.52,1.92,1.52,1.92S268.75,20.79,268.75,19.54Z"/><path d="M274.3,10.55h2.8l1.19,6.29c.19,1,.42,2.6.55,3.7h.08c.13-1.1.36-2.73.55-3.7l1.2-6.29h2.79l-3.15,13.3h-2.85Z"/><path d="M290.87,21.65h-2.81l-.44,2.2h-2.79L288,10.55h2.89l3.19,13.3h-2.79Zm-.53-2.57L290,17.56c-.17-.95-.4-2.56-.53-3.65h-.07c-.14,1.09-.35,2.7-.54,3.65l-.3,1.52Z"/><path d="M305.71,10.55v13.3h-2.66l-2.24-5.15-1.2-3.25-.06.06a53.8,53.8,0,0,1,.35,5.64v2.7h-2.66V10.55h2.66l2.52,5.78c.32.83.63,1.71.95,2.54l.06-.05a45.76,45.76,0,0,1-.38-5.19V10.55Z"/><path d="M311.92,19.9l-3.13-9.35h2.79l1.08,3.69c.14.43.44,1.48.57,2.12h.08c.15-.64.45-1.69.61-2.18l1-3.63h2.79l-3.13,9.35v4h-2.7Zm1.83-13.22h2.14l-2.14,2.6H312Z"/><path d="M320.45,19.78V14.62c0-2.82,1.52-4.33,4.13-4.33s4.14,1.51,4.23,4.33h-2.7c-.07-1.22-.53-1.71-1.55-1.71-.82,0-1.3.53-1.3,1.71v5.16c0,1.14.46,1.68,1.3,1.68,1,0,1.52-.5,1.59-1.68h2.7c-.06,2.8-1.6,4.3-4.29,4.3S320.45,22.58,320.45,19.78Z"/><path d="M340.48,10.55v13.3h-2.72V18.44H335v5.41h-2.72V10.55H335v5.32h2.73V10.55Z"/><path d="M358.68,15.07c0,2.83-1.63,4.51-4.39,4.51h-1.16v4.27h-2.7V10.55h3.86C357.05,10.55,358.68,12.22,358.68,15.07Zm-2.77,0c0-1.29-.57-2-1.66-2h-1.12V17h1.12C355.34,17,355.91,16.35,355.91,15.07Z"/><path d="M361.91,19.54V14.86c0-2.85,1.62-4.54,4.31-4.54s4.32,1.69,4.32,4.54v4.68c0,2.85-1.62,4.54-4.32,4.54S361.91,22.39,361.91,19.54Zm5.83,0V14.86c0-1.25-.51-1.91-1.52-1.91s-1.52.66-1.52,1.91v4.68c0,1.25.52,1.92,1.52,1.92S367.74,20.79,367.74,19.54Z"/><path d="M373.29,10.55h2.79l1.2,6.29c.19,1,.42,2.6.55,3.7h.08c.13-1.1.36-2.73.55-3.7l1.2-6.29h2.79l-3.16,13.3h-2.84Z"/><path d="M385.2,19.54V14.86c0-2.85,1.62-4.54,4.32-4.54s4.31,1.69,4.31,4.54v4.68c0,2.85-1.62,4.54-4.31,4.54S385.2,22.39,385.2,19.54Zm5.84,0V14.86c0-1.25-.52-1.91-1.52-1.91s-1.52.66-1.52,1.91v4.68c0,1.25.51,1.92,1.52,1.92S391,20.79,391,19.54Z"/><path d="M404.36,21.29v2.56h-6.65V10.55h2.69V21.29Z"/><path d="M414.6,21.29v2.56h-7.05V10.55h6.86v2.57h-4.16v2.75H414v2.47h-3.78v2.95Z"/><path d="M426.81,10.55v13.3h-2.66l-2.24-5.15-1.2-3.25,0,.06a53.69,53.69,0,0,1,.34,5.64v2.7h-2.66V10.55H421l2.53,5.78c.32.83.62,1.71.94,2.54l.06-.05a45.76,45.76,0,0,1-.38-5.19V10.55Z"/><path d="M433.77,10.55v13.3h-2.7V10.55Z"/><path d="M445.07,21.29v2.56H438V10.55h6.86v2.57h-4.16v2.75h3.78v2.47h-3.78v2.95Z"/><path d="M452.21,18.82,451.47,20v3.84h-2.66V10.55h2.66v5.09l.69-1.48L454,10.55h3.08l-3.38,5.81,3.95,7.49h-3Z"/><rect class="cls-4" x="37.37" y="136.82" width="26.61" height="197.48"/><rect class="cls-4" x="63.98" y="140.44" width="26.61" height="193.85"/><rect class="cls-4" x="90.59" y="144.07" width="26.61" height="190.22"/><rect class="cls-4" x="117.2" y="147.69" width="26.61" height="186.6"/><rect class="cls-4" x="143.81" y="151.32" width="26.61" height="182.97"/><rect class="cls-4" x="170.42" y="154.94" width="26.61" height="179.35"/><rect class="cls-4" x="197.03" y="158.57" width="26.61" height="175.72"/><rect class="cls-4" x="223.64" y="162.19" width="26.61" height="172.1"/><rect class="cls-4" x="250.25" y="185.39" width="26.61" height="148.9"/><rect class="cls-4" x="276.86" y="189.47" width="26.61" height="144.82"/><rect class="cls-4" x="303.48" y="193.54" width="26.61" height="140.75"/><rect class="cls-4" x="330.09" y="197.62" width="26.61" height="136.68"/><rect class="cls-4" x="356.7" y="201.69" width="26.61" height="132.6"/><rect class="cls-4" x="383.31" y="205.76" width="26.61" height="128.53"/><rect class="cls-4" x="409.92" y="209.84" width="26.61" height="124.45"/><rect class="cls-4" x="436.53" y="213.91" width="26.61" height="120.38"/><rect class="cls-4" x="463.14" y="217.86" width="26.61" height="116.3"/><rect class="cls-4" x="489.75" y="222.06" width="26.61" height="112.23"/><line class="cls-1" x1="250.25" y1="185.39" x2="250.25" y2="334.29"/><line class="cls-1" x1="37.37" y1="136.82" x2="37.37" y2="334.29"/><path class="cls-5" d="M257.39,171.76c4.91-.46,25-4.22,25-34.94"/><polygon class="cls-6" points="261.2 175.31 261.79 174.5 257.77 171.64 260.91 167.84 260.14 167.2 256.31 171.83 261.2 175.31"/><path class="cls-7" d="M127,262.6h-4.29v4.52h-1.85V256.45h6.77V258h-4.92v3.17H127Z"/><path class="cls-7" d="M133.44,267.12a2.7,2.7,0,0,1-.21-.74,3,3,0,0,1-4,.2,2.14,2.14,0,0,1-.76-1.68,2.28,2.28,0,0,1,.94-1.95,4.59,4.59,0,0,1,2.69-.67h1.1v-.52a1.41,1.41,0,0,0-.35-1,1.35,1.35,0,0,0-1-.37,1.53,1.53,0,0,0-1,.31.93.93,0,0,0-.39.77h-1.78a2,2,0,0,1,.43-1.22,2.82,2.82,0,0,1,1.18-.89,4,4,0,0,1,1.66-.32,3.34,3.34,0,0,1,2.22.7,2.5,2.5,0,0,1,.85,2v3.58a4,4,0,0,0,.3,1.7v.13Zm-2-1.28a2,2,0,0,0,1-.26,1.72,1.72,0,0,0,.7-.69V263.4h-1a2.63,2.63,0,0,0-1.49.34,1.13,1.13,0,0,0-.5,1,1,1,0,0,0,.34.81A1.34,1.34,0,0,0,131.48,265.84Zm1-10h2l-2,2.22H131Z"/><path class="cls-7" d="M138.72,265.7h4.22v1.42h-6.43V266l4-5.32h-3.95v-1.44h6.21v1.13Z"/><path class="cls-7" d="M149.1,267.12a2.7,2.7,0,0,1-.21-.74,3,3,0,0,1-4,.2,2.14,2.14,0,0,1-.76-1.68,2.26,2.26,0,0,1,.94-1.95,4.59,4.59,0,0,1,2.69-.67h1.09v-.52a1.4,1.4,0,0,0-.34-1,1.36,1.36,0,0,0-1.05-.37,1.52,1.52,0,0,0-1,.31.93.93,0,0,0-.39.77h-1.78a2,2,0,0,1,.43-1.22,2.82,2.82,0,0,1,1.18-.89,4,4,0,0,1,1.65-.32,3.3,3.3,0,0,1,2.22.7,2.44,2.44,0,0,1,.85,2v3.58a4,4,0,0,0,.3,1.7v.13Zm-2-1.28a2,2,0,0,0,1-.26,1.61,1.61,0,0,0,.7-.69V263.4h-1a2.63,2.63,0,0,0-1.49.34,1.13,1.13,0,0,0-.5,1,1,1,0,0,0,.34.81A1.34,1.34,0,0,0,147.14,265.84Z"/><path class="cls-7" d="M158.34,267.12H156.5V256.45h1.84Z"/><path class="cls-7" d="M162.57,267.12h-1.84V256.45h1.84Z"/><path class="cls-7" d="M166.81,267.12H165V256.45h1.85Z"/><path class="cls-7" d="M365.4,262.6h-4.29v4.52h-1.86V256.45H366V258h-4.92v3.17h4.29Z"/><path class="cls-7" d="M371.81,267.12a2.7,2.7,0,0,1-.21-.74,3,3,0,0,1-4,.2,2.17,2.17,0,0,1-.75-1.68,2.26,2.26,0,0,1,.94-1.95,4.57,4.57,0,0,1,2.69-.67h1.09v-.52a1.4,1.4,0,0,0-.34-1,1.36,1.36,0,0,0-1.05-.37,1.5,1.5,0,0,0-1,.31.93.93,0,0,0-.39.77H367a2,2,0,0,1,.43-1.22,2.86,2.86,0,0,1,1.17-.89,4.06,4.06,0,0,1,1.66-.32,3.3,3.3,0,0,1,2.22.7,2.47,2.47,0,0,1,.85,2v3.58a4,4,0,0,0,.3,1.7v.13Zm-2-1.28a2,2,0,0,0,1-.26,1.66,1.66,0,0,0,.7-.69V263.4h-1a2.59,2.59,0,0,0-1.48.34,1.11,1.11,0,0,0-.5,1,1,1,0,0,0,.34.81A1.34,1.34,0,0,0,369.85,265.84Zm1-10h2l-2,2.22h-1.43Z"/><path class="cls-7" d="M377.09,265.7h4.22v1.42h-6.43V266l4-5.32H375v-1.44h6.2v1.13Z"/><path class="cls-7" d="M387.47,267.12a2.7,2.7,0,0,1-.21-.74,3,3,0,0,1-4,.2,2.17,2.17,0,0,1-.75-1.68,2.26,2.26,0,0,1,.94-1.95,4.57,4.57,0,0,1,2.69-.67h1.09v-.52a1.4,1.4,0,0,0-.34-1,1.36,1.36,0,0,0-1.05-.37,1.5,1.5,0,0,0-1,.31.93.93,0,0,0-.39.77h-1.78a2,2,0,0,1,.43-1.22,2.86,2.86,0,0,1,1.17-.89,4.06,4.06,0,0,1,1.66-.32,3.3,3.3,0,0,1,2.22.7,2.47,2.47,0,0,1,.85,2v3.58a4,4,0,0,0,.3,1.7v.13Zm-2-1.28a2,2,0,0,0,1-.26,1.66,1.66,0,0,0,.7-.69V263.4h-1a2.59,2.59,0,0,0-1.48.34,1.11,1.11,0,0,0-.5,1,1,1,0,0,0,.34.81A1.34,1.34,0,0,0,385.51,265.84Z"/><path class="cls-7" d="M396.71,267.12h-1.85V256.45h1.85Z"/><path class="cls-7" d="M402.75,264.8l2.7-8.35h2l-3.84,10.67h-1.79L398,256.45h2Z"/><rect class="cls-8" x="265.04" y="93.41" width="238.01" height="6.93"/><path d="M283.69,73.83l.06.22.07-.22,3.35-9.35h1l-4,10.67h-.86l-4-10.67h1Z"/><path d="M292.27,75.29a3.41,3.41,0,0,1-3.1-1.88,4.39,4.39,0,0,1-.45-2v-.32a4.57,4.57,0,0,1,.44-2,3.62,3.62,0,0,1,1.23-1.44,3.06,3.06,0,0,1,1.72-.53,2.87,2.87,0,0,1,2.29,1,4,4,0,0,1,.84,2.69v.49h-5.65v.17a3.36,3.36,0,0,0,.77,2.25,2.48,2.48,0,0,0,1.95.89,2.89,2.89,0,0,0,1.24-.25,2.75,2.75,0,0,0,1-.82l.55.41A3.17,3.17,0,0,1,292.27,75.29Zm-.16-7.47a2.18,2.18,0,0,0-1.67.73,3.29,3.29,0,0,0-.82,2h4.75v-.1a2.89,2.89,0,0,0-.65-1.86A2,2,0,0,0,292.11,67.82Z"/><path d="M297.93,75.15h-.88V63.9h.88Zm1.41-8.64-.52-.38a2.77,2.77,0,0,0,.52-1.54v-.7h.85v.46A2.78,2.78,0,0,1,299.34,66.51Z"/><path d="M303.29,71.15l-1,1v3h-.88V63.9h.88v7.19l.83-.89,3-3h1.1l-3.36,3.34,3.66,4.59H306.5Z"/><path d="M313.76,75.15a3.91,3.91,0,0,1-.17-1.11,3.1,3.1,0,0,1-1.18.93,3.69,3.69,0,0,1-1.51.32,2.68,2.68,0,0,1-1.85-.63,2.11,2.11,0,0,1-.71-1.62,2.13,2.13,0,0,1,1-1.83,4.6,4.6,0,0,1,2.68-.67h1.59v-.9a1.74,1.74,0,0,0-.52-1.34,2.2,2.2,0,0,0-1.53-.49,2.44,2.44,0,0,0-1.52.47,1.41,1.41,0,0,0-.6,1.13h-.87a2,2,0,0,1,.87-1.63,3.36,3.36,0,0,1,2.17-.7,3.1,3.1,0,0,1,2.09.67,2.36,2.36,0,0,1,.78,1.85v3.75a4.69,4.69,0,0,0,.24,1.72v.09ZM311,74.52a3,3,0,0,0,1.57-.43,2.45,2.45,0,0,0,1-1.13V71.21H312a4,4,0,0,0-2.05.48,1.45,1.45,0,0,0-.74,1.28,1.43,1.43,0,0,0,.5,1.11A1.88,1.88,0,0,0,311,74.52Zm1.73-10.62h1.06L312.1,66h-.77Z"/><path d="M320.64,75.15V64.48h3.15a4.11,4.11,0,0,1,2.6.71,2.51,2.51,0,0,1,.89,2.08,2.33,2.33,0,0,1-.45,1.44,2.46,2.46,0,0,1-1.24.88,2.56,2.56,0,0,1,1.5.92,2.51,2.51,0,0,1,.57,1.63,2.76,2.76,0,0,1-.91,2.21,3.75,3.75,0,0,1-2.54.8Zm.9-5.89H324a2.72,2.72,0,0,0,1.75-.53,1.81,1.81,0,0,0,.62-1.48,1.78,1.78,0,0,0-.64-1.52,3.22,3.22,0,0,0-1.94-.49h-2.25Zm0,.77v4.35h2.71a2.7,2.7,0,0,0,1.83-.58,2.08,2.08,0,0,0,.68-1.64,2,2,0,0,0-.65-1.56,2.62,2.62,0,0,0-1.79-.57Z"/><path d="M333.29,68a2.76,2.76,0,0,0-.59,0,2.17,2.17,0,0,0-1.39.45,2.52,2.52,0,0,0-.81,1.33v5.45h-.87V67.22h.86v1.26a2.33,2.33,0,0,1,2.24-1.41,1.46,1.46,0,0,1,.57.1Z"/><path d="M334.63,64.93a.6.6,0,0,1,.16-.42.57.57,0,0,1,.44-.17.57.57,0,0,1,.6.59.57.57,0,0,1-.16.42.6.6,0,0,1-.44.16.55.55,0,0,1-.6-.58Zm1,10.22h-.88V67.22h.88Z"/><path d="M339.4,65.19v2H341v.72H339.4v5.28a1.66,1.66,0,0,0,.24,1,.93.93,0,0,0,.79.32,5,5,0,0,0,.71-.07l0,.71a2.94,2.94,0,0,1-.94.12,1.57,1.57,0,0,1-1.31-.52,2.48,2.48,0,0,1-.41-1.54V67.94h-1.46v-.72h1.46v-2Z"/><path d="M347.86,75.15a4.31,4.31,0,0,1-.17-1.11,3.14,3.14,0,0,1-1.17.93,3.73,3.73,0,0,1-1.52.32,2.68,2.68,0,0,1-1.85-.63,2.1,2.1,0,0,1-.7-1.62,2.12,2.12,0,0,1,1-1.83,4.62,4.62,0,0,1,2.68-.67h1.59v-.9a1.74,1.74,0,0,0-.52-1.34,2.2,2.2,0,0,0-1.53-.49,2.39,2.39,0,0,0-1.51.47,1.41,1.41,0,0,0-.6,1.13h-.88a2,2,0,0,1,.88-1.63,3.32,3.32,0,0,1,2.16-.7,3.1,3.1,0,0,1,2.09.67,2.4,2.4,0,0,1,.79,1.85v3.75a4.69,4.69,0,0,0,.24,1.72v.09Zm-2.75-.63a3,3,0,0,0,1.57-.43,2.48,2.48,0,0,0,1-1.13V71.21h-1.56a3.9,3.9,0,0,0-2.05.48,1.49,1.49,0,0,0-.25,2.39A1.89,1.89,0,0,0,345.11,74.52Zm1.72-10.62h1.07L346.21,66h-.77Z"/><path d="M351.73,67.22l0,1.36a3.06,3.06,0,0,1,1.11-1.12,2.84,2.84,0,0,1,1.47-.39,2.39,2.39,0,0,1,1.9.72,3.31,3.31,0,0,1,.63,2.16v5.2H356V69.94a2.46,2.46,0,0,0-.45-1.58,1.77,1.77,0,0,0-1.42-.52,2.27,2.27,0,0,0-1.44.5,3,3,0,0,0-.93,1.38v5.43h-.87V67.22Z"/><path d="M359.08,64.93a.57.57,0,0,1,.6-.59.59.59,0,0,1,.44.17.61.61,0,0,1,.17.42.57.57,0,0,1-.17.42.58.58,0,0,1-.44.16.6.6,0,0,1-.44-.16A.57.57,0,0,1,359.08,64.93Zm1,10.22h-.88V67.22h.88Z"/><path d="M367.5,75.15a3.91,3.91,0,0,1-.17-1.11,3.1,3.1,0,0,1-1.18.93,3.69,3.69,0,0,1-1.51.32,2.68,2.68,0,0,1-1.85-.63,2.21,2.21,0,0,1,.26-3.45,4.6,4.6,0,0,1,2.68-.67h1.59v-.9a1.74,1.74,0,0,0-.52-1.34,2.2,2.2,0,0,0-1.53-.49,2.42,2.42,0,0,0-1.52.47,1.41,1.41,0,0,0-.6,1.13h-.88a2,2,0,0,1,.88-1.63,3.35,3.35,0,0,1,2.16-.7,3.08,3.08,0,0,1,2.09.67,2.37,2.37,0,0,1,.79,1.85v3.75a4.69,4.69,0,0,0,.24,1.72v.09Zm-2.76-.63a3,3,0,0,0,1.57-.43,2.5,2.5,0,0,0,1-1.13V71.21h-1.57a3.93,3.93,0,0,0-2.05.48A1.45,1.45,0,0,0,363,73a1.43,1.43,0,0,0,.5,1.11A1.86,1.86,0,0,0,364.74,74.52Z"/><path d="M373.69,71.07a4.59,4.59,0,0,1,.45-2.06,3.32,3.32,0,0,1,3.08-1.94,3.27,3.27,0,0,1,2.57,1.11,4.3,4.3,0,0,1,1,2.94v.19a4.69,4.69,0,0,1-.45,2.07,3.29,3.29,0,0,1-1.24,1.41,3.37,3.37,0,0,1-1.84.5,3.25,3.25,0,0,1-2.56-1.11,4.25,4.25,0,0,1-1-2.94Zm.88.24a3.59,3.59,0,0,0,.74,2.33,2.49,2.49,0,0,0,3.85,0,3.73,3.73,0,0,0,.74-2.41v-.16a4.15,4.15,0,0,0-.34-1.67,2.68,2.68,0,0,0-.95-1.16,2.47,2.47,0,0,0-3.3.5,3.75,3.75,0,0,0-.74,2.41Z"/><path d="M382.23,71.11a4.77,4.77,0,0,1,.82-2.94,2.65,2.65,0,0,1,2.24-1.1,2.76,2.76,0,0,1,2.44,1.27V63.9h.87V75.15h-.82l0-1.06a2.84,2.84,0,0,1-2.48,1.2,2.64,2.64,0,0,1-2.21-1.1,4.79,4.79,0,0,1-.83-3Zm.88.15a4.14,4.14,0,0,0,.61,2.4,2,2,0,0,0,1.71.87,2.36,2.36,0,0,0,2.3-1.43V69.38a2.33,2.33,0,0,0-2.28-1.54,2,2,0,0,0-1.72.86A4.44,4.44,0,0,0,383.11,71.26Z"/><path d="M393.84,74.55a2.36,2.36,0,0,0,1.54-.51,1.86,1.86,0,0,0,.67-1.34h.84a2.53,2.53,0,0,1-.46,1.32,2.81,2.81,0,0,1-1.1.94,3.45,3.45,0,0,1-1.49.33,3.07,3.07,0,0,1-2.47-1.08,4.38,4.38,0,0,1-.91-2.92V71a4.84,4.84,0,0,1,.41-2.07A3.09,3.09,0,0,1,392,67.57a3.23,3.23,0,0,1,1.79-.5,3,3,0,0,1,2.15.78,2.82,2.82,0,0,1,.91,2h-.84A2.28,2.28,0,0,0,392,68.68a3.91,3.91,0,0,0-.65,2.4v.26A3.81,3.81,0,0,0,392,73.7,2.2,2.2,0,0,0,393.84,74.55Z"/><path d="M399.51,68.56a3.16,3.16,0,0,1,1.11-1.1,2.89,2.89,0,0,1,1.47-.39,2.39,2.39,0,0,1,1.9.72,3.31,3.31,0,0,1,.63,2.16v5.2h-.87V69.94a2.4,2.4,0,0,0-.46-1.58,1.73,1.73,0,0,0-1.41-.52,2.25,2.25,0,0,0-1.44.5,3,3,0,0,0-.93,1.38v5.43h-.87V63.9h.87Z"/><path d="M406.39,71.07a4.72,4.72,0,0,1,.44-2.06,3.32,3.32,0,0,1,3.09-1.94,3.25,3.25,0,0,1,2.56,1.11,4.25,4.25,0,0,1,1,2.94v.19a4.69,4.69,0,0,1-.44,2.07,3.24,3.24,0,0,1-1.25,1.41,3.37,3.37,0,0,1-1.84.5,3.27,3.27,0,0,1-2.56-1.11,4.3,4.3,0,0,1-1-2.94Zm.88.24a3.59,3.59,0,0,0,.73,2.33,2.5,2.5,0,0,0,3.86,0,3.72,3.72,0,0,0,.73-2.41v-.16a4,4,0,0,0-.34-1.67,2.59,2.59,0,0,0-.94-1.16,2.38,2.38,0,0,0-1.39-.42,2.34,2.34,0,0,0-1.91.92,3.69,3.69,0,0,0-.74,2.41Z"/><path d="M414.92,71.11a4.77,4.77,0,0,1,.83-2.94,2.63,2.63,0,0,1,2.23-1.1,2.77,2.77,0,0,1,2.45,1.27V63.9h.87V75.15h-.82l0-1.06a2.82,2.82,0,0,1-2.47,1.2,2.62,2.62,0,0,1-2.21-1.1,4.79,4.79,0,0,1-.84-3Zm.89.15a4.14,4.14,0,0,0,.61,2.4,2,2,0,0,0,1.71.87,2.37,2.37,0,0,0,2.3-1.43V69.38a2.35,2.35,0,0,0-2.29-1.54,2,2,0,0,0-1.72.86A4.44,4.44,0,0,0,415.81,71.26Z"/><path d="M423.12,71.07a4.59,4.59,0,0,1,.45-2.06,3.32,3.32,0,0,1,3.08-1.94,3.27,3.27,0,0,1,2.57,1.11,4.3,4.3,0,0,1,1,2.94v.19a4.83,4.83,0,0,1-.44,2.07,3.31,3.31,0,0,1-3.09,1.91,3.27,3.27,0,0,1-2.56-1.11,4.25,4.25,0,0,1-1-2.94Zm.88.24a3.59,3.59,0,0,0,.74,2.33,2.49,2.49,0,0,0,3.85,0,3.73,3.73,0,0,0,.74-2.41v-.16A4.15,4.15,0,0,0,429,69.4a2.66,2.66,0,0,0-.94-1.16,2.41,2.41,0,0,0-1.4-.42,2.36,2.36,0,0,0-1.91.92,3.75,3.75,0,0,0-.74,2.41Z"/><path d="M432.81,67.22l0,1.29a3,3,0,0,1,1.09-1.08,3,3,0,0,1,1.47-.36,2.23,2.23,0,0,1,2.38,1.54,3,3,0,0,1,1.14-1.14,3.18,3.18,0,0,1,1.56-.4c1.7,0,2.57.93,2.6,2.79v5.29h-.88V69.92a2.34,2.34,0,0,0-.45-1.57,1.87,1.87,0,0,0-1.47-.51,2.34,2.34,0,0,0-1.6.61A2.14,2.14,0,0,0,438,69.9v5.25h-.88V69.86a2.21,2.21,0,0,0-.48-1.52,1.9,1.9,0,0,0-1.46-.5,2.19,2.19,0,0,0-1.42.47,2.78,2.78,0,0,0-.88,1.4v5.44H432V67.22Z"/><path d="M449.53,74.41h5.15v.74h-6.24V74.5L453.25,68h-4.66v-.76h5.76v.66Z"/><path d="M466,70h-5v4.35h5.73v.77H460.1V64.48h6.6v.76H461v4h5Z"/><path d="M476,64.48v7.28a3.8,3.8,0,0,1-.48,1.88,3.06,3.06,0,0,1-1.32,1.22,4.25,4.25,0,0,1-2,.43,3.85,3.85,0,0,1-2.7-.92,3.33,3.33,0,0,1-1-2.54V64.48h.89V71.7a2.8,2.8,0,0,0,.77,2.09,2.9,2.9,0,0,0,2.09.74,2.84,2.84,0,0,0,2.08-.75,2.76,2.76,0,0,0,.77-2.08V64.48Zm-2.82-2.89h1.06l-1.69,2h-.77Z"/><path d="M279.79,87.07a4.72,4.72,0,0,1,.44-2.06,3.49,3.49,0,0,1,1.25-1.43,3.4,3.4,0,0,1,1.84-.51,3.25,3.25,0,0,1,2.56,1.11,4.25,4.25,0,0,1,1,2.94v.19a4.69,4.69,0,0,1-.44,2.07,3.24,3.24,0,0,1-1.25,1.41,3.37,3.37,0,0,1-1.84.5,3.27,3.27,0,0,1-2.56-1.11,4.3,4.3,0,0,1-1-2.94Zm.88.24a3.59,3.59,0,0,0,.73,2.33,2.5,2.5,0,0,0,3.86,0,3.72,3.72,0,0,0,.73-2.41v-.16a4.15,4.15,0,0,0-.33-1.67,2.68,2.68,0,0,0-1-1.16,2.38,2.38,0,0,0-1.39-.42,2.34,2.34,0,0,0-1.91.92,3.69,3.69,0,0,0-.74,2.41Z"/><path d="M295,87.26a4.73,4.73,0,0,1-.82,2.94A2.58,2.58,0,0,1,292,91.29a2.92,2.92,0,0,1-2.49-1.14v4h-.87v-11h.81l0,1.12A2.82,2.82,0,0,1,292,83.07a2.65,2.65,0,0,1,2.24,1.08,4.87,4.87,0,0,1,.8,3Zm-.87-.15a4,4,0,0,0-.63-2.39,2,2,0,0,0-1.73-.88,2.51,2.51,0,0,0-1.39.38,2.46,2.46,0,0,0-.88,1.13v3.8a2.3,2.3,0,0,0,.9,1,2.58,2.58,0,0,0,1.38.36,2,2,0,0,0,1.73-.88A4.46,4.46,0,0,0,294.17,87.11Z"/><path d="M302.08,90.14a2.83,2.83,0,0,1-2.52,1.15,2.45,2.45,0,0,1-1.93-.73,3.23,3.23,0,0,1-.67-2.18V83.22h.87v5c0,1.51.61,2.26,1.83,2.26A2.24,2.24,0,0,0,302.07,89V83.22H303v7.93h-.85Z"/><path d="M310,89.13a1.26,1.26,0,0,0-.52-1,4,4,0,0,0-1.58-.61,6.9,6.9,0,0,1-1.64-.52,2.2,2.2,0,0,1-.86-.7,1.76,1.76,0,0,1-.28-1,1.87,1.87,0,0,1,.78-1.55,3.15,3.15,0,0,1,2-.62,3.22,3.22,0,0,1,2.12.66,2.1,2.1,0,0,1,.81,1.71h-.88a1.45,1.45,0,0,0-.58-1.16,2.35,2.35,0,0,0-1.47-.46,2.27,2.27,0,0,0-1.39.39,1.17,1.17,0,0,0-.52,1,1.09,1.09,0,0,0,.43.92,4.77,4.77,0,0,0,1.59.59,7.15,7.15,0,0,1,1.73.58,2.24,2.24,0,0,1,.85.74,2,2,0,0,1-.53,2.65,3.45,3.45,0,0,1-2.11.6,3.54,3.54,0,0,1-2.25-.67,2.06,2.06,0,0,1-.86-1.69h.88a1.52,1.52,0,0,0,.65,1.19,2.62,2.62,0,0,0,1.58.43,2.49,2.49,0,0,0,1.48-.4A1.22,1.22,0,0,0,310,89.13Z"/><path d="M314.18,81.19v2h1.64v.72h-1.64v5.28a1.66,1.66,0,0,0,.24,1,.94.94,0,0,0,.8.32,5.23,5.23,0,0,0,.71-.07l0,.71a2.91,2.91,0,0,1-.93.12,1.57,1.57,0,0,1-1.32-.52,2.48,2.48,0,0,1-.41-1.54V83.94h-1.45v-.72h1.45v-2Z"/><path d="M317.59,80.93a.6.6,0,0,1,.16-.42.65.65,0,0,1,.88,0,.61.61,0,0,1,.17.42.57.57,0,0,1-.17.42.68.68,0,0,1-.88,0A.57.57,0,0,1,317.59,80.93Zm1,10.22h-.88V83.22h.88Z"/><path d="M322,91.15h-.87V79.9H322Z"/><path d="M329.37,91.15A3.91,3.91,0,0,1,329.2,90,3.1,3.1,0,0,1,328,91a3.69,3.69,0,0,1-1.51.32,2.68,2.68,0,0,1-1.85-.63A2.11,2.11,0,0,1,324,89a2.13,2.13,0,0,1,1-1.83,4.6,4.6,0,0,1,2.68-.67h1.59v-.9a1.74,1.74,0,0,0-.52-1.34,2.2,2.2,0,0,0-1.53-.49,2.42,2.42,0,0,0-1.52.47,1.41,1.41,0,0,0-.6,1.13h-.88a2,2,0,0,1,.88-1.63,3.35,3.35,0,0,1,2.16-.7,3.13,3.13,0,0,1,2.1.67,2.36,2.36,0,0,1,.78,1.85v3.75a4.69,4.69,0,0,0,.24,1.72v.09Zm-2.76-.63a3,3,0,0,0,1.57-.43,2.45,2.45,0,0,0,1-1.13V87.21h-1.57a4,4,0,0,0-2.05.48,1.45,1.45,0,0,0-.74,1.28,1.43,1.43,0,0,0,.5,1.11A1.86,1.86,0,0,0,326.61,90.52Z"/><path d="M337.41,81.19v2h1.64v.72h-1.64v5.28a1.66,1.66,0,0,0,.24,1,.93.93,0,0,0,.79.32,5,5,0,0,0,.71-.07l0,.71a2.94,2.94,0,0,1-.94.12,1.55,1.55,0,0,1-1.31-.52,2.48,2.48,0,0,1-.41-1.54V83.94h-1.46v-.72h1.46v-2Z"/><path d="M340.82,80.93a.6.6,0,0,1,.16-.42.57.57,0,0,1,.44-.17.57.57,0,0,1,.6.59.57.57,0,0,1-.16.42.6.6,0,0,1-.44.16.55.55,0,0,1-.6-.58Zm1,10.22H341V83.22h.88Z"/><path d="M347.3,91.29a3.41,3.41,0,0,1-3.1-1.88,4.39,4.39,0,0,1-.46-2v-.32a4.57,4.57,0,0,1,.45-2,3.47,3.47,0,0,1,1.23-1.44,3.06,3.06,0,0,1,1.72-.53,2.83,2.83,0,0,1,2.28,1,4,4,0,0,1,.85,2.69v.49h-5.65v.17a3.31,3.31,0,0,0,.77,2.25,2.46,2.46,0,0,0,1.94.89,2.83,2.83,0,0,0,1.24-.25,2.78,2.78,0,0,0,1-.82l.55.41A3.17,3.17,0,0,1,347.3,91.29Zm-.16-7.47a2.18,2.18,0,0,0-1.67.73,3.29,3.29,0,0,0-.82,2h4.75v-.1a3,3,0,0,0-.65-1.86A2,2,0,0,0,347.14,83.82Z"/><path d="M352.55,90.41h5.15v.74h-6.23V90.5L356.28,84h-4.66v-.76h5.76v.66Zm2-9L355.84,80h.78v.09L354.89,82h-.63l-1.73-1.92V80h.79Z"/><path d="M369,86h-5v4.35h5.74v.77h-6.64V80.48h6.6v.76H364v4h5Z"/><path d="M379,80.48v7.28a3.69,3.69,0,0,1-.47,1.88,3.17,3.17,0,0,1-1.32,1.22,4.28,4.28,0,0,1-2,.43,3.81,3.81,0,0,1-2.7-.92,3.33,3.33,0,0,1-1.05-2.54V80.48h.89V87.7a2.8,2.8,0,0,0,.77,2.09,2.9,2.9,0,0,0,2.09.74,2.85,2.85,0,0,0,2.08-.75,2.76,2.76,0,0,0,.76-2.08V80.48Z"/><path d="M391.05,86h-5v4.35h5.74v.77h-6.64V80.48h6.6v.76h-5.7v4h5Z"/><path d="M401.08,81.24h-3.66v9.91h-.9V81.24h-3.64v-.76h8.2Z"/><path d="M408.72,88.52a1.72,1.72,0,0,0-.63-1.4,6.59,6.59,0,0,0-2.27-1,8.13,8.13,0,0,1-2.42-1,2.41,2.41,0,0,1-1.08-2,2.38,2.38,0,0,1,1-2,4.7,4.7,0,0,1,4.48-.35,3.08,3.08,0,0,1,1.3,1.14,3,3,0,0,1,.46,1.63h-.91a2.27,2.27,0,0,0-.74-1.76,2.93,2.93,0,0,0-2-.66,3.18,3.18,0,0,0-1.95.54,1.73,1.73,0,0,0-.73,1.43,1.61,1.61,0,0,0,.66,1.33,6,6,0,0,0,2.08.9,10.17,10.17,0,0,1,2.18.82,3.11,3.11,0,0,1,1.11,1,2.56,2.56,0,0,1,.38,1.39,2.42,2.42,0,0,1-1,2,4.28,4.28,0,0,1-2.66.76,5.2,5.2,0,0,1-2.07-.4,3.12,3.12,0,0,1-1.42-1.13A2.87,2.87,0,0,1,402,88.1h.9a2.14,2.14,0,0,0,.84,1.78,3.59,3.59,0,0,0,2.24.65,3.29,3.29,0,0,0,2-.55A1.71,1.71,0,0,0,408.72,88.52Z"/><path d="M411.18,93.14l-.52-.38a3.29,3.29,0,0,0,.69-1.86V89.77h.85v.91A3.17,3.17,0,0,1,411.18,93.14Z"/><path d="M424.25,87.26a4.73,4.73,0,0,1-.82,2.94,2.59,2.59,0,0,1-2.19,1.09,2.92,2.92,0,0,1-2.49-1.14v4h-.88v-11h.82l0,1.12a2.82,2.82,0,0,1,2.48-1.27,2.63,2.63,0,0,1,2.23,1.08,4.87,4.87,0,0,1,.81,3Zm-.88-.15a4,4,0,0,0-.62-2.39,2,2,0,0,0-1.73-.88,2.51,2.51,0,0,0-1.39.38,2.46,2.46,0,0,0-.88,1.13v3.8a2.24,2.24,0,0,0,.9,1,2.58,2.58,0,0,0,1.38.36,2,2,0,0,0,1.72-.88A4.38,4.38,0,0,0,423.37,87.11Z"/><path d="M429.86,84a2.92,2.92,0,0,0-.6,0,2.14,2.14,0,0,0-1.38.45,2.52,2.52,0,0,0-.81,1.33v5.45h-.88V83.22h.86l0,1.26a2.32,2.32,0,0,1,2.23-1.41,1.51,1.51,0,0,1,.58.1Z"/><path d="M434.17,91.29a3.4,3.4,0,0,1-1.83-.5,3.46,3.46,0,0,1-1.27-1.38,4.39,4.39,0,0,1-.45-2v-.32a4.71,4.71,0,0,1,.44-2,3.56,3.56,0,0,1,1.24-1.44,3,3,0,0,1,1.71-.53,2.85,2.85,0,0,1,2.29,1,4,4,0,0,1,.85,2.69v.49h-5.66v.17a3.36,3.36,0,0,0,.77,2.25,2.5,2.5,0,0,0,1.95.89,2.58,2.58,0,0,0,2.22-1.07l.55.41A3.19,3.19,0,0,1,434.17,91.29ZM434,83.82a2.19,2.19,0,0,0-1.67.73,3.36,3.36,0,0,0-.82,2h4.75v-.1a2.89,2.89,0,0,0-.65-1.86A2,2,0,0,0,434,83.82Z"/><path d="M440.21,81.19v2h1.64v.72h-1.64v5.28a1.66,1.66,0,0,0,.24,1,.94.94,0,0,0,.8.32,5.23,5.23,0,0,0,.71-.07l0,.71a2.91,2.91,0,0,1-.93.12,1.57,1.57,0,0,1-1.32-.52,2.48,2.48,0,0,1-.41-1.54V83.94h-1.45v-.72h1.45v-2Z"/><path d="M443,87.07a4.72,4.72,0,0,1,.44-2.06,3.44,3.44,0,0,1,1.26-1.43,3.36,3.36,0,0,1,1.83-.51,3.24,3.24,0,0,1,2.56,1.11,4.25,4.25,0,0,1,1,2.94v.19a4.69,4.69,0,0,1-.45,2.07,3.24,3.24,0,0,1-1.25,1.41,3.33,3.33,0,0,1-1.83.5A3.25,3.25,0,0,1,444,90.18a4.25,4.25,0,0,1-1-2.94Zm.88.24a3.59,3.59,0,0,0,.74,2.33,2.49,2.49,0,0,0,3.85,0,3.73,3.73,0,0,0,.74-2.41v-.16a4.15,4.15,0,0,0-.34-1.67,2.68,2.68,0,0,0-1-1.16,2.38,2.38,0,0,0-1.39-.42,2.34,2.34,0,0,0-1.91.92,3.75,3.75,0,0,0-.74,2.41Z"/><path d="M455.22,87.11a4.77,4.77,0,0,1,.82-2.94,2.66,2.66,0,0,1,2.24-1.1,2.77,2.77,0,0,1,2.45,1.27V79.9h.87V91.15h-.82l0-1.06a2.82,2.82,0,0,1-2.47,1.2,2.62,2.62,0,0,1-2.21-1.1,4.79,4.79,0,0,1-.84-3Zm.89.15a4.22,4.22,0,0,0,.6,2.4,2,2,0,0,0,1.72.87,2.37,2.37,0,0,0,2.3-1.43V85.38a2.35,2.35,0,0,0-2.29-1.54,2,2,0,0,0-1.72.86A4.44,4.44,0,0,0,456.11,87.26Z"/><path d="M463.42,87.07a4.59,4.59,0,0,1,.45-2.06A3.32,3.32,0,0,1,467,83.07a3.27,3.27,0,0,1,2.57,1.11,4.3,4.3,0,0,1,1,2.94v.19a4.83,4.83,0,0,1-.44,2.07A3.31,3.31,0,0,1,467,91.29a3.27,3.27,0,0,1-2.56-1.11,4.25,4.25,0,0,1-1-2.94Zm.88.24a3.59,3.59,0,0,0,.74,2.33,2.49,2.49,0,0,0,3.85,0,3.73,3.73,0,0,0,.74-2.41v-.16a4.15,4.15,0,0,0-.34-1.67,2.66,2.66,0,0,0-.94-1.16,2.41,2.41,0,0,0-1.4-.42,2.36,2.36,0,0,0-1.91.92,3.75,3.75,0,0,0-.74,2.41Z"/><path d="M477.05,89.13a1.26,1.26,0,0,0-.52-1,3.94,3.94,0,0,0-1.58-.61,6.9,6.9,0,0,1-1.64-.52,2.28,2.28,0,0,1-.86-.7,1.76,1.76,0,0,1-.28-1,1.87,1.87,0,0,1,.78-1.55,3.15,3.15,0,0,1,2-.62,3.27,3.27,0,0,1,2.13.66,2.12,2.12,0,0,1,.8,1.71H477a1.43,1.43,0,0,0-.58-1.16,2.35,2.35,0,0,0-1.47-.46,2.27,2.27,0,0,0-1.39.39,1.17,1.17,0,0,0-.52,1,1.09,1.09,0,0,0,.43.92,4.77,4.77,0,0,0,1.59.59,7.15,7.15,0,0,1,1.73.58,2.24,2.24,0,0,1,.85.74,2,2,0,0,1-.53,2.65,3.45,3.45,0,0,1-2.11.6,3.51,3.51,0,0,1-2.24-.67,2,2,0,0,1-.86-1.69h.87a1.52,1.52,0,0,0,.65,1.19,2.64,2.64,0,0,0,1.58.43,2.49,2.49,0,0,0,1.48-.4A1.2,1.2,0,0,0,477.05,89.13Zm-2-7.71L476.35,80h.78v.09L475.41,82h-.63l-1.73-1.92V80h.78Z"/><path d="M480.88,91.15H480V79.9h.87Z"/><path d="M482.78,87.07a4.72,4.72,0,0,1,.44-2.06,3.44,3.44,0,0,1,1.26-1.43,3.36,3.36,0,0,1,1.83-.51,3.27,3.27,0,0,1,2.57,1.11,4.3,4.3,0,0,1,1,2.94v.19a4.69,4.69,0,0,1-.45,2.07,3.29,3.29,0,0,1-1.24,1.41,3.39,3.39,0,0,1-1.84.5,3.25,3.25,0,0,1-2.56-1.11,4.25,4.25,0,0,1-1-2.94Zm.88.24a3.59,3.59,0,0,0,.74,2.33,2.49,2.49,0,0,0,3.85,0,3.73,3.73,0,0,0,.74-2.41v-.16a4.15,4.15,0,0,0-.34-1.67,2.68,2.68,0,0,0-.95-1.16,2.38,2.38,0,0,0-1.39-.42,2.34,2.34,0,0,0-1.91.92,3.75,3.75,0,0,0-.74,2.41Z"/><path d="M282.16,103.15l-1,1v3h-.88V95.9h.88v7.19l.83-.89,3-3h1.11l-3.37,3.34,3.66,4.59h-1.05Z"/><path d="M296,105.13a1.26,1.26,0,0,0-.52-1,4,4,0,0,0-1.58-.61,6.9,6.9,0,0,1-1.64-.52,2.2,2.2,0,0,1-.86-.7,1.76,1.76,0,0,1-.28-1,1.87,1.87,0,0,1,.78-1.55,3.15,3.15,0,0,1,2-.62,3.22,3.22,0,0,1,2.12.66,2.1,2.1,0,0,1,.81,1.71H296a1.45,1.45,0,0,0-.58-1.16,2.35,2.35,0,0,0-1.47-.46,2.27,2.27,0,0,0-1.39.39,1.17,1.17,0,0,0-.52,1,1.09,1.09,0,0,0,.43.92,4.77,4.77,0,0,0,1.59.59,7.15,7.15,0,0,1,1.73.58,2.24,2.24,0,0,1,.85.74,2,2,0,0,1-.53,2.65,3.45,3.45,0,0,1-2.11.6,3.54,3.54,0,0,1-2.25-.67,2.06,2.06,0,0,1-.86-1.69h.88a1.52,1.52,0,0,0,.65,1.19,2.62,2.62,0,0,0,1.58.43,2.49,2.49,0,0,0,1.48-.4A1.22,1.22,0,0,0,296,105.13Z"/><path d="M300.74,103.15l-1,1v3h-.88V95.9h.88v7.19l.83-.89,3-3h1.11l-3.37,3.34,3.66,4.59H304Z"/><path d="M305.72,103.07a4.59,4.59,0,0,1,.45-2.06,3.32,3.32,0,0,1,3.08-1.94,3.27,3.27,0,0,1,2.57,1.11,4.3,4.3,0,0,1,1,2.94v.19a4.69,4.69,0,0,1-.45,2.07,3.29,3.29,0,0,1-1.24,1.41,3.37,3.37,0,0,1-1.84.5,3.25,3.25,0,0,1-2.56-1.11,4.25,4.25,0,0,1-1-2.94Zm.88.24a3.59,3.59,0,0,0,.74,2.33,2.49,2.49,0,0,0,3.85,0,3.73,3.73,0,0,0,.74-2.41v-.16a4.15,4.15,0,0,0-.34-1.67,2.68,2.68,0,0,0-.95-1.16,2.47,2.47,0,0,0-3.3.5,3.75,3.75,0,0,0-.74,2.41Z"/><path d="M316.49,103.15l-1,1v3h-.88V95.9h.88v7.19l.82-.89,3-3h1.11l-3.36,3.34,3.65,4.59h-1Z"/><path d="M321.47,103.07a4.72,4.72,0,0,1,.44-2.06A3.32,3.32,0,0,1,325,99.07a3.25,3.25,0,0,1,2.56,1.11,4.25,4.25,0,0,1,1,2.94v.19a4.69,4.69,0,0,1-.44,2.07,3.24,3.24,0,0,1-1.25,1.41,3.37,3.37,0,0,1-1.84.5,3.27,3.27,0,0,1-2.56-1.11,4.3,4.3,0,0,1-1-2.94Zm.88.24a3.59,3.59,0,0,0,.73,2.33,2.5,2.5,0,0,0,3.86,0,3.72,3.72,0,0,0,.73-2.41v-.16a4,4,0,0,0-.34-1.67,2.59,2.59,0,0,0-.94-1.16,2.38,2.38,0,0,0-1.39-.42,2.34,2.34,0,0,0-1.91.92,3.69,3.69,0,0,0-.74,2.41Z"/><path d="M332.71,105.94l2.41-6.72h.9l-3,7.93h-.71l-3-7.93h.9Z"/><path d="M340.43,107.29a3.4,3.4,0,0,1-1.83-.5,3.46,3.46,0,0,1-1.27-1.38,4.39,4.39,0,0,1-.45-2v-.32a4.71,4.71,0,0,1,.44-2,3.56,3.56,0,0,1,1.24-1.44,3,3,0,0,1,1.71-.53,2.85,2.85,0,0,1,2.29,1,4,4,0,0,1,.85,2.69v.49h-5.66v.17a3.36,3.36,0,0,0,.77,2.25,2.5,2.5,0,0,0,2,.89,2.58,2.58,0,0,0,2.22-1.07l.55.41A3.19,3.19,0,0,1,340.43,107.29Zm-.16-7.47a2.19,2.19,0,0,0-1.67.73,3.36,3.36,0,0,0-.82,2h4.75v-.1a2.89,2.89,0,0,0-.65-1.86A2,2,0,0,0,340.27,99.82Zm1-3.92h1.07l-1.7,2h-.77Z"/><path d="M345.91,99.22l0,1.29a2.92,2.92,0,0,1,1.1-1.08,3,3,0,0,1,1.46-.36,2.22,2.22,0,0,1,2.38,1.54A3,3,0,0,1,352,99.47a3.19,3.19,0,0,1,1.57-.4c1.7,0,2.56.93,2.6,2.79v5.29h-.88v-5.23a2.39,2.39,0,0,0-.46-1.57,1.87,1.87,0,0,0-1.47-.51,2.34,2.34,0,0,0-1.6.61,2.18,2.18,0,0,0-.72,1.45v5.25h-.88v-5.29a2.21,2.21,0,0,0-.48-1.52,1.89,1.89,0,0,0-1.45-.5,2.15,2.15,0,0,0-1.42.47,2.71,2.71,0,0,0-.88,1.4v5.44h-.88V99.22Z"/><path d="M363.5,106.14a2.83,2.83,0,0,1-2.52,1.15,2.45,2.45,0,0,1-1.93-.73,3.23,3.23,0,0,1-.67-2.18V99.22h.87v5c0,1.51.61,2.26,1.83,2.26a2.24,2.24,0,0,0,2.41-1.57V99.22h.88v7.93h-.85Z"/><path d="M370.87,106.41H376v.74h-6.23v-.65l4.8-6.52h-4.66v-.76h5.77v.66Z"/><path d="M378.42,99.22l0,1.36a3.16,3.16,0,0,1,1.12-1.12,2.84,2.84,0,0,1,1.47-.39,2.35,2.35,0,0,1,1.89.72,3.2,3.2,0,0,1,.63,2.16v5.2h-.87v-5.21a2.35,2.35,0,0,0-.45-1.58,1.74,1.74,0,0,0-1.41-.52,2.23,2.23,0,0,0-1.44.5,3,3,0,0,0-.93,1.38v5.43h-.87V99.22Z"/><path d="M387.25,96h1.06l-1.69,2h-.77Zm-.46,11.17h-.87V99.22h.87Z"/><path d="M389.75,106.41h5.14v.74h-6.23v-.65l4.81-6.52h-4.66v-.76h5.76v.66Zm2-9L393,96h.78v.09L392.08,98h-.63l-1.73-1.92V96h.79Z"/><path d="M399.41,107.29a3.41,3.41,0,0,1-3.09-1.88,4.27,4.27,0,0,1-.46-2v-.32a4.71,4.71,0,0,1,.44-2,3.56,3.56,0,0,1,1.24-1.44,3.05,3.05,0,0,1,1.71-.53,2.85,2.85,0,0,1,2.29,1,4,4,0,0,1,.85,2.69v.49h-5.66v.17a3.31,3.31,0,0,0,.78,2.25,2.46,2.46,0,0,0,1.94.89,2.86,2.86,0,0,0,1.24-.25,2.78,2.78,0,0,0,1-.82l.55.41A3.19,3.19,0,0,1,399.41,107.29Zm-.16-7.47a2.16,2.16,0,0,0-1.66.73,3.3,3.3,0,0,0-.83,2h4.76v-.1a3,3,0,0,0-.66-1.86A2,2,0,0,0,399.25,99.82Z"/><path d="M404.93,99.22l0,1.36a3.22,3.22,0,0,1,1.11-1.12,2.89,2.89,0,0,1,1.47-.39,2.37,2.37,0,0,1,1.9.72,3.2,3.2,0,0,1,.63,2.16v5.2h-.87v-5.21a2.46,2.46,0,0,0-.45-1.58,1.77,1.77,0,0,0-1.42-.52,2.27,2.27,0,0,0-1.44.5,3,3,0,0,0-.93,1.38v5.43h-.87V99.22Z"/><path d="M412.28,96.93a.57.57,0,0,1,.6-.59.61.61,0,0,1,.45.17.6.6,0,0,1,.16.42.57.57,0,0,1-.16.42.61.61,0,0,1-.45.16.6.6,0,0,1-.44-.16A.57.57,0,0,1,412.28,96.93Zm1,10.22h-.87V99.22h.87Z"/><path d="M420.79,106.14a2.85,2.85,0,0,1-2.53,1.15,2.44,2.44,0,0,1-1.92-.73,3.18,3.18,0,0,1-.67-2.18V99.22h.87v5c0,1.51.61,2.26,1.83,2.26a2.24,2.24,0,0,0,2.41-1.57V99.22h.88v7.93h-.85Z"/><path d="M428.38,99.22l0,1.29a2.92,2.92,0,0,1,1.1-1.08,3,3,0,0,1,1.46-.36,2.22,2.22,0,0,1,2.38,1.54,3,3,0,0,1,1.14-1.14,3.19,3.19,0,0,1,1.57-.4c1.7,0,2.56.93,2.6,2.79v5.29h-.88v-5.23a2.39,2.39,0,0,0-.46-1.57,1.87,1.87,0,0,0-1.47-.51,2.34,2.34,0,0,0-1.6.61,2.18,2.18,0,0,0-.72,1.45v5.25h-.88v-5.29a2.12,2.12,0,0,0-.48-1.52,1.88,1.88,0,0,0-1.45-.5,2.17,2.17,0,0,0-1.42.47,2.71,2.71,0,0,0-.88,1.4v5.44h-.88V99.22Z"/><path d="M441.71,99.22l0,1.36a3.22,3.22,0,0,1,1.11-1.12,2.9,2.9,0,0,1,1.48-.39,2.36,2.36,0,0,1,1.89.72,3.2,3.2,0,0,1,.63,2.16v5.2H446v-5.21a2.35,2.35,0,0,0-.45-1.58,1.75,1.75,0,0,0-1.42-.52,2.27,2.27,0,0,0-1.44.5,3,3,0,0,0-.92,1.38v5.43h-.87V99.22Z"/><path d="M448.63,103.07a4.59,4.59,0,0,1,.45-2.06,3.32,3.32,0,0,1,3.08-1.94,3.27,3.27,0,0,1,2.57,1.11,4.3,4.3,0,0,1,1,2.94v.19a4.69,4.69,0,0,1-.45,2.07,3.29,3.29,0,0,1-1.24,1.41,3.37,3.37,0,0,1-1.84.5,3.25,3.25,0,0,1-2.56-1.11,4.25,4.25,0,0,1-1-2.94Zm.88.24a3.59,3.59,0,0,0,.74,2.33,2.49,2.49,0,0,0,3.85,0,3.73,3.73,0,0,0,.74-2.41v-.16a4.15,4.15,0,0,0-.34-1.67,2.68,2.68,0,0,0-.95-1.16,2.47,2.47,0,0,0-3.3.5,3.75,3.75,0,0,0-.74,2.41Z"/><path d="M458,106.41h5.15v.74h-6.24v-.65L461.7,100H457v-.76h5.76v.66Zm2-9L461.26,96H462v.09L460.31,98h-.63L458,96.07V96h.78Z"/><path d="M469.44,105.13a1.26,1.26,0,0,0-.52-1,4,4,0,0,0-1.58-.61,6.9,6.9,0,0,1-1.64-.52,2.2,2.2,0,0,1-.86-.7,1.76,1.76,0,0,1-.28-1,1.87,1.87,0,0,1,.78-1.55,3.15,3.15,0,0,1,2-.62,3.22,3.22,0,0,1,2.12.66,2.1,2.1,0,0,1,.81,1.71h-.88a1.44,1.44,0,0,0-.59-1.16,2.3,2.3,0,0,0-1.46-.46,2.27,2.27,0,0,0-1.39.39,1.18,1.18,0,0,0-.53,1,1.1,1.1,0,0,0,.44.92,4.77,4.77,0,0,0,1.59.59,7.31,7.31,0,0,1,1.73.58,2.24,2.24,0,0,1,.85.74,2,2,0,0,1-.53,2.65,3.45,3.45,0,0,1-2.11.6,3.54,3.54,0,0,1-2.25-.67,2.06,2.06,0,0,1-.86-1.69h.88a1.49,1.49,0,0,0,.65,1.19,2.62,2.62,0,0,0,1.58.43,2.49,2.49,0,0,0,1.48-.4A1.22,1.22,0,0,0,469.44,105.13Z"/><path d="M473.65,97.19v2h1.64v.72h-1.64v5.28a1.66,1.66,0,0,0,.24,1,.93.93,0,0,0,.79.32,5.2,5.2,0,0,0,.72-.07l0,.71a2.91,2.91,0,0,1-.93.12,1.57,1.57,0,0,1-1.32-.52,2.48,2.48,0,0,1-.41-1.54V99.94h-1.45v-.72h1.45v-2Z"/><path d="M479.58,105.94,482,99.22h.9l-3,7.93h-.71l-3-7.93h.9Z"/><path d="M489.22,107.15a3.91,3.91,0,0,1-.17-1.11,3.1,3.1,0,0,1-1.18.93,3.69,3.69,0,0,1-1.51.32,2.68,2.68,0,0,1-1.85-.63,2.21,2.21,0,0,1,.26-3.45,4.6,4.6,0,0,1,2.68-.67H489v-.9a1.74,1.74,0,0,0-.52-1.34,2.2,2.2,0,0,0-1.53-.49,2.42,2.42,0,0,0-1.52.47,1.41,1.41,0,0,0-.6,1.13H484a2,2,0,0,1,.88-1.63,3.35,3.35,0,0,1,2.16-.7,3.08,3.08,0,0,1,2.09.67,2.37,2.37,0,0,1,.79,1.85v3.75a4.69,4.69,0,0,0,.24,1.72v.09Zm-2.76-.63a3,3,0,0,0,1.57-.43,2.45,2.45,0,0,0,1-1.13v-1.75h-1.57a4,4,0,0,0-2.05.48,1.45,1.45,0,0,0-.74,1.28,1.43,1.43,0,0,0,.5,1.11A1.86,1.86,0,0,0,486.46,106.52Z"/><path d="M285.27,123.15a4.39,4.39,0,0,1-.16-1.11,3.1,3.1,0,0,1-1.18.93,3.69,3.69,0,0,1-1.51.32,2.68,2.68,0,0,1-1.85-.63,2.21,2.21,0,0,1,.26-3.45,4.6,4.6,0,0,1,2.68-.67h1.59v-.9a1.78,1.78,0,0,0-.52-1.34,2.2,2.2,0,0,0-1.53-.49,2.42,2.42,0,0,0-1.52.47,1.41,1.41,0,0,0-.6,1.13h-.88a2,2,0,0,1,.88-1.63,3.35,3.35,0,0,1,2.16-.7,3.08,3.08,0,0,1,2.09.67,2.37,2.37,0,0,1,.79,1.85v3.75a4.69,4.69,0,0,0,.24,1.72v.09Zm-2.75-.63a3,3,0,0,0,1.57-.43,2.5,2.5,0,0,0,1-1.13v-1.75h-1.57a3.93,3.93,0,0,0-2,.48,1.45,1.45,0,0,0-.74,1.28,1.43,1.43,0,0,0,.5,1.11A1.86,1.86,0,0,0,282.52,122.52Z"/><path d="M289.29,123.15h-.88V111.9h.88Z"/><path d="M291.19,119.07a4.58,4.58,0,0,1,.44-2.06,3.32,3.32,0,0,1,3.09-1.94,3.27,3.27,0,0,1,2.56,1.11,4.3,4.3,0,0,1,1,2.94v.19a4.83,4.83,0,0,1-.44,2.07,3.31,3.31,0,0,1-1.25,1.41,3.37,3.37,0,0,1-1.84.5,3.27,3.27,0,0,1-2.56-1.11,4.25,4.25,0,0,1-1-2.94Zm.87.24a3.59,3.59,0,0,0,.74,2.33,2.49,2.49,0,0,0,3.85,0,3.73,3.73,0,0,0,.74-2.41v-.16a4,4,0,0,0-.34-1.67,2.66,2.66,0,0,0-.94-1.16,2.4,2.4,0,0,0-1.39-.42,2.36,2.36,0,0,0-1.92.92,3.75,3.75,0,0,0-.74,2.41Z"/><path d="M302,119.15l-1,1v3h-.88V111.9H301v7.19l.83-.89,3-3h1.1l-3.36,3.34,3.66,4.59h-1Z"/><path d="M306.93,119.07a4.59,4.59,0,0,1,.45-2.06,3.32,3.32,0,0,1,3.08-1.94,3.27,3.27,0,0,1,2.57,1.11,4.3,4.3,0,0,1,1,2.94v.19a4.69,4.69,0,0,1-.45,2.07,3.29,3.29,0,0,1-1.24,1.41,3.37,3.37,0,0,1-1.84.5,3.25,3.25,0,0,1-2.56-1.11,4.25,4.25,0,0,1-1-2.94Zm.88.24a3.59,3.59,0,0,0,.74,2.33,2.49,2.49,0,0,0,3.85,0,3.73,3.73,0,0,0,.74-2.41v-.16a4.15,4.15,0,0,0-.34-1.67,2.68,2.68,0,0,0-.95-1.16,2.38,2.38,0,0,0-1.39-.42,2.34,2.34,0,0,0-1.91.92,3.75,3.75,0,0,0-.74,2.41Z"/><path d="M318.17,121.94l2.41-6.72h.91l-3,7.93h-.71l-3-7.93h.9Z"/><path d="M327.81,123.15a4.31,4.31,0,0,1-.17-1.11,3,3,0,0,1-1.17.93,3.72,3.72,0,0,1-1.51.32,2.68,2.68,0,0,1-1.85-.63,2.21,2.21,0,0,1,.25-3.45,4.65,4.65,0,0,1,2.69-.67h1.59v-.9a1.75,1.75,0,0,0-.53-1.34,2.19,2.19,0,0,0-1.52-.49,2.42,2.42,0,0,0-1.52.47,1.41,1.41,0,0,0-.6,1.13h-.88a2,2,0,0,1,.88-1.63,3.35,3.35,0,0,1,2.16-.7,3.1,3.1,0,0,1,2.09.67,2.4,2.4,0,0,1,.79,1.85v3.75a4.69,4.69,0,0,0,.24,1.72v.09Zm-2.75-.63a3,3,0,0,0,1.57-.43,2.5,2.5,0,0,0,1-1.13v-1.75h-1.57a3.93,3.93,0,0,0-2.05.48,1.45,1.45,0,0,0-.74,1.28,1.42,1.42,0,0,0,.49,1.11A1.89,1.89,0,0,0,325.06,122.52Z"/><path d="M331.68,115.22l0,1.36a3.22,3.22,0,0,1,1.11-1.12,2.89,2.89,0,0,1,1.47-.39,2.37,2.37,0,0,1,1.9.72,3.2,3.2,0,0,1,.63,2.16v5.2H336v-5.21a2.35,2.35,0,0,0-.45-1.58,1.75,1.75,0,0,0-1.42-.52,2.27,2.27,0,0,0-1.44.5,3,3,0,0,0-.92,1.38v5.43h-.87v-7.93Z"/><path d="M341.6,121.89l2.31-6.67h.95l-3.39,9.27-.17.41a2.13,2.13,0,0,1-2,1.45,2.4,2.4,0,0,1-.67-.11v-.72l.46,0a1.58,1.58,0,0,0,1-.32,2.38,2.38,0,0,0,.68-1.09l.39-1.07-3-7.86h1Zm1-10h1.06L342,114h-.77Z"/><path d="M349.05,122.55a2.32,2.32,0,0,0,1.53-.51,1.79,1.79,0,0,0,.67-1.34h.84a2.44,2.44,0,0,1-.45,1.32,2.91,2.91,0,0,1-1.11.94,3.38,3.38,0,0,1-1.48.33,3.05,3.05,0,0,1-2.47-1.08,4.38,4.38,0,0,1-.92-2.92V119a5,5,0,0,1,.41-2.07,3.17,3.17,0,0,1,1.18-1.39,3.23,3.23,0,0,1,1.79-.5,3,3,0,0,1,2.15.78,2.81,2.81,0,0,1,.9,2h-.84a2.14,2.14,0,0,0-.67-1.5,2.38,2.38,0,0,0-3.38.29,3.85,3.85,0,0,0-.66,2.4v.26a3.74,3.74,0,0,0,.66,2.36A2.19,2.19,0,0,0,349.05,122.55Z"/><path d="M354.72,116.56a3.05,3.05,0,0,1,1.1-1.1,2.89,2.89,0,0,1,1.47-.39,2.37,2.37,0,0,1,1.9.72,3.2,3.2,0,0,1,.63,2.16v5.2H359v-5.21a2.46,2.46,0,0,0-.45-1.58,1.77,1.77,0,0,0-1.42-.52,2.27,2.27,0,0,0-1.44.5,3,3,0,0,0-.92,1.38v5.43h-.88V111.9h.88Z"/><path d="M372.1,119.26a4.8,4.8,0,0,1-.82,2.94,2.61,2.61,0,0,1-2.2,1.09,2.92,2.92,0,0,1-2.49-1.14v4h-.87v-11h.81l0,1.12a2.83,2.83,0,0,1,2.49-1.27,2.64,2.64,0,0,1,2.23,1.08,4.87,4.87,0,0,1,.81,3Zm-.88-.15a4,4,0,0,0-.63-2.39,2,2,0,0,0-1.73-.88,2.51,2.51,0,0,0-1.39.38,2.46,2.46,0,0,0-.88,1.13v3.8a2.3,2.3,0,0,0,.9,1,2.58,2.58,0,0,0,1.38.36,2,2,0,0,0,1.73-.88A4.46,4.46,0,0,0,371.22,119.11Z"/><path d="M373.55,119.07A4.59,4.59,0,0,1,374,117a3.32,3.32,0,0,1,3.08-1.94,3.27,3.27,0,0,1,2.57,1.11,4.3,4.3,0,0,1,1,2.94v.19a4.83,4.83,0,0,1-.44,2.07,3.31,3.31,0,0,1-3.09,1.91,3.27,3.27,0,0,1-2.56-1.11,4.25,4.25,0,0,1-1-2.94Zm.88.24a3.59,3.59,0,0,0,.74,2.33,2.49,2.49,0,0,0,3.85,0,3.73,3.73,0,0,0,.74-2.41v-.16a4,4,0,0,0-.34-1.67,2.66,2.66,0,0,0-.94-1.16,2.41,2.41,0,0,0-1.4-.42,2.36,2.36,0,0,0-1.91.92,3.75,3.75,0,0,0-.74,2.41Z"/><path d="M384.8,121.94l2.41-6.72h.9l-3,7.93h-.71l-3-7.93h.91Z"/><path d="M389,119.07a4.72,4.72,0,0,1,.44-2.06,3.49,3.49,0,0,1,1.25-1.43,3.4,3.4,0,0,1,1.84-.51,3.25,3.25,0,0,1,2.56,1.11,4.25,4.25,0,0,1,1,2.94v.19a4.69,4.69,0,0,1-.44,2.07,3.24,3.24,0,0,1-1.25,1.41,3.37,3.37,0,0,1-1.84.5,3.27,3.27,0,0,1-2.56-1.11,4.3,4.3,0,0,1-1-2.94Zm.88.24a3.59,3.59,0,0,0,.73,2.33,2.5,2.5,0,0,0,3.86,0,3.72,3.72,0,0,0,.73-2.41v-.16a4.15,4.15,0,0,0-.33-1.67,2.68,2.68,0,0,0-.95-1.16,2.38,2.38,0,0,0-1.39-.42,2.34,2.34,0,0,0-1.91.92,3.69,3.69,0,0,0-.74,2.41Z"/><path d="M398.81,123.15h-.87V111.9h.87Z"/><path d="M404.26,123.29a3.41,3.41,0,0,1-3.09-1.88,4.27,4.27,0,0,1-.46-2v-.32a4.71,4.71,0,0,1,.44-2,3.56,3.56,0,0,1,1.24-1.44,3.05,3.05,0,0,1,1.71-.53,2.85,2.85,0,0,1,2.29,1,4,4,0,0,1,.85,2.69v.49h-5.66v.17a3.31,3.31,0,0,0,.78,2.25,2.46,2.46,0,0,0,1.94.89,2.86,2.86,0,0,0,1.24-.25,2.78,2.78,0,0,0,1-.82l.55.41A3.19,3.19,0,0,1,404.26,123.29Zm-.16-7.47a2.16,2.16,0,0,0-1.66.73,3.3,3.3,0,0,0-.83,2h4.76v-.1a3,3,0,0,0-.66-1.86A2,2,0,0,0,404.1,115.82Z"/><path d="M409.78,115.22l0,1.36a3.22,3.22,0,0,1,1.11-1.12,2.89,2.89,0,0,1,1.47-.39,2.37,2.37,0,0,1,1.9.72,3.2,3.2,0,0,1,.63,2.16v5.2h-.87v-5.21a2.46,2.46,0,0,0-.45-1.58,1.77,1.77,0,0,0-1.42-.52,2.27,2.27,0,0,0-1.44.5,3,3,0,0,0-.92,1.38v5.43h-.88v-7.93Z"/><path d="M417.13,112.93a.57.57,0,0,1,.6-.59.57.57,0,0,1,.44.17.57.57,0,0,1,.17.42.54.54,0,0,1-.17.42.57.57,0,0,1-.44.16.6.6,0,0,1-.44-.16A.57.57,0,0,1,417.13,112.93Zm1,10.22h-.87v-7.93h.87Z"/><path d="M423.61,123.29a3.34,3.34,0,0,1-1.82-.5,3.41,3.41,0,0,1-1.28-1.38,4.39,4.39,0,0,1-.45-2v-.32a4.71,4.71,0,0,1,.44-2,3.56,3.56,0,0,1,1.24-1.44,3,3,0,0,1,1.71-.53,2.85,2.85,0,0,1,2.29,1,4,4,0,0,1,.85,2.69v.49h-5.66v.17a3.31,3.31,0,0,0,.78,2.25,2.46,2.46,0,0,0,1.94.89,2.86,2.86,0,0,0,1.24-.25,2.78,2.78,0,0,0,1-.82l.55.41A3.19,3.19,0,0,1,423.61,123.29Zm-.16-7.47a2.16,2.16,0,0,0-1.66.73,3.3,3.3,0,0,0-.83,2h4.75v-.1a2.89,2.89,0,0,0-.65-1.86A2,2,0,0,0,423.45,115.82Z"/><path d="M430.18,119.15l-1,1v3h-.88V111.9h.88v7.19l.83-.89,3-3h1.11l-3.36,3.34,3.65,4.59h-1.05Z"/><path d="M435.56,122.62a.63.63,0,0,1,.16-.44.6.6,0,0,1,.46-.18.59.59,0,0,1,.46.18.64.64,0,0,1,.17.44.57.57,0,0,1-.17.42.61.61,0,0,1-.46.16.63.63,0,0,1-.46-.16A.57.57,0,0,1,435.56,122.62Z"/><polyline class="cls-9" points="515.68 222.06 489.75 222.06 489.75 217.99 463.14 217.99 463.14 213.91 436.53 213.91 436.53 209.84 409.92 209.84 409.92 205.76 383.31 205.76 383.31 201.69 356.7 201.69 356.7 197.62 330.09 197.62 330.09 193.54 303.48 193.54 303.48 189.47 276.87 189.47 276.87 185.39 250.25 185.39 250.25 162.19 223.64 162.19 223.64 158.57 197.03 158.57 197.03 154.94 170.42 154.94 170.42 151.32 143.81 151.32 143.81 147.69 117.2 147.69 117.2 144.07 90.59 144.07 90.59 140.44 63.98 140.44 63.98 136.81 37.37 136.81"/></svg>