<?xml version="1.0" encoding="UTF-8" standalone="no"?>
<svg
   xmlns:dc="http://purl.org/dc/elements/1.1/"
   xmlns:cc="http://creativecommons.org/ns#"
   xmlns:rdf="http://www.w3.org/1999/02/22-rdf-syntax-ns#"
   xmlns:svg="http://www.w3.org/2000/svg"
   xmlns="http://www.w3.org/2000/svg"
   viewBox="0 0 986.66669 716.716"
   height="716.716"
   width="986.66669"
   xml:space="preserve"
   id="svg2"
   version="1.1"><metadata
     id="metadata8"><rdf:RDF><cc:Work
         rdf:about=""><dc:format>image/svg+xml</dc:format><dc:type
           rdf:resource="http://purl.org/dc/dcmitype/StillImage" /></cc:Work></rdf:RDF></metadata><defs
     id="defs6"><clipPath
       id="clipPath136"
       clipPathUnits="userSpaceOnUse"><path
         id="path134"
         d="M 0,0 H 740 V 537.537 H 0 Z" /></clipPath><clipPath
       id="clipPath144"
       clipPathUnits="userSpaceOnUse"><path
         id="path142"
         d="m 49.8689,441.054 h 0.4004 V 154.341 h -0.4004 z" /></clipPath><clipPath
       id="clipPath148"
       clipPathUnits="userSpaceOnUse"><path
         id="path146"
         d="m 49.869,154.341 h 0.4 v 286.713 h -0.4 z" /></clipPath><clipPath
       id="clipPath176"
       clipPathUnits="userSpaceOnUse"><path
         id="path174"
         d="m 151.527,441.054 h 0.4 V 154.341 h -0.4 z" /></clipPath><clipPath
       id="clipPath180"
       clipPathUnits="userSpaceOnUse"><path
         id="path178"
         d="m 151.527,154.341 h 0.4 v 286.713 h -0.4 z" /></clipPath><clipPath
       id="clipPath208"
       clipPathUnits="userSpaceOnUse"><path
         id="path206"
         d="m 253.046,441.054 h 0.4 V 154.341 h -0.4 z" /></clipPath><clipPath
       id="clipPath212"
       clipPathUnits="userSpaceOnUse"><path
         id="path210"
         d="m 253.046,154.341 h 0.4 v 286.713 h -0.4 z" /></clipPath><clipPath
       id="clipPath240"
       clipPathUnits="userSpaceOnUse"><path
         id="path238"
         d="m 354.704,441.054 h 0.4 V 154.341 h -0.4 z" /></clipPath><clipPath
       id="clipPath244"
       clipPathUnits="userSpaceOnUse"><path
         id="path242"
         d="m 354.704,154.341 h 0.4 v 286.713 h -0.4 z" /></clipPath><clipPath
       id="clipPath272"
       clipPathUnits="userSpaceOnUse"><path
         id="path270"
         d="m 456.223,441.054 h 0.4 V 154.341 h -0.4 z" /></clipPath><clipPath
       id="clipPath276"
       clipPathUnits="userSpaceOnUse"><path
         id="path274"
         d="m 456.223,154.341 h 0.4 v 286.713 h -0.4 z" /></clipPath><clipPath
       id="clipPath304"
       clipPathUnits="userSpaceOnUse"><path
         id="path302"
         d="m 557.881,441.054 h 0.4 V 154.341 h -0.4 z" /></clipPath><clipPath
       id="clipPath308"
       clipPathUnits="userSpaceOnUse"><path
         id="path306"
         d="m 557.881,154.341 h 0.4 v 286.713 h -0.4 z" /></clipPath><clipPath
       id="clipPath336"
       clipPathUnits="userSpaceOnUse"><path
         id="path334"
         d="m 659.4,441.054 h 0.401 V 154.341 H 659.4 Z" /></clipPath><clipPath
       id="clipPath340"
       clipPathUnits="userSpaceOnUse"><path
         id="path338"
         d="m 659.4,154.341 h 0.399 V 441.054 H 659.4 Z" /></clipPath><clipPath
       id="clipPath368"
       clipPathUnits="userSpaceOnUse"><path
         id="path366"
         d="m 30.427,214.782 h 727.944 v -0.401 H 30.427 Z" /></clipPath><clipPath
       id="clipPath372"
       clipPathUnits="userSpaceOnUse"><path
         id="path370"
         d="m 30.427,214.381 h 727.944 v 0.4 H 30.427 Z" /></clipPath><clipPath
       id="clipPath396"
       clipPathUnits="userSpaceOnUse"><path
         id="path394"
         d="m 30.427,278.76 h 727.944 v -0.4 H 30.427 Z" /></clipPath><clipPath
       id="clipPath400"
       clipPathUnits="userSpaceOnUse"><path
         id="path398"
         d="m 30.427,278.36 h 727.944 v 0.4 H 30.427 Z" /></clipPath><clipPath
       id="clipPath424"
       clipPathUnits="userSpaceOnUse"><path
         id="path422"
         d="m 30.427,342.739 h 727.944 v -0.4 H 30.427 Z" /></clipPath><clipPath
       id="clipPath428"
       clipPathUnits="userSpaceOnUse"><path
         id="path426"
         d="m 30.427,342.339 h 727.944 v 0.4 H 30.427 Z" /></clipPath><clipPath
       id="clipPath452"
       clipPathUnits="userSpaceOnUse"><path
         id="path450"
         d="m 30.427,406.718 h 727.944 v -0.401 H 30.427 Z" /></clipPath><clipPath
       id="clipPath456"
       clipPathUnits="userSpaceOnUse"><path
         id="path454"
         d="m 30.427,406.318 h 727.944 v 0.4 H 30.427 Z" /></clipPath></defs><g
     transform="matrix(1.3333333,0,0,-1.3333333,0,716.716)"
     id="g10"><text
       id="text14"
       style="font-variant:normal;font-weight:900;font-stretch:normal;font-size:19px;font-family:'Akrobat Black';-inkscape-font-specification:Akrobat-Black;writing-mode:lr-tb;fill:#000000;fill-opacity:1;fill-rule:nonzero;stroke:none"
       transform="matrix(1,0,0,-1,5,510.3618)"><tspan
         id="tspan12"
         y="0"
         x="0 11.476 22.268 34.998001 46.284 51.965 62.757 75.030998 86.925003 99.028 110.884 121.676 133.96899 144.83701 156.313 168.739 174.439 185.231 200.925 207.879 218.69 231.42 242.28799 253.76401 266.19 271.89001 283.746 295.86801 307.04001 319.14301 328.98499 339.77701 352.50699 359.461 370.25299">CENA EURÓPSKYCH EMISNÝCH POVOLENIEK</tspan></text>
<text
       id="text30"
       style="font-variant:normal;font-weight:300;font-stretch:normal;font-size:15px;font-family:'Roboto Light';-inkscape-font-specification:Roboto-Light;writing-mode:lr-tb;fill:#000000;fill-opacity:1;fill-rule:nonzero;stroke:none"
       transform="matrix(1,0,0,-1,33.4424,130.2402)"><tspan
         id="tspan16"
         y="0"
         x="0 8.3100004 16.620001 24.93">2008</tspan><tspan
         id="tspan18"
         y="-24.299999"
         x="-23.985001">0</tspan><tspan
         id="tspan20"
         y="-78.419998"
         x="-32.294998 -23.985001">10</tspan><tspan
         id="tspan22"
         y="-144.105"
         x="-32.294998 -23.985001">20</tspan><tspan
         id="tspan24"
         y="-206.75999"
         x="-32.294998 -23.985001">30</tspan><tspan
         id="tspan26"
         y="-270.495"
         x="-32.294998 -23.985001">40</tspan><tspan
         id="tspan28"
         y="0"
         x="101.58 109.89 118.2 126.51 203.175 211.485 219.795 228.105 304.76999 313.07999 321.39001 329.70001 406.36499 414.67499 422.98499 431.29501 507.95999 516.27002 524.58002 532.89001 596.625 604.935 613.245 621.55499">201020122014201620182020</tspan></text>
<path
       id="path32"
       style="fill:#f1f2f2;fill-opacity:1;fill-rule:nonzero;stroke:none"
       d="M 304.145,154.541 H 558.081 V 440.854 H 304.145 Z" /><path
       id="path34"
       style="fill:#f1f2f2;fill-opacity:1;fill-rule:nonzero;stroke:none"
       d="m 667.944,154.541 h 12.794 v 286.313 h -12.794 z" /><path
       id="path36"
       style="fill:#f1f2f2;fill-opacity:1;fill-rule:nonzero;stroke:none"
       d="m 84.001,154.541 h 50.76 v 286.313 h -50.76 z" /><g
       transform="translate(50.0697,150.5412)"
       id="g38"><path
         id="path40"
         style="fill:#666666;fill-opacity:1;fill-rule:nonzero;stroke:none"
         d="M 0,0 V 4 Z" /></g><g
       transform="translate(50.0693,154.541)"
       id="g42"><path
         id="path44"
         style="fill:none;stroke:#666666;stroke-width:0.60000002;stroke-linecap:butt;stroke-linejoin:round;stroke-miterlimit:4;stroke-dasharray:none;stroke-opacity:1"
         d="M 0,0 V -4" /></g><g
       transform="translate(151.7265,150.5412)"
       id="g46"><path
         id="path48"
         style="fill:#666666;fill-opacity:1;fill-rule:nonzero;stroke:none"
         d="M 0,0 V 4 Z" /></g><g
       transform="translate(151.7266,154.541)"
       id="g50"><path
         id="path52"
         style="fill:none;stroke:#666666;stroke-width:0.60000002;stroke-linecap:butt;stroke-linejoin:round;stroke-miterlimit:4;stroke-dasharray:none;stroke-opacity:1"
         d="M 0,0 V -4" /></g><g
       transform="translate(253.2465,150.5412)"
       id="g54"><path
         id="path56"
         style="fill:#666666;fill-opacity:1;fill-rule:nonzero;stroke:none"
         d="M 0,0 V 4 Z" /></g><g
       transform="translate(253.2461,154.541)"
       id="g58"><path
         id="path60"
         style="fill:none;stroke:#666666;stroke-width:0.60000002;stroke-linecap:butt;stroke-linejoin:round;stroke-miterlimit:4;stroke-dasharray:none;stroke-opacity:1"
         d="M 0,0 V -4" /></g><g
       transform="translate(354.9042,150.5412)"
       id="g62"><path
         id="path64"
         style="fill:#666666;fill-opacity:1;fill-rule:nonzero;stroke:none"
         d="M 0,0 V 4 Z" /></g><g
       transform="translate(354.9043,154.541)"
       id="g66"><path
         id="path68"
         style="fill:none;stroke:#666666;stroke-width:0.60000002;stroke-linecap:butt;stroke-linejoin:round;stroke-miterlimit:4;stroke-dasharray:none;stroke-opacity:1"
         d="M 0,0 V -4" /></g><g
       transform="translate(456.4224,150.5412)"
       id="g70"><path
         id="path72"
         style="fill:#666666;fill-opacity:1;fill-rule:nonzero;stroke:none"
         d="M 0,0 V 4 Z" /></g><g
       transform="translate(456.4229,154.541)"
       id="g74"><path
         id="path76"
         style="fill:none;stroke:#666666;stroke-width:0.60000002;stroke-linecap:butt;stroke-linejoin:round;stroke-miterlimit:4;stroke-dasharray:none;stroke-opacity:1"
         d="M 0,0 V -4" /></g><g
       transform="translate(558.081,150.5412)"
       id="g78"><path
         id="path80"
         style="fill:#666666;fill-opacity:1;fill-rule:nonzero;stroke:none"
         d="M 0,0 V 4 Z" /></g><g
       transform="translate(558.0811,154.541)"
       id="g82"><path
         id="path84"
         style="fill:none;stroke:#666666;stroke-width:0.60000002;stroke-linecap:butt;stroke-linejoin:round;stroke-miterlimit:4;stroke-dasharray:none;stroke-opacity:1"
         d="M 0,0 V -4" /></g><g
       transform="translate(659.5992,150.5412)"
       id="g86"><path
         id="path88"
         style="fill:#666666;fill-opacity:1;fill-rule:nonzero;stroke:none"
         d="M 0,0 V 4 Z" /></g><g
       transform="translate(659.5996,154.541)"
       id="g90"><path
         id="path92"
         style="fill:none;stroke:#666666;stroke-width:0.60000002;stroke-linecap:butt;stroke-linejoin:round;stroke-miterlimit:4;stroke-dasharray:none;stroke-opacity:1"
         d="M 0,0 V -4" /></g><g
       transform="translate(25.9281,214.5816)"
       id="g94"><path
         id="path96"
         style="fill:#666666;fill-opacity:1;fill-rule:nonzero;stroke:none"
         d="M 0,0 H 4.699 Z" /></g><g
       transform="translate(30.627,214.582)"
       id="g98"><path
         id="path100"
         style="fill:none;stroke:#666666;stroke-width:0.60000002;stroke-linecap:butt;stroke-linejoin:round;stroke-miterlimit:4;stroke-dasharray:none;stroke-opacity:1"
         d="M 0,0 H -4.699" /></g><g
       transform="translate(25.9281,278.5608)"
       id="g102"><path
         id="path104"
         style="fill:#666666;fill-opacity:1;fill-rule:nonzero;stroke:none"
         d="M 0,0 H 4.699 Z" /></g><g
       transform="translate(30.627,278.5605)"
       id="g106"><path
         id="path108"
         style="fill:none;stroke:#666666;stroke-width:0.60000002;stroke-linecap:butt;stroke-linejoin:round;stroke-miterlimit:4;stroke-dasharray:none;stroke-opacity:1"
         d="M 0,0 H -4.699" /></g><g
       transform="translate(25.9281,342.5391)"
       id="g110"><path
         id="path112"
         style="fill:#666666;fill-opacity:1;fill-rule:nonzero;stroke:none"
         d="M 0,0 H 4.699 Z" /></g><g
       transform="translate(30.627,342.5391)"
       id="g114"><path
         id="path116"
         style="fill:none;stroke:#666666;stroke-width:0.60000002;stroke-linecap:butt;stroke-linejoin:round;stroke-miterlimit:4;stroke-dasharray:none;stroke-opacity:1"
         d="M 0,0 H -4.699" /></g><g
       transform="translate(25.9281,406.5174)"
       id="g118"><path
         id="path120"
         style="fill:#666666;fill-opacity:1;fill-rule:nonzero;stroke:none"
         d="M 0,0 H 4.699 Z" /></g><g
       transform="translate(30.627,406.5176)"
       id="g122"><path
         id="path124"
         style="fill:none;stroke:#666666;stroke-width:0.60000002;stroke-linecap:butt;stroke-linejoin:round;stroke-miterlimit:4;stroke-dasharray:none;stroke-opacity:1"
         d="M 0,0 H -4.699" /></g><g
       transform="translate(63.6973,309.7178)"
       id="g126"><path
         id="path128"
         style="fill:none;stroke:#1f77b4;stroke-width:1.5;stroke-linecap:square;stroke-linejoin:round;stroke-miterlimit:4;stroke-dasharray:none;stroke-opacity:1"
         d="m 0,0 0.14,1.152 0.138,4.734 0.139,-0.575 0.557,4.926 0.278,-2.559 0.139,-1.28 0.418,5.31 0.138,0.064 0.279,-5.374 0.138,1.664 0.417,-0.768 0.418,-6.782 0.139,5.502 0.557,5.631 0.277,-2.688 0.14,1.6 0.417,1.407 0.278,-6.142 0.278,2.751 0.556,2.88 0.278,4.798 0.557,-0.064 0.138,1.215 0.14,-1.087 0.139,2.367 0.138,-2.943 0.418,1.471 0.139,5.311 0.278,-4.479 0.139,7.486 0.417,-0.448 0.14,-1.727 0.138,0.703 0.279,-1.983 0.417,0.832 0.139,0.639 0.278,3.135 0.139,-1.343 0.556,3.966 0.14,-1.151 0.278,6.206 0.417,3.518 0.139,5.887 0.278,-12.604 0.139,2.303 0.418,-1.791 0.138,-12.412 0.14,1.535 0.277,11.069 0.418,-1.344 0.278,-15.419 0.139,3.967 0.139,-8.829 0.417,0.32 0.418,5.566 0.556,-5.247 0.556,-20.537 0.417,-0.639 0.417,10.94 0.14,-1.536 0.417,0.448 0.278,6.462 0.277,-3.903 0.557,3.583 0.278,6.654 0.139,-0.831 0.418,-1.088 0.417,4.926 0.139,-0.192 0.417,-1.536 0.278,-3.39 0.14,1.344 0.138,-1.664 0.417,-1.408 0.14,-8.701 0.139,-0.512 0.138,1.728 0.14,4.862 0.556,-6.27 0.278,5.759 0.14,5.757 0.555,1.472 0.279,-3.647 0.138,-0.64 0.557,-13.563 0.278,5.118 0.139,-0.32 0.418,-6.59 0.139,0.064 0.138,-3.518 0.14,4.99 0.139,-3.775 0.417,3.583 0.139,2.815 0.417,-7.869 0.417,0.448 0.14,-4.095 0.138,-8.765 0.139,0.639 0.14,-6.845 0.555,-11.132 0.14,5.437 0.278,-2.878 0.417,1.919 0.139,4.67 0.278,-4.542 0.139,3.135 0.418,-0.639 0.277,-3.839 0.14,-0.512 0.139,-2.688 0.418,-2.046 0.277,-4.032 0.14,-9.916 0.555,6.908 0.14,-0.19 0.139,-1.92 0.139,5.949 0.139,-5.437 0.417,0.128 0.278,-2.367 0.139,-2.623 0.14,-7.358 0.417,4.799 0.138,-1.216 0.14,0.704 0.139,3.903 0.139,-0.64 0.417,2.175 0.279,-0.321 0.277,-1.47 0.418,2.301 0.277,-1.917 h 0.279 l 0.418,0.704 0.138,1.279 0.834,-4.223 0.14,1.791 0.138,-1.663 0.279,-6.334 0.556,-4.927 0.139,-3.518 0.139,-0.065 0.139,-4.093 0.556,-6.462 0.14,-0.448 0.138,0.767 0.14,-0.128 0.417,2.944 0.278,-2.431 0.139,0.766 0.139,-0.191 0.418,-3.071 0.277,-6.205 0.278,-2.367 0.418,-0.193 0.417,-12.093 0.139,3.328 0.417,-1.471 0.14,1.535 0.278,14.203 0.139,-5.437 0.556,-3.904 0.139,2.494 0.139,6.016 0.139,-3.327 0.417,-0.256 0.279,10.557 0.278,-5.183 0.556,7.934 0.139,-1.536 0.139,1.343 0.139,2.879 0.418,1.92 0.138,2.623 0.417,-11.964 0.418,4.926 0.278,-8.638 0.278,3.84 0.417,0.192 0.278,6.334 0.14,-0.577 0.138,2.688 0.417,1.151 0.14,-2.239 0.277,6.653 h 0.557 l 0.139,5.759 0.139,-2.239 h 0.139 l 0.14,-0.769 0.417,-4.605 0.138,0.766 0.14,2.305 0.139,-0.832 0.138,2.047 0.418,-0.959 0.139,-1.216 0.417,6.206 0.418,2.494 0.139,-3.901 0.417,9.147 0.417,2.177 0.278,-7.486 0.278,-4.352 0.417,2.113 0.14,1.599 0.139,3.776 0.138,-1.6 0.14,1.15 h 0.417 l 0.139,-1.15 0.139,1.407 0.139,-0.576 0.14,-1.855 0.417,1.792 0.138,-1.409 0.279,-4.862 0.138,-0.447 0.557,-6.206 0.278,1.726 0.139,-2.622 0.418,-4.478 0.138,3.839 0.139,-0.193 0.14,-0.447 0.138,3.007 0.417,-2.623 0.14,0.319 0.278,2.751 0.139,-0.319 0.417,0.959 0.278,-2.241 0.279,-1.597 0.417,0.191 0.138,0.703 0.835,9.726 0.139,-2.751 0.14,1.663 0.138,0.065 0.139,-2.879 0.418,0.382 0.139,2.048 0.138,-0.576 0.14,0.192 0.139,-0.833 0.418,-1.15 0.277,-3.518 0.14,1.023 0.138,-0.256 0.557,5.886 0.139,-1.791 0.139,0.062 0.696,-1.341 0.138,1.279 0.139,-0.194 0.557,0.96 0.556,5.824 0.417,-1.088 h 0.139 l 0.278,-0.512 0.139,0.191 0.556,-2.558 0.279,3.711 0.138,-1.153 0.417,0.833 0.14,0.704 0.834,-9.981 0.14,2.175 0.138,-1.279 0.14,-3.073 0.139,0.257 0.417,1.984 0.278,-4.16 0.139,-3.646 0.139,2.048 0.417,2.623 0.139,-2.495 0.14,1.598 0.278,-2.047 0.417,0.512 0.139,4.03 0.278,-1.982 0.139,2.495 0.556,3.455 0.139,0.896 0.278,-1.985 0.557,3.073 0.139,2.623 0.278,-3.648 0.417,-0.447 0.278,-0.897 0.14,3.328 0.139,-1.343 h 0.417 l 0.278,-1.216 0.139,0.064 0.139,-2.559 0.417,-0.704 0.417,-4.03 0.14,0.703 0.417,1.92 0.138,-2.56 0.14,0.832 0.139,-0.832 0.138,-2.111 0.418,0.192 0.139,-3.071 0.417,3.839 0.417,-0.45 0.278,2.623 0.696,8.063 0.139,-4.414 0.139,0.512 0.14,-0.065 0.138,1.153 0.557,0.254 0.139,-1.598 0.138,-4.799 0.14,-0.191 0.417,-7.23 0.278,3.519 0.139,-1.664 h 0.557 l 0.138,-0.512 0.14,0.256 0.139,-1.087 0.556,3.582 0.278,-4.35 0.278,3.775 0.417,1.151 0.14,-1.983 0.138,1.407 0.14,3.263 0.139,-1.665 0.556,3.009 0.279,-3.583 0.138,-0.767 0.557,3.07 0.417,-4.798 0.417,-0.896 0.278,0.192 0.278,3.327 0.417,3.069 0.556,-5.117 0.418,1.153 0.139,1.151 0.138,-2.561 0.14,0.322 0.139,-2.817 0.417,1.664 0.139,-0.319 0.139,2.11 0.14,-1.022 0.555,2.751 0.14,-0.192 0.139,1.536 0.139,-2.688 0.139,1.152 0.417,-1.28 0.14,0.193 0.138,0.638 0.279,-2.11 0.417,1.215 0.138,-0.703 0.418,0.895 0.417,0.128 0.279,-3.007 0.138,-0.767 0.139,1.663 0.418,-0.896 0.139,0.384 0.138,-0.128 0.14,1.728 h 0.556 l 0.278,2.814 0.14,0.193 0.138,0.895 h 0.557 l 0.139,3.327 0.139,-0.448 0.139,1.726 0.417,1.025 0.139,1.023 0.139,-0.382 h 0.139 l 0.556,5.885 0.279,-3.902 0.695,9.851 0.139,-3.837 0.139,0.382 0.139,1.217 0.139,-4.159 0.418,-1.791 0.277,3.07 0.14,0.703 0.555,-4.605 0.14,1.216 0.139,-3.648 0.139,-0.128 0.556,4.608 0.14,-1.408 0.138,3.199 0.279,-3.776 h 0.417 l 0.139,0.193 0.139,0.832 0.139,-0.066 0.139,0.514 0.417,-0.768 0.279,3.455 0.138,-1.919 0.14,1.023 0.417,1.472 0.278,-2.176 0.278,1.279 0.418,0.513 0.138,-3.199 0.139,0.192 0.14,-0.768 0.138,1.088 0.417,0.064 0.418,-0.704 0.139,0.704 h 0.417 l 0.278,-3.521 0.14,-2.877 0.138,1.664 0.557,-4.993 0.139,1.089 0.138,-0.384 0.14,1.984 0.417,1.854 0.278,-3.901 0.139,1.982 0.14,-1.535 0.417,-3.07 0.555,3.966 0.418,2.239 0.556,-1.663 0.417,2.176 0.278,-1.088 0.14,0.128 0.139,0.384 0.417,-0.512 0.139,0.512 0.139,-0.578 0.278,4.289 0.417,-1.538 0.14,0.898 0.139,2.685 0.138,-0.894 0.14,0.256 0.417,1.088 0.139,-1.088 0.139,0.766 0.139,2.495 0.14,-0.254 0.417,-0.128 0.138,0.128 0.417,-2.943 0.418,0.128 0.139,-0.192 0.139,0.96 0.139,-1.025 0.139,0.321 0.556,-2.496 0.139,0.768 0.14,-1.023 0.138,2.559 0.417,0.574 0.279,2.113 0.278,-1.856 0.417,-0.575 0.14,1.919 h 0.138 l 0.139,-0.641 0.557,2.369 0.556,-2.497 0.417,-0.447 0.139,-2.239 0.14,0.767 0.138,-1.854 0.139,1.343 0.418,0.576 0.139,-1.023 0.138,0.639 0.279,-3.008 0.556,0.513 0.139,-0.128 0.14,-1.983 0.138,0.832 0.417,-1.728 0.14,0.384 0.417,3.839 0.417,1.343 0.14,-3.072 0.277,1.985 0.14,0.128 0.417,0.767 0.138,-0.385 0.14,0.832 0.139,-0.447 h 0.139 l 0.417,-0.832 0.139,-1.217 0.14,0.513 0.138,-1.087 0.139,0.512 0.418,0.767 0.277,-1.279 0.14,-0.895 0.138,0.382 0.417,-0.382 0.418,-1.728 0.139,-1.792 0.417,-0.513 0.278,1.281 0.14,-1.535 0.139,0.064 h 0.556 l 0.139,1.215 0.139,-0.768 0.139,0.512 h 0.417 l 0.417,2.879 0.14,-0.384 0.417,-2.558 0.139,0.511 0.139,-0.385 0.139,0.193 0.139,1.344 0.556,0.767 0.139,-1.471 0.14,-0.064 0.138,0.704 0.417,0.703 0.14,1.984 0.139,0.064 0.139,-1.151 0.139,0.191 0.417,1.406 0.14,-0.766 0.138,0.766 0.14,-1.854 0.139,0.128 0.417,-0.447 0.139,0.447 0.139,-0.193 0.139,0.065 0.139,1.28 h 0.417 l 0.279,-1.345 0.695,3.711 0.139,-0.128 0.139,-0.382 0.277,1.598 0.418,0.575 0.139,-0.126 0.278,-0.706 0.139,2.113 0.417,-0.703 0.14,-0.512 0.138,0.319 0.14,-0.385 h 0.139 l 0.417,4.608 0.278,4.415 0.14,-2.751 0.138,3.069 0.417,-2.622 0.14,0.447 h 0.139 l 0.138,-2.302 0.14,1.727 0.417,2.944 6.814,-1.536 0.139,-2.175 0.14,-0.128 0.695,-2.432 0.277,1.536 h 0.14 l 0.139,3.519 h 0.417 l 0.139,0.576 0.279,-1.473 0.138,0.449 0.557,-1.152 0.139,-0.895 0.139,1.088 0.139,-0.065 0.417,0.193 0.417,-3.711 0.14,-2.688 0.417,-2.432 0.138,-3.005 0.14,-0.065 0.278,-15.804 0.417,4.415 0.279,0.959 0.138,3.329 0.139,-1.6 0.418,0.832 0.139,0.831 0.417,-5.502 0.417,-3.902 0.139,1.983 0.139,-2.623 0.278,2.815 0.417,-1.152 0.14,0.96 0.278,4.67 0.139,-0.767 0.417,-0.384 0.139,-0.449 0.139,-2.942 0.139,0.574 0.139,-1.725 0.417,-1.408 0.557,-8.381 0.417,0.256 0.417,9.724 0.139,1.278 0.418,0.066 0.138,-0.576 0.139,2.687 0.14,-2.943 0.138,0.96 0.417,0.448 0.279,3.838 0.139,-1.023 0.139,1.086 0.417,0.832 0.14,1.216 0.278,-3.711 0.139,-1.854 0.417,-1.408 0.139,-1.281 0.139,1.601 0.139,-1.151 0.139,-2.369 0.417,0.128 0.417,3.008 0.14,-1.407 0.417,-2.176 0.139,0.64 0.139,-0.64 0.139,-3.008 0.139,0.129 0.695,-4.927 0.14,2.75 0.695,-5.308 0.278,2.367 0.139,-0.064 0.417,1.664 0.14,-0.322 0.138,0.194 0.14,-2.56 0.138,0.704 0.557,-0.704 0.139,-1.791 0.278,2.175 0.417,1.15 0.139,-0.83 0.139,-1.855 0.139,1.983 0.14,-0.064 0.417,-1.6 0.278,-4.35 0.139,1.28 0.138,-1.729 0.557,4.352 0.278,-1.792 0.139,1.92 0.557,-0.576 0.278,-2.431 0.139,-1.92 0.417,-2.879 0.139,1.278 0.417,-8.891 0.417,1.791 0.14,-0.065 0.139,2.369 0.278,-3.391 0.417,-3.265 0.139,0.066 0.139,-0.704 0.279,4.031 0.417,-1.92 0.278,-6.975 0.139,2.049 0.138,-0.13 0.418,1.473 0.139,10.365 0.278,-5.31 0.139,0.895 h 0.557 l 0.278,-5.95 0.139,0.32 0.695,-4.734 0.139,0.96 0.139,-0.704 0.417,1.279 0.14,2.11 0.138,-0.574 0.139,1.087 0.14,-1.217 0.417,-1.662 0.138,0.065 0.14,0.831 0.139,2.943 0.556,-1.279 0.279,3.07 0.138,0.96 0.139,3.007 0.418,-2.56 0.417,6.078 0.139,-1.535 0.556,1.535 0.279,-4.734 0.555,-2.11 0.557,10.108 0.417,-3.199 0.14,2.686 0.138,-0.191 0.139,-1.983 0.14,3.646 0.417,0.513 0.278,-6.015 0.278,3.135 0.417,-1.343 0.139,-1.727 0.14,0.319 0.138,-0.959 0.139,-2.239 0.557,-1.792 0.138,2.111 0.279,-2.239 0.417,0.128 0.139,-3.839 0.139,1.536 0.139,-3.521 0.139,1.026 0.417,-0.193 0.14,1.791 0.138,-0.511 0.14,-2.113 0.139,1.729 0.417,-4.926 0.139,0.896 0.139,-1.728 0.139,3.839 h 0.556 l 0.557,2.814 0.417,-2.11 0.417,3.454 0.139,-0.063 0.418,-1.6 h 0.138 l 0.139,-0.256 0.278,1.344 0.417,1.535 0.14,-0.063 0.417,-5.568 0.417,0.065 0.14,0.832 0.277,-0.576 0.14,0.51 0.556,-1.791 0.139,0.322 0.139,-0.322 0.139,-0.766 0.417,1.726 0.139,1.791 0.14,-1.278 0.278,0.768 0.417,-0.768 0.417,-2.623 0.139,0.703 h 0.556 l 0.139,-0.128 0.278,1.535 0.417,0.129 0.278,0.574 0.14,0.833 0.139,2.496 0.417,0.639 0.139,1.088 0.139,-0.385 0.14,0.385 0.138,3.775 0.417,-0.705 0.14,0.257 0.139,-0.576 0.138,0.128 0.14,1.856 0.417,-0.833 0.139,1.216 0.139,-0.257 0.139,0.385 0.14,-1.791 0.417,-0.385 0.278,-0.704 0.139,-1.534 h 0.138 l 0.418,-0.513 0.139,0.641 0.278,-5.056 0.139,1.664 0.417,-0.063 0.14,0.448 0.138,-2.176 0.14,0.768 0.139,-0.384 0.417,-2.111 0.278,2.367 0.278,0.896 0.417,0.576 0.14,0.766 0.277,-1.087 0.14,0.385 0.556,2.879 0.139,-1.088 0.139,1.408 h 0.417 l 0.139,-0.384 0.279,2.367 0.277,0.894 0.14,-2.877 h 0.138 l 0.14,2.687 0.417,-2.943 0.139,2.495 0.139,-2.239 h 0.139 l 0.139,3.455 0.139,-0.32 0.279,0.256 0.138,0.768 0.557,-4.033 0.139,1.217 0.139,-0.895 0.139,-2.24 0.417,-0.32 0.14,0.32 0.277,1.472 0.14,-1.408 0.417,-1.215 0.417,4.095 0.139,0.639 0.417,-0.064 0.139,-0.513 0.14,-1.791 0.138,0.321 0.139,1.088 0.418,0.704 0.139,-0.193 0.138,-1.089 0.279,0.704 0.417,-0.894 0.278,3.773 0.278,-1.982 0.557,-0.575 0.139,-1.344 0.138,0.128 0.14,1.279 0.695,2.24 0.139,-1.216 0.695,1.92 0.14,-0.768 0.278,0.64 0.417,4.798 0.556,-13.948 0.418,-1.217 0.417,0.514 0.138,1.406 0.417,-1.087 0.14,0.065 0.139,-0.128 0.278,-4.031 0.417,-1.6 0.14,-1.472 0.417,6.783 0.417,1.855 0.278,-2.049 0.278,-1.15 0.417,-0.641 0.417,4.672 0.14,-1.024 0.417,-0.575 h 0.278 l 0.139,-0.512 0.139,-2.176 0.418,-0.319 0.277,-0.513 0.278,-1.472 0.417,2.048 0.557,-4.734 0.417,-0.065 0.14,1.088 0.417,-5.95 0.417,-0.959 0.139,3.135 0.278,-6.974 0.139,-1.407 0.417,0.447 0.278,-2.43 0.139,-2.369 0.14,5.759 0.417,-0.129 0.138,0.577 0.14,-1.471 0.139,0.128 0.138,2.239 0.418,-0.448 0.139,0.638 0.139,4.096 0.139,0.128 0.139,-0.384 0.417,-0.511 0.14,-2.688 0.278,3.902 0.139,-0.703 0.556,-5.566 0.139,1.088 0.139,2.751 0.139,-1.472 0.417,-0.256 0.14,-2.495 0.277,0.64 0.14,-0.384 0.417,-1.919 0.278,-2.751 0.279,1.663 0.555,-1.663 0.279,5.758 0.138,-1.728 0.557,3.007 0.139,2.11 0.139,-0.894 h 0.556 l 0.14,0.832 0.138,-0.128 0.279,1.6 0.417,0.128 0.278,-5.695 0.139,0.32 0.139,2.687 0.417,-0.128 0.278,-12.668 0.279,2.623 0.417,-1.727 0.138,1.342 0.279,-0.831 0.139,0.831 0.417,1.345 0.279,-2.495 0.138,1.088 0.139,4.414 0.418,0.832 0.277,-2.687 0.14,1.919 0.139,-2.624 0.417,-0.704 0.278,2.369 0.14,0.383 0.138,-1.023 0.417,0.447 0.14,-0.319 0.139,-1.472 0.278,1.472 0.417,-0.384 0.557,2.941 0.417,-0.254 0.138,0.254 0.14,-0.318 0.278,1.344 0.417,-0.448 0.556,4.734 0.418,-1.216 0.139,0.769 0.138,-2.048 0.14,0.32 0.139,-0.32 0.417,-1.663 0.278,2.047 0.139,0.064 0.139,-1.408 0.417,0.192 0.14,0.32 0.138,2.559 0.279,-2.559 0.417,-0.32 0.278,-1.217 0.139,0.257 0.139,-0.319 0.417,0.062 0.139,0.513 h 0.278 l 0.14,0.384 0.417,0.128 0.278,0.576 h 0.139 l 0.139,0.191 h 0.418 l 0.138,-0.319 0.417,0.704 0.417,0.192 0.14,0.576 0.139,-0.384 0.139,0.447 0.139,-0.447 0.557,-0.96 0.138,0.384 h 0.279 l 0.417,-0.193 0.278,0.257 0.139,0.959 0.139,-0.575 0.417,-0.064 0.279,1.151 0.138,-0.063 0.696,-1.152 0.139,0.896 0.278,4.99 0.418,-0.128 0.138,-1.151 0.139,0.831 0.14,2.302 0.138,-1.406 0.417,0.446 0.14,1.281 0.417,-1.984 0.417,0.385 0.278,-0.256 0.139,0.574 0.139,-0.446 0.417,-2.367 0.279,1.663 0.278,-1.088 0.417,-0.895 0.278,-1.088 0.139,-0.193 0.14,-0.96 0.417,1.281 0.138,0.895 0.14,2.432 0.695,-4.799 0.139,0.769 0.139,-0.578 0.139,0.322 0.139,2.173 0.417,-1.15 0.14,1.663 0.417,-3.008 0.417,-0.382 0.139,1.535 0.139,-0.128 0.139,0.128 0.139,-1.985 h 0.279 l 0.278,1.026 h 0.139 l 0.417,-0.96 h 0.139 l 0.139,-0.96 0.278,0.894 0.139,-0.51 0.278,0.128 h 0.139 l 0.14,-0.192 0.138,0.574 0.279,-0.382 0.138,-0.448 h 0.279 l 0.139,0.896 0.277,-0.128 0.279,1.983 h 0.278 l 0.278,1.472 0.139,-0.898 0.14,0.128 0.138,-0.638 0.417,-0.831 0.14,1.535 0.139,-0.128 0.138,0.319 0.14,-1.023 0.417,0.064 0.139,0.831 h 0.278 l 0.14,0.128 0.417,-0.063 0.417,-1.216 0.556,-0.64 0.139,0.321 0.278,-1.153 0.139,0.128 0.418,0.64 0.139,1.28 0.138,-0.064 0.14,1.599 h 0.417 l 0.139,-0.895 0.278,1.279 0.14,-0.641 0.138,1.473 h 0.279 l 0.555,2.879 0.14,-1.216 h 0.278 l 0.139,2.048 0.14,-0.128 0.277,3.967 0.14,-0.128 h 0.277 l 0.14,-0.129 0.138,-1.023 0.557,2.174 h 0.139 l 0.139,1.409 0.139,-0.384 0.417,2.495 h 0.278 l 0.14,-0.832 0.138,-5.054 0.557,5.438 h 0.139 l 0.138,-2.879 0.14,1.28 0.139,-0.256 0.139,0.192 0.139,0.639 0.417,-0.063 0.14,-0.448 0.277,-2.497 0.695,-4.349 0.279,1.663 0.139,1.088 h 0.279 l 0.138,-2.047 0.139,-0.065 0.14,-0.319 0.278,-9.342 0.417,1.92 0.139,2.56 0.139,-1.408 0.139,0.192 0.139,-1.088 0.418,1.856 0.138,-0.768 0.139,0.512 0.278,2.429 0.417,-0.51 0.14,1.92 0.139,-0.512 0.139,0.575 h 0.556 l 0.141,0.832 0.137,-0.064 0.139,0.32 0.14,-4.158 0.418,0.894 0.137,1.345 0.14,-0.064 0.139,0.064 0.139,-1.473 0.556,0.257 0.139,-0.639 0.139,0.063 0.14,0.704 0.417,0.384 0.138,-0.128 0.279,-3.264 0.138,0.129 0.418,-0.639 0.417,3.005 0.139,-0.254 0.417,-0.193 0.278,0.703 h 0.14 l 0.139,-0.96 0.417,0.578 0.139,1.855 0.139,-0.256 0.139,0.959 0.139,-0.641 0.417,0.578 0.139,-0.256 0.14,-0.832 0.278,1.919 0.417,-0.192 0.139,0.448 0.139,-0.32 0.139,-0.704 0.14,0.704 0.417,0.896 0.278,-0.512 0.139,-0.064 0.138,0.384 0.418,0.32 0.278,1.792 0.139,-0.513 0.139,-2.175 0.417,-0.704 0.278,1.6 0.14,-0.832 0.974,3.006 0.138,-0.96 0.417,0.385 0.139,0.703 h 0.139 l 0.139,-0.767 0.14,0.512 0.417,0.384 0.138,-1.024 0.418,1.536 0.696,-0.384 0.138,-1.727 0.139,0.191 0.418,1.024 0.139,-0.127 0.138,0.767 h 0.14 l 0.139,0.959 0.417,-0.256 0.139,0.575 0.139,-0.126 0.14,-0.449 0.138,0.065 0.417,-0.194 0.14,-0.19 0.277,0.894 0.14,-0.319 h 0.556 l 0.139,-0.385 0.139,-1.341 0.14,0.959 0.417,0.064 0.278,-1.216 0.139,0.128 0.139,-0.385 0.417,-0.703 0.139,-0.895 0.417,1.407 0.418,-0.191 0.139,-2.112 0.138,0.96 h 0.14 l 0.139,0.703 0.418,-1.023 0.138,0.576 0.139,-0.192 0.278,-0.832 h 0.417 l 0.14,0.32 0.277,2.495 0.14,-0.513 0.555,0.257 0.279,0.832 0.139,-0.512 0.139,0.064 h 0.278 l 0.279,0.576 0.278,1.152 0.417,-0.768 0.139,-0.832 0.139,1.664 h 0.139 l 0.139,-0.448 0.418,1.47 0.138,-0.575 0.139,1.024 0.14,-0.128 0.138,0.832 0.417,-0.256 0.279,0.832 0.139,-0.384 0.139,-1.088 0.695,2.687 0.139,-0.512 0.14,0.256 0.417,0.32 0.278,0.896 0.278,-0.96 0.417,0.192 0.139,-1.407 0.14,0.256 0.138,-0.321 0.14,-1.151 h 0.417 l 0.139,0.512 0.139,-1.153 0.139,1.153 0.139,-0.512 0.556,1.728 0.417,1.087 0.417,0.192 0.279,1.663 h 0.278 l 0.556,-1.023 0.139,0.254 0.278,-1.534 0.417,-0.639 0.139,-0.832 0.14,0.064 0.138,0.191 0.14,-0.639 h 0.417 l 0.139,3.711 0.278,-1.088 0.14,0.063 0.417,0.513 0.138,-0.32 0.14,1.023 0.139,-3.646 0.138,0.256 0.418,0.32 0.139,-0.128 0.417,1.535 0.417,0.319 0.278,-1.279 0.14,0.447 0.139,-0.319 0.417,-0.191 0.556,4.606 0.417,0.064 0.139,-1.152 0.14,0.128 0.278,-1.088 0.417,2.432 0.417,-4.159 0.141,0.256 0.416,-0.959 0.138,-1.41 0.14,1.857 0.14,-1.729 0.137,0.322 0.418,-0.768 0.139,0.896 0.139,-0.384 0.139,-2.239 0.139,0.32 0.417,0.191 0.139,1.534 0.139,0.066 0.14,-0.448 0.138,2.367 0.557,-0.064 0.277,-0.511 0.14,-1.216 0.556,1.023 0.139,1.407 0.139,0.065 h 0.557 l 0.138,-0.256 0.14,0.063 0.278,-1.151 0.556,-0.895 0.278,0.448 0.139,-0.193 0.418,1.856 0.139,-0.32 0.138,0.064 0.279,1.216 0.417,-0.769 0.278,1.92 0.14,-0.448 0.138,0.576 0.417,0.64 0.279,-0.319 0.138,-0.641 0.14,0.641 0.417,0.575 0.139,-0.193 0.139,0.321 0.139,-0.577 0.14,0.256 0.418,0.065 0.277,-1.6 0.278,-0.319 0.417,0.384 0.279,-1.216 0.138,0.064 0.139,0.896 0.418,-0.512 0.277,1.535 0.14,-0.576 0.555,0.319 0.279,0.897 0.139,-0.512 0.139,0.704 0.417,-0.639 0.14,-0.641 0.138,0.32 0.139,-0.064 0.14,-0.256 0.695,0.448 0.139,0.64 0.556,-1.407 0.279,0.767 0.278,-0.32 0.417,-0.384 0.139,0.576 0.139,-0.064 0.139,0.192 0.139,0.832 0.418,1.087 0.138,-0.385 0.139,0.194 0.14,-0.64 0.555,2.047 0.279,-0.128 0.139,0.768 0.139,-0.449 0.557,0.065 0.138,0.256 0.139,-1.153 0.14,-0.062 0.417,0.512 0.556,-1.088 0.417,0.895 0.279,1.728 h 0.138 l 0.14,0.832 0.417,-0.512 0.138,0.19 0.279,0.578 0.138,-1.024 0.418,-0.192 0.139,0.448 0.278,-1.28 0.139,0.384 0.417,-0.256 0.14,-0.384 0.278,1.022 0.139,-0.51 0.417,-0.064 0.278,1.216 0.139,0.062 0.139,-0.126 0.417,-0.192 0.139,-0.386 0.14,0.386 h 0.138 l 0.14,-0.768 0.417,-0.832 0.278,0.576 0.139,-0.384 0.14,0.256 0.417,-0.703 0.138,0.382 0.279,1.217 0.138,-0.13 0.557,0.45 0.139,-0.705 0.139,0.127 0.139,1.41 0.417,-0.321 0.14,0.193 0.138,0.703 0.14,-0.065 0.139,-0.256 0.417,-0.254 0.139,0.767 0.139,-0.128 0.139,0.192 0.139,0.96 0.417,0.192 0.279,-0.576 0.138,0.704 0.14,-0.256 0.417,-0.256 0.278,-1.28 0.139,0.448 0.139,-0.385 0.417,-0.575 0.139,0.768 h 0.14 l 0.138,-0.447 0.139,0.126 0.835,1.537 0.139,-0.768 0.417,0.319 0.139,0.577 0.417,-0.449 h 0.417 l 0.14,-0.128 0.139,-0.511 0.138,0.704 0.14,-0.447 0.556,-0.706 0.139,-0.063 0.139,-0.256 0.14,-1.855 0.417,0.128 0.138,0.768 0.418,-0.768 0.556,1.214 0.278,-0.446 0.557,0.768 0.417,-0.512 0.695,-1.472 0.417,-3.84 0.557,-1.982 0.139,0.896 0.138,-0.96 0.14,-2.687 0.417,0.318 0.139,0.578 0.278,-4.095 0.139,0.96 0.417,-2.879 0.139,1.279 0.14,-1.088 0.138,1.025 0.14,-0.129 0.417,-2.303 0.139,0.832 0.278,-1.408 0.139,-0.384 0.418,-1.983 0.277,-2.303 0.14,-0.897 0.138,2.047 0.557,-2.366 0.278,3.647 0.139,-0.577 0.417,1.601 0.278,-3.519 0.139,1.343 0.14,-0.511 h 0.555 l 0.279,-0.706 0.139,0.257 0.417,1.088 0.139,-0.513 0.14,0.385 0.138,-1.089 0.139,0.513 0.557,-0.831 0.278,0.896 0.139,-0.384 0.695,-0.896 0.141,0.32 h 0.554 l 0.14,-0.449 0.278,2.751 0.139,-0.256 0.417,1.025 0.139,-0.576 0.139,0.448 0.139,-0.192 0.139,0.896 0.556,1.087 0.14,-0.319 0.138,0.447 0.14,-0.831 0.417,-0.066 0.139,0.641 0.139,-0.128 0.278,2.688 0.418,-0.45 0.278,6.016 0.277,-4.224 0.418,-0.447 0.139,-0.767 0.278,1.343 0.139,-2.176 0.417,-1.023 0.278,2.047 0.14,-1.343 0.139,0.256 0.417,1.663 0.139,-0.385 0.139,0.065 0.695,-2.112 0.279,0.832 0.278,1.087 0.417,0.513 0.139,-0.128 0.139,-0.832 0.139,0.384 0.139,-0.512 0.418,1.664 0.278,-0.639 0.139,0.063 0.138,-1.023 0.557,-0.64 0.139,0.318 0.278,-1.47 0.417,1.152 0.14,-1.92 0.138,0.832 0.14,-0.256 0.138,-4.35 0.557,-1.663 0.277,-1.41 0.557,3.201 0.278,-2.432 0.139,-0.063 0.557,-0.96 0.278,2.303 0.139,-0.064 0.138,0.96 0.418,-0.512 0.139,-1.151 0.14,0.128 0.138,-0.256 0.139,-0.576 0.418,0.191 0.139,-0.512 0.138,0.128 0.279,-0.703 0.417,-0.32 0.139,0.256 0.279,1.792 0.138,0.191 0.417,1.407 0.279,-1.151 0.278,0.832 0.417,-0.576 0.278,-2.047 0.279,1.791 0.417,0.832 0.278,-1.857 0.139,0.641 0.138,-0.063 h 0.418 l 0.556,-3.904 0.418,-0.961 0.139,1.282 0.138,-0.768 0.14,0.447 h 0.139 l 0.695,-0.639 0.278,2.431 0.417,0.256 0.14,-1.536 0.138,0.319 0.279,2.113 0.417,0.51 0.138,-1.214 0.279,3.775 0.139,-0.385 0.417,2.238 0.139,-0.638 0.278,4.159 0.139,-1.088 0.418,-0.192 0.139,-1.471 0.278,1.407 0.139,1.024 0.418,0.382 0.138,0.513 0.279,-2.367 0.138,1.982 0.557,-0.51 0.139,0.832 0.139,-0.832 0.139,0.448 0.417,0.128 0.278,2.175 0.139,1.664 0.14,-0.576 0.695,-1.792 0.278,-2.943 0.417,-1.663 0.139,2.11 0.141,-1.214 0.137,2.239 0.139,-2.048 0.418,-0.641 0.139,0.194 0.278,-1.088 0.139,-2.175 0.417,-1.664 0.139,-1.151 0.139,0.128 0.278,-1.792 0.417,0.448 0.14,0.832 0.138,-1.28 0.14,1.983 0.139,-0.959 0.417,2.623 0.139,-0.512 0.139,1.406 0.139,-1.086 0.139,0.576 0.417,1.151 0.139,0.832 0.278,5.374 0.14,0.96 0.834,0.831 0.139,1.216 0.418,-2.751 0.138,-4.414 0.139,1.854 0.278,-4.287 0.418,1.409 0.139,1.536 0.139,0.063 0.139,-3.07 h 0.139 l 0.417,-2.176 0.14,1.92 0.138,-1.024 0.279,3.711 0.417,-0.706 0.278,-2.173 0.139,1.407 0.139,-1.728 0.417,1.535 0.139,1.216 0.418,-1.279 0.417,-0.384 0.417,1.216 0.139,-1.023 0.417,-1.41 0.139,1.473 0.278,-1.279 0.139,0.256 0.418,0.704 0.139,-0.256 0.138,0.128 0.279,2.047 0.417,-1.216 0.139,0.256 0.139,4.287 0.14,-2.817 0.138,0.832 0.417,-0.704 0.417,-2.301 0.14,0.254 0.417,-0.063 0.139,-0.319 0.139,0.575 0.834,-1.663 0.279,0.256 0.138,-1.344 0.418,-0.832 0.417,1.792 0.139,-1.472 0.418,1.152 0.139,-1.408 0.278,2.622 0.139,-1.088 0.417,-0.638 0.278,0.895 0.14,0.128 h 0.555 l 0.557,-2.43 0.417,0.447 0.14,-0.897 0.138,0.704 0.139,-0.382 0.14,0.128 h 0.416 l 0.279,-1.088 0.277,1.151 0.418,-0.959 0.139,0.575 0.278,-1.088 0.139,0.703 0.418,-0.446 0.555,3.007 0.417,0.318 0.14,-0.959 0.417,2.816 0.417,-0.128 0.14,-0.191 0.138,-1.025 0.279,1.151 0.417,0.065 0.278,-1.919 0.139,1.088 h 0.139 l 0.417,-0.832 0.139,0.576 0.14,-0.448 0.138,0.128 0.139,-0.512 0.557,0.447 0.278,-0.511 h 0.139 l 0.418,-0.577 0.138,1.025 h 0.139 l 0.14,0.832 0.138,-0.256 0.417,0.703 0.14,-0.128 0.139,-0.447 0.278,1.853 0.417,0.386 0.14,-0.448 0.138,0.96 0.139,-0.769 0.14,0.385 0.555,0.256 0.278,-1.025 0.14,-1.342 0.556,0.447 0.139,0.576 0.139,-0.704 0.139,0.256 0.418,0.32 0.417,1.28 0.138,-0.512 0.557,-0.512 0.139,0.64 h 0.139 l 0.139,0.128 0.557,0.895 0.138,1.728 0.279,0.128 0.417,-0.449 0.139,0.193 0.139,1.088 h 0.139 l 0.139,0.895 0.417,0.065 0.557,-1.728 0.417,0.575 0.278,4.991 0.278,2.367 0.556,-1.281 0.139,1.473 h 0.14 l 0.138,-0.96 0.418,-1.407 0.139,1.919 0.139,-0.768 0.139,-2.239 0.139,0.576 0.417,4.095 0.278,-2.239 0.14,0.191 0.139,0.704 0.417,-0.832 0.139,0.384 0.278,-0.703 0.139,0.703 0.417,-0.256 0.139,2.751 0.139,-0.063 0.139,0.191 0.14,-0.575 0.417,0.256 0.138,0.382 0.14,2.497 0.277,-1.537 0.418,-0.832 0.139,0.194 0.139,-0.449 0.278,-1.471 0.418,-0.193 0.556,4.736 0.417,0.256 0.556,-3.328 0.417,-0.32 0.14,0.256 0.139,1.92 0.278,-1.344 0.417,-0.257 0.278,-0.447 0.279,2.56 0.417,-0.45 0.138,-0.703 0.14,0.703 0.139,-1.085 0.138,0.959 0.418,-0.833 0.278,-1.792 0.139,0.513 0.139,-1.344 0.417,0.385 0.278,-0.832 0.14,0.128 0.695,2.751 0.417,4.095 h 0.557 l 0.137,-0.128 0.14,0.256 0.14,-0.194 0.555,-2.366 0.14,0.193 0.139,-0.384 0.139,0.063 0.417,-0.767 0.279,1.47 0.138,-0.447 0.139,0.257 0.418,-0.385 0.556,6.143 0.418,-0.065 0.277,4.479 0.278,-2.303 0.417,-0.576 0.14,-0.769 0.139,2.561 0.139,-0.066 0.139,-1.982 0.417,0.704 0.14,-1.727 0.417,2.751 0.417,1.599 0.138,2.623 0.279,-2.239 0.139,-0.128 0.417,2.303 0.279,-2.047 0.277,1.6 0.418,-1.152 0.139,3.325 0.138,-0.318 0.14,-0.704 0.14,0.96 0.555,2.111 0.139,1.087 0.139,3.07 h 0.139 l 0.417,-0.254 0.14,2.046 0.138,-1.407 0.279,-0.063 0.417,-0.704 0.139,3.071 0.139,7.037 0.139,-1.983 0.139,1.727 0.417,2.432 0.139,4.414 0.14,-4.414 0.138,1.919 0.696,0.064 0.278,-4.223 0.139,2.24 0.556,2.429 0.139,0.322 0.14,1.023 0.138,2.238 0.418,0.322 0.139,-1.6 0.139,0.96 0.278,-5.375 0.417,-1.023 0.278,2.302 0.279,1.919 0.417,0.257 0.417,-4.03 0.139,0.384 0.417,3.839 0.139,-0.128 0.418,6.653 h 0.417 l 0.139,-1.983 0.278,6.27 0.139,-0.32 0.418,1.983 0.277,2.879 0.14,1.791 0.138,-1.854 0.417,1.983 0.14,-0.064 0.138,-2.944 0.14,-5.949 0.556,7.805 0.139,-2.303 0.279,1.472 0.138,-1.153 0.417,-2.111 0.14,-2.175 0.139,1.024 0.278,-4.992 0.417,0.45 0.139,-2.304 0.418,5.63 0.555,-0.512 0.14,1.472 0.139,-1.6 0.138,-0.063 0.557,0.703 0.278,3.711 0.139,0.128 0.557,2.239 0.138,1.726 0.279,-1.662 0.417,-0.832 0.139,0.96 0.417,6.334 0.417,2.047 0.14,-1.855 0.139,1.536 0.138,-0.322 0.14,-1.086 0.417,-0.512 0.278,4.671 0.139,-0.96 0.14,0.256 0.555,-1.024 0.14,-0.704 0.277,3.135 0.557,1.726 0.278,-1.087 0.557,3.2 0.417,12.092 0.555,5.886 0.14,-4.031 0.278,3.071 0.139,-0.448 0.417,-6.014 0.14,0.128 0.138,1.28 0.696,31.029 0.278,-14.523 0.139,-25.911 0.139,6.846 0.417,6.142 0.139,-4.542 0.278,11.451 0.557,2.88 0.277,-14.012 0.279,6.206 0.417,1.023 0.139,-2.495 0.279,2.304 0.138,5.246 0.417,-1.408 0.279,-15.866 0.278,5.822 0.417,-11.452 0.14,4.542 0.138,-0.128 0.139,3.007 0.141,-0.192 0.416,-4.543 0.278,3.904 1.112,-25.529 0.139,9.342 0.418,0.959 0.138,2.176 0.279,12.731 0.137,-0.383 0.418,6.398 0.279,-4.927 0.139,-4.671 0.139,0.704 0.417,-1.151 0.14,3.391 0.278,9.341 0.139,-4.542 0.556,-3.904 0.139,-1.983 0.278,7.742 0.417,0.831 0.139,0.64 0.14,-6.782 0.278,3.967 0.417,3.647 0.139,-4.479 0.417,20.537 0.418,6.27 0.138,-1.663 0.139,1.855 0.14,-0.959 0.138,2.687 0.417,1.599 h 0.279 l 0.278,-1.279 0.417,0.191 0.278,2.112 0.14,-12.668 0.139,2.943 0.418,-9.277 0.138,3.775 0.139,-5.182 0.139,0.511 0.139,4.159 0.417,-1.216 0.139,0.512 0.418,14.076 0.417,-2.495 0.137,4.67 0.418,-7.998 0.418,-7.421 0.139,3.967 0.139,-2.112 0.278,-6.781 0.695,10.94 0.14,-1.408 0.139,-7.037 0.417,0.192 0.139,-10.812 0.139,1.598 0.14,-7.357 0.138,4.031 0.417,-2.623 0.279,3.007 0.138,-10.621 0.557,2.815 0.139,2.623 0.278,12.989 0.14,3.774 0.417,5.438 0.138,-1.279 0.14,-5.055 0.139,7.23 0.556,-6.334 0.139,0.256 0.139,-0.32 0.139,2.943 0.556,-5.886 0.14,-4.478 0.138,3.326 0.279,-6.205 0.417,1.791 0.418,8.445 0.138,-4.606 0.557,3.134 0.417,16.635 0.417,-1.791 0.417,19.129 0.139,-4.734 0.417,1.471 0.139,1.216 0.14,2.943 0.138,-3.647 h 0.557 l 0.139,4.095 0.278,-1.536 0.139,-9.149 0.417,3.391 0.139,-0.704 0.139,-3.262 0.14,-6.846 0.138,3.199 0.417,0.832 0.279,10.044 0.139,-2.559 0.139,-5.63 0.417,-3.775 0.278,6.014 0.279,-6.206 0.417,1.344 0.138,1.215 0.14,6.27 0.278,-5.758 0.417,0.704 0.139,-0.704 0.14,0.32 0.138,-1.472 0.139,-5.31 0.418,-4.606 0.139,5.246 0.278,-3.711 0.139,3.391 0.417,4.415 0.278,-2.432 0.278,1.536 0.417,-0.192 0.14,0.576 0.139,-1.024 0.278,2.239 0.695,13.628 0.277,-7.102 0.418,4.031 0.279,-2.623 0.138,-3.199 0.14,2.367 0.417,2.751 0.139,-1.599 0.278,11.068 0.139,3.199 0.418,1.663 0.138,-3.71 0.139,-0.064 0.14,-4.415 0.138,7.102 0.418,0.703 0.139,5.247 0.417,-9.725 0.417,0.832 0.14,-3.327 0.138,0.512 0.14,9.404 0.834,-7.485 0.139,1.664 0.556,-11.708 0.139,2.559 0.14,-1.216 0.138,-5.886 0.14,-0.128 0.417,3.839 0.556,-9.405 0.419,4.734 0.137,-2.687 0.279,6.718 0.138,-0.896 0.417,-7.23 0.14,0.256 0.139,1.92 0.139,0.064 0.139,-2.879 0.417,-0.448 0.138,10.94 0.14,-2.879 0.14,1.024 0.138,-0.384 0.416,4.159 0.28,-10.109 0.278,6.846 0.695,-8.446 0.139,2.752 0.14,-2.111 0.417,-3.647 0.138,2.047 0.417,-13.436 0.418,3.007 0.139,-5.63 0.139,0.768 0.278,11.452 0.417,-1.855 0.278,13.755 0.279,-2.687 0.417,0.32 0.139,-1.727 0.139,-5.823 0.14,4.415 0.138,-3.007 0.417,0.96 0.279,5.63 0.278,-4.542 0.417,2.175 0.139,-0.768 0.139,-4.607 0.139,0.96 0.14,-0.64 0.417,0.576 0.138,-5.182 0.14,1.727 0.277,-3.454 0.418,-2.944 0.139,0.32 0.139,3.775 0.139,-0.576 0.139,4.095 0.556,-1.28 0.139,4.671 0.14,-0.64 0.137,1.343 0.558,-7.805 0.139,4.734 0.139,-0.319 0.139,1.599 0.417,1.216 0.14,-1.216 0.138,-2.943 0.139,3.775 0.14,-6.718 0.417,5.63 0.278,10.045 0.139,1.727 0.139,-1.151 0.417,-0.832 0.139,-2.943 h 0.278 l 0.139,3.966 0.557,-13.243 0.278,-1.535 0.139,3.966 0.417,-4.798 0.139,2.047 0.139,-3.199 0.14,3.903 0.138,-2.943 0.417,-0.384 0.14,-1.856 0.417,10.173 0.417,-1.599 0.14,-1.664 0.138,0.576 0.279,-4.094 0.555,1.791 0.279,-5.822 0.139,0.959 0.417,-4.286 0.139,0.96 0.14,2.623 0.277,-2.879 0.418,-0.96 0.138,0.896 0.279,7.037 0.138,-0.703 0.696,9.085 0.139,-0.449 0.139,-0.191 0.557,-9.085 0.138,0.512 0.139,-4.223 0.14,0.064 0.417,-0.512 0.139,-1.024 0.139,3.007 0.139,-0.192 0.139,-2.431 0.417,-0.895 0.139,5.246 0.14,-1.152 0.278,-12.795 0.556,-23.289 0.139,-19.257 0.139,6.844 0.557,-5.502 0.277,12.54 0.14,-1.214 0.138,-6.143 0.417,4.351 0.14,3.965 0.139,-3.837 0.139,6.334 0.139,-0.577 0.557,16.316 0.138,4.03 0.14,-0.384 h 0.556 l 0.278,-11.58 0.278,15.612 0.417,-2.048 0.139,-9.725 0.278,7.485 0.14,-1.791 0.555,-3.327 0.14,-0.128 0.277,-7.805 0.417,2.431 0.279,-2.239 0.139,3.455 0.139,-1.216 0.417,-1.855 0.14,-3.455 0.278,1.983 0.556,9.725 0.139,-2.431 0.139,8.253 0.14,-0.448 0.138,1.344 0.417,1.343 0.14,-0.064 0.277,-2.175 0.14,0.896 0.417,-2.751 0.139,7.037 0.139,0.064 0.139,0.832 0.14,6.59 0.555,-4.799 0.14,2.752 0.277,-5.887 0.418,1.088 0.139,3.967 0.139,-0.192 0.139,10.94 0.139,-1.983 0.417,2.367 0.14,5.694 0.138,-0.128 0.14,-1.407 0.139,-2.879 0.695,19.385 0.139,-2.175 0.556,14.907 0.417,-7.038 0.14,2.559 0.417,2.112 0.139,1.855 0.139,-5.054 0.139,-14.523 0.138,7.741 0.418,-10.556 0.139,2.879 0.14,0.127 0.137,4.479 0.14,-6.142 0.418,-8.701 0.277,7.613 0.14,-4.094 0.139,4.67 0.417,-1.023 0.139,4.542 0.139,-0.32 0.14,-2.431 0.138,0.192 0.417,1.92 0.417,-8.19 0.14,0.256 0.557,6.846 0.417,-5.63 0.695,19.001 0.139,-1.599 0.139,7.358 0.417,-5.503 0.139,-5.886 0.278,6.398 0.139,-8.829 0.418,-1.919 0.139,-1.664 0.138,2.623 0.14,7.741 0.139,-1.023 0.417,14.075 0.139,-4.35 0.139,1.279 0.278,-12.732 0.417,-10.172 0.14,9.277 0.139,-8.637 0.139,1.855 0.139,-3.967 0.417,9.981 0.139,-5.886 0.139,0.896 0.139,-2.687 0.139,3.327 0.416,-0.576 0.14,-0.96 0.14,0.704 0.278,-7.613 0.417,1.023 0.139,-4.159 0.139,3.391 0.278,-5.502 0.418,0.576 0.277,-9.085 0.14,3.966 0.138,8.382 0.417,-10.492 0.14,1.407 0.139,-6.654 0.278,4.351 0.417,-0.256 0.418,14.779 0.139,-3.583 0.417,7.23 0.278,-2.687 0.139,-1.344 0.556,9.405 0.139,-4.799 0.14,3.519 0.138,-5.374 0.14,2.495 0.417,3.263 0.139,2.431 0.139,-0.064 0.278,3.263 0.418,6.462 0.138,-1.791 0.139,4.414 0.14,-3.519 0.138,7.102 0.557,-3.455 0.14,0.832 0.138,7.678 0.139,-2.432 0.417,2.175 0.139,7.614 0.139,-2.495 0.139,1.087 0.139,-5.566 0.417,-1.215 0.14,1.663 0.276,6.59 0.558,7.869 0.139,-2.559 0.139,-5.182 0.139,3.263 0.557,6.334 0.138,-4.543 0.417,12.476 0.418,-2.495 0.139,0.832 0.417,-18.618 0.417,-0.704 0.14,9.341 0.138,-1.152 0.279,8.637 0.417,-6.845 0.139,1.215 0.139,-0.448 0.139,4.287 0.139,-6.398 0.417,-0.512 0.279,29.303 0.138,-1.024 0.14,5.886 0.417,2.623 0.139,-2.239 0.139,6.845 0.139,-3.646 0.14,8.061 0.417,-3.199 0.278,-9.149 0.139,1.472 0.138,-5.822 0.418,3.518 0.278,7.55 0.278,-11.9 0.417,-1.024 0.14,7.806 0.138,-5.631 0.278,9.917 0.417,0.704 0.279,15.355 0.138,2.431 0.14,5.886 0.417,-3.071 0.139,-5.246 0.139,8.893 0.279,-6.526 0.417,5.694 0.138,-9.021 0.14,1.088 0.139,-7.87 0.139,8.766 0.417,0.767 0.139,1.28 0.14,3.199 0.138,-0.512 h 0.557 l 0.139,11.324 0.278,-4.862 0.139,1.152 0.417,5.31 0.139,-4.031 0.139,-0.192 0.278,3.839" /></g><g
       id="g130"><g
         clip-path="url(#clipPath136)"
         id="g132"><g
           id="g138"><g
             id="g140" /><g
             id="g168"><g
               style="opacity:0.16000402"
               id="g166"
               clip-path="url(#clipPath144)"><g
                 id="g156"><g
                   id="g154"
                   clip-path="url(#clipPath148)"><g
                     id="g152"
                     transform="translate(50.0693,154.541)"><path
                       id="path150"
                       style="fill:none;stroke:#000000;stroke-width:0.40000001;stroke-linecap:square;stroke-linejoin:round;stroke-miterlimit:4;stroke-dasharray:none;stroke-opacity:1"
                       d="M 0,0 V 2.5" /></g></g></g><g
                 id="g160"
                 transform="translate(50.0693,161.9766)"><path
                   id="path158"
                   style="fill:none;stroke:#000000;stroke-width:0.40000001;stroke-linecap:square;stroke-linejoin:round;stroke-miterlimit:4;stroke-dasharray:4.935, 4.935;stroke-dashoffset:0;stroke-opacity:1"
                   d="M 0,0 V 273.91" /></g><g
                 id="g164"
                 transform="translate(50.0693,438.354)"><path
                   id="path162"
                   style="fill:none;stroke:#000000;stroke-width:0.40000001;stroke-linecap:square;stroke-linejoin:round;stroke-miterlimit:4;stroke-dasharray:none;stroke-opacity:1"
                   d="M 0,0 V 2.5" /></g></g></g></g><g
           id="g170"><g
             id="g172" /><g
             id="g200"><g
               style="opacity:0.16000402"
               id="g198"
               clip-path="url(#clipPath176)"><g
                 id="g196"><g
                   id="g194"
                   clip-path="url(#clipPath180)"><g
                     id="g184"
                     transform="translate(151.7266,154.541)"><path
                       id="path182"
                       style="fill:none;stroke:#000000;stroke-width:0.40000001;stroke-linecap:square;stroke-linejoin:round;stroke-miterlimit:4;stroke-dasharray:none;stroke-opacity:1"
                       d="M 0,0 V 2.5" /></g><g
                     id="g188"
                     transform="translate(151.7266,161.9766)"><path
                       id="path186"
                       style="fill:none;stroke:#000000;stroke-width:0.40000001;stroke-linecap:square;stroke-linejoin:round;stroke-miterlimit:4;stroke-dasharray:4.935, 4.935;stroke-dashoffset:0;stroke-opacity:1"
                       d="M 0,0 V 273.91" /></g><g
                     id="g192"
                     transform="translate(151.7266,438.354)"><path
                       id="path190"
                       style="fill:none;stroke:#000000;stroke-width:0.40000001;stroke-linecap:square;stroke-linejoin:round;stroke-miterlimit:4;stroke-dasharray:none;stroke-opacity:1"
                       d="M 0,0 V 2.5" /></g></g></g></g></g></g><g
           id="g202"><g
             id="g204" /><g
             id="g232"><g
               style="opacity:0.16000402"
               id="g230"
               clip-path="url(#clipPath208)"><g
                 id="g228"><g
                   id="g226"
                   clip-path="url(#clipPath212)"><g
                     id="g216"
                     transform="translate(253.2461,154.541)"><path
                       id="path214"
                       style="fill:none;stroke:#000000;stroke-width:0.40000001;stroke-linecap:square;stroke-linejoin:round;stroke-miterlimit:4;stroke-dasharray:none;stroke-opacity:1"
                       d="M 0,0 V 2.5" /></g><g
                     id="g220"
                     transform="translate(253.2461,161.9766)"><path
                       id="path218"
                       style="fill:none;stroke:#000000;stroke-width:0.40000001;stroke-linecap:square;stroke-linejoin:round;stroke-miterlimit:4;stroke-dasharray:4.935, 4.935;stroke-dashoffset:0;stroke-opacity:1"
                       d="M 0,0 V 273.91" /></g><g
                     id="g224"
                     transform="translate(253.2461,438.354)"><path
                       id="path222"
                       style="fill:none;stroke:#000000;stroke-width:0.40000001;stroke-linecap:square;stroke-linejoin:round;stroke-miterlimit:4;stroke-dasharray:none;stroke-opacity:1"
                       d="M 0,0 V 2.5" /></g></g></g></g></g></g><g
           id="g234"><g
             id="g236" /><g
             id="g264"><g
               style="opacity:0.16000402"
               id="g262"
               clip-path="url(#clipPath240)"><g
                 id="g252"><g
                   id="g250"
                   clip-path="url(#clipPath244)"><g
                     id="g248"
                     transform="translate(354.9043,154.541)"><path
                       id="path246"
                       style="fill:none;stroke:#000000;stroke-width:0.40000001;stroke-linecap:square;stroke-linejoin:round;stroke-miterlimit:4;stroke-dasharray:none;stroke-opacity:1"
                       d="M 0,0 V 2.5" /></g></g></g><g
                 id="g256"
                 transform="translate(354.9043,161.9766)"><path
                   id="path254"
                   style="fill:none;stroke:#000000;stroke-width:0.40000001;stroke-linecap:square;stroke-linejoin:round;stroke-miterlimit:4;stroke-dasharray:4.935, 4.935;stroke-dashoffset:0;stroke-opacity:1"
                   d="M 0,0 V 273.91" /></g><g
                 id="g260"
                 transform="translate(354.9043,438.354)"><path
                   id="path258"
                   style="fill:none;stroke:#000000;stroke-width:0.40000001;stroke-linecap:square;stroke-linejoin:round;stroke-miterlimit:4;stroke-dasharray:none;stroke-opacity:1"
                   d="M 0,0 V 2.5" /></g></g></g></g><g
           id="g266"><g
             id="g268" /><g
             id="g296"><g
               style="opacity:0.16000402"
               id="g294"
               clip-path="url(#clipPath272)"><g
                 id="g292"><g
                   id="g290"
                   clip-path="url(#clipPath276)"><g
                     id="g280"
                     transform="translate(456.4229,154.541)"><path
                       id="path278"
                       style="fill:none;stroke:#000000;stroke-width:0.40000001;stroke-linecap:square;stroke-linejoin:round;stroke-miterlimit:4;stroke-dasharray:none;stroke-opacity:1"
                       d="M 0,0 V 2.5" /></g><g
                     id="g284"
                     transform="translate(456.4229,161.9766)"><path
                       id="path282"
                       style="fill:none;stroke:#000000;stroke-width:0.40000001;stroke-linecap:square;stroke-linejoin:round;stroke-miterlimit:4;stroke-dasharray:4.935, 4.935;stroke-dashoffset:0;stroke-opacity:1"
                       d="M 0,0 V 273.91" /></g><g
                     id="g288"
                     transform="translate(456.4229,438.354)"><path
                       id="path286"
                       style="fill:none;stroke:#000000;stroke-width:0.40000001;stroke-linecap:square;stroke-linejoin:round;stroke-miterlimit:4;stroke-dasharray:none;stroke-opacity:1"
                       d="M 0,0 V 2.5" /></g></g></g></g></g></g><g
           id="g298"><g
             id="g300" /><g
             id="g328"><g
               style="opacity:0.16000402"
               id="g326"
               clip-path="url(#clipPath304)"><g
                 id="g316"><g
                   id="g314"
                   clip-path="url(#clipPath308)"><g
                     id="g312"
                     transform="translate(558.0811,154.541)"><path
                       id="path310"
                       style="fill:none;stroke:#000000;stroke-width:0.40000001;stroke-linecap:square;stroke-linejoin:round;stroke-miterlimit:4;stroke-dasharray:none;stroke-opacity:1"
                       d="M 0,0 V 2.5" /></g></g></g><g
                 id="g320"
                 transform="translate(558.0811,161.9766)"><path
                   id="path318"
                   style="fill:none;stroke:#000000;stroke-width:0.40000001;stroke-linecap:square;stroke-linejoin:round;stroke-miterlimit:4;stroke-dasharray:4.935, 4.935;stroke-dashoffset:0;stroke-opacity:1"
                   d="M 0,0 V 273.91" /></g><g
                 id="g324"
                 transform="translate(558.0811,438.354)"><path
                   id="path322"
                   style="fill:none;stroke:#000000;stroke-width:0.40000001;stroke-linecap:square;stroke-linejoin:round;stroke-miterlimit:4;stroke-dasharray:none;stroke-opacity:1"
                   d="M 0,0 V 2.5" /></g></g></g></g><g
           id="g330"><g
             id="g332" /><g
             id="g360"><g
               style="opacity:0.16000402"
               id="g358"
               clip-path="url(#clipPath336)"><g
                 id="g356"><g
                   id="g354"
                   clip-path="url(#clipPath340)"><g
                     id="g344"
                     transform="translate(659.6006,154.541)"><path
                       id="path342"
                       style="fill:none;stroke:#000000;stroke-width:0.40000001;stroke-linecap:square;stroke-linejoin:round;stroke-miterlimit:4;stroke-dasharray:none;stroke-opacity:1"
                       d="M 0,0 V 2.5" /></g><g
                     id="g348"
                     transform="translate(659.6006,161.9766)"><path
                       id="path346"
                       style="fill:none;stroke:#000000;stroke-width:0.40000001;stroke-linecap:square;stroke-linejoin:round;stroke-miterlimit:4;stroke-dasharray:4.935, 4.935;stroke-dashoffset:0;stroke-opacity:1"
                       d="M 0,0 V 273.91" /></g><g
                     id="g352"
                     transform="translate(659.6006,438.354)"><path
                       id="path350"
                       style="fill:none;stroke:#000000;stroke-width:0.40000001;stroke-linecap:square;stroke-linejoin:round;stroke-miterlimit:4;stroke-dasharray:none;stroke-opacity:1"
                       d="M 0,0 V 2.5" /></g></g></g></g></g></g><g
           id="g362"><g
             id="g364" /><g
             id="g388"><g
               style="opacity:0.16000402"
               id="g386"
               clip-path="url(#clipPath368)"><g
                 id="g384"><g
                   id="g382"
                   clip-path="url(#clipPath372)"><g
                     id="g376"
                     transform="translate(30.627,214.582)"><path
                       id="path374"
                       style="fill:none;stroke:#000000;stroke-width:0.40000001;stroke-linecap:square;stroke-linejoin:round;stroke-miterlimit:4;stroke-dasharray:none;stroke-opacity:1"
                       d="M 0,0 H 2.5" /></g><g
                     id="g380"
                     transform="translate(38.1104,214.582)"><path
                       id="path378"
                       style="fill:none;stroke:#000000;stroke-width:0.40000001;stroke-linecap:square;stroke-linejoin:round;stroke-miterlimit:4;stroke-dasharray:4.983, 4.983;stroke-dashoffset:0;stroke-opacity:1"
                       d="M 0,0 H 715.069" /></g></g></g></g></g></g><g
           id="g390"><g
             id="g392" /><g
             id="g416"><g
               style="opacity:0.16000402"
               id="g414"
               clip-path="url(#clipPath396)"><g
                 id="g412"><g
                   id="g410"
                   clip-path="url(#clipPath400)"><g
                     id="g404"
                     transform="translate(30.627,278.5605)"><path
                       id="path402"
                       style="fill:none;stroke:#000000;stroke-width:0.40000001;stroke-linecap:square;stroke-linejoin:round;stroke-miterlimit:4;stroke-dasharray:none;stroke-opacity:1"
                       d="M 0,0 H 2.5" /></g><g
                     id="g408"
                     transform="translate(38.1104,278.5605)"><path
                       id="path406"
                       style="fill:none;stroke:#000000;stroke-width:0.40000001;stroke-linecap:square;stroke-linejoin:round;stroke-miterlimit:4;stroke-dasharray:4.983, 4.983;stroke-dashoffset:0;stroke-opacity:1"
                       d="M 0,0 H 715.069" /></g></g></g></g></g></g><g
           id="g418"><g
             id="g420" /><g
             id="g444"><g
               style="opacity:0.16000402"
               id="g442"
               clip-path="url(#clipPath424)"><g
                 id="g440"><g
                   id="g438"
                   clip-path="url(#clipPath428)"><g
                     id="g432"
                     transform="translate(30.627,342.5391)"><path
                       id="path430"
                       style="fill:none;stroke:#000000;stroke-width:0.40000001;stroke-linecap:square;stroke-linejoin:round;stroke-miterlimit:4;stroke-dasharray:none;stroke-opacity:1"
                       d="M 0,0 H 2.5" /></g><g
                     id="g436"
                     transform="translate(38.1104,342.5391)"><path
                       id="path434"
                       style="fill:none;stroke:#000000;stroke-width:0.40000001;stroke-linecap:square;stroke-linejoin:round;stroke-miterlimit:4;stroke-dasharray:4.983, 4.983;stroke-dashoffset:0;stroke-opacity:1"
                       d="M 0,0 H 715.069" /></g></g></g></g></g></g><g
           id="g446"><g
             id="g448" /><g
             id="g472"><g
               style="opacity:0.16000402"
               id="g470"
               clip-path="url(#clipPath452)"><g
                 id="g468"><g
                   id="g466"
                   clip-path="url(#clipPath456)"><g
                     id="g460"
                     transform="translate(30.627,406.5176)"><path
                       id="path458"
                       style="fill:none;stroke:#000000;stroke-width:0.40000001;stroke-linecap:square;stroke-linejoin:round;stroke-miterlimit:4;stroke-dasharray:none;stroke-opacity:1"
                       d="M 0,0 H 2.5" /></g><g
                     id="g464"
                     transform="translate(38.1104,406.5176)"><path
                       id="path462"
                       style="fill:none;stroke:#000000;stroke-width:0.40000001;stroke-linecap:square;stroke-linejoin:round;stroke-miterlimit:4;stroke-dasharray:4.983, 4.983;stroke-dashoffset:0;stroke-opacity:1"
                       d="M 0,0 H 715.069" /></g></g></g></g></g></g></g></g><text
       id="text476"
       style="font-variant:normal;font-weight:bold;font-stretch:normal;font-size:15px;font-family:Roboto;-inkscape-font-specification:Roboto-Bold;writing-mode:lr-tb;fill:#000000;fill-opacity:1;fill-rule:nonzero;stroke:none"
       transform="matrix(1,0,0,-1,92.8818,416.9971)"><tspan
         id="tspan474"
         y="0"
         x="0 8.6099997 17.219999 25.83 34.439999 43.919998 52.529999 61.139999 69.75">2008–2009</tspan></text>
<text
       id="text482"
       style="font-variant:normal;font-weight:300;font-stretch:normal;font-size:15px;font-family:'Roboto Light';-inkscape-font-specification:Roboto-Light;writing-mode:lr-tb;fill:#000000;fill-opacity:1;fill-rule:nonzero;stroke:none"
       transform="matrix(1,0,0,-1,92.8818,391.0021)"><tspan
         id="tspan478"
         y="0"
         x="0 10.62 19.02 26.610001 34.919998 43.32 51.66 59.700001 64.739998 72.330002 79.68 87.720001">Hospodárska </tspan><tspan
         id="tspan480"
         y="18"
         x="0 7.3499999 12.39 15.735 22.92">kríza</tspan></text>
<text
       id="text486"
       style="font-variant:normal;font-weight:bold;font-stretch:normal;font-size:15px;font-family:Roboto;-inkscape-font-specification:Roboto-Bold;writing-mode:lr-tb;fill:#000000;fill-opacity:1;fill-rule:nonzero;stroke:none"
       transform="matrix(1,0,0,-1,318.4968,416.9971)"><tspan
         id="tspan484"
         y="0"
         x="0 8.6099997 17.219999 25.83 34.439999 43.919998 52.529999 61.112999 69.723">2013–2017</tspan></text>
<text
       id="text492"
       style="font-variant:normal;font-weight:300;font-stretch:normal;font-size:15px;font-family:'Roboto Light';-inkscape-font-specification:Roboto-Light;writing-mode:lr-tb;fill:#000000;fill-opacity:1;fill-rule:nonzero;stroke:none"
       transform="matrix(1,0,0,-1,318.4968,391.0021)"><tspan
         id="tspan488"
         y="0"
         x="0 9.2399998 14.145 21.9 30.209999 38.25 46.59 50.865002 58.59 66.345001 74.580002 81.705002 85.349998 92.565002 96.209999 104.55 112.95 120.54 123.9 131.655 139.995 147.32851 155.56351">Prepad ceny v dôsledku </tspan><tspan
         id="tspan490"
         y="16.995001"
         x="-0.015 8.2950001 13.215 20.969999 29.205 36.330002 41.145 48.494999 56.73 60.375 68.684998 76.980003 84.089996 92.489998 95.849998 103.605 111.84 115.2 122.955">prebytku povoleniek</tspan></text>
<text
       id="text496"
       style="font-variant:normal;font-weight:bold;font-stretch:normal;font-size:15px;font-family:Roboto;-inkscape-font-specification:Roboto-Bold;writing-mode:lr-tb;fill:#000000;fill-opacity:1;fill-rule:nonzero;stroke:none"
       transform="matrix(1,0,0,-1,637.5018,80.1721)"><tspan
         id="tspan494"
         y="0"
         x="0 12.99 21.030001 26.504999 34.619999 42.435001 46.169998 54.779999 63.389999 72">marec 2020</tspan></text>
<text
       id="text500"
       style="font-variant:normal;font-weight:300;font-stretch:normal;font-size:15px;font-family:'Roboto Light';-inkscape-font-specification:Roboto-Light;writing-mode:lr-tb;fill:#000000;fill-opacity:1;fill-rule:nonzero;stroke:none"
       transform="matrix(1,0,0,-1,540.7068,60.1771)"><tspan
         id="tspan498"
         y="0"
         x="0 9.2399998 14.28 22.514999 30.855 38.205002 45.330002 48.959999 57.27 65.669998 73.019997 76.379997 84.135002 91.724998 95.370003 103.125 110.475 118.875 127.11 135.50999 148.8 152.16 159.88499 167.10001 174.855 178.27499">Prudký pokles ekonomickej </tspan></text>
<text
       id="text504"
       style="font-variant:normal;font-weight:300;font-stretch:normal;font-size:15px;font-family:'Roboto Light';-inkscape-font-specification:Roboto-Light;writing-mode:lr-tb;fill:#000000;fill-opacity:1;fill-rule:nonzero;stroke:none"
       transform="matrix(1,0,0,-1,594.4068,42.1771)"><tspan
         id="tspan502"
         y="0"
         x="0 8.04 15.39 20.205 23.565001 30.780001 34.139999 38.955002 46.080002 49.724998 57.959999 66 69.644997 76.934998 84.974998 92.699997 96.059998 104.1 108.915 116.265">aktivity na začiatku</tspan></text>
<text
       id="text508"
       style="font-variant:normal;font-weight:300;font-stretch:normal;font-size:15px;font-family:'Roboto Light';-inkscape-font-specification:Roboto-Light;writing-mode:lr-tb;fill:#000000;fill-opacity:1;fill-rule:nonzero;stroke:none"
       transform="matrix(1,0,0,-1,547.9818,24.1771)"><tspan
         id="tspan506"
         y="0"
         x="0 7.3499999 15.75 20.655001 29.055 37.290001 45.224998 52.439999 55.785 60.825001 69.059998 76.650002 85.050003 92.264999 100.02 103.44 107.085 115.395 123.435 131.67 140.00999 147.765 161.0475 164.4075">koronavírusovej pandémie</tspan></text>
<text
       id="text512"
       style="font-variant:normal;font-weight:500;font-stretch:normal;font-size:15px;font-family:'Roboto Medium';-inkscape-font-specification:Roboto-Medium;writing-mode:lr-tb;fill:#000000;fill-opacity:1;fill-rule:nonzero;stroke:none"
       transform="matrix(1,0,0,-1,4.9818,478.3321)"><tspan
         id="tspan510"
         y="0"
         x="0 9.7950001 17.85 26.190001 34.305 38.040001 46.485001 54.915001 62.235001 70.769997 74.595001 82.650002 90.989998 94.815002 102.87">Cena povoleniek</tspan></text>
<text
       id="text516"
       style="font-variant:normal;font-weight:300;font-stretch:normal;font-size:15px;font-family:'Roboto Light';-inkscape-font-specification:Roboto-Light;writing-mode:lr-tb;fill:#000000;fill-opacity:1;fill-rule:nonzero;stroke:none"
       transform="matrix(1,0,0,-1,4.9818,460.3321)"><tspan
         id="tspan514"
         y="0"
         x="0 4.7849998 13.32 23.174999 32.700001 36.345001 43.634998 51.674999 55.32 60.134998 68.535004 76.769997 85.004997 88.650002 98.385002">(EUR za tonu CO</tspan></text>
<text
       id="text520"
       style="font-variant:normal;font-weight:300;font-stretch:normal;font-size:8.74499989px;font-family:'Roboto Light';-inkscape-font-specification:Roboto-Light;writing-mode:lr-tb;fill:#000000;fill-opacity:1;fill-rule:nonzero;stroke:none"
       transform="matrix(1,0,0,-1,113.3975,457.3237)"><tspan
         id="tspan518"
         y="0"
         x="0">2</tspan></text>
<text
       id="text524"
       style="font-variant:normal;font-weight:300;font-stretch:normal;font-size:15px;font-family:'Roboto Light';-inkscape-font-specification:Roboto-Light;writing-mode:lr-tb;fill:#000000;fill-opacity:1;fill-rule:nonzero;stroke:none"
       transform="matrix(1,0,0,-1,119.2441,460.3188)"><tspan
         id="tspan522"
         y="0"
         x="0">)</tspan></text>
<g
       transform="translate(674.3408,147.7959)"
       id="g526"><path
         id="path528"
         style="fill:none;stroke:#bcbec0;stroke-width:1;stroke-linecap:butt;stroke-linejoin:miter;stroke-miterlimit:10;stroke-dasharray:none;stroke-opacity:1"
         d="M 0,0 V -50.719" /></g><g
       transform="translate(670.251,144.4824)"
       id="g530"><path
         id="path532"
         style="fill:#bcbec0;fill-opacity:1;fill-rule:nonzero;stroke:none"
         d="M 0,0 0.732,-0.683 4.089,2.93 7.446,-0.683 8.179,0 4.089,4.397 Z" /></g></g></svg>