<?xml version="1.0" encoding="UTF-8" standalone="no"?>
<svg
   xmlns:dc="http://purl.org/dc/elements/1.1/"
   xmlns:cc="http://creativecommons.org/ns#"
   xmlns:rdf="http://www.w3.org/1999/02/22-rdf-syntax-ns#"
   xmlns:svg="http://www.w3.org/2000/svg"
   xmlns="http://www.w3.org/2000/svg"
   viewBox="0 0 986.66669 700.12268"
   height="700.12268"
   width="986.66669"
   xml:space="preserve"
   id="svg2"
   version="1.1"><metadata
     id="metadata8"><rdf:RDF><cc:Work
         rdf:about=""><dc:format>image/svg+xml</dc:format><dc:type
           rdf:resource="http://purl.org/dc/dcmitype/StillImage" /></cc:Work></rdf:RDF></metadata><defs
     id="defs6"><clipPath
       id="clipPath218"
       clipPathUnits="userSpaceOnUse"><path
         id="path216"
         d="M 0,0 H 740 V 525.091 H 0 Z" /></clipPath><clipPath
       id="clipPath276"
       clipPathUnits="userSpaceOnUse"><path
         id="path274"
         d="M 0,0 H 740 V 525.091 H 0 Z" /></clipPath></defs><g
     transform="matrix(1.3333333,0,0,-1.3333333,0,700.12267)"
     id="g10"><path
       id="path12"
       style="fill:#e6eef7;fill-opacity:1;fill-rule:nonzero;stroke:none"
       d="m 0,346.213 h 740 v 68.936 H 0 Z" /><text
       id="text16"
       style="font-variant:normal;font-weight:bold;font-stretch:normal;font-size:16px;font-family:Roboto;-inkscape-font-specification:Roboto-Bold;writing-mode:lr-tb;fill:#000000;fill-opacity:1;fill-rule:nonzero;stroke:none"
       transform="matrix(1,0,0,-1,9.6768,322.4321)"><tspan
         id="tspan14"
         y="0"
         x="0 8.5120001 17.087999 25.120001 33.695999 37.68">Fáza I</tspan></text>
<text
       id="text22"
       style="font-variant:normal;font-weight:normal;font-stretch:normal;font-size:16px;font-family:Roboto;-inkscape-font-specification:Roboto-Regular;writing-mode:lr-tb;fill:#000000;fill-opacity:1;fill-rule:nonzero;stroke:none"
       transform="matrix(1,0,0,-1,9.6768,303.2321)"><tspan
         id="tspan18"
         y="0"
         x="0 8.9919996 17.983999 26.976 35.936001 46.431999 55.424 64.416 73.407997">2005–2007</tspan><tspan
         id="tspan20"
         y="-16.368"
         x="245.472 254.56 264.92801 268.896 277.888 392.35199 402.76801">EU 27CO</tspan></text>
<text
       id="text26"
       style="font-variant:normal;font-weight:500;font-stretch:normal;font-size:9.32800007px;font-family:'Roboto Medium';-inkscape-font-specification:Roboto-Medium;writing-mode:lr-tb;fill:#000000;fill-opacity:1;fill-rule:nonzero;stroke:none"
       transform="matrix(1,0,0,-1,423.4443,316.2749)"><tspan
         id="tspan24"
         y="0"
         x="0">2</tspan></text>
<text
       id="text32"
       style="font-variant:normal;font-weight:normal;font-stretch:normal;font-size:16px;font-family:Roboto;-inkscape-font-specification:Roboto-Regular;writing-mode:lr-tb;fill:#000000;fill-opacity:1;fill-rule:nonzero;stroke:none"
       transform="matrix(1,0,0,-1,530.8633,319.603)"><tspan
         id="tspan28"
         y="0"
         x="0 7.9359999 16.639999 22.048 25.936001 34.639999 43.535999 52.015999 60.848 64.736 73.440002 77.407997 86.239998 94.944 98.912003 106.656 114.192 119.44 128.56 137.536 146.35201 150.32001 158.8 167.632 176.112 181.37601 190.35201 194.24001 202.72">zariadenia na výrobu energie,</tspan><tspan
         id="tspan30"
         y="19.200001"
         x="-0.016000001 8.4639997 17.296 25.76 31.024 40 48.48 53.712002 57.599998 65.968002 74.080002 81.648003 85.615997 94.447998 103.136">energeticky nár</tspan></text>
<text
       id="text38"
       style="font-variant:normal;font-weight:normal;font-stretch:normal;font-size:16px;font-family:Roboto;-inkscape-font-specification:Roboto-Regular;writing-mode:lr-tb;fill:#000000;fill-opacity:1;fill-rule:nonzero;stroke:none"
       transform="matrix(1,0,0,-1,639.2473,300.403)"><tspan
         id="tspan34"
         y="0"
         x="0 9.1199999 17.488001 26.32">očné</tspan><tspan
         id="tspan36"
         y="19.200001"
         x="-108.416 -99.440002 -94.031998 -90.143997 -81.664001 -67.648003 -60.080002 -51.824001 -43.344002 -39.456001 -30.624001 -22.143999 -18.176001 -9.0559998">priemyselné od</tspan></text>
<text
       id="text42"
       style="font-variant:normal;font-weight:normal;font-stretch:normal;font-size:16px;font-family:Roboto;-inkscape-font-specification:Roboto-Regular;writing-mode:lr-tb;fill:#000000;fill-opacity:1;fill-rule:nonzero;stroke:none"
       transform="matrix(1,0,0,-1,639.1993,281.203)"><tspan
         id="tspan40"
         y="0"
         x="0 7.6479998 16.128 21.360001 29.104 32.992001">vetvia</tspan></text>
<text
       id="text46"
       style="font-variant:normal;font-weight:bold;font-stretch:normal;font-size:15px;font-family:Roboto;-inkscape-font-specification:Roboto-Bold;writing-mode:lr-tb;fill:#000000;fill-opacity:1;fill-rule:nonzero;stroke:none"
       transform="matrix(1,0,0,-1,109.0381,384.3071)"><tspan
         id="tspan44"
         y="0"
         x="0 9.8100004 13.785 21.9 26.969999 30.705 38.34 46.740002 50.849998 58.380001 66.495003 74.894997 78.870003 86.910004 90.644997 98.760002 111.75 115.725 123.435 127.545">Cieľ zníženia emisí </tspan></text>
<text
       id="text50"
       style="font-variant:normal;font-weight:normal;font-stretch:normal;font-size:15px;font-family:Roboto;-inkscape-font-specification:Roboto-Regular;writing-mode:lr-tb;fill:#000000;fill-opacity:1;fill-rule:nonzero;stroke:none"
       transform="matrix(1,0,0,-1,110.0431,369.3071)"><tspan
         id="tspan48"
         y="0"
         x="0 8.5500002 16.965 21.915001 30.465 35.369999 39.014999 42.720001 47.654999 56.205002 63.810001 72.074997 75.794998 84.224998 92.654999 101.085">oproti roku 2005</tspan></text>
<text
       id="text54"
       style="font-variant:normal;font-weight:bold;font-stretch:normal;font-size:15px;font-family:Roboto;-inkscape-font-specification:Roboto-Bold;writing-mode:lr-tb;fill:#000000;fill-opacity:1;fill-rule:nonzero;stroke:none"
       transform="matrix(1,0,0,-1,255.4681,384.3071)"><tspan
         id="tspan52"
         y="0"
         x="0">Z</tspan></text>
<text
       id="text64"
       style="font-variant:normal;font-weight:bold;font-stretch:normal;font-size:15px;font-family:Roboto;-inkscape-font-specification:Roboto-Bold;writing-mode:lr-tb;fill:#000000;fill-opacity:1;fill-rule:nonzero;stroke:none"
       transform="matrix(1,0,0,-1,264.4231,384.3071)"><tspan
         id="tspan56"
         y="0"
         x="0 8.3999996 16.215 24.254999 31.965 37.035 45.435001 53.549999 61.950001">účastnené</tspan><tspan
         id="tspan58"
         y="15"
         x="-8.9549999 -1.05 4.3200002 12.255 16.049999 19.92 28.215">krajiny</tspan><tspan
         id="tspan60"
         y="0"
         x="133.935 143.02499 151.065 159.465 164.931 173.33099 181.731 186.80099">Zahrnuté</tspan><tspan
         id="tspan62"
         y="15"
         x="133.935 141.645 149.655 153.63 161.7375 170.1375 174.2475">skleník</tspan></text>
<text
       id="text68"
       style="font-variant:normal;font-weight:bold;font-stretch:normal;font-size:15px;font-family:Roboto;-inkscape-font-specification:Roboto-Bold;writing-mode:lr-tb;fill:#000000;fill-opacity:1;fill-rule:nonzero;stroke:none"
       transform="matrix(1,0,0,-1,446.6806,369.3071)"><tspan
         id="tspan66"
         y="0"
         x="0 8.3924999">ov</tspan></text>
<text
       id="text72"
       style="font-variant:normal;font-weight:bold;font-stretch:normal;font-size:15px;font-family:Roboto;-inkscape-font-specification:Roboto-Bold;writing-mode:lr-tb;fill:#000000;fill-opacity:1;fill-rule:nonzero;stroke:none"
       transform="matrix(1,0,0,-1,462.5581,369.3071)"><tspan
         id="tspan70"
         y="0"
         x="0 8.1075001 11.8425 20.2875 24.262501 31.7925 40.192501">é plyny</tspan></text>
<text
       id="text76"
       style="font-variant:normal;font-weight:bold;font-stretch:normal;font-size:15px;font-family:Roboto;-inkscape-font-specification:Roboto-Bold;writing-mode:lr-tb;fill:#000000;fill-opacity:1;fill-rule:nonzero;stroke:none"
       transform="matrix(1,0,0,-1,535.3081,384.3071)"><tspan
         id="tspan74"
         y="0"
         x="0 9.2250004 17.3325">Sek</tspan></text>
<text
       id="text80"
       style="font-variant:normal;font-weight:bold;font-stretch:normal;font-size:15px;font-family:Roboto;-inkscape-font-specification:Roboto-Bold;writing-mode:lr-tb;fill:#000000;fill-opacity:1;fill-rule:nonzero;stroke:none"
       transform="matrix(1,0,0,-1,560.6506,384.3071)"><tspan
         id="tspan78"
         y="0"
         x="0">t</tspan></text>
<text
       id="text84"
       style="font-variant:normal;font-weight:bold;font-stretch:normal;font-size:15px;font-family:Roboto;-inkscape-font-specification:Roboto-Bold;writing-mode:lr-tb;fill:#000000;fill-opacity:1;fill-rule:nonzero;stroke:none"
       transform="matrix(1,0,0,-1,565.5031,384.3071)"><tspan
         id="tspan82"
         y="0"
         x="0 8.4750004">or</tspan></text>
<text
       id="text88"
       style="font-variant:normal;font-weight:bold;font-stretch:normal;font-size:15px;font-family:Roboto;-inkscape-font-specification:Roboto-Bold;writing-mode:lr-tb;fill:#000000;fill-opacity:1;fill-rule:nonzero;stroke:none"
       transform="matrix(1,0,0,-1,579.5881,384.3071)"><tspan
         id="tspan86"
         y="0"
         x="0">y</tspan></text>
<text
       id="text106"
       style="font-variant:normal;font-weight:normal;font-stretch:normal;font-size:16px;font-family:Roboto;-inkscape-font-specification:Roboto-Regular;writing-mode:lr-tb;fill:#000000;fill-opacity:1;fill-rule:nonzero;stroke:none"
       transform="matrix(1,0,0,-1,253.1475,236.8047)"><tspan
         id="tspan90"
         y="0"
         x="0">+</tspan><tspan
         id="tspan92"
         y="0"
         x="9.0719995 13.04 24.448 33.568001 38.976002 47.231998 55.344002"> Nórsko</tspan><tspan
         id="tspan94"
         y="19.200001"
         x="0">+</tspan><tspan
         id="tspan96"
         y="19.200001"
         x="9.0719995 13.04 21.648001 25.535999 33.903999 42.720001 47.952 56.431999 65.264 73.519997 78.751999 87.456001 91.279999 100.112 108.368 116.48"> Lichtenštajnsko</tspan><tspan
         id="tspan98"
         y="38.400002"
         x="0">+</tspan><tspan
         id="tspan100"
         y="38.400002"
         x="9.0719995 13.04 17.392 25.648001 29.535999 38.240002 47.071999"> Island</tspan><tspan
         id="tspan102"
         y="0"
         x="148.88 159.952">+ </tspan><tspan
         id="tspan104"
         y="0"
         x="161.92">N</tspan></text>
<text
       id="text110"
       style="font-variant:normal;font-weight:500;font-stretch:normal;font-size:9.32800007px;font-family:'Roboto Medium';-inkscape-font-specification:Roboto-Medium;writing-mode:lr-tb;fill:#000000;fill-opacity:1;fill-rule:nonzero;stroke:none"
       transform="matrix(1,0,0,-1,426.4678,233.4766)"><tspan
         id="tspan108"
         y="0"
         x="0">2</tspan></text>
<text
       id="text116"
       style="font-variant:normal;font-weight:normal;font-stretch:normal;font-size:16px;font-family:Roboto;-inkscape-font-specification:Roboto-Regular;writing-mode:lr-tb;fill:#000000;fill-opacity:1;fill-rule:nonzero;stroke:none"
       transform="matrix(1,0,0,-1,431.7695,236.8047)"><tspan
         id="tspan112"
         y="0"
         x="0">O</tspan><tspan
         id="tspan114"
         y="19.200001"
         x="-27.743999"> </tspan></text>
<text
       id="text120"
       style="font-variant:normal;font-weight:300;font-stretch:normal;font-size:16px;font-family:'Roboto Light';-inkscape-font-specification:Roboto-Light;writing-mode:lr-tb;fill:#000000;fill-opacity:1;fill-rule:nonzero;stroke:none"
       transform="matrix(1,0,0,-1,413.9135,217.6047)"><tspan
         id="tspan118"
         y="0"
         x="0 5.1040001 14 22.959999 31.823999 37.040001 45.888">(dobrov</tspan></text>
<text
       id="text124"
       style="font-variant:normal;font-weight:300;font-stretch:normal;font-size:16px;font-family:'Roboto Light';-inkscape-font-specification:Roboto-Light;writing-mode:lr-tb;fill:#000000;fill-opacity:1;fill-rule:nonzero;stroke:none"
       transform="matrix(1,0,0,-1,467.3855,217.6047)"><tspan
         id="tspan122"
         y="0"
         x="0 8.96 13.712 22.496 30.768">oľné)</tspan></text>
<text
       id="text130"
       style="font-variant:normal;font-weight:normal;font-stretch:normal;font-size:16px;font-family:Roboto;-inkscape-font-specification:Roboto-Regular;writing-mode:lr-tb;fill:#000000;fill-opacity:1;fill-rule:nonzero;stroke:none"
       transform="matrix(1,0,0,-1,530.8575,236.8047)"><tspan
         id="tspan126"
         y="0"
         x="0">+</tspan><tspan
         id="tspan128"
         y="0"
         x="9.0719995 13.04 16.927999 25.408001 30.639999 39.119999 47.487999 52.720001 60.464001"> letectvo</tspan></text>
<text
       id="text134"
       style="font-variant:normal;font-weight:500;font-stretch:normal;font-size:16px;font-family:'Roboto Medium';-inkscape-font-specification:Roboto-Medium;writing-mode:lr-tb;fill:#000000;fill-opacity:1;fill-rule:nonzero;stroke:none"
       transform="matrix(1,0,0,-1,113.4015,236.8047)"><tspan
         id="tspan132"
         y="0"
         x="0 9.0880003 13.072">8 %</tspan></text>
<text
       id="text138"
       style="font-variant:normal;font-weight:bold;font-stretch:normal;font-size:16px;font-family:Roboto;-inkscape-font-specification:Roboto-Bold;writing-mode:lr-tb;fill:#000000;fill-opacity:1;fill-rule:nonzero;stroke:none"
       transform="matrix(1,0,0,-1,8.6495,236.8047)"><tspan
         id="tspan136"
         y="0"
         x="0 8.5120001 17.087999 25.120001 33.695999 37.68 42.352001">Fáza II</tspan></text>
<text
       id="text150"
       style="font-variant:normal;font-weight:normal;font-stretch:normal;font-size:16px;font-family:Roboto;-inkscape-font-specification:Roboto-Regular;writing-mode:lr-tb;fill:#000000;fill-opacity:1;fill-rule:nonzero;stroke:none"
       transform="matrix(1,0,0,-1,8.6495,217.6047)"><tspan
         id="tspan140"
         y="0"
         x="0 8.9919996 17.983999 26.976 35.936001 46.431999 55.424 64.416 73.407997">2008–2012</tspan><tspan
         id="tspan142"
         y="66.688004"
         x="244.48">+</tspan><tspan
         id="tspan144"
         y="66.688004"
         x="253.552 257.51999 267.936 276.75201 285.87201 291.40799 299.04001 307.74399 312.97601 321.23199 329.34399"> Chorvátsko</tspan><tspan
         id="tspan146"
         y="66.047997"
         x="393.35999">+</tspan><tspan
         id="tspan148"
         y="66.047997"
         x="402.43201 406.39999"> N</tspan></text>
<text
       id="text154"
       style="font-variant:normal;font-weight:500;font-stretch:normal;font-size:9.32800007px;font-family:'Roboto Medium';-inkscape-font-specification:Roboto-Medium;writing-mode:lr-tb;fill:#000000;fill-opacity:1;fill-rule:nonzero;stroke:none"
       transform="matrix(1,0,0,-1,426.4678,148.2266)"><tspan
         id="tspan152"
         y="0"
         x="0">2</tspan></text>
<text
       id="text172"
       style="font-variant:normal;font-weight:normal;font-stretch:normal;font-size:16px;font-family:Roboto;-inkscape-font-specification:Roboto-Regular;writing-mode:lr-tb;fill:#000000;fill-opacity:1;fill-rule:nonzero;stroke:none"
       transform="matrix(1,0,0,-1,431.7695,151.5547)"><tspan
         id="tspan156"
         y="0"
         x="0">O</tspan><tspan
         id="tspan158"
         y="19.200001"
         x="-29.743999">+</tspan><tspan
         id="tspan160"
         y="19.200001"
         x="-20.672001 -16.704 -6.6079998 2.24 12.656"> PFCs</tspan><tspan
         id="tspan162"
         y="0"
         x="99.087997">+</tspan><tspan
         id="tspan164"
         y="0"
         x="108.16 112.128 119.872 127.44 132.72 141.84 150.81599 159.52 163.48801 172.304 176.192 180.08 188.912 192.864 200.976 209.79201 213.75999 222.464 226.43201 234.8 243.616 252.09599 266.112 270 278.112 286.81601 290.70401 294.59201"> výroba hliníku a chemikálií</tspan><tspan
         id="tspan166"
         y="19.200001"
         x="99.087997">+</tspan><tspan
         id="tspan168"
         y="19.200001"
         x="108.16 112.128 120.064 128.76801 137.136 145.936 153.392 158.62399 167.23199 174.864 183.56799 192.39999 196.28799 204.76801 208.73599 217.44 221.408 229.664 237.776 241.664 250.368 259.34399 268.32001 275.952 284.65601 293.48801 297.37601"> zachytávanie a skladovanie</tspan><tspan
         id="tspan170"
         y="38.400002"
         x="99.071999 110.976 119.792 128.608 132.496 136.448 144.56"> uhlíka</tspan></text>
<text
       id="text176"
       style="font-variant:normal;font-weight:500;font-stretch:normal;font-size:16px;font-family:'Roboto Medium';-inkscape-font-specification:Roboto-Medium;writing-mode:lr-tb;fill:#000000;fill-opacity:1;fill-rule:nonzero;stroke:none"
       transform="matrix(1,0,0,-1,112.3935,151.5547)"><tspan
         id="tspan174"
         y="0"
         x="0 9.0880003 18.176001 22.16">21 %</tspan></text>
<text
       id="text180"
       style="font-variant:normal;font-weight:bold;font-stretch:normal;font-size:16px;font-family:Roboto;-inkscape-font-specification:Roboto-Bold;writing-mode:lr-tb;fill:#000000;fill-opacity:1;fill-rule:nonzero;stroke:none"
       transform="matrix(1,0,0,-1,8.6495,151.5547)"><tspan
         id="tspan178"
         y="0"
         x="0 8.5120001 17.087999 25.120001 33.695999 37.68 42.352001 47.023998">Fáza III</tspan></text>
<text
       id="text186"
       style="font-variant:normal;font-weight:normal;font-stretch:normal;font-size:16px;font-family:Roboto;-inkscape-font-specification:Roboto-Regular;writing-mode:lr-tb;fill:#000000;fill-opacity:1;fill-rule:nonzero;stroke:none"
       transform="matrix(1,0,0,-1,8.6495,132.3547)"><tspan
         id="tspan182"
         y="0"
         x="0 8.9919996 17.983999 26.976 35.936001 46.431999 55.424 64.416 73.407997">2013–2020</tspan><tspan
         id="tspan184"
         y="66.367996"
         x="243.48801 254.992 258.95999">– V</tspan></text>
<text
       id="text190"
       style="font-variant:normal;font-weight:normal;font-stretch:normal;font-size:16px;font-family:Roboto;-inkscape-font-specification:Roboto-Regular;writing-mode:lr-tb;fill:#000000;fill-opacity:1;fill-rule:nonzero;stroke:none"
       transform="matrix(1,0,0,-1,277.4495,65.9867)"><tspan
         id="tspan188"
         y="0"
         x="0 8.4799995 13.536 21.648001 30.351999 34.32 44.287998 49.695999 53.584 58.816002 67.519997 76.351997 80.239998">eľká Británia</tspan></text>
<text
       id="text194"
       style="font-variant:normal;font-weight:300;font-stretch:normal;font-size:16px;font-family:'Roboto Light';-inkscape-font-specification:Roboto-Light;writing-mode:lr-tb;fill:#000000;fill-opacity:1;fill-rule:nonzero;stroke:none"
       transform="matrix(1,0,0,-1,402.0255,65.9867)"><tspan
         id="tspan192"
         y="0"
         x="0 5.1040001 13.968 22.24">(bez</tspan></text>
<text
       id="text198"
       style="font-variant:normal;font-weight:300;font-stretch:normal;font-size:16px;font-family:'Roboto Light';-inkscape-font-specification:Roboto-Light;writing-mode:lr-tb;fill:#000000;fill-opacity:1;fill-rule:nonzero;stroke:none"
       transform="matrix(1,0,0,-1,435.8015,65.9867)"><tspan
         id="tspan196"
         y="0"
         x="0 7.776 21.952 30.224001 39.007999 46.608002 95.056 100.16 107.856 111.744 120.608 125.984 134.944 143.18401 151.45599 159.552 167.82401 171.71201 175.36 183.632 192.528 201.312 209.888 218.672 222.256 230.832">zmeny)(v procese jednania)</tspan></text>
<text
       id="text202"
       style="font-variant:normal;font-weight:500;font-stretch:normal;font-size:16px;font-family:'Roboto Medium';-inkscape-font-specification:Roboto-Medium;writing-mode:lr-tb;fill:#000000;fill-opacity:1;fill-rule:nonzero;stroke:none"
       transform="matrix(1,0,0,-1,115.4015,65.9867)"><tspan
         id="tspan200"
         y="0"
         x="0 9.0880003 18.176001 22.16">43 %</tspan></text>
<text
       id="text206"
       style="font-variant:normal;font-weight:bold;font-stretch:normal;font-size:16px;font-family:Roboto;-inkscape-font-specification:Roboto-Bold;writing-mode:lr-tb;fill:#000000;fill-opacity:1;fill-rule:nonzero;stroke:none"
       transform="matrix(1,0,0,-1,8.6495,65.9867)"><tspan
         id="tspan204"
         y="0"
         x="0 8.5120001 17.087999 25.120001 33.695999 37.68 42.352001">Fáza IV</tspan></text>
<text
       id="text210"
       style="font-variant:normal;font-weight:normal;font-stretch:normal;font-size:16px;font-family:Roboto;-inkscape-font-specification:Roboto-Regular;writing-mode:lr-tb;fill:#000000;fill-opacity:1;fill-rule:nonzero;stroke:none"
       transform="matrix(1,0,0,-1,8.6495,46.7867)"><tspan
         id="tspan208"
         y="0"
         x="0 8.9919996 17.983999 26.976 35.936001 46.431999 55.424 64.416 73.407997">2021–2030</tspan></text>
<g
       id="g212"><g
         clip-path="url(#clipPath218)"
         id="g214"><g
           transform="translate(-1,260.8047)"
           id="g220"><path
             id="path222"
             style="fill:none;stroke:#e6eef7;stroke-width:1;stroke-linecap:butt;stroke-linejoin:miter;stroke-miterlimit:10;stroke-dasharray:none;stroke-opacity:1"
             d="M 0,0 H 740" /></g><g
           transform="translate(0,175.3965)"
           id="g224"><path
             id="path226"
             style="fill:none;stroke:#e6eef7;stroke-width:1;stroke-linecap:butt;stroke-linejoin:miter;stroke-miterlimit:10;stroke-dasharray:none;stroke-opacity:1"
             d="M 0,0 H 740" /></g><g
           transform="translate(0,89.9883)"
           id="g228"><path
             id="path230"
             style="fill:none;stroke:#e6eef7;stroke-width:1;stroke-linecap:butt;stroke-linejoin:miter;stroke-miterlimit:10;stroke-dasharray:none;stroke-opacity:1"
             d="M 0,0 H 740" /></g><g
           transform="translate(0,4.5801)"
           id="g232"><path
             id="path234"
             style="fill:none;stroke:#e6eef7;stroke-width:1;stroke-linecap:butt;stroke-linejoin:miter;stroke-miterlimit:10;stroke-dasharray:none;stroke-opacity:1"
             d="M 0,0 H 740" /></g><g
           transform="translate(106.0391,-5.7441)"
           id="g236"><path
             id="path238"
             style="fill:none;stroke:#ffffff;stroke-width:20;stroke-linecap:butt;stroke-linejoin:miter;stroke-miterlimit:10;stroke-dasharray:none;stroke-opacity:1"
             d="M 0,0 V 315.542" /></g><g
           transform="translate(234.3052,-5.7441)"
           id="g240"><path
             id="path242"
             style="fill:none;stroke:#ffffff;stroke-width:20;stroke-linecap:butt;stroke-linejoin:miter;stroke-miterlimit:10;stroke-dasharray:none;stroke-opacity:1"
             d="M 0,0 V 315.542" /></g><g
           transform="translate(388.7812,-5.7441)"
           id="g244"><path
             id="path246"
             style="fill:none;stroke:#ffffff;stroke-width:20;stroke-linecap:butt;stroke-linejoin:miter;stroke-miterlimit:10;stroke-dasharray:none;stroke-opacity:1"
             d="M 0,0 V 315.542" /></g><g
           transform="translate(516.6357,-5.7441)"
           id="g248"><path
             id="path250"
             style="fill:none;stroke:#ffffff;stroke-width:20;stroke-linecap:butt;stroke-linejoin:miter;stroke-miterlimit:10;stroke-dasharray:none;stroke-opacity:1"
             d="M 0,0 V 315.542" /></g></g></g><text
       id="text256"
       style="font-variant:normal;font-weight:normal;font-stretch:normal;font-size:16px;font-family:Roboto;-inkscape-font-specification:Roboto-Regular;writing-mode:lr-tb;fill:#000000;fill-opacity:1;fill-rule:nonzero;stroke:none"
       transform="matrix(1,0,0,-1,111.4092,319.603)"><tspan
         id="tspan252"
         y="0"
         x="0 7.9359999 11.824 20.528 29.552 38.383999">žiadne</tspan><tspan
         id="tspan254"
         y="19.200001"
         x="-2 3.4719999 12.448 16.336 20.224001 29.344 34.576 43.408001 50.976002 54.944 63.200001 70.767998 79.024002 84.255997 92.736 106.752">(pilotný systém)</tspan></text>
<text
       id="text260"
       style="font-variant:normal;font-weight:normal;font-stretch:normal;font-size:14px;font-family:Roboto;-inkscape-font-specification:Roboto-Regular;writing-mode:lr-tb;fill:#231f20;fill-opacity:1;fill-rule:nonzero;stroke:none"
       transform="matrix(1,0,0,-1,1.4541,474.4077)"><tspan
         id="tspan258"
         y="0"
         x="0 7.868 15.736 23.604">2005</tspan></text>
<text
       id="text264"
       style="font-variant:normal;font-weight:normal;font-stretch:normal;font-size:15px;font-family:Roboto;-inkscape-font-specification:Roboto-Regular;writing-mode:lr-tb;fill:#231f20;fill-opacity:1;fill-rule:nonzero;stroke:none"
       transform="matrix(1,0,0,-1,39.7471,504.6733)"><tspan
         id="tspan262"
         y="0"
         x="0 8.0550003 16.215 23.549999 31.709999 35.43 96.419998 104.475 112.635 119.97 128.13 131.85001 135.92999 277.23001 285.285 293.44501 300.78 308.94 312.66 316.73999 320.82001 530.26501 538.32001 546.47998 553.815 561.97498 565.6875 569.76752">Fáza IFáza IIFáza IIIFáza IV</tspan></text>
<text
       id="text268"
       style="font-variant:normal;font-weight:normal;font-stretch:normal;font-size:14px;font-family:Roboto;-inkscape-font-specification:Roboto-Regular;writing-mode:lr-tb;fill:#231f20;fill-opacity:1;fill-rule:nonzero;stroke:none"
       transform="matrix(1,0,0,-1,85.8516,472.6392)"><tspan
         id="tspan266"
         y="0"
         x="0 7.868 15.736 23.604 112.504 120.372 128.24001 136.108 365.66599 373.534 381.40201 389.26999 620.00403 627.87201 635.73999 643.60797">2008201320212030</tspan></text>
<g
       id="g270"><g
         clip-path="url(#clipPath276)"
         id="g272"><g
           transform="translate(23.0942,497.3032)"
           id="g278"><path
             id="path280"
             style="fill:none;stroke:#000000;stroke-width:1.5;stroke-linecap:butt;stroke-linejoin:miter;stroke-miterlimit:10;stroke-dasharray:none;stroke-opacity:1"
             d="m 0,0 c 0,-3.264 -2.646,-5.911 -5.911,-5.911 -3.265,0 -5.911,2.647 -5.911,5.911 0,3.265 2.646,5.911 5.911,5.911 C -2.646,5.911 0,3.265 0,0 Z" /></g><g
           transform="translate(107.4795,497.3032)"
           id="g282"><path
             id="path284"
             style="fill:none;stroke:#000000;stroke-width:1.5;stroke-linecap:butt;stroke-linejoin:miter;stroke-miterlimit:10;stroke-dasharray:none;stroke-opacity:1"
             d="m 0,0 c 0,-3.264 -2.646,-5.911 -5.911,-5.911 -3.265,0 -5.911,2.647 -5.911,5.911 0,3.265 2.646,5.911 5.911,5.911 C -2.646,5.911 0,3.265 0,0 Z" /></g><g
           transform="translate(219.9927,497.3032)"
           id="g286"><path
             id="path288"
             style="fill:none;stroke:#000000;stroke-width:1.5;stroke-linecap:butt;stroke-linejoin:miter;stroke-miterlimit:10;stroke-dasharray:none;stroke-opacity:1"
             d="m 0,0 c 0,-3.264 -2.646,-5.911 -5.911,-5.911 -3.264,0 -5.911,2.647 -5.911,5.911 0,3.265 2.647,5.911 5.911,5.911 C -2.646,5.911 0,3.265 0,0 Z" /></g><g
           transform="translate(473.1484,497.3032)"
           id="g290"><path
             id="path292"
             style="fill:none;stroke:#000000;stroke-width:1.5;stroke-linecap:butt;stroke-linejoin:miter;stroke-miterlimit:10;stroke-dasharray:none;stroke-opacity:1"
             d="m 0,0 c 0,-3.264 -2.646,-5.911 -5.911,-5.911 -3.265,0 -5.911,2.647 -5.911,5.911 0,3.265 2.646,5.911 5.911,5.911 C -2.646,5.911 0,3.265 0,0 Z" /></g><g
           transform="translate(726.3037,497.3032)"
           id="g294"><path
             id="path296"
             style="fill:none;stroke:#000000;stroke-width:1.5;stroke-linecap:butt;stroke-linejoin:miter;stroke-miterlimit:10;stroke-dasharray:none;stroke-opacity:1"
             d="m 0,0 c 0,-3.264 -2.646,-5.911 -5.911,-5.911 -3.265,0 -5.911,2.647 -5.911,5.911 0,3.265 2.646,5.911 5.911,5.911 C -2.646,5.911 0,3.265 0,0 Z" /></g><g
           transform="translate(25.9155,497.3032)"
           id="g298"><path
             id="path300"
             style="fill:none;stroke:#000000;stroke-width:1.5;stroke-linecap:butt;stroke-linejoin:miter;stroke-miterlimit:10;stroke-dasharray:none;stroke-opacity:1"
             d="M 0,0 H 66.042" /></g><g
           transform="translate(110.2559,497.3032)"
           id="g302"><path
             id="path304"
             style="fill:none;stroke:#000000;stroke-width:1.5;stroke-linecap:butt;stroke-linejoin:miter;stroke-miterlimit:10;stroke-dasharray:none;stroke-opacity:1"
             d="M 0,0 H 94.724" /></g><g
           transform="translate(222.7285,497.3032)"
           id="g306"><path
             id="path308"
             style="fill:none;stroke:#000000;stroke-width:1.5;stroke-linecap:butt;stroke-linejoin:miter;stroke-miterlimit:10;stroke-dasharray:none;stroke-opacity:1"
             d="M 0,0 H 237.314" /></g><g
           transform="translate(475.7187,497.3032)"
           id="g310"><path
             id="path312"
             style="fill:none;stroke:#000000;stroke-width:1.5;stroke-linecap:butt;stroke-linejoin:miter;stroke-miterlimit:10;stroke-dasharray:none;stroke-opacity:1"
             d="M 0,0 H 235.898" /></g></g></g></g></svg>