<?xml version="1.0" encoding="UTF-8" standalone="no"?>
<svg
   xmlns:dc="http://purl.org/dc/elements/1.1/"
   xmlns:cc="http://creativecommons.org/ns#"
   xmlns:rdf="http://www.w3.org/1999/02/22-rdf-syntax-ns#"
   xmlns:svg="http://www.w3.org/2000/svg"
   xmlns="http://www.w3.org/2000/svg"
   viewBox="0 0 693.33331 664.19867"
   height="664.19867"
   width="693.33331"
   xml:space="preserve"
   id="svg2"
   version="1.1"><metadata
     id="metadata8"><rdf:RDF><cc:Work
         rdf:about=""><dc:format>image/svg+xml</dc:format><dc:type
           rdf:resource="http://purl.org/dc/dcmitype/StillImage" /></cc:Work></rdf:RDF></metadata><defs
     id="defs6"><clipPath
       id="clipPath186"
       clipPathUnits="userSpaceOnUse"><path
         id="path184"
         d="M 0,498.149 H 520 V 0 H 0 Z" /></clipPath><clipPath
       id="clipPath246"
       clipPathUnits="userSpaceOnUse"><path
         id="path244"
         d="M 0,498.149 H 520 V 0 H 0 Z" /></clipPath><clipPath
       id="clipPath302"
       clipPathUnits="userSpaceOnUse"><path
         id="path300"
         d="M 0,498.149 H 520 V 0 H 0 Z" /></clipPath></defs><g
     transform="matrix(1.3333333,0,0,-1.3333333,0,664.19867)"
     id="g10"><path
       id="path12"
       style="fill:#e6eef7;fill-opacity:1;fill-rule:nonzero;stroke:none"
       d="m 0,348.71 h 520 v 68.936 H 0 Z" /><text
       id="text16"
       style="font-variant:normal;font-weight:bold;font-stretch:normal;font-size:15px;font-family:Roboto;-inkscape-font-specification:Roboto-Bold;writing-mode:lr-tb;fill:#000000;fill-opacity:1;fill-rule:nonzero;stroke:none"
       transform="matrix(1,0,0,-1,2.5898,321.9604)"><tspan
         id="tspan14"
         y="0"
         x="0 7.9679999 16.007999 23.643 31.683001 35.417999">Fáza I</tspan></text>
<text
       id="text20"
       style="font-variant:normal;font-weight:normal;font-stretch:normal;font-size:14px;font-family:Roboto;-inkscape-font-specification:Roboto-Regular;writing-mode:lr-tb;fill:#000000;fill-opacity:1;fill-rule:nonzero;stroke:none"
       transform="matrix(1,0,0,-1,2.5898,305.1606)"><tspan
         id="tspan18"
         y="0"
         x="0 7.868 15.736 23.604 31.472 40.655998 48.523998 56.391998 64.260002">2005–2007</tspan></text>
<text
       id="text24"
       style="font-variant:normal;font-weight:normal;font-stretch:normal;font-size:14px;font-family:Roboto;-inkscape-font-specification:Roboto-Regular;writing-mode:lr-tb;fill:#000000;fill-opacity:1;fill-rule:nonzero;stroke:none"
       transform="matrix(1,0,0,-1,175.4758,322.1006)"><tspan
         id="tspan22"
         y="0"
         x="0 7.9520001 17.024 20.496 28.364">EU 27</tspan></text>
<text
       id="text28"
       style="font-variant:normal;font-weight:normal;font-stretch:normal;font-size:14px;font-family:Roboto;-inkscape-font-specification:Roboto-Regular;writing-mode:lr-tb;fill:#000000;fill-opacity:1;fill-rule:nonzero;stroke:none"
       transform="matrix(1,0,0,-1,302.9038,322.1006)"><tspan
         id="tspan26"
         y="0"
         x="0 9.1140003">CO</tspan></text>
<text
       id="text32"
       style="font-variant:normal;font-weight:500;font-stretch:normal;font-size:8.1619997px;font-family:'Roboto Medium';-inkscape-font-specification:Roboto-Medium;writing-mode:lr-tb;fill:#000000;fill-opacity:1;fill-rule:nonzero;stroke:none"
       transform="matrix(1,0,0,-1,321.6387,319.439)"><tspan
         id="tspan30"
         y="0"
         x="0">2</tspan></text>
<text
       id="text38"
       style="font-variant:normal;font-weight:500;font-stretch:normal;font-size:15px;font-family:'Roboto Medium';-inkscape-font-specification:Roboto-Medium;writing-mode:lr-tb;fill:#000000;fill-opacity:1;fill-rule:nonzero;stroke:none"
       transform="matrix(1,0,0,-1,82.3418,392.1753)"><tspan
         id="tspan34"
         y="0"
         x="0 9.7950001 13.62 21.674999 26.610001 30.344999 37.889999 46.23 50.174999 57.598499 65.653503 73.9935 77.818497">Cieľ zníženia</tspan><tspan
         id="tspan36"
         y="15"
         x="0 8.0550003 21.105 24.938999 32.679001 36.504002">emisií</tspan></text>
<text
       id="text42"
       style="font-variant:normal;font-weight:300;font-stretch:normal;font-size:15px;font-family:'Roboto Light';-inkscape-font-specification:Roboto-Light;writing-mode:lr-tb;fill:#000000;fill-opacity:1;fill-rule:nonzero;stroke:none"
       transform="matrix(1,0,0,-1,126.4358,377.1753)"><tspan
         id="tspan40"
         y="0"
         x="0 8.3999996 16.709999 21.6105 30.0105 34.8255 38.185501">oproti </tspan></text>
<text
       id="text46"
       style="font-variant:normal;font-weight:300;font-stretch:normal;font-size:15px;font-family:'Roboto Light';-inkscape-font-specification:Roboto-Light;writing-mode:lr-tb;fill:#000000;fill-opacity:1;fill-rule:nonzero;stroke:none"
       transform="matrix(1,0,0,-1,82.3418,362.1753)"><tspan
         id="tspan44"
         y="0"
         x="0 4.8990002 13.299 20.649 28.884001 32.528999 40.839001 49.148998 57.459">roku 2005</tspan></text>
<text
       id="text60"
       style="font-variant:normal;font-weight:500;font-stretch:normal;font-size:15px;font-family:'Roboto Medium';-inkscape-font-specification:Roboto-Medium;writing-mode:lr-tb;fill:#000000;fill-opacity:1;fill-rule:nonzero;stroke:none"
       transform="matrix(1,0,0,-1,178.2068,392.1753)"><tspan
         id="tspan48"
         y="0"
         x="0 8.8920002 17.232 25.077 33.192001 40.941002 45.928501 54.268501 62.323502 70.663498">Zúčastnené</tspan><tspan
         id="tspan50"
         y="15"
         x="0 7.8299999 12.8835 20.998501 24.7575 28.5825 36.922501">krajiny</tspan><tspan
         id="tspan52"
         y="0"
         x="120.435 129.465 137.58 145.905 151.185 159.52499 167.86501 172.84801">Zahrnuté</tspan><tspan
         id="tspan54"
         y="15"
         x="120.435 128.175 136.005 139.83 147.88499 156.22501 160.17 168 176.42999 183.75301">skleníkové</tspan><tspan
         id="tspan56"
         y="30"
         x="120.435 128.88 132.705 140.00999 148.35001">plyny</tspan><tspan
         id="tspan58"
         y="0"
         x="212.58 221.64 229.683 237.513 242.28149 250.8165 256.22699">Sektory</tspan></text>
<text
       id="text64"
       style="font-variant:normal;font-weight:normal;font-stretch:normal;font-size:14px;font-family:Roboto;-inkscape-font-specification:Roboto-Regular;writing-mode:lr-tb;fill:#231f20;fill-opacity:1;fill-rule:nonzero;stroke:none"
       transform="matrix(1,0,0,-1,175.4697,239.3022)"><tspan
         id="tspan62"
         y="0"
         x="0">+</tspan></text>
<text
       id="text68"
       style="font-variant:normal;font-weight:normal;font-stretch:normal;font-size:14px;font-family:Roboto;-inkscape-font-specification:Roboto-Regular;writing-mode:lr-tb;fill:#000000;fill-opacity:1;fill-rule:nonzero;stroke:none"
       transform="matrix(1,0,0,-1,186.8797,239.3022)"><tspan
         id="tspan66"
         y="0"
         x="0 9.9820004 17.962 22.694 29.917999 37.015999">Nórsko</tspan></text>
<text
       id="text72"
       style="font-variant:normal;font-weight:normal;font-stretch:normal;font-size:14px;font-family:Roboto;-inkscape-font-specification:Roboto-Regular;writing-mode:lr-tb;fill:#231f20;fill-opacity:1;fill-rule:nonzero;stroke:none"
       transform="matrix(1,0,0,-1,175.4697,222.5022)"><tspan
         id="tspan70"
         y="0"
         x="0">+</tspan></text>
<text
       id="text76"
       style="font-variant:normal;font-weight:normal;font-stretch:normal;font-size:14px;font-family:Roboto;-inkscape-font-specification:Roboto-Regular;writing-mode:lr-tb;fill:#000000;fill-opacity:1;fill-rule:nonzero;stroke:none"
       transform="matrix(1,0,0,-1,186.8797,222.5022)"><tspan
         id="tspan74"
         y="0"
         x="0 7.5320001 10.934 18.256001 25.969999 30.548 37.967999 45.695999 52.919998 57.498001 65.113998 68.459999 76.188004 83.412003 90.510002">Lichtenštajnsko</tspan></text>
<text
       id="text80"
       style="font-variant:normal;font-weight:normal;font-stretch:normal;font-size:14px;font-family:Roboto;-inkscape-font-specification:Roboto-Regular;writing-mode:lr-tb;fill:#231f20;fill-opacity:1;fill-rule:nonzero;stroke:none"
       transform="matrix(1,0,0,-1,175.4697,205.7022)"><tspan
         id="tspan78"
         y="0"
         x="0">+</tspan></text>
<text
       id="text84"
       style="font-variant:normal;font-weight:normal;font-stretch:normal;font-size:14px;font-family:Roboto;-inkscape-font-specification:Roboto-Regular;writing-mode:lr-tb;fill:#000000;fill-opacity:1;fill-rule:nonzero;stroke:none"
       transform="matrix(1,0,0,-1,186.8797,205.7022)"><tspan
         id="tspan82"
         y="0"
         x="0 3.8080001 11.032 14.434 22.049999 29.778">Island</tspan></text>
<text
       id="text88"
       style="font-variant:normal;font-weight:normal;font-stretch:normal;font-size:14px;font-family:Roboto;-inkscape-font-specification:Roboto-Regular;writing-mode:lr-tb;fill:#231f20;fill-opacity:1;fill-rule:nonzero;stroke:none"
       transform="matrix(1,0,0,-1,302.8977,239.3022)"><tspan
         id="tspan86"
         y="0"
         x="0">+</tspan></text>
<text
       id="text92"
       style="font-variant:normal;font-weight:normal;font-stretch:normal;font-size:14px;font-family:Roboto;-inkscape-font-specification:Roboto-Regular;writing-mode:lr-tb;fill:#000000;fill-opacity:1;fill-rule:nonzero;stroke:none"
       transform="matrix(1,0,0,-1,314.3077,239.3022)"><tspan
         id="tspan90"
         y="0"
         x="0">N</tspan></text>
<text
       id="text96"
       style="font-variant:normal;font-weight:500;font-stretch:normal;font-size:8.1619997px;font-family:'Roboto Medium';-inkscape-font-specification:Roboto-Medium;writing-mode:lr-tb;fill:#000000;fill-opacity:1;fill-rule:nonzero;stroke:none"
       transform="matrix(1,0,0,-1,324.2842,236.6401)"><tspan
         id="tspan94"
         y="0"
         x="0">2</tspan></text>
<text
       id="text100"
       style="font-variant:normal;font-weight:normal;font-stretch:normal;font-size:14px;font-family:Roboto;-inkscape-font-specification:Roboto-Regular;writing-mode:lr-tb;fill:#000000;fill-opacity:1;fill-rule:nonzero;stroke:none"
       transform="matrix(1,0,0,-1,328.9229,239.3022)"><tspan
         id="tspan98"
         y="0"
         x="0">O</tspan></text>
<text
       id="text104"
       style="font-variant:normal;font-weight:300;font-stretch:normal;font-size:14px;font-family:'Roboto Light';-inkscape-font-specification:Roboto-Light;writing-mode:lr-tb;fill:#000000;fill-opacity:1;fill-rule:nonzero;stroke:none"
       transform="matrix(1,0,0,-1,302.8969,222.5022)"><tspan
         id="tspan102"
         y="0"
         x="0 4.4660001 12.25 20.09 27.846001 32.4156 40.1548 46.785198 54.625198 58.783199 66.4692 73.707199">(dobrovoľné)</tspan></text>
<text
       id="text108"
       style="font-variant:normal;font-weight:500;font-stretch:normal;font-size:15px;font-family:'Roboto Medium';-inkscape-font-specification:Roboto-Medium;writing-mode:lr-tb;fill:#000000;fill-opacity:1;fill-rule:nonzero;stroke:none"
       transform="matrix(1,0,0,-1,88.7998,239.3022)"><tspan
         id="tspan106"
         y="0"
         x="0 8.5200005 12.255">8 %</tspan></text>
<text
       id="text112"
       style="font-variant:normal;font-weight:bold;font-stretch:normal;font-size:15px;font-family:Roboto;-inkscape-font-specification:Roboto-Bold;writing-mode:lr-tb;fill:#000000;fill-opacity:1;fill-rule:nonzero;stroke:none"
       transform="matrix(1,0,0,-1,1.5748,239.3022)"><tspan
         id="tspan110"
         y="0"
         x="0 7.9679999 16.007999 23.643 31.683001 35.417999 39.798">Fáza II</tspan></text>
<text
       id="text118"
       style="font-variant:normal;font-weight:normal;font-stretch:normal;font-size:14px;font-family:Roboto;-inkscape-font-specification:Roboto-Regular;writing-mode:lr-tb;fill:#231f20;fill-opacity:1;fill-rule:nonzero;stroke:none"
       transform="matrix(1,0,0,-1,1.5742,222.5024)"><tspan
         id="tspan114"
         y="0"
         x="0 7.868 15.736 23.604 31.472 40.655998 48.523998 56.391998 64.260002">2008–2012</tspan><tspan
         id="tspan116"
         y="69.089996"
         x="173.894">+</tspan></text>
<text
       id="text122"
       style="font-variant:normal;font-weight:normal;font-stretch:normal;font-size:14px;font-family:Roboto;-inkscape-font-specification:Roboto-Regular;writing-mode:lr-tb;fill:#000000;fill-opacity:1;fill-rule:nonzero;stroke:none"
       transform="matrix(1,0,0,-1,186.8782,153.4124)"><tspan
         id="tspan120"
         y="0"
         x="0 9.1140003 16.827999 24.808001 29.6618 36.339802 43.955799 48.533798 55.757801 62.855801">Chorvátsko</tspan></text>
<text
       id="text126"
       style="font-variant:normal;font-weight:normal;font-stretch:normal;font-size:14px;font-family:Roboto;-inkscape-font-specification:Roboto-Regular;writing-mode:lr-tb;fill:#231f20;fill-opacity:1;fill-rule:nonzero;stroke:none"
       transform="matrix(1,0,0,-1,302.8962,154.0564)"><tspan
         id="tspan124"
         y="0"
         x="0">+</tspan></text>
<text
       id="text130"
       style="font-variant:normal;font-weight:normal;font-stretch:normal;font-size:14px;font-family:Roboto;-inkscape-font-specification:Roboto-Regular;writing-mode:lr-tb;fill:#000000;fill-opacity:1;fill-rule:nonzero;stroke:none"
       transform="matrix(1,0,0,-1,314.3062,154.0564)"><tspan
         id="tspan128"
         y="0"
         x="0">N</tspan></text>
<text
       id="text134"
       style="font-variant:normal;font-weight:500;font-stretch:normal;font-size:8.1619997px;font-family:'Roboto Medium';-inkscape-font-specification:Roboto-Medium;writing-mode:lr-tb;fill:#000000;fill-opacity:1;fill-rule:nonzero;stroke:none"
       transform="matrix(1,0,0,-1,324.2842,151.3892)"><tspan
         id="tspan132"
         y="0"
         x="0">2</tspan></text>
<text
       id="text140"
       style="font-variant:normal;font-weight:normal;font-stretch:normal;font-size:14px;font-family:Roboto;-inkscape-font-specification:Roboto-Regular;writing-mode:lr-tb;fill:#231f20;fill-opacity:1;fill-rule:nonzero;stroke:none"
       transform="matrix(1,0,0,-1,328.9229,154.0513)"><tspan
         id="tspan136"
         y="0"
         x="0">O</tspan><tspan
         id="tspan138"
         y="16.799999"
         x="-26.025999">+</tspan></text>
<text
       id="text144"
       style="font-variant:normal;font-weight:normal;font-stretch:normal;font-size:14px;font-family:Roboto;-inkscape-font-specification:Roboto-Regular;writing-mode:lr-tb;fill:#000000;fill-opacity:1;fill-rule:nonzero;stroke:none"
       transform="matrix(1,0,0,-1,314.3069,137.2513)"><tspan
         id="tspan142"
         y="0"
         x="0 8.8339996 16.576 25.690001">PFCs</tspan></text>
<text
       id="text148"
       style="font-variant:normal;font-weight:500;font-stretch:normal;font-size:15px;font-family:'Roboto Medium';-inkscape-font-specification:Roboto-Medium;writing-mode:lr-tb;fill:#000000;fill-opacity:1;fill-rule:nonzero;stroke:none"
       transform="matrix(1,0,0,-1,88.7998,154.0513)"><tspan
         id="tspan146"
         y="0"
         x="0 8.5200005 17.040001 20.775">21 %</tspan></text>
<text
       id="text152"
       style="font-variant:normal;font-weight:bold;font-stretch:normal;font-size:15px;font-family:Roboto;-inkscape-font-specification:Roboto-Bold;writing-mode:lr-tb;fill:#000000;fill-opacity:1;fill-rule:nonzero;stroke:none"
       transform="matrix(1,0,0,-1,1.5748,154.0513)"><tspan
         id="tspan150"
         y="0"
         x="0 7.9679999 16.007999 23.643 31.683001 35.417999 39.798 44.170502">Fáza III</tspan></text>
<text
       id="text158"
       style="font-variant:normal;font-weight:normal;font-stretch:normal;font-size:14px;font-family:Roboto;-inkscape-font-specification:Roboto-Regular;writing-mode:lr-tb;fill:#000000;fill-opacity:1;fill-rule:nonzero;stroke:none"
       transform="matrix(1,0,0,-1,1.5742,137.2515)"><tspan
         id="tspan154"
         y="0"
         x="0 7.868 15.736 23.604 31.472 40.655998 48.523998 56.391998 64.260002">2013–2020</tspan><tspan
         id="tspan156"
         y="68.767998"
         x="173.894">–</tspan></text>
<text
       id="text162"
       style="font-variant:normal;font-weight:normal;font-stretch:normal;font-size:14px;font-family:Roboto;-inkscape-font-specification:Roboto-Regular;writing-mode:lr-tb;fill:#000000;fill-opacity:1;fill-rule:nonzero;stroke:none"
       transform="matrix(1,0,0,-1,188.1242,68.4835)"><tspan
         id="tspan160"
         y="0"
         x="0 8.6015997 16.021601 20.445601 27.5436 35.159599 38.631599 47.3536 52.085602 55.487598 60.065601 67.681602 75.409599 78.8116">Veľká Británia</tspan></text>
<text
       id="text166"
       style="font-variant:normal;font-weight:300;font-stretch:normal;font-size:14px;font-family:'Roboto Light';-inkscape-font-specification:Roboto-Light;writing-mode:lr-tb;fill:#000000;fill-opacity:1;fill-rule:nonzero;stroke:none"
       transform="matrix(1,0,0,-1,298.6542,68.4835)"><tspan
         id="tspan164"
         y="0"
         x="0 4.4660001 12.222 19.459999 26.264 29.666 36.470001 48.874001 56.112 63.798 70.447998">(bez zmeny)</tspan></text>
<text
       id="text170"
       style="font-variant:normal;font-weight:500;font-stretch:normal;font-size:15px;font-family:'Roboto Medium';-inkscape-font-specification:Roboto-Medium;writing-mode:lr-tb;fill:#000000;fill-opacity:1;fill-rule:nonzero;stroke:none"
       transform="matrix(1,0,0,-1,88.7998,68.4858)"><tspan
         id="tspan168"
         y="0"
         x="0 8.5200005 17.040001 20.775">43 %</tspan></text>
<text
       id="text174"
       style="font-variant:normal;font-weight:bold;font-stretch:normal;font-size:15px;font-family:Roboto;-inkscape-font-specification:Roboto-Bold;writing-mode:lr-tb;fill:#000000;fill-opacity:1;fill-rule:nonzero;stroke:none"
       transform="matrix(1,0,0,-1,1.5748,68.4858)"><tspan
         id="tspan172"
         y="0"
         x="0 7.9679999 16.007999 23.643 31.683001 35.417999 39.798">Fáza IV</tspan></text>
<text
       id="text178"
       style="font-variant:normal;font-weight:normal;font-stretch:normal;font-size:14px;font-family:Roboto;-inkscape-font-specification:Roboto-Regular;writing-mode:lr-tb;fill:#000000;fill-opacity:1;fill-rule:nonzero;stroke:none"
       transform="matrix(1,0,0,-1,1.5742,51.6855)"><tspan
         id="tspan176"
         y="0"
         x="0 7.868 15.736 23.604 31.472 40.655998 48.523998 56.391998 64.260002">2021–2030</tspan></text>
<g
       id="g180"><g
         clip-path="url(#clipPath186)"
         id="g182"><g
           transform="translate(-2.8345,263.302)"
           id="g188"><path
             id="path190"
             style="fill:none;stroke:#e6eef7;stroke-width:1;stroke-linecap:butt;stroke-linejoin:miter;stroke-miterlimit:10;stroke-dasharray:none;stroke-opacity:1"
             d="M 0,0 H 521.835" /></g><g
           transform="translate(-2.8345,177.8938)"
           id="g192"><path
             id="path194"
             style="fill:none;stroke:#e6eef7;stroke-width:1;stroke-linecap:butt;stroke-linejoin:miter;stroke-miterlimit:10;stroke-dasharray:none;stroke-opacity:1"
             d="M 0,0 H 521.835" /></g><g
           transform="translate(-2.8345,92.4856)"
           id="g196"><path
             id="path198"
             style="fill:none;stroke:#e6eef7;stroke-width:1;stroke-linecap:butt;stroke-linejoin:miter;stroke-miterlimit:10;stroke-dasharray:none;stroke-opacity:1"
             d="M 0,0 H 521.835" /></g><g
           transform="translate(-2.8345,7.0774)"
           id="g200"><path
             id="path202"
             style="fill:none;stroke:#e6eef7;stroke-width:1;stroke-linecap:butt;stroke-linejoin:miter;stroke-miterlimit:10;stroke-dasharray:none;stroke-opacity:1"
             d="M 0,0 H 521.835" /></g><g
           transform="translate(79.8838,-3.2468)"
           id="g204"><path
             id="path206"
             style="fill:none;stroke:#ffffff;stroke-width:12;stroke-linecap:butt;stroke-linejoin:miter;stroke-miterlimit:10;stroke-dasharray:none;stroke-opacity:1"
             d="M 0,0 V 315.542" /></g><g
           transform="translate(168.4604,-3.2468)"
           id="g208"><path
             id="path210"
             style="fill:none;stroke:#ffffff;stroke-width:12;stroke-linecap:butt;stroke-linejoin:miter;stroke-miterlimit:10;stroke-dasharray:none;stroke-opacity:1"
             d="M 0,0 V 315.542" /></g><g
           transform="translate(290.4873,-3.2468)"
           id="g212"><path
             id="path214"
             style="fill:none;stroke:#ffffff;stroke-width:12;stroke-linecap:butt;stroke-linejoin:miter;stroke-miterlimit:10;stroke-dasharray:none;stroke-opacity:1"
             d="M 0,0 V 315.542" /></g><g
           transform="translate(387.0391,-3.2468)"
           id="g216"><path
             id="path218"
             style="fill:none;stroke:#ffffff;stroke-width:12;stroke-linecap:butt;stroke-linejoin:miter;stroke-miterlimit:10;stroke-dasharray:none;stroke-opacity:1"
             d="M 0,0 V 315.542" /></g></g></g><text
       id="text226"
       style="font-variant:normal;font-weight:normal;font-stretch:normal;font-size:14px;font-family:Roboto;-inkscape-font-specification:Roboto-Regular;writing-mode:lr-tb;fill:#000000;fill-opacity:1;fill-rule:nonzero;stroke:none"
       transform="matrix(1,0,0,-1,88.7998,322.1011)"><tspan
         id="tspan220"
         y="0"
         x="0 6.9439998 10.346 17.962 25.858 33.585999">žiadne</tspan><tspan
         id="tspan222"
         y="14.994"
         x="0 4.7880001 12.642 16.044001 19.445999 27.426001 32.004002 39.731998 46.354">(pilotný </tspan><tspan
         id="tspan224"
         y="29.988001"
         x="0 7.224 13.846 21.07 25.648001 33.068001 45.332001">systém)</tspan></text>
<text
       id="text230"
       style="font-variant:normal;font-weight:normal;font-stretch:normal;font-size:14px;font-family:Roboto;-inkscape-font-specification:Roboto-Regular;writing-mode:lr-tb;fill:#231f20;fill-opacity:1;fill-rule:nonzero;stroke:none"
       transform="matrix(1,0,0,-1,2.2518,449.0391)"><tspan
         id="tspan228"
         y="0"
         x="0 7.868 15.736 23.604">2005</tspan></text>
<text
       id="text234"
       style="font-variant:normal;font-weight:normal;font-stretch:normal;font-size:14px;font-family:Roboto;-inkscape-font-specification:Roboto-Regular;writing-mode:lr-tb;fill:#231f20;fill-opacity:1;fill-rule:nonzero;stroke:none"
       transform="matrix(1,0,0,-1,28.6138,477.0111)"><tspan
         id="tspan232"
         y="0"
         x="0 7.5054002 15.1214 22.065399 29.6814 33.1534 66.024002 73.529404 81.145401 88.089401 95.705399 99.177399 102.9854 190.274 197.7794 205.3954 212.3394 219.9554 223.4274 227.2354 231.0434 364.70001 372.20541 379.82141 386.76541 394.38141 397.85339 401.66141">Fáza IFáza IIFáza IIIFáza IV</tspan></text>
<text
       id="text238"
       style="font-variant:normal;font-weight:normal;font-stretch:normal;font-size:14px;font-family:Roboto;-inkscape-font-specification:Roboto-Regular;writing-mode:lr-tb;fill:#231f20;fill-opacity:1;fill-rule:nonzero;stroke:none"
       transform="matrix(1,0,0,-1,60.4778,447.8211)"><tspan
         id="tspan236"
         y="0"
         x="0 7.868 15.736 23.604 77.629997 85.498001 93.365997 101.234 252.308 260.17599 268.04401 275.91199">200820132021</tspan></text>
<g
       id="g240"><g
         clip-path="url(#clipPath246)"
         id="g242"><text
           id="text250"
           style="font-variant:normal;font-weight:normal;font-stretch:normal;font-size:14px;font-family:Roboto;-inkscape-font-specification:Roboto-Regular;writing-mode:lr-tb;fill:#231f20;fill-opacity:1;fill-rule:nonzero;stroke:none"
           transform="matrix(1,0,0,-1,488.3042,447.8096)"><tspan
             id="tspan248"
             y="0"
             x="0 7.868 15.736 23.604">2030</tspan></text>
<g
           transform="translate(22.0557,469.0813)"
           id="g252"><path
             id="path254"
             style="fill:none;stroke:#000000;stroke-width:1.5;stroke-linecap:butt;stroke-linejoin:miter;stroke-miterlimit:10;stroke-dasharray:none;stroke-opacity:1"
             d="m 0,0 c 0,-2.253 -1.826,-4.079 -4.079,-4.079 -2.253,0 -4.079,1.826 -4.079,4.079 0,2.252 1.826,4.078 4.079,4.078 C -1.826,4.078 0,2.252 0,0 Z" /></g><g
           transform="translate(80.2837,469.0813)"
           id="g256"><path
             id="path258"
             style="fill:none;stroke:#000000;stroke-width:1.5;stroke-linecap:butt;stroke-linejoin:miter;stroke-miterlimit:10;stroke-dasharray:none;stroke-opacity:1"
             d="m 0,0 c 0,-2.253 -1.826,-4.079 -4.079,-4.079 -2.253,0 -4.079,1.826 -4.079,4.079 0,2.252 1.826,4.078 4.079,4.078 C -1.826,4.078 0,2.252 0,0 Z" /></g><g
           transform="translate(157.9209,469.0813)"
           id="g260"><path
             id="path262"
             style="fill:none;stroke:#000000;stroke-width:1.5;stroke-linecap:butt;stroke-linejoin:miter;stroke-miterlimit:10;stroke-dasharray:none;stroke-opacity:1"
             d="m 0,0 c 0,-2.253 -1.826,-4.079 -4.079,-4.079 -2.253,0 -4.078,1.826 -4.078,4.079 0,2.252 1.825,4.078 4.078,4.078 C -1.826,4.078 0,2.252 0,0 Z" /></g><g
           transform="translate(332.605,469.0813)"
           id="g264"><path
             id="path266"
             style="fill:none;stroke:#000000;stroke-width:1.5;stroke-linecap:butt;stroke-linejoin:miter;stroke-miterlimit:10;stroke-dasharray:none;stroke-opacity:1"
             d="m 0,0 c 0,-2.253 -1.826,-4.079 -4.079,-4.079 -2.253,0 -4.079,1.826 -4.079,4.079 0,2.252 1.826,4.078 4.079,4.078 C -1.826,4.078 0,2.252 0,0 Z" /></g><g
           transform="translate(507.2891,469.0813)"
           id="g268"><path
             id="path270"
             style="fill:none;stroke:#000000;stroke-width:1.5;stroke-linecap:butt;stroke-linejoin:miter;stroke-miterlimit:10;stroke-dasharray:none;stroke-opacity:1"
             d="m 0,0 c 0,-2.253 -1.826,-4.079 -4.079,-4.079 -2.253,0 -4.079,1.826 -4.079,4.079 0,2.252 1.826,4.078 4.079,4.078 C -1.826,4.078 0,2.252 0,0 Z" /></g><g
           transform="translate(24.0024,469.0813)"
           id="g272"><path
             id="path274"
             style="fill:none;stroke:#000000;stroke-width:1.5;stroke-linecap:butt;stroke-linejoin:miter;stroke-miterlimit:10;stroke-dasharray:none;stroke-opacity:1"
             d="M 0,0 H 45.571" /></g><g
           transform="translate(82.1997,469.0813)"
           id="g276"><path
             id="path278"
             style="fill:none;stroke:#000000;stroke-width:1.5;stroke-linecap:butt;stroke-linejoin:miter;stroke-miterlimit:10;stroke-dasharray:none;stroke-opacity:1"
             d="M 0,0 H 65.361" /></g><g
           transform="translate(159.8086,469.0813)"
           id="g280"><path
             id="path282"
             style="fill:none;stroke:#000000;stroke-width:1.5;stroke-linecap:butt;stroke-linejoin:miter;stroke-miterlimit:10;stroke-dasharray:none;stroke-opacity:1"
             d="M 0,0 H 163.753" /></g><g
           transform="translate(334.3789,469.0813)"
           id="g284"><path
             id="path286"
             style="fill:none;stroke:#000000;stroke-width:1.5;stroke-linecap:butt;stroke-linejoin:miter;stroke-miterlimit:10;stroke-dasharray:none;stroke-opacity:1"
             d="M 0,0 H 162.776" /></g><text
           id="text290"
           style="font-variant:normal;font-weight:normal;font-stretch:normal;font-size:14px;font-family:Roboto;-inkscape-font-specification:Roboto-Regular;writing-mode:lr-tb;fill:#000000;fill-opacity:1;fill-rule:nonzero;stroke:none"
           transform="matrix(1,0,0,-1,389.9277,322.1011)"><tspan
             id="tspan288"
             y="0"
             x="0 6.9439998 14.56 19.292 22.694 30.309999 38.206001 45.625999 53.354 56.756001 64.372002 67.844002 75.571999 83.188004 86.660004 93.435997 100.058 104.6304 112.6104 120.4644 128.17841">zariadenia na výrobu </tspan></text>
</g></g><text
       id="text294"
       style="font-variant:normal;font-weight:normal;font-stretch:normal;font-size:14px;font-family:Roboto;-inkscape-font-specification:Roboto-Regular;writing-mode:lr-tb;fill:#000000;fill-opacity:1;fill-rule:nonzero;stroke:none"
       transform="matrix(1,0,0,-1,389.9277,307.1011)"><tspan
         id="tspan292"
         y="0"
         x="0 7.4200001 15.148 22.568001 27.1656 35.0196 38.4216 45.841599 48.585602 52.057598 59.4776 67.205597 74.625603 79.214798 87.068802 94.4888 99.066803 102.4688 109.7908 116.8888 123.5108">energie, energeticky </tspan></text>
<g
       id="g296"><g
         clip-path="url(#clipPath302)"
         id="g298"><text
           id="text306"
           style="font-variant:normal;font-weight:normal;font-stretch:normal;font-size:14px;font-family:Roboto;-inkscape-font-specification:Roboto-Regular;writing-mode:lr-tb;fill:#000000;fill-opacity:1;fill-rule:nonzero;stroke:none"
           transform="matrix(1,0,0,-1,389.9277,292.1011)"><tspan
             id="tspan304"
             y="0"
             x="0 7.7280002 15.344 19.940201 27.9202 35.242199 42.9702 50.390202 53.862202 61.716202 66.448196 69.850197 77.270203 89.534203 96.156197 103.3802 110.8002 114.2022 121.9302 129.3502">náročné priemyselné </tspan></text>
</g></g><text
       id="text310"
       style="font-variant:normal;font-weight:normal;font-stretch:normal;font-size:14px;font-family:Roboto;-inkscape-font-specification:Roboto-Regular;writing-mode:lr-tb;fill:#000000;fill-opacity:1;fill-rule:nonzero;stroke:none"
       transform="matrix(1,0,0,-1,389.9277,277.1011)"><tspan
         id="tspan308"
         y="0"
         x="0 7.98 15.876 22.572201 29.992201 34.570202 41.346199 44.748199">odvetvia</tspan></text>
<text
       id="text314"
       style="font-variant:normal;font-weight:normal;font-stretch:normal;font-size:14px;font-family:Roboto;-inkscape-font-specification:Roboto-Regular;writing-mode:lr-tb;fill:#231f20;fill-opacity:1;fill-rule:nonzero;stroke:none"
       transform="matrix(1,0,0,-1,390.9217,239.3011)"><tspan
         id="tspan312"
         y="0"
         x="0">+</tspan></text>
<text
       id="text318"
       style="font-variant:normal;font-weight:normal;font-stretch:normal;font-size:14px;font-family:Roboto;-inkscape-font-specification:Roboto-Regular;writing-mode:lr-tb;fill:#000000;fill-opacity:1;fill-rule:nonzero;stroke:none"
       transform="matrix(1,0,0,-1,402.3317,239.3011)"><tspan
         id="tspan316"
         y="0"
         x="0 3.402 10.822 15.4 22.82 30.142 34.720001 41.378399">letectvo</tspan></text>
<text
       id="text322"
       style="font-variant:normal;font-weight:normal;font-stretch:normal;font-size:14px;font-family:Roboto;-inkscape-font-specification:Roboto-Regular;writing-mode:lr-tb;fill:#231f20;fill-opacity:1;fill-rule:nonzero;stroke:none"
       transform="matrix(1,0,0,-1,390.9217,154.0551)"><tspan
         id="tspan320"
         y="0"
         x="0">+</tspan></text>
<text
       id="text328"
       style="font-variant:normal;font-weight:normal;font-stretch:normal;font-size:14px;font-family:Roboto;-inkscape-font-specification:Roboto-Regular;writing-mode:lr-tb;fill:#000000;fill-opacity:1;fill-rule:nonzero;stroke:none"
       transform="matrix(1,0,0,-1,402.3317,154.0551)"><tspan
         id="tspan324"
         y="0"
         x="0 6.776 13.398 17.9998 25.979799 33.833801 41.449799 44.921799 52.635799 56.0378 59.4398 67.167801 70.625801 77.723801 85.437798">výroba hliníku </tspan><tspan
         id="tspan326"
         y="14.994"
         x="1.064 8.6800003 12.152 19.474001 27.188 34.608002 46.872002 50.273998 57.372002 64.987999 68.389999 71.792">a chemikálií</tspan></text>
<text
       id="text332"
       style="font-variant:normal;font-weight:normal;font-stretch:normal;font-size:14px;font-family:Roboto;-inkscape-font-specification:Roboto-Regular;writing-mode:lr-tb;fill:#231f20;fill-opacity:1;fill-rule:nonzero;stroke:none"
       transform="matrix(1,0,0,-1,390.9217,121.0571)"><tspan
         id="tspan330"
         y="0"
         x="0">+</tspan></text>
<text
       id="text338"
       style="font-variant:normal;font-weight:normal;font-stretch:normal;font-size:14px;font-family:Roboto;-inkscape-font-specification:Roboto-Regular;writing-mode:lr-tb;fill:#000000;fill-opacity:1;fill-rule:nonzero;stroke:none"
       transform="matrix(1,0,0,-1,402.3317,121.0571)"><tspan
         id="tspan334"
         y="0"
         x="0 6.9439998 14.56 21.882 29.596001 36.217999 40.796001 48.301399 54.980801 62.596802 70.324799 73.726799 81.146797 84.587997 92.204002">zachytávanie a </tspan><tspan
         id="tspan336"
         y="14.994"
         x="-0.308 6.9159999 14.014 17.416 25.032 32.928001 40.796001 47.475399 55.0914 62.819401 66.221397 73.641403 77.113403 84.8274 92.541397 95.943398 99.401398 106.4994">skladovanie uhlíku</tspan></text>
<text
       id="text342"
       style="font-variant:normal;font-weight:300;font-stretch:normal;font-size:14px;font-family:'Roboto Light';-inkscape-font-specification:Roboto-Light;writing-mode:lr-tb;fill:#000000;fill-opacity:1;fill-rule:nonzero;stroke:none"
       transform="matrix(1,0,0,-1,395.1777,68.5011)"><tspan
         id="tspan340"
         y="0"
         x="0 4.4660001 11.2 14.602 17.794001 25.032 32.816002 40.501999 48.006001 55.692001 58.813999">(v jednaní)</tspan></text>
</g></svg>