<?xml version="1.0" encoding="UTF-8" standalone="no"?>
<svg
   viewBox="0 0 434.00001 68"
   version="1.1"
   id="svg45"
   width="434"
   height="68"
   xmlns="http://www.w3.org/2000/svg"
   xmlns:svg="http://www.w3.org/2000/svg">
  <defs
     id="defs4">
    <style
       id="style2">.cls-1{fill:#4c98d9;}.cls-2{fill:#3d4a99;}.cls-3{fill:#4cbdaa;}.cls-4{fill:#2d8c79;}.cls-5{fill:#f8c152;}.cls-6{fill:#ff4f51;}.cls-7{fill:#a63242;}.cls-8{fill:#7a55aa;}.cls-9{fill:#262626;}</style>
  </defs>
  <g
     id="Layer_1"
     data-name="Layer 1"
     transform="translate(-16.607,-16.140089)">
    <path
       class="cls-1"
       d="m 67.171,46.476 15.942,-2.96 A 33.779,33.779 0 0 0 50.44,16.351 v 16.215 a 17.568,17.568 0 0 1 16.731,13.91 z"
       id="path6" />
    <path
       class="cls-2"
       d="M 69.723,77.535 A 33.849,33.849 0 0 0 83.278,44.4 l -15.943,2.96 a 17.605,17.605 0 0 1 -6.909,16.89 z"
       id="path8" />
    <path
       class="cls-3"
       d="M 49.54,32.566 V 16.351 a 33.818,33.818 0 0 0 -7.219,0.879 l 3.892,15.741 a 17.561,17.561 0 0 1 3.327,-0.405 z"
       id="path10" />
    <path
       class="cls-4"
       d="M 34.639,20.038 42.2,34.382 a 17.526,17.526 0 0 1 3.138,-1.194 L 41.446,17.446 a 33.772,33.772 0 0 0 -6.807,2.592 z"
       id="path12" />
    <path
       class="cls-5"
       d="M 41.4,34.8 33.842,20.458 a 33.576,33.576 0 0 0 -9.625,7.835 L 36.729,38.608 A 17.452,17.452 0 0 1 41.4,34.8 Z"
       id="path14" />
    <path
       class="cls-6"
       d="M 16.215,49.92 32.43,49.8 A 17.6,17.6 0 0 1 36.156,39.3 L 23.644,28.988 A 33.836,33.836 0 0 0 16.215,49.92 Z"
       id="path16" />
    <path
       class="cls-7"
       d="m 33.667,79.692 7.646,-14.3 A 17.555,17.555 0 0 1 32.436,50.7 l -16.215,0.119 a 33.753,33.753 0 0 0 17.446,28.873 z"
       id="path18" />
    <path
       class="cls-8"
       d="m 42.107,65.819 -7.646,14.3 a 33.6,33.6 0 0 0 34.524,-2.066 l -9.3,-13.285 a 17.471,17.471 0 0 1 -17.578,1.051 z"
       id="path20" />
    <path
       class="cls-9"
       d="m 103.723,31.251 h 26.818 v 7.86 h -17.4 v 7.74 H 127 v 7.8 h -13.858 v 14.1 h -9.419 z"
       id="path22" />
    <path
       class="cls-9"
       d="m 149.2,65.39 c -1.98,2.34 -4.2,4.26 -8.04,4.26 -4.8,0 -8.519,-3.42 -8.519,-7.74 0,-5.28 3.96,-9.539 16.5,-9.9 v -0.54 c 0,-2.939 -1.5,-4.26 -4.92,-4.26 -2.88,0 -6.24,1.2 -9.48,2.821 l -1.92,-6.78 a 28.075,28.075 0 0 1 12.84,-3.3 c 9.659,0 12.839,4.38 12.72,12.179 l -0.061,8.28 c 0,1.92 0.361,2.1 2.281,2.281 l -0.9,6.6 c -6.059,0.78 -9.059,-0.839 -10.319,-3.9 z m -0.06,-9.059 c -5.7,0.66 -7.8,1.739 -7.8,4.2 0,1.8 1.44,3 3.48,3 a 5.7,5.7 0 0 0 4.32,-1.861 z"
       id="path24" />
    <path
       class="cls-9"
       d="M 174.041,55.67 V 68.749 H 164.8 V 29.091 l 9.239,-1.139 v 24.9 h 0.061 l 8.519,-12 h 10.621 l -10.26,13.26 10.32,14.637 H 182.8 L 174.1,55.67 Z"
       id="path26" />
    <path
       class="cls-9"
       d="m 207.941,69.65 c -6.9,0 -10.62,-2.82 -10.259,-10.14 l 0.42,-10.62 -4.2,-0.719 0.181,-5.881 4.2,-1.378 0.12,-6.361 h 8.94 l -0.06,6.659 h 6.96 l -0.18,7.26 h -7.44 l -0.3,10.02 c -0.12,2.58 1.38,3.66 3.659,3.66 a 11.979,11.979 0 0 0 3.661,-0.72 l 1.08,7.2 a 20.934,20.934 0 0 1 -6.782,1.02 z"
       id="path28" />
    <path
       class="cls-9"
       d="m 236.681,67.43 -1.38,3.659 c -2.88,8.16 -6.361,10.62 -12.24,10.62 a 19.217,19.217 0 0 1 -8.28,-1.8 l 2.76,-7.02 a 10.463,10.463 0 0 0 4.32,1.26 c 1.98,0 2.88,-0.721 3.96,-3.42 l 0.78,-2.16 -10.919,-27.718 h 9.9 l 5.94,18.359 5.4,-18.359 h 9.84 z"
       id="path30" />
    <path
       class="cls-9"
       d="m 276.82,69.65 c -8.4,0 -14.819,-5.279 -14.819,-14.76 0,-9.481 6.72,-14.939 15.18,-14.939 8.4,0 14.758,5.4 14.758,14.759 0,9.359 -6.779,14.94 -15.119,14.94 z m 0.12,-22.68 c -3.78,0 -5.759,3.061 -5.759,7.861 0,4.739 2.04,7.739 5.819,7.739 3.779,0 5.76,-3 5.76,-7.8 0,-4.679 -2.04,-7.8 -5.82,-7.8 z"
       id="path32" />
    <path
       class="cls-9"
       d="m 319.96,55.67 v 13.079 h -9.24 V 29.091 l 9.24,-1.139 v 24.9 h 0.06 l 8.519,-12 h 10.62 L 328.9,54.111 339.22,68.749 h -10.5 l -8.7,-13.079 z"
       id="path34" />
    <path
       class="cls-9"
       d="M 342.64,68.749 V 29.091 l 9.24,-1.139 v 40.8 z"
       id="path36" />
    <path
       class="cls-9"
       d="m 358.72,68.749 v -27.6 l 9.239,-0.78 v 28.38 z m 6.6,-31.618 h -5.76 l 5.939,-11.1 h 9.96 z"
       id="path38" />
    <path
       class="cls-9"
       d="M 409.418,68.749 V 52.31 c 0,-3.359 -1.44,-4.5 -3.78,-4.5 a 6.831,6.831 0 0 0 -4.5,1.8 V 68.749 H 391.9 V 52.31 c 0,-3.359 -1.5,-4.5 -3.839,-4.5 a 6.875,6.875 0 0 0 -4.5,1.68 v 19.259 h -9.24 V 41.331 l 9.24,-1.14 v 3.9 c 2.46,-2.519 5.219,-4.14 8.879,-4.14 a 8.142,8.142 0 0 1 7.86,4.98 c 2.58,-3 5.88,-4.98 9.66,-4.98 5.4,0 8.7,3.66 8.7,9.66 v 19.138 z"
       id="path40" />
    <path
       class="cls-9"
       d="m 432.7,56.991 c 0.3,3.719 2.88,5.88 7.38,5.88 a 18.893,18.893 0 0 0 9.12,-2.7 l 0.9,7.14 a 25.029,25.029 0 0 1 -10.86,2.279 c -9.479,0 -15.6,-5.279 -15.6,-14.578 0,-9.12 6.24,-15.06 15.12,-15.06 7.919,0 12.239,4.74 12.239,11.7 a 20.776,20.776 0 0 1 -0.6,4.919 l -17.7,0.3 z m 9.72,-4.8 v -0.54 c 0,-3.3 -1.38,-5.34 -4.26,-5.34 -3.179,0 -5.1,2.76 -5.4,5.939 z"
       id="path42" />
  </g>
</svg>
